<svg xmlns="http://www.w3.org/2000/svg" width="43" height="51" stroke="#000" stroke-linecap="round" stroke-linejoin="round" fill="#fff" fill-rule="evenodd">
    <style>
        path {
            fill: black;
        }
        @media (prefers-color-scheme: dark) {
            path { fill: white; }
        }
    </style>
    <path d="M40.6202 38.4654c-.7539 1.7467-1.647 3.3547-2.6811 4.8331-1.4092 2.0151-2.5634 3.4107-3.4536 4.1851-1.3783 1.2717-2.8562 1.9227-4.4381 1.9598-1.1356 0-2.5058-.324-4.0999-.9816-1.5993-.6542-3.0693-.9782-4.4133-.9782-1.4095 0-2.9215.324-4.5382.9782s-2.9247 1-3.9226 1.0339c-1.5167.0652-3.0287-.6045-4.5374-2.0121-.9643-.8423-2.1689-2.2869-3.612-4.3332-1.5489-2.185-2.8227-4.719-3.8203-7.6078C.0352 32.4223-.5 29.401-.5 26.4754c0-3.3504.7219-6.2404 2.1682-8.6623 1.1373-1.9459 2.6491-3.4799 4.5412-4.6063s3.9377-1.701 6.1402-1.7376c1.2046 0 2.7855.374 4.7489 1.108 1.9577.7376 3.2151 1.1111 3.7666 1.1111.412 0 1.8083-.4371 4.1769-1.3085 2.2384-.808 4.128-1.1426 5.6767-1.0106 4.195.34 7.3467 1.998 9.4428 4.9856-3.7524 2.2791-5.6083 5.4724-5.5708 9.5683.034 3.1902 1.1879 5.8447 3.4562 7.9526 1.0282.9786 2.1753 1.7349 3.4531 2.2717-.2767.8059-.569 1.5772-.8798 2.318zM30.9988.5008c0 2.5003-.9115 4.8345-2.7272 6.9963-2.1916 2.5682-4.8424 4.0535-7.7171 3.819-.0361-.2998-.0569-.6153-.0569-.947 0-2.4013 1.0416-4.97 2.8927-7.0703.924-1.0638 2.0983-1.948 3.5239-2.6538 1.4223-.6947 2.767-1.0792 4.032-1.145.037.3348.0526.669.0526 1.0006z" stroke="none" fill="#666" fill-rule="nonzero"/>
</svg>