<svg xmlns="http://www.w3.org/2000/svg" width="43" height="51" fill="none"><g clip-path="url(#a)"><path fill="#000" d="M40.62 38.465a27.2 27.2 0 0 1-2.68 4.833c-1.41 2.016-2.564 3.411-3.454 4.186q-2.067 1.905-4.439 1.96c-1.135 0-2.505-.325-4.1-.982q-2.398-.98-4.413-.978-2.114-.002-4.538.978-2.426.982-3.923 1.034-2.274.098-4.537-2.012-1.447-1.264-3.612-4.334-2.324-3.276-3.82-7.607Q-.5 30.863-.5 26.475c0-3.35.722-6.24 2.168-8.662q1.706-2.918 4.541-4.606a12.2 12.2 0 0 1 6.14-1.738c1.205 0 2.786.374 4.75 1.108q2.938 1.109 3.766 1.111c.412 0 1.808-.437 4.177-1.308q3.355-1.21 5.677-1.01c4.195.34 7.346 1.997 9.442 4.985-3.752 2.279-5.608 5.472-5.57 9.568.034 3.19 1.188 5.845 3.456 7.953a11.3 11.3 0 0 0 3.453 2.271 37 37 0 0 1-.88 2.318M31 .501c0 2.5-.912 4.834-2.727 6.996-2.192 2.568-4.843 4.054-7.717 3.82a8 8 0 0 1-.057-.948c0-2.401 1.041-4.97 2.892-7.07q1.386-1.595 3.524-2.654C28.336-.05 29.681-.435 30.946-.5Q31 .004 31 .5"/></g><defs><clipPath id="a"><path fill="#fff" d="M0 0h43v51H0z"/></clipPath></defs></svg>