<svg width="32" height="32" viewBox="0 0 32 32" fill="none" xmlns="http://www.w3.org/2000/svg">
<path d="M28.877 24.9378C28.3945 26.0557 27.8229 27.0848 27.1611 28.031C26.2592 29.3207 25.5205 30.2139 24.9508 30.7095C24.0687 31.5234 23.1228 31.94 22.1104 31.9638C21.3836 31.9638 20.5067 31.7564 19.4864 31.3355C18.4629 30.9168 17.5221 30.7095 16.6619 30.7095C15.7599 30.7095 14.7922 30.9168 13.7575 31.3355C12.7228 31.7542 11.8857 31.9755 11.247 31.9972C10.2763 32.039 9.30866 31.6103 8.34309 30.7095C7.72594 30.1704 6.955 29.2459 6.03142 27.9362C5.04012 26.5378 4.22489 24.9161 3.58643 23.0672C2.90259 21.0703 2.56006 19.1366 2.56006 17.2642C2.56006 15.12 3.02207 13.2704 3.94771 11.7204C4.67558 10.475 5.64313 9.49324 6.85407 8.77235C8.06501 8.05145 9.3742 7.68371 10.7838 7.66028C11.5547 7.66028 12.5665 7.89964 13.8231 8.3694C15.076 8.84147 15.8808 9.08051 16.2337 9.08051C16.4974 9.08051 17.391 8.80076 18.9069 8.24307C20.3395 7.72595 21.5488 7.5118 22.54 7.59628C25.2248 7.81388 27.2419 8.875 28.5834 10.7871C26.1819 12.2457 24.9941 14.2894 25.0181 16.9108C25.0398 18.9525 25.7783 20.6514 27.2301 22.0004C27.8881 22.6267 28.6222 23.1108 29.44 23.4543C29.263 23.9701 29.0759 24.4637 28.877 24.9378ZM22.7193 0.640512C22.7193 2.2407 22.1359 3.73459 20.9739 5.11814C19.5712 6.76179 17.8747 7.71238 16.0349 7.5623C16.0118 7.37043 15.9985 7.16851 15.9985 6.95622C15.9985 5.41939 16.6651 3.77542 17.8498 2.43123C18.4412 1.7504 19.1927 1.18451 20.1051 0.732799C21.0154 0.288192 21.876 0.042112 22.6856 0C22.7093 0.214272 22.7193 0.428288 22.7193 0.640512Z" fill="white"/>
</svg>
