<svg xmlns="http://www.w3.org/2000/svg" width="67" height="67" fill="#fff" fill-rule="evenodd" stroke="#000" stroke-linecap="round" stroke-linejoin="round"><defs><linearGradient id="a" x1="99.71%" x2="39.86%" y1="109.22%" y2="190.85%"><stop offset="0%" stop-color="#0052cc"/><stop offset="92%" stop-color="#2684ff"/></linearGradient></defs><g fill-rule="nonzero" stroke="none"><path fill="url(#a)" d="M19.636 30.519a1.88 1.88 0 0 0-3.2.35L.206 63.329a1.94 1.94 0 0 0 1.73 2.81h22.6a1.87 1.87 0 0 0 1.74-1.1c4.87-10 1.92-25.37-6.64-34.52"/><path fill="#2684ff" d="M31.546 1.039a42.81 42.81 0 0 0-2.5 42.27l10.95 21.73a1.94 1.94 0 0 0 1.73 1.08h22.6a2 2 0 0 0 1.67-2.79l-31.15-62.29a1.83 1.83 0 0 0-3.3 0"/></g></svg>