<svg xmlns="http://www.w3.org/2000/svg" width="67" height="67" stroke="#000" stroke-linecap="round" stroke-linejoin="round" fill="#fff" fill-rule="evenodd">
    <defs>
        <linearGradient id="A" x1="99.71%" y1="109.22%" x2="39.86%" y2="190.85%">
            <stop offset="0%" stop-color="#0052cc"/>
            <stop offset="92%" stop-color="#2684ff"/>
        </linearGradient>
    </defs>
    <g stroke="none" fill-rule="nonzero">
        <path d="M19.636 30.5185a1.88 1.88 0 0 0-3.2.35l-16.23 32.46a1.94 1.94 0 0 0 1.73 2.81h22.6a1.87 1.87 0 0 0 1.74-1.1c4.87-10 1.92-25.37-6.64-34.52z" fill="url(#A)"/>
        <path d="M31.5461 1.0385c-8.2312 12.6627-9.1812 28.7255-2.5 42.27l10.95 21.73c.3256.6586.9953 1.0767 1.73 1.08h22.6a2 2 0 0 0 1.67-2.79l-31.15-62.29a1.83 1.83 0 0 0-3.3 0z" fill="#2684ff"/>
    </g>
</svg>