<svg xmlns="http://www.w3.org/2000/svg" width="32" height="32" fill="none"><g clip-path="url(#a)"><path fill="url(#b)" d="M9.497 14.766a.91.91 0 0 0-1.547.17L.1 30.64A.94.94 0 0 0 .936 32h10.931a.9.9 0 0 0 .842-.532c2.355-4.839.928-12.275-3.212-16.702"/><path fill="#2684ff" d="M15.189.502a20.72 20.72 0 0 0-1.21 20.452l5.297 10.514a.94.94 0 0 0 .837.522h10.93a.968.968 0 0 0 .808-1.35L16.785.502a.886.886 0 0 0-1.596 0"/></g><defs><linearGradient id="b" x1="1380.34" x2="279.105" y1="1935.79" y2="3117.74" gradientUnits="userSpaceOnUse"><stop stop-color="#0052cc"/><stop offset=".92" stop-color="#2684ff"/></linearGradient><clipPath id="a"><path fill="#fff" d="M0 0h32v32H0z"/></clipPath></defs></svg>