<svg xmlns="http://www.w3.org/2000/svg" width="51" height="46" fill="#fff" fill-rule="evenodd" stroke="#000" stroke-linecap="round" stroke-linejoin="round"><defs><linearGradient id="a" x1="108.63%" x2="46.93%" y1="13.82%" y2="78.78%"><stop offset="18%" stop-color="#0052cc"/><stop offset="100%" stop-color="#2684ff"/></linearGradient></defs><g fill-rule="nonzero" stroke="none"><path fill="#2684ff" d="M1.123-.5A1.6 1.6 0 0 0-.111.056 1.6 1.6 0 0 0-.48 1.36l6.8 41.32a2.18 2.18 0 0 0 2.13 1.82h32.626a1.6 1.6 0 0 0 1.602-1.347l6.8-41.785a1.6 1.6 0 0 0-.367-1.304 1.6 1.6 0 0 0-1.235-.556zm28.636 29.864H19.346l-2.82-14.744h15.756z"/><path fill="url(#a)" d="M47.317 14.62H32.282l-2.523 14.744H19.346L7.05 43.97a2.17 2.17 0 0 0 1.402.529h32.633a1.6 1.6 0 0 0 1.602-1.347z"/></g></svg>