<svg xmlns="http://www.w3.org/2000/svg" width="51" height="46" stroke="#000" stroke-linecap="round" stroke-linejoin="round" fill="#fff" fill-rule="evenodd">
    <defs>
        <linearGradient id="A" x1="108.63%" y1="13.82%" x2="46.93%" y2="78.78%">
            <stop offset="18%" stop-color="#0052cc"/>
            <stop offset="100%" stop-color="#2684ff"/>
        </linearGradient>
    </defs>
    <g stroke="none" fill-rule="nonzero">
        <path d="M1.1227-.4999a1.602 1.602 0 0 0-1.234.5563c-.309.3589-.4438.836-.368 1.3037L6.3213 42.68c.175 1.0437 1.0733 1.811 2.1305 1.8199h32.6249c.7939.0101 1.4751-.5627 1.602-1.347l6.8009-41.7847a1.605 1.605 0 0 0-.368-1.3038 1.602 1.602 0 0 0-1.2342-.5563zm28.636 29.8636H19.3456L16.526 14.6202h15.7557z" fill="#2684ff"/>
        <path d="M47.3167 14.6203h-15.035l-2.5232 14.7434h-10.413L7.0501 43.9707a2.169 2.169 0 0 0 1.4016.5292h32.633c.794.0099 1.475-.5625 1.602-1.3469z" fill="url(#A)"/>
    </g>
</svg>