<svg xmlns="http://www.w3.org/2000/svg" width="46" height="47" fill="#fff" fill-rule="evenodd" stroke="#000" stroke-linecap="round" stroke-linejoin="round"><path fill="#0051ff" stroke="none" d="M21.729-.5h2.025A23.9 23.9 0 0 1 34.78 2.633q7.294 4.434 9.7 12.697l.52 2.098v.09q-5.498.015-10.995-.03-1.398-4.174-5.036-6.58-4.023-2.385-8.641-1.59-6.547 1.282-9.222 7.421-1.837 4.66-.775 9.564.941 4.21 4.097 7.09 3.88 3.212 8.94 2.969 6.502-.515 9.699-6.192a15 15 0 0 0 .938-2.248l10.906-.03q-1.426 7.72-7.27 12.846-4.995 4.13-11.443 5.036a38 38 0 0 1-2.204.226H21.49q-6.895-.306-12.574-4.212Q2.691 37.266.468 29.84A25.8 25.8 0 0 1-.5 24.024v-2.699q.488-7.913 5.527-13.94 5.727-6.44 14.288-7.66 1.21-.158 2.414-.225" opacity=".996"/></svg>