<svg xmlns="http://www.w3.org/2000/svg" width="46" height="47" stroke="#000" stroke-linecap="round" stroke-linejoin="round" fill="#fff" fill-rule="evenodd">
    <path d="M21.729-.5h2.0252c3.9266.1479 7.6026 1.1928 11.0252 3.1326 4.863 2.9565 8.0959 7.1882 9.6997 12.6975L45 17.4282v.0899c-3.665.0104-7.3302 0-10.9951-.0295-.9323-2.7833-2.6109-4.9764-5.0361-6.5805-2.6819-1.5895-5.5625-2.1196-8.6411-1.5895-4.3635.8545-7.4384 3.3277-9.2222 7.4208-1.2246 3.1063-1.4827 6.2932-.7742 9.5634.6276 2.8069 1.9928 5.1707 4.0967 7.0898 2.5874 2.1419 5.5675 3.1308 8.9391 2.969 4.3361-.343 7.5681-2.4073 9.6996-6.1917a14.912 14.912 0 0 0 .9382-2.2478l10.9064-.0309c-.9509 5.147-3.3748 9.4297-7.2709 12.8472-3.3294 2.753-7.1435 4.4317-11.4428 5.036-.7375.0971-1.4715.1722-2.204.2256h-2.5033c-4.5977-.2039-8.7885-1.6082-12.574-4.212-4.1497-3.0148-6.9661-6.9967-8.4484-11.9481-.5457-1.9049-.8683-3.8435-.9679-5.8157v-2.6987c.3254-5.2752 2.1679-9.923 5.5269-13.9411C8.8447 3.0922 13.6073.5394 19.3147-.2744c.8069-.1069 1.6109-.1813 2.4143-.2256z" stroke="none" fill="#0051ff" opacity=".996"/>
</svg>