<svg xmlns="http://www.w3.org/2000/svg" width="62" height="48" fill="none"><g clip-path="url(#a)"><path fill="#fff" fill-rule="evenodd" d="M21.637-.5h.2l1.602 3.201.349.1a51 51 0 0 1 6.66-.502l7.113.45L39.163-.5h.2a55 55 0 0 1 12.57 3.9Q60.55 15.58 61.5 30.5V36l-.252 2.6a52.8 52.8 0 0 1-15.574 7.9h-.2a41.5 41.5 0 0 1-3.254-5.2.8.8 0 0 1-.05-.4 28.3 28.3 0 0 0 5.006-2.3q.182-.115 0-.25-.54-.358-1.05-.75-13.683 6.06-27.895 1.35a36 36 0 0 1-3.307-1.35l-1.1.8q-.2.1 0 .2a45 45 0 0 0 5.108 2.45 42 42 0 0 1-3.405 5.45h-.2A54 54 0 0 1-.099 38.75 28 28 0 0 1-.5 35.2v-4.1Q.065 19.085 5.86 8.5a87 87 0 0 1 2.906-4.8c.463-.373.99-.661 1.553-.85A57.7 57.7 0 0 1 21.638-.5m-2.204 19.7q4.175-.204 5.858 3.6 1.476 4.293-1.753 7.45-3.393 2.526-6.709-.1-3.59-3.834-1.054-8.45 1.365-1.939 3.658-2.5m20.534 0q5.191-.088 6.26 5 .546 4.16-2.857 6.55-3.932 1.9-6.76-1.45-2.697-3.997 0-8 1.35-1.61 3.357-2.1" clip-rule="evenodd" opacity=".993"/></g><defs><clipPath id="a"><path fill="#fff" d="M0 0h62v48H0z"/></clipPath></defs></svg>