<svg xmlns="http://www.w3.org/2000/svg" width="62" height="48" fill="#5865f2" fill-rule="evenodd" stroke="#000" stroke-linecap="round" stroke-linejoin="round"><path stroke="none" d="M21.637-.5h.2l1.602 3.201.349.1a51 51 0 0 1 6.66-.502l7.113.45L39.163-.5h.2a55 55 0 0 1 12.57 3.9Q60.55 15.58 61.5 30.5V36l-.252 2.6a52.8 52.8 0 0 1-15.574 7.9h-.2a41.5 41.5 0 0 1-3.254-5.2.8.8 0 0 1-.05-.4 28.3 28.3 0 0 0 5.006-2.3q.182-.115 0-.25-.54-.358-1.05-.75-13.683 6.06-27.895 1.35a36 36 0 0 1-3.307-1.35l-1.1.8q-.2.1 0 .2a45 45 0 0 0 5.108 2.45 42 42 0 0 1-3.406 5.45h-.2A54 54 0 0 1-.098 38.75 28 28 0 0 1-.5 35.2v-4.1Q.065 19.085 5.86 8.5a87 87 0 0 1 2.906-4.8 5 5 0 0 1 1.553-.85A57.7 57.7 0 0 1 21.638-.5m-2.203 19.7c2.781-.136 4.736 1.064 5.857 3.6q1.476 4.293-1.753 7.45c-2.261 1.685-4.5 1.65-6.708-.1q-3.591-3.834-1.054-8.45 1.365-1.939 3.658-2.5m20.533 0q5.191-.088 6.26 5 .546 4.16-2.857 6.55-3.932 1.9-6.76-1.45-2.697-3.997 0-8 1.35-1.61 3.357-2.1" opacity=".993"/></svg>