<svg xmlns="http://www.w3.org/2000/svg" width="62" height="48" stroke="#000" stroke-linecap="round" stroke-linejoin="round" fill="#fff" fill-rule="evenodd">
    <style>
        path {
            fill: #5865f2;
        }
        @media (prefers-color-scheme: dark) {
            path { fill: white; }
        }
    </style>
    <path d="M21.6367-.5h.2005l1.6015 3.2011.3493.1002c2.2092-.3139 4.4306-.4794 6.6609-.502l7.1124.4506L39.1628-.5h.2005c4.337.7949 8.5282 2.0944 12.5706 3.8992 5.7433 8.1209 8.9321 17.1543 9.5661 27.1001v5.5003l-.2516 2.6001c-4.7389 3.4917-9.932 6.1256-15.5746 7.9003h-.2003c-1.2078-1.6469-2.294-3.3797-3.2537-5.2003-.0489-.1277-.0676-.263-.0502-.3996 1.7415-.602 3.4105-1.3706 5.0063-2.3004.1211-.0765.1211-.1598 0-.2501-.3611-.2385-.7104-.4873-1.0498-.7489-9.1228 4.0389-18.4197 4.4888-27.8954 1.349a35.941 35.941 0 0 1-3.3068-1.349l-1.0998.7992c-.133.0682-.133.1332 0 .1998a44.682 44.682 0 0 0 5.1083 2.4508c-.9993 1.91-2.1362 3.7272-3.4059 5.4495h-.2003C9.7586 44.7379 4.6145 42.1532-.098 38.7501c-.2093-1.1844-.3445-2.3682-.402-3.5508v-4.0992c.3771-8.0104 2.4969-15.543 6.3591-22.5992a86.543 86.543 0 0 1 2.9073-4.8012 4.998 4.998 0 0 1 1.5531-.849C13.9868 1.3442 17.7595.2265 21.6367-.5zm-2.2032 19.6999c2.7816-.1356 4.7368 1.0638 5.8573 3.6001.984 2.8621.3993 5.3448-1.7529 7.45-2.2611 1.6851-4.5003 1.65-6.7084-.1006-2.3942-2.5558-2.7448-5.3719-1.054-8.4493.9094-1.2924 2.1299-2.126 3.658-2.5002zm20.5334 0c3.4609-.0582 5.5483 1.6074 6.2599 4.9995.3637 2.7741-.5875 4.957-2.8569 6.5505-2.6208 1.2672-4.8759.7828-6.7608-1.4494-1.7975-2.6654-1.7975-5.3317 0-8 .9007-1.0726 2.0186-1.7742 3.3578-2.1006z" stroke="none" fill="#5865f2" opacity=".993"/>
</svg>