<svg xmlns="http://www.w3.org/2000/svg" width="40" height="40" fill="#fff" fill-rule="evenodd" stroke="#000" stroke-linecap="round" stroke-linejoin="round"><defs><linearGradient id="a" x1="-693.44%" x2="-693.44%" y1="1021.61%" y2="1024.05%"><stop offset="0%" stop-color="#0062e0"/><stop offset="100%" stop-color="#19afff"/></linearGradient></defs><g fill-rule="nonzero" stroke="none"><path fill="url(#a)" d="M16.7 39.8C7.2 38.1 0 29.9 0 20 0 9 9 0 20 0s20 9 20 20c0 9.9-7.2 18.1-16.7 19.8l-1.1-.9h-4.4z" transform="translate(-.5 -.5)"/><path d="m27.3 25.1.9-5.6h-5.3v-3.9c0-1.6.6-2.8 3-2.8h2.6V7.7c-1.4-.2-3-.4-4.4-.4-4.6 0-7.8 2.8-7.8 7.8v4.4h-5v5.6h5v14.1q1.65.3 3.3.3c1.65 0 2.2-.1 3.3-.3V25.1z"/></g></svg>