<svg xmlns="http://www.w3.org/2000/svg" width="52" height="50" stroke="#000" stroke-linecap="round" stroke-linejoin="round" fill="#fff" fill-rule="evenodd">
    <style>
        path {
            fill: black;
        }
        @media (prefers-color-scheme: dark) {
            path { fill: white; }
        }
    </style>
    <path d="M25-.5C10.9111-.5-.5 10.9705-.5 25.1331-.5 36.475 6.7991 46.055 16.9359 49.4516c1.275.2236 1.753-.5466 1.753-1.218l-.0315-4.7754c-6.4074 1.1868-8.0643-1.5696-8.5743-3.0113-.2872-.7358-1.53-3.0117-2.6142-3.6206-.8928-.4811-2.1678-1.665-.0315-1.6988 2.0076-.0319 3.4417 1.8588 3.9207 2.6277 2.295 3.8784 5.9595 2.7892 7.426 2.1159.224-1.6659.8933-2.7875 1.6259-3.4282-5.6739-.6407-11.6019-2.8514-11.6019-12.6572 0-2.7872.9878-5.0928 2.613-6.8887-.255-.6403-1.1472-3.2677.255-6.7923 0 0 2.1363-.6718 7.0128 2.6283 2.04-.5778 4.2072-.866 6.375-.866s4.335.2882 6.375.866c4.877-3.3323 7.0122-2.6283 7.0122-2.6283 1.4028 3.5246.51 6.152.255 6.7923 1.6263 1.7959 2.6139 4.0695 2.6139 6.8887 0 9.8379-5.9609 12.0165-11.6341 12.6572.9241.8015 1.7215 2.3393 1.7215 4.7423l-.0324 7.0484c0 .6714.4776 1.4727 1.7526 1.218C43.2009 46.055 50.5 36.4429 50.5 25.1331 50.5 10.9705 39.0889-.5 25-.5z" stroke="none"/>
</svg>