<svg xmlns="http://www.w3.org/2000/svg" width="52" height="50" fill="none"><g clip-path="url(#a)"><path fill="#000" fill-rule="evenodd" d="M25-.5C10.911-.5-.5 10.97-.5 25.133c0 11.342 7.3 20.922 17.436 24.319 1.275.223 1.753-.547 1.753-1.218l-.032-4.776c-6.407 1.187-8.064-1.57-8.574-3.011-.287-.736-1.53-3.012-2.614-3.62-.893-.482-2.168-1.666-.032-1.7 2.008-.031 3.442 1.86 3.921 2.628 2.295 3.879 5.96 2.79 7.426 2.116.224-1.666.893-2.787 1.626-3.428-5.674-.64-11.602-2.851-11.602-12.657 0-2.788.988-5.093 2.613-6.889-.255-.64-1.147-3.268.255-6.792 0 0 2.136-.672 7.013 2.628a23.5 23.5 0 0 1 6.375-.866c2.168 0 4.335.288 6.375.866 4.877-3.332 7.012-2.628 7.012-2.628 1.403 3.524.51 6.152.255 6.792 1.626 1.796 2.614 4.07 2.614 6.889 0 9.838-5.96 12.016-11.634 12.657.924.801 1.721 2.34 1.721 4.742l-.032 7.049c0 .671.478 1.472 1.753 1.218C43.2 46.055 50.5 36.442 50.5 25.133 50.5 10.971 39.089-.5 25-.5" clip-rule="evenodd"/></g><defs><clipPath id="a"><path fill="#fff" d="M0 0h52v50H0z"/></clipPath></defs></svg>