<svg xmlns="http://www.w3.org/2000/svg" width="68" height="63" stroke="none" stroke-linecap="round" stroke-linejoin="round" fill="#fff" fill-rule="nonzero">
    <path d="M33.5101 61.5004h0l12.5307-38.1458H20.9959l12.5142 38.1458h0z" fill="#e24329"/>
    <path d="M3.4431 23.3546h0l-3.8158 11.589c-.3457 1.052.0274 2.2138.9393 2.8702l32.9425 23.6866-30.066-38.1458h0z" fill="#fca326"/>
    <path d="M3.4433 23.3545H20.997L13.4411.381c-.3854-1.1747-2.0705-1.1747-2.4723 0L3.4433 23.3545h0z" fill="#e24329"/>
    <path d="M63.5931 23.3546h0l3.8035 11.589c.3456 1.052-.0274 2.2138-.9396 2.8702L33.5094 61.5004l30.0837-38.1458h0z" fill="#fca326"/>
    <path d="M63.5947 23.3545H46.041L53.5819.381c.3864-1.1747 2.0715-1.1747 2.472 0l7.5408 22.9735h0z" fill="#e24329"/>
    <g fill="#fc6d26">
        <path d="M33.5094 61.5004l12.5317-38.1458h17.5521z"/>
        <path d="M33.5102 61.5004L3.4433 23.3546H20.997z"/>
    </g>
</svg>