<svg xmlns="http://www.w3.org/2000/svg" width="68" height="63" fill="#fff" stroke-linecap="round" stroke-linejoin="round"><path fill="#e24329" d="m33.51 61.5 12.53-38.145H20.997z"/><path fill="#fca326" d="M3.443 23.355-.373 34.944a2.55 2.55 0 0 0 .94 2.87L33.509 61.5z"/><path fill="#e24329" d="M3.443 23.355h17.554L13.441.38c-.385-1.175-2.07-1.175-2.472 0z"/><path fill="#fca326" d="m63.593 23.355 3.804 11.589a2.55 2.55 0 0 1-.94 2.87L33.509 61.5z"/><path fill="#e24329" d="M63.595 23.355H46.04L53.581.38c.387-1.175 2.072-1.175 2.473 0z"/><path fill="#fc6d26" d="m33.51 61.5 12.53-38.145h17.552zm0 0L3.443 23.355h17.554z"/></svg>