<svg xmlns="http://www.w3.org/2000/svg" width="48" height="50" fill="#fff" fill-rule="evenodd" stroke="#000" strokeLinecap="round" strokeLinejoin="round"><path fill="#ff7a59" fill-rule="nonzero" stroke="none" d="M35.587 15.634V9.799a4.49 4.49 0 0 0 2.602-4.05v-.134c0-2.482-2.02-4.493-4.512-4.493h-.135c-2.492 0-4.512 2.011-4.512 4.493v.134a4.49 4.49 0 0 0 2.602 4.05v5.835a12.8 12.8 0 0 0-6.076 2.664L9.486 5.833a5 5 0 0 0 .181-1.26c.005-2.048-1.23-3.897-3.13-4.684S2.451-.469.995.977-.9 4.6-.115 6.493s2.636 3.13 4.692 3.132a5.05 5.05 0 0 0 2.504-.678l15.824 12.262a12.72 12.72 0 0 0 .196 14.377l-4.813 4.794a4.2 4.2 0 0 0-1.203-.195c-2.305.002-4.172 1.864-4.171 4.159s1.869 4.155 4.174 4.156 4.174-1.86 4.176-4.154a4.1 4.1 0 0 0-.197-1.198l4.762-4.743c4.254 3.261 10.097 3.542 14.647.704s6.846-8.196 5.756-13.43-5.337-9.243-10.645-10.045m-1.973 19.19a6.59 6.59 0 0 1-5.852-3.226 6.54 6.54 0 0 1 0-6.661 6.6 6.6 0 0 1 5.852-3.227c3.544.124 6.354 3.02 6.356 6.553s-2.805 6.431-6.35 6.559"/></svg>
