<svg xmlns="http://www.w3.org/2000/svg" width="48" height="50" stroke="#000" stroke-linecap="round" stroke-linejoin="round" fill="#fff" fill-rule="evenodd">
    <path d="M35.5873 15.6339V9.7988c1.5804-.7355 2.5935-2.3126 2.6014-4.0497v-.1339c0-2.4818-2.0204-4.4935-4.5118-4.4935h-.1345c-2.4924 0-4.5123 2.0117-4.5123 4.4935v.1339c.0079 1.7371 1.021 3.3142 2.6015 4.0497v5.8351a12.802 12.802 0 0 0-6.0755 2.664L9.4865 5.8333a4.986 4.986 0 0 0 .1809-1.2609C9.6716 2.5247 8.4361.6762 6.5375-.1109S2.4514-.4685.9949.9772-.8999 4.5999-.1156 6.4931s2.6365 3.1293 4.6927 3.1322c.8798-.0043 1.7432-.2382 2.5037-.6785L22.905 21.2092a12.72 12.72 0 0 0 .1958 14.3768l-4.8128 4.7939c-.3892-.1237-.7943-.1894-1.2027-.1949-2.305.0019-4.1722 1.8635-4.1716 4.1585s1.8688 4.1558 4.1738 4.1565 4.1742-1.8591 4.1762-4.1545c-.0056-.4067-.0718-.8103-.1964-1.1976l4.7613-4.7432c4.2544 3.2616 10.0973 3.5424 14.6472.7047s6.8462-8.1964 5.7561-13.4313-5.3366-9.2417-10.6446-10.0444m-1.9735 19.1912c-2.3948.064-4.6356-1.1713-5.852-3.2269a6.535 6.535 0 0 1 0-6.6611c1.2164-2.0552 3.4572-3.2907 5.852-3.2267 3.5446.1238 6.3544 3.0206 6.3565 6.5525s-2.8057 6.4315-6.3499 6.5588" stroke="none" fill="#ff7a59" fill-rule="nonzero"/>
</svg>