<svg xmlns="http://www.w3.org/2000/svg" width="256" height="256" fill="none"><path fill="#ff9d00" d="M253.137 203.582a17.05 17.05 0 0 0 2.305-13.793c-.886-3.365-2.716-6.164-5.198-8.174a17 17 0 0 0 2.306-6.431c.716-4.954-.928-9.9-4.628-13.934-2.879-3.138-6.952-4.866-11.461-4.866q-.785 0-1.602.082a112.6 112.6 0 0 0 5.138-33.743C239.997 60.47 189.53 10 127.275 10 65.019 10 14.546 60.465 14.546 122.723a112.7 112.7 0 0 0 5.112 33.66h-.12c-4.509 0-8.581 1.726-11.46 4.864-3.7 4.03-5.346 8.981-4.63 13.934a17 17 0 0 0 2.308 6.433c-2.483 2.009-4.313 4.807-5.199 8.173a17.08 17.08 0 0 0 2.307 13.795q-.354.557-.662 1.148c-2.228 4.229-2.372 9.008-.404 13.459 2.982 6.746 10.39 12.06 24.778 17.765 8.946 3.548 17.14 5.817 17.212 5.837 11.834 3.069 22.537 4.628 31.802 4.628 15.214 0 26.565-4.162 33.814-12.383a114 114 0 0 0 37.011-.211c7.24 8.36 18.656 12.594 33.998 12.594 9.265 0 19.968-1.559 31.8-4.628.074-.02 8.263-2.289 17.214-5.837 14.388-5.705 21.797-11.019 24.778-17.765 1.967-4.451 1.824-9.23-.405-13.459a14 14 0 0 0-.663-1.148m-148.92 17.582a46 46 0 0 1-2.003 3.193c-1.875 2.744-4.34 4.841-7.2 6.399-5.47 2.982-12.392 4.024-19.424 4.024-11.11 0-22.498-2.6-28.88-4.255-.315-.081-39.128-11.044-34.214-20.376.827-1.57 2.188-2.197 3.902-2.197 6.918 0 19.516 10.303 24.93 10.303 1.21 0 2.064-.515 2.412-1.772 2.308-8.275-35.07-11.753-31.923-23.737.555-2.121 2.063-2.982 4.18-2.982 9.148-.002 29.679 16.086 33.972 16.086.33 0 .566-.097.694-.3l.055-.092c2.015-3.328.859-5.748-12.948-14.204l-1.326-.807c-15.194-9.196-25.858-14.73-19.793-21.332.698-.762 1.687-1.1 2.89-1.1 1.424 0 3.148.477 5.048 1.277 8.024 3.384 19.146 12.613 23.792 16.637q1.096.953 2.178 1.922s5.882 6.117 9.438 6.117c.82 0 1.514-.323 1.985-1.12 2.522-4.253-23.426-23.916-24.89-32.03-.992-5.497.697-8.282 3.818-8.282 1.484 0 3.296.632 5.295 1.901 6.203 3.936 18.178 24.515 22.562 32.52 1.47 2.683 3.979 3.817 6.24 3.817 4.486 0 7.992-4.46.41-10.126-11.394-8.526-7.395-22.462-1.957-23.319q.35-.057.7-.056c4.946 0 7.127 8.522 7.127 8.522s6.394 16.056 17.378 27.033c9.967 9.962 11.36 18.137 5.552 28.336m35.519 1.881-.57.068-.971.11q-.766.08-1.536.151l-.5.045-.458.039-.648.052-.716.052-.715.047-.159.011-.563.032-.239.013q-.331.018-.667.032l-.775.033-.703.024-.469.014h-.239c-.147 0-.292.008-.439.009h-.232q-.219-.002-.439.007l-.597.008h-.834q-.983 0-1.959-.02l-.528-.012c-.151 0-.302-.007-.45-.012l-.56-.016-.695-.027-.627-.028-.161-.007-.597-.03q-.248-.013-.496-.03l-.385-.022a101 101 0 0 1-1.453-.102l-.507-.041q-.32-.025-.639-.055-.373-.032-.748-.069a88 88 0 0 1-1.252-.127h-.02c6.095-13.599 3.013-26.299-9.305-38.607-8.08-8.068-13.454-19.982-14.569-22.598-2.257-7.743-8.23-16.35-18.15-16.35-.838 0-1.676.067-2.504.197-4.346.684-8.145 3.185-10.855 6.95-2.93-3.643-5.776-6.539-8.35-8.174-3.882-2.461-7.755-3.71-11.529-3.71-4.71 0-8.919 1.934-11.853 5.442l-.075.09q-.084-.346-.164-.694l-.007-.03a98 98 0 0 1-1.406-7.219c0-.016 0-.032-.008-.048l-.084-.55a86 86 0 0 1-.23-1.627l-.098-.74-.09-.741c-.03-.246-.054-.471-.08-.705l-.008-.059q-.16-1.44-.28-2.884l-.03-.369-.047-.63a29 29 0 0 1-.036-.519c0-.041-.006-.081-.008-.12a70 70 0 0 1-.087-1.451q-.02-.377-.037-.756l-.027-.662-.006-.2-.021-.609-.014-.519c0-.207-.01-.414-.013-.621-.004-.206-.01-.433-.01-.652-.004-.219 0-.435-.008-.652-.005-.219 0-.436 0-.654 0-55.825 45.26-101.084 101.09-101.084s101.087 45.258 101.087 101.084v1.306c0 .218-.007.436-.011.652 0 .18-.008.358-.013.541 0 .16-.007.321-.012.476 0 .204-.012.408-.019.612v.016l-.028.708q-.012.311-.028.622l-.006.147-.036.661a108 108 0 0 1-.322 4.247v.018q-.033.348-.07.696l-.06.548-.119 1.072-.068.543-.084.639q-.046.35-.096.696-.054.39-.112.778l-.092.612-.11.694q-.055.346-.12.69c-.044.23-.078.46-.118.689q-.12.689-.253 1.375-.201 1.027-.413 2.05l-.147.677q-.073.339-.15.677c-2.846-2.765-6.614-4.271-10.769-4.271-3.77 0-7.648 1.247-11.528 3.708-2.574 1.636-5.419 4.533-8.35 8.174-2.714-3.764-6.513-6.265-10.856-6.949a16 16 0 0 0-2.505-.198c-9.923 0-15.892 8.608-18.15 16.351-1.12 2.615-6.496 14.529-14.581 22.61-12.31 12.269-15.416 24.912-9.416 38.455m104.362-27.223-.04.119a7 7 0 0 1-.351.783 6 6 0 0 1-.326.544q-.334.5-.732.948c-.061.07-.12.139-.189.207q-.144.155-.294.303c-1.795 1.779-4.532 3.34-7.627 4.771q-.527.238-1.066.478l-.357.158c-.239.106-.478.21-.728.312-.239.105-.487.209-.735.31l-.745.307c-1.74.716-3.524 1.399-5.263 2.073l-.744.289-.735.288q-.736.287-1.447.572l-.709.286-.696.284-.341.144-.674.284c-5.118 2.197-8.801 4.431-8.027 7.203q.031.117.072.227.104.307.283.581.104.163.239.304c.909.946 2.565.797 4.652.046q.44-.162.875-.338l.181-.075c.478-.202.983-.429 1.5-.675.129-.061.26-.12.39-.188 2.553-1.248 5.447-2.929 8.317-4.459a75 75 0 0 1 3.492-1.767c2.718-1.279 5.274-2.186 7.328-2.186.965 0 1.816.197 2.525.651l.119.078c.445.314.819.717 1.098 1.184q.082.135.16.281c1.015 1.927.165 3.923-1.824 5.88-1.908 1.879-4.878 3.721-8.252 5.426q-.376.19-.757.377c-10.043 4.933-23.196 8.648-23.379 8.694-3.506.909-8.518 2.101-14.166 2.993l-.835.131-.137.02q-.948.144-1.901.268-.967.13-1.95.239l-.12.013a91 91 0 0 1-7.147.542h-.034q-1.297.047-2.592.047h-.996a63 63 0 0 1-3.947-.179q-.048.002-.095-.008a54 54 0 0 1-2.866-.308 34 34 0 0 1-.954-.143 75 75 0 0 1-.967-.161l-.439-.083-.033-.007a34 34 0 0 1-1.382-.292c-.267-.06-.532-.119-.795-.191l-.159-.04c-.131-.032-.257-.066-.387-.101l-.07-.019-.411-.12q-.225-.062-.448-.131l-.052-.014-.389-.119a22 22 0 0 1-.438-.141l-.358-.119-.263-.092a28 28 0 0 1-.755-.277l-.237-.094-.196-.077a30 30 0 0 1-1.127-.478l-.247-.12-.041-.018a5 5 0 0 0-.263-.119 22 22 0 0 1-.512-.255l-.052-.025-.246-.13q-.654-.341-1.282-.728l-.229-.141a11 11 0 0 1-.341-.219l-.299-.197-.322-.222-.192-.137a16 16 0 0 1-.596-.447l-.311-.239a18 18 0 0 1-.671-.564l-.008-.007a12 12 0 0 1-.318-.287q-.158-.141-.31-.288l-.012-.012a10 10 0 0 1-.313-.309q-.156-.155-.308-.315a20 20 0 0 1-.585-.641l-.03-.036q-.136-.157-.268-.318a16 16 0 0 1-.555-.7q-.27-.36-.529-.735l-.164-.246q-.328-.48-.639-.971a26 26 0 0 1-.452-.715q-.14-.226-.276-.452l-.037-.061a35 35 0 0 1-.391-.675c-.044-.083-.095-.167-.141-.251l-.076-.132-.047-.085a23 23 0 0 1-.263-.484l-.12-.214-.119-.231-.12-.228q-.45-.9-.851-1.824l-.094-.226c-.062-.151-.119-.3-.18-.448a21 21 0 0 1-.61-1.734 15 15 0 0 1-.26-.916 17 17 0 0 1-.25-1.085q-.022-.11-.041-.217a16 16 0 0 1-.169-1.075q-.016-.107-.027-.212l-.023-.216a15 15 0 0 1-.065-.851c0-.072-.007-.144-.009-.214a10 10 0 0 1-.011-.424c-.075-5.7 2.809-11.179 8.975-17.343 10.985-10.973 17.379-27.031 17.379-27.031s.172-.674.53-1.644q.072-.2.16-.419.313-.814.703-1.596l.052-.1q.333-.665.725-1.295c.062-.098.12-.194.188-.291a14 14 0 0 1 .621-.846c.118-.148.248-.295.377-.437q.077-.084.157-.166c.637-.657 1.364-1.193 2.187-1.479l.104-.035q.103-.034.209-.064.122-.031.247-.057l.039-.008q.26-.052.526-.069h.015c.092 0 .186-.01.28-.01.119 0 .23 0 .346.012q.179.015.359.043c.989.157 1.931.747 2.742 1.657q.463.52.828 1.115.24.384.454.812c.057.119.112.228.165.346q.209.451.374.921.39 1.103.585 2.257.168 1.012.2 2.036.016.547 0 1.105a15.9 15.9 0 0 1-1.05 5.058q-.086.223-.178.447-.185.453-.403.887-.16.331-.344.662-.121.22-.248.44-.322.547-.697 1.09l-.15.216a18 18 0 0 1-1.964 2.305 20.5 20.5 0 0 1-2.266 1.96 18.5 18.5 0 0 0-2.253 1.97c-2.005 2.104-2.471 3.961-2.021 5.368q.109.333.282.639.203.348.476.64l.071.073.072.072q.108.105.229.204l.08.064q.291.224.614.401c.062.033.119.066.189.098q.348.171.716.29l.206.064.087.022.12.032.102.026.112.024.111.023.105.017q.117.021.238.036l.076.012.139.013.085.01.14.009h.083l.146.008h.462l.132-.008.152-.009.186-.018.173-.02c.04 0 .08-.01.12-.018a6.7 6.7 0 0 0 1.557-.422l.212-.089c.118-.052.238-.107.348-.166q.353-.177.681-.396.46-.3.863-.671c.064-.057.127-.119.188-.177q.046-.044.09-.09c.059-.06.119-.118.177-.184a8 8 0 0 0 1.101-1.543 305 305 0 0 1 8.204-14.024l.392-.628.396-.628q.298-.478.597-.945l.2-.312q.996-1.56 2.026-3.1l.407-.608a135 135 0 0 1 2.437-3.504l.401-.554a75 75 0 0 1 2.74-3.549l.376-.451c.063-.075.12-.149.188-.221q.186-.22.37-.428c.061-.071.118-.14.184-.21l.357-.403.179-.196q.27-.29.529-.556c.12-.12.231-.239.346-.351a14 14 0 0 1 2.226-1.848l.187-.12q.268-.182.553-.334c3.154-1.79 5.764-1.922 7.267-.419.91.91 1.414 2.418 1.386 4.518q.002.137-.007.281v.103q-.002.144-.016.29c0 .12-.013.238-.025.358-.012.119-.019.21-.031.316q-.001.045-.01.093-.013.138-.034.281c0 .028 0 .057-.01.087a8 8 0 0 1-.055.377c-.015.12-.035.232-.056.35l-.035.198q-.051.284-.133.561-.156.517-.378 1.011-.31.675-.685 1.316-.208.356-.43.702-.229.357-.477.724a39 39 0 0 1-1.314 1.771l-.208.263a68 68 0 0 1-2.297 2.714l-.25.281q-.503.562-1.027 1.131l-.262.285c-.175.191-.358.382-.534.574a46 46 0 0 1-.541.577l-.549.578-.556.581-.56.582q-.564.584-1.134 1.168c-5.409 5.548-11.107 11.077-13.036 14.523a7 7 0 0 0-.349.693c-.275.626-.389 1.163-.311 1.596q.039.216.148.404a2.5 2.5 0 0 0 .394.517q.105.103.224.192c.397.282.876.428 1.364.414h.152l.156-.012.157-.017.129-.019a.3.3 0 0 0 .053-.01l.119-.023.031-.007.132-.028.046-.012a7 7 0 0 0 .306-.086q.352-.107.689-.251.178-.072.35-.156.091-.04.176-.084l.179-.088q.64-.333 1.248-.722l.178-.12q.09-.055.177-.119l.177-.118.095-.066.256-.18c.239-.164.462-.333.687-.505l.02-.016.359-.278c.489-.386.954-.776 1.375-1.143l.28-.245.026-.024.146-.13c.344-.309.651-.597.906-.835l.105-.102q.138-.132.252-.238l.15-.148.053-.052.015-.014.156-.157.099-.102.012-.01.046-.042.059-.054.019-.017.049-.045.272-.239.152-.136q.122-.107.239-.216l.181-.162q.05-.04.099-.085l.191-.167.28-.246.149-.13c.581-.504 1.286-1.114 2.097-1.801l.332-.281.548-.46.562-.468a185 185 0 0 1 2.358-1.928l.548-.44q.702-.56 1.432-1.132.294-.231.597-.459a136 136 0 0 1 5.018-3.719l.512-.357q.538-.372 1.074-.737l.324-.218a67 67 0 0 1 1.941-1.269l.324-.204.322-.2q.483-.3.961-.587l.319-.191.638-.371.625-.358.127-.07.495-.272q.31-.168.617-.325l.306-.158.297-.149q.156-.075.308-.151 1.005-.496 2.047-.912.281-.12.56-.215l.547-.192q.247-.083.477-.153l.053-.016q.125-.04.247-.072l.024-.007q.256-.073.507-.132h.012q.709-.17 1.437-.244.333-.035.669-.034h.112q.224.001.436.024c.066 0 .131.014.195.022h.027q.096.01.192.032.095.016.188.037h.02c.063.014.119.03.184.048.339.095.662.242.958.434q.218.141.407.32l.036.034q.035.033.068.067l.065.071a7.3 7.3 0 0 1 1.313 1.907l.05.12a4.42 4.42 0 0 1 .056 3.406q-.185.496-.452.953a11 11 0 0 1-1.466 1.937l-.119.127q-.265.28-.554.56-.13.125-.264.251l-.274.252-.143.127q-.517.46-1.056.892-.325.264-.658.517a56 56 0 0 1-2.389 1.73q-.734.504-1.48.992a134 134 0 0 1-3.716 2.351c-2.625 1.614-5.534 3.34-8.636 5.217l-.803.487q-1.318.804-2.49 1.536l-.393.247-.745.477-1.478.954-.396.262q-.29.188-.577.381l-.188.12-.577.388-.305.21-.357.248-.333.231q-.834.59-1.549 1.124l-.179.136q-.42.318-.831.648-.62.498-1.126.955l-.165.151q-.143.13-.278.259c-.061.06-.119.12-.183.177l-.085.086q-.287.288-.557.589l-.089.102a8 8 0 0 0-.516.656l-.066.094a5 5 0 0 0-.323.529q-.038.067-.071.136l-.065.136-.044.098-.028.067-.023.06-.031.082c-.082.225-.14.46-.173.697l-.011.083-.008.077v.42c0 .035 0 .07.01.107l.006.064c0 .035.008.068.014.106.005.034.014.097.025.146v.007q.013.07.031.139c.012.046.024.1.038.148q.04.141.091.281.03.084.064.166c0 .01.008.022.013.033l.048.108.067.148q.108.23.236.448l.088.152.091.152a.5.5 0 0 0 .055.072l.029.031.033.031.035.026a.65.65 0 0 0 .257.111c.77.173 2.352-.463 4.454-1.573.119-.064.25-.13.376-.2l.641-.349.312-.174c.222-.118.449-.253.681-.385l.423-.239c2.779-1.599 6.097-3.653 9.528-5.659q.482-.282.967-.562l.648-.415q1.129-.645 2.268-1.276 1.433-.79 2.891-1.534l.635-.322q.633-.311 1.251-.608a55 55 0 0 1 2.421-1.079l.447-.181.054-.022c2.367-.937 4.513-1.516 6.25-1.516a6 6 0 0 1 1.12.092h.012c.119.021.227.045.338.072h.02q.427.109.822.307c.366.189.696.441.975.745q.191.213.341.458.28.432.439.923c.043.127.08.251.119.383a5.25 5.25 0 0 1-.08 3.074"/><path fill="#ffd21e" fill-rule="evenodd" d="M228.362 123.377v-.655c0-55.827-45.241-101.083-101.072-101.083-55.83 0-101.088 45.258-101.088 101.083v.218a10 10 0 0 0 0 .437q.01.325.006.652l.007.48.004.172q0 .12.006.239.006.191.006.381l.015.519.021.61.007.2.026.631v.03l.037.738v.019q.02.376.044.755.018.348.043.696l.003.041q.018.299.04.598l.004.053.044.576.004.038q.011.169.027.332.12 1.443.279 2.882l.006.06.082.706.09.74.067.503.03.236q.108.816.231 1.629l.006.036.079.512a99 99 0 0 0 1.413 7.269l.007.03.043.18.121.513.075-.089c2.934-3.508 7.144-5.442 11.854-5.442 3.774 0 7.647 1.248 11.528 3.709 2.575 1.636 5.421 4.531 8.35 8.174 2.71-3.764 6.51-6.266 10.855-6.949a16 16 0 0 1 2.505-.198c9.918 0 15.893 8.608 18.15 16.351 1.115 2.615 6.489 14.529 14.593 22.588 12.32 12.308 15.402 25.007 9.305 38.606h.021q.623.07 1.253.128.373.037.748.069l.088.008.551.047.507.04q.724.056 1.453.103l.385.023.305.018.19.011.596.031.163.006.625.028.697.027.559.016.093.003q.178.008.356.009l.128.004q1.18.029 2.36.027h.835l.596-.007q.22-.009.44-.007h.232l.202-.005q.117-.005.237-.005h.239l.468-.012.704-.024.775-.035q.336-.013.667-.031l.239-.014.355-.019.208-.012.157-.011.716-.047.715-.052.65-.052.456-.038.502-.046a81 81 0 0 0 2.507-.262l.57-.068c-6.001-13.542-2.895-26.186 9.373-38.445 8.087-8.08 13.461-19.994 14.581-22.611 2.259-7.742 8.229-16.349 18.15-16.349.839 0 1.678.067 2.506.198 4.342.682 8.141 3.185 10.855 6.949 2.931-3.642 5.776-6.54 8.351-8.175 3.881-2.46 7.757-3.708 11.528-3.708 4.156 0 7.923 1.507 10.768 4.272q.077-.338.152-.678l.145-.675.154-.74q.133-.653.26-1.312.132-.685.252-1.374l.041-.248q.036-.22.077-.442c.046-.229.083-.459.121-.691l.014-.088.095-.604.093-.612v-.006q.102-.678.192-1.356l.015-.112.084-.638.068-.544.12-1.072.047-.431.012-.118q.038-.348.071-.696v-.019q.027-.276.052-.554a110 110 0 0 0 .27-3.691v-.008l.035-.655.008-.147q.032-.664.055-1.328v-.016l.006-.174q.011-.218.012-.439l.003-.058q.01-.208.011-.419l.004-.12q.007-.21.008-.419l.002-.119q.007-.267.008-.533zm-126.144 100.98c8.005-11.739 7.437-20.551-3.546-31.528-10.985-10.979-17.378-27.033-17.378-27.033s-2.386-9.325-7.829-8.469-9.434 14.791 1.961 23.321-2.267 14.313-6.653 6.309c-4.386-8.006-16.36-28.583-22.567-32.519s-10.574-1.73-9.11 6.382c.726 4.027 7.486 10.901 13.802 17.322 6.408 6.514 12.358 12.565 11.085 14.705-2.524 4.251-11.417-4.995-11.417-4.995s-27.846-25.34-33.907-18.736c-5.588 6.086 3.03 11.26 16.31 19.235q1.694 1.016 3.482 2.097c15.194 9.198 16.376 11.624 14.219 15.104-.797 1.286-5.882-1.767-12.138-5.522-10.664-6.404-24.726-14.846-26.712-7.289-1.718 6.539 8.628 10.546 18.01 14.181 7.816 3.028 14.966 5.797 13.913 9.556-1.09 3.897-6.997.647-13.454-2.907-7.25-3.989-15.193-8.359-17.792-3.428-4.913 9.324 33.893 20.3 34.213 20.382 12.538 3.251 44.38 10.142 55.508-6.168m51.573 0c-8.006-11.739-7.438-20.551 3.547-31.528 10.984-10.979 17.377-27.033 17.377-27.033s2.386-9.325 7.828-8.469 9.435 14.791-1.959 23.321 2.266 14.313 6.652 6.309c4.387-8.006 16.353-28.583 22.561-32.519s10.576-1.73 9.111 6.382c-.726 4.027-7.487 10.901-13.803 17.323-6.407 6.515-12.358 12.564-11.087 14.704 2.525 4.251 11.425-5 11.425-5s27.844-25.339 33.908-18.735c5.587 6.085-3.031 11.26-16.312 19.235q-1.743 1.046-3.481 2.097c-15.194 9.198-16.376 11.624-14.221 15.103.798 1.287 5.884-1.767 12.138-5.522 10.666-6.403 24.727-14.846 26.713-7.288 1.72 6.539-8.627 10.546-18.009 14.181-7.817 3.028-14.966 5.797-13.915 9.556 1.089 3.896 6.995.645 13.451-2.908 7.249-3.99 15.194-8.362 17.792-3.427 4.914 9.329-33.899 20.295-34.212 20.375-12.538 3.262-44.38 10.153-55.504-6.157" clip-rule="evenodd"/><path fill="#32343d" fill-rule="evenodd" d="M160.119 95.207c1.577.558 2.749 2.255 3.864 3.87 1.507 2.182 2.911 4.213 5.063 3.069a14.547 14.547 0 0 0 1.281-24.92 14.55 14.55 0 0 0-12.301-1.85 14.54 14.54 0 0 0-9.233 8.332 14.54 14.54 0 0 0 .582 12.423c.998 1.877 3.212.992 5.549.057 1.831-.733 3.74-1.496 5.195-.98Zm-68.526 0c-1.577.558-2.75 2.256-3.865 3.87-1.507 2.183-2.911 4.213-5.063 3.069a14.541 14.541 0 0 1 11.022-26.768 14.547 14.547 0 0 1 8.651 20.754c-.999 1.876-3.213.99-5.55.057-1.833-.734-3.739-1.497-5.195-.982m57.925 62.359c10.861-8.557 14.851-22.527 14.851-31.133 0-6.803-4.577-4.662-11.904-1.034l-.413.204c-6.725 3.331-15.678 7.766-25.506 7.766-9.829 0-18.782-4.435-25.506-7.767-7.564-3.747-12.309-6.097-12.309.832 0 8.878 4.245 23.456 15.895 31.924a25.3 25.3 0 0 1 15.439-13.053c1.163-.347 2.361 1.656 3.587 3.706 1.183 1.976 2.392 3.999 3.622 3.999 1.311 0 2.599-1.993 3.856-3.938 1.314-2.034 2.596-4.015 3.835-3.619a25.3 25.3 0 0 1 14.553 12.113" clip-rule="evenodd"/><path fill="#ff323d" d="M149.515 157.566c-5.657 4.457-13.175 7.447-22.967 7.447-9.2 0-16.395-2.639-21.922-6.655a25.3 25.3 0 0 1 6.36-8.135 25.3 25.3 0 0 1 9.079-4.918c2.284-.682 4.705 7.704 7.21 7.704 2.681 0 5.264-8.331 7.691-7.556a25.3 25.3 0 0 1 14.549 12.113"/><path fill="#ffad03" fill-rule="evenodd" d="M65.62 107.31a9.4 9.4 0 0 1-4.325 1.549 9.44 9.44 0 0 1-4.545-.675 9.4 9.4 0 0 1-3.07-2.049 9.4 9.4 0 0 1-2.048-3.069 9.45 9.45 0 0 1 .877-8.87 9.453 9.453 0 0 1 17.133 3.41 9.46 9.46 0 0 1-.539 5.463 9.46 9.46 0 0 1-3.483 4.241m135.27 0a9.44 9.44 0 0 1-8.872.874 9.43 9.43 0 0 1-5.118-5.118 9.5 9.5 0 0 1-.672-4.544 9.5 9.5 0 0 1 1.549-4.326 9.45 9.45 0 0 1 11.047-3.648 9.47 9.47 0 0 1 6.087 7.059 9.45 9.45 0 0 1-4.021 9.703" clip-rule="evenodd"/></svg>