<svg xmlns="http://www.w3.org/2000/svg" width="256" height="256" fill="none"><path fill="#FF9D00" d="M253.137 203.582a17.053 17.053 0 0 0 2.305-13.793c-.886-3.365-2.716-6.164-5.198-8.174a16.99 16.99 0 0 0 2.306-6.431c.716-4.954-.928-9.9-4.628-13.934-2.879-3.138-6.952-4.866-11.461-4.866-.524 0-1.057.028-1.602.082a112.582 112.582 0 0 0 5.138-33.743C239.997 60.47 189.53 10 127.275 10 65.019 10 14.546 60.465 14.546 122.723a112.655 112.655 0 0 0 5.112 33.66h-.12c-4.509 0-8.581 1.726-11.46 4.864-3.7 4.03-5.346 8.981-4.63 13.934a17.022 17.022 0 0 0 2.308 6.433c-2.483 2.009-4.313 4.807-5.199 8.173a17.082 17.082 0 0 0 2.307 13.795c-.237.371-.456.754-.662 1.148-2.228 4.229-2.372 9.008-.404 13.459 2.982 6.746 10.39 12.06 24.778 17.765 8.946 3.548 17.14 5.817 17.212 5.837 11.834 3.069 22.537 4.628 31.802 4.628 15.214 0 26.565-4.162 33.814-12.383a114.031 114.031 0 0 0 37.011-.211c7.24 8.36 18.656 12.594 33.998 12.594 9.265 0 19.968-1.559 31.8-4.628.074-.02 8.263-2.289 17.214-5.837 14.388-5.705 21.797-11.019 24.778-17.765 1.967-4.451 1.824-9.23-.405-13.459a13.45 13.45 0 0 0-.663-1.148Zm-148.92 17.582a46.412 46.412 0 0 1-2.003 3.193c-1.875 2.744-4.34 4.841-7.2 6.399-5.47 2.982-12.392 4.024-19.424 4.024-11.11 0-22.498-2.6-28.88-4.255-.315-.081-39.128-11.044-34.214-20.376.827-1.57 2.188-2.197 3.902-2.197 6.918 0 19.516 10.303 24.93 10.303 1.21 0 2.064-.515 2.412-1.772 2.308-8.275-35.07-11.753-31.923-23.737.555-2.121 2.063-2.982 4.18-2.982 9.148-.002 29.679 16.086 33.972 16.086.33 0 .566-.097.694-.3l.055-.092c2.015-3.328.859-5.748-12.948-14.204l-1.326-.807c-15.194-9.196-25.858-14.73-19.793-21.332.698-.762 1.687-1.1 2.89-1.1 1.424 0 3.148.477 5.048 1.277 8.024 3.384 19.146 12.613 23.792 16.637.73.635 1.457 1.277 2.178 1.922 0 0 5.882 6.117 9.438 6.117.82 0 1.514-.323 1.985-1.12 2.522-4.253-23.426-23.916-24.89-32.03-.992-5.497.697-8.282 3.818-8.282 1.484 0 3.296.632 5.295 1.901 6.203 3.936 18.178 24.515 22.562 32.52 1.47 2.683 3.979 3.817 6.24 3.817 4.486 0 7.992-4.46.41-10.126-11.394-8.526-7.395-22.462-1.957-23.319.232-.038.467-.056.7-.056 4.946 0 7.127 8.522 7.127 8.522s6.394 16.056 17.378 27.033c9.967 9.962 11.36 18.137 5.552 28.336Zm35.519 1.881-.57.068-.971.11c-.51.054-1.023.104-1.536.151l-.5.045-.458.039-.648.052-.716.052-.715.047-.159.011-.563.032-.239.013c-.221.012-.443.023-.667.032l-.775.033-.703.024-.469.014h-.239c-.147 0-.292.008-.439.009h-.232c-.146 0-.292 0-.439.007l-.597.008h-.834c-.655 0-1.308-.007-1.959-.02l-.528-.012c-.151 0-.302-.007-.45-.012l-.56-.016-.695-.027-.627-.028-.161-.007-.597-.03c-.166-.01-.33-.018-.496-.03l-.385-.022a101.28 101.28 0 0 1-1.453-.102l-.507-.041c-.213-.016-.427-.036-.639-.055-.249-.021-.498-.045-.748-.069a88.432 88.432 0 0 1-1.252-.127h-.02c6.095-13.599 3.013-26.299-9.305-38.607-8.08-8.068-13.454-19.982-14.569-22.598-2.257-7.743-8.23-16.35-18.15-16.35-.838 0-1.676.067-2.504.197-4.346.684-8.145 3.185-10.855 6.95-2.93-3.643-5.776-6.539-8.35-8.174-3.882-2.461-7.755-3.71-11.529-3.71-4.71 0-8.919 1.934-11.853 5.442l-.075.09c-.056-.231-.11-.462-.164-.694l-.007-.03a98.413 98.413 0 0 1-1.406-7.219c0-.016 0-.032-.008-.048-.03-.183-.056-.367-.084-.55a85.901 85.901 0 0 1-.23-1.627c-.033-.247-.067-.494-.098-.74l-.09-.741c-.03-.246-.054-.471-.08-.705l-.008-.059c-.107-.96-.2-1.921-.28-2.884l-.03-.369-.047-.63c-.013-.172-.026-.345-.036-.519 0-.041-.006-.081-.008-.12a70.139 70.139 0 0 1-.087-1.451c-.013-.252-.026-.503-.037-.756l-.027-.662-.006-.2-.021-.609-.014-.519c0-.207-.01-.414-.013-.621-.004-.206-.01-.433-.01-.652-.004-.219 0-.435-.008-.652-.005-.219 0-.436 0-.654 0-55.825 45.26-101.084 101.09-101.084 55.83 0 101.087 45.258 101.087 101.084v1.306c0 .218-.007.436-.011.652 0 .18-.008.358-.013.541 0 .16-.007.321-.012.476 0 .204-.012.408-.019.612v.016l-.028.708c-.009.207-.017.415-.028.622l-.006.147-.036.661a107.717 107.717 0 0 1-.322 4.247v.018c-.022.232-.045.464-.07.696l-.06.548-.119 1.072-.068.543-.084.639c-.031.232-.062.466-.096.696-.035.261-.074.519-.112.778l-.092.612-.11.694c-.037.231-.077.46-.12.69-.044.23-.078.46-.118.689-.08.459-.164.918-.253 1.375-.134.685-.272 1.368-.413 2.05l-.147.677c-.048.225-.1.452-.15.677-2.846-2.765-6.614-4.271-10.769-4.271-3.77 0-7.648 1.247-11.528 3.708-2.574 1.636-5.419 4.533-8.35 8.174-2.714-3.764-6.513-6.265-10.856-6.949a16.035 16.035 0 0 0-2.505-.198c-9.923 0-15.892 8.608-18.15 16.351-1.12 2.615-6.496 14.529-14.581 22.61-12.31 12.269-15.416 24.912-9.416 38.455Zm104.362-27.223-.04.119a7.42 7.42 0 0 1-.351.783 6.36 6.36 0 0 1-.326.544c-.222.332-.467.65-.732.948-.061.07-.12.139-.189.207-.096.103-.194.204-.294.303-1.795 1.779-4.532 3.34-7.627 4.771-.351.159-.707.318-1.066.478l-.357.158c-.239.106-.478.21-.728.312-.239.105-.487.209-.735.31l-.745.307c-1.74.716-3.524 1.399-5.263 2.073l-.744.289-.735.288c-.49.191-.973.382-1.447.572l-.709.286-.696.284-.341.144a91.84 91.84 0 0 0-.674.284c-5.118 2.197-8.801 4.431-8.027 7.203.021.078.045.153.072.227.069.205.164.398.283.581.069.108.149.211.239.304.909.946 2.565.797 4.652.046.293-.108.586-.221.875-.338l.181-.075c.478-.202.983-.429 1.5-.675.129-.061.26-.12.39-.188 2.553-1.248 5.447-2.929 8.317-4.459a74.627 74.627 0 0 1 3.492-1.767c2.718-1.279 5.274-2.186 7.328-2.186.965 0 1.816.197 2.525.651l.119.078c.445.314.819.717 1.098 1.184.054.089.108.184.16.281 1.015 1.927.165 3.923-1.824 5.88-1.908 1.879-4.878 3.721-8.252 5.426-.251.126-.502.253-.757.377-10.043 4.933-23.196 8.648-23.379 8.694-3.506.909-8.518 2.101-14.166 2.993l-.835.131-.137.02c-.632.096-1.266.185-1.901.268-.644.087-1.295.166-1.95.239l-.12.013a91.317 91.317 0 0 1-7.147.542h-.034c-.865.031-1.728.047-2.592.047h-.996a62.637 62.637 0 0 1-3.947-.179c-.031 0-.064 0-.095-.008a54.048 54.048 0 0 1-2.866-.308 33.729 33.729 0 0 1-.954-.143 74.948 74.948 0 0 1-.967-.161l-.439-.083-.033-.007a34.256 34.256 0 0 1-1.382-.292c-.267-.06-.532-.119-.795-.191l-.159-.04c-.131-.032-.257-.066-.387-.101l-.07-.019-.411-.12c-.15-.041-.299-.086-.448-.131l-.052-.014-.389-.119a22.32 22.32 0 0 1-.438-.141l-.358-.119-.263-.092a28.35 28.35 0 0 1-.755-.277l-.237-.094-.196-.077a30.2 30.2 0 0 1-1.127-.478l-.247-.12-.041-.018a5.082 5.082 0 0 0-.263-.119 22.176 22.176 0 0 1-.512-.255l-.052-.025-.246-.13c-.436-.228-.863-.47-1.282-.728l-.229-.141a10.98 10.98 0 0 1-.341-.219l-.299-.197-.322-.222-.192-.137a16.23 16.23 0 0 1-.596-.447l-.311-.239a17.983 17.983 0 0 1-.671-.564l-.008-.007a12.284 12.284 0 0 1-.318-.287c-.105-.094-.209-.19-.31-.288l-.012-.012a10.141 10.141 0 0 1-.313-.309c-.103-.104-.208-.208-.308-.315a19.645 19.645 0 0 1-.585-.641l-.03-.036c-.091-.105-.18-.21-.268-.318a15.632 15.632 0 0 1-.555-.7c-.18-.24-.357-.486-.529-.735l-.164-.246c-.218-.32-.432-.643-.639-.971a26.146 26.146 0 0 1-.452-.715c-.094-.15-.185-.302-.276-.452l-.037-.061a34.808 34.808 0 0 1-.391-.675c-.044-.083-.095-.167-.141-.251l-.076-.132-.047-.085a22.63 22.63 0 0 1-.263-.484c-.04-.072-.079-.144-.12-.214l-.119-.231-.12-.228c-.3-.6-.584-1.208-.851-1.824l-.094-.226c-.062-.151-.119-.3-.18-.448a21.262 21.262 0 0 1-.61-1.734 15.39 15.39 0 0 1-.26-.916 16.865 16.865 0 0 1-.25-1.085c-.014-.073-.029-.146-.041-.217a15.596 15.596 0 0 1-.169-1.075c-.011-.071-.019-.142-.027-.212l-.023-.216a15.15 15.15 0 0 1-.065-.851c0-.072-.007-.144-.009-.214a9.999 9.999 0 0 1-.011-.424c-.075-5.7 2.809-11.179 8.975-17.343 10.985-10.973 17.379-27.031 17.379-27.031s.172-.674.53-1.644c.049-.134.101-.273.16-.419.208-.542.443-1.076.703-1.596l.052-.1c.221-.443.464-.875.725-1.295.062-.098.12-.194.188-.291a13.5 13.5 0 0 1 .621-.846c.118-.148.248-.295.377-.437.052-.056.103-.112.157-.166.637-.657 1.364-1.193 2.187-1.479l.104-.035c.069-.022.138-.044.209-.064.082-.021.163-.04.247-.057l.039-.008c.173-.035.349-.057.526-.069h.015c.092 0 .186-.01.28-.01.119 0 .23 0 .346.012.12.011.238.024.359.043.989.157 1.931.747 2.742 1.657.308.346.585.72.828 1.115.16.256.311.527.454.812.057.119.112.228.165.346.139.301.264.608.374.921.26.734.456 1.489.585 2.257.112.674.179 1.354.2 2.036.011.364.011.733 0 1.105a15.915 15.915 0 0 1-1.05 5.058c-.056.148-.118.298-.178.447-.123.302-.258.598-.403.887-.108.22-.221.442-.344.662-.08.146-.164.293-.248.44-.215.365-.447.728-.697 1.09l-.15.216a18.284 18.284 0 0 1-1.964 2.305 20.507 20.507 0 0 1-2.266 1.96 18.515 18.515 0 0 0-2.253 1.97c-2.005 2.104-2.471 3.961-2.021 5.368.072.221.167.436.282.639.135.232.295.445.476.64l.071.073.072.072c.072.07.148.138.229.204l.08.064c.194.15.399.283.614.401.062.033.119.066.189.098.232.114.471.211.716.29l.206.064.087.022.12.032.102.026.112.024.111.023.105.017c.078.013.158.027.238.036l.076.012.139.013.085.01.14.009h.083l.146.008h.462l.132-.008.152-.009.186-.018.173-.02c.04 0 .08-.01.12-.018a6.734 6.734 0 0 0 1.557-.422l.212-.089c.118-.052.238-.107.348-.166.235-.117.463-.251.681-.396.306-.2.594-.424.863-.671.064-.057.127-.119.188-.177.031-.03.06-.058.09-.09.059-.06.119-.118.177-.184a7.978 7.978 0 0 0 1.101-1.543 305.279 305.279 0 0 1 8.204-14.024l.392-.628.396-.628c.198-.319.398-.633.597-.945l.2-.312c.664-1.04 1.339-2.074 2.026-3.1l.407-.608a134.5 134.5 0 0 1 2.437-3.504l.401-.554a75.14 75.14 0 0 1 2.74-3.549l.376-.451c.063-.075.12-.149.188-.221.124-.147.248-.29.37-.428.061-.071.118-.14.184-.21l.357-.403.179-.196c.18-.193.356-.379.529-.556.12-.12.231-.239.346-.351a13.97 13.97 0 0 1 2.226-1.848l.187-.12c.178-.121.364-.233.553-.334 3.154-1.79 5.764-1.922 7.267-.419.91.91 1.414 2.418 1.386 4.518 0 .092 0 .185-.007.281v.103c0 .096-.008.192-.016.29 0 .12-.013.238-.025.358-.012.119-.019.21-.031.316 0 .03-.005.061-.01.093-.008.092-.02.186-.034.281 0 .028 0 .057-.01.087a7.957 7.957 0 0 1-.055.377c-.015.12-.035.232-.056.35l-.035.198c-.034.19-.079.376-.133.561-.104.345-.23.682-.378 1.011-.206.45-.435.889-.685 1.316-.139.238-.282.471-.43.702-.152.238-.312.48-.477.724a38.609 38.609 0 0 1-1.314 1.771l-.208.263a67.457 67.457 0 0 1-2.297 2.714l-.25.281c-.336.374-.677.752-1.027 1.131l-.262.285c-.175.191-.358.382-.534.574a46.2 46.2 0 0 1-.541.577l-.549.578-.556.581-.56.582c-.376.389-.754.779-1.134 1.168-5.409 5.548-11.107 11.077-13.036 14.523a7.128 7.128 0 0 0-.349.693c-.275.626-.389 1.163-.311 1.596.026.143.075.279.148.404a2.5 2.5 0 0 0 .394.517c.07.069.145.133.224.192.397.282.876.428 1.364.414h.152l.156-.012.157-.017.129-.019a.33.33 0 0 0 .053-.01l.119-.023.031-.007.132-.028.046-.012a7.137 7.137 0 0 0 .306-.086c.235-.071.464-.155.689-.251.119-.048.235-.1.35-.156.06-.027.12-.055.176-.084l.179-.088c.427-.222.843-.463 1.248-.722l.178-.12c.06-.037.12-.076.177-.119l.177-.118.095-.066.256-.18c.239-.164.462-.333.687-.505l.02-.016.359-.278c.489-.386.954-.776 1.375-1.143l.28-.245.026-.024.146-.13c.344-.309.651-.597.906-.835l.105-.102c.092-.087.176-.168.252-.238l.15-.148.053-.052.015-.014.156-.157.099-.102.012-.01.046-.042.059-.054.019-.017.049-.045.272-.239.152-.136c.082-.071.16-.143.239-.216l.181-.162c.034-.026.066-.056.099-.085l.191-.167.28-.246.149-.13c.581-.504 1.286-1.114 2.097-1.801l.332-.281.548-.46.562-.468a184.94 184.94 0 0 1 2.358-1.928l.548-.44c.467-.372.946-.751 1.432-1.132.196-.154.395-.307.597-.459a136.402 136.402 0 0 1 5.018-3.719l.512-.357c.359-.247.717-.495 1.074-.737l.324-.218a67.34 67.34 0 0 1 1.941-1.269l.324-.204.322-.2c.322-.2.643-.396.961-.587l.319-.191.638-.371.625-.358.127-.07.495-.272c.207-.112.412-.22.617-.325l.306-.158.297-.149c.104-.049.207-.101.308-.151.67-.331 1.353-.635 2.047-.912.188-.08.374-.152.56-.215l.547-.192c.164-.055.324-.107.477-.153l.053-.016c.083-.027.166-.051.247-.072l.024-.007c.171-.049.34-.092.507-.132h.012c.472-.113.952-.195 1.437-.244.222-.023.445-.035.669-.034h.112c.15 0 .294.01.436.024.066 0 .131.014.195.022h.027c.064.008.128.017.192.032.063.012.127.022.188.037h.02c.063.014.119.03.184.048.339.095.662.242.958.434.145.094.281.201.407.32l.036.034c.024.022.046.045.068.067l.065.071a7.317 7.317 0 0 1 1.313 1.907l.05.12a4.416 4.416 0 0 1 .056 3.406c-.124.33-.274.649-.452.953a10.853 10.853 0 0 1-1.466 1.937l-.119.127c-.177.187-.361.373-.554.56-.086.084-.175.167-.264.251l-.274.252-.143.127c-.344.306-.697.604-1.056.892-.217.176-.436.348-.658.517a56.199 56.199 0 0 1-2.389 1.73c-.489.337-.983.666-1.48.992a134.246 134.246 0 0 1-3.716 2.351c-2.625 1.614-5.534 3.34-8.636 5.217l-.803.487c-.879.536-1.708 1.048-2.49 1.536l-.393.247-.745.477c-.493.317-.985.635-1.478.954l-.396.262c-.193.125-.385.253-.577.381l-.188.12-.577.388-.305.21-.357.248-.333.231c-.556.393-1.073.768-1.549 1.124l-.179.136c-.28.212-.558.428-.831.648-.412.332-.789.65-1.126.955l-.165.151c-.095.087-.188.173-.278.259-.061.06-.119.12-.183.177l-.085.086c-.191.192-.377.388-.557.589l-.089.102a8.438 8.438 0 0 0-.516.656l-.066.094a5.418 5.418 0 0 0-.323.529c-.026.045-.048.09-.071.136l-.065.136-.044.098-.028.067-.023.06-.031.082c-.082.225-.14.46-.173.697l-.011.083-.008.077v.42c0 .035 0 .07.01.107l.006.064c0 .035.008.068.014.106.005.034.014.097.025.146v.007c.009.047.019.092.031.139.012.046.024.1.038.148.026.094.058.188.091.281.021.056.041.111.064.166 0 .01.008.022.013.033l.048.108.067.148c.072.153.151.303.236.448l.088.152.091.152a.49.49 0 0 0 .055.072l.029.031.033.031.035.026a.646.646 0 0 0 .257.111c.77.173 2.352-.463 4.454-1.573.119-.064.25-.13.376-.2l.641-.349.312-.174c.222-.118.449-.253.681-.385l.423-.239c2.779-1.599 6.097-3.653 9.528-5.659.321-.188.644-.376.967-.562l.648-.415c.752-.43 1.509-.856 2.268-1.276.956-.526 1.919-1.038 2.891-1.534l.635-.322c.422-.208.839-.41 1.251-.608a54.533 54.533 0 0 1 2.421-1.079l.447-.181.054-.022c2.367-.937 4.513-1.516 6.25-1.516a6.18 6.18 0 0 1 1.12.092h.012c.119.021.227.045.338.072h.02c.284.072.56.175.822.307.366.189.696.441.975.745.128.142.241.295.341.458.187.287.333.597.439.923.043.127.08.251.119.383a5.247 5.247 0 0 1-.08 3.074Z"/><path fill="#FFD21E" fill-rule="evenodd" d="M228.362 123.377v-.655c0-55.827-45.241-101.083-101.072-101.083-55.83 0-101.088 45.258-101.088 101.083v.218a9.646 9.646 0 0 0 0 .437c.006.217.009.434.006.652l.007.48.004.172c0 .08.003.159.006.239.004.127.006.255.006.381l.015.519.021.61.007.2.026.631v.03c.011.247.025.493.037.738v.019c.014.25.028.503.044.755.013.232.026.464.043.696l.003.041c.012.199.025.399.04.598l.004.053.044.576.004.038c.008.112.016.224.027.332.08.962.173 1.923.279 2.882l.006.06.082.706.09.74.067.503.03.236c.072.544.149 1.087.231 1.629l.006.036.079.512a99.35 99.35 0 0 0 1.413 7.269l.007.03.043.18.121.513.075-.089c2.934-3.508 7.144-5.442 11.854-5.442 3.774 0 7.647 1.248 11.528 3.709 2.575 1.636 5.421 4.531 8.35 8.174 2.71-3.764 6.51-6.266 10.855-6.949a16.288 16.288 0 0 1 2.505-.198c9.918 0 15.893 8.608 18.15 16.351 1.115 2.615 6.489 14.529 14.593 22.588 12.32 12.308 15.402 25.007 9.305 38.606h.021c.415.047.833.089 1.253.128.249.024.497.048.748.069l.088.008.551.047.507.04c.483.037.967.072 1.453.103l.385.023.305.018.19.011.596.031.163.006.625.028.697.027.559.016.093.003c.119.005.237.009.356.009l.128.004c.787.019 1.573.028 2.36.027h.835l.596-.007c.147-.007.292-.007.44-.007h.232l.202-.005c.078-.003.157-.005.237-.005h.239l.468-.012.704-.024.775-.035c.224-.008.446-.02.667-.031l.239-.014.355-.019.208-.012.157-.011.716-.047.715-.052.65-.052.456-.038.502-.046a81.253 81.253 0 0 0 2.507-.262l.57-.068c-6.001-13.542-2.895-26.186 9.373-38.445 8.087-8.08 13.461-19.994 14.581-22.611 2.259-7.742 8.229-16.349 18.15-16.349.839 0 1.678.067 2.506.198 4.342.682 8.141 3.185 10.855 6.949 2.931-3.642 5.776-6.54 8.351-8.175 3.881-2.46 7.757-3.708 11.528-3.708 4.156 0 7.923 1.507 10.768 4.272.052-.225.102-.451.152-.678l.145-.675c.052-.246.104-.493.154-.74.088-.436.176-.872.26-1.312.088-.457.172-.915.252-1.374l.041-.248c.025-.147.049-.294.077-.442.046-.229.083-.459.121-.691l.014-.088.095-.604.093-.612v-.006c.068-.452.132-.904.192-1.356l.015-.112.084-.638.068-.544.12-1.072.047-.431.012-.118c.025-.232.049-.464.071-.696v-.019c.017-.184.036-.369.052-.554a109.986 109.986 0 0 0 .27-3.691v-.008l.035-.655.008-.147c.021-.443.04-.885.055-1.328v-.016l.006-.174c.007-.145.012-.292.012-.439l.003-.058c.005-.138.011-.279.011-.419l.004-.12c.004-.14.008-.279.008-.419l.002-.119c.004-.177.008-.356.008-.533v-.652Zm-126.144 100.98c8.005-11.739 7.437-20.551-3.546-31.528-10.985-10.979-17.378-27.033-17.378-27.033s-2.386-9.325-7.829-8.469c-5.442.856-9.434 14.791 1.961 23.321 11.394 8.53-2.267 14.313-6.653 6.309-4.386-8.006-16.36-28.583-22.567-32.519-6.208-3.936-10.574-1.73-9.11 6.382.726 4.027 7.486 10.901 13.802 17.322 6.408 6.514 12.358 12.565 11.085 14.705-2.524 4.251-11.417-4.995-11.417-4.995s-27.846-25.34-33.907-18.736c-5.588 6.086 3.03 11.26 16.31 19.235 1.128.678 2.291 1.376 3.482 2.097 15.194 9.198 16.376 11.624 14.219 15.104-.797 1.286-5.882-1.767-12.138-5.522-10.664-6.404-24.726-14.846-26.712-7.289-1.718 6.539 8.628 10.546 18.01 14.181 7.816 3.028 14.966 5.797 13.913 9.556-1.09 3.897-6.997.647-13.454-2.907-7.25-3.989-15.193-8.359-17.792-3.428-4.913 9.324 33.893 20.3 34.213 20.382 12.538 3.251 44.38 10.142 55.508-6.168Zm51.573 0c-8.006-11.739-7.438-20.551 3.547-31.528 10.984-10.979 17.377-27.033 17.377-27.033s2.386-9.325 7.828-8.469c5.442.856 9.435 14.791-1.959 23.321-11.395 8.53 2.266 14.313 6.652 6.309 4.387-8.006 16.353-28.583 22.561-32.519 6.207-3.936 10.576-1.73 9.111 6.382-.726 4.027-7.487 10.901-13.803 17.323-6.407 6.515-12.358 12.564-11.087 14.704 2.525 4.251 11.425-5 11.425-5s27.844-25.339 33.908-18.735c5.587 6.085-3.031 11.26-16.312 19.235-1.162.698-2.322 1.396-3.481 2.097-15.194 9.198-16.376 11.624-14.221 15.103.798 1.287 5.884-1.767 12.138-5.522 10.666-6.403 24.727-14.846 26.713-7.288 1.72 6.539-8.627 10.546-18.009 14.181-7.817 3.028-14.966 5.797-13.915 9.556 1.089 3.896 6.995.645 13.451-2.908 7.249-3.99 15.194-8.362 17.792-3.427 4.914 9.329-33.899 20.295-34.212 20.375-12.538 3.262-44.38 10.153-55.504-6.157Z" clip-rule="evenodd"/><path fill="#32343D" fill-rule="evenodd" d="M160.119 95.207c1.577.558 2.749 2.255 3.864 3.87 1.507 2.182 2.911 4.213 5.063 3.069a14.547 14.547 0 0 0 1.281-24.92 14.549 14.549 0 0 0-12.301-1.85 14.542 14.542 0 0 0-9.233 8.332 14.541 14.541 0 0 0 .582 12.423c.998 1.877 3.212.992 5.549.057 1.831-.733 3.74-1.496 5.195-.98Zm-68.526 0c-1.577.558-2.75 2.256-3.865 3.87-1.507 2.183-2.911 4.213-5.063 3.069a14.541 14.541 0 0 1 11.022-26.768 14.547 14.547 0 0 1 8.651 20.754c-.999 1.876-3.213.99-5.55.057-1.833-.734-3.739-1.497-5.195-.982Zm57.925 62.359c10.861-8.557 14.851-22.527 14.851-31.133 0-6.803-4.577-4.662-11.904-1.034l-.413.204c-6.725 3.331-15.678 7.766-25.506 7.766-9.829 0-18.782-4.435-25.506-7.767-7.564-3.747-12.309-6.097-12.309.832 0 8.878 4.245 23.456 15.895 31.924a25.31 25.31 0 0 1 15.439-13.053c1.163-.347 2.361 1.656 3.587 3.706 1.183 1.976 2.392 3.999 3.622 3.999 1.311 0 2.599-1.993 3.856-3.938 1.314-2.034 2.596-4.015 3.835-3.619a25.3 25.3 0 0 1 14.553 12.113Z" clip-rule="evenodd"/><path fill="#FF323D" d="M149.515 157.566c-5.657 4.457-13.175 7.447-22.967 7.447-9.2 0-16.395-2.639-21.922-6.655a25.288 25.288 0 0 1 6.36-8.135 25.297 25.297 0 0 1 9.079-4.918c2.284-.682 4.705 7.704 7.21 7.704 2.681 0 5.264-8.331 7.691-7.556a25.31 25.31 0 0 1 14.549 12.113Z"/><path fill="#FFAD03" fill-rule="evenodd" d="M65.62 107.31a9.433 9.433 0 0 1-4.325 1.549 9.435 9.435 0 0 1-4.545-.675 9.405 9.405 0 0 1-3.07-2.049 9.405 9.405 0 0 1-2.048-3.069 9.445 9.445 0 0 1 .877-8.87 9.453 9.453 0 0 1 17.133 3.41 9.458 9.458 0 0 1-.539 5.463 9.457 9.457 0 0 1-3.483 4.241Zm135.27 0a9.44 9.44 0 0 1-8.872.874 9.432 9.432 0 0 1-5.118-5.118 9.48 9.48 0 0 1-.672-4.544 9.482 9.482 0 0 1 1.549-4.326 9.45 9.45 0 0 1 11.047-3.648 9.465 9.465 0 0 1 6.087 7.059 9.454 9.454 0 0 1-4.021 9.703Z" clip-rule="evenodd"/></svg>
