<svg xmlns="http://www.w3.org/2000/svg" width="50" height="50" stroke="none" stroke-linecap="round" stroke-linejoin="round" fill="#fff" fill-rule="nonzero">
    <path d="M-.5 10.7716C-.5 4.5276 4.5276-.5 10.7716-.5h27.457C44.4726-.5 49.5 4.5276 49.5 10.7716v27.457c0 6.244-5.0274 11.2714-11.2714 11.2714h-27.457C4.5276 49.5-.5 44.4726-.5 38.2286z" fill="#06c755"/>
    <path d="M41.1656 22.1442c0-7.46-7.478-13.5286-16.67-13.5286S7.825 14.6842 7.825 22.1442c0 6.687 5.9376 12.289 13.9406 13.3464.544.1176 1.283.3576 1.469.8214.169.4222.111 1.083.0547 1.5082l-.2377 1.427c-.073.422-.336 1.648 1.444.9s9.6-5.653 13.097-9.68h0c2.415-2.648 3.573-5.342 3.573-8.323z"/>
    <path d="M35.6188 26.4517h-4.6874c-.173 0-.3126-.14-.3126-.3129h0 0v-7.2731h0 0a.312.312 0 0 1 .3126-.3126h4.6874c.1726 0 .3126.1396.3126.3126v1.183c0 .172-.14.312-.3126.312h-3.1824v1.2268h3.1824a.313.313 0 0 1 .3126.3122v1.194a.313.313 0 0 1-.3126.313h-3.1824v1.228h3.1824c.1726 0 .3126.1398.3126.312v1.1814c.003.0846-.0292.1676-.088.2286a.313.313 0 0 1-.2246.095zm-17.3232-.0001a.312.312 0 0 0 .312-.3124v-1.181c0-.173-.14-.313-.312-.313h-3.1832v-5.781c0-.173-.1398-.3126-.3124-.3126h-1.1874a.312.312 0 0 0-.3126.3126v7.27h0 0c0 .173.1396.313.3126.313H18.3zm1.3185-7.5939c0-.176.1426-.3186.3186-.3186h1.1814a.318.318 0 0 1 .3186.3186v7.275a.318.318 0 0 1-.3186.319h-1.1814c-.176 0-.3186-.142-.3186-.319zm9.5486-.3186h-1.181c-.173 0-.313.1396-.313.3126v4.322l-3.328-4.4953a.197.197 0 0 0-.0266-.0327h0l-.0184-.019h0l-.0173-.014h-.0097l-.017-.0129h-.009l-.0179-.0091h-.0107-.0174-.011-.018-.013-.019-.012-.017-1.205c-.173 0-.3126.14-.3126.3127v7.275c0 .1723.1396.3123.3126.3123h1.183c.172 0 .312-.14.312-.3123v-4.3643l3.333 4.5a.327.327 0 0 0 .081.0816h0l.019.012h.0094l.0156.008h.016.011.0217 0c.0273.007.0556.0107.0843.011h1.175c.1726 0 .3121-.14.3121-.3126v-7.2564c.0017-.084-.0301-.165-.0893-.225a.311.311 0 0 0-.2228-.0936z" fill="#06c755"/>
</svg>