<svg xmlns="http://www.w3.org/2000/svg" width="50" height="50" fill="#fff" strokeLinecap="round" strokeLinejoin="round"><path fill="#06c755" d="M-.5 10.772A11.25 11.25 0 0 1 10.772-.5h27.457A11.247 11.247 0 0 1 49.5 10.772v27.457A11.247 11.247 0 0 1 38.229 49.5H10.772A11.247 11.247 0 0 1-.5 38.229z"/><path d="M41.166 22.144c0-7.46-7.478-13.528-16.67-13.528S7.825 14.684 7.825 22.144c0 6.687 5.938 12.29 13.94 13.347.545.117 1.284.357 1.47.821.169.422.11 1.083.054 1.508l-.237 1.427c-.073.422-.336 1.648 1.444.9s9.6-5.653 13.097-9.68c2.415-2.648 3.573-5.342 3.573-8.323"/><path fill="#06c755" d="M35.619 26.452H30.93a.31.31 0 0 1-.312-.313v-7.273a.31.31 0 0 1 .312-.313h4.688c.172 0 .312.14.312.313v1.183c0 .172-.14.312-.312.312h-3.183v1.227h3.183a.313.313 0 0 1 .312.312v1.194a.313.313 0 0 1-.312.313h-3.183v1.228h3.183c.172 0 .312.14.312.312v1.181a.32.32 0 0 1-.088.229.3.3 0 0 1-.224.095m-17.323 0a.31.31 0 0 0 .312-.313v-1.18a.313.313 0 0 0-.312-.314h-3.184v-5.78a.31.31 0 0 0-.312-.313h-1.187a.31.31 0 0 0-.313.312v7.27c0 .173.14.313.313.313H18.3zm1.318-7.594a.32.32 0 0 1 .319-.319h1.181a.32.32 0 0 1 .319.319v7.275a.32.32 0 0 1-.319.319h-1.181a.32.32 0 0 1-.319-.32zm9.549-.319h-1.181a.31.31 0 0 0-.313.313v4.322l-3.328-4.496a.2.2 0 0 0-.027-.032l-.018-.02-.018-.013h-.01l-.016-.013h-.01l-.017-.01h-1.323a.31.31 0 0 0-.313.313v7.275c0 .173.14.313.313.313h1.183c.172 0 .312-.14.312-.313v-4.364l3.333 4.5a.3.3 0 0 0 .08.082l.02.012h.01l.015.008h.048q.042.01.085.01h1.175c.172 0 .312-.14.312-.312v-7.256a.3.3 0 0 0-.09-.225.3.3 0 0 0-.222-.094"/></svg>
