<svg xmlns="http://www.w3.org/2000/svg" width="63" height="63" fill="#fff" strokeLinecap="round" strokeLinejoin="round"><path fill="#e01e5a" d="M12.676 39.01c0 3.633-2.933 6.569-6.563 6.569S-.45 42.643-.45 39.01s2.934-6.57 6.563-6.57h6.563zm3.282 0c0-3.632 2.933-6.568 6.563-6.568s6.563 2.936 6.563 6.569v16.42c0 3.633-2.933 6.57-6.563 6.57s-6.563-2.937-6.563-6.57z"/><path fill="#36c5f0" d="M22.521 12.637c-3.63 0-6.563-2.936-6.563-6.568S18.891-.5 22.521-.5s6.563 2.936 6.563 6.569v6.568zm0 3.334c3.63 0 6.563 2.936 6.563 6.568s-2.933 6.57-6.563 6.57H6.063c-3.63 0-6.563-2.937-6.563-6.57s2.934-6.568 6.563-6.568z"/><path fill="#2eb67d" d="M48.824 22.54c0-3.633 2.933-6.569 6.563-6.569s6.563 2.936 6.563 6.568-2.933 6.57-6.563 6.57h-6.563zm-3.282 0c0 3.632-2.933 6.568-6.563 6.568s-6.563-2.936-6.563-6.569V6.07c0-3.633 2.934-6.569 6.563-6.569s6.563 2.936 6.563 6.569z"/><path fill="#ecb22e" d="M38.979 48.863c3.63 0 6.563 2.936 6.563 6.568s-2.933 6.57-6.563 6.57-6.563-2.937-6.563-6.57v-6.568zm0-3.284c-3.63 0-6.563-2.936-6.563-6.568s2.934-6.57 6.563-6.57h16.458c3.63 0 6.563 2.937 6.563 6.57s-2.933 6.568-6.563 6.568z"/></svg>
