<svg xmlns="http://www.w3.org/2000/svg" width="63" height="63" stroke="none" stroke-linecap="round" stroke-linejoin="round" fill="#fff" fill-rule="nonzero">
    <path d="M12.6761 39.0106c0 3.6326-2.9333 6.568-6.5631 6.568s-6.5633-2.9354-6.5633-6.568 2.9338-6.5687 6.5633-6.5687h6.5631v6.5687zm3.2818 0c0-3.6325 2.9335-6.5687 6.5631-6.5687s6.5631 2.9362 6.5631 6.5687v16.4207c0 3.6326-2.9331 6.5689-6.5631 6.5689s-6.5631-2.9363-6.5631-6.5689V39.0106z" fill="#e01e5a"/>
    <path d="M22.5213 12.6367c-3.63 0-6.5633-2.9354-6.5633-6.568S18.8913-.5 22.5213-.5s6.563 2.9362 6.563 6.5687v6.568h-6.563zm0 3.3345c3.6295 0 6.563 2.9355 6.563 6.568s-2.9335 6.5689-6.563 6.5689H6.0633C2.4338 29.1081-.5 26.1718-.5 22.5392s2.9338-6.568 6.5633-6.568h16.458z" fill="#36c5f0"/>
    <path d="M48.8239 22.5392c0-3.6325 2.9335-6.568 6.5631-6.568s6.5631 2.9355 6.5631 6.568-2.9331 6.5689-6.5631 6.5689h-6.5631v-6.5689zm-3.2818 0c0 3.6326-2.9333 6.5689-6.5631 6.5689s-6.5633-2.9363-6.5633-6.5689V6.0687C32.4157 2.4362 35.3495-.5 38.979-.5s6.5631 2.9362 6.5631 6.5687v16.4705z" fill="#2eb67d"/>
    <path d="M38.979 48.8632c3.6298 0 6.5631 2.9356 6.5631 6.5681s-2.9333 6.5689-6.5631 6.5689-6.5633-2.9363-6.5633-6.5689v-6.5681h6.5633zm0-3.2846c-3.6295 0-6.5633-2.9354-6.5633-6.568s2.9338-6.5687 6.5633-6.5687h16.458c3.6295 0 6.563 2.9362 6.563 6.5687s-2.9335 6.568-6.563 6.568H38.979z" fill="#ecb22e"/>
</svg>