<svg xmlns="http://www.w3.org/2000/svg" width="51" height="51" fill="#fff" fill-rule="evenodd" stroke="#000" strokeLinecap="round" strokeLinejoin="round"><path fill="#1ed760" fill-rule="nonzero" stroke="none" d="M24.5-.5c-13.807 0-25 11.193-25 25s11.193 25 25 25 25-11.193 25-25S38.308-.498 24.5-.498zm11.465 36.058a1.557 1.557 0 0 1-2.144.516c-5.87-3.585-13.259-4.397-21.96-2.41a1.56 1.56 0 0 1-1.866-1.173 1.556 1.556 0 0 1 1.172-1.866c9.523-2.176 17.692-1.239 24.281 2.789.735.45.968 1.409.517 2.143m3.06-6.809a1.95 1.95 0 0 1-2.681.643c-6.72-4.13-16.963-5.327-24.912-2.915-1.03.312-2.12-.269-2.432-1.298s.27-2.117 1.3-2.43c9.079-2.756 20.366-1.422 28.083 3.32a1.95 1.95 0 0 1 .642 2.68m.262-7.089c-8.057-4.785-21.35-5.225-29.043-2.89a2.338 2.338 0 1 1-1.358-4.475c8.83-2.681 23.511-2.163 32.788 3.344a2.338 2.338 0 0 1-2.385 4.022z"/></svg>
