<svg xmlns="http://www.w3.org/2000/svg" width="51" height="51" stroke="#000" stroke-linecap="round" stroke-linejoin="round" fill="#fff" fill-rule="evenodd">
    <path d="M24.4996-.5C10.6934-.5-.5 10.6933-.5 24.5004S10.6934 49.5 24.4996 49.5 49.5 38.3075 49.5 24.5004 38.3083-.4985 24.4995-.4985L24.4996-.5zm11.4649 36.0575c-.4479.734-1.409.967-2.1431.5161-5.8699-3.5851-13.259-4.3971-21.9612-2.4091a1.559 1.559 0 0 1-1.8657-1.173c-.192-.839.3312-1.675 1.172-1.866 9.5231-2.1768 17.692-1.239 24.2819 2.7881.7341.4509.9671 1.4094.5161 2.1439zm3.06-6.808c-.564.918-1.7641 1.207-2.6809.643-6.72-4.1311-16.9631-5.3279-24.9117-2.915-1.0305.3116-2.1194-.2692-2.4324-1.2984s.271-2.1176 1.3-2.431c9.079-2.7547 20.3661-1.4206 28.0831 3.3215.9168.5647 1.206 1.7649.6419 2.6799h0zm.2629-7.089c-8.0577-4.7858-21.3509-5.2259-29.0439-2.891-1.2351.375-2.5419-.3225-2.916-1.558s.3221-2.541 1.5588-2.917c8.8305-2.681 23.5111-2.163 32.7873 3.3441 1.1138.6599 1.4779 2.0949.818 3.2046s-2.0956 1.4773-3.2031.8173z" stroke="none" fill="#1ed760" fill-rule="nonzero"/>
</svg>