<svg xmlns="http://www.w3.org/2000/svg" width="60" height="68" fill="#fff" fill-rule="evenodd" stroke-linecap="round" stroke-linejoin="round"><path fill="#00f1e9" d="M40.837 2.11v.123h-8.142v44.73q-1.342 7.79-9.27 8.449-4.684-.088-7.516-3.729v-.122q6.451 2.799 11.337-2.238a9.6 9.6 0 0 0 2.129-5.591L29.437-.5h11.274a35 35 0 0 0 .126 2.61" opacity=".982"/><path fill="#fa004e" d="M40.836 2.11h3.131q-.046 4.346 2.193 8.076l1.69 2.36q-5.655-3.625-7.014-10.188v-.249" opacity=".955"/><path fill="#005855" d="M40.836 2.234v.123H32.82l-.126 44.606V2.233z" opacity=".973"/><path fill="#000" d="M40.836 2.358q1.359 6.562 7.014 10.187h.126q.45.728 1.127 1.306 3.027 2.649 7.015 3.417v.123a143 143 0 0 0-.125 8.45h-1.504q-7.583-.396-13.778-4.722l-.188 24.602Q38.307 59.35 24.928 63.177q-8.689 1.948-16.159-2.795h-.125q-8.63-9.799-4.196-22.116 5.526-11.612 18.476-12.425l-.063 8.697q-6.774-1.695-10.773 3.976-2.427 4.436-.375 9.07a9.53 9.53 0 0 0 4.196 4.101q2.83 3.639 7.516 3.727 7.928-.659 9.269-8.45l.125-44.604z"/><path fill="#00ece5" d="M47.976 12.546q3.735 2.278 8.142 2.298.184 1.195.125 2.423h-.125q-3.988-.765-7.015-3.417a5.5 5.5 0 0 1-1.127-1.304" opacity=".959"/><path fill="#fb004f" d="M56.118 17.268h.125q1.62.215 3.257.248v11.183q-8.553.06-15.47-4.846l-.125 24.352q-1.647 11.759-12.463 16.711-10.79 4.084-20.293-2.36a12 12 0 0 1-2.38-2.174q7.47 4.742 16.159 2.796 13.38-3.828 15.595-17.458l.188-24.601q6.195 4.327 13.779 4.721.776.184 1.628.126z" opacity=".973"/><path fill="#27050d" d="M56.118 17.392v8.572q-.852.061-1.628-.124h1.503z" opacity=".957"/><path fill="#00f0e8" d="M23.05 25.716q0 .124-.127.124-12.948.814-18.475 12.425Q.013 50.582 8.644 60.38-.178 54.223-.5 43.421q.712-13.535 13.153-19.01a21.2 21.2 0 0 1 10.396-1.18z" opacity=".983"/><path fill="#fc004f" d="m23.049 25.716 3.257.124-.063 11.556q-6.762-1.804-10.772 3.852-2.93 5.278.438 10.313v.123a9.5 9.5 0 0 1-4.196-4.1q-2.052-4.635.376-9.07 3.998-5.67 10.772-3.977l.063-8.697q.126 0 .125-.124" opacity=".973"/></svg>