<svg xmlns="http://www.w3.org/2000/svg" width="60" height="68" stroke="none" stroke-linecap="round" stroke-linejoin="round" fill="#fff" fill-rule="evenodd">
    <path d="M40.8366 2.1093v.1233h-8.142v44.7298c-.894 5.1951-3.9848 8.0103-9.2698 8.4493-3.123-.0583-5.6282-1.3009-7.5156-3.7283v-.1228c4.3012 1.8662 8.0794 1.1207 11.3364-2.2372 1.3032-1.6351 2.0135-3.4977 2.129-5.5917L29.4374-.5h11.2737a35.223 35.223 0 0 0 .1255 2.6093z" fill="#00f1e9" opacity=".982"/>
    <path d="M40.8361 2.1092h3.131c-.0314 2.8978.7004 5.5907 2.1927 8.0765l1.691 2.3604c-3.7709-2.4173-6.1086-5.812-7.0147-10.1885v-.1244-.124z" fill="#fa004e" opacity=".955"/>
    <path d="M40.8363 2.2335v.124h-8.0168l-.1253 44.6059V2.2335h8.1421z" fill="#005855" opacity=".973"/>
    <path d="M40.8359 2.3577c.906 4.3753 3.2441 7.7709 7.0144 10.1877h.1252c.2998.4852.6762.9196 1.1271 1.3057 2.0186 1.7663 4.356 2.9051 7.0153 3.4174v.1224a142.492 142.492 0 0 0-.125 8.4496h-1.5035c-5.0555-.2639-9.6485-1.8376-13.7789-4.7211l-.188 24.6018c-1.4769 9.086-6.6753 14.9031-15.5945 17.4558-5.7924 1.2988-11.1787.367-16.1588-2.7954H8.644C2.8902 53.8495 1.4917 46.4774 4.4478 38.266c3.6841-7.7407 9.8424-11.884 18.4761-12.4255l-.0627 8.6975c-4.5164-1.1302-8.1072.196-10.7731 3.9763-1.6178 2.9567-1.7429 5.9808-.3749 9.0703.9688 1.8097 2.3669 3.1762 4.1958 4.1004 1.8869 2.4258 4.3922 3.668 7.5161 3.7267 5.2852-.4387 8.3749-3.2554 9.2689-8.4488l.1246-44.6052h8.0173z" fill="#000"/>
    <path d="M47.976 12.546c2.4901 1.5176 5.2041 2.2849 8.1421 2.2979.1225.7963.1638 1.6049.1247 2.4228h-.1247c-2.6591-.5097-4.9967-1.6487-7.0151-3.4166-.4514-.3839-.8277-.8195-1.127-1.3041z" fill="#00ece5" opacity=".959"/>
    <path d="M56.1177 17.2675h.1251c1.0804.144 2.1666.2265 3.2572.2484V28.699c-5.702.0402-10.8581-1.576-15.4696-4.8465l-.1258 24.3523c-1.0979 7.839-5.2519 13.4102-12.4631 16.7112-7.1932 2.7232-13.9568 1.9352-20.2926-2.3599-.8985-.6231-1.692-1.3481-2.3796-2.1743 4.9806 3.1617 10.3667 4.0928 16.1587 2.796 8.9196-2.5517 14.1181-8.3717 15.5947-17.4583l.188-24.6005c4.13 2.885 8.7232 4.4584 13.7793 4.7212.517.122 1.0604.1646 1.6277.1254v-8.5741-.124z" fill="#fb004f" opacity=".973"/>
    <path d="M56.1182 17.3917v8.5727c-.5679.0401-1.1111-.0009-1.6286-.1242h1.5034l.1252-8.4485z" fill="#27050d" opacity=".957"/>
    <path d="M23.0491 25.7156c0 .0835-.042.1246-.1257.1246-8.6327.5425-14.7916 4.6837-18.4758 12.4246-2.9564 8.2116-1.5573 15.584 4.1968 22.1163C2.7627 56.2756-.2853 50.6222-.5 43.4212c.4748-9.0239 4.8587-15.3607 13.1528-19.0094 3.3686-1.2618 6.8338-1.6549 10.3963-1.1803v2.4841z" fill="#00f0e8" opacity=".983"/>
    <path d="M23.0487 25.7163l3.257.124-.0626 11.5554c-4.5077-1.2025-8.0987.0821-10.7723 3.8524-1.9534 3.5186-1.8071 6.9556.4382 10.3124v.1231c-1.828-.9222-3.2269-2.2885-4.196-4.1002-1.3677-3.0892-1.2427-6.112.376-9.0688 2.6649-3.7818 6.2556-5.106 10.772-3.9777l.0627-8.6966c.0839 0 .125-.0413.125-.124z" fill="#fc004f" opacity=".973"/>
</svg>