<svg xmlns="http://www.w3.org/2000/svg" width="62" height="51" stroke="#000" stroke-linecap="round" stroke-linejoin="round" fill="#fff" fill-rule="evenodd">
    <path d="M55.1528 12.0716l.0378 1.6485C55.1906 30.5692 42.3944 50 18.9978 50v-.0101C12.0868 50 5.3184 48.0152-.5 44.2742c1.0053.1212 2.0155.1818 3.0278.1837 5.7276.0048 11.291-1.9209 15.7977-5.4688-5.4431-.1037-10.2167-3.6606-11.8838-8.8542 1.907.3679 3.8717.2929 5.7426-.2199-5.934-1.2018-10.2032-6.4287-10.2032-12.4985v-.1617c1.7683.9876 3.7477 1.5353 5.7731 1.5959C2.1647 15.1069.4417 7.6532 3.8174 1.8258c6.4576 7.9661 15.9864 12.8086 26.2152 13.3215-1.0248-4.429.3756-9.0697 3.6802-12.1822 5.1232-4.8276 13.1809-4.5807 17.9965.5523 2.849-.5624 5.5792-1.6108 8.0778-3.0953-.9499 2.9512-2.9364 5.4587-5.5916 7.0515 2.5213-.2971 4.9846-.9738 7.3045-2.0069-1.708 2.5652-3.8589 4.7998-6.3472 6.6049z" stroke="none" fill="#1d9bf0" fill-rule="nonzero"/>
</svg>