<svg xmlns="http://www.w3.org/2000/svg" width="50" height="50" fill="#fff" fill-rule="evenodd" stroke-linecap="round" stroke-linejoin="round"><path fill="#01b7e2" d="M23.21-.493Q36.5-.773 44.63 9.618q7.414 10.63 3.54 23.04-3.59 9.945-13.112 14.553-8.97 3.95-18.35 1.084Q4.155 43.833.345 31.069q-2.907-11.831 4.19-21.667Q11.675.37 23.21-.493" opacity=".997"/><path fill="#fdfefe" d="M5.366 18.864q.393-.037.722.18l4.299 4.297 4.299-4.297q.597-.372 1.119.108.32.404.073.867l-4.371 4.405 4.298 4.334q.49 1.005-.614 1.228a.9.9 0 0 1-.434-.109l-4.37-4.297-4.37 4.297q-1.023.393-1.23-.686a1.7 1.7 0 0 1 .182-.433l4.298-4.334-4.298-4.333q-.423-.817.397-1.228"/><path fill="#fcfefe" d="M20.681 18.864q4.762-.238 6.25 4.26.355 1.62-1.265 1.914l-8.163.036q.708 3.19 3.973 3.395 1.64.001 2.818-1.12l.65-.794q.993-.368 1.228.65a1 1 0 0 1-.18.542q-2.321 2.868-5.961 2.13-4.392-1.575-4.081-6.247.798-3.957 4.731-4.766"/><path fill="#fdfefe" d="M37.37 18.863q4.204-.292 6.033 3.467 1.088 3.15-.94 5.778-3.484 3.413-7.621.83-3.122-2.678-1.843-6.608 1.305-2.861 4.372-3.467"/><path fill="#fbfdfe" d="M31.374 18.936a4.1 4.1 0 0 1 1.228.108q.72.655 0 1.3-.497.123-1.011.144-1.247.235-1.481 1.48l-.073 7.368q-.271.741-1.047.542a.78.78 0 0 1-.47-.615v-9.605q.288-.93 1.192-.542.23.188.325.47a4.9 4.9 0 0 1 1.337-.65"/><path fill="#08b7e2" d="M21.187 20.38q2.284-.005 3.649 1.806.387.603.542 1.3h-7.803q.81-2.722 3.612-3.106"/><path fill="#09b7e2" d="M37.515 20.452q3.441-.276 4.587 2.961.54 2.805-1.77 4.442-3.113 1.589-5.382-1.047-1.937-3.32 1.048-5.742a5.4 5.4 0 0 1 1.517-.614"/><path fill="#fdfefe" d="M37.804 23.052q1.986-.056 1.697 1.878-.703 1.295-2.058.687-1.432-1.516.36-2.565"/></svg>