<svg xmlns="http://www.w3.org/2000/svg" width="50" height="50" stroke="none" stroke-linecap="round" stroke-linejoin="round" fill="#fff" fill-rule="evenodd">
    <path d="M23.2103-.4926c8.8586-.1875 15.9989 3.1831 21.4205 10.111 4.9423 7.0865 6.1223 14.7664 3.54 23.0396-2.3933 6.63-6.7644 11.4814-13.1124 14.553-5.9796 2.6334-12.0966 2.9945-18.35 1.0838C8.3393 45.3205 2.8847 39.5783.3447 31.0689c-1.938-7.8865-.5413-15.109 4.1901-21.6668C9.2948 3.3809 15.5201.0828 23.2103-.4926z" fill="#01b7e2" opacity=".997"/>
    <path d="M5.3658 18.8635c.2623-.0248.5032.0354.7224.1802l4.2984 4.2974 4.2991-4.2974c.3982-.248.7714-.2116 1.1193.1085.2133.269.2375.5576.0725.8665l-4.3709 4.4056 4.2984 4.3339c.3263.6707.1216 1.0803-.6137 1.2274-.1543-.0012-.2988-.037-.4338-.1083l-4.3709-4.2975-4.3703 4.2975c-.6819.2614-1.0906.0325-1.2285-.6861a1.695 1.695 0 0 1 .1808-.433l4.2984-4.3339-4.2984-4.3334c-.2816-.5442-.1493-.9537.3972-1.2274z" fill="#fdfefe"/>
    <path d="M20.6813 18.8635c3.1746-.1584 5.2581 1.2622 6.249 4.2609.2379 1.0791-.184 1.7173-1.2644 1.9141l-8.1632.036c.472 2.1261 1.7966 3.2576 3.9731 3.3946 1.0935.0008 2.0329-.372 2.8179-1.1196l.6505-.7946c.6621-.2452 1.0716-.0285 1.2278.65-.0082.1977-.0683.3782-.1807.542-1.547 1.9121-3.5336 2.6222-5.9604 2.1307-2.9277-1.0505-4.2883-3.1331-4.0813-6.2477.5317-2.6383 2.1097-4.2273 4.7317-4.7664z" fill="#fcfefe"/>
    <path d="M37.3706 18.8634c2.802-.195 4.8127.9607 6.0321 3.4666.725 2.0997.4121 4.0256-.9392 5.7781-2.3226 2.275-4.8631 2.5516-7.6219.8306-2.0811-1.7864-2.6954-3.9892-1.8423-6.6087.8697-1.9076 2.3269-3.0631 4.3713-3.4666z" fill="#fdfefe"/>
    <path d="M31.3739 18.9356a4.123 4.123 0 0 1 1.2281.1082c.4807.4368.4807.8701 0 1.3001-.3311.0825-.6681.1309-1.0112.1444-.8309.1567-1.3245.65-1.4811 1.4806l-.0723 7.3667c-.1815.4944-.5307.6749-1.0475.542-.2649-.1208-.4214-.3251-.4694-.6143v-9.6052c.1913-.6198.5888-.7998 1.1919-.5423.1531.125.2611.2818.325.4698.4185-.2873.8641-.5043 1.3365-.65z" fill="#fbfdfe"/>
    <path d="M21.1873 20.3801c1.5221-.0033 2.7383.5984 3.6487 1.8059.2581.4017.4385.8346.542 1.3001h-7.8028c.5392-1.8155 1.7435-2.8508 3.6121-3.106z" fill="#08b7e2"/>
    <path d="M37.5149 20.4524c2.2941-.1841 3.8234.8029 4.5874 2.961.3589 1.8694-.2311 3.3498-1.77 4.4418-2.0751 1.0586-3.8691.7094-5.3821-1.0472-1.2919-2.2137-.9425-4.1274 1.0475-5.7417.4832-.2848.9887-.4895 1.5172-.6139z" fill="#09b7e2"/>
    <path d="M37.8039 23.0524c1.3234-.0376 1.8892.5881 1.6976 1.8777-.4693.863-1.1557 1.0917-2.059.6866-.9548-1.0107-.8342-1.8651.3614-2.5643z" fill="#fdfefe"/>
</svg>