<svg xmlns="http://www.w3.org/2000/svg" fill="none" viewBox="0 0 992 568" height="568" width="992">
<g clip-path="url(#clip0_16_2344)">
<g filter="url(#filter0_d_16_2344)">
<g clip-path="url(#clip1_16_2344)">
<rect fill="white" rx="16" height="568" width="992"></rect>
<g clip-path="url(#clip2_16_2344)">
<rect fill="white" rx="16" height="760" width="992" y="5"></rect>
<rect fill="#6C47FF" rx="4" height="32" width="32" y="61" x="36"></rect>
<rect fill="#6C47FF" rx="2" height="24" width="24" y="65" x="40"></rect>
<path fill="white" d="M47.5959 72.7629C46.622 73.7738 46.0257 75.0891 45.9074 76.4878C45.789 77.8865 46.1558 79.2833 46.946 80.4434C47.7363 81.6035 48.9018 82.4562 50.2467 82.8582C51.5916 83.2602 53.0339 83.1869 54.3311 82.6507C54.419 82.0778 54.2265 81.5278 54.1478 81.3353C53.9721 80.9075 53.3931 80.1765 52.4267 79.1628C52.1685 78.8916 52.1854 78.6831 52.2778 78.0651L52.2877 77.9956C52.3504 77.5724 52.4558 77.3218 53.8804 77.0957C54.6046 76.9811 54.7948 77.2699 55.0583 77.6709L55.147 77.8023C55.3975 78.169 55.5831 78.253 55.8635 78.3798C55.9895 78.4371 56.1461 78.5097 56.3562 78.6281C56.8542 78.913 56.8542 79.2346 56.8542 79.9389V80.0191C56.8542 80.3178 56.8252 80.5806 56.7794 80.809C57.3656 80.0733 57.774 79.2122 57.973 78.2929C58.172 77.3735 58.1561 76.4206 57.9266 75.5084C57.6971 74.5961 57.2601 73.7492 56.6498 73.0334C56.0394 72.3177 55.2721 71.7525 54.4075 71.3818C53.9851 71.6667 53.4053 72.0708 53.2029 72.3481C53.0997 72.4895 52.9531 73.2129 52.4772 73.2724C52.3534 73.2877 52.1861 73.277 52.0089 73.2656C51.5338 73.235 50.8845 73.193 50.6767 73.7575C50.5445 74.115 50.5216 75.0867 50.9486 75.5908C51.0174 75.6711 51.0304 75.82 50.9838 75.9873C50.9226 76.2065 50.7997 76.3402 50.7607 76.3677C50.6874 76.3249 50.5407 76.1546 50.4406 76.0392C50.2015 75.7604 49.9021 75.4129 49.5156 75.3059C49.375 75.267 49.2207 75.2349 49.0702 75.2028C48.6508 75.1149 48.1765 75.0149 48.0657 74.7796C47.9847 74.607 47.9855 74.3694 47.9855 74.1188C47.9855 73.8003 47.9855 73.4405 47.8297 73.0914C47.7755 72.9668 47.6959 72.8549 47.5959 72.7629V72.7629ZM51.9997 84.6391C47.7808 84.6391 44.3608 81.2192 44.3608 77.0002C44.3608 72.7813 47.7808 69.3613 51.9997 69.3613C56.2187 69.3613 59.6386 72.7813 59.6386 77.0002C59.6386 81.2192 56.2187 84.6391 51.9997 84.6391Z"></path>
<rect fill="#6C47FF" rx="3" height="6" width="105" y="74" x="80"></rect>
<rect fill="white" rx="6" height="48" width="192" y="103" x="24"></rect>
<rect fill="#F7F9FC" rx="4" height="32" width="32" y="111" x="36"></rect>
<path fill="#D8DDE8" d="M44.3611 134.639C44.3611 133.018 45.0049 131.464 46.151 130.318C47.297 129.172 48.8514 128.528 50.4722 128.528C52.093 128.528 53.6473 129.172 54.7934 130.318C55.9395 131.464 56.5833 133.018 56.5833 134.639H55.0555C55.0555 133.423 54.5726 132.257 53.7131 131.398C52.8536 130.538 51.6878 130.056 50.4722 130.056C49.2566 130.056 48.0908 130.538 47.2313 131.398C46.3717 132.257 45.8889 133.423 45.8889 134.639H44.3611ZM50.4722 127.764C47.9399 127.764 45.8889 125.713 45.8889 123.181C45.8889 120.648 47.9399 118.597 50.4722 118.597C53.0045 118.597 55.0555 120.648 55.0555 123.181C55.0555 125.713 53.0045 127.764 50.4722 127.764ZM50.4722 126.236C52.1604 126.236 53.5278 124.869 53.5278 123.181C53.5278 121.492 52.1604 120.125 50.4722 120.125C48.784 120.125 47.4166 121.492 47.4166 123.181C47.4166 124.869 48.784 126.236 50.4722 126.236ZM56.8003 129.065C57.8738 129.548 58.7848 130.331 59.4239 131.32C60.063 132.309 60.4029 133.461 60.4027 134.639H58.875C58.8751 133.756 58.6203 132.891 58.1409 132.15C57.6616 131.408 56.9783 130.821 56.1731 130.458L56.7995 129.065H56.8003ZM56.2747 120.44C57.0443 120.758 57.7024 121.296 58.1653 121.988C58.6283 122.68 58.8753 123.494 58.875 124.326C58.8753 125.375 58.4836 126.385 57.7769 127.159C57.0702 127.934 56.0995 128.416 55.0555 128.511V126.973C55.6215 126.892 56.1466 126.632 56.5537 126.23C56.9609 125.829 57.2286 125.307 57.3175 124.743C57.4065 124.178 57.312 123.599 57.048 123.092C56.784 122.585 56.3644 122.176 55.8507 121.925L56.2747 120.44V120.44Z"></path>
<rect fill="#F0F4F9" rx="3.5" height="7" width="75" y="123.5" x="80"></rect>
<rect fill="#F0F4F9" transform="translate(240 5)" height="760" width="1"></rect>
<rect fill="#F7F9FC" rx="4" height="32" width="32" y="63" x="273"></rect>
<rect fill="#F7F9FC" rx="2" height="24" width="24" y="67" x="277"></rect>
<path fill="#D8DDE8" d="M284.596 74.7629C283.622 75.7738 283.026 77.0891 282.907 78.4878C282.789 79.8865 283.156 81.2833 283.946 82.4434C284.736 83.6035 285.902 84.4562 287.247 84.8582C288.592 85.2602 290.034 85.1869 291.331 84.6507C291.419 84.0778 291.226 83.5278 291.148 83.3353C290.972 82.9075 290.393 82.1765 289.427 81.1628C289.169 80.8916 289.185 80.6831 289.278 80.0651L289.288 79.9956C289.35 79.5724 289.456 79.3218 290.88 79.0957C291.605 78.9811 291.795 79.2699 292.058 79.6709L292.147 79.8023C292.398 80.169 292.583 80.253 292.863 80.3798C292.99 80.4371 293.146 80.5097 293.356 80.6281C293.854 80.913 293.854 81.2346 293.854 81.9389V82.0191C293.854 82.3178 293.825 82.5806 293.779 82.809C294.366 82.0733 294.774 81.2122 294.973 80.2929C295.172 79.3735 295.156 78.4206 294.927 77.5084C294.697 76.5961 294.26 75.7492 293.65 75.0334C293.039 74.3177 292.272 73.7525 291.408 73.3818C290.985 73.6667 290.405 74.0708 290.203 74.3481C290.1 74.4895 289.953 75.2129 289.477 75.2724C289.353 75.2877 289.186 75.277 289.009 75.2656C288.534 75.235 287.884 75.193 287.677 75.7575C287.545 76.115 287.522 77.0867 287.949 77.5908C288.017 77.6711 288.03 77.82 287.984 77.9873C287.923 78.2065 287.8 78.3402 287.761 78.3677C287.687 78.3249 287.541 78.1546 287.441 78.0392C287.202 77.7604 286.902 77.4129 286.516 77.3059C286.375 77.267 286.221 77.2349 286.07 77.2028C285.651 77.1149 285.176 77.0149 285.066 76.7796C284.985 76.607 284.985 76.3694 284.985 76.1188C284.985 75.8003 284.985 75.4405 284.83 75.0914C284.775 74.9668 284.696 74.8549 284.596 74.7629V74.7629ZM289 86.6391C284.781 86.6391 281.361 83.2192 281.361 79.0002C281.361 74.7813 284.781 71.3613 289 71.3613C293.219 71.3613 296.639 74.7813 296.639 79.0002C296.639 83.2192 293.219 86.6391 289 86.6391Z"></path>
<rect fill="#F0F4F9" rx="3" height="6" width="88" y="76" x="317"></rect>
<rect fill="#6C47FF" rx="8" height="16" width="144" y="121" x="273"></rect>
<rect fill="#F0F4F9" rx="4" height="8" width="399" y="153" x="273"></rect>
<rect fill="#F0F4F9" rx="4" height="8" width="144" y="177" x="273"></rect>
<rect fill="#F0F4F9" rx="4" height="8" width="144" y="177" x="449"></rect>
<rect fill="#F0F4F9" height="1" width="676" y="213" x="273"></rect>
<g clip-path="url(#clip3_16_2344)">
<path fill="#C0C8D3" d="M292.4 259.2C290.633 259.2 289.2 260.633 289.2 262.4C289.2 264.167 290.633 265.6 292.4 265.6C294.167 265.6 295.6 264.167 295.6 262.4C295.6 260.633 294.167 259.2 292.4 259.2ZM287.6 262.4C287.6 259.749 289.749 257.6 292.4 257.6C295.051 257.6 297.2 259.749 297.2 262.4C297.2 263.437 296.871 264.397 296.313 265.181L300.166 269.034C300.478 269.347 300.478 269.853 300.166 270.166C299.853 270.478 299.347 270.478 299.034 270.166L295.181 266.313C294.397 266.871 293.437 267.2 292.4 267.2C289.749 267.2 287.6 265.051 287.6 262.4Z" clip-rule="evenodd" fill-rule="evenodd"></path>
<rect fill="#F0F4F9" rx="4" height="8" width="76" y="260" x="314"></rect>
</g>
<rect stroke="#F0F4F9" rx="6" height="32" width="320" y="248" x="273"></rect>
<rect fill="#6C47FF" rx="3" height="6" width="48" y="317" x="289"></rect>
<path fill="#6C47FF" d="M351.024 320.176C351.259 320.41 351.259 320.79 351.024 321.024L347.424 324.624C347.19 324.859 346.81 324.859 346.576 324.624L342.976 321.024C342.741 320.79 342.741 320.41 342.976 320.176C343.21 319.942 343.59 319.942 343.824 320.176L346.4 322.752L346.4 315.8C346.4 315.469 346.669 315.2 347 315.2C347.331 315.2 347.6 315.469 347.6 315.8L347.6 322.752L350.176 320.176C350.41 319.942 350.79 319.942 351.024 320.176Z" clip-rule="evenodd" fill-rule="evenodd"></path>
<rect fill="#F0F4F9" transform="translate(273 338)" height="1" width="676"></rect>
<rect fill="white" rx="6" height="48" width="676" y="347" x="273"></rect>
<rect fill="#F7F9FC" rx="4" height="32" width="32" y="355" x="289"></rect>
<rect fill="#F7F9FC" rx="2" height="24" width="24" y="359" x="293"></rect>
<path fill="#6C47FF" d="M300.596 366.763C299.622 367.774 299.026 369.089 298.907 370.488C298.789 371.886 299.156 373.283 299.946 374.443C300.736 375.603 301.902 376.456 303.247 376.858C304.592 377.26 306.034 377.187 307.331 376.651C307.419 376.078 307.226 375.528 307.148 375.335C306.972 374.908 306.393 374.176 305.427 373.163C305.169 372.892 305.185 372.683 305.278 372.065L305.288 371.996C305.35 371.572 305.456 371.322 306.88 371.096C307.605 370.981 307.795 371.27 308.058 371.671L308.147 371.802C308.398 372.169 308.583 372.253 308.863 372.38C308.99 372.437 309.146 372.51 309.356 372.628C309.854 372.913 309.854 373.235 309.854 373.939V374.019C309.854 374.318 309.825 374.581 309.779 374.809C310.366 374.073 310.774 373.212 310.973 372.293C311.172 371.373 311.156 370.421 310.927 369.508C310.697 368.596 310.26 367.749 309.65 367.033C309.039 366.318 308.272 365.752 307.408 365.382C306.985 365.667 306.405 366.071 306.203 366.348C306.1 366.489 305.953 367.213 305.477 367.272C305.353 367.288 305.186 367.277 305.009 367.266C304.534 367.235 303.884 367.193 303.677 367.758C303.545 368.115 303.522 369.087 303.949 369.591C304.017 369.671 304.03 369.82 303.984 369.987C303.923 370.207 303.8 370.34 303.761 370.368C303.687 370.325 303.541 370.155 303.441 370.039C303.202 369.76 302.902 369.413 302.516 369.306C302.375 369.267 302.221 369.235 302.07 369.203C301.651 369.115 301.176 369.015 301.066 368.78C300.985 368.607 300.985 368.369 300.985 368.119C300.985 367.8 300.985 367.44 300.83 367.091C300.775 366.967 300.696 366.855 300.596 366.763V366.763ZM305 378.639C300.781 378.639 297.361 375.219 297.361 371C297.361 366.781 300.781 363.361 305 363.361C309.219 363.361 312.639 366.781 312.639 371C312.639 375.219 309.219 378.639 305 378.639Z"></path>
<rect fill="#E4E9F2" rx="3" height="6" width="138" y="361" x="329"></rect>
<rect fill="#F0F4F9" rx="3" height="6" width="211" y="375" x="329"></rect>
<rect fill="#F7F9FC" rx="4" height="32" width="32" y="403" x="289"></rect>
<rect fill="#F7F9FC" rx="2" height="24" width="24" y="407" x="293"></rect>
<path fill="#D8DDE8" d="M305 427.959L300.139 423.097C299.177 422.136 298.522 420.911 298.257 419.577C297.992 418.243 298.128 416.861 298.648 415.605C299.169 414.349 300.05 413.275 301.18 412.519C302.311 411.764 303.64 411.361 305 411.361C306.36 411.361 307.689 411.764 308.82 412.519C309.95 413.275 310.831 414.349 311.352 415.605C311.872 416.861 312.008 418.243 311.743 419.577C311.478 420.911 310.823 422.136 309.861 423.097L305 427.959ZM308.781 422.017C309.529 421.269 310.038 420.316 310.245 419.279C310.451 418.242 310.345 417.167 309.94 416.19C309.535 415.213 308.85 414.378 307.971 413.79C307.091 413.203 306.058 412.889 305 412.889C303.942 412.889 302.909 413.203 302.029 413.79C301.15 414.378 300.465 415.213 300.06 416.19C299.655 417.167 299.549 418.242 299.755 419.279C299.962 420.316 300.471 421.269 301.219 422.017L305 425.798L308.781 422.017V422.017ZM305 419.764C304.595 419.764 304.206 419.603 303.92 419.316C303.633 419.03 303.472 418.641 303.472 418.236C303.472 417.831 303.633 417.442 303.92 417.155C304.206 416.869 304.595 416.708 305 416.708C305.405 416.708 305.794 416.869 306.08 417.155C306.367 417.442 306.528 417.831 306.528 418.236C306.528 418.641 306.367 419.03 306.08 419.316C305.794 419.603 305.405 419.764 305 419.764Z"></path>
<rect fill="#E4E9F2" rx="3" height="6" width="95" y="409" x="329"></rect>
<rect fill="#F0F4F9" rx="3" height="6" width="229" y="423" x="329"></rect>
<rect fill="#F7F9FC" rx="4" height="32" width="32" y="451" x="289"></rect>
<rect fill="#F7F9FC" rx="2" height="24" width="24" y="455" x="293"></rect>
<path fill="#D8DDE8" d="M309.583 460.125V461.653H308.82V466.236L310.347 468.528V470.056H305.764V475.403H304.236V470.056H299.653V468.528L301.181 466.236V461.653H300.417V460.125H309.583ZM302.708 461.653V466.699L301.489 468.528H308.511L307.292 466.699V461.653H302.708Z"></path>
<rect fill="#E4E9F2" rx="3" height="6" width="123" y="457" x="329"></rect>
<rect fill="#F0F4F9" rx="3" height="6" width="183" y="471" x="329"></rect>
<path mask="url(#path-27-inside-1_16_2344)" fill="#F7F9FC" d="M960 499H273V501H960V499Z"></path>
<rect fill="#F0F4F9" rx="4" height="8" width="116" y="532" x="273"></rect>
<rect fill="#F0F4F9" rx="4" height="8" width="116" y="532" x="704"></rect>
<rect fill="#F0F4F9" rx="4" height="8" width="8" y="532" x="840"></rect>
<rect fill="#F0F4F9" rx="4" height="8" width="8" y="532" x="860"></rect>
<rect fill="#6C47FF" rx="4" height="8" width="8" y="532" x="880"></rect>
<rect fill="#F0F4F9" rx="4" height="8" width="8" y="532" x="900"></rect>
<rect fill="#6C47FF" rx="4" height="8" width="40" y="532" x="920"></rect>
</g>
<rect fill="#F7F9FC" height="32" width="992"></rect>
<circle fill="#C0C8D3" r="4" cy="16" cx="20"></circle>
<circle fill="#C0C8D3" r="4" cy="16" cx="36"></circle>
<circle fill="#C0C8D3" r="4" cy="16" cx="52"></circle>
</g>
</g>
<path fill="#6C47FF" d="M232 295.45C228.686 295.45 226 292.764 226 289.45V154C226 150.686 228.686 148 232 148H256V295.45H232Z"></path>
<path fill="white" d="M238.7 277.038C239.02 277.038 239.284 276.878 239.492 276.558C239.692 276.238 239.864 275.722 240.008 275.01C240.2 274.082 240.504 273.394 240.92 272.946C241.336 272.49 241.892 272.262 242.588 272.262C243.3 272.262 243.908 272.55 244.412 273.126C244.916 273.694 245.168 274.45 245.168 275.394C245.168 276.394 244.924 277.19 244.436 277.782C243.948 278.374 243.296 278.754 242.48 278.922L241.772 277.53C243.108 277.282 243.776 276.574 243.776 275.406C243.776 274.934 243.672 274.558 243.464 274.278C243.256 273.99 242.984 273.846 242.648 273.846C242.28 273.846 241.992 274.014 241.784 274.35C241.576 274.678 241.4 275.202 241.256 275.922C241.096 276.73 240.808 277.37 240.392 277.842C239.968 278.314 239.416 278.55 238.736 278.55C238.04 278.55 237.484 278.278 237.068 277.734C236.644 277.19 236.432 276.478 236.432 275.598C236.432 273.998 237.152 272.934 238.592 272.406L239.312 273.654C238.32 273.99 237.824 274.65 237.824 275.634C237.824 276.034 237.9 276.37 238.052 276.642C238.196 276.906 238.412 277.038 238.7 277.038ZM242.384 265.166V269.75C242.84 269.702 243.204 269.53 243.476 269.234C243.74 268.938 243.872 268.566 243.872 268.118C243.872 267.382 243.508 266.834 242.78 266.474L243.428 265.346C244.588 265.906 245.168 266.838 245.168 268.142C245.168 268.99 244.876 269.714 244.292 270.314C243.7 270.906 242.944 271.202 242.024 271.202C241.096 271.202 240.34 270.902 239.756 270.302C239.172 269.694 238.88 268.95 238.88 268.07C238.88 267.222 239.16 266.526 239.72 265.982C240.272 265.438 240.984 265.166 241.856 265.166H242.384ZM240.032 268.118C240.032 268.51 240.152 268.854 240.392 269.15C240.624 269.438 240.92 269.638 241.28 269.75V266.558C240.888 266.63 240.584 266.802 240.368 267.074C240.144 267.346 240.032 267.694 240.032 268.118ZM242.66 259.608L243.452 258.384C244.596 258.96 245.168 259.888 245.168 261.168C245.168 262.064 244.88 262.812 244.304 263.412C243.72 264.004 242.96 264.3 242.024 264.3C241.096 264.3 240.34 263.996 239.756 263.388C239.172 262.78 238.88 262.04 238.88 261.168C238.88 260.512 239.024 259.948 239.312 259.476C239.592 258.996 239.988 258.652 240.5 258.444L241.316 259.68C240.636 259.992 240.296 260.492 240.296 261.18C240.296 261.636 240.456 262.016 240.776 262.32C241.088 262.616 241.504 262.764 242.024 262.764C242.552 262.764 242.972 262.616 243.284 262.32C243.596 262.024 243.752 261.644 243.752 261.18C243.752 260.796 243.664 260.484 243.488 260.244C243.304 259.996 243.028 259.784 242.66 259.608ZM242.744 257.319H239.048V255.807H242.396C243.3 255.807 243.752 255.403 243.752 254.595C243.752 254.179 243.6 253.847 243.296 253.599C242.992 253.343 242.6 253.215 242.12 253.215H239.048V251.703H245V253.215H244.064C244.8 253.615 245.168 254.247 245.168 255.111C245.168 255.759 244.956 256.291 244.532 256.707C244.108 257.115 243.512 257.319 242.744 257.319ZM238.952 246.569L240.38 246.809C240.324 246.961 240.296 247.125 240.296 247.301C240.296 247.741 240.464 248.093 240.8 248.357C241.128 248.613 241.548 248.741 242.06 248.741H245V250.253H239.048V248.741H239.996C239.252 248.373 238.88 247.821 238.88 247.085C238.88 246.901 238.904 246.729 238.952 246.569ZM242.384 240.217V244.801C242.84 244.753 243.204 244.581 243.476 244.285C243.74 243.989 243.872 243.617 243.872 243.169C243.872 242.433 243.508 241.885 242.78 241.525L243.428 240.397C244.588 240.957 245.168 241.889 245.168 243.193C245.168 244.041 244.876 244.765 244.292 245.365C243.7 245.957 242.944 246.253 242.024 246.253C241.096 246.253 240.34 245.953 239.756 245.353C239.172 244.745 238.88 244.001 238.88 243.121C238.88 242.273 239.16 241.577 239.72 241.033C240.272 240.489 240.984 240.217 241.856 240.217H242.384ZM240.032 243.169C240.032 243.561 240.152 243.905 240.392 244.201C240.624 244.489 240.92 244.689 241.28 244.801V241.609C240.888 241.681 240.584 241.853 240.368 242.125C240.144 242.397 240.032 242.745 240.032 243.169ZM236.6 233.039H245V234.551H244.16C244.456 234.719 244.7 234.967 244.892 235.295C245.076 235.615 245.168 235.991 245.168 236.423C245.168 237.263 244.884 237.963 244.316 238.523C243.748 239.075 242.984 239.351 242.024 239.351C241.08 239.351 240.32 239.059 239.744 238.475C239.168 237.883 238.88 237.199 238.88 236.423C238.88 235.543 239.18 234.919 239.78 234.551H236.6V233.039ZM243.272 237.335C243.592 237.015 243.752 236.615 243.752 236.135C243.752 235.655 243.592 235.255 243.272 234.935C242.944 234.615 242.528 234.455 242.024 234.455C241.52 234.455 241.108 234.615 240.788 234.935C240.46 235.255 240.296 235.655 240.296 236.135C240.296 236.615 240.46 237.015 240.788 237.335C241.108 237.655 241.52 237.815 242.024 237.815C242.528 237.815 242.944 237.655 243.272 237.335ZM245 228.21H236.6V226.698H239.78C239.18 226.226 238.88 225.574 238.88 224.742C238.88 223.918 239.164 223.238 239.732 222.702C240.292 222.166 241.056 221.898 242.024 221.898C242.984 221.898 243.748 222.174 244.316 222.726C244.884 223.278 245.168 223.958 245.168 224.766C245.168 225.614 244.868 226.258 244.268 226.698H245V228.21ZM243.272 226.326C243.592 226.006 243.752 225.602 243.752 225.114C243.752 224.626 243.592 224.226 243.272 223.914C242.944 223.594 242.528 223.434 242.024 223.434C241.52 223.434 241.108 223.594 240.788 223.914C240.46 224.226 240.296 224.626 240.296 225.114C240.296 225.602 240.46 226.006 240.788 226.326C241.108 226.638 241.52 226.794 242.024 226.794C242.528 226.794 242.944 226.638 243.272 226.326ZM247.4 220.801L245.996 220.561C246.092 220.385 246.14 220.205 246.14 220.021C246.14 219.709 245.952 219.485 245.576 219.349L245.048 219.157L239.048 221.605V219.889L242.912 218.353L239.048 216.889V215.173L246.08 218.005C246.592 218.213 246.96 218.477 247.184 218.797C247.416 219.109 247.532 219.501 247.532 219.973C247.532 220.301 247.488 220.577 247.4 220.801Z"></path>
<path fill="white" d="M243.768 187.938C244.007 188.169 244.197 188.446 244.326 188.753C244.454 189.06 244.519 189.389 244.517 189.722C244.517 190.348 244.294 190.873 243.913 191.241C243.532 191.61 242.999 191.811 242.358 191.811C241.074 191.811 240.197 190.978 240.197 189.722C240.192 189.386 240.262 189.053 240.401 188.747C240.54 188.441 240.744 188.169 241 187.951L240.042 186.868C239.184 187.574 238.74 188.72 238.74 189.813C238.74 191.943 240.209 193.455 242.37 193.455C243.439 193.455 244.339 193.079 244.975 192.446C245.61 191.813 245.984 190.91 245.984 189.869C245.984 188.517 245.435 187.438 244.745 186.832L243.768 187.938Z"></path>
<path fill="white" d="M236 185.85V184.239H245.87V185.85H236Z"></path>
<path fill="white" d="M242.919 176.463C242.704 176.437 242.488 176.422 242.271 176.419C240.225 176.419 238.742 177.759 238.742 179.831C238.742 180.816 239.109 181.678 239.749 182.291C240.389 182.904 241.284 183.259 242.36 183.259C244.547 183.259 245.988 181.718 245.988 179.674C245.988 178.302 245.433 177.313 244.678 176.722L243.742 177.777L243.698 177.833C244.142 178.192 244.519 178.767 244.519 179.588C244.519 180.626 243.914 181.374 242.921 181.588L242.919 176.463ZM241.623 181.561C241.31 181.488 241.02 181.34 240.778 181.129C240.398 180.792 240.197 180.309 240.197 179.747C240.197 178.824 240.774 178.247 241.623 178.048V181.561Z"></path>
<path fill="white" d="M238.722 171.423H240.522C240.508 171.611 240.493 171.797 240.493 171.913C240.493 173.135 241.372 173.828 242.523 173.828H245.872V175.439H238.822V173.828H239.889V173.813C239.14 173.266 238.722 172.474 238.722 171.624V171.423Z"></path>
<path fill="white" d="M242.918 167.667L244.214 168.833H245.87V170.444H236V168.833H242.056L238.844 165.954V164.039L241.681 166.573L245.871 163.996V165.81L242.919 167.638L242.918 167.667Z"></path>
<path fill="white" d="M235.844 197.295L237.526 198.976C237.578 199.028 237.611 199.097 237.62 199.171C237.629 199.245 237.613 199.32 237.574 199.383C237.176 200.045 236.977 200.808 237.002 201.58C237.027 202.352 237.275 203.1 237.716 203.734C237.987 204.124 238.326 204.463 238.716 204.734C239.35 205.175 240.098 205.423 240.87 205.448C241.642 205.473 242.405 205.274 243.067 204.876C243.13 204.837 243.205 204.821 243.279 204.83C243.353 204.839 243.422 204.872 243.475 204.924L245.156 206.606C245.19 206.64 245.216 206.681 245.233 206.726C245.25 206.771 245.257 206.819 245.253 206.867C245.25 206.915 245.236 206.961 245.212 207.003C245.189 207.045 245.157 207.082 245.118 207.11C243.868 208.02 242.352 208.49 240.807 208.447C239.261 208.405 237.774 207.852 236.576 206.874C236.209 206.576 235.874 206.241 235.576 205.874C234.599 204.677 234.046 203.189 234.003 201.644C233.96 200.099 234.43 198.583 235.34 197.333C235.368 197.294 235.405 197.262 235.447 197.239C235.489 197.215 235.535 197.201 235.583 197.198C235.631 197.194 235.679 197.201 235.724 197.218C235.769 197.234 235.81 197.261 235.844 197.295Z"></path>
<path fill="white" d="M246.156 197.294L244.474 198.976C244.422 199.028 244.389 199.097 244.38 199.171C244.371 199.245 244.388 199.32 244.426 199.383C244.802 200.007 245 200.722 245 201.45C245 202.178 244.802 202.893 244.426 203.517C244.388 203.58 244.371 203.655 244.38 203.729C244.389 203.803 244.422 203.872 244.474 203.924L246.156 205.606C246.19 205.64 246.231 205.666 246.276 205.683C246.321 205.7 246.369 205.707 246.417 205.703C246.465 205.699 246.511 205.686 246.554 205.662C246.596 205.639 246.632 205.607 246.661 205.568C247.531 204.372 248 202.93 248 201.45C248 199.97 247.531 198.528 246.661 197.332C246.632 197.293 246.595 197.261 246.553 197.238C246.511 197.215 246.465 197.201 246.417 197.197C246.369 197.194 246.321 197.201 246.276 197.217C246.231 197.234 246.19 197.26 246.156 197.294Z"></path>
<path fill="white" d="M243 201.45C243 200.346 242.105 199.45 241 199.45C239.895 199.45 239 200.346 239 201.45C239 202.555 239.895 203.45 241 203.45C242.105 203.45 243 202.555 243 201.45Z"></path>
<g filter="url(#filter1_d_16_2344)">
<path fill="white" d="M720 110H272C263.163 110 256 117.163 256 126V442C256 450.837 263.163 458 272 458H720C728.837 458 736 450.837 736 442V126C736 117.163 728.837 110 720 110Z"></path>
</g>
<path fill="black" d="M301.679 169.185H299.463C299.378 168.711 299.219 168.294 298.987 167.935C298.755 167.575 298.471 167.269 298.135 167.018C297.799 166.767 297.422 166.578 297.006 166.45C296.594 166.322 296.156 166.258 295.692 166.258C294.854 166.258 294.103 166.469 293.44 166.89C292.782 167.312 292.261 167.93 291.878 168.744C291.499 169.559 291.31 170.553 291.31 171.727C291.31 172.911 291.499 173.91 291.878 174.724C292.261 175.539 292.785 176.154 293.447 176.571C294.11 176.988 294.856 177.196 295.685 177.196C296.144 177.196 296.58 177.134 296.992 177.011C297.408 176.883 297.785 176.696 298.121 176.45C298.457 176.204 298.741 175.903 298.973 175.548C299.21 175.188 299.373 174.776 299.463 174.312L301.679 174.319C301.561 175.034 301.331 175.693 300.99 176.294C300.654 176.89 300.221 177.407 299.69 177.842C299.165 178.273 298.563 178.607 297.886 178.844C297.209 179.08 296.471 179.199 295.671 179.199C294.411 179.199 293.289 178.9 292.304 178.304C291.319 177.703 290.543 176.843 289.974 175.726C289.411 174.608 289.129 173.275 289.129 171.727C289.129 170.174 289.413 168.841 289.982 167.729C290.55 166.611 291.326 165.754 292.311 165.158C293.296 164.556 294.416 164.256 295.671 164.256C296.442 164.256 297.162 164.367 297.83 164.589C298.502 164.807 299.106 165.129 299.641 165.555C300.176 165.977 300.618 166.493 300.969 167.104C301.319 167.71 301.556 168.403 301.679 169.185ZM304.135 179V168.091H306.187V169.824H306.301C306.5 169.237 306.85 168.775 307.352 168.439C307.859 168.098 308.432 167.927 309.071 167.927C309.203 167.927 309.36 167.932 309.539 167.942C309.724 167.951 309.869 167.963 309.973 167.977V170.008C309.887 169.985 309.736 169.959 309.518 169.93C309.3 169.897 309.083 169.881 308.865 169.881C308.363 169.881 307.915 169.987 307.522 170.2C307.134 170.408 306.826 170.7 306.599 171.074C306.372 171.443 306.258 171.864 306.258 172.338V179H304.135ZM316.121 179.22C315.047 179.22 314.121 178.99 313.345 178.531C312.573 178.067 311.976 177.416 311.555 176.578C311.138 175.735 310.93 174.748 310.93 173.616C310.93 172.499 311.138 171.514 311.555 170.662C311.976 169.81 312.563 169.144 313.316 168.666C314.074 168.188 314.959 167.949 315.972 167.949C316.588 167.949 317.184 168.051 317.762 168.254C318.34 168.458 318.858 168.777 319.318 169.213C319.777 169.649 320.139 170.214 320.404 170.91C320.669 171.602 320.802 172.442 320.802 173.432V174.185H312.13V172.594H318.721C318.721 172.035 318.607 171.54 318.38 171.109C318.153 170.674 317.833 170.33 317.421 170.079C317.014 169.828 316.536 169.703 315.987 169.703C315.39 169.703 314.869 169.85 314.424 170.143C313.984 170.432 313.643 170.811 313.401 171.28C313.165 171.744 313.046 172.248 313.046 172.792V174.035C313.046 174.765 313.174 175.385 313.43 175.896C313.69 176.408 314.052 176.798 314.516 177.068C314.98 177.333 315.523 177.466 316.143 177.466C316.545 177.466 316.912 177.409 317.244 177.295C317.575 177.177 317.862 177.002 318.103 176.77C318.345 176.538 318.529 176.251 318.657 175.91L320.667 176.273C320.506 176.864 320.217 177.383 319.8 177.828C319.389 178.268 318.87 178.612 318.245 178.858C317.625 179.099 316.917 179.22 316.121 179.22ZM326.333 179.241C325.642 179.241 325.017 179.113 324.458 178.858C323.899 178.597 323.456 178.221 323.13 177.729C322.808 177.236 322.647 176.632 322.647 175.917C322.647 175.302 322.765 174.795 323.002 174.398C323.239 174 323.558 173.685 323.961 173.453C324.363 173.221 324.813 173.046 325.31 172.927C325.807 172.809 326.314 172.719 326.83 172.658C327.483 172.582 328.014 172.52 328.421 172.473C328.828 172.421 329.124 172.338 329.309 172.224C329.493 172.111 329.586 171.926 329.586 171.67V171.621C329.586 171 329.41 170.52 329.06 170.179C328.714 169.838 328.198 169.667 327.512 169.667C326.797 169.667 326.233 169.826 325.821 170.143C325.414 170.456 325.133 170.804 324.976 171.187L322.981 170.733C323.217 170.07 323.563 169.535 324.017 169.128C324.477 168.716 325.005 168.417 325.601 168.233C326.198 168.043 326.825 167.949 327.483 167.949C327.919 167.949 328.381 168.001 328.868 168.105C329.361 168.204 329.82 168.389 330.246 168.659C330.677 168.929 331.03 169.315 331.304 169.817C331.579 170.314 331.716 170.96 331.716 171.756V179H329.642V177.508H329.557C329.42 177.783 329.214 178.053 328.939 178.318C328.665 178.583 328.312 178.803 327.881 178.979C327.45 179.154 326.934 179.241 326.333 179.241ZM326.794 177.537C327.382 177.537 327.883 177.421 328.3 177.189C328.721 176.957 329.041 176.654 329.259 176.28C329.481 175.901 329.593 175.496 329.593 175.065V173.659C329.517 173.735 329.37 173.806 329.152 173.872C328.939 173.934 328.695 173.988 328.421 174.035C328.146 174.078 327.879 174.118 327.618 174.156C327.358 174.189 327.14 174.218 326.965 174.241C326.553 174.293 326.176 174.381 325.836 174.504C325.499 174.627 325.23 174.805 325.026 175.037C324.827 175.264 324.728 175.567 324.728 175.946C324.728 176.471 324.922 176.869 325.31 177.139C325.698 177.404 326.193 177.537 326.794 177.537ZM339.637 168.091V169.795H333.678V168.091H339.637ZM335.276 165.477H337.4V175.797C337.4 176.209 337.461 176.519 337.585 176.727C337.708 176.931 337.866 177.07 338.06 177.146C338.259 177.217 338.475 177.253 338.707 177.253C338.877 177.253 339.026 177.241 339.154 177.217C339.282 177.194 339.381 177.175 339.452 177.16L339.836 178.915C339.713 178.962 339.538 179.009 339.31 179.057C339.083 179.109 338.799 179.137 338.458 179.142C337.899 179.151 337.379 179.052 336.896 178.844C336.413 178.635 336.022 178.313 335.724 177.878C335.425 177.442 335.276 176.895 335.276 176.237V165.477ZM346.571 179.22C345.496 179.22 344.57 178.99 343.794 178.531C343.022 178.067 342.425 177.416 342.004 176.578C341.587 175.735 341.379 174.748 341.379 173.616C341.379 172.499 341.587 171.514 342.004 170.662C342.425 169.81 343.012 169.144 343.765 168.666C344.523 168.188 345.408 167.949 346.422 167.949C347.037 167.949 347.634 168.051 348.211 168.254C348.789 168.458 349.307 168.777 349.767 169.213C350.226 169.649 350.588 170.214 350.853 170.91C351.118 171.602 351.251 172.442 351.251 173.432V174.185H342.579V172.594H349.17C349.17 172.035 349.056 171.54 348.829 171.109C348.602 170.674 348.282 170.33 347.87 170.079C347.463 169.828 346.985 169.703 346.436 169.703C345.839 169.703 345.318 169.85 344.873 170.143C344.433 170.432 344.092 170.811 343.85 171.28C343.614 171.744 343.495 172.248 343.495 172.792V174.035C343.495 174.765 343.623 175.385 343.879 175.896C344.139 176.408 344.502 176.798 344.966 177.068C345.43 177.333 345.972 177.466 346.592 177.466C346.994 177.466 347.361 177.409 347.693 177.295C348.024 177.177 348.311 177.002 348.552 176.77C348.794 176.538 348.978 176.251 349.106 175.91L351.116 176.273C350.955 176.864 350.666 177.383 350.25 177.828C349.838 178.268 349.319 178.612 348.694 178.858C348.074 179.099 347.366 179.22 346.571 179.22ZM363.495 179.22C362.473 179.22 361.58 178.986 360.818 178.517C360.056 178.048 359.464 177.392 359.042 176.55C358.621 175.707 358.41 174.722 358.41 173.595C358.41 172.463 358.621 171.474 359.042 170.626C359.464 169.779 360.056 169.121 360.818 168.652C361.58 168.183 362.473 167.949 363.495 167.949C364.518 167.949 365.411 168.183 366.173 168.652C366.935 169.121 367.527 169.779 367.949 170.626C368.37 171.474 368.581 172.463 368.581 173.595C368.581 174.722 368.37 175.707 367.949 176.55C367.527 177.392 366.935 178.048 366.173 178.517C365.411 178.986 364.518 179.22 363.495 179.22ZM363.502 177.437C364.165 177.437 364.715 177.262 365.15 176.912C365.586 176.561 365.908 176.095 366.116 175.513C366.329 174.93 366.436 174.289 366.436 173.588C366.436 172.892 366.329 172.253 366.116 171.67C365.908 171.083 365.586 170.612 365.15 170.257C364.715 169.902 364.165 169.724 363.502 169.724C362.835 169.724 362.281 169.902 361.841 170.257C361.405 170.612 361.081 171.083 360.868 171.67C360.659 172.253 360.555 172.892 360.555 173.588C360.555 174.289 360.659 174.93 360.868 175.513C361.081 176.095 361.405 176.561 361.841 176.912C362.281 177.262 362.835 177.437 363.502 177.437ZM370.951 179V168.091H373.004V169.824H373.117C373.316 169.237 373.666 168.775 374.168 168.439C374.675 168.098 375.248 167.927 375.887 167.927C376.02 167.927 376.176 167.932 376.356 167.942C376.54 167.951 376.685 167.963 376.789 167.977V170.008C376.704 169.985 376.552 169.959 376.335 169.93C376.117 169.897 375.899 169.881 375.681 169.881C375.179 169.881 374.732 169.987 374.339 170.2C373.951 170.408 373.643 170.7 373.415 171.074C373.188 171.443 373.075 171.864 373.075 172.338V179H370.951ZM382.81 183.318C381.944 183.318 381.198 183.204 380.573 182.977C379.953 182.75 379.446 182.449 379.053 182.075C378.66 181.701 378.366 181.292 378.172 180.846L379.998 180.094C380.125 180.302 380.296 180.522 380.509 180.754C380.727 180.991 381.02 181.192 381.39 181.358C381.764 181.524 382.244 181.606 382.831 181.606C383.636 181.606 384.301 181.41 384.827 181.017C385.353 180.629 385.615 180.008 385.615 179.156V177.011H385.48C385.353 177.243 385.168 177.501 384.926 177.785C384.69 178.069 384.363 178.316 383.946 178.524C383.53 178.732 382.988 178.836 382.32 178.836C381.458 178.836 380.682 178.635 379.99 178.233C379.304 177.826 378.759 177.227 378.357 176.436C377.959 175.64 377.76 174.663 377.76 173.503C377.76 172.343 377.957 171.348 378.35 170.52C378.748 169.691 379.292 169.057 379.983 168.616C380.675 168.171 381.458 167.949 382.334 167.949C383.011 167.949 383.558 168.062 383.975 168.29C384.391 168.512 384.716 168.773 384.948 169.071C385.185 169.369 385.367 169.632 385.495 169.859H385.651V168.091H387.732V179.241C387.732 180.179 387.514 180.948 387.078 181.55C386.643 182.151 386.053 182.596 385.31 182.885C384.571 183.174 383.738 183.318 382.81 183.318ZM382.789 177.075C383.4 177.075 383.916 176.933 384.337 176.649C384.763 176.36 385.085 175.948 385.303 175.413C385.525 174.873 385.637 174.227 385.637 173.474C385.637 172.74 385.528 172.094 385.31 171.535C385.092 170.977 384.773 170.541 384.351 170.229C383.93 169.911 383.409 169.753 382.789 169.753C382.15 169.753 381.617 169.918 381.191 170.25C380.765 170.577 380.443 171.022 380.225 171.585C380.012 172.149 379.905 172.778 379.905 173.474C379.905 174.189 380.014 174.817 380.232 175.356C380.45 175.896 380.772 176.318 381.198 176.621C381.629 176.924 382.159 177.075 382.789 177.075ZM393.755 179.241C393.063 179.241 392.438 179.113 391.88 178.858C391.321 178.597 390.878 178.221 390.551 177.729C390.23 177.236 390.069 176.632 390.069 175.917C390.069 175.302 390.187 174.795 390.424 174.398C390.66 174 390.98 173.685 391.382 173.453C391.785 173.221 392.235 173.046 392.732 172.927C393.229 172.809 393.736 172.719 394.252 172.658C394.905 172.582 395.435 172.52 395.843 172.473C396.25 172.421 396.546 172.338 396.73 172.224C396.915 172.111 397.007 171.926 397.007 171.67V171.621C397.007 171 396.832 170.52 396.482 170.179C396.136 169.838 395.62 169.667 394.934 169.667C394.219 169.667 393.655 169.826 393.243 170.143C392.836 170.456 392.554 170.804 392.398 171.187L390.402 170.733C390.639 170.07 390.985 169.535 391.439 169.128C391.899 168.716 392.426 168.417 393.023 168.233C393.62 168.043 394.247 167.949 394.905 167.949C395.341 167.949 395.802 168.001 396.29 168.105C396.783 168.204 397.242 168.389 397.668 168.659C398.099 168.929 398.452 169.315 398.726 169.817C399.001 170.314 399.138 170.96 399.138 171.756V179H397.064V177.508H396.979C396.842 177.783 396.636 178.053 396.361 178.318C396.087 178.583 395.734 178.803 395.303 178.979C394.872 179.154 394.356 179.241 393.755 179.241ZM394.216 177.537C394.803 177.537 395.305 177.421 395.722 177.189C396.143 176.957 396.463 176.654 396.681 176.28C396.903 175.901 397.015 175.496 397.015 175.065V173.659C396.939 173.735 396.792 173.806 396.574 173.872C396.361 173.934 396.117 173.988 395.843 174.035C395.568 174.078 395.301 174.118 395.04 174.156C394.78 174.189 394.562 174.218 394.387 174.241C393.975 174.293 393.598 174.381 393.257 174.504C392.921 174.627 392.651 174.805 392.448 175.037C392.249 175.264 392.15 175.567 392.15 175.946C392.15 176.471 392.344 176.869 392.732 177.139C393.12 177.404 393.615 177.537 394.216 177.537ZM404.09 172.523V179H401.967V168.091H404.005V169.866H404.14C404.391 169.289 404.784 168.825 405.319 168.474C405.859 168.124 406.538 167.949 407.357 167.949C408.101 167.949 408.752 168.105 409.31 168.417C409.869 168.725 410.302 169.185 410.61 169.795C410.918 170.406 411.072 171.161 411.072 172.061V179H408.948V172.317C408.948 171.526 408.742 170.908 408.33 170.463C407.918 170.013 407.353 169.788 406.633 169.788C406.14 169.788 405.702 169.895 405.319 170.108C404.94 170.321 404.639 170.633 404.417 171.045C404.199 171.453 404.09 171.945 404.09 172.523ZM413.92 179V168.091H416.043V179H413.92ZM414.992 166.408C414.623 166.408 414.306 166.284 414.04 166.038C413.78 165.787 413.65 165.489 413.65 165.143C413.65 164.793 413.78 164.495 414.04 164.248C414.306 163.997 414.623 163.872 414.992 163.872C415.362 163.872 415.676 163.997 415.937 164.248C416.202 164.495 416.335 164.793 416.335 165.143C416.335 165.489 416.202 165.787 415.937 166.038C415.676 166.284 415.362 166.408 414.992 166.408ZM418.673 179V177.544L424.582 170.037V169.937H418.865V168.091H427.231V169.639L421.549 177.054V177.153H427.43V179H418.673ZM433.11 179.241C432.419 179.241 431.794 179.113 431.235 178.858C430.676 178.597 430.234 178.221 429.907 177.729C429.585 177.236 429.424 176.632 429.424 175.917C429.424 175.302 429.542 174.795 429.779 174.398C430.016 174 430.335 173.685 430.738 173.453C431.14 173.221 431.59 173.046 432.087 172.927C432.585 172.809 433.091 172.719 433.607 172.658C434.261 172.582 434.791 172.52 435.198 172.473C435.605 172.421 435.901 172.338 436.086 172.224C436.271 172.111 436.363 171.926 436.363 171.67V171.621C436.363 171 436.188 170.52 435.837 170.179C435.492 169.838 434.976 169.667 434.289 169.667C433.574 169.667 433.011 169.826 432.599 170.143C432.192 170.456 431.91 170.804 431.754 171.187L429.758 170.733C429.995 170.07 430.34 169.535 430.795 169.128C431.254 168.716 431.782 168.417 432.379 168.233C432.975 168.043 433.603 167.949 434.261 167.949C434.696 167.949 435.158 168.001 435.646 168.105C436.138 168.204 436.597 168.389 437.023 168.659C437.454 168.929 437.807 169.315 438.082 169.817C438.356 170.314 438.494 170.96 438.494 171.756V179H436.42V177.508H436.335C436.197 177.783 435.991 178.053 435.717 178.318C435.442 178.583 435.089 178.803 434.658 178.979C434.228 179.154 433.711 179.241 433.11 179.241ZM433.572 177.537C434.159 177.537 434.661 177.421 435.077 177.189C435.499 176.957 435.818 176.654 436.036 176.28C436.259 175.901 436.37 175.496 436.37 175.065V173.659C436.294 173.735 436.147 173.806 435.93 173.872C435.717 173.934 435.473 173.988 435.198 174.035C434.924 174.078 434.656 174.118 434.396 174.156C434.135 174.189 433.917 174.218 433.742 174.241C433.33 174.293 432.954 174.381 432.613 174.504C432.277 174.627 432.007 174.805 431.803 175.037C431.604 175.264 431.505 175.567 431.505 175.946C431.505 176.471 431.699 176.869 432.087 177.139C432.476 177.404 432.97 177.537 433.572 177.537ZM446.414 168.091V169.795H440.456V168.091H446.414ZM442.054 165.477H444.177V175.797C444.177 176.209 444.239 176.519 444.362 176.727C444.485 176.931 444.644 177.07 444.838 177.146C445.037 177.217 445.252 177.253 445.484 177.253C445.654 177.253 445.804 177.241 445.931 177.217C446.059 177.194 446.159 177.175 446.23 177.16L446.613 178.915C446.49 178.962 446.315 179.009 446.088 179.057C445.86 179.109 445.576 179.137 445.235 179.142C444.677 179.151 444.156 179.052 443.673 178.844C443.19 178.635 442.799 178.313 442.501 177.878C442.203 177.442 442.054 176.895 442.054 176.237V165.477ZM448.763 179V168.091H450.887V179H448.763ZM449.836 166.408C449.467 166.408 449.149 166.284 448.884 166.038C448.624 165.787 448.494 165.489 448.494 165.143C448.494 164.793 448.624 164.495 448.884 164.248C449.149 163.997 449.467 163.872 449.836 163.872C450.205 163.872 450.52 163.997 450.781 164.248C451.046 164.495 451.178 164.793 451.178 165.143C451.178 165.489 451.046 165.787 450.781 166.038C450.52 166.284 450.205 166.408 449.836 166.408ZM458.339 179.22C457.316 179.22 456.424 178.986 455.662 178.517C454.899 178.048 454.307 177.392 453.886 176.55C453.465 175.707 453.254 174.722 453.254 173.595C453.254 172.463 453.465 171.474 453.886 170.626C454.307 169.779 454.899 169.121 455.662 168.652C456.424 168.183 457.316 167.949 458.339 167.949C459.362 167.949 460.254 168.183 461.017 168.652C461.779 169.121 462.371 169.779 462.792 170.626C463.214 171.474 463.424 172.463 463.424 173.595C463.424 174.722 463.214 175.707 462.792 176.55C462.371 177.392 461.779 178.048 461.017 178.517C460.254 178.986 459.362 179.22 458.339 179.22ZM458.346 177.437C459.009 177.437 459.558 177.262 459.994 176.912C460.43 176.561 460.752 176.095 460.96 175.513C461.173 174.93 461.279 174.289 461.279 173.588C461.279 172.892 461.173 172.253 460.96 171.67C460.752 171.083 460.43 170.612 459.994 170.257C459.558 169.902 459.009 169.724 458.346 169.724C457.679 169.724 457.125 169.902 456.684 170.257C456.249 170.612 455.924 171.083 455.711 171.67C455.503 172.253 455.399 172.892 455.399 173.588C455.399 174.289 455.503 174.93 455.711 175.513C455.924 176.095 456.249 176.561 456.684 176.912C457.125 177.262 457.679 177.437 458.346 177.437ZM467.918 172.523V179H465.795V168.091H467.833V169.866H467.968C468.219 169.289 468.612 168.825 469.147 168.474C469.687 168.124 470.366 167.949 471.185 167.949C471.929 167.949 472.58 168.105 473.138 168.417C473.697 168.725 474.13 169.185 474.438 169.795C474.746 170.406 474.9 171.161 474.9 172.061V179H472.776V172.317C472.776 171.526 472.57 170.908 472.158 170.463C471.746 170.013 471.181 169.788 470.461 169.788C469.969 169.788 469.531 169.895 469.147 170.108C468.768 170.321 468.468 170.633 468.245 171.045C468.027 171.453 467.918 171.945 467.918 172.523Z"></path>
<path fill-opacity="0.04" fill="black" d="M332 218H292C289.791 218 288 219.791 288 222V262C288 264.209 289.791 266 292 266H332C334.209 266 336 264.209 336 262V222C336 219.791 334.209 218 332 218Z"></path>
<path fill="black" d="M353.119 238V227.818H356.748C357.54 227.818 358.196 227.962 358.717 228.251C359.237 228.539 359.626 228.933 359.885 229.434C360.143 229.931 360.273 230.491 360.273 231.114C360.273 231.741 360.142 232.304 359.88 232.805C359.621 233.302 359.23 233.696 358.707 233.988C358.186 234.276 357.532 234.42 356.743 234.42H354.247V233.118H356.604C357.104 233.118 357.51 233.032 357.822 232.859C358.133 232.684 358.362 232.445 358.508 232.143C358.654 231.842 358.727 231.499 358.727 231.114C358.727 230.73 358.654 230.388 358.508 230.09C358.362 229.792 358.132 229.558 357.817 229.389C357.505 229.22 357.094 229.136 356.584 229.136H354.655V238H353.119ZM361.954 238V230.364H363.391V231.577H363.471C363.61 231.166 363.855 230.843 364.206 230.607C364.561 230.369 364.962 230.249 365.41 230.249C365.502 230.249 365.612 230.253 365.738 230.259C365.867 230.266 365.968 230.274 366.041 230.284V231.706C365.981 231.689 365.875 231.671 365.723 231.651C365.57 231.628 365.418 231.616 365.265 231.616C364.914 231.616 364.601 231.691 364.326 231.84C364.054 231.986 363.839 232.19 363.68 232.452C363.52 232.71 363.441 233.005 363.441 233.337V238H361.954ZM370.271 238.154C369.555 238.154 368.93 237.99 368.396 237.662C367.863 237.334 367.448 236.875 367.153 236.285C366.858 235.695 366.711 235.005 366.711 234.217C366.711 233.424 366.858 232.732 367.153 232.138C367.448 231.545 367.863 231.085 368.396 230.756C368.93 230.428 369.555 230.264 370.271 230.264C370.987 230.264 371.611 230.428 372.145 230.756C372.679 231.085 373.093 231.545 373.388 232.138C373.683 232.732 373.83 233.424 373.83 234.217C373.83 235.005 373.683 235.695 373.388 236.285C373.093 236.875 372.679 237.334 372.145 237.662C371.611 237.99 370.987 238.154 370.271 238.154ZM370.276 236.906C370.74 236.906 371.124 236.784 371.429 236.538C371.734 236.293 371.959 235.967 372.105 235.559C372.254 235.151 372.329 234.702 372.329 234.212C372.329 233.724 372.254 233.277 372.105 232.869C371.959 232.458 371.734 232.129 371.429 231.88C371.124 231.631 370.74 231.507 370.276 231.507C369.808 231.507 369.42 231.631 369.112 231.88C368.807 232.129 368.58 232.458 368.431 232.869C368.285 233.277 368.212 233.724 368.212 234.212C368.212 234.702 368.285 235.151 368.431 235.559C368.58 235.967 368.807 236.293 369.112 236.538C369.42 236.784 369.808 236.906 370.276 236.906ZM379.124 230.364V231.557H374.808V230.364H379.124ZM375.992 238V229.479C375.992 229.001 376.096 228.605 376.305 228.29C376.514 227.972 376.79 227.735 377.135 227.58C377.48 227.42 377.854 227.341 378.259 227.341C378.557 227.341 378.812 227.366 379.024 227.415C379.236 227.462 379.394 227.505 379.497 227.545L379.149 228.748C379.079 228.728 378.99 228.705 378.88 228.678C378.771 228.648 378.638 228.634 378.482 228.634C378.121 228.634 377.863 228.723 377.707 228.902C377.554 229.081 377.478 229.339 377.478 229.678V238H375.992ZM380.657 238V230.364H382.144V238H380.657ZM381.408 229.185C381.15 229.185 380.928 229.099 380.742 228.927C380.56 228.751 380.469 228.542 380.469 228.3C380.469 228.055 380.56 227.846 380.742 227.674C380.928 227.498 381.15 227.411 381.408 227.411C381.667 227.411 381.887 227.498 382.069 227.674C382.255 227.846 382.348 228.055 382.348 228.3C382.348 228.542 382.255 228.751 382.069 228.927C381.887 229.099 381.667 229.185 381.408 229.185ZM385.63 227.818V238H384.144V227.818H385.63ZM390.921 238.154C390.169 238.154 389.521 237.993 388.977 237.672C388.437 237.347 388.02 236.891 387.725 236.305C387.433 235.715 387.287 235.024 387.287 234.232C387.287 233.449 387.433 232.76 387.725 232.163C388.02 231.567 388.431 231.101 388.958 230.766C389.488 230.432 390.108 230.264 390.817 230.264C391.248 230.264 391.665 230.335 392.07 230.478C392.474 230.621 392.837 230.844 393.159 231.149C393.48 231.454 393.734 231.85 393.919 232.337C394.105 232.821 394.198 233.41 394.198 234.102V234.629H388.127V233.516H392.741C392.741 233.125 392.661 232.778 392.502 232.477C392.343 232.172 392.119 231.931 391.831 231.756C391.546 231.58 391.211 231.492 390.827 231.492C390.409 231.492 390.045 231.595 389.733 231.8C389.425 232.003 389.186 232.268 389.017 232.596C388.852 232.921 388.769 233.274 388.769 233.655V234.525C388.769 235.035 388.858 235.469 389.037 235.827C389.219 236.185 389.473 236.459 389.798 236.648C390.123 236.833 390.502 236.926 390.936 236.926C391.218 236.926 391.475 236.886 391.707 236.807C391.939 236.724 392.139 236.601 392.308 236.439C392.477 236.277 392.607 236.076 392.696 235.837L394.103 236.091C393.99 236.505 393.788 236.868 393.497 237.18C393.208 237.488 392.845 237.728 392.408 237.901C391.974 238.07 391.478 238.154 390.921 238.154ZM399.552 238V230.364H401.039V238H399.552ZM400.303 229.185C400.044 229.185 399.822 229.099 399.637 228.927C399.454 228.751 399.363 228.542 399.363 228.3C399.363 228.055 399.454 227.846 399.637 227.674C399.822 227.498 400.044 227.411 400.303 227.411C400.561 227.411 400.782 227.498 400.964 227.674C401.15 227.846 401.242 228.055 401.242 228.3C401.242 228.542 401.15 228.751 400.964 228.927C400.782 229.099 400.561 229.185 400.303 229.185ZM403.038 238V230.364H404.465V231.607H404.56C404.719 231.186 404.979 230.857 405.34 230.622C405.701 230.384 406.134 230.264 406.638 230.264C407.148 230.264 407.576 230.384 407.92 230.622C408.268 230.861 408.525 231.189 408.691 231.607H408.771C408.953 231.199 409.243 230.874 409.641 230.632C410.038 230.387 410.512 230.264 411.062 230.264C411.755 230.264 412.32 230.481 412.758 230.915C413.199 231.35 413.419 232.004 413.419 232.879V238H411.933V233.018C411.933 232.501 411.792 232.127 411.51 231.895C411.228 231.663 410.892 231.547 410.501 231.547C410.017 231.547 409.641 231.696 409.372 231.994C409.104 232.289 408.969 232.669 408.969 233.133V238H407.488V232.924C407.488 232.51 407.359 232.177 407.1 231.925C406.842 231.673 406.505 231.547 406.091 231.547C405.809 231.547 405.549 231.621 405.31 231.771C405.075 231.916 404.884 232.12 404.739 232.382C404.596 232.644 404.525 232.947 404.525 233.292V238H403.038ZM417.634 238.169C417.15 238.169 416.712 238.08 416.321 237.901C415.93 237.718 415.62 237.455 415.392 237.11C415.166 236.765 415.053 236.343 415.053 235.842C415.053 235.411 415.136 235.057 415.302 234.778C415.468 234.5 415.691 234.28 415.973 234.117C416.255 233.955 416.57 233.832 416.918 233.749C417.266 233.666 417.62 233.603 417.982 233.56C418.439 233.507 418.81 233.464 419.095 233.431C419.38 233.395 419.588 233.337 419.717 233.257C419.846 233.178 419.911 233.048 419.911 232.869V232.835C419.911 232.4 419.788 232.064 419.543 231.825C419.301 231.587 418.94 231.467 418.459 231.467C417.959 231.467 417.564 231.578 417.276 231.8C416.991 232.019 416.794 232.263 416.684 232.531L415.287 232.213C415.453 231.749 415.695 231.375 416.013 231.089C416.334 230.801 416.704 230.592 417.122 230.463C417.539 230.33 417.978 230.264 418.439 230.264C418.744 230.264 419.067 230.301 419.409 230.374C419.753 230.443 420.075 230.572 420.373 230.761C420.675 230.95 420.922 231.22 421.114 231.572C421.306 231.92 421.402 232.372 421.402 232.929V238H419.95V236.956H419.891C419.795 237.148 419.651 237.337 419.458 237.523C419.266 237.708 419.019 237.862 418.718 237.985C418.416 238.108 418.055 238.169 417.634 238.169ZM417.957 236.976C418.368 236.976 418.719 236.895 419.011 236.732C419.306 236.57 419.53 236.358 419.682 236.096C419.838 235.831 419.916 235.547 419.916 235.246V234.261C419.863 234.314 419.76 234.364 419.607 234.411C419.458 234.454 419.288 234.492 419.095 234.525C418.903 234.555 418.716 234.583 418.534 234.609C418.351 234.633 418.199 234.652 418.076 234.669C417.788 234.705 417.524 234.767 417.286 234.853C417.05 234.939 416.861 235.063 416.719 235.226C416.58 235.385 416.51 235.597 416.51 235.862C416.51 236.23 416.646 236.509 416.918 236.697C417.19 236.883 417.536 236.976 417.957 236.976ZM426.584 241.023C425.977 241.023 425.455 240.943 425.018 240.784C424.584 240.625 424.229 240.415 423.954 240.153C423.679 239.891 423.473 239.604 423.337 239.293L424.615 238.766C424.705 238.911 424.824 239.066 424.973 239.228C425.125 239.394 425.331 239.535 425.589 239.651C425.851 239.767 426.188 239.825 426.599 239.825C427.162 239.825 427.628 239.687 427.996 239.412C428.364 239.14 428.548 238.706 428.548 238.109V236.608H428.453C428.364 236.77 428.234 236.951 428.065 237.15C427.9 237.349 427.671 237.521 427.379 237.667C427.088 237.813 426.708 237.886 426.241 237.886C425.638 237.886 425.094 237.745 424.61 237.463C424.129 237.178 423.748 236.759 423.467 236.205C423.188 235.648 423.049 234.964 423.049 234.152C423.049 233.34 423.187 232.644 423.462 232.064C423.74 231.484 424.121 231.04 424.605 230.732C425.089 230.42 425.638 230.264 426.251 230.264C426.725 230.264 427.107 230.344 427.399 230.503C427.691 230.659 427.918 230.841 428.08 231.05C428.246 231.259 428.374 231.442 428.463 231.602H428.572V230.364H430.029V238.169C430.029 238.825 429.877 239.364 429.572 239.785C429.267 240.206 428.854 240.517 428.334 240.719C427.817 240.922 427.233 241.023 426.584 241.023ZM426.569 236.653C426.996 236.653 427.358 236.553 427.653 236.354C427.951 236.152 428.176 235.864 428.329 235.489C428.485 235.112 428.562 234.659 428.562 234.132C428.562 233.618 428.486 233.166 428.334 232.775C428.181 232.384 427.958 232.079 427.663 231.86C427.368 231.638 427.003 231.527 426.569 231.527C426.121 231.527 425.749 231.643 425.45 231.875C425.152 232.104 424.927 232.415 424.774 232.81C424.625 233.204 424.55 233.645 424.55 234.132C424.55 234.633 424.627 235.072 424.779 235.45C424.932 235.827 425.157 236.122 425.455 236.335C425.757 236.547 426.128 236.653 426.569 236.653ZM435.314 238.154C434.562 238.154 433.914 237.993 433.37 237.672C432.83 237.347 432.412 236.891 432.117 236.305C431.826 235.715 431.68 235.024 431.68 234.232C431.68 233.449 431.826 232.76 432.117 232.163C432.412 231.567 432.823 231.101 433.35 230.766C433.88 230.432 434.5 230.264 435.21 230.264C435.64 230.264 436.058 230.335 436.462 230.478C436.867 230.621 437.23 230.844 437.551 231.149C437.873 231.454 438.126 231.85 438.312 232.337C438.497 232.821 438.59 233.41 438.59 234.102V234.629H432.52V233.516H437.134C437.134 233.125 437.054 232.778 436.895 232.477C436.736 232.172 436.512 231.931 436.224 231.756C435.939 231.58 435.604 231.492 435.219 231.492C434.802 231.492 434.437 231.595 434.126 231.8C433.817 232.003 433.579 232.268 433.41 232.596C433.244 232.921 433.161 233.274 433.161 233.655V234.525C433.161 235.035 433.251 235.469 433.43 235.827C433.612 236.185 433.866 236.459 434.19 236.648C434.515 236.833 434.895 236.926 435.329 236.926C435.611 236.926 435.867 236.886 436.099 236.807C436.331 236.724 436.532 236.601 436.701 236.439C436.87 236.277 436.999 236.076 437.089 235.837L438.496 236.091C438.383 236.505 438.181 236.868 437.889 237.18C437.601 237.488 437.238 237.728 436.8 237.901C436.366 238.07 435.871 238.154 435.314 238.154Z"></path>
<path fill="#6C47FF" d="M358.571 248.273H359.892V254.013C359.892 254.624 359.749 255.165 359.462 255.636C359.175 256.105 358.771 256.474 358.251 256.744C357.732 257.011 357.122 257.145 356.423 257.145C355.727 257.145 355.119 257.011 354.599 256.744C354.08 256.474 353.676 256.105 353.389 255.636C353.102 255.165 352.959 254.624 352.959 254.013V248.273H354.276V253.906C354.276 254.301 354.362 254.652 354.536 254.959C354.712 255.266 354.96 255.507 355.281 255.683C355.602 255.857 355.983 255.943 356.423 255.943C356.866 255.943 357.249 255.857 357.57 255.683C357.893 255.507 358.141 255.266 358.311 254.959C358.484 254.652 358.571 254.301 358.571 253.906V248.273ZM361.704 259.455V250.455H362.949V251.516H363.055C363.129 251.379 363.235 251.222 363.375 251.043C363.514 250.864 363.707 250.707 363.954 250.574C364.201 250.438 364.528 250.369 364.934 250.369C365.463 250.369 365.934 250.503 366.349 250.77C366.764 251.037 367.089 251.422 367.325 251.925C367.564 252.428 367.683 253.033 367.683 253.74C367.683 254.447 367.565 255.054 367.329 255.56C367.093 256.062 366.77 256.45 366.358 256.723C365.946 256.993 365.475 257.128 364.947 257.128C364.549 257.128 364.224 257.061 363.971 256.928C363.721 256.794 363.525 256.638 363.383 256.459C363.241 256.28 363.132 256.121 363.055 255.982H362.978V259.455H361.704ZM362.953 253.727C362.953 254.187 363.02 254.591 363.153 254.938C363.287 255.284 363.48 255.555 363.733 255.751C363.985 255.945 364.295 256.041 364.662 256.041C365.042 256.041 365.36 255.94 365.616 255.739C365.872 255.534 366.065 255.257 366.196 254.908C366.329 254.558 366.396 254.165 366.396 253.727C366.396 253.295 366.331 252.908 366.2 252.564C366.072 252.22 365.879 251.949 365.62 251.75C365.365 251.551 365.045 251.452 364.662 251.452C364.292 251.452 363.98 251.547 363.724 251.737C363.471 251.928 363.279 252.193 363.149 252.534C363.018 252.875 362.953 253.273 362.953 253.727ZM370.385 248.273V257H369.11V248.273H370.385ZM374.856 257.132C374.242 257.132 373.707 256.991 373.249 256.71C372.792 256.429 372.437 256.036 372.184 255.53C371.931 255.024 371.805 254.433 371.805 253.757C371.805 253.078 371.931 252.484 372.184 251.976C372.437 251.467 372.792 251.072 373.249 250.791C373.707 250.51 374.242 250.369 374.856 250.369C375.469 250.369 376.005 250.51 376.462 250.791C376.92 251.072 377.275 251.467 377.528 251.976C377.781 252.484 377.907 253.078 377.907 253.757C377.907 254.433 377.781 255.024 377.528 255.53C377.275 256.036 376.92 256.429 376.462 256.71C376.005 256.991 375.469 257.132 374.856 257.132ZM374.86 256.062C375.258 256.062 375.587 255.957 375.849 255.747C376.11 255.537 376.303 255.257 376.428 254.908C376.556 254.558 376.62 254.173 376.62 253.753C376.62 253.335 376.556 252.952 376.428 252.602C376.303 252.25 376.11 251.967 375.849 251.754C375.587 251.541 375.258 251.435 374.86 251.435C374.46 251.435 374.127 251.541 373.863 251.754C373.602 251.967 373.407 252.25 373.279 252.602C373.154 252.952 373.092 253.335 373.092 253.753C373.092 254.173 373.154 254.558 373.279 254.908C373.407 255.257 373.602 255.537 373.863 255.747C374.127 255.957 374.46 256.062 374.86 256.062ZM381.234 257.145C380.819 257.145 380.444 257.068 380.109 256.915C379.774 256.759 379.508 256.533 379.312 256.237C379.119 255.942 379.022 255.58 379.022 255.151C379.022 254.781 379.093 254.477 379.235 254.239C379.377 254 379.569 253.811 379.811 253.672C380.052 253.533 380.322 253.428 380.62 253.357C380.919 253.286 381.223 253.232 381.532 253.195C381.924 253.149 382.243 253.112 382.487 253.084C382.731 253.053 382.909 253.003 383.02 252.935C383.13 252.866 383.186 252.756 383.186 252.602V252.572C383.186 252.2 383.081 251.912 382.87 251.707C382.663 251.503 382.353 251.401 381.941 251.401C381.512 251.401 381.174 251.496 380.927 251.686C380.683 251.874 380.514 252.082 380.42 252.312L379.223 252.04C379.365 251.642 379.572 251.321 379.845 251.077C380.12 250.83 380.437 250.651 380.795 250.54C381.153 250.426 381.529 250.369 381.924 250.369C382.186 250.369 382.463 250.401 382.755 250.463C383.051 250.523 383.326 250.634 383.582 250.795C383.841 250.957 384.052 251.189 384.217 251.49C384.382 251.788 384.464 252.176 384.464 252.653V257H383.22V256.105H383.169C383.086 256.27 382.963 256.432 382.798 256.591C382.633 256.75 382.422 256.882 382.163 256.987C381.904 257.092 381.595 257.145 381.234 257.145ZM381.511 256.122C381.863 256.122 382.164 256.053 382.414 255.913C382.667 255.774 382.859 255.592 382.99 255.368C383.123 255.141 383.19 254.898 383.19 254.639V253.795C383.145 253.841 383.056 253.884 382.926 253.923C382.798 253.96 382.652 253.993 382.487 254.021C382.322 254.047 382.162 254.071 382.005 254.094C381.849 254.114 381.718 254.131 381.613 254.145C381.366 254.176 381.14 254.229 380.936 254.303C380.734 254.376 380.572 254.483 380.45 254.622C380.331 254.759 380.271 254.94 380.271 255.168C380.271 255.483 380.387 255.722 380.62 255.884C380.853 256.043 381.15 256.122 381.511 256.122ZM388.612 257.128C388.083 257.128 387.612 256.993 387.197 256.723C386.785 256.45 386.461 256.062 386.225 255.56C385.992 255.054 385.876 254.447 385.876 253.74C385.876 253.033 385.994 252.428 386.229 251.925C386.468 251.422 386.795 251.037 387.21 250.77C387.624 250.503 388.094 250.369 388.62 250.369C389.026 250.369 389.353 250.438 389.6 250.574C389.85 250.707 390.043 250.864 390.18 251.043C390.319 251.222 390.427 251.379 390.504 251.516H390.58V248.273H391.854V257H390.61V255.982H390.504C390.427 256.121 390.316 256.28 390.171 256.459C390.029 256.638 389.833 256.794 389.583 256.928C389.333 257.061 389.009 257.128 388.612 257.128ZM388.893 256.041C389.259 256.041 389.569 255.945 389.822 255.751C390.077 255.555 390.271 255.284 390.401 254.938C390.535 254.591 390.602 254.187 390.602 253.727C390.602 253.273 390.536 252.875 390.406 252.534C390.275 252.193 390.083 251.928 389.83 251.737C389.577 251.547 389.265 251.452 388.893 251.452C388.509 251.452 388.19 251.551 387.934 251.75C387.678 251.949 387.485 252.22 387.354 252.564C387.227 252.908 387.163 253.295 387.163 253.727C387.163 254.165 387.228 254.558 387.359 254.908C387.489 255.257 387.683 255.534 387.938 255.739C388.197 255.94 388.515 256.041 388.893 256.041ZM396.849 257V250.455H398.123V257H396.849ZM397.492 249.445C397.271 249.445 397.08 249.371 396.921 249.223C396.765 249.072 396.687 248.893 396.687 248.686C396.687 248.476 396.765 248.297 396.921 248.149C397.08 247.999 397.271 247.923 397.492 247.923C397.714 247.923 397.903 247.999 398.059 248.149C398.218 248.297 398.298 248.476 398.298 248.686C398.298 248.893 398.218 249.072 398.059 249.223C397.903 249.371 397.714 249.445 397.492 249.445ZM399.837 257V250.455H401.06V251.52H401.141C401.277 251.159 401.5 250.878 401.81 250.676C402.12 250.472 402.49 250.369 402.922 250.369C403.36 250.369 403.726 250.472 404.022 250.676C404.32 250.881 404.54 251.162 404.682 251.52H404.75C404.907 251.17 405.155 250.892 405.496 250.685C405.837 250.474 406.243 250.369 406.715 250.369C407.309 250.369 407.793 250.555 408.168 250.928C408.546 251.3 408.735 251.861 408.735 252.611V257H407.461V252.73C407.461 252.287 407.34 251.966 407.098 251.767C406.857 251.568 406.569 251.469 406.233 251.469C405.819 251.469 405.496 251.597 405.266 251.852C405.036 252.105 404.921 252.43 404.921 252.828V257H403.651V252.649C403.651 252.294 403.54 252.009 403.319 251.793C403.097 251.577 402.809 251.469 402.453 251.469C402.212 251.469 401.989 251.533 401.784 251.661C401.583 251.786 401.419 251.96 401.294 252.185C401.172 252.409 401.111 252.669 401.111 252.964V257H399.837ZM412.347 257.145C411.933 257.145 411.558 257.068 411.222 256.915C410.887 256.759 410.621 256.533 410.425 256.237C410.232 255.942 410.136 255.58 410.136 255.151C410.136 254.781 410.207 254.477 410.349 254.239C410.491 254 410.683 253.811 410.924 253.672C411.165 253.533 411.435 253.428 411.734 253.357C412.032 253.286 412.336 253.232 412.646 253.195C413.038 253.149 413.356 253.112 413.6 253.084C413.844 253.053 414.022 253.003 414.133 252.935C414.244 252.866 414.299 252.756 414.299 252.602V252.572C414.299 252.2 414.194 251.912 413.984 251.707C413.776 251.503 413.467 251.401 413.055 251.401C412.626 251.401 412.288 251.496 412.04 251.686C411.796 251.874 411.627 252.082 411.533 252.312L410.336 252.04C410.478 251.642 410.685 251.321 410.958 251.077C411.234 250.83 411.55 250.651 411.908 250.54C412.266 250.426 412.643 250.369 413.038 250.369C413.299 250.369 413.576 250.401 413.869 250.463C414.164 250.523 414.44 250.634 414.695 250.795C414.954 250.957 415.165 251.189 415.33 251.49C415.495 251.788 415.577 252.176 415.577 252.653V257H414.333V256.105H414.282C414.2 256.27 414.076 256.432 413.911 256.591C413.746 256.75 413.535 256.882 413.276 256.987C413.018 257.092 412.708 257.145 412.347 257.145ZM412.624 256.122C412.977 256.122 413.278 256.053 413.528 255.913C413.781 255.774 413.972 255.592 414.103 255.368C414.237 255.141 414.303 254.898 414.303 254.639V253.795C414.258 253.841 414.17 253.884 414.039 253.923C413.911 253.96 413.765 253.993 413.6 254.021C413.435 254.047 413.275 254.071 413.119 254.094C412.962 254.114 412.832 254.131 412.727 254.145C412.479 254.176 412.254 254.229 412.049 254.303C411.847 254.376 411.685 254.483 411.563 254.622C411.444 254.759 411.384 254.94 411.384 255.168C411.384 255.483 411.501 255.722 411.734 255.884C411.967 256.043 412.263 256.122 412.624 256.122ZM420.019 259.591C419.499 259.591 419.051 259.523 418.676 259.386C418.304 259.25 418 259.07 417.765 258.845C417.529 258.621 417.353 258.375 417.236 258.108L418.331 257.656C418.408 257.781 418.51 257.913 418.638 258.053C418.769 258.195 418.945 258.315 419.167 258.415C419.391 258.514 419.679 258.564 420.032 258.564C420.515 258.564 420.914 258.446 421.229 258.21C421.544 257.977 421.702 257.605 421.702 257.094V255.807H421.621C421.544 255.946 421.434 256.101 421.289 256.271C421.147 256.442 420.951 256.589 420.701 256.714C420.451 256.839 420.125 256.902 419.725 256.902C419.208 256.902 418.742 256.781 418.327 256.54C417.915 256.295 417.588 255.936 417.347 255.462C417.108 254.984 416.989 254.398 416.989 253.702C416.989 253.006 417.107 252.409 417.343 251.912C417.581 251.415 417.908 251.034 418.323 250.77C418.738 250.503 419.208 250.369 419.733 250.369C420.14 250.369 420.468 250.438 420.718 250.574C420.968 250.707 421.162 250.864 421.301 251.043C421.444 251.222 421.553 251.379 421.63 251.516H421.723V250.455H422.972V257.145C422.972 257.707 422.841 258.169 422.58 258.53C422.319 258.891 421.965 259.158 421.519 259.331C421.076 259.504 420.576 259.591 420.019 259.591ZM420.006 255.845C420.373 255.845 420.682 255.76 420.935 255.589C421.191 255.416 421.384 255.169 421.515 254.848C421.648 254.524 421.715 254.136 421.715 253.685C421.715 253.244 421.65 252.857 421.519 252.521C421.388 252.186 421.196 251.925 420.944 251.737C420.691 251.547 420.378 251.452 420.006 251.452C419.623 251.452 419.303 251.551 419.047 251.75C418.792 251.946 418.598 252.213 418.468 252.551C418.34 252.889 418.276 253.267 418.276 253.685C418.276 254.114 418.341 254.49 418.472 254.814C418.603 255.138 418.796 255.391 419.051 255.572C419.31 255.754 419.628 255.845 420.006 255.845ZM427.502 257.132C426.857 257.132 426.301 256.994 425.836 256.719C425.373 256.44 425.015 256.05 424.762 255.547C424.512 255.041 424.387 254.449 424.387 253.77C424.387 253.099 424.512 252.509 424.762 251.997C425.015 251.486 425.367 251.087 425.819 250.8C426.273 250.513 426.804 250.369 427.412 250.369C427.782 250.369 428.14 250.43 428.486 250.553C428.833 250.675 429.144 250.866 429.419 251.128C429.695 251.389 429.912 251.729 430.071 252.146C430.23 252.561 430.31 253.065 430.31 253.659V254.111H425.107V253.156H429.061C429.061 252.821 428.993 252.524 428.857 252.266C428.721 252.004 428.529 251.798 428.282 251.648C428.037 251.497 427.75 251.422 427.421 251.422C427.063 251.422 426.75 251.51 426.483 251.686C426.219 251.859 426.015 252.087 425.87 252.368C425.728 252.646 425.657 252.949 425.657 253.276V254.021C425.657 254.459 425.733 254.831 425.887 255.138C426.043 255.445 426.26 255.679 426.539 255.841C426.817 256 427.142 256.08 427.515 256.08C427.756 256.08 427.976 256.045 428.175 255.977C428.374 255.906 428.546 255.801 428.691 255.662C428.836 255.523 428.946 255.351 429.023 255.146L430.229 255.364C430.132 255.719 429.959 256.03 429.709 256.297C429.462 256.561 429.151 256.767 428.776 256.915C428.404 257.06 427.979 257.132 427.502 257.132Z"></path>
<path fill="black" d="M297.963 299.909C297.963 300.996 297.764 301.931 297.366 302.713C296.969 303.492 296.423 304.092 295.731 304.513C295.041 304.93 294.258 305.139 293.379 305.139C292.498 305.139 291.71 304.93 291.018 304.513C290.328 304.092 289.785 303.49 289.387 302.708C288.989 301.926 288.79 300.993 288.79 299.909C288.79 298.822 288.989 297.889 289.387 297.11C289.785 296.328 290.328 295.728 291.018 295.31C291.71 294.889 292.498 294.679 293.379 294.679C294.258 294.679 295.041 294.889 295.731 295.31C296.423 295.728 296.969 296.328 297.366 297.11C297.764 297.889 297.963 298.822 297.963 299.909ZM296.442 299.909C296.442 299.08 296.307 298.383 296.039 297.816C295.774 297.246 295.409 296.815 294.945 296.523C294.485 296.228 293.963 296.081 293.379 296.081C292.793 296.081 292.269 296.228 291.808 296.523C291.347 296.815 290.983 297.246 290.714 297.816C290.449 298.383 290.317 299.08 290.317 299.909C290.317 300.738 290.449 301.437 290.714 302.007C290.983 302.574 291.347 303.005 291.808 303.3C292.269 303.591 292.793 303.737 293.379 303.737C293.963 303.737 294.485 303.591 294.945 303.3C295.409 303.005 295.774 302.574 296.039 302.007C296.307 301.437 296.442 300.738 296.442 299.909ZM299.759 305V297.364H301.196V298.577H301.275C301.415 298.166 301.66 297.843 302.011 297.607C302.366 297.369 302.767 297.249 303.214 297.249C303.307 297.249 303.416 297.253 303.542 297.259C303.672 297.266 303.773 297.274 303.846 297.284V298.706C303.786 298.689 303.68 298.671 303.527 298.651C303.375 298.628 303.223 298.616 303.07 298.616C302.719 298.616 302.406 298.691 302.13 298.84C301.859 298.986 301.643 299.19 301.484 299.452C301.325 299.71 301.246 300.005 301.246 300.337V305H299.759ZM308.06 308.023C307.454 308.023 306.932 307.943 306.494 307.784C306.06 307.625 305.705 307.415 305.43 307.153C305.155 306.891 304.95 306.604 304.814 306.293L306.092 305.766C306.181 305.911 306.3 306.066 306.45 306.228C306.602 306.394 306.807 306.535 307.066 306.651C307.328 306.767 307.664 306.825 308.075 306.825C308.639 306.825 309.104 306.687 309.472 306.412C309.84 306.14 310.024 305.706 310.024 305.109V303.608H309.93C309.84 303.77 309.711 303.951 309.542 304.15C309.376 304.349 309.147 304.521 308.856 304.667C308.564 304.813 308.185 304.886 307.717 304.886C307.114 304.886 306.57 304.745 306.087 304.463C305.606 304.178 305.225 303.759 304.943 303.205C304.665 302.648 304.526 301.964 304.526 301.152C304.526 300.34 304.663 299.644 304.938 299.064C305.217 298.484 305.598 298.04 306.082 297.732C306.566 297.42 307.114 297.264 307.727 297.264C308.201 297.264 308.584 297.344 308.876 297.503C309.167 297.659 309.394 297.841 309.557 298.05C309.722 298.259 309.85 298.442 309.94 298.602H310.049V297.364H311.506V305.169C311.506 305.825 311.353 306.364 311.048 306.785C310.743 307.206 310.331 307.517 309.81 307.719C309.293 307.922 308.71 308.023 308.06 308.023ZM308.045 303.653C308.473 303.653 308.834 303.553 309.129 303.354C309.428 303.152 309.653 302.864 309.805 302.489C309.961 302.112 310.039 301.659 310.039 301.132C310.039 300.618 309.963 300.166 309.81 299.775C309.658 299.384 309.434 299.079 309.139 298.86C308.844 298.638 308.48 298.527 308.045 298.527C307.598 298.527 307.225 298.643 306.927 298.875C306.629 299.104 306.403 299.415 306.251 299.81C306.102 300.204 306.027 300.645 306.027 301.132C306.027 301.633 306.103 302.072 306.256 302.45C306.408 302.827 306.633 303.122 306.932 303.335C307.233 303.547 307.605 303.653 308.045 303.653ZM315.722 305.169C315.238 305.169 314.8 305.08 314.409 304.901C314.018 304.718 313.708 304.455 313.479 304.11C313.254 303.765 313.141 303.343 313.141 302.842C313.141 302.411 313.224 302.057 313.39 301.778C313.556 301.5 313.779 301.28 314.061 301.117C314.343 300.955 314.658 300.832 315.006 300.749C315.354 300.666 315.708 300.603 316.07 300.56C316.527 300.507 316.898 300.464 317.183 300.431C317.468 300.395 317.675 300.337 317.805 300.257C317.934 300.178 317.999 300.048 317.999 299.869V299.835C317.999 299.4 317.876 299.064 317.631 298.825C317.389 298.587 317.027 298.467 316.547 298.467C316.046 298.467 315.652 298.578 315.364 298.8C315.079 299.019 314.881 299.263 314.772 299.531L313.375 299.213C313.541 298.749 313.783 298.375 314.101 298.089C314.422 297.801 314.792 297.592 315.209 297.463C315.627 297.33 316.066 297.264 316.527 297.264C316.832 297.264 317.155 297.301 317.496 297.374C317.841 297.443 318.163 297.572 318.461 297.761C318.762 297.95 319.009 298.22 319.202 298.572C319.394 298.92 319.49 299.372 319.49 299.929V305H318.038V303.956H317.979C317.883 304.148 317.738 304.337 317.546 304.523C317.354 304.708 317.107 304.862 316.805 304.985C316.504 305.108 316.142 305.169 315.722 305.169ZM316.045 303.976C316.456 303.976 316.807 303.895 317.099 303.732C317.394 303.57 317.617 303.358 317.77 303.096C317.926 302.831 318.004 302.547 318.004 302.246V301.261C317.95 301.314 317.848 301.364 317.695 301.411C317.546 301.454 317.375 301.492 317.183 301.525C316.991 301.555 316.804 301.583 316.621 301.609C316.439 301.633 316.287 301.652 316.164 301.669C315.876 301.705 315.612 301.767 315.374 301.853C315.138 301.939 314.949 302.063 314.807 302.226C314.668 302.385 314.598 302.597 314.598 302.862C314.598 303.23 314.734 303.509 315.006 303.697C315.277 303.883 315.624 303.976 316.045 303.976ZM322.956 300.466V305H321.47V297.364H322.897V298.607H322.991C323.167 298.202 323.442 297.877 323.817 297.632C324.194 297.387 324.67 297.264 325.243 297.264C325.764 297.264 326.22 297.374 326.611 297.592C327.002 297.808 327.305 298.129 327.52 298.557C327.736 298.984 327.844 299.513 327.844 300.143V305H326.357V300.322C326.357 299.768 326.213 299.336 325.924 299.024C325.636 298.709 325.24 298.552 324.736 298.552C324.392 298.552 324.085 298.626 323.817 298.776C323.551 298.925 323.341 299.143 323.185 299.432C323.033 299.717 322.956 300.062 322.956 300.466ZM329.837 305V297.364H331.324V305H329.837ZM330.588 296.185C330.329 296.185 330.107 296.099 329.922 295.927C329.739 295.751 329.648 295.542 329.648 295.3C329.648 295.055 329.739 294.846 329.922 294.674C330.107 294.498 330.329 294.411 330.588 294.411C330.846 294.411 331.067 294.498 331.249 294.674C331.435 294.846 331.528 295.055 331.528 295.3C331.528 295.542 331.435 295.751 331.249 295.927C331.067 296.099 330.846 296.185 330.588 296.185ZM333.164 305V303.981L337.301 298.726V298.656H333.299V297.364H339.155V298.447L335.178 303.638V303.707H339.294V305H333.164ZM343.27 305.169C342.787 305.169 342.349 305.08 341.958 304.901C341.567 304.718 341.257 304.455 341.028 304.11C340.803 303.765 340.69 303.343 340.69 302.842C340.69 302.411 340.773 302.057 340.939 301.778C341.104 301.5 341.328 301.28 341.61 301.117C341.892 300.955 342.206 300.832 342.555 300.749C342.903 300.666 343.257 300.603 343.618 300.56C344.076 300.507 344.447 300.464 344.732 300.431C345.017 300.395 345.224 300.337 345.354 300.257C345.483 300.178 345.547 300.048 345.547 299.869V299.835C345.547 299.4 345.425 299.064 345.18 298.825C344.938 298.587 344.576 298.467 344.096 298.467C343.595 298.467 343.201 298.578 342.912 298.8C342.627 299.019 342.43 299.263 342.321 299.531L340.924 299.213C341.09 298.749 341.331 298.375 341.65 298.089C341.971 297.801 342.341 297.592 342.758 297.463C343.176 297.33 343.615 297.264 344.076 297.264C344.381 297.264 344.704 297.301 345.045 297.374C345.39 297.443 345.711 297.572 346.01 297.761C346.311 297.95 346.558 298.22 346.751 298.572C346.943 298.92 347.039 299.372 347.039 299.929V305H345.587V303.956H345.528C345.431 304.148 345.287 304.337 345.095 304.523C344.903 304.708 344.656 304.862 344.354 304.985C344.053 305.108 343.691 305.169 343.27 305.169ZM343.594 303.976C344.005 303.976 344.356 303.895 344.648 303.732C344.943 303.57 345.166 303.358 345.319 303.096C345.474 302.831 345.552 302.547 345.552 302.246V301.261C345.499 301.314 345.397 301.364 345.244 301.411C345.095 301.454 344.924 301.492 344.732 301.525C344.54 301.555 344.353 301.583 344.17 301.609C343.988 301.633 343.836 301.652 343.713 301.669C343.425 301.705 343.161 301.767 342.922 301.853C342.687 301.939 342.498 302.063 342.356 302.226C342.216 302.385 342.147 302.597 342.147 302.862C342.147 303.23 342.283 303.509 342.555 303.697C342.826 303.883 343.173 303.976 343.594 303.976ZM352.583 297.364V298.557H348.412V297.364H352.583ZM349.531 295.534H351.017V302.758C351.017 303.046 351.06 303.263 351.147 303.409C351.233 303.552 351.344 303.649 351.48 303.702C351.619 303.752 351.77 303.777 351.932 303.777C352.051 303.777 352.156 303.769 352.245 303.752C352.335 303.736 352.404 303.722 352.454 303.712L352.723 304.94C352.636 304.973 352.514 305.007 352.355 305.04C352.196 305.076 351.997 305.096 351.758 305.099C351.367 305.106 351.002 305.036 350.664 304.891C350.326 304.745 350.053 304.519 349.844 304.214C349.635 303.91 349.531 303.527 349.531 303.066V295.534ZM354.228 305V297.364H355.714V305H354.228ZM354.979 296.185C354.72 296.185 354.498 296.099 354.312 295.927C354.13 295.751 354.039 295.542 354.039 295.3C354.039 295.055 354.13 294.846 354.312 294.674C354.498 294.498 354.72 294.411 354.979 294.411C355.237 294.411 355.457 294.498 355.64 294.674C355.825 294.846 355.918 295.055 355.918 295.3C355.918 295.542 355.825 295.751 355.64 295.927C355.457 296.099 355.237 296.185 354.979 296.185ZM360.931 305.154C360.215 305.154 359.59 304.99 359.056 304.662C358.523 304.334 358.109 303.875 357.814 303.285C357.519 302.695 357.371 302.005 357.371 301.217C357.371 300.424 357.519 299.732 357.814 299.138C358.109 298.545 358.523 298.085 359.056 297.756C359.59 297.428 360.215 297.264 360.931 297.264C361.647 297.264 362.271 297.428 362.805 297.756C363.339 298.085 363.753 298.545 364.048 299.138C364.343 299.732 364.49 300.424 364.49 301.217C364.49 302.005 364.343 302.695 364.048 303.285C363.753 303.875 363.339 304.334 362.805 304.662C362.271 304.99 361.647 305.154 360.931 305.154ZM360.936 303.906C361.4 303.906 361.784 303.784 362.089 303.538C362.394 303.293 362.619 302.967 362.765 302.559C362.914 302.151 362.989 301.702 362.989 301.212C362.989 300.724 362.914 300.277 362.765 299.869C362.619 299.458 362.394 299.129 362.089 298.88C361.784 298.631 361.4 298.507 360.936 298.507C360.468 298.507 360.081 298.631 359.772 298.88C359.467 299.129 359.24 299.458 359.091 299.869C358.945 300.277 358.873 300.724 358.873 301.212C358.873 301.702 358.945 302.151 359.091 302.559C359.24 302.967 359.467 303.293 359.772 303.538C360.081 303.784 360.468 303.906 360.936 303.906ZM367.636 300.466V305H366.15V297.364H367.577V298.607H367.671C367.847 298.202 368.122 297.877 368.496 297.632C368.874 297.387 369.35 297.264 369.923 297.264C370.443 297.264 370.899 297.374 371.29 297.592C371.681 297.808 371.985 298.129 372.2 298.557C372.416 298.984 372.523 299.513 372.523 300.143V305H371.037V300.322C371.037 299.768 370.893 299.336 370.604 299.024C370.316 298.709 369.92 298.552 369.416 298.552C369.071 298.552 368.765 298.626 368.496 298.776C368.231 298.925 368.021 299.143 367.865 299.432C367.712 299.717 367.636 300.062 367.636 300.466ZM379.708 300.466V305H378.222V297.364H379.649V298.607H379.743C379.919 298.202 380.194 297.877 380.569 297.632C380.946 297.387 381.422 297.264 381.995 297.264C382.516 297.264 382.971 297.374 383.363 297.592C383.754 297.808 384.057 298.129 384.272 298.557C384.488 298.984 384.596 299.513 384.596 300.143V305H383.109V300.322C383.109 299.768 382.965 299.336 382.676 299.024C382.388 298.709 381.992 298.552 381.488 298.552C381.144 298.552 380.837 298.626 380.569 298.776C380.303 298.925 380.093 299.143 379.937 299.432C379.785 299.717 379.708 300.062 379.708 300.466ZM388.811 305.169C388.328 305.169 387.89 305.08 387.499 304.901C387.108 304.718 386.798 304.455 386.569 304.11C386.344 303.765 386.231 303.343 386.231 302.842C386.231 302.411 386.314 302.057 386.48 301.778C386.645 301.5 386.869 301.28 387.151 301.117C387.433 300.955 387.748 300.832 388.096 300.749C388.444 300.666 388.798 300.603 389.159 300.56C389.617 300.507 389.988 300.464 390.273 300.431C390.558 300.395 390.765 300.337 390.895 300.257C391.024 300.178 391.088 300.048 391.088 299.869V299.835C391.088 299.4 390.966 299.064 390.721 298.825C390.479 298.587 390.117 298.467 389.637 298.467C389.136 298.467 388.742 298.578 388.453 298.8C388.168 299.019 387.971 299.263 387.862 299.531L386.465 299.213C386.631 298.749 386.873 298.375 387.191 298.089C387.512 297.801 387.882 297.592 388.299 297.463C388.717 297.33 389.156 297.264 389.617 297.264C389.922 297.264 390.245 297.301 390.586 297.374C390.931 297.443 391.252 297.572 391.551 297.761C391.852 297.95 392.099 298.22 392.292 298.572C392.484 298.92 392.58 299.372 392.58 299.929V305H391.128V303.956H391.069C390.972 304.148 390.828 304.337 390.636 304.523C390.444 304.708 390.197 304.862 389.895 304.985C389.594 305.108 389.232 305.169 388.811 305.169ZM389.135 303.976C389.546 303.976 389.897 303.895 390.189 303.732C390.484 303.57 390.707 303.358 390.86 303.096C391.016 302.831 391.093 302.547 391.093 302.246V301.261C391.04 301.314 390.938 301.364 390.785 301.411C390.636 301.454 390.465 301.492 390.273 301.525C390.081 301.555 389.894 301.583 389.711 301.609C389.529 301.633 389.377 301.652 389.254 301.669C388.966 301.705 388.702 301.767 388.463 301.853C388.228 301.939 388.039 302.063 387.897 302.226C387.757 302.385 387.688 302.597 387.688 302.862C387.688 303.23 387.824 303.509 388.096 303.697C388.367 303.883 388.714 303.976 389.135 303.976ZM394.56 305V297.364H395.987V298.607H396.081C396.24 298.186 396.5 297.857 396.862 297.622C397.223 297.384 397.655 297.264 398.159 297.264C398.67 297.264 399.097 297.384 399.442 297.622C399.79 297.861 400.047 298.189 400.213 298.607H400.292C400.474 298.199 400.764 297.874 401.162 297.632C401.56 297.387 402.034 297.264 402.584 297.264C403.277 297.264 403.842 297.481 404.279 297.915C404.72 298.35 404.941 299.004 404.941 299.879V305H403.454V300.018C403.454 299.501 403.313 299.127 403.031 298.895C402.75 298.663 402.413 298.547 402.022 298.547C401.538 298.547 401.162 298.696 400.894 298.994C400.625 299.289 400.491 299.669 400.491 300.133V305H399.009V299.924C399.009 299.51 398.88 299.177 398.622 298.925C398.363 298.673 398.027 298.547 397.612 298.547C397.331 298.547 397.07 298.621 396.832 298.771C396.597 298.916 396.406 299.12 396.26 299.382C396.118 299.644 396.046 299.947 396.046 300.292V305H394.56ZM410.224 305.154C409.472 305.154 408.824 304.993 408.28 304.672C407.74 304.347 407.322 303.891 407.027 303.305C406.736 302.715 406.59 302.024 406.59 301.232C406.59 300.449 406.736 299.76 407.027 299.163C407.322 298.567 407.733 298.101 408.26 297.766C408.791 297.432 409.41 297.264 410.12 297.264C410.551 297.264 410.968 297.335 411.373 297.478C411.777 297.621 412.14 297.844 412.461 298.149C412.783 298.454 413.036 298.85 413.222 299.337C413.408 299.821 413.5 300.41 413.5 301.102V301.629H407.43V300.516H412.044C412.044 300.125 411.964 299.778 411.805 299.477C411.646 299.172 411.422 298.931 411.134 298.756C410.849 298.58 410.514 298.492 410.13 298.492C409.712 298.492 409.347 298.595 409.036 298.8C408.728 299.003 408.489 299.268 408.32 299.596C408.154 299.921 408.071 300.274 408.071 300.655V301.525C408.071 302.035 408.161 302.469 408.34 302.827C408.522 303.185 408.776 303.459 409.1 303.648C409.425 303.833 409.805 303.926 410.239 303.926C410.521 303.926 410.778 303.886 411.01 303.807C411.242 303.724 411.442 303.601 411.611 303.439C411.78 303.277 411.909 303.076 411.999 302.837L413.406 303.091C413.293 303.505 413.091 303.868 412.799 304.18C412.511 304.488 412.148 304.728 411.711 304.901C411.276 305.07 410.781 305.154 410.224 305.154Z"></path>
<path fill="#6C47FF" d="M305 324.5C305 324.224 304.776 324 304.5 324C304.224 324 304 324.224 304 324.5V339.5C304 339.776 304.224 340 304.5 340C304.776 340 305 339.776 305 339.5V324.5Z"></path>
<path stroke="#99ADF8" d="M698 314H294C290.686 314 288 316.686 288 320V344C288 347.314 290.686 350 294 350H698C701.314 350 704 347.314 704 344V320C704 316.686 701.314 314 698 314Z"></path>
<path fill="white" d="M515 374H443C439.686 374 437 376.686 437 380V404C437 407.314 439.686 410 443 410H515C518.314 410 521 407.314 521 404V380C521 376.686 518.314 374 515 374Z"></path>
<path fill="#6C47FF" d="M463.942 391.181H462.614C462.576 390.963 462.507 390.77 462.405 390.602C462.303 390.432 462.176 390.287 462.025 390.169C461.873 390.051 461.701 389.962 461.506 389.903C461.315 389.841 461.107 389.81 460.885 389.81C460.49 389.81 460.139 389.91 459.834 390.109C459.528 390.305 459.289 390.594 459.116 390.975C458.944 391.354 458.857 391.817 458.857 392.364C458.857 392.92 458.944 393.389 459.116 393.77C459.292 394.149 459.531 394.435 459.834 394.629C460.139 394.821 460.488 394.917 460.881 394.917C461.099 394.917 461.303 394.888 461.492 394.832C461.684 394.772 461.856 394.686 462.007 394.572C462.161 394.459 462.29 394.319 462.394 394.153C462.501 393.988 462.574 393.798 462.614 393.585L463.942 393.592C463.893 393.938 463.785 394.262 463.619 394.565C463.456 394.868 463.242 395.136 462.977 395.368C462.711 395.598 462.401 395.777 462.046 395.908C461.691 396.036 461.297 396.099 460.864 396.099C460.224 396.099 459.654 395.951 459.152 395.656C458.65 395.36 458.255 394.932 457.966 394.374C457.677 393.815 457.533 393.145 457.533 392.364C457.533 391.58 457.678 390.91 457.969 390.354C458.261 389.795 458.657 389.368 459.159 389.072C459.661 388.776 460.229 388.628 460.864 388.628C461.268 388.628 461.645 388.685 461.993 388.798C462.341 388.912 462.651 389.079 462.923 389.299C463.196 389.517 463.419 389.784 463.594 390.102C463.772 390.416 463.888 390.776 463.942 391.181ZM466.495 396H465.089L467.649 388.727H469.276L471.839 396H470.433L468.491 390.219H468.434L466.495 396ZM466.541 393.148H470.376V394.207H466.541V393.148ZM479.274 388.727V396H478.102L474.675 391.046H474.615V396H473.297V388.727H474.476L477.9 393.685H477.964V388.727H479.274ZM487.435 391.181H486.107C486.069 390.963 485.999 390.77 485.897 390.602C485.795 390.432 485.669 390.287 485.517 390.169C485.366 390.051 485.193 389.962 484.999 389.903C484.807 389.841 484.6 389.81 484.377 389.81C483.982 389.81 483.631 389.91 483.326 390.109C483.021 390.305 482.781 390.594 482.609 390.975C482.436 391.354 482.349 391.817 482.349 392.364C482.349 392.92 482.436 393.389 482.609 393.77C482.784 394.149 483.023 394.435 483.326 394.629C483.631 394.821 483.981 394.917 484.374 394.917C484.591 394.917 484.795 394.888 484.984 394.832C485.176 394.772 485.348 394.686 485.499 394.572C485.653 394.459 485.782 394.319 485.886 394.153C485.993 393.988 486.066 393.798 486.107 393.585L487.435 393.592C487.385 393.938 487.277 394.262 487.112 394.565C486.948 394.868 486.734 395.136 486.469 395.368C486.204 395.598 485.893 395.777 485.538 395.908C485.183 396.036 484.789 396.099 484.356 396.099C483.717 396.099 483.146 395.951 482.644 395.656C482.142 395.36 481.747 394.932 481.458 394.374C481.169 393.815 481.025 393.145 481.025 392.364C481.025 391.58 481.17 390.91 481.462 390.354C481.753 389.795 482.149 389.368 482.651 389.072C483.153 388.776 483.721 388.628 484.356 388.628C484.761 388.628 485.137 388.685 485.485 388.798C485.833 388.912 486.143 389.079 486.415 389.299C486.688 389.517 486.911 389.784 487.087 390.102C487.264 390.416 487.38 390.776 487.435 391.181ZM489.141 396V388.727H493.871V389.832H490.459V391.806H493.626V392.911H490.459V394.896H493.9V396H489.141ZM495.715 396V388.727H497.033V394.896H500.236V396H495.715Z"></path>
<path fill="#6C47FF" d="M698 374H543C539.686 374 537 376.686 537 380V404C537 407.314 539.686 410 543 410H698C701.314 410 704 407.314 704 404V380C704 376.686 701.314 374 698 374Z"></path>
<path fill="white" d="M563.942 391.181H562.614C562.576 390.963 562.507 390.77 562.405 390.602C562.303 390.432 562.176 390.287 562.025 390.169C561.873 390.051 561.701 389.962 561.506 389.903C561.315 389.841 561.107 389.81 560.885 389.81C560.49 389.81 560.139 389.91 559.834 390.109C559.528 390.305 559.289 390.594 559.116 390.975C558.944 391.354 558.857 391.817 558.857 392.364C558.857 392.92 558.944 393.389 559.116 393.77C559.292 394.149 559.531 394.435 559.834 394.629C560.139 394.821 560.488 394.917 560.881 394.917C561.099 394.917 561.303 394.888 561.492 394.832C561.684 394.772 561.856 394.686 562.007 394.572C562.161 394.459 562.29 394.319 562.394 394.153C562.501 393.988 562.574 393.798 562.614 393.585L563.942 393.592C563.893 393.938 563.785 394.262 563.619 394.565C563.456 394.868 563.242 395.136 562.977 395.368C562.711 395.598 562.401 395.777 562.046 395.908C561.691 396.036 561.297 396.099 560.864 396.099C560.224 396.099 559.654 395.951 559.152 395.656C558.65 395.36 558.255 394.932 557.966 394.374C557.677 393.815 557.533 393.145 557.533 392.364C557.533 391.58 557.678 390.91 557.969 390.354C558.261 389.795 558.657 389.368 559.159 389.072C559.661 388.776 560.229 388.628 560.864 388.628C561.268 388.628 561.645 388.685 561.993 388.798C562.341 388.912 562.651 389.079 562.923 389.299C563.196 389.517 563.419 389.784 563.594 390.102C563.772 390.416 563.888 390.776 563.942 391.181ZM565.649 396V388.727H568.376C568.935 388.727 569.404 388.824 569.782 389.018C570.164 389.213 570.451 389.485 570.645 389.835C570.842 390.183 570.94 390.589 570.94 391.053C570.94 391.52 570.841 391.924 570.642 392.268C570.445 392.609 570.155 392.873 569.772 393.06C569.388 393.244 568.917 393.337 568.358 393.337H566.416V392.243H568.181C568.508 392.243 568.775 392.198 568.983 392.108C569.192 392.016 569.346 391.882 569.445 391.707C569.547 391.529 569.598 391.311 569.598 391.053C569.598 390.795 569.547 390.575 569.445 390.393C569.343 390.208 569.188 390.068 568.98 389.974C568.772 389.877 568.503 389.828 568.174 389.828H566.966V396H565.649ZM569.406 392.705L571.206 396H569.736L567.968 392.705H569.406ZM572.653 396V388.727H577.383V389.832H573.97V391.806H577.138V392.911H573.97V394.896H577.411V396H572.653ZM580.161 396H578.755L581.315 388.727H582.942L585.506 396H584.099L582.157 390.219H582.1L580.161 396ZM580.207 393.148H584.042V394.207H580.207V393.148ZM585.765 389.832V388.727H591.567V389.832H589.32V396H588.013V389.832H585.765ZM593.186 396V388.727H597.916V389.832H594.504V391.806H597.671V392.911H594.504V394.896H597.945V396H593.186ZM609.239 392.364C609.239 393.147 609.093 393.818 608.799 394.377C608.508 394.933 608.11 395.36 607.606 395.656C607.104 395.951 606.535 396.099 605.898 396.099C605.261 396.099 604.69 395.951 604.186 395.656C603.684 395.357 603.286 394.93 602.993 394.374C602.702 393.815 602.556 393.145 602.556 392.364C602.556 391.58 602.702 390.91 602.993 390.354C603.286 389.795 603.684 389.368 604.186 389.072C604.69 388.776 605.261 388.628 605.898 388.628C606.535 388.628 607.104 388.776 607.606 389.072C608.11 389.368 608.508 389.795 608.799 390.354C609.093 390.91 609.239 391.58 609.239 392.364ZM607.915 392.364C607.915 391.812 607.828 391.347 607.656 390.968C607.485 390.587 607.248 390.299 606.945 390.105C606.642 389.909 606.293 389.81 605.898 389.81C605.502 389.81 605.153 389.909 604.85 390.105C604.547 390.299 604.309 390.587 604.136 390.968C603.966 391.347 603.881 391.812 603.881 392.364C603.881 392.915 603.966 393.382 604.136 393.763C604.309 394.142 604.547 394.429 604.85 394.626C605.153 394.82 605.502 394.917 605.898 394.917C606.293 394.917 606.642 394.82 606.945 394.626C607.248 394.429 607.485 394.142 607.656 393.763C607.828 393.382 607.915 392.915 607.915 392.364ZM610.985 396V388.727H613.712C614.271 388.727 614.74 388.824 615.118 389.018C615.5 389.213 615.787 389.485 615.981 389.835C616.178 390.183 616.276 390.589 616.276 391.053C616.276 391.52 616.177 391.924 615.978 392.268C615.781 392.609 615.491 392.873 615.108 393.06C614.724 393.244 614.253 393.337 613.694 393.337H611.752V392.243H613.517C613.844 392.243 614.111 392.198 614.319 392.108C614.528 392.016 614.682 391.882 614.781 391.707C614.883 391.529 614.934 391.311 614.934 391.053C614.934 390.795 614.883 390.575 614.781 390.393C614.679 390.208 614.524 390.068 614.316 389.974C614.108 389.877 613.839 389.828 613.51 389.828H612.302V396H610.985ZM614.742 392.705L616.542 396H615.072L613.304 392.705H614.742ZM622.861 391.05C622.802 390.858 622.72 390.686 622.616 390.535C622.514 390.381 622.391 390.25 622.247 390.141C622.105 390.032 621.941 389.95 621.757 389.896C621.572 389.839 621.371 389.81 621.153 389.81C620.762 389.81 620.414 389.909 620.109 390.105C619.803 390.302 619.563 390.59 619.388 390.972C619.215 391.35 619.129 391.812 619.129 392.357C619.129 392.906 619.215 393.371 619.388 393.752C619.561 394.133 619.801 394.423 620.109 394.622C620.417 394.819 620.774 394.917 621.181 394.917C621.551 394.917 621.87 394.846 622.14 394.704C622.412 394.562 622.622 394.361 622.769 394.1C622.915 393.837 622.989 393.53 622.989 393.177L623.287 393.223H621.313V392.193H624.264V393.067C624.264 393.689 624.131 394.228 623.866 394.683C623.601 395.137 623.236 395.487 622.772 395.734C622.308 395.978 621.776 396.099 621.174 396.099C620.504 396.099 619.916 395.949 619.409 395.648C618.905 395.345 618.511 394.916 618.227 394.359C617.945 393.801 617.804 393.138 617.804 392.371C617.804 391.784 617.887 391.259 618.053 390.798C618.221 390.336 618.455 389.944 618.756 389.622C619.057 389.298 619.409 389.052 619.814 388.884C620.219 388.713 620.659 388.628 621.135 388.628C621.538 388.628 621.913 388.687 622.261 388.805C622.609 388.921 622.918 389.087 623.188 389.303C623.46 389.518 623.684 389.774 623.859 390.07C624.034 390.366 624.149 390.692 624.203 391.05H622.861ZM626.747 396H625.341L627.901 388.727H629.528L632.091 396H630.685L628.743 390.219H628.686L626.747 396ZM626.793 393.148H630.628V394.207H626.793V393.148ZM639.526 388.727V396H638.354L634.927 391.046H634.867V396H633.549V388.727H634.728L638.152 393.685H638.216V388.727H639.526ZM642.779 388.727V396H641.461V388.727H642.779ZM644.571 396V395.18L648.299 389.832H644.549V388.727H649.933V389.548L646.208 394.896H649.954V396H644.571ZM652.663 396H651.257L653.817 388.727H655.444L658.007 396H656.601L654.659 390.219H654.602L652.663 396ZM652.709 393.148H656.544V394.207H652.709V393.148ZM658.267 389.832V388.727H664.069V389.832H661.822V396H660.515V389.832H658.267ZM667.006 388.727V396H665.688V388.727H667.006ZM675.431 392.364C675.431 393.147 675.284 393.818 674.99 394.377C674.699 394.933 674.301 395.36 673.797 395.656C673.295 395.951 672.726 396.099 672.089 396.099C671.452 396.099 670.882 395.951 670.377 395.656C669.876 395.357 669.478 394.93 669.184 394.374C668.893 393.815 668.748 393.145 668.748 392.364C668.748 391.58 668.893 390.91 669.184 390.354C669.478 389.795 669.876 389.368 670.377 389.072C670.882 388.776 671.452 388.628 672.089 388.628C672.726 388.628 673.295 388.776 673.797 389.072C674.301 389.368 674.699 389.795 674.99 390.354C675.284 390.91 675.431 391.58 675.431 392.364ZM674.106 392.364C674.106 391.812 674.02 391.347 673.847 390.968C673.676 390.587 673.44 390.299 673.137 390.105C672.834 389.909 672.484 389.81 672.089 389.81C671.694 389.81 671.345 389.909 671.042 390.105C670.739 390.299 670.501 390.587 670.328 390.968C670.157 391.347 670.072 391.812 670.072 392.364C670.072 392.915 670.157 393.382 670.328 393.763C670.501 394.142 670.739 394.429 671.042 394.626C671.345 394.82 671.694 394.917 672.089 394.917C672.484 394.917 672.834 394.82 673.137 394.626C673.44 394.429 673.676 394.142 673.847 393.763C674.02 393.382 674.106 392.915 674.106 392.364ZM683.153 388.727V396H681.981L678.554 391.046H678.494V396H677.176V388.727H678.355L681.779 393.685H681.843V388.727H683.153Z"></path>
</g>
<defs>
<filter color-interpolation-filters="sRGB" filterUnits="userSpaceOnUse" height="648" width="1024" y="0" x="-16" id="filter0_d_16_2344">
<feFlood result="BackgroundImageFix" flood-opacity="0"></feFlood>
<feColorMatrix result="hardAlpha" values="0 0 0 0 0 0 0 0 0 0 0 0 0 0 0 0 0 0 127 0" type="matrix" in="SourceAlpha"></feColorMatrix>
<feMorphology result="effect1_dropShadow_16_2344" in="SourceAlpha" operator="erode" radius="48"></feMorphology>
<feOffset dy="64"></feOffset>
<feGaussianBlur stdDeviation="32"></feGaussianBlur>
<feComposite operator="out" in2="hardAlpha"></feComposite>
<feColorMatrix values="0 0 0 0 0.109514 0 0 0 0 0.1178 0 0 0 0 0.316667 0 0 0 0.08 0" type="matrix"></feColorMatrix>
<feBlend result="effect1_dropShadow_16_2344" in2="BackgroundImageFix" mode="normal"></feBlend>
<feBlend result="shape" in2="effect1_dropShadow_16_2344" in="SourceGraphic" mode="normal"></feBlend>
</filter>
<filter color-interpolation-filters="sRGB" filterUnits="userSpaceOnUse" height="444" width="576" y="86" x="208" id="filter1_d_16_2344">
<feFlood result="BackgroundImageFix" flood-opacity="0"></feFlood>
<feColorMatrix result="hardAlpha" values="0 0 0 0 0 0 0 0 0 0 0 0 0 0 0 0 0 0 127 0" type="matrix" in="SourceAlpha"></feColorMatrix>
<feOffset dy="24"></feOffset>
<feGaussianBlur stdDeviation="24"></feGaussianBlur>
<feColorMatrix values="0 0 0 0 0 0 0 0 0 0 0 0 0 0 0 0 0 0 0.16 0" type="matrix"></feColorMatrix>
<feBlend result="effect1_dropShadow_16_2344" in2="BackgroundImageFix" mode="normal"></feBlend>
<feBlend result="shape" in2="effect1_dropShadow_16_2344" in="SourceGraphic" mode="normal"></feBlend>
</filter>
<clipPath id="clip0_16_2344">
<rect fill="white" height="568" width="992"></rect>
</clipPath>
<clipPath id="clip1_16_2344">
<rect fill="white" rx="16" height="568" width="992"></rect>
</clipPath>
<clipPath id="clip2_16_2344">
<rect fill="white" rx="16" height="760" width="992" y="5"></rect>
</clipPath>
<clipPath id="clip3_16_2344">
<rect fill="white" rx="6" height="32" width="320" y="248" x="273"></rect>
</clipPath>
</defs>
</svg>
