<svg width="605" height="522" viewBox="0 0 605 522" fill="none" xmlns="http://www.w3.org/2000/svg">
<g filter="url(#filter0_d_1_2)">
<rect x="76.5" y="24.5" width="480" height="425.05" rx="16" fill="white" shape-rendering="crispEdges"/>
<g clip-path="url(#clip0_1_2)">
<path d="M128.308 98.684C126.985 98.684 125.748 98.4493 124.596 97.98C123.444 97.5107 122.441 96.8173 121.588 95.9C120.756 94.9827 120.095 93.852 119.604 92.508C119.113 91.164 118.868 89.628 118.868 87.9C118.868 86.1933 119.113 84.668 119.604 83.324C120.116 81.9587 120.799 80.8067 121.652 79.868C122.527 78.9293 123.54 78.2147 124.692 77.724C125.865 77.2333 127.113 76.988 128.436 76.988C129.759 76.988 130.932 77.2547 131.956 77.788C132.98 78.3213 133.823 78.94 134.484 79.644L132.5 82.044C131.945 81.4893 131.348 81.052 130.708 80.732C130.068 80.3907 129.343 80.22 128.532 80.22C127.679 80.22 126.889 80.4013 126.164 80.764C125.46 81.1053 124.841 81.6067 124.308 82.268C123.796 82.908 123.391 83.6973 123.092 84.636C122.815 85.5747 122.676 86.6307 122.676 87.804C122.676 90.1933 123.188 92.0707 124.212 93.436C125.257 94.78 126.665 95.452 128.436 95.452C129.375 95.452 130.207 95.26 130.932 94.876C131.657 94.4707 132.319 93.948 132.916 93.308L134.9 95.644C134.047 96.6253 133.065 97.3827 131.956 97.916C130.868 98.428 129.652 98.684 128.308 98.684ZM138.073 98.3V82.588H141.113L141.369 85.372H141.497C142.052 84.348 142.724 83.5693 143.513 83.036C144.303 82.4813 145.113 82.204 145.945 82.204C146.692 82.204 147.289 82.3107 147.738 82.524L147.097 85.724C146.82 85.6387 146.564 85.5747 146.33 85.532C146.095 85.4893 145.807 85.468 145.465 85.468C144.847 85.468 144.196 85.7133 143.513 86.204C142.831 86.6733 142.244 87.5053 141.753 88.7V98.3H138.073ZM156.418 98.684C155.33 98.684 154.317 98.5027 153.378 98.14C152.44 97.756 151.618 97.212 150.914 96.508C150.21 95.804 149.656 94.9507 149.25 93.948C148.866 92.924 148.674 91.7613 148.674 90.46C148.674 89.18 148.877 88.028 149.282 87.004C149.688 85.98 150.221 85.116 150.882 84.412C151.565 83.708 152.344 83.164 153.218 82.78C154.093 82.396 154.989 82.204 155.906 82.204C156.973 82.204 157.912 82.3853 158.722 82.748C159.533 83.1107 160.205 83.6227 160.738 84.284C161.293 84.9453 161.709 85.7347 161.986 86.652C162.264 87.5693 162.403 88.572 162.403 89.66C162.403 90.0227 162.381 90.364 162.339 90.684C162.317 91.004 162.285 91.26 162.243 91.452H152.258C152.429 92.86 152.92 93.948 153.73 94.716C154.562 95.4627 155.618 95.836 156.898 95.836C157.581 95.836 158.21 95.74 158.786 95.548C159.384 95.3347 159.97 95.0467 160.547 94.684L161.795 96.988C161.048 97.4787 160.216 97.884 159.299 98.204C158.381 98.524 157.421 98.684 156.418 98.684ZM152.226 88.956H159.202C159.202 87.74 158.936 86.7907 158.403 86.108C157.89 85.404 157.09 85.052 156.002 85.052C155.064 85.052 154.242 85.3827 153.538 86.044C152.834 86.7053 152.397 87.676 152.226 88.956ZM169.35 98.684C167.964 98.684 166.844 98.268 165.99 97.436C165.137 96.5827 164.71 95.4627 164.71 94.076C164.71 93.244 164.881 92.508 165.222 91.868C165.585 91.2067 166.14 90.6413 166.886 90.172C167.654 89.7027 168.614 89.308 169.766 88.988C170.94 88.668 172.337 88.4227 173.958 88.252C173.937 87.8467 173.873 87.4627 173.766 87.1C173.681 86.716 173.521 86.3853 173.286 86.108C173.073 85.8093 172.785 85.5853 172.422 85.436C172.06 85.2653 171.612 85.18 171.078 85.18C170.31 85.18 169.553 85.3293 168.806 85.628C168.081 85.9267 167.366 86.2893 166.662 86.716L165.318 84.252C166.193 83.6973 167.174 83.2173 168.262 82.812C169.35 82.4067 170.524 82.204 171.782 82.204C173.745 82.204 175.206 82.7907 176.166 83.964C177.148 85.116 177.638 86.7907 177.638 88.988V98.3H174.598L174.342 96.572H174.214C173.51 97.1693 172.753 97.6707 171.942 98.076C171.153 98.4813 170.289 98.684 169.35 98.684ZM170.534 95.804C171.174 95.804 171.75 95.6547 172.262 95.356C172.796 95.0573 173.361 94.6307 173.958 94.076V90.556C172.892 90.684 171.996 90.8547 171.27 91.068C170.545 91.2813 169.958 91.5267 169.51 91.804C169.062 92.06 168.742 92.3587 168.55 92.7C168.358 93.0413 168.262 93.404 168.262 93.788C168.262 94.492 168.476 95.004 168.902 95.324C169.329 95.644 169.873 95.804 170.534 95.804ZM187.078 98.684C186.161 98.684 185.382 98.5453 184.742 98.268C184.124 97.9907 183.612 97.6067 183.206 97.116C182.822 96.604 182.534 96.0067 182.342 95.324C182.172 94.62 182.086 93.8413 182.086 92.988V85.5H179.846V82.748L182.278 82.588L182.726 78.3H185.798V82.588H189.798V85.5H185.798V92.988C185.798 94.8227 186.534 95.74 188.006 95.74C188.284 95.74 188.561 95.708 188.838 95.644C189.137 95.58 189.404 95.4947 189.638 95.388L190.278 98.108C189.852 98.2573 189.361 98.3853 188.806 98.492C188.273 98.62 187.697 98.684 187.078 98.684ZM199.325 98.684C198.237 98.684 197.223 98.5027 196.285 98.14C195.346 97.756 194.525 97.212 193.821 96.508C193.117 95.804 192.562 94.9507 192.157 93.948C191.773 92.924 191.581 91.7613 191.581 90.46C191.581 89.18 191.783 88.028 192.189 87.004C192.594 85.98 193.127 85.116 193.789 84.412C194.471 83.708 195.25 83.164 196.125 82.78C196.999 82.396 197.895 82.204 198.813 82.204C199.879 82.204 200.818 82.3853 201.629 82.748C202.439 83.1107 203.111 83.6227 203.645 84.284C204.199 84.9453 204.615 85.7347 204.893 86.652C205.17 87.5693 205.309 88.572 205.309 89.66C205.309 90.0227 205.287 90.364 205.245 90.684C205.223 91.004 205.191 91.26 205.149 91.452H195.165C195.335 92.86 195.826 93.948 196.637 94.716C197.469 95.4627 198.525 95.836 199.805 95.836C200.487 95.836 201.117 95.74 201.693 95.548C202.29 95.3347 202.877 95.0467 203.453 94.684L204.701 96.988C203.954 97.4787 203.122 97.884 202.205 98.204C201.287 98.524 200.327 98.684 199.325 98.684ZM195.133 88.956H202.109C202.109 87.74 201.842 86.7907 201.309 86.108C200.797 85.404 199.997 85.052 198.909 85.052C197.97 85.052 197.149 85.3827 196.445 86.044C195.741 86.7053 195.303 87.676 195.133 88.956ZM223.678 98.684C222.312 98.684 221.064 98.4387 219.934 97.948C218.803 97.436 217.832 96.7107 217.022 95.772C216.211 94.812 215.582 93.66 215.134 92.316C214.686 90.972 214.462 89.4467 214.462 87.74C214.462 86.0547 214.686 84.5507 215.134 83.228C215.582 81.884 216.211 80.7533 217.022 79.836C217.832 78.9187 218.803 78.2147 219.934 77.724C221.064 77.2333 222.312 76.988 223.678 76.988C225.043 76.988 226.291 77.2333 227.422 77.724C228.552 78.2147 229.523 78.9187 230.334 79.836C231.166 80.7533 231.806 81.884 232.254 83.228C232.702 84.5507 232.926 86.0547 232.926 87.74C232.926 89.4467 232.702 90.972 232.254 92.316C231.806 93.66 231.166 94.812 230.334 95.772C229.523 96.7107 228.552 97.436 227.422 97.948C226.291 98.4387 225.043 98.684 223.678 98.684ZM223.678 95.452C224.51 95.452 225.256 95.2707 225.918 94.908C226.579 94.5453 227.144 94.0333 227.614 93.372C228.083 92.6893 228.446 91.8787 228.702 90.94C228.958 89.98 229.086 88.9133 229.086 87.74C229.086 85.3933 228.595 83.5587 227.614 82.236C226.654 80.892 225.342 80.22 223.678 80.22C222.014 80.22 220.691 80.892 219.71 82.236C218.75 83.5587 218.27 85.3933 218.27 87.74C218.27 88.9133 218.398 89.98 218.654 90.94C218.91 91.8787 219.272 92.6893 219.742 93.372C220.211 94.0333 220.776 94.5453 221.438 94.908C222.099 95.2707 222.846 95.452 223.678 95.452ZM236.792 98.3V82.588H239.832L240.088 85.372H240.216C240.771 84.348 241.443 83.5693 242.232 83.036C243.022 82.4813 243.832 82.204 244.664 82.204C245.411 82.204 246.008 82.3107 246.456 82.524L245.816 85.724C245.539 85.6387 245.283 85.5747 245.048 85.532C244.814 85.4893 244.526 85.468 244.184 85.468C243.566 85.468 242.915 85.7133 242.232 86.204C241.55 86.6733 240.963 87.5053 240.472 88.7V98.3H236.792ZM253.889 105.244C252.951 105.244 252.076 105.159 251.265 104.988C250.476 104.817 249.793 104.561 249.217 104.22C248.641 103.879 248.183 103.452 247.841 102.94C247.521 102.428 247.361 101.831 247.361 101.148C247.361 100.487 247.553 99.868 247.937 99.292C248.321 98.7373 248.876 98.236 249.601 97.788V97.66C249.196 97.404 248.855 97.0627 248.577 96.636C248.321 96.2093 248.193 95.676 248.193 95.036C248.193 94.4173 248.364 93.8627 248.705 93.372C249.068 92.86 249.473 92.444 249.921 92.124V91.996C249.388 91.5907 248.908 91.036 248.481 90.332C248.076 89.6067 247.873 88.7747 247.873 87.836C247.873 86.94 248.044 86.14 248.385 85.436C248.727 84.732 249.175 84.1453 249.729 83.676C250.305 83.1853 250.967 82.8227 251.713 82.588C252.46 82.332 253.249 82.204 254.081 82.204C254.508 82.204 254.913 82.2467 255.297 82.332C255.703 82.396 256.065 82.4813 256.385 82.588H262.017V85.308H259.137C259.393 85.6067 259.607 85.9907 259.777 86.46C259.948 86.908 260.033 87.4093 260.033 87.964C260.033 88.8387 259.873 89.6067 259.553 90.268C259.255 90.9293 258.839 91.484 258.305 91.932C257.772 92.38 257.143 92.7213 256.417 92.956C255.692 93.1907 254.913 93.308 254.081 93.308C253.74 93.308 253.388 93.276 253.025 93.212C252.663 93.148 252.3 93.0413 251.937 92.892C251.703 93.1053 251.511 93.3187 251.361 93.532C251.233 93.7453 251.169 94.0333 251.169 94.396C251.169 94.844 251.351 95.196 251.713 95.452C252.097 95.708 252.769 95.836 253.729 95.836H256.513C258.412 95.836 259.841 96.1453 260.801 96.764C261.783 97.3613 262.273 98.3427 262.273 99.708C262.273 100.476 262.071 101.201 261.665 101.884C261.281 102.567 260.727 103.153 260.001 103.644C259.276 104.135 258.391 104.519 257.345 104.796C256.321 105.095 255.169 105.244 253.889 105.244ZM254.081 91.004C254.828 91.004 255.468 90.7373 256.001 90.204C256.535 89.6493 256.801 88.86 256.801 87.836C256.801 86.8547 256.535 86.0973 256.001 85.564C255.489 85.0093 254.849 84.732 254.081 84.732C253.313 84.732 252.663 84.9987 252.129 85.532C251.596 86.0653 251.329 86.8333 251.329 87.836C251.329 88.86 251.596 89.6493 252.129 90.204C252.663 90.7373 253.313 91.004 254.081 91.004ZM254.465 102.844C255.745 102.844 256.769 102.588 257.537 102.076C258.327 101.585 258.721 100.999 258.721 100.316C258.721 99.6973 258.476 99.2813 257.985 99.068C257.516 98.8547 256.833 98.748 255.937 98.748H253.793C252.94 98.748 252.225 98.6733 251.649 98.524C250.839 99.1427 250.433 99.836 250.433 100.604C250.433 101.308 250.785 101.852 251.489 102.236C252.215 102.641 253.207 102.844 254.465 102.844ZM268.288 98.684C266.901 98.684 265.781 98.268 264.928 97.436C264.074 96.5827 263.648 95.4627 263.648 94.076C263.648 93.244 263.818 92.508 264.16 91.868C264.522 91.2067 265.077 90.6413 265.824 90.172C266.592 89.7027 267.552 89.308 268.704 88.988C269.877 88.668 271.274 88.4227 272.896 88.252C272.874 87.8467 272.81 87.4627 272.704 87.1C272.618 86.716 272.458 86.3853 272.224 86.108C272.01 85.8093 271.722 85.5853 271.36 85.436C270.997 85.2653 270.549 85.18 270.016 85.18C269.248 85.18 268.49 85.3293 267.744 85.628C267.018 85.9267 266.304 86.2893 265.6 86.716L264.256 84.252C265.13 83.6973 266.112 83.2173 267.2 82.812C268.288 82.4067 269.461 82.204 270.72 82.204C272.682 82.204 274.144 82.7907 275.104 83.964C276.085 85.116 276.576 86.7907 276.576 88.988V98.3H273.536L273.28 96.572H273.152C272.448 97.1693 271.69 97.6707 270.88 98.076C270.09 98.4813 269.226 98.684 268.288 98.684ZM269.472 95.804C270.112 95.804 270.688 95.6547 271.2 95.356C271.733 95.0573 272.298 94.6307 272.896 94.076V90.556C271.829 90.684 270.933 90.8547 270.208 91.068C269.482 91.2813 268.896 91.5267 268.448 91.804C268 92.06 267.68 92.3587 267.488 92.7C267.296 93.0413 267.2 93.404 267.2 93.788C267.2 94.492 267.413 95.004 267.84 95.324C268.266 95.644 268.81 95.804 269.472 95.804ZM280.98 98.3V82.588H284.02L284.276 84.7H284.404C285.108 84.0173 285.865 83.4307 286.676 82.94C287.508 82.4493 288.468 82.204 289.556 82.204C291.241 82.204 292.468 82.748 293.236 83.836C294.004 84.9027 294.388 86.4387 294.388 88.444V98.3H290.708V88.924C290.708 87.6227 290.516 86.7053 290.132 86.172C289.748 85.6387 289.118 85.372 288.244 85.372C287.561 85.372 286.953 85.5427 286.42 85.884C285.908 86.204 285.321 86.684 284.66 87.324V98.3H280.98ZM298.886 98.3V82.588H302.566V98.3H298.886ZM300.742 79.836C300.081 79.836 299.537 79.644 299.11 79.26C298.683 78.876 298.47 78.3747 298.47 77.756C298.47 77.1373 298.683 76.636 299.11 76.252C299.537 75.8467 300.081 75.644 300.742 75.644C301.403 75.644 301.947 75.8467 302.374 76.252C302.801 76.636 303.014 77.1373 303.014 77.756C303.014 78.3747 302.801 78.876 302.374 79.26C301.947 79.644 301.403 79.836 300.742 79.836ZM306.013 98.3V96.316L313.437 85.5H306.845V82.588H318.045V84.54L310.653 95.356H318.301V98.3H306.013ZM324.694 98.684C323.307 98.684 322.187 98.268 321.334 97.436C320.481 96.5827 320.054 95.4627 320.054 94.076C320.054 93.244 320.225 92.508 320.566 91.868C320.929 91.2067 321.483 90.6413 322.23 90.172C322.998 89.7027 323.958 89.308 325.11 88.988C326.283 88.668 327.681 88.4227 329.302 88.252C329.281 87.8467 329.217 87.4627 329.11 87.1C329.025 86.716 328.865 86.3853 328.63 86.108C328.417 85.8093 328.129 85.5853 327.766 85.436C327.403 85.2653 326.955 85.18 326.422 85.18C325.654 85.18 324.897 85.3293 324.15 85.628C323.425 85.9267 322.71 86.2893 322.006 86.716L320.662 84.252C321.537 83.6973 322.518 83.2173 323.606 82.812C324.694 82.4067 325.867 82.204 327.126 82.204C329.089 82.204 330.55 82.7907 331.51 83.964C332.491 85.116 332.982 86.7907 332.982 88.988V98.3H329.942L329.686 96.572H329.558C328.854 97.1693 328.097 97.6707 327.286 98.076C326.497 98.4813 325.633 98.684 324.694 98.684ZM325.878 95.804C326.518 95.804 327.094 95.6547 327.606 95.356C328.139 95.0573 328.705 94.6307 329.302 94.076V90.556C328.235 90.684 327.339 90.8547 326.614 91.068C325.889 91.2813 325.302 91.5267 324.854 91.804C324.406 92.06 324.086 92.3587 323.894 92.7C323.702 93.0413 323.606 93.404 323.606 93.788C323.606 94.492 323.819 95.004 324.246 95.324C324.673 95.644 325.217 95.804 325.878 95.804ZM342.422 98.684C341.505 98.684 340.726 98.5453 340.086 98.268C339.467 97.9907 338.955 97.6067 338.55 97.116C338.166 96.604 337.878 96.0067 337.686 95.324C337.515 94.62 337.43 93.8413 337.43 92.988V85.5H335.19V82.748L337.622 82.588L338.07 78.3H341.142V82.588H345.142V85.5H341.142V92.988C341.142 94.8227 341.878 95.74 343.35 95.74C343.627 95.74 343.905 95.708 344.182 95.644C344.481 95.58 344.747 95.4947 344.982 95.388L345.622 98.108C345.195 98.2573 344.705 98.3853 344.15 98.492C343.617 98.62 343.041 98.684 342.422 98.684ZM348.448 98.3V82.588H352.128V98.3H348.448ZM350.304 79.836C349.643 79.836 349.099 79.644 348.672 79.26C348.246 78.876 348.032 78.3747 348.032 77.756C348.032 77.1373 348.246 76.636 348.672 76.252C349.099 75.8467 349.643 75.644 350.304 75.644C350.966 75.644 351.51 75.8467 351.936 76.252C352.363 76.636 352.576 77.1373 352.576 77.756C352.576 78.3747 352.363 78.876 351.936 79.26C351.51 79.644 350.966 79.836 350.304 79.836ZM363.255 98.684C362.274 98.684 361.335 98.5027 360.439 98.14C359.543 97.7773 358.743 97.244 358.039 96.54C357.357 95.836 356.813 94.972 356.407 93.948C356.002 92.924 355.799 91.7613 355.799 90.46C355.799 89.1587 356.002 87.996 356.407 86.972C356.813 85.948 357.357 85.084 358.039 84.38C358.743 83.676 359.543 83.1427 360.439 82.78C361.335 82.396 362.274 82.204 363.255 82.204C364.237 82.204 365.175 82.396 366.071 82.78C366.989 83.1427 367.789 83.676 368.471 84.38C369.154 85.084 369.698 85.948 370.104 86.972C370.53 87.996 370.743 89.1587 370.743 90.46C370.743 91.7613 370.53 92.924 370.104 93.948C369.698 94.972 369.154 95.836 368.471 96.54C367.789 97.244 366.989 97.7773 366.071 98.14C365.175 98.5027 364.237 98.684 363.255 98.684ZM363.255 95.676C364.407 95.676 365.314 95.2067 365.976 94.268C366.637 93.308 366.967 92.0387 366.967 90.46C366.967 88.86 366.637 87.5907 365.976 86.652C365.314 85.692 364.407 85.212 363.255 85.212C362.103 85.212 361.197 85.692 360.535 86.652C359.895 87.5907 359.575 88.86 359.575 90.46C359.575 92.0387 359.895 93.308 360.535 94.268C361.197 95.2067 362.103 95.676 363.255 95.676ZM374.386 98.3V82.588H377.426L377.682 84.7H377.81C378.514 84.0173 379.271 83.4307 380.082 82.94C380.914 82.4493 381.874 82.204 382.962 82.204C384.647 82.204 385.874 82.748 386.642 83.836C387.41 84.9027 387.794 86.4387 387.794 88.444V98.3H384.114V88.924C384.114 87.6227 383.922 86.7053 383.538 86.172C383.154 85.6387 382.525 85.372 381.65 85.372C380.967 85.372 380.359 85.5427 379.826 85.884C379.314 86.204 378.727 86.684 378.066 87.324V98.3H374.386Z" fill="black"/>
<path d="M178.56 164.025V154.841H181.178C181.691 154.841 182.158 154.888 182.578 154.981C183.007 155.074 183.371 155.228 183.67 155.443C183.969 155.648 184.202 155.924 184.37 156.269C184.538 156.614 184.622 157.039 184.622 157.543C184.622 158.028 184.538 158.448 184.37 158.803C184.211 159.158 183.983 159.452 183.684 159.685C183.385 159.918 183.026 160.096 182.606 160.217C182.195 160.329 181.738 160.385 181.234 160.385H179.722V164.025H178.56ZM179.722 159.433H181.094C181.897 159.433 182.489 159.284 182.872 158.985C183.264 158.677 183.46 158.196 183.46 157.543C183.46 156.88 183.255 156.423 182.844 156.171C182.443 155.91 181.841 155.779 181.038 155.779H179.722V159.433ZM186.378 164.025V157.221H187.33L187.428 158.453H187.47C187.703 158.024 187.983 157.683 188.31 157.431C188.646 157.179 189.01 157.053 189.402 157.053C189.672 157.053 189.915 157.1 190.13 157.193L189.906 158.201C189.794 158.164 189.691 158.136 189.598 158.117C189.504 158.098 189.388 158.089 189.248 158.089C188.958 158.089 188.655 158.206 188.338 158.439C188.03 158.672 187.759 159.078 187.526 159.657V164.025H186.378ZM193.74 164.193C193.32 164.193 192.919 164.114 192.536 163.955C192.163 163.796 191.832 163.568 191.542 163.269C191.253 162.961 191.02 162.588 190.842 162.149C190.674 161.701 190.59 161.197 190.59 160.637C190.59 160.068 190.674 159.564 190.842 159.125C191.02 158.677 191.253 158.299 191.542 157.991C191.832 157.683 192.163 157.45 192.536 157.291C192.919 157.132 193.32 157.053 193.74 157.053C194.16 157.053 194.557 157.132 194.93 157.291C195.313 157.45 195.649 157.683 195.938 157.991C196.228 158.299 196.456 158.677 196.624 159.125C196.802 159.564 196.89 160.068 196.89 160.637C196.89 161.197 196.802 161.701 196.624 162.149C196.456 162.588 196.228 162.961 195.938 163.269C195.649 163.568 195.313 163.796 194.93 163.955C194.557 164.114 194.16 164.193 193.74 164.193ZM193.74 163.241C194.03 163.241 194.296 163.18 194.538 163.059C194.781 162.928 194.986 162.751 195.154 162.527C195.332 162.294 195.467 162.018 195.56 161.701C195.654 161.384 195.7 161.029 195.7 160.637C195.7 160.245 195.654 159.89 195.56 159.573C195.467 159.246 195.332 158.966 195.154 158.733C194.986 158.5 194.781 158.322 194.538 158.201C194.296 158.07 194.03 158.005 193.74 158.005C193.451 158.005 193.185 158.07 192.942 158.201C192.7 158.322 192.49 158.5 192.312 158.733C192.144 158.966 192.014 159.246 191.92 159.573C191.827 159.89 191.78 160.245 191.78 160.637C191.78 161.029 191.827 161.384 191.92 161.701C192.014 162.018 192.144 162.294 192.312 162.527C192.49 162.751 192.7 162.928 192.942 163.059C193.185 163.18 193.451 163.241 193.74 163.241ZM198.878 164.025V158.159H197.954V157.291L198.878 157.221V156.143C198.878 155.443 199.037 154.892 199.354 154.491C199.681 154.09 200.185 153.889 200.866 153.889C201.081 153.889 201.282 153.912 201.468 153.959C201.664 153.996 201.842 154.048 202 154.113L201.748 154.995C201.496 154.883 201.24 154.827 200.978 154.827C200.344 154.827 200.026 155.266 200.026 156.143V157.221H201.468V158.159H200.026V164.025H198.878ZM202.77 164.025V157.221H203.918V164.025H202.77ZM203.358 155.821C203.134 155.821 202.943 155.751 202.784 155.611C202.635 155.471 202.56 155.294 202.56 155.079C202.56 154.855 202.635 154.678 202.784 154.547C202.943 154.407 203.134 154.337 203.358 154.337C203.582 154.337 203.769 154.407 203.918 154.547C204.077 154.678 204.156 154.855 204.156 155.079C204.156 155.294 204.077 155.471 203.918 155.611C203.769 155.751 203.582 155.821 203.358 155.821ZM207.434 164.193C206.995 164.193 206.682 164.062 206.496 163.801C206.309 163.54 206.216 163.157 206.216 162.653V154.057H207.364V162.737C207.364 162.924 207.396 163.054 207.462 163.129C207.527 163.204 207.602 163.241 207.686 163.241C207.723 163.241 207.756 163.241 207.784 163.241C207.821 163.241 207.872 163.232 207.938 163.213L208.092 164.081C208.017 164.118 207.928 164.146 207.826 164.165C207.723 164.184 207.592 164.193 207.434 164.193ZM212.542 164.193C212.085 164.193 211.655 164.114 211.254 163.955C210.862 163.787 210.517 163.554 210.218 163.255C209.929 162.947 209.7 162.574 209.532 162.135C209.364 161.696 209.28 161.197 209.28 160.637C209.28 160.077 209.364 159.578 209.532 159.139C209.709 158.691 209.938 158.313 210.218 158.005C210.507 157.697 210.834 157.464 211.198 157.305C211.562 157.137 211.94 157.053 212.332 157.053C212.761 157.053 213.144 157.128 213.48 157.277C213.825 157.426 214.11 157.641 214.334 157.921C214.567 158.201 214.745 158.537 214.866 158.929C214.987 159.321 215.048 159.76 215.048 160.245C215.048 160.366 215.043 160.488 215.034 160.609C215.034 160.721 215.025 160.819 215.006 160.903H210.414C210.461 161.631 210.685 162.21 211.086 162.639C211.497 163.059 212.029 163.269 212.682 163.269C213.009 163.269 213.307 163.222 213.578 163.129C213.858 163.026 214.124 162.896 214.376 162.737L214.782 163.493C214.483 163.68 214.152 163.843 213.788 163.983C213.424 164.123 213.009 164.193 212.542 164.193ZM210.4 160.077H214.04C214.04 159.386 213.891 158.864 213.592 158.509C213.303 158.145 212.892 157.963 212.36 157.963C212.117 157.963 211.884 158.01 211.66 158.103C211.445 158.196 211.249 158.336 211.072 158.523C210.895 158.7 210.745 158.92 210.624 159.181C210.512 159.442 210.437 159.741 210.4 160.077ZM219.532 164.025V157.221H220.68V164.025H219.532ZM220.12 155.821C219.896 155.821 219.705 155.751 219.546 155.611C219.397 155.471 219.322 155.294 219.322 155.079C219.322 154.855 219.397 154.678 219.546 154.547C219.705 154.407 219.896 154.337 220.12 154.337C220.344 154.337 220.531 154.407 220.68 154.547C220.839 154.678 220.918 154.855 220.918 155.079C220.918 155.294 220.839 155.471 220.68 155.611C220.531 155.751 220.344 155.821 220.12 155.821ZM222.977 164.025V157.221H223.929L224.027 158.201H224.069C224.368 157.874 224.69 157.604 225.035 157.389C225.39 157.165 225.773 157.053 226.183 157.053C226.706 157.053 227.112 157.17 227.401 157.403C227.7 157.627 227.919 157.944 228.059 158.355C228.414 157.963 228.769 157.65 229.123 157.417C229.487 157.174 229.879 157.053 230.299 157.053C230.999 157.053 231.517 157.277 231.853 157.725C232.199 158.173 232.371 158.836 232.371 159.713V164.025H231.223V159.867C231.223 159.223 231.121 158.761 230.915 158.481C230.71 158.192 230.393 158.047 229.963 158.047C229.45 158.047 228.881 158.397 228.255 159.097V164.025H227.107V159.867C227.107 159.223 227.005 158.761 226.799 158.481C226.594 158.192 226.272 158.047 225.833 158.047C225.32 158.047 224.751 158.397 224.125 159.097V164.025H222.977ZM236.153 164.193C235.583 164.193 235.107 164.025 234.725 163.689C234.351 163.353 234.165 162.877 234.165 162.261C234.165 161.514 234.496 160.945 235.159 160.553C235.821 160.152 236.881 159.872 238.337 159.713C238.337 159.498 238.313 159.288 238.267 159.083C238.229 158.878 238.159 158.696 238.057 158.537C237.954 158.378 237.809 158.252 237.623 158.159C237.445 158.056 237.217 158.005 236.937 158.005C236.545 158.005 236.176 158.08 235.831 158.229C235.485 158.378 235.177 158.546 234.907 158.733L234.459 157.935C234.776 157.73 235.163 157.534 235.621 157.347C236.078 157.151 236.582 157.053 237.133 157.053C237.963 157.053 238.565 157.31 238.939 157.823C239.312 158.327 239.499 159.004 239.499 159.853V164.025H238.547L238.449 163.213H238.407C238.08 163.484 237.73 163.717 237.357 163.913C236.983 164.1 236.582 164.193 236.153 164.193ZM236.489 163.269C236.815 163.269 237.123 163.194 237.413 163.045C237.702 162.886 238.01 162.658 238.337 162.359V160.469C237.767 160.544 237.287 160.632 236.895 160.735C236.512 160.838 236.199 160.959 235.957 161.099C235.723 161.239 235.551 161.402 235.439 161.589C235.336 161.766 235.285 161.962 235.285 162.177C235.285 162.569 235.401 162.849 235.635 163.017C235.868 163.185 236.153 163.269 236.489 163.269ZM243.935 167.161C243.515 167.161 243.133 167.119 242.787 167.035C242.442 166.96 242.143 166.844 241.891 166.685C241.649 166.526 241.457 166.335 241.317 166.111C241.187 165.887 241.121 165.626 241.121 165.327C241.121 165.038 241.21 164.762 241.387 164.501C241.565 164.24 241.807 164.002 242.115 163.787V163.731C241.947 163.628 241.803 163.488 241.681 163.311C241.569 163.124 241.513 162.896 241.513 162.625C241.513 162.336 241.593 162.084 241.751 161.869C241.91 161.654 242.078 161.486 242.255 161.365V161.309C242.031 161.122 241.826 160.875 241.639 160.567C241.462 160.25 241.373 159.886 241.373 159.475C241.373 159.102 241.439 158.766 241.569 158.467C241.709 158.168 241.896 157.916 242.129 157.711C242.363 157.496 242.633 157.333 242.941 157.221C243.259 157.109 243.59 157.053 243.935 157.053C244.122 157.053 244.295 157.072 244.453 157.109C244.621 157.137 244.771 157.174 244.901 157.221H247.267V158.103H245.867C246.026 158.262 246.157 158.462 246.259 158.705C246.371 158.948 246.427 159.214 246.427 159.503C246.427 159.867 246.362 160.198 246.231 160.497C246.101 160.786 245.923 161.034 245.699 161.239C245.475 161.435 245.209 161.589 244.901 161.701C244.603 161.813 244.281 161.869 243.935 161.869C243.767 161.869 243.595 161.85 243.417 161.813C243.24 161.766 243.072 161.706 242.913 161.631C242.792 161.734 242.689 161.85 242.605 161.981C242.521 162.102 242.479 162.256 242.479 162.443C242.479 162.658 242.563 162.835 242.731 162.975C242.899 163.115 243.217 163.185 243.683 163.185H244.999C245.793 163.185 246.385 163.316 246.777 163.577C247.179 163.829 247.379 164.24 247.379 164.809C247.379 165.126 247.3 165.425 247.141 165.705C246.983 165.994 246.754 166.246 246.455 166.461C246.157 166.676 245.793 166.844 245.363 166.965C244.943 167.096 244.467 167.161 243.935 167.161ZM243.935 161.099C244.131 161.099 244.313 161.062 244.481 160.987C244.659 160.912 244.813 160.805 244.943 160.665C245.083 160.525 245.191 160.357 245.265 160.161C245.34 159.956 245.377 159.727 245.377 159.475C245.377 158.971 245.237 158.584 244.957 158.313C244.677 158.033 244.337 157.893 243.935 157.893C243.534 157.893 243.193 158.033 242.913 158.313C242.633 158.584 242.493 158.971 242.493 159.475C242.493 159.727 242.531 159.956 242.605 160.161C242.68 160.357 242.783 160.525 242.913 160.665C243.053 160.805 243.207 160.912 243.375 160.987C243.553 161.062 243.739 161.099 243.935 161.099ZM244.103 166.363C244.43 166.363 244.724 166.321 244.985 166.237C245.256 166.162 245.485 166.06 245.671 165.929C245.858 165.808 246.003 165.663 246.105 165.495C246.208 165.327 246.259 165.154 246.259 164.977C246.259 164.66 246.143 164.44 245.909 164.319C245.676 164.198 245.335 164.137 244.887 164.137H243.711C243.581 164.137 243.436 164.128 243.277 164.109C243.128 164.1 242.979 164.072 242.829 164.025C242.587 164.202 242.409 164.389 242.297 164.585C242.185 164.781 242.129 164.977 242.129 165.173C242.129 165.537 242.302 165.826 242.647 166.041C243.002 166.256 243.487 166.363 244.103 166.363ZM251.261 164.193C250.803 164.193 250.374 164.114 249.973 163.955C249.581 163.787 249.235 163.554 248.937 163.255C248.647 162.947 248.419 162.574 248.251 162.135C248.083 161.696 247.999 161.197 247.999 160.637C247.999 160.077 248.083 159.578 248.251 159.139C248.428 158.691 248.657 158.313 248.937 158.005C249.226 157.697 249.553 157.464 249.917 157.305C250.281 157.137 250.659 157.053 251.051 157.053C251.48 157.053 251.863 157.128 252.199 157.277C252.544 157.426 252.829 157.641 253.053 157.921C253.286 158.201 253.463 158.537 253.585 158.929C253.706 159.321 253.767 159.76 253.767 160.245C253.767 160.366 253.762 160.488 253.753 160.609C253.753 160.721 253.743 160.819 253.725 160.903H249.133C249.179 161.631 249.403 162.21 249.805 162.639C250.215 163.059 250.747 163.269 251.401 163.269C251.727 163.269 252.026 163.222 252.297 163.129C252.577 163.026 252.843 162.896 253.095 162.737L253.501 163.493C253.202 163.68 252.871 163.843 252.507 163.983C252.143 164.123 251.727 164.193 251.261 164.193ZM249.119 160.077H252.759C252.759 159.386 252.609 158.864 252.311 158.509C252.021 158.145 251.611 157.963 251.079 157.963C250.836 157.963 250.603 158.01 250.379 158.103C250.164 158.196 249.968 158.336 249.791 158.523C249.613 158.7 249.464 158.92 249.343 159.181C249.231 159.442 249.156 159.741 249.119 160.077Z" fill="black"/>
<path d="M181.506 184.481C181.073 184.481 180.665 184.42 180.284 184.299C179.911 184.169 179.586 183.961 179.309 183.675C179.04 183.38 178.828 182.999 178.672 182.531C178.516 182.063 178.438 181.487 178.438 180.802V175.797H179.517V180.828C179.517 181.339 179.569 181.768 179.673 182.115C179.777 182.462 179.916 182.739 180.089 182.947C180.271 183.155 180.483 183.307 180.726 183.402C180.969 183.489 181.229 183.532 181.506 183.532C181.792 183.532 182.056 183.489 182.299 183.402C182.542 183.307 182.754 183.155 182.936 182.947C183.118 182.739 183.261 182.462 183.365 182.115C183.469 181.768 183.521 181.339 183.521 180.828V175.797H184.561V180.802C184.561 181.487 184.483 182.063 184.327 182.531C184.171 182.999 183.954 183.38 183.677 183.675C183.408 183.961 183.088 184.169 182.715 184.299C182.342 184.42 181.939 184.481 181.506 184.481ZM187.252 186.99V178.007H188.136L188.227 178.735H188.266C188.552 178.492 188.864 178.284 189.202 178.111C189.548 177.938 189.908 177.851 190.281 177.851C190.688 177.851 191.048 177.929 191.36 178.085C191.672 178.232 191.932 178.449 192.14 178.735C192.348 179.012 192.504 179.35 192.608 179.749C192.72 180.139 192.777 180.581 192.777 181.075C192.777 181.612 192.703 182.093 192.556 182.518C192.408 182.934 192.209 183.289 191.958 183.584C191.706 183.879 191.416 184.104 191.087 184.26C190.757 184.407 190.411 184.481 190.047 184.481C189.752 184.481 189.457 184.416 189.163 184.286C188.877 184.156 188.586 183.978 188.292 183.753L188.318 184.858V186.99H187.252ZM189.865 183.584C190.125 183.584 190.363 183.528 190.58 183.415C190.805 183.294 190.996 183.129 191.152 182.921C191.316 182.704 191.442 182.44 191.529 182.128C191.624 181.816 191.672 181.465 191.672 181.075C191.672 180.728 191.641 180.412 191.581 180.126C191.52 179.84 191.42 179.597 191.282 179.398C191.152 179.19 190.978 179.03 190.762 178.917C190.554 178.804 190.302 178.748 190.008 178.748C189.739 178.748 189.466 178.822 189.189 178.969C188.92 179.116 188.63 179.329 188.318 179.606V182.921C188.604 183.164 188.881 183.337 189.15 183.441C189.418 183.536 189.657 183.584 189.865 183.584ZM196.094 184.481C195.686 184.481 195.396 184.36 195.223 184.117C195.049 183.874 194.963 183.519 194.963 183.051V175.069H196.029V183.129C196.029 183.302 196.059 183.424 196.12 183.493C196.18 183.562 196.25 183.597 196.328 183.597C196.362 183.597 196.393 183.597 196.419 183.597C196.453 183.597 196.501 183.588 196.562 183.571L196.705 184.377C196.635 184.412 196.553 184.438 196.458 184.455C196.362 184.472 196.241 184.481 196.094 184.481ZM201.233 184.481C200.843 184.481 200.47 184.407 200.115 184.26C199.768 184.113 199.461 183.9 199.192 183.623C198.923 183.337 198.707 182.99 198.542 182.583C198.386 182.167 198.308 181.699 198.308 181.179C198.308 180.65 198.386 180.182 198.542 179.775C198.707 179.359 198.923 179.008 199.192 178.722C199.461 178.436 199.768 178.219 200.115 178.072C200.47 177.925 200.843 177.851 201.233 177.851C201.623 177.851 201.991 177.925 202.338 178.072C202.693 178.219 203.005 178.436 203.274 178.722C203.543 179.008 203.755 179.359 203.911 179.775C204.076 180.182 204.158 180.65 204.158 181.179C204.158 181.699 204.076 182.167 203.911 182.583C203.755 182.99 203.543 183.337 203.274 183.623C203.005 183.9 202.693 184.113 202.338 184.26C201.991 184.407 201.623 184.481 201.233 184.481ZM201.233 183.597C201.502 183.597 201.749 183.541 201.974 183.428C202.199 183.307 202.39 183.142 202.546 182.934C202.711 182.717 202.836 182.462 202.923 182.167C203.01 181.872 203.053 181.543 203.053 181.179C203.053 180.815 203.01 180.486 202.923 180.191C202.836 179.888 202.711 179.628 202.546 179.411C202.39 179.194 202.199 179.03 201.974 178.917C201.749 178.796 201.502 178.735 201.233 178.735C200.964 178.735 200.717 178.796 200.492 178.917C200.267 179.03 200.072 179.194 199.907 179.411C199.751 179.628 199.63 179.888 199.543 180.191C199.456 180.486 199.413 180.815 199.413 181.179C199.413 181.543 199.456 181.872 199.543 182.167C199.63 182.462 199.751 182.717 199.907 182.934C200.072 183.142 200.267 183.307 200.492 183.428C200.717 183.541 200.964 183.597 201.233 183.597ZM207.6 184.481C207.072 184.481 206.63 184.325 206.274 184.013C205.928 183.701 205.754 183.259 205.754 182.687C205.754 181.994 206.062 181.465 206.677 181.101C207.293 180.728 208.276 180.468 209.628 180.321C209.628 180.122 209.607 179.927 209.563 179.736C209.529 179.545 209.464 179.376 209.368 179.229C209.273 179.082 209.139 178.965 208.965 178.878C208.801 178.783 208.588 178.735 208.328 178.735C207.964 178.735 207.622 178.804 207.301 178.943C206.981 179.082 206.695 179.238 206.443 179.411L206.027 178.67C206.322 178.479 206.682 178.297 207.106 178.124C207.531 177.942 207.999 177.851 208.51 177.851C209.282 177.851 209.841 178.089 210.187 178.566C210.534 179.034 210.707 179.662 210.707 180.451V184.325H209.823L209.732 183.571H209.693C209.39 183.822 209.065 184.039 208.718 184.221C208.372 184.394 207.999 184.481 207.6 184.481ZM207.912 183.623C208.216 183.623 208.502 183.554 208.77 183.415C209.039 183.268 209.325 183.055 209.628 182.778V181.023C209.1 181.092 208.653 181.175 208.289 181.27C207.934 181.365 207.644 181.478 207.418 181.608C207.202 181.738 207.041 181.89 206.937 182.063C206.842 182.228 206.794 182.41 206.794 182.609C206.794 182.973 206.903 183.233 207.119 183.389C207.336 183.545 207.6 183.623 207.912 183.623ZM215.353 184.481C214.556 184.481 213.919 184.195 213.442 183.623C212.974 183.051 212.74 182.236 212.74 181.179C212.74 180.668 212.814 180.208 212.961 179.801C213.117 179.385 213.321 179.034 213.572 178.748C213.823 178.462 214.114 178.241 214.443 178.085C214.772 177.929 215.119 177.851 215.483 177.851C215.847 177.851 216.163 177.916 216.432 178.046C216.701 178.176 216.974 178.354 217.251 178.579L217.199 177.5V175.069H218.278V184.325H217.394L217.303 183.584H217.264C217.013 183.827 216.722 184.039 216.393 184.221C216.072 184.394 215.726 184.481 215.353 184.481ZM215.587 183.584C215.882 183.584 216.159 183.515 216.419 183.376C216.679 183.229 216.939 183.008 217.199 182.713V179.411C216.93 179.168 216.67 178.999 216.419 178.904C216.176 178.8 215.925 178.748 215.665 178.748C215.414 178.748 215.175 178.809 214.95 178.93C214.733 179.043 214.543 179.207 214.378 179.424C214.213 179.632 214.083 179.883 213.988 180.178C213.893 180.473 213.845 180.802 213.845 181.166C213.845 181.929 213.997 182.522 214.3 182.947C214.603 183.372 215.032 183.584 215.587 183.584ZM224.009 184.325V178.007H225.075V184.325H224.009ZM224.555 176.707C224.347 176.707 224.169 176.642 224.022 176.512C223.883 176.382 223.814 176.217 223.814 176.018C223.814 175.81 223.883 175.645 224.022 175.524C224.169 175.394 224.347 175.329 224.555 175.329C224.763 175.329 224.936 175.394 225.075 175.524C225.222 175.645 225.296 175.81 225.296 176.018C225.296 176.217 225.222 176.382 225.075 176.512C224.936 176.642 224.763 176.707 224.555 176.707ZM227.708 184.325V178.007H228.592L228.683 178.917H228.722C228.999 178.614 229.298 178.362 229.619 178.163C229.948 177.955 230.303 177.851 230.685 177.851C231.17 177.851 231.547 177.959 231.816 178.176C232.093 178.384 232.297 178.679 232.427 179.06C232.756 178.696 233.085 178.406 233.415 178.189C233.753 177.964 234.117 177.851 234.507 177.851C235.157 177.851 235.638 178.059 235.95 178.475C236.27 178.891 236.431 179.506 236.431 180.321V184.325H235.365V180.464C235.365 179.866 235.269 179.437 235.079 179.177C234.888 178.908 234.593 178.774 234.195 178.774C233.718 178.774 233.189 179.099 232.609 179.749V184.325H231.543V180.464C231.543 179.866 231.447 179.437 231.257 179.177C231.066 178.908 230.767 178.774 230.36 178.774C229.883 178.774 229.354 179.099 228.774 179.749V184.325H227.708ZM240.442 184.481C239.913 184.481 239.471 184.325 239.116 184.013C238.769 183.701 238.596 183.259 238.596 182.687C238.596 181.994 238.904 181.465 239.519 181.101C240.134 180.728 241.118 180.468 242.47 180.321C242.47 180.122 242.448 179.927 242.405 179.736C242.37 179.545 242.305 179.376 242.21 179.229C242.115 179.082 241.98 178.965 241.807 178.878C241.642 178.783 241.43 178.735 241.17 178.735C240.806 178.735 240.464 178.804 240.143 178.943C239.822 179.082 239.536 179.238 239.285 179.411L238.869 178.67C239.164 178.479 239.523 178.297 239.948 178.124C240.373 177.942 240.841 177.851 241.352 177.851C242.123 177.851 242.682 178.089 243.029 178.566C243.376 179.034 243.549 179.662 243.549 180.451V184.325H242.665L242.574 183.571H242.535C242.232 183.822 241.907 184.039 241.56 184.221C241.213 184.394 240.841 184.481 240.442 184.481ZM240.754 183.623C241.057 183.623 241.343 183.554 241.612 183.415C241.881 183.268 242.167 183.055 242.47 182.778V181.023C241.941 181.092 241.495 181.175 241.131 181.27C240.776 181.365 240.485 181.478 240.26 181.608C240.043 181.738 239.883 181.89 239.779 182.063C239.684 182.228 239.636 182.41 239.636 182.609C239.636 182.973 239.744 183.233 239.961 183.389C240.178 183.545 240.442 183.623 240.754 183.623ZM248.169 187.237C247.779 187.237 247.424 187.198 247.103 187.12C246.782 187.051 246.505 186.942 246.271 186.795C246.046 186.648 245.868 186.47 245.738 186.262C245.617 186.054 245.556 185.811 245.556 185.534C245.556 185.265 245.638 185.01 245.803 184.767C245.968 184.524 246.193 184.303 246.479 184.104V184.052C246.323 183.957 246.189 183.827 246.076 183.662C245.972 183.489 245.92 183.276 245.92 183.025C245.92 182.756 245.994 182.522 246.141 182.323C246.288 182.124 246.444 181.968 246.609 181.855V181.803C246.401 181.63 246.21 181.4 246.037 181.114C245.872 180.819 245.79 180.481 245.79 180.1C245.79 179.753 245.851 179.441 245.972 179.164C246.102 178.887 246.275 178.653 246.492 178.462C246.709 178.263 246.96 178.111 247.246 178.007C247.541 177.903 247.848 177.851 248.169 177.851C248.342 177.851 248.503 177.868 248.65 177.903C248.806 177.929 248.945 177.964 249.066 178.007H251.263V178.826H249.963C250.11 178.973 250.232 179.16 250.327 179.385C250.431 179.61 250.483 179.857 250.483 180.126C250.483 180.464 250.422 180.772 250.301 181.049C250.18 181.318 250.015 181.547 249.807 181.738C249.599 181.92 249.352 182.063 249.066 182.167C248.789 182.271 248.49 182.323 248.169 182.323C248.013 182.323 247.853 182.306 247.688 182.271C247.523 182.228 247.367 182.171 247.22 182.102C247.107 182.197 247.012 182.306 246.934 182.427C246.856 182.54 246.817 182.683 246.817 182.856C246.817 183.055 246.895 183.22 247.051 183.35C247.207 183.48 247.502 183.545 247.935 183.545H249.157C249.894 183.545 250.444 183.666 250.808 183.909C251.181 184.143 251.367 184.524 251.367 185.053C251.367 185.348 251.293 185.625 251.146 185.885C250.999 186.154 250.786 186.388 250.509 186.587C250.232 186.786 249.894 186.942 249.495 187.055C249.105 187.176 248.663 187.237 248.169 187.237ZM248.169 181.608C248.351 181.608 248.52 181.573 248.676 181.504C248.841 181.435 248.984 181.335 249.105 181.205C249.235 181.075 249.335 180.919 249.404 180.737C249.473 180.546 249.508 180.334 249.508 180.1C249.508 179.632 249.378 179.272 249.118 179.021C248.858 178.761 248.542 178.631 248.169 178.631C247.796 178.631 247.48 178.761 247.22 179.021C246.96 179.272 246.83 179.632 246.83 180.1C246.83 180.334 246.865 180.546 246.934 180.737C247.003 180.919 247.099 181.075 247.22 181.205C247.35 181.335 247.493 181.435 247.649 181.504C247.814 181.573 247.987 181.608 248.169 181.608ZM248.325 186.496C248.628 186.496 248.901 186.457 249.144 186.379C249.395 186.31 249.608 186.214 249.781 186.093C249.954 185.98 250.089 185.846 250.184 185.69C250.279 185.534 250.327 185.374 250.327 185.209C250.327 184.914 250.219 184.711 250.002 184.598C249.785 184.485 249.469 184.429 249.053 184.429H247.961C247.84 184.429 247.705 184.42 247.558 184.403C247.419 184.394 247.281 184.368 247.142 184.325C246.917 184.49 246.752 184.663 246.648 184.845C246.544 185.027 246.492 185.209 246.492 185.391C246.492 185.729 246.652 185.998 246.973 186.197C247.302 186.396 247.753 186.496 248.325 186.496ZM255.471 184.481C255.046 184.481 254.648 184.407 254.275 184.26C253.911 184.104 253.59 183.887 253.313 183.61C253.044 183.324 252.832 182.977 252.676 182.57C252.52 182.163 252.442 181.699 252.442 181.179C252.442 180.659 252.52 180.195 252.676 179.788C252.841 179.372 253.053 179.021 253.313 178.735C253.582 178.449 253.885 178.232 254.223 178.085C254.561 177.929 254.912 177.851 255.276 177.851C255.675 177.851 256.03 177.92 256.342 178.059C256.663 178.198 256.927 178.397 257.135 178.657C257.352 178.917 257.516 179.229 257.629 179.593C257.742 179.957 257.798 180.364 257.798 180.815C257.798 180.928 257.794 181.04 257.785 181.153C257.785 181.257 257.776 181.348 257.759 181.426H253.495C253.538 182.102 253.746 182.639 254.119 183.038C254.5 183.428 254.994 183.623 255.601 183.623C255.904 183.623 256.182 183.58 256.433 183.493C256.693 183.398 256.94 183.276 257.174 183.129L257.551 183.831C257.274 184.004 256.966 184.156 256.628 184.286C256.29 184.416 255.904 184.481 255.471 184.481ZM253.482 180.659H256.862C256.862 180.018 256.723 179.532 256.446 179.203C256.177 178.865 255.796 178.696 255.302 178.696C255.077 178.696 254.86 178.739 254.652 178.826C254.453 178.913 254.271 179.043 254.106 179.216C253.941 179.381 253.803 179.584 253.69 179.827C253.586 180.07 253.517 180.347 253.482 180.659Z" fill="#103FEF"/>
<rect x="117.3" y="147.3" width="44" height="44" rx="6" fill="black" fill-opacity="0.24"/>
<path d="M121.616 221.256C121.079 221.256 120.585 221.152 120.134 220.944C119.692 220.736 119.311 220.441 118.99 220.06C118.669 219.67 118.418 219.202 118.236 218.656C118.063 218.101 117.976 217.482 117.976 216.797C117.976 216.112 118.063 215.501 118.236 214.964C118.418 214.418 118.669 213.959 118.99 213.586C119.311 213.205 119.692 212.914 120.134 212.715C120.585 212.516 121.079 212.416 121.616 212.416C122.153 212.416 122.643 212.52 123.085 212.728C123.536 212.927 123.921 213.218 124.242 213.599C124.571 213.972 124.823 214.431 124.996 214.977C125.178 215.514 125.269 216.121 125.269 216.797C125.269 217.482 125.178 218.101 124.996 218.656C124.823 219.202 124.571 219.67 124.242 220.06C123.921 220.441 123.536 220.736 123.085 220.944C122.643 221.152 122.153 221.256 121.616 221.256ZM121.616 220.307C121.997 220.307 122.34 220.225 122.643 220.06C122.955 219.895 123.219 219.661 123.436 219.358C123.661 219.046 123.835 218.678 123.956 218.253C124.077 217.82 124.138 217.334 124.138 216.797C124.138 216.268 124.077 215.792 123.956 215.367C123.835 214.942 123.661 214.583 123.436 214.288C123.219 213.993 122.955 213.768 122.643 213.612C122.34 213.447 121.997 213.365 121.616 213.365C121.235 213.365 120.888 213.447 120.576 213.612C120.273 213.768 120.008 213.993 119.783 214.288C119.566 214.583 119.397 214.942 119.276 215.367C119.155 215.792 119.094 216.268 119.094 216.797C119.094 217.334 119.155 217.82 119.276 218.253C119.397 218.678 119.566 219.046 119.783 219.358C120.008 219.661 120.273 219.895 120.576 220.06C120.888 220.225 121.235 220.307 121.616 220.307ZM126.999 221.1V214.782H127.883L127.974 215.926H128.013C128.229 215.527 128.489 215.211 128.793 214.977C129.105 214.743 129.443 214.626 129.807 214.626C130.058 214.626 130.283 214.669 130.483 214.756L130.275 215.692C130.171 215.657 130.075 215.631 129.989 215.614C129.902 215.597 129.794 215.588 129.664 215.588C129.395 215.588 129.113 215.696 128.819 215.913C128.533 216.13 128.281 216.507 128.065 217.044V221.1H126.999ZM133.511 224.012C133.121 224.012 132.765 223.973 132.445 223.895C132.124 223.826 131.847 223.717 131.613 223.57C131.387 223.423 131.21 223.245 131.08 223.037C130.958 222.829 130.898 222.586 130.898 222.309C130.898 222.04 130.98 221.785 131.145 221.542C131.309 221.299 131.535 221.078 131.821 220.879V220.827C131.665 220.732 131.53 220.602 131.418 220.437C131.314 220.264 131.262 220.051 131.262 219.8C131.262 219.531 131.335 219.297 131.483 219.098C131.63 218.899 131.786 218.743 131.951 218.63V218.578C131.743 218.405 131.552 218.175 131.379 217.889C131.214 217.594 131.132 217.256 131.132 216.875C131.132 216.528 131.192 216.216 131.314 215.939C131.444 215.662 131.617 215.428 131.834 215.237C132.05 215.038 132.302 214.886 132.588 214.782C132.882 214.678 133.19 214.626 133.511 214.626C133.684 214.626 133.844 214.643 133.992 214.678C134.148 214.704 134.286 214.739 134.408 214.782H136.605V215.601H135.305C135.452 215.748 135.573 215.935 135.669 216.16C135.773 216.385 135.825 216.632 135.825 216.901C135.825 217.239 135.764 217.547 135.643 217.824C135.521 218.093 135.357 218.322 135.149 218.513C134.941 218.695 134.694 218.838 134.408 218.942C134.13 219.046 133.831 219.098 133.511 219.098C133.355 219.098 133.194 219.081 133.03 219.046C132.865 219.003 132.709 218.946 132.562 218.877C132.449 218.972 132.354 219.081 132.276 219.202C132.198 219.315 132.159 219.458 132.159 219.631C132.159 219.83 132.237 219.995 132.393 220.125C132.549 220.255 132.843 220.32 133.277 220.32H134.499C135.235 220.32 135.786 220.441 136.15 220.684C136.522 220.918 136.709 221.299 136.709 221.828C136.709 222.123 136.635 222.4 136.488 222.66C136.34 222.929 136.128 223.163 135.851 223.362C135.573 223.561 135.235 223.717 134.837 223.83C134.447 223.951 134.005 224.012 133.511 224.012ZM133.511 218.383C133.693 218.383 133.862 218.348 134.018 218.279C134.182 218.21 134.325 218.11 134.447 217.98C134.577 217.85 134.676 217.694 134.746 217.512C134.815 217.321 134.85 217.109 134.85 216.875C134.85 216.407 134.72 216.047 134.46 215.796C134.2 215.536 133.883 215.406 133.511 215.406C133.138 215.406 132.822 215.536 132.562 215.796C132.302 216.047 132.172 216.407 132.172 216.875C132.172 217.109 132.206 217.321 132.276 217.512C132.345 217.694 132.44 217.85 132.562 217.98C132.692 218.11 132.835 218.21 132.991 218.279C133.155 218.348 133.329 218.383 133.511 218.383ZM133.667 223.271C133.97 223.271 134.243 223.232 134.486 223.154C134.737 223.085 134.949 222.989 135.123 222.868C135.296 222.755 135.43 222.621 135.526 222.465C135.621 222.309 135.669 222.149 135.669 221.984C135.669 221.689 135.56 221.486 135.344 221.373C135.127 221.26 134.811 221.204 134.395 221.204H133.303C133.181 221.204 133.047 221.195 132.9 221.178C132.761 221.169 132.622 221.143 132.484 221.1C132.258 221.265 132.094 221.438 131.99 221.62C131.886 221.802 131.834 221.984 131.834 222.166C131.834 222.504 131.994 222.773 132.315 222.972C132.644 223.171 133.095 223.271 133.667 223.271ZM139.182 221.256C138.654 221.256 138.212 221.1 137.856 220.788C137.51 220.476 137.336 220.034 137.336 219.462C137.336 218.769 137.644 218.24 138.259 217.876C138.875 217.503 139.858 217.243 141.21 217.096C141.21 216.897 141.189 216.702 141.145 216.511C141.111 216.32 141.046 216.151 140.95 216.004C140.855 215.857 140.721 215.74 140.547 215.653C140.383 215.558 140.17 215.51 139.91 215.51C139.546 215.51 139.204 215.579 138.883 215.718C138.563 215.857 138.277 216.013 138.025 216.186L137.609 215.445C137.904 215.254 138.264 215.072 138.688 214.899C139.113 214.717 139.581 214.626 140.092 214.626C140.864 214.626 141.423 214.864 141.769 215.341C142.116 215.809 142.289 216.437 142.289 217.226V221.1H141.405L141.314 220.346H141.275C140.972 220.597 140.647 220.814 140.3 220.996C139.954 221.169 139.581 221.256 139.182 221.256ZM139.494 220.398C139.798 220.398 140.084 220.329 140.352 220.19C140.621 220.043 140.907 219.83 141.21 219.553V217.798C140.682 217.867 140.235 217.95 139.871 218.045C139.516 218.14 139.226 218.253 139 218.383C138.784 218.513 138.623 218.665 138.519 218.838C138.424 219.003 138.376 219.185 138.376 219.384C138.376 219.748 138.485 220.008 138.701 220.164C138.918 220.32 139.182 220.398 139.494 220.398ZM144.277 221.1V214.782H145.161L145.252 215.692H145.291C145.594 215.389 145.911 215.137 146.24 214.938C146.578 214.73 146.968 214.626 147.41 214.626C148.077 214.626 148.563 214.834 148.866 215.25C149.178 215.666 149.334 216.281 149.334 217.096V221.1H148.268V217.239C148.268 216.641 148.173 216.212 147.982 215.952C147.791 215.683 147.488 215.549 147.072 215.549C146.743 215.549 146.452 215.631 146.201 215.796C145.95 215.961 145.664 216.203 145.343 216.524V221.1H144.277ZM151.387 221.1V214.782H152.453V221.1H151.387ZM151.933 213.482C151.725 213.482 151.547 213.417 151.4 213.287C151.261 213.157 151.192 212.992 151.192 212.793C151.192 212.585 151.261 212.42 151.4 212.299C151.547 212.169 151.725 212.104 151.933 212.104C152.141 212.104 152.314 212.169 152.453 212.299C152.6 212.42 152.674 212.585 152.674 212.793C152.674 212.992 152.6 213.157 152.453 213.287C152.314 213.417 152.141 213.482 151.933 213.482ZM153.923 221.1V220.528L157.251 215.653H154.287V214.782H158.603V215.354L155.275 220.229H158.707V221.1H153.923ZM161.259 221.256C160.731 221.256 160.289 221.1 159.933 220.788C159.587 220.476 159.413 220.034 159.413 219.462C159.413 218.769 159.721 218.24 160.336 217.876C160.952 217.503 161.935 217.243 163.287 217.096C163.287 216.897 163.266 216.702 163.222 216.511C163.188 216.32 163.123 216.151 163.027 216.004C162.932 215.857 162.798 215.74 162.624 215.653C162.46 215.558 162.247 215.51 161.987 215.51C161.623 215.51 161.281 215.579 160.96 215.718C160.64 215.857 160.354 216.013 160.102 216.186L159.686 215.445C159.981 215.254 160.341 215.072 160.765 214.899C161.19 214.717 161.658 214.626 162.169 214.626C162.941 214.626 163.5 214.864 163.846 215.341C164.193 215.809 164.366 216.437 164.366 217.226V221.1H163.482L163.391 220.346H163.352C163.049 220.597 162.724 220.814 162.377 220.996C162.031 221.169 161.658 221.256 161.259 221.256ZM161.571 220.398C161.875 220.398 162.161 220.329 162.429 220.19C162.698 220.043 162.984 219.83 163.287 219.553V217.798C162.759 217.867 162.312 217.95 161.948 218.045C161.593 218.14 161.303 218.253 161.077 218.383C160.861 218.513 160.7 218.665 160.596 218.838C160.501 219.003 160.453 219.185 160.453 219.384C160.453 219.748 160.562 220.008 160.778 220.164C160.995 220.32 161.259 220.398 161.571 220.398ZM168.166 221.256C167.828 221.256 167.542 221.204 167.308 221.1C167.082 220.996 166.896 220.853 166.749 220.671C166.61 220.489 166.51 220.268 166.45 220.008C166.389 219.748 166.359 219.462 166.359 219.15V215.653H165.423V214.847L166.411 214.782L166.541 213.014H167.438V214.782H169.141V215.653H167.438V219.163C167.438 219.553 167.507 219.856 167.646 220.073C167.793 220.281 168.049 220.385 168.413 220.385C168.525 220.385 168.647 220.368 168.777 220.333C168.907 220.298 169.024 220.259 169.128 220.216L169.336 221.022C169.162 221.083 168.972 221.135 168.764 221.178C168.564 221.23 168.365 221.256 168.166 221.256ZM170.569 221.1V214.782H171.635V221.1H170.569ZM171.115 213.482C170.907 213.482 170.729 213.417 170.582 213.287C170.443 213.157 170.374 212.992 170.374 212.793C170.374 212.585 170.443 212.42 170.582 212.299C170.729 212.169 170.907 212.104 171.115 212.104C171.323 212.104 171.496 212.169 171.635 212.299C171.782 212.42 171.856 212.585 171.856 212.793C171.856 212.992 171.782 213.157 171.635 213.287C171.496 213.417 171.323 213.482 171.115 213.482ZM176.225 221.256C175.835 221.256 175.463 221.182 175.107 221.035C174.761 220.888 174.453 220.675 174.184 220.398C173.916 220.112 173.699 219.765 173.534 219.358C173.378 218.942 173.3 218.474 173.3 217.954C173.3 217.425 173.378 216.957 173.534 216.55C173.699 216.134 173.916 215.783 174.184 215.497C174.453 215.211 174.761 214.994 175.107 214.847C175.463 214.7 175.835 214.626 176.225 214.626C176.615 214.626 176.984 214.7 177.33 214.847C177.686 214.994 177.998 215.211 178.266 215.497C178.535 215.783 178.747 216.134 178.903 216.55C179.068 216.957 179.15 217.425 179.15 217.954C179.15 218.474 179.068 218.942 178.903 219.358C178.747 219.765 178.535 220.112 178.266 220.398C177.998 220.675 177.686 220.888 177.33 221.035C176.984 221.182 176.615 221.256 176.225 221.256ZM176.225 220.372C176.494 220.372 176.741 220.316 176.966 220.203C177.192 220.082 177.382 219.917 177.538 219.709C177.703 219.492 177.829 219.237 177.915 218.942C178.002 218.647 178.045 218.318 178.045 217.954C178.045 217.59 178.002 217.261 177.915 216.966C177.829 216.663 177.703 216.403 177.538 216.186C177.382 215.969 177.192 215.805 176.966 215.692C176.741 215.571 176.494 215.51 176.225 215.51C175.957 215.51 175.71 215.571 175.484 215.692C175.259 215.805 175.064 215.969 174.899 216.186C174.743 216.403 174.622 216.663 174.535 216.966C174.449 217.261 174.405 217.59 174.405 217.954C174.405 218.318 174.449 218.647 174.535 218.942C174.622 219.237 174.743 219.492 174.899 219.709C175.064 219.917 175.259 220.082 175.484 220.203C175.71 220.316 175.957 220.372 176.225 220.372ZM180.814 221.1V214.782H181.698L181.789 215.692H181.828C182.132 215.389 182.448 215.137 182.777 214.938C183.115 214.73 183.505 214.626 183.947 214.626C184.615 214.626 185.1 214.834 185.403 215.25C185.715 215.666 185.871 216.281 185.871 217.096V221.1H184.805V217.239C184.805 216.641 184.71 216.212 184.519 215.952C184.329 215.683 184.025 215.549 183.609 215.549C183.28 215.549 182.99 215.631 182.738 215.796C182.487 215.961 182.201 216.203 181.88 216.524V221.1H180.814ZM190.526 221.1V214.782H191.41L191.501 215.692H191.54C191.843 215.389 192.16 215.137 192.489 214.938C192.827 214.73 193.217 214.626 193.659 214.626C194.326 214.626 194.812 214.834 195.115 215.25C195.427 215.666 195.583 216.281 195.583 217.096V221.1H194.517V217.239C194.517 216.641 194.422 216.212 194.231 215.952C194.04 215.683 193.737 215.549 193.321 215.549C192.992 215.549 192.701 215.631 192.45 215.796C192.199 215.961 191.913 216.203 191.592 216.524V221.1H190.526ZM199.092 221.256C198.563 221.256 198.121 221.1 197.766 220.788C197.419 220.476 197.246 220.034 197.246 219.462C197.246 218.769 197.553 218.24 198.169 217.876C198.784 217.503 199.768 217.243 201.12 217.096C201.12 216.897 201.098 216.702 201.055 216.511C201.02 216.32 200.955 216.151 200.86 216.004C200.764 215.857 200.63 215.74 200.457 215.653C200.292 215.558 200.08 215.51 199.82 215.51C199.456 215.51 199.113 215.579 198.793 215.718C198.472 215.857 198.186 216.013 197.935 216.186L197.519 215.445C197.813 215.254 198.173 215.072 198.598 214.899C199.022 214.717 199.49 214.626 200.002 214.626C200.773 214.626 201.332 214.864 201.679 215.341C202.025 215.809 202.199 216.437 202.199 217.226V221.1H201.315L201.224 220.346H201.185C200.881 220.597 200.556 220.814 200.21 220.996C199.863 221.169 199.49 221.256 199.092 221.256ZM199.404 220.398C199.707 220.398 199.993 220.329 200.262 220.19C200.53 220.043 200.816 219.83 201.12 219.553V217.798C200.591 217.867 200.145 217.95 199.781 218.045C199.425 218.14 199.135 218.253 198.91 218.383C198.693 218.513 198.533 218.665 198.429 218.838C198.333 219.003 198.286 219.185 198.286 219.384C198.286 219.748 198.394 220.008 198.611 220.164C198.827 220.32 199.092 220.398 199.404 220.398ZM204.186 221.1V214.782H205.07L205.161 215.692H205.2C205.478 215.389 205.777 215.137 206.097 214.938C206.427 214.73 206.782 214.626 207.163 214.626C207.649 214.626 208.026 214.734 208.294 214.951C208.572 215.159 208.775 215.454 208.905 215.835C209.235 215.471 209.564 215.181 209.893 214.964C210.231 214.739 210.595 214.626 210.985 214.626C211.635 214.626 212.116 214.834 212.428 215.25C212.749 215.666 212.909 216.281 212.909 217.096V221.1H211.843V217.239C211.843 216.641 211.748 216.212 211.557 215.952C211.367 215.683 211.072 215.549 210.673 215.549C210.197 215.549 209.668 215.874 209.087 216.524V221.1H208.021V217.239C208.021 216.641 207.926 216.212 207.735 215.952C207.545 215.683 207.246 215.549 206.838 215.549C206.362 215.549 205.833 215.874 205.252 216.524V221.1H204.186ZM217.526 221.256C217.101 221.256 216.702 221.182 216.33 221.035C215.966 220.879 215.645 220.662 215.368 220.385C215.099 220.099 214.887 219.752 214.731 219.345C214.575 218.938 214.497 218.474 214.497 217.954C214.497 217.434 214.575 216.97 214.731 216.563C214.895 216.147 215.108 215.796 215.368 215.51C215.636 215.224 215.94 215.007 216.278 214.86C216.616 214.704 216.967 214.626 217.331 214.626C217.729 214.626 218.085 214.695 218.397 214.834C218.717 214.973 218.982 215.172 219.19 215.432C219.406 215.692 219.571 216.004 219.684 216.368C219.796 216.732 219.853 217.139 219.853 217.59C219.853 217.703 219.848 217.815 219.84 217.928C219.84 218.032 219.831 218.123 219.814 218.201H215.55C215.593 218.877 215.801 219.414 216.174 219.813C216.555 220.203 217.049 220.398 217.656 220.398C217.959 220.398 218.236 220.355 218.488 220.268C218.748 220.173 218.995 220.051 219.229 219.904L219.606 220.606C219.328 220.779 219.021 220.931 218.683 221.061C218.345 221.191 217.959 221.256 217.526 221.256ZM215.537 217.434H218.917C218.917 216.793 218.778 216.307 218.501 215.978C218.232 215.64 217.851 215.471 217.357 215.471C217.131 215.471 216.915 215.514 216.707 215.601C216.507 215.688 216.325 215.818 216.161 215.991C215.996 216.156 215.857 216.359 215.745 216.602C215.641 216.845 215.571 217.122 215.537 217.434Z" fill="black"/>
<rect x="117.3" y="229.18" width="398.4" height="37.85" rx="6" fill="white"/>
<rect x="117.8" y="229.68" width="397.4" height="36.85" rx="5.5" stroke="black" stroke-opacity="0.16"/>
<path d="M120.836 296.986C120.238 296.986 119.683 296.873 119.172 296.648C118.661 296.423 118.219 296.115 117.846 295.725L118.496 294.971C118.799 295.292 119.155 295.552 119.562 295.751C119.978 295.942 120.407 296.037 120.849 296.037C121.412 296.037 121.85 295.911 122.162 295.66C122.474 295.4 122.63 295.062 122.63 294.646C122.63 294.429 122.591 294.247 122.513 294.1C122.444 293.944 122.344 293.814 122.214 293.71C122.093 293.597 121.945 293.498 121.772 293.411C121.599 293.324 121.412 293.233 121.213 293.138L119.991 292.605C119.792 292.518 119.588 292.414 119.38 292.293C119.172 292.172 118.986 292.024 118.821 291.851C118.656 291.678 118.522 291.474 118.418 291.24C118.314 290.997 118.262 290.72 118.262 290.408C118.262 290.087 118.327 289.788 118.457 289.511C118.596 289.234 118.782 288.995 119.016 288.796C119.259 288.588 119.54 288.428 119.861 288.315C120.19 288.202 120.55 288.146 120.94 288.146C121.451 288.146 121.924 288.246 122.357 288.445C122.79 288.636 123.159 288.887 123.462 289.199L122.877 289.901C122.617 289.65 122.327 289.455 122.006 289.316C121.694 289.169 121.339 289.095 120.94 289.095C120.463 289.095 120.078 289.208 119.783 289.433C119.497 289.65 119.354 289.953 119.354 290.343C119.354 290.551 119.393 290.729 119.471 290.876C119.558 291.015 119.67 291.14 119.809 291.253C119.948 291.357 120.099 291.452 120.264 291.539C120.429 291.617 120.598 291.691 120.771 291.76L121.98 292.28C122.223 292.384 122.452 292.505 122.669 292.644C122.886 292.774 123.072 292.93 123.228 293.112C123.384 293.285 123.505 293.493 123.592 293.736C123.687 293.97 123.735 294.243 123.735 294.555C123.735 294.893 123.666 295.209 123.527 295.504C123.397 295.799 123.206 296.059 122.955 296.284C122.704 296.501 122.4 296.674 122.045 296.804C121.69 296.925 121.287 296.986 120.836 296.986ZM126.441 296.986C126.034 296.986 125.744 296.865 125.57 296.622C125.397 296.379 125.31 296.024 125.31 295.556V287.574H126.376V295.634C126.376 295.807 126.407 295.929 126.467 295.998C126.528 296.067 126.597 296.102 126.675 296.102C126.71 296.102 126.74 296.102 126.766 296.102C126.801 296.102 126.849 296.093 126.909 296.076L127.052 296.882C126.983 296.917 126.901 296.943 126.805 296.96C126.71 296.977 126.589 296.986 126.441 296.986ZM130.47 296.986C129.794 296.986 129.3 296.778 128.988 296.362C128.684 295.946 128.533 295.331 128.533 294.516V290.512H129.612V294.373C129.612 294.971 129.703 295.404 129.885 295.673C130.075 295.933 130.379 296.063 130.795 296.063C131.124 296.063 131.414 295.981 131.666 295.816C131.917 295.643 132.194 295.37 132.498 294.997V290.512H133.564V296.83H132.68L132.589 295.842H132.55C132.255 296.189 131.943 296.466 131.614 296.674C131.293 296.882 130.912 296.986 130.47 296.986ZM137.827 299.742C137.437 299.742 137.082 299.703 136.761 299.625C136.44 299.556 136.163 299.447 135.929 299.3C135.704 299.153 135.526 298.975 135.396 298.767C135.275 298.559 135.214 298.316 135.214 298.039C135.214 297.77 135.296 297.515 135.461 297.272C135.626 297.029 135.851 296.808 136.137 296.609V296.557C135.981 296.462 135.847 296.332 135.734 296.167C135.63 295.994 135.578 295.781 135.578 295.53C135.578 295.261 135.652 295.027 135.799 294.828C135.946 294.629 136.102 294.473 136.267 294.36V294.308C136.059 294.135 135.868 293.905 135.695 293.619C135.53 293.324 135.448 292.986 135.448 292.605C135.448 292.258 135.509 291.946 135.63 291.669C135.76 291.392 135.933 291.158 136.15 290.967C136.367 290.768 136.618 290.616 136.904 290.512C137.199 290.408 137.506 290.356 137.827 290.356C138 290.356 138.161 290.373 138.308 290.408C138.464 290.434 138.603 290.469 138.724 290.512H140.921V291.331H139.621C139.768 291.478 139.89 291.665 139.985 291.89C140.089 292.115 140.141 292.362 140.141 292.631C140.141 292.969 140.08 293.277 139.959 293.554C139.838 293.823 139.673 294.052 139.465 294.243C139.257 294.425 139.01 294.568 138.724 294.672C138.447 294.776 138.148 294.828 137.827 294.828C137.671 294.828 137.511 294.811 137.346 294.776C137.181 294.733 137.025 294.676 136.878 294.607C136.765 294.702 136.67 294.811 136.592 294.932C136.514 295.045 136.475 295.188 136.475 295.361C136.475 295.56 136.553 295.725 136.709 295.855C136.865 295.985 137.16 296.05 137.593 296.05H138.815C139.552 296.05 140.102 296.171 140.466 296.414C140.839 296.648 141.025 297.029 141.025 297.558C141.025 297.853 140.951 298.13 140.804 298.39C140.657 298.659 140.444 298.893 140.167 299.092C139.89 299.291 139.552 299.447 139.153 299.56C138.763 299.681 138.321 299.742 137.827 299.742ZM137.827 294.113C138.009 294.113 138.178 294.078 138.334 294.009C138.499 293.94 138.642 293.84 138.763 293.71C138.893 293.58 138.993 293.424 139.062 293.242C139.131 293.051 139.166 292.839 139.166 292.605C139.166 292.137 139.036 291.777 138.776 291.526C138.516 291.266 138.2 291.136 137.827 291.136C137.454 291.136 137.138 291.266 136.878 291.526C136.618 291.777 136.488 292.137 136.488 292.605C136.488 292.839 136.523 293.051 136.592 293.242C136.661 293.424 136.757 293.58 136.878 293.71C137.008 293.84 137.151 293.94 137.307 294.009C137.472 294.078 137.645 294.113 137.827 294.113ZM137.983 299.001C138.286 299.001 138.559 298.962 138.802 298.884C139.053 298.815 139.266 298.719 139.439 298.598C139.612 298.485 139.747 298.351 139.842 298.195C139.937 298.039 139.985 297.879 139.985 297.714C139.985 297.419 139.877 297.216 139.66 297.103C139.443 296.99 139.127 296.934 138.711 296.934H137.619C137.498 296.934 137.363 296.925 137.216 296.908C137.077 296.899 136.939 296.873 136.8 296.83C136.575 296.995 136.41 297.168 136.306 297.35C136.202 297.532 136.15 297.714 136.15 297.896C136.15 298.234 136.31 298.503 136.631 298.702C136.96 298.901 137.411 299.001 137.983 299.001ZM147.981 296.986C147.548 296.986 147.141 296.925 146.759 296.804C146.387 296.674 146.062 296.466 145.784 296.18C145.516 295.885 145.303 295.504 145.147 295.036C144.991 294.568 144.913 293.992 144.913 293.307V288.302H145.992V293.333C145.992 293.844 146.044 294.273 146.148 294.62C146.252 294.967 146.391 295.244 146.564 295.452C146.746 295.66 146.959 295.812 147.201 295.907C147.444 295.994 147.704 296.037 147.981 296.037C148.267 296.037 148.532 295.994 148.774 295.907C149.017 295.812 149.229 295.66 149.411 295.452C149.593 295.244 149.736 294.967 149.84 294.62C149.944 294.273 149.996 293.844 149.996 293.333V288.302H151.036V293.307C151.036 293.992 150.958 294.568 150.802 295.036C150.646 295.504 150.43 295.885 150.152 296.18C149.884 296.466 149.563 296.674 149.19 296.804C148.818 296.925 148.415 296.986 147.981 296.986ZM153.331 296.83V288.302H155.996C156.43 288.302 156.828 288.345 157.192 288.432C157.565 288.51 157.881 288.644 158.141 288.835C158.41 289.026 158.618 289.273 158.765 289.576C158.913 289.879 158.986 290.252 158.986 290.694C158.986 291.361 158.813 291.894 158.466 292.293C158.12 292.692 157.652 292.965 157.062 293.112L159.233 296.83H158.011L155.957 293.229H154.41V296.83H153.331ZM154.41 292.345H155.84C156.508 292.345 157.019 292.211 157.374 291.942C157.73 291.665 157.907 291.249 157.907 290.694C157.907 290.131 157.73 289.736 157.374 289.511C157.019 289.286 156.508 289.173 155.84 289.173H154.41V292.345ZM160.733 296.83V288.302H161.812V295.907H165.543V296.83H160.733Z" fill="black"/>
<g clip-path="url(#clip1_1_2)">
<path fill-rule="evenodd" clip-rule="evenodd" d="M183.204 291.83C183.204 293.77 182.434 295.63 181.062 297.002C179.69 298.374 177.83 299.144 175.89 299.144C173.95 299.144 172.09 298.374 170.718 297.002C169.346 295.63 168.576 293.77 168.576 291.83C168.576 289.89 169.346 288.03 170.718 286.658C172.09 285.286 173.95 284.516 175.89 284.516C177.83 284.516 179.69 285.286 181.062 286.658C182.434 288.03 183.204 289.89 183.204 291.83ZM175.89 289.087C175.729 289.087 175.572 289.129 175.433 289.21C175.294 289.29 175.178 289.405 175.098 289.544C175.04 289.652 174.961 289.746 174.865 289.822C174.77 289.898 174.66 289.955 174.543 289.988C174.425 290.021 174.302 290.03 174.181 290.015C174.06 290 173.943 289.961 173.837 289.9C173.732 289.839 173.639 289.757 173.565 289.66C173.492 289.562 173.438 289.451 173.408 289.333C173.378 289.214 173.372 289.091 173.391 288.971C173.409 288.85 173.451 288.734 173.515 288.63C173.736 288.247 174.047 287.924 174.42 287.687C174.793 287.45 175.218 287.307 175.658 287.27C176.098 287.233 176.541 287.302 176.949 287.473C177.357 287.644 177.717 287.91 177.999 288.25C178.282 288.59 178.478 288.993 178.571 289.425C178.664 289.857 178.651 290.305 178.534 290.731C178.417 291.157 178.198 291.549 177.897 291.872C177.596 292.196 177.221 292.441 176.804 292.589V292.744C176.804 292.987 176.708 293.219 176.536 293.391C176.365 293.562 176.132 293.659 175.89 293.659C175.648 293.659 175.415 293.562 175.244 293.391C175.072 293.219 174.976 292.987 174.976 292.744V291.83C174.976 291.587 175.072 291.355 175.244 291.183C175.415 291.012 175.648 290.916 175.89 290.916C176.132 290.916 176.365 290.819 176.536 290.648C176.708 290.476 176.804 290.244 176.804 290.001C176.804 289.759 176.708 289.526 176.536 289.355C176.365 289.183 176.132 289.087 175.89 289.087ZM175.89 296.401C176.132 296.401 176.365 296.305 176.536 296.134C176.708 295.962 176.804 295.73 176.804 295.487C176.804 295.245 176.708 295.012 176.536 294.841C176.365 294.669 176.132 294.573 175.89 294.573C175.648 294.573 175.415 294.669 175.244 294.841C175.072 295.012 174.976 295.245 174.976 295.487C174.976 295.73 175.072 295.962 175.244 296.134C175.415 296.305 175.648 296.401 175.89 296.401Z" fill="black" fill-opacity="0.24"/>
</g>
<rect x="117.3" y="304.9" width="398.4" height="37.85" rx="6" fill="white"/>
<rect x="117.8" y="305.4" width="397.4" height="36.85" rx="5.5" stroke="black" stroke-opacity="0.16"/>
<g opacity="0.5">
<rect x="355.58" y="374.75" width="160.13" height="36" rx="6" fill="#103FEF"/>
<path d="M379.563 394.982C379.109 394.982 378.683 394.901 378.287 394.74C377.891 394.579 377.547 394.34 377.253 394.025C376.967 393.71 376.74 393.321 376.571 392.859C376.403 392.397 376.318 391.869 376.318 391.275C376.318 390.688 376.403 390.164 376.571 389.702C376.747 389.233 376.982 388.837 377.275 388.514C377.576 388.191 377.924 387.946 378.32 387.777C378.724 387.608 379.153 387.524 379.607 387.524C380.062 387.524 380.465 387.616 380.817 387.799C381.169 387.982 381.459 388.195 381.686 388.437L381.004 389.262C380.814 389.071 380.608 388.921 380.388 388.811C380.168 388.694 379.919 388.635 379.64 388.635C379.347 388.635 379.076 388.697 378.826 388.822C378.584 388.939 378.372 389.112 378.188 389.339C378.012 389.559 377.873 389.83 377.77 390.153C377.675 390.476 377.627 390.839 377.627 391.242C377.627 392.063 377.803 392.709 378.155 393.178C378.515 393.64 378.999 393.871 379.607 393.871C379.93 393.871 380.216 393.805 380.465 393.673C380.715 393.534 380.942 393.354 381.147 393.134L381.829 393.937C381.536 394.274 381.199 394.535 380.817 394.718C380.443 394.894 380.025 394.982 379.563 394.982ZM383.53 394.85V387.656H385.961C386.335 387.656 386.683 387.693 387.006 387.766C387.329 387.839 387.607 387.96 387.842 388.129C388.077 388.29 388.26 388.507 388.392 388.778C388.531 389.049 388.601 389.387 388.601 389.79C388.601 390.34 388.469 390.784 388.205 391.121C387.948 391.458 387.604 391.7 387.171 391.847L388.887 394.85H387.457L385.906 392.034H384.806V394.85H383.53ZM384.806 391.022H385.829C386.32 391.022 386.694 390.919 386.951 390.714C387.215 390.509 387.347 390.201 387.347 389.79C387.347 389.372 387.215 389.082 386.951 388.921C386.694 388.76 386.32 388.679 385.829 388.679H384.806V391.022ZM390.54 394.85V387.656H394.874V388.734H391.816V390.571H394.401V391.649H391.816V393.772H394.984V394.85H390.54ZM398.433 391.022L398.18 391.902H400.017L399.764 391.022C399.647 390.641 399.533 390.248 399.423 389.845C399.32 389.442 399.218 389.042 399.115 388.646H399.071C398.968 389.049 398.866 389.453 398.763 389.856C398.66 390.252 398.55 390.641 398.433 391.022ZM396.024 394.85L398.367 387.656H399.863L402.206 394.85H400.864L400.303 392.903H397.883L397.322 394.85H396.024ZM404.336 394.85V388.734H402.257V387.656H407.691V388.734H405.612V394.85H404.336ZM409.389 394.85V387.656H413.723V388.734H410.665V390.571H413.25V391.649H410.665V393.772H413.833V394.85H409.389ZM421.304 394.982C420.834 394.982 420.405 394.898 420.017 394.729C419.628 394.553 419.294 394.304 419.016 393.981C418.737 393.651 418.521 393.255 418.367 392.793C418.213 392.331 418.136 391.807 418.136 391.22C418.136 390.641 418.213 390.124 418.367 389.669C418.521 389.207 418.737 388.818 419.016 388.503C419.294 388.188 419.628 387.946 420.017 387.777C420.405 387.608 420.834 387.524 421.304 387.524C421.773 387.524 422.202 387.608 422.591 387.777C422.979 387.946 423.313 388.188 423.592 388.503C423.878 388.818 424.098 389.207 424.252 389.669C424.406 390.124 424.483 390.641 424.483 391.22C424.483 391.807 424.406 392.331 424.252 392.793C424.098 393.255 423.878 393.651 423.592 393.981C423.313 394.304 422.979 394.553 422.591 394.729C422.202 394.898 421.773 394.982 421.304 394.982ZM421.304 393.871C421.59 393.871 421.846 393.809 422.074 393.684C422.301 393.559 422.495 393.383 422.657 393.156C422.818 392.921 422.943 392.643 423.031 392.32C423.119 391.99 423.163 391.623 423.163 391.22C423.163 390.413 422.994 389.783 422.657 389.328C422.327 388.866 421.876 388.635 421.304 388.635C420.732 388.635 420.277 388.866 419.94 389.328C419.61 389.783 419.445 390.413 419.445 391.22C419.445 391.623 419.489 391.99 419.577 392.32C419.665 392.643 419.789 392.921 419.951 393.156C420.112 393.383 420.306 393.559 420.534 393.684C420.761 393.809 421.018 393.871 421.304 393.871ZM426.422 394.85V387.656H428.853C429.227 387.656 429.575 387.693 429.898 387.766C430.22 387.839 430.499 387.96 430.734 388.129C430.968 388.29 431.152 388.507 431.284 388.778C431.423 389.049 431.493 389.387 431.493 389.79C431.493 390.34 431.361 390.784 431.097 391.121C430.84 391.458 430.495 391.7 430.063 391.847L431.779 394.85H430.349L428.798 392.034H427.698V394.85H426.422ZM427.698 391.022H428.721C429.212 391.022 429.586 390.919 429.843 390.714C430.107 390.509 430.239 390.201 430.239 389.79C430.239 389.372 430.107 389.082 429.843 388.921C429.586 388.76 429.212 388.679 428.721 388.679H427.698V391.022ZM436.445 394.982C435.961 394.982 435.51 394.901 435.092 394.74C434.682 394.579 434.322 394.34 434.014 394.025C433.714 393.71 433.479 393.321 433.31 392.859C433.142 392.397 433.057 391.869 433.057 391.275C433.057 390.688 433.145 390.164 433.321 389.702C433.497 389.233 433.736 388.837 434.036 388.514C434.344 388.191 434.704 387.946 435.114 387.777C435.532 387.608 435.98 387.524 436.456 387.524C436.97 387.524 437.402 387.619 437.754 387.81C438.114 387.993 438.407 388.202 438.634 388.437L437.952 389.262C437.769 389.086 437.564 388.939 437.336 388.822C437.116 388.697 436.838 388.635 436.5 388.635C436.178 388.635 435.884 388.697 435.62 388.822C435.364 388.939 435.14 389.112 434.949 389.339C434.766 389.559 434.623 389.83 434.52 390.153C434.418 390.476 434.366 390.839 434.366 391.242C434.366 392.063 434.55 392.709 434.916 393.178C435.29 393.64 435.84 393.871 436.566 393.871C436.772 393.871 436.966 393.845 437.149 393.794C437.333 393.735 437.483 393.655 437.6 393.552V392.001H436.236V390.956H438.744V394.124C438.502 394.366 438.18 394.571 437.776 394.74C437.38 394.901 436.937 394.982 436.445 394.982ZM442.248 391.022L441.995 391.902H443.832L443.579 391.022C443.462 390.641 443.348 390.248 443.238 389.845C443.136 389.442 443.033 389.042 442.93 388.646H442.886C442.784 389.049 442.681 389.453 442.578 389.856C442.476 390.252 442.366 390.641 442.248 391.022ZM439.839 394.85L442.182 387.656H443.678L446.021 394.85H444.679L444.118 392.903H441.698L441.137 394.85H439.839ZM447.408 394.85V387.656H448.717L450.961 391.704L451.698 393.233H451.742C451.713 392.859 451.676 392.459 451.632 392.034C451.595 391.601 451.577 391.183 451.577 390.78V387.656H452.798V394.85H451.489L449.245 390.802L448.508 389.273H448.464C448.493 389.654 448.526 390.054 448.563 390.472C448.607 390.89 448.629 391.301 448.629 391.704V394.85H447.408ZM455.127 394.85V387.656H456.403V394.85H455.127ZM458.258 394.85V394.08L461.734 388.734H458.577V387.656H463.318V388.426L459.831 393.772H463.34V394.85H458.258ZM466.603 391.022L466.35 391.902H468.187L467.934 391.022C467.816 390.641 467.703 390.248 467.593 389.845C467.49 389.442 467.387 389.042 467.285 388.646H467.241C467.138 389.049 467.035 389.453 466.933 389.856C466.83 390.252 466.72 390.641 466.603 391.022ZM464.194 394.85L466.537 387.656H468.033L470.376 394.85H469.034L468.473 392.903H466.053L465.492 394.85H464.194ZM472.506 394.85V388.734H470.427V387.656H475.861V388.734H473.782V394.85H472.506ZM477.558 394.85V387.656H478.834V394.85H477.558ZM483.957 394.982C483.488 394.982 483.059 394.898 482.67 394.729C482.281 394.553 481.948 394.304 481.669 393.981C481.39 393.651 481.174 393.255 481.02 392.793C480.866 392.331 480.789 391.807 480.789 391.22C480.789 390.641 480.866 390.124 481.02 389.669C481.174 389.207 481.39 388.818 481.669 388.503C481.948 388.188 482.281 387.946 482.67 387.777C483.059 387.608 483.488 387.524 483.957 387.524C484.426 387.524 484.855 387.608 485.244 387.777C485.633 387.946 485.966 388.188 486.245 388.503C486.531 388.818 486.751 389.207 486.905 389.669C487.059 390.124 487.136 390.641 487.136 391.22C487.136 391.807 487.059 392.331 486.905 392.793C486.751 393.255 486.531 393.651 486.245 393.981C485.966 394.304 485.633 394.553 485.244 394.729C484.855 394.898 484.426 394.982 483.957 394.982ZM483.957 393.871C484.243 393.871 484.5 393.809 484.727 393.684C484.954 393.559 485.149 393.383 485.31 393.156C485.471 392.921 485.596 392.643 485.684 392.32C485.772 391.99 485.816 391.623 485.816 391.22C485.816 390.413 485.647 389.783 485.31 389.328C484.98 388.866 484.529 388.635 483.957 388.635C483.385 388.635 482.93 388.866 482.593 389.328C482.263 389.783 482.098 390.413 482.098 391.22C482.098 391.623 482.142 391.99 482.23 392.32C482.318 392.643 482.443 392.921 482.604 393.156C482.765 393.383 482.96 393.559 483.187 393.684C483.414 393.809 483.671 393.871 483.957 393.871ZM489.075 394.85V387.656H490.384L492.628 391.704L493.365 393.233H493.409C493.38 392.859 493.343 392.459 493.299 392.034C493.262 391.601 493.244 391.183 493.244 390.78V387.656H494.465V394.85H493.156L490.912 390.802L490.175 389.273H490.131C490.16 389.654 490.193 390.054 490.23 390.472C490.274 390.89 490.296 391.301 490.296 391.704V394.85H489.075Z" fill="white"/>
</g>
</g>
<path d="M54.7 220.9C51.3863 220.9 48.7 218.214 48.7 214.9V90.95C48.7 87.6363 51.3863 84.95 54.7 84.95H76.7V220.9H54.7Z" fill="#103FEF"/>
<path d="M66.02 201.38C66.02 201.84 65.9333 202.267 65.76 202.66C65.5867 203.053 65.35 203.393 65.05 203.68L64.47 203.18C64.7167 202.947 64.9167 202.673 65.07 202.36C65.2167 202.04 65.29 201.71 65.29 201.37C65.29 200.937 65.1933 200.6 65 200.36C64.8 200.12 64.54 200 64.22 200C64.0533 200 63.9133 200.03 63.8 200.09C63.68 200.143 63.58 200.22 63.5 200.32C63.4133 200.413 63.3367 200.527 63.27 200.66C63.2033 200.793 63.1333 200.937 63.06 201.09L62.65 202.03C62.5833 202.183 62.5033 202.34 62.41 202.5C62.3167 202.66 62.2033 202.803 62.07 202.93C61.9367 203.057 61.78 203.16 61.6 203.24C61.4133 203.32 61.2 203.36 60.96 203.36C60.7133 203.36 60.4833 203.31 60.27 203.21C60.0567 203.103 59.8733 202.96 59.72 202.78C59.56 202.593 59.4367 202.377 59.35 202.13C59.2633 201.877 59.22 201.6 59.22 201.3C59.22 200.907 59.2967 200.543 59.45 200.21C59.5967 199.877 59.79 199.593 60.03 199.36L60.57 199.81C60.3767 200.01 60.2267 200.233 60.12 200.48C60.0067 200.72 59.95 200.993 59.95 201.3C59.95 201.667 60.0367 201.963 60.21 202.19C60.3767 202.41 60.61 202.52 60.91 202.52C61.07 202.52 61.2067 202.49 61.32 202.43C61.4267 202.363 61.5233 202.277 61.61 202.17C61.69 202.063 61.7633 201.947 61.83 201.82C61.89 201.693 61.9467 201.563 62 201.43L62.4 200.5C62.48 200.313 62.5733 200.137 62.68 199.97C62.78 199.803 62.9 199.66 63.04 199.54C63.1733 199.42 63.3333 199.327 63.52 199.26C63.7 199.187 63.91 199.15 64.15 199.15C64.41 199.15 64.6533 199.203 64.88 199.31C65.1067 199.41 65.3067 199.557 65.48 199.75C65.6467 199.943 65.78 200.177 65.88 200.45C65.9733 200.723 66.02 201.033 66.02 201.38ZM66.02 195.968C66.02 196.295 65.9633 196.602 65.85 196.888C65.73 197.168 65.5633 197.415 65.35 197.628C65.13 197.835 64.8633 197.998 64.55 198.118C64.2367 198.238 63.88 198.298 63.48 198.298C63.08 198.298 62.7233 198.238 62.41 198.118C62.09 197.992 61.82 197.828 61.6 197.628C61.38 197.422 61.2133 197.188 61.1 196.928C60.98 196.668 60.92 196.398 60.92 196.118C60.92 195.812 60.9733 195.538 61.08 195.298C61.1867 195.052 61.34 194.848 61.54 194.688C61.74 194.522 61.98 194.395 62.26 194.308C62.54 194.222 62.8533 194.178 63.2 194.178C63.2867 194.178 63.3733 194.182 63.46 194.188C63.54 194.188 63.61 194.195 63.67 194.208V197.488C64.19 197.455 64.6033 197.295 64.91 197.008C65.21 196.715 65.36 196.335 65.36 195.868C65.36 195.635 65.3267 195.422 65.26 195.228C65.1867 195.028 65.0933 194.838 64.98 194.658L65.52 194.368C65.6533 194.582 65.77 194.818 65.87 195.078C65.97 195.338 66.02 195.635 66.02 195.968ZM63.08 197.498V194.898C62.5867 194.898 62.2133 195.005 61.96 195.218C61.7 195.425 61.57 195.718 61.57 196.098C61.57 196.272 61.6033 196.438 61.67 196.598C61.7367 196.752 61.8367 196.892 61.97 197.018C62.0967 197.145 62.2533 197.252 62.44 197.338C62.6267 197.418 62.84 197.472 63.08 197.498ZM66.02 191.057C66.02 191.377 65.9633 191.677 65.85 191.957C65.7367 192.237 65.5733 192.481 65.36 192.687C65.14 192.887 64.8733 193.047 64.56 193.167C64.24 193.281 63.88 193.337 63.48 193.337C63.0733 193.337 62.7133 193.274 62.4 193.147C62.08 193.021 61.81 192.851 61.59 192.637C61.37 192.424 61.2033 192.177 61.09 191.897C60.9767 191.611 60.92 191.311 60.92 190.997C60.92 190.677 60.9767 190.404 61.09 190.177C61.2033 189.951 61.3367 189.751 61.49 189.577L62.03 189.997C61.9033 190.137 61.8 190.287 61.72 190.447C61.64 190.601 61.6 190.774 61.6 190.967C61.6 191.187 61.6467 191.391 61.74 191.577C61.8267 191.764 61.9533 191.924 62.12 192.057C62.2867 192.191 62.4867 192.297 62.72 192.377C62.9467 192.451 63.2 192.487 63.48 192.487C63.76 192.487 64.0133 192.451 64.24 192.377C64.4667 192.304 64.6633 192.204 64.83 192.077C64.99 191.944 65.1167 191.784 65.21 191.597C65.2967 191.411 65.34 191.207 65.34 190.987C65.34 190.761 65.2933 190.554 65.2 190.367C65.1 190.174 64.9833 190.001 64.85 189.847L65.4 189.487C65.5933 189.707 65.7467 189.951 65.86 190.217C65.9667 190.484 66.02 190.764 66.02 191.057ZM66.02 186.997C66.02 187.517 65.86 187.897 65.54 188.137C65.22 188.37 64.7467 188.487 64.12 188.487H61.04V187.657H64.01C64.47 187.657 64.8033 187.587 65.01 187.447C65.21 187.3 65.31 187.067 65.31 186.747C65.31 186.493 65.2467 186.27 65.12 186.077C64.9867 185.883 64.7767 185.67 64.49 185.437H61.04V184.617H65.9V185.297L65.14 185.367V185.397C65.4067 185.623 65.62 185.863 65.78 186.117C65.94 186.363 66.02 186.657 66.02 186.997ZM65.9 182.977H61.04V182.297L61.92 182.227V182.197C61.6133 182.031 61.37 181.831 61.19 181.597C61.01 181.357 60.92 181.097 60.92 180.817C60.92 180.624 60.9533 180.451 61.02 180.297L61.74 180.457C61.7133 180.537 61.6933 180.611 61.68 180.677C61.6667 180.744 61.66 180.827 61.66 180.927C61.66 181.134 61.7433 181.351 61.91 181.577C62.0767 181.797 62.3667 181.991 62.78 182.157H65.9V182.977ZM66.02 177.638C66.02 177.965 65.9633 178.271 65.85 178.558C65.73 178.838 65.5633 179.085 65.35 179.298C65.13 179.505 64.8633 179.668 64.55 179.788C64.2367 179.908 63.88 179.968 63.48 179.968C63.08 179.968 62.7233 179.908 62.41 179.788C62.09 179.661 61.82 179.498 61.6 179.298C61.38 179.091 61.2133 178.858 61.1 178.598C60.98 178.338 60.92 178.068 60.92 177.788C60.92 177.481 60.9733 177.208 61.08 176.968C61.1867 176.721 61.34 176.518 61.54 176.358C61.74 176.191 61.98 176.065 62.26 175.978C62.54 175.891 62.8533 175.848 63.2 175.848C63.2867 175.848 63.3733 175.851 63.46 175.858C63.54 175.858 63.61 175.865 63.67 175.878V179.158C64.19 179.125 64.6033 178.965 64.91 178.678C65.21 178.385 65.36 178.005 65.36 177.538C65.36 177.305 65.3267 177.091 65.26 176.898C65.1867 176.698 65.0933 176.508 64.98 176.328L65.52 176.038C65.6533 176.251 65.77 176.488 65.87 176.748C65.97 177.008 66.02 177.305 66.02 177.638ZM63.08 179.168V176.568C62.5867 176.568 62.2133 176.675 61.96 176.888C61.7 177.095 61.57 177.388 61.57 177.768C61.57 177.941 61.6033 178.108 61.67 178.268C61.7367 178.421 61.8367 178.561 61.97 178.688C62.0967 178.815 62.2533 178.921 62.44 179.008C62.6267 179.088 62.84 179.141 63.08 179.168ZM66.02 172.987C66.02 173.601 65.8 174.091 65.36 174.457C64.92 174.817 64.2933 174.997 63.48 174.997C63.0867 174.997 62.7333 174.941 62.42 174.827C62.1 174.707 61.83 174.551 61.61 174.357C61.39 174.164 61.22 173.941 61.1 173.687C60.98 173.434 60.92 173.167 60.92 172.887C60.92 172.607 60.97 172.364 61.07 172.157C61.17 171.951 61.3067 171.741 61.48 171.527L60.65 171.567H58.78V170.737H65.9V171.417L65.33 171.487V171.517C65.5167 171.711 65.68 171.934 65.82 172.187C65.9533 172.434 66.02 172.701 66.02 172.987ZM65.33 172.807C65.33 172.581 65.2767 172.367 65.17 172.167C65.0567 171.967 64.8867 171.767 64.66 171.567H62.12C61.9333 171.774 61.8033 171.974 61.73 172.167C61.65 172.354 61.61 172.547 61.61 172.747C61.61 172.941 61.6567 173.124 61.75 173.297C61.8367 173.464 61.9633 173.611 62.13 173.737C62.29 173.864 62.4833 173.964 62.71 174.037C62.9367 174.111 63.19 174.147 63.47 174.147C64.0567 174.147 64.5133 174.031 64.84 173.797C65.1667 173.564 65.33 173.234 65.33 172.807ZM66.02 164.948C66.02 165.175 65.9667 165.412 65.86 165.658C65.7467 165.898 65.5933 166.125 65.4 166.338V166.368L65.9 166.438V167.098H58.78V166.278H60.72L61.6 166.298C61.4067 166.078 61.2467 165.838 61.12 165.578C60.9867 165.318 60.92 165.052 60.92 164.778C60.92 164.465 60.98 164.188 61.1 163.948C61.2133 163.708 61.38 163.508 61.6 163.348C61.8133 163.182 62.0733 163.058 62.38 162.978C62.68 162.892 63.0167 162.848 63.39 162.848C63.8033 162.848 64.1733 162.905 64.5 163.018C64.8267 163.132 65.1033 163.285 65.33 163.478C65.5567 163.672 65.73 163.895 65.85 164.148C65.9633 164.402 66.02 164.668 66.02 164.948ZM65.33 165.088C65.33 164.888 65.2867 164.705 65.2 164.538C65.1067 164.365 64.98 164.218 64.82 164.098C64.6533 163.972 64.45 163.875 64.21 163.808C63.97 163.735 63.7 163.698 63.4 163.698C63.1333 163.698 62.89 163.722 62.67 163.768C62.45 163.815 62.2633 163.892 62.11 163.998C61.95 164.098 61.8267 164.232 61.74 164.398C61.6533 164.558 61.61 164.752 61.61 164.978C61.61 165.372 61.83 165.805 62.27 166.278H64.82C65.0067 166.065 65.14 165.855 65.22 165.648C65.2933 165.435 65.33 165.248 65.33 165.088ZM67.99 161.53C67.99 161.643 67.98 161.747 67.96 161.84C67.9467 161.933 67.9233 162.02 67.89 162.1L67.24 161.94C67.2533 161.887 67.2667 161.827 67.28 161.76C67.3 161.693 67.31 161.63 67.31 161.57C67.31 161.29 67.21 161.063 67.01 160.89C66.8167 160.71 66.57 160.57 66.27 160.47L65.91 160.36L61.04 162.31V161.46L63.73 160.47C63.9433 160.397 64.17 160.32 64.41 160.24C64.6433 160.153 64.8733 160.073 65.1 160V159.96C64.88 159.887 64.65 159.817 64.41 159.75C64.17 159.683 63.9433 159.617 63.73 159.55L61.04 158.68V157.88L66.3 159.71C66.54 159.797 66.7633 159.893 66.97 160C67.1767 160.107 67.3533 160.233 67.5 160.38C67.6533 160.527 67.7733 160.693 67.86 160.88C67.9467 161.067 67.99 161.283 67.99 161.53Z" fill="white"/>
<g clip-path="url(#clip2_1_2)">
<path d="M66.6708 127.698C66.9092 127.929 67.0983 128.205 67.2267 128.511C67.355 128.817 67.4199 129.146 67.4175 129.477C67.4248 129.758 67.3748 130.038 67.2705 130.298C67.1662 130.559 67.0098 130.796 66.8108 130.994C66.3899 131.384 65.8323 131.591 65.2592 131.572C63.9758 131.572 63.1008 130.737 63.1008 129.477C63.0963 129.142 63.1656 128.81 63.3037 128.505C63.4418 128.199 63.6454 127.928 63.9 127.71L62.9433 126.625C62.5256 126.992 62.1925 127.446 61.9669 127.955C61.7414 128.463 61.6287 129.015 61.6367 129.571C61.6367 131.7 63.1067 133.211 65.2708 133.211C65.7497 133.223 66.2263 133.14 66.6729 132.967C67.1195 132.794 67.5273 132.534 67.8725 132.202C68.2027 131.861 68.4619 131.458 68.6352 131.017C68.8084 130.575 68.8922 130.103 68.8817 129.629C68.9005 129.064 68.8002 128.501 68.5871 127.978C68.374 127.454 68.053 126.981 67.645 126.59L66.665 127.698H66.6708ZM58.9008 125.61V124H68.7708V125.61H58.9008ZM65.8192 116.218C65.6033 116.195 65.3875 116.183 65.1717 116.177C63.13 116.177 61.6425 117.519 61.6425 119.59C61.6425 120.576 62.01 121.433 62.6458 122.052C63.3567 122.704 64.2949 123.052 65.2592 123.02C67.4467 123.02 68.8875 121.474 68.8875 119.432C68.9125 118.872 68.8069 118.314 68.5791 117.802C68.3513 117.29 68.0076 116.837 67.575 116.481L66.6417 117.531L66.595 117.589C67.0442 117.951 67.4175 118.522 67.4175 119.345C67.4403 119.816 67.2905 120.279 66.9962 120.647C66.702 121.016 66.2835 121.264 65.8192 121.346V116.218ZM64.5242 121.317C64.2111 121.244 63.9206 121.096 63.6783 120.885C63.2992 120.552 63.095 120.068 63.095 119.502C63.095 118.581 63.6783 118.003 64.5242 117.811V121.317ZM61.6192 111.184H63.4275C63.4107 111.345 63.399 111.507 63.3925 111.668C63.3925 112.893 64.2675 113.587 65.4225 113.587H68.7708V115.192H61.7242V113.582H62.7917V113.564C62.0392 113.022 61.625 112.222 61.625 111.377V111.178L61.6192 111.184ZM65.8192 107.427L67.1142 108.594H68.7708V110.204H58.9008V108.594H64.95L61.7417 105.712V103.799L64.5767 106.331L68.765 103.752V105.567L65.8133 107.398V107.427H65.8192ZM58.7433 137.055L60.4233 138.735C60.4767 138.787 60.5109 138.856 60.5204 138.93C60.5299 139.004 60.5142 139.079 60.4758 139.143C59.9527 140.013 59.7792 141.049 59.9904 142.042C60.2015 143.035 60.7815 143.911 61.6133 144.492C62.248 144.933 62.9965 145.18 63.7685 145.205C64.5405 145.23 65.3033 145.031 65.965 144.632C66.0291 144.594 66.1042 144.578 66.1783 144.588C66.2523 144.597 66.3211 144.632 66.3733 144.685L68.0533 146.365C68.0871 146.399 68.1133 146.439 68.1301 146.484C68.1469 146.528 68.1538 146.576 68.1505 146.624C68.1472 146.671 68.1337 146.718 68.1108 146.76C68.088 146.802 68.0565 146.838 68.0183 146.867C66.6702 147.842 65.0189 148.305 63.3604 148.172C61.7019 148.04 60.1447 147.322 58.9679 146.146C57.7911 144.97 57.0717 143.413 56.9386 141.755C56.8055 140.096 57.2675 138.445 58.2417 137.096C58.2703 137.058 58.3068 137.026 58.3487 137.003C58.3906 136.98 58.4369 136.967 58.4845 136.964C58.5321 136.96 58.5798 136.967 58.6245 136.984C58.6692 137.001 58.7097 137.027 58.7433 137.061V137.055Z" fill="white"/>
<path d="M69.0567 137.055L67.3767 138.735C67.3233 138.787 67.2891 138.856 67.2796 138.93C67.2701 139.004 67.2858 139.079 67.3242 139.143C67.6991 139.767 67.8972 140.481 67.8972 141.208C67.8972 141.936 67.6991 142.65 67.3242 143.273C67.2858 143.337 67.2701 143.413 67.2796 143.487C67.2891 143.561 67.3233 143.629 67.3767 143.682L69.0567 145.368C69.0907 145.401 69.1316 145.427 69.1765 145.443C69.2214 145.459 69.2692 145.466 69.3168 145.462C69.3645 145.458 69.4107 145.444 69.4523 145.421C69.494 145.397 69.5302 145.365 69.5583 145.327C70.429 144.13 70.898 142.688 70.898 141.208C70.898 139.728 70.429 138.287 69.5583 137.09C69.5297 137.052 69.4932 137.02 69.4513 136.998C69.4094 136.975 69.3631 136.961 69.3155 136.958C69.2679 136.955 69.2202 136.961 69.1755 136.978C69.1308 136.995 69.0903 137.021 69.0567 137.055ZM65.9008 141.208C65.9008 140.946 65.8491 140.685 65.7485 140.443C65.648 140.2 65.5006 139.979 65.3148 139.794C65.129 139.608 64.9084 139.46 64.6657 139.36C64.4229 139.259 64.1628 139.208 63.9 139.208C63.6373 139.208 63.3771 139.259 63.1343 139.36C62.8916 139.46 62.671 139.608 62.4852 139.794C62.2994 139.979 62.152 140.2 62.0515 140.443C61.9509 140.685 61.8992 140.946 61.8992 141.208C61.8992 141.739 62.11 142.248 62.4852 142.623C62.8604 142.998 63.3693 143.209 63.9 143.209C64.4307 143.209 64.9396 142.998 65.3148 142.623C65.69 142.248 65.9008 141.739 65.9008 141.208Z" fill="white"/>
</g>
<path d="M49.2 214.9V90.95C49.2 87.9124 51.6624 85.45 54.7 85.45H76.2V220.4H54.7C51.6624 220.4 49.2 217.938 49.2 214.9Z" stroke="white" stroke-opacity="0.08"/>
</g>
<defs>
<filter id="filter0_d_1_2" x="0.700001" y="0.5" width="603.8" height="521.05" filterUnits="userSpaceOnUse" color-interpolation-filters="sRGB">
<feFlood flood-opacity="0" result="BackgroundImageFix"/>
<feColorMatrix in="SourceAlpha" type="matrix" values="0 0 0 0 0 0 0 0 0 0 0 0 0 0 0 0 0 0 127 0" result="hardAlpha"/>
<feOffset dy="24"/>
<feGaussianBlur stdDeviation="24"/>
<feComposite in2="hardAlpha" operator="out"/>
<feColorMatrix type="matrix" values="0 0 0 0 0 0 0 0 0 0 0 0 0 0 0 0 0 0 0.16 0"/>
<feBlend mode="normal" in2="BackgroundImageFix" result="effect1_dropShadow_1_2"/>
<feBlend mode="normal" in="SourceGraphic" in2="effect1_dropShadow_1_2" result="shape"/>
</filter>
<clipPath id="clip0_1_2">
<rect x="77.3" y="25.3" width="478.4" height="423.45" rx="16" fill="white"/>
</clipPath>
<clipPath id="clip1_1_2">
<rect width="16" height="16" fill="white" transform="translate(167.89 283.83)"/>
</clipPath>
<clipPath id="clip2_1_2">
<rect width="48" height="14" fill="white" transform="matrix(0 -1 1 0 56.9 149.75)"/>
</clipPath>
</defs>
</svg>
