<svg xmlns="http://www.w3.org/2000/svg" width="492" height="502" fill="none"><g filter="url(#a)"><g clip-path="url(#b)"><rect width="432" height="442" x="30" y="15" fill="#f7f7f8" rx="12"/><g filter="url(#c)"><rect width="432" height="394" x="30" y="15" fill="#fff" rx="8"/><path fill="#42434d" d="M51.149 93v-9.16h1.422v7.929h4.297V93zm9.96.133q-1.01 0-1.746-.431a2.86 2.86 0 0 1-1.124-1.232q-.393-.806-.393-1.91v-.013q0-1.111.393-1.91a2.9 2.9 0 0 1 1.13-1.232q.736-.432 1.74-.432 1.008 0 1.739.432.729.425 1.123 1.231.4.8.4 1.91v.014q0 1.104-.4 1.91a2.86 2.86 0 0 1-1.123 1.232q-.724.43-1.74.431m0-1.155q.59 0 1.002-.286a1.8 1.8 0 0 0 .629-.831q.216-.54.216-1.301v-.013q0-.768-.216-1.308t-.629-.825q-.412-.292-1.003-.292-.59 0-1.002.292-.414.286-.635.825-.216.54-.216 1.308v.013q0 .761.216 1.3.222.54.635.832.412.285 1.002.286m7.813 3.453q-.875 0-1.523-.241-.64-.24-1.016-.673a1.9 1.9 0 0 1-.457-1.003l.007-.013h1.396l.006.013q.09.356.502.584.413.23 1.104.229.851 0 1.327-.388.483-.387.483-1.085v-1.352h-.108a2.2 2.2 0 0 1-.52.635 2.2 2.2 0 0 1-.725.393q-.405.134-.882.134-.876 0-1.523-.42a2.8 2.8 0 0 1-.99-1.167q-.344-.75-.343-1.72v-.013q0-.984.349-1.74.35-.761.996-1.186.648-.432 1.543-.432.483 0 .882.152.407.153.717.432.312.279.515.666h.082v-1.13h1.378v6.754q0 .78-.394 1.359-.387.577-1.104.895-.718.317-1.702.317m-.019-3.91q.585 0 1.003-.273a1.8 1.8 0 0 0 .641-.768q.23-.49.229-1.13v-.013q0-.635-.229-1.13a1.8 1.8 0 0 0-.64-.774q-.42-.28-1.004-.28t-.996.28q-.406.279-.622.774a2.8 2.8 0 0 0-.216 1.13v.013q0 .642.216 1.13.215.489.622.768.412.273.996.273m8.125 1.612q-1.008 0-1.745-.431a2.86 2.86 0 0 1-1.124-1.232q-.393-.806-.393-1.91v-.013q0-1.111.393-1.91a2.9 2.9 0 0 1 1.13-1.232q.735-.432 1.74-.432 1.008 0 1.739.432.729.425 1.123 1.231.4.8.4 1.91v.014q0 1.104-.4 1.91a2.86 2.86 0 0 1-1.123 1.232q-.725.43-1.74.431m0-1.155q.59 0 1.003-.286a1.8 1.8 0 0 0 .629-.831q.216-.54.216-1.301v-.013q0-.768-.216-1.308t-.629-.825q-.413-.292-1.003-.292t-1.003.292q-.412.286-.634.825-.216.54-.216 1.308v.013q0 .761.216 1.3.222.54.634.832.413.285 1.003.286"/><rect width="63" height="63" x="50.5" y="105.5" fill="#f7f7f8" rx="5.5"/><rect width="63" height="63" x="50.5" y="105.5" stroke="#d9d9de" stroke-dasharray="4 4" rx="5.5"/><path fill="#9394a1" d="M81.25 140.25a.75.75 0 0 0 .75.75.75.75 0 0 0 .75-.75v-8.614l2.955 3.129a.75.75 0 0 0 1.09-1.03l-4.25-4.5a.76.76 0 0 0-.842-.174.8.8 0 0 0-.248.174l-4.25 4.5a.75.75 0 0 0-.152.829.75.75 0 0 0 .715.447.76.76 0 0 0 .527-.246l2.955-3.129z"/><path fill="#9394a1" d="M75.5 139.75a.75.75 0 0 0-.75-.75.75.75 0 0 0-.75.75v2.5a2.75 2.75 0 0 0 2.75 2.75h10.5a2.753 2.753 0 0 0 2.75-2.75v-2.5a.75.75 0 0 0-.75-.75.75.75 0 0 0-.75.75v2.5c0 .69-.56 1.25-1.25 1.25h-10.5c-.69 0-1.25-.56-1.25-1.25z"/><g filter="url(#d)"><rect width="68" height="28" x="130" y="111" fill="#fff" rx="6"/><g filter="url(#e)"><path fill="#42434d" d="M147.031 130.222q-1.149 0-1.98-.425a3.1 3.1 0 0 1-1.282-1.181q-.451-.762-.451-1.771v-6.005h1.428v5.897q0 .99.597 1.606.603.616 1.688.616 1.098 0 1.689-.616.59-.615.59-1.606v-5.897h1.428v6.005q0 1.01-.45 1.771a3.06 3.06 0 0 1-1.276 1.181q-.826.425-1.981.425m5.84 2.076v-9.192h1.378v1.086h.107q.198-.381.508-.648.318-.266.724-.412a2.6 2.6 0 0 1 .889-.146q.869 0 1.51.444.642.438.991 1.238.355.793.355 1.879v.013q0 1.091-.349 1.891-.35.794-.99 1.232-.642.43-1.517.431-.477 0-.889-.146a2.4 2.4 0 0 1-.73-.419 1.9 1.9 0 0 1-.502-.641h-.107v3.39zm3.212-3.364q.578 0 .99-.286a1.77 1.77 0 0 0 .629-.819q.222-.533.222-1.269v-.013q0-.743-.222-1.276a1.8 1.8 0 0 0-.629-.819q-.412-.285-.99-.285a1.7 1.7 0 0 0-.99.291q-.42.286-.641.819-.222.528-.223 1.27v.013q0 .729.223 1.263.221.533.641.825.419.286.99.286m4.964 1.066v-9.598h1.377V130zm6.348.133q-1.01 0-1.746-.431a2.87 2.87 0 0 1-1.124-1.232q-.393-.806-.393-1.91v-.013q0-1.111.393-1.911a2.9 2.9 0 0 1 1.13-1.231q.737-.432 1.74-.432 1.008 0 1.739.432.73.425 1.123 1.231.4.8.4 1.911v.013q0 1.104-.4 1.91a2.86 2.86 0 0 1-1.123 1.232q-.724.43-1.739.431m0-1.155q.59 0 1.002-.286.413-.291.629-.831t.216-1.301v-.013q0-.768-.216-1.308t-.629-.825q-.413-.292-1.002-.292-.59 0-1.003.292-.413.286-.635.825-.216.54-.216 1.308v.013q0 .76.216 1.301.222.54.635.831.412.286 1.003.286m6.792 1.136q-.654 0-1.175-.247a2 2 0 0 1-.812-.718 1.96 1.96 0 0 1-.299-1.085v-.013q0-.927.667-1.447.672-.527 1.904-.603l2.546-.152v.971l-2.355.152q-.71.044-1.048.305-.336.253-.336.717v.013q0 .47.362.743.362.266.914.266a2 2 0 0 0 .914-.203q.406-.21.635-.559.228-.355.228-.799v-2.171q0-.572-.355-.87-.35-.305-1.041-.305-.579 0-.946.203a1 1 0 0 0-.483.572l-.012.019h-1.327l.006-.045q.083-.57.451-.99.375-.424.978-.66a3.8 3.8 0 0 1 1.39-.235q.869 0 1.472.279.61.273.921.794.317.514.317 1.238V130h-1.371v-.978h-.102a2.2 2.2 0 0 1-.507.597 2.2 2.2 0 0 1-.692.368q-.387.127-.844.127m7.972 0q-.863 0-1.511-.431-.64-.438-.996-1.238-.35-.8-.349-1.885v-.013q0-1.092.349-1.892.35-.8.99-1.231.64-.438 1.517-.438.71 0 1.276.33.571.324.844.882h.102v-3.796h1.384V130h-1.384v-1.085h-.102a2.2 2.2 0 0 1-.844.882q-.546.317-1.276.317m.394-1.18q.572 0 .99-.286.419-.285.641-.819.222-.54.222-1.269v-.013q0-.736-.228-1.27a1.8 1.8 0 0 0-.641-.819 1.66 1.66 0 0 0-.984-.291q-.571 0-.991.291a1.8 1.8 0 0 0-.634.819q-.216.528-.216 1.27v.013q0 .736.216 1.269.222.534.634.819.42.286.991.286"/></g></g><path fill="#747686" d="M131.078 159v-8.455h3.229q.814 0 1.418.316.609.31.943.873t.334 1.325v.011q0 .879-.451 1.524a2.34 2.34 0 0 1-1.248.896l1.957 3.51h-1.237l-1.81-3.346h-2.08V159zm1.055-4.283h2.08q.815 0 1.254-.416.445-.422.445-1.196v-.011q0-.756-.463-1.184-.462-.428-1.283-.428h-2.033zm9.058 4.394q-.902 0-1.552-.398a2.64 2.64 0 0 1-.996-1.125q-.346-.732-.346-1.723v-.006q0-.978.346-1.716.351-.739.99-1.155t1.494-.416q.86 0 1.477.399.62.397.949 1.113.334.709.334 1.652v.399h-5.063v-.815h4.541l-.504.744v-.404q0-.744-.222-1.224-.223-.481-.616-.715a1.7 1.7 0 0 0-.902-.241q-.51 0-.914.252a1.7 1.7 0 0 0-.633.733q-.234.487-.234 1.195v.404q0 .674.228 1.155.23.474.651.732.421.252.996.252.427 0 .744-.117t.521-.299q.206-.181.288-.369l.023-.053h1.02l-.012.047a2 2 0 0 1-.293.627 2.4 2.4 0 0 1-.533.545 2.8 2.8 0 0 1-.78.387q-.446.14-1.002.14m6.862 0q-.885 0-1.535-.404a2.7 2.7 0 0 1-1.008-1.143q-.358-.738-.358-1.74v-.012q0-.984.352-1.71.357-.727 1.008-1.125.65-.405 1.535-.405.768 0 1.324.27t.891.726q.334.452.427 1.014l.006.035h-1.013l-.006-.017a1.44 1.44 0 0 0-.533-.797q-.417-.328-1.096-.328-.568 0-.985.287a1.86 1.86 0 0 0-.644.814q-.222.522-.223 1.236v.012q0 .727.229 1.266.228.533.644.826t.979.293q.638 0 1.043-.275.404-.276.58-.803l.012-.035 1.007-.006-.011.064a2.7 2.7 0 0 1-.457 1.014 2.25 2.25 0 0 1-.867.691q-.54.252-1.301.252m6.726 0q-.896 0-1.552-.392a2.66 2.66 0 0 1-1.008-1.131q-.352-.732-.352-1.74v-.012q0-1.014.352-1.746a2.6 2.6 0 0 1 1.008-1.125q.656-.393 1.552-.393.903 0 1.553.393a2.6 2.6 0 0 1 1.002 1.125q.357.732.357 1.746v.012q0 1.008-.357 1.74a2.6 2.6 0 0 1-1.002 1.131q-.65.392-1.553.392m0-.902q.599 0 1.014-.281t.633-.809q.222-.527.222-1.271v-.012q0-.75-.222-1.277-.217-.528-.633-.803-.416-.281-1.014-.281-.597 0-1.013.281-.417.275-.639.803-.217.527-.217 1.277v.012q0 .744.217 1.271.222.528.639.809.416.28 1.013.281m4.494.791v-6.316h1.02v.961h.094q.21-.51.644-.791.44-.282 1.061-.282.428 0 .767.141.34.141.586.392.246.247.393.575h.094q.17-.334.457-.58.287-.252.662-.387.38-.141.814-.141.645 0 1.09.24.451.241.686.704.234.456.234 1.119V159h-1.02v-4.131q0-.697-.328-1.043-.322-.351-.99-.351-.44 0-.767.199-.328.199-.51.533a1.5 1.5 0 0 0-.182.732V159h-1.019v-4.289q0-.562-.358-.897-.357-.339-.955-.339-.41 0-.744.216-.329.217-.522.586a1.74 1.74 0 0 0-.187.809V159zm10.442 0v-6.316h1.019v.961h.094q.211-.51.645-.791.44-.282 1.06-.282.427 0 .768.141.34.141.586.392.246.247.392.575h.094q.17-.334.457-.58.287-.252.662-.387a2.3 2.3 0 0 1 .815-.141q.644 0 1.089.24.452.241.686.704.234.456.234 1.119V159h-1.019v-4.131q0-.697-.328-1.043-.322-.351-.99-.351a1.45 1.45 0 0 0-.768.199q-.328.199-.51.533a1.5 1.5 0 0 0-.181.732V159h-1.02v-4.289q0-.562-.357-.897-.358-.339-.955-.339-.41 0-.745.216-.327.217-.521.586a1.74 1.74 0 0 0-.188.809V159zm13.019.111q-.902 0-1.552-.398a2.64 2.64 0 0 1-.996-1.125q-.346-.732-.346-1.723v-.006q0-.978.346-1.716.351-.739.99-1.155t1.494-.416q.861 0 1.476.399.622.397.95 1.113.334.709.334 1.652v.399h-5.063v-.815h4.541l-.504.744v-.404q0-.744-.222-1.224-.223-.481-.616-.715a1.7 1.7 0 0 0-.902-.241q-.51 0-.914.252a1.7 1.7 0 0 0-.633.733q-.234.487-.234 1.195v.404q0 .674.228 1.155a1.7 1.7 0 0 0 .651.732q.421.252.996.252.427 0 .744-.117t.521-.299q.206-.181.288-.369l.023-.053h1.02l-.012.047a2 2 0 0 1-.293.627 2.4 2.4 0 0 1-.533.545 2.8 2.8 0 0 1-.78.387q-.445.14-1.002.14m4.278-.111v-6.316h1.019v.949h.094a1.8 1.8 0 0 1 .691-.779q.451-.282 1.149-.282 1.066 0 1.635.61.574.603.574 1.728V159h-1.02v-3.844q0-.855-.363-1.265-.357-.417-1.113-.416-.504 0-.873.216a1.5 1.5 0 0 0-.575.616q-.198.398-.199.955V159zm9.34.111q-.798 0-1.395-.404t-.926-1.137q-.328-.738-.328-1.722v-.012q0-.99.328-1.723.329-.732.92-1.136.598-.405 1.401-.405.65 0 1.177.305.534.299.791.803h.094v-3.504h1.02V159h-1.02v-1.008h-.094a2.1 2.1 0 0 1-.797.826q-.509.294-1.171.293m.234-.902q.575 0 .99-.287.416-.288.639-.815.222-.533.223-1.259v-.012q0-.732-.223-1.26a1.8 1.8 0 0 0-.639-.814q-.416-.288-.99-.287-.575 0-.99.287a1.8 1.8 0 0 0-.633.808q-.217.528-.217 1.266v.012q0 .732.217 1.265.222.527.633.815.415.28.99.281m10.348.902a3.4 3.4 0 0 1-1.243-.211 2.2 2.2 0 0 1-.867-.603 1.7 1.7 0 0 1-.381-.908h1.043q.129.392.504.632.375.241.979.241.427 0 .75-.123a1.3 1.3 0 0 0 .515-.346.77.77 0 0 0 .188-.51v-.012a.7.7 0 0 0-.258-.544q-.258-.23-.844-.37l-.978-.234q-.885-.212-1.301-.615-.416-.41-.416-1.09v-.006q0-.527.305-.943a2.1 2.1 0 0 1 .843-.657q.533-.24 1.202-.24.662 0 1.171.211.516.205.827.586.316.381.386.897h-1.002a1.03 1.03 0 0 0-.457-.61q-.357-.234-.931-.234-.375 0-.668.123-.294.117-.463.328a.76.76 0 0 0-.17.492v.012q0 .323.252.533t.809.346l.972.234q.89.218 1.324.621.44.405.44 1.084v.012q0 .563-.334.996a2.2 2.2 0 0 1-.908.668q-.569.24-1.289.24m4.136-.111v-6.316h1.02V159zm.516-7.535a.7.7 0 0 1-.498-.205.7.7 0 0 1-.205-.498q0-.294.205-.498a.7.7 0 0 1 .498-.205q.293 0 .498.205a.68.68 0 0 1 .205.498.7.7 0 0 1-.205.498.68.68 0 0 1-.498.205m2.279 7.535v-.738l3.645-4.641v-.094h-3.639v-.843h4.84v.755l-3.627 4.623v.094h3.645V159zm9.018.111q-.903 0-1.553-.398a2.64 2.64 0 0 1-.996-1.125q-.346-.732-.346-1.723v-.006q0-.978.346-1.716.351-.739.99-1.155t1.494-.416q.862 0 1.477.399.62.397.949 1.113.334.709.334 1.652v.399h-5.062v-.815h4.541l-.504.744v-.404q0-.744-.223-1.224a1.56 1.56 0 0 0-.615-.715 1.7 1.7 0 0 0-.903-.241q-.509 0-.914.252a1.7 1.7 0 0 0-.632.733q-.235.487-.235 1.195v.404q0 .674.229 1.155.228.474.65.732.422.252.996.252.428 0 .744-.117.317-.117.522-.299a1.1 1.1 0 0 0 .287-.369l.023-.053h1.02l-.012.047a1.9 1.9 0 0 1-.293.627 2.3 2.3 0 0 1-.533.545q-.328.24-.779.387-.445.14-1.002.14m9.715-.111v-7.283h-.094l-2.15 1.558v-1.113l2.25-1.617h1.048V159zm4.336-1.201a.74.74 0 0 1-.539-.223.74.74 0 0 1-.223-.539q0-.317.223-.539a.75.75 0 0 1 .539-.223q.316 0 .539.223a.73.73 0 0 1 .222.539.75.75 0 0 1-.222.539.73.73 0 0 1-.539.223m0-4.535a.75.75 0 0 1-.539-.223.74.74 0 0 1-.223-.539q0-.317.223-.539a.74.74 0 0 1 .539-.223q.316 0 .539.223a.73.73 0 0 1 .222.539.75.75 0 0 1-.222.539.74.74 0 0 1-.539.223m4.793 5.736v-7.283h-.094l-2.151 1.558v-1.113l2.25-1.617h1.049V159zm2.953 2.15.509-3.334h1.166l-.919 3.334zm9.31-2.039q-.715 0-1.201-.269a1.75 1.75 0 0 1-.732-.797q-.241-.527-.241-1.272v-4.089h1.02v3.843q0 .85.328 1.266.334.416 1.09.416.557 0 .937-.217.381-.216.575-.615.193-.405.193-.955v-3.738h1.02V159h-1.02v-.943h-.094a1.7 1.7 0 0 1-.709.779q-.468.276-1.166.275m4.893 1.998v-8.425h1.019v1.007h.094q.193-.351.486-.597.293-.252.668-.387t.815-.135q.803 0 1.394.41.598.405.926 1.137t.328 1.717v.012q0 .99-.328 1.722-.328.733-.926 1.137-.591.405-1.394.404-.434 0-.82-.134a2.3 2.3 0 0 1-.68-.387 1.9 1.9 0 0 1-.469-.586h-.094v3.105zm2.847-2.9q.58 0 .991-.281.41-.288.627-.815.222-.533.222-1.265v-.012q0-.738-.222-1.266a1.76 1.76 0 0 0-.627-.808q-.41-.288-.991-.287-.573 0-.99.287-.416.287-.638.814-.223.528-.223 1.26v.012q0 .726.223 1.259.222.527.638.815t.99.287m6.721.838q-.972 0-1.412-.393-.434-.392-.434-1.295v-3.832h-.996v-.843h.996v-1.635h1.055v1.635h1.383v.843h-1.383v3.575q0 .556.211.802.211.24.703.241.135 0 .229-.006l.24-.018v.867q-.146.024-.293.041a3 3 0 0 1-.299.018m4.629.064q-.897 0-1.553-.392a2.66 2.66 0 0 1-1.007-1.131q-.352-.732-.352-1.74v-.012q0-1.014.352-1.746a2.6 2.6 0 0 1 1.007-1.125q.656-.393 1.553-.393.902 0 1.553.393t1.002 1.125q.357.732.357 1.746v.012q0 1.008-.357 1.74a2.63 2.63 0 0 1-1.002 1.131q-.65.392-1.553.392m0-.902q.598 0 1.014-.281t.633-.809q.222-.527.222-1.271v-.012q0-.75-.222-1.277-.217-.528-.633-.803-.416-.281-1.014-.281-.597 0-1.014.281-.416.275-.638.803-.217.527-.217 1.277v.012q0 .744.217 1.271.222.528.638.809.417.28 1.014.281m10.641.99q-.786 0-1.401-.31a2.65 2.65 0 0 1-.99-.844 2.54 2.54 0 0 1-.434-1.213l-.005-.064h1.013l.006.046q.053.405.293.739.246.327.639.521.398.194.89.194.563 0 .991-.247.427-.251.668-.691.24-.44.24-1.008v-.011a2 2 0 0 0-.246-.997 1.75 1.75 0 0 0-.662-.685 1.9 1.9 0 0 0-.973-.246q-.422 0-.779.129a1.8 1.8 0 0 0-.627.386 2.4 2.4 0 0 0-.211.229 2 2 0 0 0-.176.275h-.914l.445-4.857h4.705v.943h-3.873l-.287 2.86h.094q.28-.428.756-.651a2.4 2.4 0 0 1 1.049-.228q.797 0 1.412.369.615.363.967 1.002.351.633.351 1.453v.012q0 .849-.381 1.506a2.7 2.7 0 0 1-1.037 1.019q-.662.369-1.523.369m4.775-.199v-8.455h1.225l2.894 7.055h.094l2.895-7.055h1.224V159h-.984v-6.457h-.516l1.184-1.764-3.405 8.221h-.89l-3.399-8.221 1.178 1.764h-.516V159zm11.016 0v-.932h2.613q.955 0 1.447-.38.492-.381.492-1.108v-.012q0-.486-.228-.814t-.686-.492q-.45-.165-1.125-.164h-2.513v-.909h2.215q.96 0 1.441-.339.486-.34.486-1.008v-.012q0-.645-.439-.996-.433-.357-1.219-.357h-2.484v-.932h2.707q.779 0 1.336.258.562.258.861.732.305.47.305 1.113v.012q0 .44-.2.826a1.9 1.9 0 0 1-.521.651 1.65 1.65 0 0 1-.738.34v.093q.579.07 1.002.346.422.276.65.715.234.434.234.99v.012q0 .738-.345 1.271a2.2 2.2 0 0 1-.979.815q-.638.28-1.541.281zm-.528 0v-8.455h1.055V159zm8.59.059a.75.75 0 0 1-.539-.223.75.75 0 0 1-.223-.539q0-.317.223-.539a.75.75 0 0 1 .539-.223q.317 0 .539.223a.73.73 0 0 1 .223.539.74.74 0 0 1-.223.539.74.74 0 0 1-.539.223"/><path fill="#42434d" d="M51.149 207v-9.16h1.288l5.053 7.154-.971-.501h.717v-6.653h1.39V207h-1.288l-5.06-7.147.978.501h-.723V207zm11.508.114q-.654 0-1.174-.247a2 2 0 0 1-.813-.718 1.96 1.96 0 0 1-.298-1.085v-.013q0-.927.667-1.447.672-.526 1.904-.603l2.545-.152v.971l-2.355.152q-.711.044-1.047.305-.336.253-.337.717v.013q0 .47.362.743.362.266.914.266.515 0 .915-.203.406-.21.634-.559.23-.355.229-.799v-2.171q0-.572-.356-.87-.35-.305-1.04-.305-.578 0-.947.203a1 1 0 0 0-.482.572l-.013.019H60.64l.006-.045q.083-.57.45-.99.375-.424.978-.66.61-.235 1.39-.235.87 0 1.473.279.61.273.92.794.318.514.318 1.238V207h-1.371v-.978H64.7a2.2 2.2 0 0 1-.508.597 2.2 2.2 0 0 1-.691.368q-.388.127-.845.127m5.46-.114v-6.894h1.377v1.061h.108q.228-.571.71-.883.49-.31 1.169-.311.47 0 .844.152.375.153.64.432.275.273.426.648h.108a1.9 1.9 0 0 1 .482-.648q.312-.279.724-.432.42-.152.889-.152.698 0 1.193.273.495.267.755.775.26.507.26 1.225V207h-1.377v-4.424q0-.711-.33-1.067-.324-.355-.996-.355-.438 0-.768.203a1.4 1.4 0 0 0-.508.533q-.178.33-.178.749V207h-1.377v-4.564q0-.591-.362-.933-.356-.35-.965-.349-.413 0-.743.216a1.53 1.53 0 0 0-.514.584q-.19.362-.19.812V207zm14.51.133q-1.009 0-1.733-.431a2.9 2.9 0 0 1-1.117-1.238q-.387-.8-.387-1.892v-.006q0-1.079.387-1.885.393-.807 1.104-1.257.717-.451 1.676-.451.965 0 1.657.432.698.432 1.073 1.212.374.774.374 1.816v.482h-5.573v-.984h4.888l-.66.914v-.552q0-.736-.23-1.219-.22-.489-.615-.73a1.7 1.7 0 0 0-.907-.241q-.515 0-.92.254-.402.247-.636.736-.228.489-.228 1.2v.552q0 .68.228 1.162.229.482.648.736.425.254 1.003.254.444 0 .761-.121.324-.126.527-.311.21-.184.286-.361l.025-.051h1.333l-.012.057a2.36 2.36 0 0 1-.902 1.301 3 3 0 0 1-.876.451q-.507.171-1.174.171"/><g filter="url(#f)"><rect width="392" height="30" x="50" y="219" fill="#fff" rx="6"/></g><path fill="#42434d" d="M54.247 287.222q-1.035 0-1.803-.324-.768-.33-1.213-.914a2.53 2.53 0 0 1-.507-1.352l-.007-.082h1.403l.007.07q.045.413.323.717.285.305.762.476.482.171 1.098.171.578 0 1.028-.184t.705-.508a1.15 1.15 0 0 0 .26-.742v-.007q0-.526-.4-.876-.4-.348-1.307-.545l-1.003-.21q-1.39-.298-2.025-.946-.635-.654-.635-1.669v-.006q.006-.794.425-1.397.425-.603 1.175-.939.749-.337 1.72-.337.97 0 1.695.337.73.33 1.149.901.425.571.476 1.289l.006.082h-1.39l-.013-.082a1.3 1.3 0 0 0-.31-.667 1.64 1.64 0 0 0-.667-.457 2.4 2.4 0 0 0-.965-.165q-.534 0-.952.165-.42.159-.667.463-.24.305-.241.737v.006q0 .508.387.851.394.337 1.276.526l1.003.223q1.44.304 2.07.914.634.61.634 1.625v.006q0 .876-.431 1.517-.426.635-1.213.984-.787.35-1.853.349m5.275-.222v-9.598h1.377V287zm5.725.133q-.774 0-1.307-.298a1.92 1.92 0 0 1-.794-.876q-.26-.577-.26-1.39v-4.463h1.377v4.139q0 .85.337 1.276.336.425 1.098.425.546 0 .92-.216a1.4 1.4 0 0 0 .572-.622q.19-.405.19-.958v-4.044h1.384V287H67.38v-1.041h-.102a1.9 1.9 0 0 1-.761.863q-.514.312-1.27.311m8.41 2.298q-.875 0-1.523-.241-.641-.241-1.015-.673a1.9 1.9 0 0 1-.457-1.003l.006-.013h1.396l.007.013q.088.356.501.584t1.105.229q.85 0 1.326-.388.483-.387.483-1.085v-1.352h-.108a2.2 2.2 0 0 1-.52.635 2.2 2.2 0 0 1-.724.393 2.8 2.8 0 0 1-.883.134q-.876 0-1.523-.419a2.8 2.8 0 0 1-.99-1.168q-.343-.75-.343-1.721v-.012q0-.984.35-1.74.348-.76.996-1.187.647-.43 1.542-.431.483 0 .882.152.406.153.718.432t.514.666h.082v-1.13h1.378v6.754q0 .781-.394 1.359-.387.577-1.104.895-.717.317-1.701.317m-.018-3.91q.583 0 1.003-.273.419-.279.64-.768.23-.489.23-1.13v-.013q0-.634-.23-1.129a1.8 1.8 0 0 0-.64-.775q-.42-.279-1.003-.279-.585 0-.997.279a1.77 1.77 0 0 0-.622.775 2.8 2.8 0 0 0-.216 1.129v.013q0 .641.216 1.13t.622.768q.412.273.997.273m12.606 1.701q-1.149 0-1.98-.425a3.1 3.1 0 0 1-1.283-1.181q-.45-.762-.45-1.771v-6.005h1.428v5.897q0 .99.597 1.606.603.616 1.688.616 1.098 0 1.689-.616.59-.616.59-1.606v-5.897h1.428v6.005q0 1.01-.45 1.771a3.06 3.06 0 0 1-1.276 1.181q-.825.425-1.98.425m5.999-.222v-9.16h3.612q.939 0 1.625.349.686.344 1.053.972.375.621.375 1.472v.013q0 .927-.47 1.631-.47.699-1.308.984l2.05 3.739H97.54l-1.867-3.523h-2.006V287zm1.421-4.678h2.05q.82 0 1.27-.426.45-.43.451-1.212v-.013q0-.76-.47-1.199-.463-.438-1.295-.438h-2.006zM100.94 287v-9.16h1.422v7.929h4.297V287z"/><g filter="url(#g)"><rect width="392" height="30" x="50" y="299" fill="#fff" rx="6"/><path fill="#9394a1" d="M63.028 319v-6.843h1.105v1.041h.101q.23-.552.699-.857.476-.304 1.148-.304.465 0 .832.152.368.152.635.425.267.267.425.622h.102q.183-.361.495-.628.31-.273.717-.419.413-.152.882-.152.7 0 1.181.26.49.26.743.762.254.495.254 1.212V319h-1.105v-4.475q0-.755-.355-1.13-.349-.381-1.073-.381a1.57 1.57 0 0 0-.832.216 1.5 1.5 0 0 0-.552.578 1.6 1.6 0 0 0-.197.793V319H67.13v-4.646q0-.61-.387-.972-.387-.368-1.035-.368-.444 0-.806.235a1.7 1.7 0 0 0-.565.635 1.9 1.9 0 0 0-.203.876V319zm11.642 2.399q-.108 0-.241-.012a2 2 0 0 1-.248-.026v-.907q.102.019.222.025t.235.006q.47 0 .768-.241.305-.241.489-.831l.127-.407-2.533-6.849h1.18l2.108 6.322-.438-.691h.52l-.437.691 2.1-6.322h1.163l-2.673 7.262q-.286.768-.597 1.2a1.67 1.67 0 0 1-.723.603q-.413.177-1.022.177m6.252-5.573v-1.028h4.266v1.028zm9.04 3.295q-.972 0-1.683-.426a2.87 2.87 0 0 1-1.091-1.225q-.381-.793-.381-1.885v-.013q0-1.098.38-1.891a2.83 2.83 0 0 1 1.092-1.219q.711-.426 1.682-.425.978 0 1.683.425t1.085 1.219q.387.793.387 1.891v.013q0 1.092-.387 1.885a2.83 2.83 0 0 1-1.085 1.225q-.704.426-1.683.426m0-.978q.647 0 1.098-.305.45-.304.685-.876.24-.57.241-1.377v-.013q0-.812-.24-1.384-.236-.57-.686-.869-.45-.305-1.099-.305-.647 0-1.098.305-.45.299-.692.869-.234.572-.235 1.384v.013q0 .806.235 1.377.242.572.692.876t1.098.305m4.868.857v-6.843h1.105v1.016h.101a1.62 1.62 0 0 1 .667-.838q.47-.298 1.161-.298.16 0 .311.019.16.012.242.025v1.073a3 3 0 0 0-.337-.045 3 3 0 0 0-.343-.019q-.526 0-.933.21-.405.209-.64.584a1.64 1.64 0 0 0-.23.876V319zm7.579 2.412q-.825 0-1.441-.235-.615-.228-.984-.654a1.93 1.93 0 0 1-.45-.977l.012-.006h1.143l.006.006q.09.387.534.635.444.254 1.18.254.92 0 1.435-.419.52-.413.52-1.168v-1.384h-.101a2.33 2.33 0 0 1-1.27 1.047 2.8 2.8 0 0 1-.876.134q-.882 0-1.53-.419a2.8 2.8 0 0 1-.99-1.168q-.35-.744-.349-1.702v-.012q0-.959.35-1.701.354-.75 1.002-1.175.648-.43 1.543-.431.482 0 .888.152t.718.432q.317.279.526.666h.077v-1.13h1.104v6.748q0 .762-.374 1.326-.369.566-1.054.87-.686.31-1.619.311m-.051-3.745q.635 0 1.086-.292.457-.298.698-.819.248-.52.248-1.2v-.012q0-.68-.248-1.206a1.9 1.9 0 0 0-.698-.826q-.45-.298-1.086-.298-.634 0-1.079.298a1.9 1.9 0 0 0-.673.826 3 3 0 0 0-.228 1.206v.012q0 .68.228 1.2.235.52.673.819.445.292 1.079.292"/></g><path fill="#131316" d="M56.541 49.307q-1.735 0-2.997-.764-1.26-.764-1.942-2.174-.68-1.411-.68-3.354v-.017q0-1.941.68-3.353.681-1.41 1.934-2.167 1.262-.763 3.005-.763 1.42 0 2.548.556a4.8 4.8 0 0 1 1.835 1.536q.698.98.813 2.24v.109h-2.432l-.008-.058a2.76 2.76 0 0 0-.506-1.18 2.6 2.6 0 0 0-.963-.796 2.9 2.9 0 0 0-1.287-.282q-.938 0-1.627.506-.69.497-1.062 1.436-.366.93-.366 2.217v.016q0 1.278.366 2.216.374.938 1.062 1.445.69.506 1.635.506.722 0 1.287-.257.573-.265.946-.739.383-.48.507-1.12l.016-.075h2.44v.1q-.132 1.252-.821 2.199a4.7 4.7 0 0 1-1.81 1.486q-1.12.531-2.573.531M63.643 49v-9.14h2.423v1.42h.15q.224-.746.822-1.154.597-.415 1.485-.415.25 0 .482.034.24.033.423.083v2.116a5 5 0 0 0-.556-.1 4 4 0 0 0-.556-.04q-.69 0-1.195.256a1.8 1.8 0 0 0-.78.714q-.275.465-.275 1.113V49zm11.052.19q-1.386 0-2.39-.572a3.9 3.9 0 0 1-1.536-1.643q-.54-1.064-.54-2.532v-.008q0-1.453.532-2.524a4 4 0 0 1 1.519-1.66q.987-.59 2.316-.59 1.336 0 2.307.573a3.83 3.83 0 0 1 1.494 1.602q.523 1.03.523 2.416v.755h-7.479v-1.519h6.317l-1.137 1.436v-.97q0-.823-.257-1.37-.25-.549-.698-.822a1.86 1.86 0 0 0-1.029-.282 1.9 1.9 0 0 0-1.037.29q-.45.283-.714.838-.258.549-.258 1.345v.98q0 .771.258 1.32.257.547.73.838.474.29 1.129.29.531 0 .905-.157a2 2 0 0 0 .597-.366q.232-.215.316-.39l.025-.05h2.258l-.017.084q-.108.431-.39.904-.282.465-.78.872-.49.406-1.229.664-.73.249-1.735.249m8.53-.049q-.863 0-1.545-.332a2.6 2.6 0 0 1-1.054-.954q-.382-.623-.382-1.453v-.017q0-1.236.922-1.934.92-.705 2.623-.805l3.403-.208v1.478l-3.038.2q-.78.041-1.162.331a.94.94 0 0 0-.382.789v.016a.97.97 0 0 0 .399.822q.398.3 1.029.299.564 0 1.004-.224.44-.225.698-.606.257-.39.257-.872v-2.913q0-.598-.399-.913-.39-.324-1.137-.324-.656 0-1.07.224a1.1 1.1 0 0 0-.549.623l-.016.033h-2.241l.008-.075a2.6 2.6 0 0 1 .606-1.403q.514-.597 1.378-.93.871-.33 2.017-.331 1.212 0 2.059.373.846.366 1.286 1.063.449.688.449 1.66V49h-2.391v-1.212h-.15a2.4 2.4 0 0 1-.622.73 2.9 2.9 0 0 1-.897.465 3.7 3.7 0 0 1-1.104.158m11.16-.108q-1.66 0-2.39-.58-.732-.59-.731-1.918v-4.848h-1.411v-1.826h1.41v-2.183h2.45v2.183h1.884v1.826h-1.884v4.291q-.001.615.274.905.282.282.896.282.232 0 .382-.008l.332-.033v1.801a7 7 0 0 1-1.212.108m7.01.158q-1.386 0-2.39-.573a3.9 3.9 0 0 1-1.536-1.643q-.54-1.064-.54-2.532v-.008q0-1.453.531-2.524a4 4 0 0 1 1.52-1.66q.987-.59 2.316-.59 1.336 0 2.307.573a3.83 3.83 0 0 1 1.494 1.602q.523 1.03.523 2.416v.755H98.14v-1.519h6.317l-1.137 1.436v-.97q0-.823-.257-1.37-.25-.549-.698-.822a1.86 1.86 0 0 0-1.029-.282q-.58 0-1.038.29-.447.283-.714.838-.257.549-.257 1.345v.98q0 .771.257 1.32.258.547.731.838t1.129.29q.531 0 .905-.157.373-.157.597-.366.232-.215.316-.39l.025-.05h2.258l-.017.084q-.108.431-.39.904-.282.465-.781.872-.49.406-1.228.664-.73.249-1.735.249m14.311 0q-1.402 0-2.416-.565a3.8 3.8 0 0 1-1.552-1.635q-.539-1.071-.539-2.556v-.017q0-1.478.548-2.54a3.9 3.9 0 0 1 1.552-1.635q1.012-.582 2.407-.581 1.394 0 2.399.572a3.86 3.86 0 0 1 1.56 1.644q.548 1.062.548 2.54v.017q0 1.485-.539 2.556a3.8 3.8 0 0 1-1.552 1.636q-1.005.564-2.416.564m0-1.901q.648 0 1.096-.34t.689-.98.24-1.535v-.017q0-.897-.24-1.527-.241-.64-.698-.98-.448-.349-1.087-.349t-1.096.35q-.448.34-.689.979-.24.63-.24 1.527v.017q0 .904.232 1.543.241.64.689.98.456.332 1.104.332m6.313 1.71v-9.14h2.424v1.42h.149q.224-.746.822-1.154.598-.415 1.486-.415.249 0 .481.034.241.033.424.083v2.116a5 5 0 0 0-.557-.1 4 4 0 0 0-.556-.04q-.689 0-1.195.256a1.8 1.8 0 0 0-.78.714q-.274.465-.274 1.113V49zm11.069 3.212q-1.27 0-2.175-.332-.896-.323-1.411-.921a2.5 2.5 0 0 1-.614-1.361v-.042h2.399l.008.033q.1.399.565.648.473.249 1.278.249.97 0 1.511-.44.539-.431.539-1.229v-1.701h-.149a2.55 2.55 0 0 1-.656.813q-.398.332-.93.506-.523.167-1.153.167-1.146 0-1.984-.548-.831-.557-1.287-1.544-.448-.989-.448-2.283v-.017q0-1.344.448-2.357.456-1.012 1.295-1.577.846-.565 2.017-.565.631 0 1.154.2.531.199.93.564.397.366.639.88h.116v-1.494h2.424v8.857q0 1.07-.556 1.85-.549.79-1.561 1.213-1.013.431-2.399.431m.033-5.47q.657 0 1.121-.315.465-.324.714-.888.257-.566.257-1.32v-.017q0-.747-.257-1.32a2 2 0 0 0-.714-.888q-.464-.315-1.121-.315-.656 0-1.112.315-.456.316-.706.888-.24.566-.24 1.32v.017q0 .747.24 1.32.25.564.706.888.456.315 1.112.315m9.227 2.4q-.863 0-1.544-.333a2.6 2.6 0 0 1-1.054-.954q-.382-.623-.382-1.453v-.017q0-1.236.921-1.934.922-.705 2.623-.805l3.404-.208v1.478l-3.038.2q-.781.041-1.163.331a.94.94 0 0 0-.381.789v.016q0 .524.398.822.399.3 1.029.299.565 0 1.005-.224a1.8 1.8 0 0 0 .697-.606q.257-.39.257-.872v-2.913q0-.598-.398-.913-.39-.324-1.137-.324-.656 0-1.071.224a1.1 1.1 0 0 0-.548.623l-.017.033h-2.241l.009-.075a2.6 2.6 0 0 1 .605-1.403q.516-.597 1.378-.93.872-.33 2.017-.331 1.213 0 2.059.373.847.366 1.287 1.063.448.688.448 1.66V49h-2.391v-1.212h-.149a2.4 2.4 0 0 1-.623.73q-.381.3-.896.465a3.7 3.7 0 0 1-1.104.158m7.367-.142v-9.14h2.424v1.412h.149q.315-.747.98-1.179.663-.431 1.643-.431 1.527 0 2.324.896.806.888.806 2.532V49h-2.424v-5.362q0-.971-.407-1.47-.406-.498-1.27-.498-.557 0-.963.258a1.7 1.7 0 0 0-.622.705q-.216.457-.216 1.08V49zm10.521 0v-9.14h2.424V49zm1.221-10.542q-.557 0-.963-.39a1.3 1.3 0 0 1-.407-.955q0-.564.407-.954a1.33 1.33 0 0 1 .963-.399q.564 0 .962.399.399.39.399.954 0 .557-.399.955-.398.39-.962.39M164.723 49v-1.395l4.657-5.769v-.149h-4.59v-1.826h7.454v1.544l-4.391 5.62v.149h4.499V49zm12.157.141q-.863 0-1.544-.332a2.6 2.6 0 0 1-1.054-.954q-.382-.623-.382-1.453v-.017q0-1.236.921-1.934.922-.705 2.623-.805l3.404-.208v1.478l-3.039.2q-.78.041-1.162.331a.94.94 0 0 0-.381.789v.016q0 .524.398.822.399.3 1.029.299.565 0 1.005-.224a1.8 1.8 0 0 0 .697-.606q.257-.39.257-.872v-2.913q0-.598-.398-.913-.39-.324-1.137-.324-.657 0-1.071.224a1.1 1.1 0 0 0-.548.623l-.017.033h-2.241l.008-.075a2.63 2.63 0 0 1 .606-1.403q.515-.597 1.378-.93.872-.33 2.017-.331 1.212 0 2.059.373.846.366 1.287 1.063.447.688.448 1.66V49h-2.391v-1.212h-.149a2.4 2.4 0 0 1-.623.73q-.381.3-.896.465a3.7 3.7 0 0 1-1.104.158m11.16-.108q-1.66 0-2.39-.58-.73-.59-.731-1.918v-4.848h-1.411v-1.826h1.411v-2.183h2.449v2.183h1.884v1.826h-1.884v4.291q0 .615.274.905.282.282.896.282.233 0 .382-.008l.332-.033v1.801a7 7 0 0 1-1.212.108m3.076-.033v-9.14h2.424V49zm1.22-10.542q-.557 0-.963-.39a1.3 1.3 0 0 1-.406-.955q0-.564.406-.954a1.33 1.33 0 0 1 .963-.399q.564 0 .963.399.398.39.398.954a1.3 1.3 0 0 1-.398.955q-.399.39-.963.39m7.533 10.733q-1.403 0-2.415-.565a3.8 3.8 0 0 1-1.552-1.635q-.54-1.071-.54-2.556v-.017q0-1.478.548-2.54a3.9 3.9 0 0 1 1.552-1.635q1.013-.582 2.407-.581 1.395 0 2.399.572 1.013.573 1.561 1.644.548 1.062.548 2.54v.017q0 1.485-.54 2.556a3.8 3.8 0 0 1-1.552 1.636q-1.005.564-2.416.564m0-1.901q.648 0 1.096-.34t.689-.98.241-1.535v-.017q0-.897-.241-1.527-.241-.64-.697-.98-.449-.349-1.088-.349t-1.095.35q-.449.34-.689.979-.241.63-.241 1.527v.017q0 .904.232 1.543.241.64.689.98.458.332 1.104.332m6.313 1.71v-9.14h2.424v1.412h.149q.316-.747.98-1.179.664-.431 1.643-.431 1.528 0 2.325.896.804.888.805 2.532V49h-2.424v-5.362q0-.971-.407-1.47-.406-.498-1.27-.498-.555 0-.963.258a1.7 1.7 0 0 0-.622.705q-.216.457-.216 1.08V49z"/><g filter="url(#h)"><rect width="148" height="32" x="294" y="353" fill="#2f3037" rx="6"/><rect width="148" height="32" x="294" y="353" fill="url(#i)" fill-opacity=".1" rx="6"/><g filter="url(#j)"><path fill="#fff" d="M311.22 374.222q-1.269 0-2.202-.584-.927-.583-1.429-1.657-.501-1.072-.501-2.551v-.013q0-1.485.501-2.558.502-1.073 1.429-1.657.926-.584 2.202-.584 1.01 0 1.822.4.819.393 1.339 1.092a3.3 3.3 0 0 1 .641 1.606v.038h-1.415l-.006-.025a2.34 2.34 0 0 0-.464-.978 2.3 2.3 0 0 0-.825-.641 2.55 2.55 0 0 0-1.092-.229q-.819 0-1.422.432-.596.432-.926 1.225-.324.787-.324 1.879v.013q0 1.079.324 1.872.33.794.926 1.225.603.432 1.429.432a2.8 2.8 0 0 0 1.091-.203q.495-.203.826-.578.33-.38.45-.895l.013-.025h1.422l-.007.032a3.24 3.24 0 0 1-.647 1.542q-.514.66-1.32 1.028-.807.363-1.835.362m5.516-.222v-6.894h1.378v1.041h.108a1.6 1.6 0 0 1 .647-.856q.47-.305 1.155-.305a3 3 0 0 1 .603.063v1.27a3.4 3.4 0 0 0-.742-.076q-.526 0-.927.203-.394.203-.622.571a1.6 1.6 0 0 0-.222.863V374zm7.935.133q-1.01 0-1.733-.431a2.9 2.9 0 0 1-1.117-1.238q-.387-.8-.387-1.892v-.006q0-1.079.387-1.885.393-.807 1.104-1.257.717-.451 1.676-.451.965 0 1.657.432.698.432 1.073 1.212.374.775.374 1.816v.482h-5.573v-.984h4.888l-.661.914v-.552q0-.736-.228-1.219-.222-.489-.616-.73a1.7 1.7 0 0 0-.908-.241q-.513 0-.92.254-.4.247-.635.736-.228.489-.228 1.2v.552q0 .68.228 1.162.229.482.648.736.425.254 1.003.254.444 0 .761-.121.324-.126.527-.311.21-.184.286-.361l.025-.051h1.333l-.012.057q-.09.342-.311.686a2.5 2.5 0 0 1-.591.615 3 3 0 0 1-.876.451q-.508.171-1.174.171m6.563-.019q-.653 0-1.174-.247a2 2 0 0 1-.812-.718 1.96 1.96 0 0 1-.299-1.085v-.013q0-.927.667-1.447.672-.526 1.904-.603l2.545-.152v.971l-2.355.152q-.711.044-1.047.305-.336.254-.336.717v.013q0 .47.361.743.362.266.915.266a2 2 0 0 0 .914-.203q.405-.21.634-.559a1.44 1.44 0 0 0 .229-.799v-2.171q0-.572-.356-.87-.348-.305-1.041-.305-.577 0-.945.203a1 1 0 0 0-.483.572l-.013.019h-1.326l.006-.045a1.87 1.87 0 0 1 .451-.99q.375-.425.977-.66.61-.235 1.391-.235.869 0 1.472.279.609.273.921.794.317.514.317 1.238V374h-1.371v-.978h-.102a2.2 2.2 0 0 1-.507.597 2.2 2.2 0 0 1-.692.368q-.388.127-.845.127m8.062-.07q-1.13 0-1.638-.431-.501-.438-.501-1.428v-3.993h-1.079v-1.086h1.079v-1.739h1.409v1.739h1.479v1.086h-1.479v3.656q0 .559.222.806.223.242.736.242a5 5 0 0 0 .521-.026v1.105q-.165.025-.356.044a3 3 0 0 1-.393.025m5.18.089q-1.01 0-1.733-.431a2.9 2.9 0 0 1-1.118-1.238q-.387-.8-.387-1.892v-.006q0-1.079.387-1.885a3 3 0 0 1 1.105-1.257q.717-.451 1.676-.451.964 0 1.656.432a2.8 2.8 0 0 1 1.073 1.212q.375.775.375 1.816v.482h-5.573v-.984h4.887l-.66.914v-.552q0-.736-.228-1.219-.223-.489-.616-.73a1.7 1.7 0 0 0-.908-.241q-.514 0-.92.254-.4.247-.635.736-.228.489-.229 1.2v.552q0 .68.229 1.162.228.482.647.736.426.254 1.003.254.445 0 .762-.121a1.7 1.7 0 0 0 .527-.311q.21-.184.286-.361l.025-.051h1.333l-.013.057a2.4 2.4 0 0 1-.311.686 2.5 2.5 0 0 1-.59.615 3 3 0 0 1-.876.451 3.7 3.7 0 0 1-1.174.171m11.133 0q-1.008 0-1.745-.431a2.87 2.87 0 0 1-1.124-1.232q-.393-.806-.393-1.91v-.013q0-1.111.393-1.911a2.9 2.9 0 0 1 1.13-1.231q.737-.432 1.739-.432 1.01 0 1.74.432.73.425 1.123 1.231.4.8.4 1.911v.013q0 1.104-.4 1.91a2.86 2.86 0 0 1-1.123 1.232q-.724.43-1.74.431m0-1.155q.59 0 1.003-.286.413-.291.629-.831t.216-1.301v-.013q0-.768-.216-1.308t-.629-.825q-.412-.292-1.003-.292-.59 0-1.003.292-.412.286-.634.825-.216.54-.216 1.308v.013q0 .76.216 1.301.222.54.634.831.414.286 1.003.286M360.51 374v-6.894h1.377v1.041h.108q.184-.552.648-.856.47-.305 1.155-.305a3 3 0 0 1 .603.063v1.27a3.5 3.5 0 0 0-.743-.076q-.527 0-.927.203a1.57 1.57 0 0 0-.622.571 1.6 1.6 0 0 0-.222.863V374zm7.953 2.431q-.875 0-1.523-.241-.64-.241-1.016-.673a1.9 1.9 0 0 1-.457-1.003l.007-.013h1.396l.006.013q.09.356.502.584t1.104.229q.851 0 1.327-.388.483-.387.483-1.085v-1.352h-.108a2.2 2.2 0 0 1-.521.635 2.2 2.2 0 0 1-.724.393q-.405.134-.882.134-.876 0-1.523-.419a2.8 2.8 0 0 1-.991-1.168q-.342-.75-.342-1.721v-.012q0-.984.349-1.74.35-.76.996-1.187.648-.43 1.543-.431.482 0 .882.152.407.153.717.432.312.279.515.666h.082v-1.13h1.378v6.754q0 .781-.394 1.359-.387.577-1.104.895-.718.317-1.702.317m-.019-3.91q.585 0 1.003-.273.42-.279.641-.768a2.6 2.6 0 0 0 .229-1.13v-.013q0-.634-.229-1.129a1.77 1.77 0 0 0-.641-.775q-.418-.279-1.003-.279-.584 0-.996.279a1.77 1.77 0 0 0-.622.775 2.8 2.8 0 0 0-.216 1.129v.013q0 .641.216 1.13t.622.768q.413.273.996.273m7.097 1.593a2.7 2.7 0 0 1-1.174-.247 2 2 0 0 1-.813-.718 1.96 1.96 0 0 1-.298-1.085v-.013q0-.927.666-1.447.673-.526 1.905-.603l2.545-.152v.971l-2.355.152q-.711.044-1.047.305-.337.254-.337.717v.013q0 .47.362.743.362.266.914.266.515 0 .914-.203.407-.21.635-.559.228-.355.229-.799v-2.171q0-.572-.356-.87-.35-.305-1.041-.305-.577 0-.946.203a1 1 0 0 0-.482.572l-.013.019h-1.327l.007-.045q.082-.57.45-.99.375-.425.978-.66.61-.235 1.39-.235.87 0 1.473.279.61.273.92.794.318.514.318 1.238V374h-1.371v-.978h-.102a2.2 2.2 0 0 1-.508.597 2.2 2.2 0 0 1-.692.368 2.7 2.7 0 0 1-.844.127M381 374v-6.894h1.377v1.041h.108a1.97 1.97 0 0 1 .749-.863q.495-.31 1.251-.311 1.162 0 1.777.667.616.666.616 1.898V374h-1.384v-4.139q0-.863-.362-1.282-.355-.425-1.117-.425a1.65 1.65 0 0 0-.869.222 1.46 1.46 0 0 0-.572.622q-.197.4-.197.959V374zm7.814 0v-6.894h1.384V374zm.698-8.125a.83.83 0 0 1-.609-.254.83.83 0 0 1-.254-.609q0-.356.254-.603a.83.83 0 0 1 .609-.254.83.83 0 0 1 .61.254.8.8 0 0 1 .253.603.83.83 0 0 1-.253.609.84.84 0 0 1-.61.254m2.527 8.125v-.895l3.808-4.805v-.108h-3.783v-1.086h5.408v.953l-3.72 4.741v.108h3.765V374zm9.197.114a2.7 2.7 0 0 1-1.174-.247 2 2 0 0 1-.812-.718 1.96 1.96 0 0 1-.299-1.085v-.013q0-.927.667-1.447.672-.526 1.904-.603l2.545-.152v.971l-2.355.152q-.711.044-1.047.305-.336.254-.336.717v.013q0 .47.361.743.363.266.914.266a2 2 0 0 0 .915-.203q.406-.21.634-.559a1.44 1.44 0 0 0 .229-.799v-2.171q0-.572-.356-.87-.348-.305-1.041-.305-.577 0-.945.203a1 1 0 0 0-.483.572l-.013.019h-1.326l.006-.045a1.87 1.87 0 0 1 .451-.99 2.5 2.5 0 0 1 .977-.66 3.8 3.8 0 0 1 1.39-.235q.87 0 1.473.279.609.273.921.794.317.514.317 1.238V374h-1.371v-.978h-.102a2.1 2.1 0 0 1-.508.597 2.2 2.2 0 0 1-.691.368q-.388.127-.845.127m8.062-.07q-1.13 0-1.638-.431-.501-.438-.501-1.428v-3.993h-1.079v-1.086h1.079v-1.739h1.409v1.739h1.479v1.086h-1.479v3.656q0 .559.222.806.223.242.736.242a5 5 0 0 0 .521-.026v1.105q-.165.025-.356.044a3 3 0 0 1-.393.025m2.38-.044v-6.894h1.384V374zm.698-8.125a.83.83 0 0 1-.609-.254.83.83 0 0 1-.254-.609q0-.356.254-.603a.83.83 0 0 1 .609-.254.83.83 0 0 1 .61.254.8.8 0 0 1 .254.603.83.83 0 0 1-.254.609.83.83 0 0 1-.61.254m5.605 8.258q-1.008 0-1.745-.431a2.87 2.87 0 0 1-1.124-1.232q-.393-.806-.393-1.91v-.013q0-1.111.393-1.911a2.9 2.9 0 0 1 1.13-1.231q.737-.432 1.739-.432 1.01 0 1.74.432.73.425 1.123 1.231.4.8.4 1.911v.013q0 1.104-.4 1.91a2.86 2.86 0 0 1-1.123 1.232q-.724.43-1.74.431m0-1.155q.59 0 1.003-.286.413-.291.629-.831t.216-1.301v-.013q0-.768-.216-1.308t-.629-.825q-.412-.292-1.003-.292-.59 0-1.002.292-.414.286-.635.825-.216.54-.216 1.308v.013q0 .76.216 1.301.221.54.635.831.412.286 1.002.286m4.901 1.022v-6.894h1.377v1.041h.108q.254-.551.749-.863.495-.31 1.251-.311 1.162 0 1.777.667.616.666.616 1.898V374h-1.384v-4.139q0-.863-.362-1.282-.355-.425-1.117-.425-.501 0-.87.222a1.46 1.46 0 0 0-.571.622q-.197.4-.197.959V374z"/></g></g></g><path fill="#747686" d="M188.809 437.205q-.956 0-1.664-.299-.71-.304-1.119-.844a2.33 2.33 0 0 1-.469-1.248l-.006-.076h1.295l.006.065q.04.38.299.662.263.281.703.439.446.159 1.013.158.534 0 .95-.169.416-.17.65-.469.24-.299.24-.686v-.006q0-.486-.369-.808t-1.207-.504l-.926-.193q-1.282-.276-1.869-.873-.585-.604-.586-1.542v-.005q.006-.733.393-1.289a2.6 2.6 0 0 1 1.084-.868q.691-.31 1.588-.31.896 0 1.564.31.674.306 1.061.832.392.527.439 1.19l.006.076h-1.283l-.012-.076a1.2 1.2 0 0 0-.287-.615 1.5 1.5 0 0 0-.615-.422 2.25 2.25 0 0 0-.891-.153q-.492 0-.879.153-.387.146-.615.427a1.07 1.07 0 0 0-.223.68v.006q0 .469.358.785.363.31 1.177.487l.926.205q1.33.28 1.91.843.586.563.586 1.5v.006q0 .808-.398 1.401-.393.585-1.119.908-.727.322-1.711.322m7.482-.082q-.931 0-1.599-.398a2.7 2.7 0 0 1-1.032-1.143q-.357-.738-.357-1.746v-.006q0-.996.357-1.74a2.8 2.8 0 0 1 1.02-1.16q.662-.417 1.547-.416.89 0 1.529.398.645.399.99 1.119.346.715.346 1.676v.445h-5.144v-.908h4.511l-.609.844v-.51q0-.68-.211-1.125a1.5 1.5 0 0 0-.568-.674 1.6 1.6 0 0 0-.838-.222q-.475 0-.85.234a1.6 1.6 0 0 0-.586.68q-.211.45-.211 1.107v.51q0 .627.211 1.072t.598.68q.392.234.926.234.41 0 .703-.111.299-.117.486-.287a1 1 0 0 0 .264-.334l.023-.047h1.231l-.012.053a2.2 2.2 0 0 1-.287.632 2.3 2.3 0 0 1-.545.569q-.334.258-.809.416a3.4 3.4 0 0 1-1.084.158m6.99 0q-.925 0-1.599-.398a2.7 2.7 0 0 1-1.031-1.149q-.364-.744-.364-1.775v-.012q0-1.014.358-1.746a2.66 2.66 0 0 1 1.031-1.131q.673-.399 1.6-.398.803 0 1.377.281.58.275.92.762.346.48.433 1.095l.006.03h-1.225l-.006-.012a1.36 1.36 0 0 0-.486-.779q-.381-.317-1.014-.317-.527 0-.908.27a1.67 1.67 0 0 0-.586.761q-.198.499-.199 1.184v.012q0 .703.205 1.207t.586.779q.381.27.902.27.598 0 .967-.264.375-.264.528-.779l.011-.03 1.219-.005-.012.052a2.6 2.6 0 0 1-.451 1.09 2.3 2.3 0 0 1-.908.738q-.562.264-1.354.264m6.288 0q-.715 0-1.207-.275a1.77 1.77 0 0 1-.733-.809q-.24-.533-.24-1.283v-4.119h1.271v3.82q0 .785.311 1.178.31.392 1.014.392.504 0 .849-.199.352-.205.528-.574a2.1 2.1 0 0 0 .175-.885v-3.732h1.278V437h-1.278v-.961h-.093q-.229.51-.704.797-.474.287-1.171.287m5.074-.123v-6.363h1.271v.961h.1q.17-.51.598-.791.433-.282 1.066-.282a2.7 2.7 0 0 1 .557.059v1.172a3.4 3.4 0 0 0-.686-.07q-.486 0-.855.187a1.44 1.44 0 0 0-.575.527 1.5 1.5 0 0 0-.205.797V437zm7.324.123q-.931 0-1.6-.398a2.7 2.7 0 0 1-1.031-1.143q-.357-.738-.357-1.746v-.006q0-.996.357-1.74a2.8 2.8 0 0 1 1.02-1.16q.662-.417 1.547-.416.89 0 1.529.398.645.399.99 1.119.346.715.346 1.676v.445h-5.145v-.908h4.512l-.609.844v-.51q0-.68-.211-1.125a1.5 1.5 0 0 0-.569-.674 1.57 1.57 0 0 0-.838-.222 1.57 1.57 0 0 0-.849.234 1.57 1.57 0 0 0-.586.68q-.211.45-.211 1.107v.51q0 .627.211 1.072t.598.68q.392.234.925.234.41 0 .703-.111.3-.117.487-.287a1 1 0 0 0 .263-.334l.024-.047h1.23l-.011.053a2.2 2.2 0 0 1-.287.632 2.3 2.3 0 0 1-.545.569 2.7 2.7 0 0 1-.809.416 3.4 3.4 0 0 1-1.084.158m6.633-.018q-.797 0-1.395-.398-.591-.404-.92-1.143-.321-.738-.322-1.74v-.012q0-1.006.322-1.746.323-.738.914-1.136.592-.405 1.401-.405.656 0 1.178.305.527.299.779.815h.094v-3.504h1.277V437h-1.277v-1.002h-.094a2 2 0 0 1-.779.814q-.504.293-1.178.293m.363-1.089q.528 0 .914-.264a1.66 1.66 0 0 0 .592-.756q.205-.498.205-1.172v-.012q0-.68-.211-1.171a1.66 1.66 0 0 0-.592-.756 1.53 1.53 0 0 0-.908-.27q-.527 0-.914.27a1.67 1.67 0 0 0-.586.756q-.2.486-.199 1.171v.012q0 .68.199 1.172.205.492.586.756.387.264.914.264m11.508 1.089q-.668 0-1.172-.293a2.04 2.04 0 0 1-.785-.814h-.1V437h-1.271v-8.859h1.271v3.504h.1q.252-.516.773-.815a2.3 2.3 0 0 1 1.184-.305q.809 0 1.4.405.593.398.914 1.136.323.74.323 1.746v.012q0 1.002-.328 1.74-.323.74-.915 1.143-.591.399-1.394.398m-.363-1.089q.533 0 .914-.264.38-.264.58-.756.205-.492.205-1.172v-.012q0-.685-.205-1.171a1.63 1.63 0 0 0-.58-.756 1.54 1.54 0 0 0-.914-.27q-.528 0-.914.27a1.66 1.66 0 0 0-.592.756q-.205.492-.205 1.171v.012q0 .674.205 1.172.205.492.592.756.386.264.914.264m4.886 3.222q-.117 0-.252-.011a5 5 0 0 1-.257-.018v-1.002q.093.012.205.018.117.005.222.005.445 0 .721-.21.275-.206.416-.686l.094-.328-2.309-6.369h1.377l1.799 5.736-.398-.656h.486l-.393.656 1.793-5.736h1.342l-2.367 6.603q-.27.761-.598 1.196-.328.44-.779.621t-1.102.181"/><ellipse cx="265.889" cy="433" fill="#747686" rx="2.187" ry="2.188"/><path fill="#747686" d="M269.831 438.179a.415.415 0 0 1-.052.641 6.97 6.97 0 0 1-3.89 1.18 6.97 6.97 0 0 1-3.891-1.18.415.415 0 0 1-.051-.641l1.598-1.598a.47.47 0 0 1 .551-.075 3.9 3.9 0 0 0 1.793.431 3.9 3.9 0 0 0 1.792-.431.47.47 0 0 1 .551.075z"/><path fill="#747686" d="M269.78 427.18a.416.416 0 0 1 .051.641l-1.599 1.598a.47.47 0 0 1-.55.074 3.938 3.938 0 0 0-5.3 5.3.47.47 0 0 1-.074.55l-1.598 1.599a.416.416 0 0 1-.641-.051 7 7 0 0 1 9.711-9.711" opacity=".5"/><path fill="#747686" fill-rule="evenodd" d="M281.748 427.422a.11.11 0 0 1 .11-.11h1.64a.11.11 0 0 1 .11.11v11.156a.11.11 0 0 1-.11.11h-1.64a.11.11 0 0 1-.11-.11zm-2.315 8.899a.11.11 0 0 0-.15.005 2.9 2.9 0 0 1-2.021.788c-.33.01-.658-.047-.965-.166a2.4 2.4 0 0 1-.818-.527c-.423-.432-.667-1.049-.667-1.785 0-1.473.98-2.48 2.45-2.48.394-.005.785.074 1.144.234.325.144.617.351.86.607.041.044.11.049.155.01l1.108-.959a.107.107 0 0 0 .011-.152c-.833-.931-2.139-1.412-3.38-1.412-2.499 0-4.271 1.686-4.271 4.166 0 1.227.441 2.26 1.183 2.989.743.729 1.801 1.158 3.022 1.158 1.531 0 2.763-.587 3.485-1.34a.107.107 0 0 0-.009-.155zm13.212-1.139a.107.107 0 0 1-.107.096h-5.748a.106.106 0 0 0-.103.132c.286 1.06 1.138 1.701 2.302 1.701a2.57 2.57 0 0 0 1.998-.881.08.08 0 0 1 .112-.01l1.155 1.006c.044.039.05.105.013.15-.698.823-1.828 1.421-3.379 1.421-2.387 0-4.186-1.653-4.186-4.163 0-1.232.424-2.264 1.13-2.994a3.9 3.9 0 0 1 1.314-.869 4 4 0 0 1 1.557-.286c2.419 0 3.983 1.701 3.983 4.05a7 7 0 0 1-.041.647m-5.924-1.524a.105.105 0 0 0 .103.133h3.821a.105.105 0 0 0 .103-.134c-.26-.901-.921-1.503-1.947-1.503a2.1 2.1 0 0 0-.881.16 2.1 2.1 0 0 0-.732.507 2.2 2.2 0 0 0-.467.837m11.651-3.172a.11.11 0 0 1 .111.109v1.837a.11.11 0 0 1-.118.109 7 7 0 0 0-.455-.024c-1.431 0-2.271 1.007-2.271 2.329v3.732a.11.11 0 0 1-.109.11h-1.641a.11.11 0 0 1-.109-.11v-7.869a.11.11 0 0 1 .109-.11h1.641a.11.11 0 0 1 .109.11v1.104q.001.01.011.011.006 0 .009-.004c.642-.857 1.588-1.333 2.588-1.333zm4.444 4.81a.04.04 0 0 1 .026-.011q.02 0 .03.017l2.075 3.334c.02.032.055.051.093.051h1.865a.11.11 0 0 0 .093-.166l-2.846-4.592a.11.11 0 0 1 .012-.131l2.742-3.026a.11.11 0 0 0-.081-.183h-1.946a.11.11 0 0 0-.081.036l-3.172 3.458a.11.11 0 0 1-.19-.074v-6.587a.11.11 0 0 0-.109-.11h-1.641a.11.11 0 0 0-.109.11v11.156c0 .061.049.109.109.109h1.641c.06 0 .109-.048.109-.109v-1.755q0-.044.029-.075z" clip-rule="evenodd"/></g></g><defs><filter id="a" width="492" height="502" x="0" y="0" color-interpolation-filters="sRGB" filterUnits="userSpaceOnUse"><feFlood flood-opacity="0" result="BackgroundImageFix"/><feColorMatrix in="SourceAlpha" result="hardAlpha" values="0 0 0 0 0 0 0 0 0 0 0 0 0 0 0 0 0 0 127 0"/><feOffset dy="5"/><feGaussianBlur stdDeviation="7.5"/><feComposite in2="hardAlpha" operator="out"/><feColorMatrix values="0 0 0 0 0 0 0 0 0 0 0 0 0 0 0 0 0 0 0.08 0"/><feBlend in2="BackgroundImageFix" result="effect1_dropShadow_4276_5"/><feColorMatrix in="SourceAlpha" result="hardAlpha" values="0 0 0 0 0 0 0 0 0 0 0 0 0 0 0 0 0 0 127 0"/><feMorphology in="SourceAlpha" radius="5" result="effect2_dropShadow_4276_5"/><feOffset dy="15"/><feGaussianBlur stdDeviation="17.5"/><feComposite in2="hardAlpha" operator="out"/><feColorMatrix values="0 0 0 0 0.0980392 0 0 0 0 0.109804 0 0 0 0 0.129412 0 0 0 0.2 0"/><feBlend in2="effect1_dropShadow_4276_5" result="effect2_dropShadow_4276_5"/><feColorMatrix in="SourceAlpha" result="hardAlpha" values="0 0 0 0 0 0 0 0 0 0 0 0 0 0 0 0 0 0 127 0"/><feMorphology in="SourceAlpha" operator="dilate" radius="1" result="effect3_dropShadow_4276_5"/><feOffset/><feComposite in2="hardAlpha" operator="out"/><feColorMatrix values="0 0 0 0 0.0980392 0 0 0 0 0.109804 0 0 0 0 0.129412 0 0 0 0.06 0"/><feBlend in2="effect2_dropShadow_4276_5" result="effect3_dropShadow_4276_5"/><feBlend in="SourceGraphic" in2="effect3_dropShadow_4276_5" result="shape"/></filter><filter id="c" width="436" height="399" x="28" y="13" color-interpolation-filters="sRGB" filterUnits="userSpaceOnUse"><feFlood flood-opacity="0" result="BackgroundImageFix"/><feColorMatrix in="SourceAlpha" result="hardAlpha" values="0 0 0 0 0 0 0 0 0 0 0 0 0 0 0 0 0 0 127 0"/><feOffset/><feGaussianBlur stdDeviation="1"/><feComposite in2="hardAlpha" operator="out"/><feColorMatrix values="0 0 0 0 0 0 0 0 0 0 0 0 0 0 0 0 0 0 0.08 0"/><feBlend in2="BackgroundImageFix" result="effect1_dropShadow_4276_5"/><feColorMatrix in="SourceAlpha" result="hardAlpha" values="0 0 0 0 0 0 0 0 0 0 0 0 0 0 0 0 0 0 127 0"/><feOffset dy="1"/><feGaussianBlur stdDeviation="1"/><feComposite in2="hardAlpha" operator="out"/><feColorMatrix values="0 0 0 0 0.0980392 0 0 0 0 0.109804 0 0 0 0 0.129412 0 0 0 0.06 0"/><feBlend in2="effect1_dropShadow_4276_5" result="effect2_dropShadow_4276_5"/><feColorMatrix in="SourceAlpha" result="hardAlpha" values="0 0 0 0 0 0 0 0 0 0 0 0 0 0 0 0 0 0 127 0"/><feMorphology in="SourceAlpha" operator="dilate" radius="1" result="effect3_dropShadow_4276_5"/><feOffset/><feComposite in2="hardAlpha" operator="out"/><feColorMatrix values="0 0 0 0 0.0980392 0 0 0 0 0.109804 0 0 0 0 0.129412 0 0 0 0.04 0"/><feBlend in2="effect2_dropShadow_4276_5" result="effect3_dropShadow_4276_5"/><feBlend in="SourceGraphic" in2="effect3_dropShadow_4276_5" result="shape"/></filter><filter id="d" width="72" height="33" x="128" y="110" color-interpolation-filters="sRGB" filterUnits="userSpaceOnUse"><feFlood flood-opacity="0" result="BackgroundImageFix"/><feColorMatrix in="SourceAlpha" result="hardAlpha" values="0 0 0 0 0 0 0 0 0 0 0 0 0 0 0 0 0 0 127 0"/><feMorphology in="SourceAlpha" radius="1" result="effect1_dropShadow_4276_5"/><feOffset dy="2"/><feGaussianBlur stdDeviation="1.5"/><feComposite in2="hardAlpha" operator="out"/><feColorMatrix values="0 0 0 0 0 0 0 0 0 0 0 0 0 0 0 0 0 0 0.08 0"/><feBlend in2="BackgroundImageFix" result="effect1_dropShadow_4276_5"/><feColorMatrix in="SourceAlpha" result="hardAlpha" values="0 0 0 0 0 0 0 0 0 0 0 0 0 0 0 0 0 0 127 0"/><feOffset dy="1"/><feComposite in2="hardAlpha" operator="out"/><feColorMatrix values="0 0 0 0 0.0980392 0 0 0 0 0.109804 0 0 0 0 0.129412 0 0 0 0.02 0"/><feBlend in2="effect1_dropShadow_4276_5" result="effect2_dropShadow_4276_5"/><feColorMatrix in="SourceAlpha" result="hardAlpha" values="0 0 0 0 0 0 0 0 0 0 0 0 0 0 0 0 0 0 127 0"/><feMorphology in="SourceAlpha" operator="dilate" radius="1" result="effect3_dropShadow_4276_5"/><feOffset/><feComposite in2="hardAlpha" operator="out"/><feColorMatrix values="0 0 0 0 0.0980392 0 0 0 0 0.109804 0 0 0 0 0.129412 0 0 0 0.08 0"/><feBlend in2="effect2_dropShadow_4276_5" result="effect3_dropShadow_4276_5"/><feBlend in="SourceGraphic" in2="effect3_dropShadow_4276_5" result="shape"/></filter><filter id="e" width="42.447" height="12.896" x="143.318" y="120.402" color-interpolation-filters="sRGB" filterUnits="userSpaceOnUse"><feFlood flood-opacity="0" result="BackgroundImageFix"/><feColorMatrix in="SourceAlpha" result="hardAlpha" values="0 0 0 0 0 0 0 0 0 0 0 0 0 0 0 0 0 0 127 0"/><feOffset dy="1"/><feComposite in2="hardAlpha" operator="out"/><feColorMatrix values="0 0 0 0 1 0 0 0 0 1 0 0 0 0 1 0 0 0 1 0"/><feBlend in2="BackgroundImageFix" result="effect1_dropShadow_4276_5"/><feBlend in="SourceGraphic" in2="effect1_dropShadow_4276_5" result="shape"/></filter><filter id="f" width="394" height="33" x="49" y="218" color-interpolation-filters="sRGB" filterUnits="userSpaceOnUse"><feFlood flood-opacity="0" result="BackgroundImageFix"/><feColorMatrix in="SourceAlpha" result="hardAlpha" values="0 0 0 0 0 0 0 0 0 0 0 0 0 0 0 0 0 0 127 0"/><feMorphology in="SourceAlpha" operator="dilate" radius="1" result="effect1_dropShadow_4276_5"/><feOffset/><feComposite in2="hardAlpha" operator="out"/><feColorMatrix values="0 0 0 0 0 0 0 0 0 0 0 0 0 0 0 0 0 0 0.1 0"/><feBlend in2="BackgroundImageFix" result="effect1_dropShadow_4276_5"/><feColorMatrix in="SourceAlpha" result="hardAlpha" values="0 0 0 0 0 0 0 0 0 0 0 0 0 0 0 0 0 0 127 0"/><feOffset dy="1"/><feGaussianBlur stdDeviation=".5"/><feComposite in2="hardAlpha" operator="out"/><feColorMatrix values="0 0 0 0 0 0 0 0 0 0 0 0 0 0 0 0 0 0 0.06 0"/><feBlend in2="effect1_dropShadow_4276_5" result="effect2_dropShadow_4276_5"/><feBlend in="SourceGraphic" in2="effect2_dropShadow_4276_5" result="shape"/></filter><filter id="g" width="394" height="33" x="49" y="298" color-interpolation-filters="sRGB" filterUnits="userSpaceOnUse"><feFlood flood-opacity="0" result="BackgroundImageFix"/><feColorMatrix in="SourceAlpha" result="hardAlpha" values="0 0 0 0 0 0 0 0 0 0 0 0 0 0 0 0 0 0 127 0"/><feMorphology in="SourceAlpha" operator="dilate" radius="1" result="effect1_dropShadow_4276_5"/><feOffset/><feComposite in2="hardAlpha" operator="out"/><feColorMatrix values="0 0 0 0 0 0 0 0 0 0 0 0 0 0 0 0 0 0 0.1 0"/><feBlend in2="BackgroundImageFix" result="effect1_dropShadow_4276_5"/><feColorMatrix in="SourceAlpha" result="hardAlpha" values="0 0 0 0 0 0 0 0 0 0 0 0 0 0 0 0 0 0 127 0"/><feOffset dy="1"/><feGaussianBlur stdDeviation=".5"/><feComposite in2="hardAlpha" operator="out"/><feColorMatrix values="0 0 0 0 0 0 0 0 0 0 0 0 0 0 0 0 0 0 0.06 0"/><feBlend in2="effect1_dropShadow_4276_5" result="effect2_dropShadow_4276_5"/><feBlend in="SourceGraphic" in2="effect2_dropShadow_4276_5" result="shape"/></filter><filter id="h" width="154" height="38" x="291" y="352" color-interpolation-filters="sRGB" filterUnits="userSpaceOnUse"><feFlood flood-opacity="0" result="BackgroundImageFix"/><feColorMatrix in="SourceAlpha" result="hardAlpha" values="0 0 0 0 0 0 0 0 0 0 0 0 0 0 0 0 0 0 127 0"/><feMorphology in="SourceAlpha" operator="dilate" radius="1" result="effect1_dropShadow_4276_5"/><feOffset/><feComposite in2="hardAlpha" operator="out"/><feColorMatrix values="0 0 0 0 0.184314 0 0 0 0 0.188235 0 0 0 0 0.215686 0 0 0 1 0"/><feBlend in2="BackgroundImageFix" result="effect1_dropShadow_4276_5"/><feColorMatrix in="SourceAlpha" result="hardAlpha" values="0 0 0 0 0 0 0 0 0 0 0 0 0 0 0 0 0 0 127 0"/><feOffset dy="2"/><feGaussianBlur stdDeviation="1.5"/><feComposite in2="hardAlpha" operator="out"/><feColorMatrix values="0 0 0 0 0.133333 0 0 0 0 0.164706 0 0 0 0 0.207843 0 0 0 0.2 0"/><feBlend in2="effect1_dropShadow_4276_5" result="effect2_dropShadow_4276_5"/><feColorMatrix in="SourceAlpha" result="hardAlpha" values="0 0 0 0 0 0 0 0 0 0 0 0 0 0 0 0 0 0 127 0"/><feOffset dy="1"/><feGaussianBlur stdDeviation=".5"/><feComposite in2="hardAlpha" operator="out"/><feColorMatrix values="0 0 0 0 0 0 0 0 0 0 0 0 0 0 0 0 0 0 0.24 0"/><feBlend in2="effect2_dropShadow_4276_5" result="effect3_dropShadow_4276_5"/><feBlend in="SourceGraphic" in2="effect3_dropShadow_4276_5" result="shape"/><feColorMatrix in="SourceAlpha" result="hardAlpha" values="0 0 0 0 0 0 0 0 0 0 0 0 0 0 0 0 0 0 127 0"/><feOffset dy="1"/><feGaussianBlur stdDeviation=".5"/><feComposite in2="hardAlpha" k2="-1" k3="1" operator="arithmetic"/><feColorMatrix values="0 0 0 0 1 0 0 0 0 1 0 0 0 0 1 0 0 0 0.07 0"/><feBlend in2="shape" result="effect4_innerShadow_4276_5"/></filter><filter id="j" width="127.672" height="18.276" x="304.088" y="362.155" color-interpolation-filters="sRGB" filterUnits="userSpaceOnUse"><feFlood flood-opacity="0" result="BackgroundImageFix"/><feColorMatrix in="SourceAlpha" result="hardAlpha" values="0 0 0 0 0 0 0 0 0 0 0 0 0 0 0 0 0 0 127 0"/><feOffset dy="1"/><feGaussianBlur stdDeviation="1.5"/><feComposite in2="hardAlpha" operator="out"/><feColorMatrix values="0 0 0 0 0 0 0 0 0 0 0 0 0 0 0 0 0 0 0.25 0"/><feBlend in2="BackgroundImageFix" result="effect1_dropShadow_4276_5"/><feBlend in="SourceGraphic" in2="effect1_dropShadow_4276_5" result="shape"/></filter><linearGradient id="i" x1="368" x2="368" y1="353" y2="385" gradientUnits="userSpaceOnUse"><stop stop-color="#fff"/><stop offset="1" stop-color="#fff" stop-opacity="0"/></linearGradient><clipPath id="b"><rect width="432" height="442" x="30" y="15" fill="#fff" rx="12"/></clipPath></defs></svg>