<svg xmlns="http://www.w3.org/2000/svg" width="482" height="790" fill="none"><g clip-path="url(#a)" filter="url(#b)"><g clip-path="url(#c)"><path fill="#fff" d="M41 49a6 6 0 0 1 6-6h388a6 6 0 0 1 6 6v692a6 6 0 0 1-6 6H47a6 6 0 0 1-6-6z"/><mask id="d" fill="#fff"><path d="M41 43h400v128H41z"/></mask><path fill="#f7f7f7" d="M41 43h400v128H41z"/><path fill="#000" fill-opacity=".06" d="M441 171v-1H41v2h400z" mask="url(#d)"/><path fill="#747686" d="M413.791 62.722a.756.756 0 1 0-1.069 1.07L415.93 67l-3.208 3.209a.755.755 0 1 0 1.069 1.07l3.209-3.21 3.209 3.21a.756.756 0 1 0 1.069-1.07L418.07 67l3.208-3.209a.755.755 0 1 0-1.069-1.07L417 65.932z"/><path fill="#212126" d="M62.636 77.299q-1.394 0-2.424-.432-1.02-.432-1.61-1.203a3.3 3.3 0 0 1-.664-1.802l-.008-.116h2.075l.008.083q.05.507.399.88.357.373.946.59.59.207 1.345.207.721 0 1.278-.224.555-.225.872-.614.315-.398.315-.914v-.008a1.29 1.29 0 0 0-.506-1.054q-.507-.415-1.669-.664l-1.287-.266q-1.843-.39-2.68-1.245-.83-.863-.83-2.2v-.008q0-1.072.564-1.876.573-.806 1.569-1.253 1.005-.457 2.299-.457 1.328 0 2.3.448.97.44 1.527 1.204t.622 1.727l.008.108h-2.041l-.017-.1q-.075-.474-.39-.822a2.1 2.1 0 0 0-.822-.564q-.514-.208-1.204-.208-.656 0-1.17.208a1.9 1.9 0 0 0-.814.564 1.37 1.37 0 0 0-.29.88v.008q0 .631.49 1.046.498.415 1.618.648l1.287.274q1.262.266 2.05.705.788.44 1.154 1.096.374.647.374 1.56v.009q0 1.162-.573 2.008-.564.847-1.619 1.312-1.045.465-2.482.465M72.9 77.04q-1.56 0-2.25-.572-.688-.573-.688-1.876v-5.064H68.55v-1.602h1.41v-2.224h2.1v2.224h1.91v1.602h-1.91v4.574q0 .672.283.988.291.307.93.307.225 0 .365-.008l.332-.034v1.594q-.216.042-.498.067a6 6 0 0 1-.573.025m5.442.108q-.855 0-1.536-.332a2.6 2.6 0 0 1-1.062-.938q-.382-.614-.382-1.444v-.017q0-.804.398-1.386.399-.59 1.17-.921.772-.333 1.876-.39l3.354-.208v1.361l-3.063.2q-.872.05-1.287.365-.415.316-.415.88v.016q0 .582.44.905.449.324 1.138.324.622 0 1.112-.25a2 2 0 0 0 .772-.671q.282-.432.282-.972V70.8q0-.681-.432-1.037-.43-.365-1.278-.365-.705 0-1.154.248-.448.24-.606.69l-.008.033h-1.95l.008-.075q.099-.765.597-1.337t1.32-.888q.822-.315 1.893-.315 1.178 0 1.992.365.813.357 1.237 1.046.423.681.423 1.635V77h-2.042v-1.245h-.141a2.6 2.6 0 0 1-.648.747q-.39.315-.896.481t-1.112.166m7.15-.149v-9.073h2.068v1.395h.14a2.1 2.1 0 0 1 .831-1.137q.606-.407 1.502-.407.233 0 .457.033.232.025.382.066v1.852a4 4 0 0 0-.507-.084 4 4 0 0 0-.522-.033q-.69 0-1.204.258a1.87 1.87 0 0 0-.797.738q-.282.474-.282 1.121V77zm10.655.041q-1.56 0-2.25-.572-.688-.573-.688-1.876v-5.064h-1.412v-1.602h1.412v-2.224h2.1v2.224h1.909v1.602h-1.91v4.574q0 .672.283.988.291.307.93.307.224 0 .365-.008l.332-.034v1.594a6.3 6.3 0 0 1-1.07.091m6.77.142q-1.353 0-2.325-.573a3.8 3.8 0 0 1-1.486-1.627q-.522-1.055-.522-2.499v-.008q0-1.428.514-2.49a3.9 3.9 0 0 1 1.478-1.644q.954-.59 2.241-.59 1.295 0 2.225.574a3.75 3.75 0 0 1 1.444 1.585q.506 1.021.506 2.39v.681h-7.37v-1.386h6.358l-.98 1.295v-.822q0-.905-.274-1.502-.273-.597-.763-.897a2.1 2.1 0 0 0-1.121-.298 2.1 2.1 0 0 0-1.137.315q-.49.308-.781.913-.282.598-.282 1.47v.83q0 .838.282 1.435.283.59.797.914.523.315 1.237.315.556 0 .955-.158.406-.165.655-.39.25-.233.349-.44l.025-.058h1.959l-.017.075a3 3 0 0 1-.398.896 3.4 3.4 0 0 1-.772.839 4 4 0 0 1-1.179.622q-.697.233-1.618.233m5.972-.183v-9.073h2.067v1.395h.141q.233-.73.83-1.137.606-.407 1.503-.407.232 0 .456.033.232.025.382.066v1.852a4 4 0 0 0-.506-.084 4 4 0 0 0-.523-.033q-.69 0-1.204.258a1.87 1.87 0 0 0-.797.738q-.282.474-.282 1.121V77zm-44.084 42.754q-1.83 0-3.246-.539-1.407-.551-2.239-1.594-.832-1.042-.925-2.508l-.012-.152h3.129l.023.105q.117.61.504 1.079t1.078.726q.704.258 1.77.258t1.734-.246.985-.68q.328-.446.328-1.019v-.024q0-.773-.563-1.23-.55-.469-2.074-.809l-1.934-.41q-1.559-.328-2.613-.926-1.054-.609-1.594-1.512-.527-.914-.527-2.156v-.023q0-1.453.785-2.52t2.156-1.652q1.382-.586 3.176-.586 1.817 0 3.176.562 1.36.552 2.144 1.594.797 1.032.903 2.485l.012.175h-3.13l-.011-.093a2.2 2.2 0 0 0-.492-1.149 2.4 2.4 0 0 0-1.055-.703q-.656-.246-1.535-.246-.938 0-1.57.258-.633.246-.961.679a1.5 1.5 0 0 0-.329.938v.023q0 .481.246.856.247.375.786.656.55.27 1.441.469l1.957.422q2.45.515 3.656 1.593 1.22 1.067 1.22 2.977v.012q0 1.57-.833 2.672-.82 1.09-2.273 1.664-1.442.573-3.293.574m-.575 1.945v-20.308h1.196v20.308zM74.778 120l7.266-14.004v-.094h-8.602v-2.812h12.106v2.848L78.48 120zm13.02 0v-2.414l5.883-5.543q1.113-1.055 1.687-1.746.585-.691.797-1.231.21-.538.211-1.125v-.035q0-.691-.328-1.23a2.2 2.2 0 0 0-.903-.844q-.574-.305-1.335-.305-.856 0-1.512.352a2.57 2.57 0 0 0-1.031.949 2.76 2.76 0 0 0-.387 1.371v.094h-3.281v-.094q0-1.594.796-2.812.81-1.231 2.215-1.922 1.419-.692 3.211-.692 1.781 0 3.13.633 1.358.62 2.12 1.735.762 1.102.762 2.554v.024a4.8 4.8 0 0 1-.375 1.898q-.363.879-1.219 1.875-.855.984-2.332 2.344l-4.746 4.348 1.278-2.227v2.227l-1.266-1.008h8.894V120zm16.453.211q-.809 0-1.371-.551a1.9 1.9 0 0 1-.551-1.371q0-.809.551-1.359a1.87 1.87 0 0 1 1.371-.563q.82 0 1.371.563.563.55.563 1.359t-.563 1.371q-.55.55-1.371.551m10.582.105q-2.132 0-3.68-1.066-1.534-1.067-2.355-3.035-.82-1.969-.82-4.664v-.024q0-2.695.82-4.664t2.355-3.023q1.548-1.067 3.68-1.067t3.668 1.067q1.535 1.055 2.355 3.023.833 1.969.833 4.664v.024q0 2.695-.833 4.664-.82 1.968-2.355 3.035-1.535 1.066-3.668 1.066m0-2.824q1.043 0 1.77-.703.738-.715 1.125-2.039.386-1.336.386-3.199v-.024q0-1.863-.386-3.187-.387-1.336-1.125-2.039-.727-.703-1.77-.703t-1.781.703q-.727.703-1.113 2.039-.387 1.324-.387 3.187v.024q0 1.863.387 3.199.386 1.324 1.113 2.039a2.5 2.5 0 0 0 1.781.703m15.867 2.824q-2.133 0-3.679-1.066-1.536-1.067-2.356-3.035t-.82-4.664v-.024q0-2.695.82-4.664t2.356-3.023q1.546-1.067 3.679-1.067t3.668 1.067q1.536 1.055 2.356 3.023.832 1.969.832 4.664v.024q0 2.695-.832 4.664-.82 1.968-2.356 3.035-1.535 1.066-3.668 1.066m0-2.824q1.043 0 1.77-.703.738-.715 1.125-2.039.387-1.336.386-3.199v-.024q0-1.863-.386-3.187-.387-1.336-1.125-2.039-.727-.703-1.77-.703t-1.781.703q-.727.703-1.113 2.039-.387 1.324-.387 3.187v.024q0 1.863.387 3.199.386 1.324 1.113 2.039a2.5 2.5 0 0 0 1.781.703"/><path fill="#747686" d="m148.47 106.879-2.374 10.065H145l2.369-10.065zm3.835 8.121v-5.833h1.165v.897h.092q.192-.483.601-.747.414-.263.988-.263.397 0 .715.129.317.13.542.365.231.231.36.548h.091q.145-.317.409-.548.263-.236.612-.365a2.2 2.2 0 0 1 .752-.129q.59 0 1.01.231.418.226.639.655.22.43.22 1.037V115h-1.166v-3.744q0-.402-.123-.666a.84.84 0 0 0-.376-.402 1.3 1.3 0 0 0-.623-.135 1.2 1.2 0 0 0-.65.172 1.2 1.2 0 0 0-.43.451q-.15.28-.15.634V115h-1.166v-3.862q0-.332-.139-.575a.9.9 0 0 0-.387-.375 1.25 1.25 0 0 0-.596-.135q-.349 0-.629.183a1.3 1.3 0 0 0-.435.494 1.46 1.46 0 0 0-.161.687V115zm12.299.113q-.853 0-1.477-.365a2.43 2.43 0 0 1-.95-1.042q-.333-.682-.333-1.617v-.011q0-.94.333-1.617.338-.676.956-1.042.623-.365 1.471-.365.855 0 1.472.365.618.36.951 1.042.338.677.338 1.617v.011q0 .935-.338 1.617a2.4 2.4 0 0 1-.951 1.042q-.612.365-1.472.365m0-.978q.5 0 .849-.241.35-.248.532-.704t.182-1.101v-.011q0-.65-.182-1.106a1.5 1.5 0 0 0-.532-.699 1.44 1.44 0 0 0-.849-.247q-.499 0-.848.247a1.53 1.53 0 0 0-.537.699q-.183.456-.183 1.106v.011q0 .645.183 1.101.188.456.537.704.349.241.848.241m4.147.865v-5.833h1.166v.881h.091q.214-.468.634-.731.419-.263 1.058-.263.982 0 1.504.564.52.564.521 1.606V115h-1.171v-3.502q0-.73-.306-1.085-.301-.36-.946-.36-.424 0-.736.188a1.24 1.24 0 0 0-.483.527 1.8 1.8 0 0 0-.166.811V115zm8.798.038q-.956 0-1.386-.366-.424-.37-.424-1.208v-3.379h-.913v-.918h.913v-1.472h1.192v1.472h1.252v.918h-1.252v3.094q0 .473.188.682.188.204.623.204.13 0 .22-.005l.221-.016v.935a7 7 0 0 1-.301.037 3 3 0 0 1-.333.022m2.052-.038v-8.121h1.165v3.169h.091q.216-.468.634-.731.42-.263 1.058-.263.651 0 1.101.253.451.252.688.741.236.483.236 1.176V115h-1.171v-3.502q0-.73-.306-1.085-.3-.36-.945-.36-.424 0-.736.188a1.2 1.2 0 0 0-.483.527 1.8 1.8 0 0 0-.167.811V115z"/><g filter="url(#e)"><g clip-path="url(#f)"><rect width="24" height="16" x="57" y="139" fill="#000" fill-opacity=".11" rx="8"/><g filter="url(#g)"><path fill="#fff" d="M59 147a6 6 0 1 1 12 0 6 6 0 0 1-12 0"/></g></g></g><path fill="#747686" d="M90.574 151v-.983h2.341q.817 0 1.236-.328.42-.327.419-.95v-.011q0-.419-.194-.698a1.16 1.16 0 0 0-.58-.419q-.38-.145-.95-.145h-2.272v-.919h2.03q.8 0 1.209-.29.408-.295.408-.859v-.011q0-.548-.37-.848-.371-.307-1.043-.307h-2.234v-.982h2.519q.724 0 1.246.236.526.236.805.671.28.43.28 1.021v.01q0 .41-.183.763-.181.35-.489.591a1.5 1.5 0 0 1-.692.306v.091q.526.054.918.307.392.252.612.655.22.398.22.902v.011q0 .676-.322 1.171a2.04 2.04 0 0 1-.907.752q-.591.263-1.418.263zm-.602 0v-7.75h1.203V151zm7.262 0v-5.833h1.17V151zm.59-6.875a.7.7 0 0 1-.515-.215.7.7 0 0 1-.215-.515q0-.301.215-.511a.7.7 0 0 1 .516-.215q.3 0 .515.215.216.21.215.511 0 .3-.215.515a.7.7 0 0 1-.515.215M100.15 151v-8.121h1.166V151zm2.954 0v-8.121h1.166V151zm5.35.113q-.854 0-1.466-.365a2.5 2.5 0 0 1-.946-1.048q-.327-.677-.327-1.6v-.006q0-.912.327-1.595a2.55 2.55 0 0 1 .935-1.063q.607-.382 1.418-.382.817 0 1.402.365a2.4 2.4 0 0 1 .908 1.026q.316.656.316 1.536v.409h-4.715v-.833h4.135l-.558.774v-.468q0-.623-.194-1.031a1.35 1.35 0 0 0-.521-.618 1.44 1.44 0 0 0-.768-.204q-.435 0-.778.215-.339.21-.538.623-.193.414-.193 1.015v.468q0 .574.193.982.194.409.548.624.36.214.849.214.376 0 .644-.102.275-.107.446-.263a.9.9 0 0 0 .242-.306l.021-.043h1.128l-.01.048q-.075.29-.264.58-.187.285-.499.521a2.5 2.5 0 0 1-.741.382 3.1 3.1 0 0 1-.994.145m6.08-.016q-.73 0-1.278-.366-.543-.37-.843-1.047-.296-.677-.296-1.595v-.011q0-.924.296-1.6.295-.678.837-1.042.543-.371 1.284-.371.403 0 .752.129.35.123.618.354.268.226.424.543h.086v-3.212h1.171V151h-1.171v-.918h-.086a2 2 0 0 1-.435.547 1.9 1.9 0 0 1-.607.35 2.3 2.3 0 0 1-.752.118m.333-.999q.484 0 .838-.242.354-.241.543-.693.188-.456.188-1.074v-.011q0-.622-.194-1.074a1.5 1.5 0 0 0-.542-.693 1.4 1.4 0 0 0-.833-.247q-.483 0-.838.247a1.54 1.54 0 0 0-.537.693q-.183.446-.182 1.074v.011q0 .623.182 1.074.189.452.537.693.355.242.838.242m9.045.999q-.553 0-.994-.21a1.7 1.7 0 0 1-.687-.607 1.66 1.66 0 0 1-.252-.918v-.011q0-.526.252-.897a1.7 1.7 0 0 1 .741-.58q.489-.215 1.182-.258l2.154-.129v.822l-1.993.129q-.602.037-.886.258-.285.214-.285.607v.01q0 .398.306.629.306.225.774.225.434 0 .773-.171.344-.178.537-.473.194-.301.194-.677v-1.837q0-.483-.301-.736-.296-.257-.881-.257-.49 0-.8.172a.84.84 0 0 0-.409.483l-.01.016h-1.123l.005-.038q.07-.483.382-.837.317-.36.827-.559a3.2 3.2 0 0 1 1.176-.199q.736 0 1.246.237.516.23.779.671.269.435.269 1.047V151h-1.16v-.827h-.086a1.8 1.8 0 0 1-.43.505q-.258.204-.586.311a2.3 2.3 0 0 1-.714.108m4.619-.097v-5.833h1.166v.881h.091q.215-.468.634-.731t1.058-.263q.983 0 1.504.564.52.564.521 1.606V151h-1.171v-3.502q0-.73-.306-1.085-.302-.36-.945-.36-.425 0-.736.188a1.23 1.23 0 0 0-.484.527 1.8 1.8 0 0 0-.166.811V151zm6.596 0v-5.833h1.165v.881h.092q.214-.468.634-.731.419-.263 1.058-.263.982 0 1.504.564.52.564.521 1.606V151h-1.171v-3.502q0-.73-.306-1.085-.301-.36-.946-.36-.424 0-.736.188a1.24 1.24 0 0 0-.483.527 1.8 1.8 0 0 0-.167.811V151zm8.54.113q-.656 0-1.106-.253a1.63 1.63 0 0 1-.672-.741q-.22-.489-.22-1.176v-3.776h1.165v3.502q0 .72.285 1.08.285.359.929.359.345 0 .613-.102.268-.107.451-.306a1.2 1.2 0 0 0 .268-.478q.092-.279.092-.634v-3.421h1.171V151h-1.171v-.881h-.086q-.14.312-.382.537a1.7 1.7 0 0 1-.58.339 2.3 2.3 0 0 1-.757.118m6.252-.016q-.553 0-.994-.21a1.7 1.7 0 0 1-.687-.607 1.65 1.65 0 0 1-.253-.918v-.011q0-.526.253-.897a1.7 1.7 0 0 1 .741-.58q.489-.215 1.182-.258l2.153-.129v.822l-1.992.129q-.602.037-.886.258-.285.214-.285.607v.01q0 .398.306.629.306.225.773.225.436 0 .774-.171.344-.178.537-.473.193-.301.193-.677v-1.837q0-.483-.3-.736-.296-.257-.881-.257-.489 0-.801.172a.84.84 0 0 0-.408.483l-.011.016h-1.122l.005-.038q.07-.483.382-.837.317-.36.827-.559a3.2 3.2 0 0 1 1.176-.199q.736 0 1.246.237.516.23.779.671.269.435.269 1.047V151h-1.161v-.827h-.086a1.8 1.8 0 0 1-.429.505q-.258.204-.586.311a2.3 2.3 0 0 1-.714.108m4.673-.097v-8.121h1.165V151zm2.954 0v-8.121h1.165V151zm3.47 2.052q-.108 0-.231-.011a5 5 0 0 1-.237-.016v-.919q.087.012.188.017.108.005.204.005.41 0 .661-.193.252-.189.381-.629l.086-.301-2.116-5.838h1.262l1.649 5.258-.365-.601h.446l-.36.601 1.644-5.258h1.23l-2.17 6.053q-.248.699-.548 1.096a1.67 1.67 0 0 1-.715.569q-.413.167-1.009.167M57.376 199l2.798-7.75h.973v1.358h-.366L58.644 199zm1.348-2.095.339-.967h3.528l.339.967zm4.28 2.095-2.131-6.392v-1.358h.607l2.792 7.75zm3.358 0-2.111-5.833h1.24l1.456 4.651h.086l1.45-4.651h1.23L67.608 199zm5.924.097q-.553 0-.993-.21a1.7 1.7 0 0 1-.688-.607 1.66 1.66 0 0 1-.252-.918v-.011q0-.526.252-.897.258-.37.741-.58.489-.215 1.182-.258l2.154-.129v.822l-1.993.129q-.601.037-.886.258-.285.214-.285.607v.01q0 .398.306.629.306.225.774.225.435 0 .773-.171a1.4 1.4 0 0 0 .537-.473q.195-.301.194-.677v-1.837q0-.483-.301-.736-.295-.257-.881-.257-.49 0-.8.172a.84.84 0 0 0-.409.483l-.01.016h-1.123l.005-.038q.07-.483.382-.837.317-.36.827-.559a3.2 3.2 0 0 1 1.176-.199q.736 0 1.246.237.516.23.78.671.267.435.268 1.047V199h-1.16v-.827h-.086a1.8 1.8 0 0 1-.43.505q-.258.204-.585.311a2.3 2.3 0 0 1-.715.108m4.635-.097v-5.833h1.171V199zm.591-6.875a.7.7 0 0 1-.515-.215.7.7 0 0 1-.215-.515q0-.301.215-.511a.7.7 0 0 1 .515-.215q.3 0 .516.215.215.21.215.511 0 .3-.215.515a.7.7 0 0 1-.516.215M79.838 199v-8.121h1.165V199zm4.5.097q-.553 0-.993-.21a1.7 1.7 0 0 1-.687-.607 1.66 1.66 0 0 1-.253-.918v-.011q0-.526.253-.897a1.7 1.7 0 0 1 .74-.58q.49-.215 1.183-.258l2.153-.129v.822l-1.992.129q-.602.037-.886.258-.285.214-.285.607v.01q0 .398.306.629.306.225.773.225.435 0 .774-.171a1.4 1.4 0 0 0 .537-.473q.193-.301.193-.677v-1.837q0-.483-.3-.736-.296-.257-.881-.257-.49 0-.8.172a.84.84 0 0 0-.409.483l-.01.016H82.63l.005-.038q.07-.483.382-.837.316-.36.827-.559a3.2 3.2 0 0 1 1.176-.199q.736 0 1.246.237.516.23.779.671.268.435.268 1.047V199h-1.16v-.827h-.086a1.8 1.8 0 0 1-.43.505q-.256.204-.585.311a2.3 2.3 0 0 1-.714.108m7.725 0q-.409 0-.752-.118a2 2 0 0 1-.613-.35 1.9 1.9 0 0 1-.43-.547h-.09V199h-1.166v-8.121h1.165v3.212h.092q.155-.317.424-.543a1.9 1.9 0 0 1 .618-.354q.349-.129.751-.129.742 0 1.284.371.543.364.838 1.042.296.676.296 1.6v.011q0 .918-.301 1.595-.296.677-.838 1.047-.543.366-1.278.366m-.334-.999q.49 0 .838-.242.35-.241.532-.693.188-.452.188-1.074v-.011q0-.629-.188-1.074a1.5 1.5 0 0 0-.532-.693 1.4 1.4 0 0 0-.837-.247q-.484 0-.838.247a1.5 1.5 0 0 0-.543.693q-.188.451-.188 1.074v.011q0 .618.188 1.074.187.452.543.693.354.242.838.242m4.19.902v-8.121h1.166V199zm5.35.113q-.855 0-1.467-.365a2.47 2.47 0 0 1-.945-1.048q-.328-.677-.328-1.6v-.006q0-.912.328-1.595a2.55 2.55 0 0 1 .934-1.063q.608-.382 1.418-.382.817 0 1.402.365.591.366.908 1.026.317.656.317 1.536v.409H99.12v-.833h4.136l-.559.774v-.468q0-.623-.193-1.031a1.35 1.35 0 0 0-.521-.618 1.44 1.44 0 0 0-.768-.204q-.435 0-.779.215-.339.21-.537.623-.193.414-.193 1.015v.468q0 .574.193.982t.548.624q.36.214.848.214.377 0 .645-.102.274-.107.446-.263a.9.9 0 0 0 .241-.306l.022-.043h1.128l-.011.048q-.075.29-.263.58-.188.285-.5.521a2.5 2.5 0 0 1-.741.382 3.1 3.1 0 0 1-.993.145m7.363-.113v-4.915h-.961v-.918h.961v-.612q0-.586.194-.967.199-.387.601-.575.403-.188 1.015-.188.193 0 .36.016.172.01.328.038v.859a1.4 1.4 0 0 0-.199-.021 3 3 0 0 0-.247-.011q-.483 0-.693.231-.204.231-.204.671v.559h1.289v.918h-1.278V199zm5.978.113q-.854 0-1.466-.365a2.47 2.47 0 0 1-.945-1.048q-.328-.677-.328-1.6v-.006q0-.912.328-1.595.333-.682.934-1.063.608-.382 1.418-.382.817 0 1.402.365.591.366.908 1.026.317.656.317 1.536v.409h-4.716v-.833h4.136l-.559.774v-.468q0-.623-.193-1.031a1.36 1.36 0 0 0-.521-.618 1.44 1.44 0 0 0-.768-.204q-.435 0-.779.215-.339.21-.537.623-.194.414-.194 1.015v.468q0 .574.194.982.193.409.548.624.359.214.848.214.376 0 .645-.102.273-.107.446-.263a.9.9 0 0 0 .241-.306l.022-.043h1.128l-.011.048q-.075.29-.263.58-.189.285-.5.521a2.5 2.5 0 0 1-.741.382 3.1 3.1 0 0 1-.994.145m5.554-.016q-.553 0-.994-.21a1.7 1.7 0 0 1-.687-.607 1.66 1.66 0 0 1-.253-.918v-.011q0-.526.253-.897a1.7 1.7 0 0 1 .741-.58q.489-.215 1.182-.258l2.154-.129v.822l-1.993.129q-.602.037-.886.258-.285.214-.285.607v.01q0 .398.306.629.306.225.774.225.434 0 .773-.171.344-.178.537-.473.193-.301.193-.677v-1.837q0-.483-.3-.736-.296-.257-.881-.257-.49 0-.8.172a.84.84 0 0 0-.409.483l-.01.016h-1.123l.005-.038q.07-.483.382-.837.317-.36.827-.559a3.2 3.2 0 0 1 1.176-.199q.736 0 1.246.237.516.23.779.671.269.435.269 1.047V199h-1.161v-.827h-.085a1.8 1.8 0 0 1-.43.505q-.258.204-.586.311a2.3 2.3 0 0 1-.714.108m6.821-.059q-.956 0-1.385-.366-.425-.37-.425-1.208v-3.379h-.913v-.918h.913v-1.472h1.193v1.472h1.251v.918h-1.251v3.094q0 .473.188.682.188.204.623.204.129 0 .22-.005l.22-.016v.935a6 6 0 0 1-.634.059m3.943.075q-.656 0-1.107-.253a1.63 1.63 0 0 1-.671-.741q-.22-.489-.22-1.176v-3.776h1.165v3.502q0 .72.285 1.08.284.359.929.359.344 0 .612-.102.269-.106.452-.306.182-.199.268-.478a2 2 0 0 0 .091-.634v-3.421h1.171V199h-1.171v-.881h-.086a1.6 1.6 0 0 1-.381.537 1.7 1.7 0 0 1-.58.339 2.3 2.3 0 0 1-.757.118m4.651-.113v-5.833h1.166v.881h.091q.156-.468.548-.725.398-.258.977-.258a2.4 2.4 0 0 1 .511.054v1.074a3 3 0 0 0-.312-.048 3 3 0 0 0-.317-.017q-.445 0-.784.172a1.3 1.3 0 0 0-.526.484 1.36 1.36 0 0 0-.188.73V199zm6.714.113q-.854 0-1.466-.365a2.47 2.47 0 0 1-.946-1.048q-.327-.677-.327-1.6v-.006q0-.912.327-1.595a2.55 2.55 0 0 1 .935-1.063q.607-.382 1.418-.382.816 0 1.402.365.59.366.907 1.026.317.656.317 1.536v.409h-4.715v-.833h4.135l-.558.774v-.468q0-.623-.194-1.031a1.35 1.35 0 0 0-.521-.618 1.44 1.44 0 0 0-.768-.204q-.434 0-.779.215a1.45 1.45 0 0 0-.537.623q-.193.414-.193 1.015v.468q0 .574.193.982.194.409.548.624.36.214.849.214.375 0 .644-.102.275-.107.446-.263a.9.9 0 0 0 .242-.306l.021-.043h1.128l-.01.048a2 2 0 0 1-.264.58q-.187.285-.499.521a2.5 2.5 0 0 1-.741.382 3.1 3.1 0 0 1-.994.145m6.075 0q-.704 0-1.225-.204a2.06 2.06 0 0 1-.827-.575 1.6 1.6 0 0 1-.36-.859v-.011h1.171v.011q.112.327.43.531.316.204.838.204.359 0 .628-.102.274-.102.43-.284a.63.63 0 0 0 .155-.419v-.011a.58.58 0 0 0-.22-.462q-.22-.187-.725-.306l-.934-.215a3.1 3.1 0 0 1-.908-.338 1.4 1.4 0 0 1-.532-.527 1.5 1.5 0 0 1-.172-.741v-.005q0-.51.29-.903.29-.397.801-.617a2.9 2.9 0 0 1 1.176-.226q.666 0 1.16.21.5.204.789.569.29.36.344.838v.005h-1.117v-.01a.88.88 0 0 0-.387-.511q-.3-.204-.795-.204a1.5 1.5 0 0 0-.564.102.95.95 0 0 0-.392.274.63.63 0 0 0-.139.408v.011q0 .183.091.322.096.134.301.242.204.102.526.183l.929.209q.838.199 1.246.575.414.376.414 1.01v.01q0 .537-.317.951a2.1 2.1 0 0 1-.865.639 3.2 3.2 0 0 1-1.24.226"/><path fill="#212126" d="M61.85 233.222q-1.15 0-1.98-.425a3.1 3.1 0 0 1-1.283-1.181q-.45-.762-.45-1.771v-6.005h1.428v5.897q0 .66.266 1.162.273.5.78.781.515.279 1.239.279.73 0 1.237-.279.508-.28.775-.781.266-.502.266-1.162v-5.897h1.429v6.005q0 1.01-.451 1.771a3.06 3.06 0 0 1-1.276 1.181q-.825.425-1.98.425m5.84-.222v-6.894h1.377v1.041h.108q.255-.551.749-.863.495-.31 1.25-.311 1.162 0 1.778.667.615.666.615 1.898V233h-1.383v-4.139q0-.863-.362-1.282-.356-.425-1.117-.425-.502 0-.87.222a1.46 1.46 0 0 0-.571.622q-.198.4-.197.959V233zm7.858 0v-9.598h1.377V233zm3.447 0v-6.894h1.383V233zm.698-8.125a.83.83 0 0 1-.61-.254.83.83 0 0 1-.253-.609.8.8 0 0 1 .254-.603.83.83 0 0 1 .609-.254q.355 0 .61.254a.8.8 0 0 1 .253.603.83.83 0 0 1-.254.609.83.83 0 0 1-.61.254M82.378 233v-6.894h1.377v1.061h.108q.23-.571.711-.883.489-.31 1.168-.311.47 0 .844.152.375.153.642.432.272.273.425.648h.108q.171-.375.482-.648.312-.279.724-.432.419-.152.889-.152.698 0 1.193.273.495.267.755.775.26.507.26 1.225V233h-1.377v-4.424q0-.477-.146-.787a1 1 0 0 0-.444-.477q-.292-.158-.737-.158a1.44 1.44 0 0 0-.768.203 1.4 1.4 0 0 0-.507.533q-.178.33-.178.749V233h-1.378v-4.564q0-.393-.165-.679a1.06 1.06 0 0 0-.457-.445 1.5 1.5 0 0 0-.704-.158q-.413 0-.743.216a1.53 1.53 0 0 0-.514.584q-.19.362-.19.812V233zm11.635 0v-6.894h1.384V233zm.698-8.125a.83.83 0 0 1-.609-.254.83.83 0 0 1-.254-.609.8.8 0 0 1 .254-.603.83.83 0 0 1 .61-.254q.355 0 .609.254a.8.8 0 0 1 .254.603.83.83 0 0 1-.254.609.83.83 0 0 1-.61.254m5.288 8.169q-1.13 0-1.638-.431-.501-.438-.501-1.428v-3.993h-1.08v-1.086h1.08v-1.739h1.409v1.739h1.479v1.086h-1.479v3.656q0 .559.222.806.222.242.737.242a5 5 0 0 0 .52-.026v1.105a7 7 0 0 1-.355.044 3 3 0 0 1-.394.025m5.18.089q-1.01 0-1.733-.431a2.9 2.9 0 0 1-1.117-1.238q-.388-.8-.388-1.892v-.006q0-1.079.388-1.885.393-.807 1.104-1.257.717-.451 1.676-.451.964 0 1.657.432.698.432 1.072 1.212.375.774.375 1.816v.482h-5.573v-.984h4.887l-.66.914v-.552q0-.736-.228-1.219a1.6 1.6 0 0 0-.616-.73 1.7 1.7 0 0 0-.908-.241q-.514 0-.92.254-.4.247-.635.736-.228.489-.228 1.2v.552q0 .68.228 1.162t.648.736q.425.254 1.002.254.446 0 .762-.121.324-.126.527-.311.21-.184.286-.361l.025-.051h1.333l-.013.057a2.4 2.4 0 0 1-.311.686 2.5 2.5 0 0 1-.59.615 3 3 0 0 1-.876.451 3.7 3.7 0 0 1-1.174.171m7.185-.019q-.863 0-1.51-.431-.642-.438-.997-1.238-.35-.8-.349-1.885v-.013q0-1.092.349-1.892.35-.8.99-1.231.642-.438 1.517-.438.477 0 .889.152.412.147.73.419.317.267.501.641h.102v-3.796h1.384V233h-1.384v-1.085h-.102a2.3 2.3 0 0 1-.514.647 2.3 2.3 0 0 1-.717.413 2.7 2.7 0 0 1-.889.139m.394-1.18q.572 0 .99-.286.419-.285.641-.819.222-.54.222-1.269v-.013q0-.736-.228-1.27a1.8 1.8 0 0 0-.641-.819 1.66 1.66 0 0 0-.984-.291 1.7 1.7 0 0 0-.99.291 1.8 1.8 0 0 0-.635.819q-.216.528-.216 1.27v.013q0 .736.216 1.269.222.534.635.819.418.286.99.286m8.798 3.364v-9.192h1.377v1.086h.108q.196-.381.508-.648.317-.266.723-.412.407-.146.889-.146.87 0 1.511.444.64.438.99 1.238.356.793.356 1.879v.013q0 1.091-.35 1.891-.348.794-.99 1.232-.64.43-1.517.431-.475 0-.889-.146a2.4 2.4 0 0 1-.73-.419 1.95 1.95 0 0 1-.501-.641h-.108v3.39zm3.212-3.364q.578 0 .99-.286.412-.285.628-.819.222-.533.222-1.269v-.013q0-.743-.222-1.276a1.8 1.8 0 0 0-.628-.819q-.413-.285-.99-.285-.571 0-.991.291a1.8 1.8 0 0 0-.641.819q-.222.528-.222 1.27v.013q0 .729.222 1.263.222.532.641.825.42.286.991.286m4.9 1.066v-6.894h1.377v1.041h.108q.184-.552.648-.856.47-.305 1.155-.305a3 3 0 0 1 .603.063v1.27a3.5 3.5 0 0 0-.743-.076q-.527 0-.926.203-.394.203-.622.571a1.6 1.6 0 0 0-.223.863V233zm7.96.133q-1.01 0-1.746-.431a2.86 2.86 0 0 1-1.123-1.232q-.394-.806-.394-1.91v-.013q0-1.112.394-1.911a2.9 2.9 0 0 1 1.13-1.231q.736-.432 1.739-.432 1.01 0 1.739.432.73.425 1.124 1.231.4.8.4 1.911v.013q0 1.104-.4 1.91a2.87 2.87 0 0 1-1.124 1.232q-.723.43-1.739.431m0-1.155q.59 0 1.003-.286.412-.291.628-.831t.216-1.301v-.013q0-.768-.216-1.308t-.628-.825q-.413-.292-1.003-.292t-1.003.292q-.413.286-.635.825-.216.54-.216 1.308v.013q0 .76.216 1.301.222.54.635.831.412.286 1.003.286m4.056 3.383q-.077 0-.159-.006h-.146v-1.13h.191q.533 0 .755-.209.222-.21.222-.724v-7.186h1.378v7.192q0 1.06-.559 1.562-.552.501-1.682.501m1.549-10.486a.84.84 0 0 1-.609-.254.83.83 0 0 1-.254-.609q0-.356.254-.603a.84.84 0 0 1 .609-.254q.361 0 .616.254a.8.8 0 0 1 .254.603.83.83 0 0 1-.254.609.84.84 0 0 1-.616.254m5.592 8.258q-1.009 0-1.733-.431a2.9 2.9 0 0 1-1.117-1.238q-.387-.8-.387-1.892v-.006q0-1.079.387-1.885a3 3 0 0 1 1.105-1.257q.717-.451 1.675-.451.966 0 1.657.432.698.432 1.073 1.212.374.774.374 1.816v.482h-5.573v-.984h4.888l-.66.914v-.552q0-.736-.229-1.219-.222-.489-.616-.73a1.7 1.7 0 0 0-.907-.241q-.514 0-.921.254-.4.247-.634.736-.23.489-.229 1.2v.552q0 .68.229 1.162.228.482.647.736.426.254 1.003.254.444 0 .762-.121a1.7 1.7 0 0 0 .527-.311q.209-.184.285-.361l.026-.051h1.333l-.013.057a2.36 2.36 0 0 1-.902 1.301 3 3 0 0 1-.875.451q-.508.171-1.175.171m7.573 0q-1.003 0-1.733-.431a2.9 2.9 0 0 1-1.117-1.244q-.394-.807-.394-1.924v-.013q0-1.098.388-1.891a2.87 2.87 0 0 1 1.117-1.225q.73-.432 1.733-.432.87 0 1.491.305.628.299.997.825.375.52.47 1.187l.006.032h-1.327l-.006-.013a1.48 1.48 0 0 0-.527-.844q-.412-.343-1.098-.343-.571 0-.984.292-.413.286-.635.825-.216.54-.216 1.282v.013q0 .762.223 1.308.222.546.634.844.412.292.978.292.648 0 1.047-.286.407-.285.572-.844l.012-.032 1.321-.006-.013.057q-.12.673-.489 1.181a2.5 2.5 0 0 1-.984.8q-.61.285-1.466.285m7.217-.089q-1.13 0-1.637-.431-.502-.438-.502-1.428v-3.993h-1.079v-1.086h1.079v-1.739h1.409v1.739h1.479v1.086h-1.479v3.656q0 .559.222.806.223.242.737.242a5 5 0 0 0 .52-.026v1.105a7 7 0 0 1-.355.044 3 3 0 0 1-.394.025m4.767.089q-.83 0-1.447-.241-.615-.247-.977-.679a1.9 1.9 0 0 1-.426-1.016v-.012h1.384v.012q.133.387.508.629.375.24.99.241.425 0 .743-.121.324-.12.508-.336a.75.75 0 0 0 .184-.495v-.013a.69.69 0 0 0-.261-.546q-.26-.222-.857-.362l-1.104-.254q-.647-.145-1.073-.399a1.7 1.7 0 0 1-.628-.623 1.8 1.8 0 0 1-.203-.876v-.006q0-.603.342-1.066.343-.47.946-.73.61-.267 1.39-.267.787 0 1.371.248.59.241.934.673.342.424.406.99v.006h-1.32v-.013q-.095-.361-.458-.603-.356-.24-.939-.241-.375 0-.666.121-.293.114-.464.324a.74.74 0 0 0-.165.482v.013q0 .215.108.381.114.158.355.285.242.121.623.216l1.098.248q.99.235 1.472.679.489.444.489 1.193v.013a1.8 1.8 0 0 1-.374 1.123q-.375.483-1.022.756-.642.266-1.467.266M61.907 275.222q-1.27 0-2.203-.584-.927-.583-1.428-1.657-.502-1.072-.502-2.551v-.013q0-1.485.502-2.558.501-1.073 1.428-1.657t2.203-.584q1.01 0 1.822.4a3.56 3.56 0 0 1 1.339 1.092 3.3 3.3 0 0 1 .641 1.606v.038h-1.416l-.006-.025a2.3 2.3 0 0 0-.463-.978 2.3 2.3 0 0 0-.825-.641 2.55 2.55 0 0 0-1.092-.229q-.819 0-1.422.432-.597.432-.927 1.225-.324.787-.324 1.879v.013q0 1.079.324 1.872.33.794.927 1.225.603.432 1.428.432.603 0 1.092-.203a2.2 2.2 0 0 0 .825-.578q.33-.38.45-.895l.013-.025h1.422l-.006.032a3.25 3.25 0 0 1-.648 1.542q-.513.66-1.32 1.028-.806.363-1.834.362m7.814-.089q-.775 0-1.308-.298a1.92 1.92 0 0 1-.793-.876q-.26-.577-.26-1.39v-4.463h1.377v4.139q0 .85.336 1.276.337.425 1.098.425.406 0 .724-.12.318-.128.533-.362.216-.235.318-.565.108-.33.108-.749v-4.044h1.383V275h-1.383v-1.041h-.102q-.165.368-.45.635-.287.26-.686.4a2.7 2.7 0 0 1-.895.139m8.004 0q-.832 0-1.447-.241-.616-.247-.978-.679a1.9 1.9 0 0 1-.425-1.016v-.012h1.384v.012q.133.387.508.629.375.24.99.241.424 0 .742-.121.325-.12.508-.336a.74.74 0 0 0 .184-.495v-.013a.69.69 0 0 0-.26-.546q-.26-.222-.857-.362l-1.104-.254q-.648-.146-1.073-.399a1.7 1.7 0 0 1-.628-.623 1.8 1.8 0 0 1-.204-.876v-.006q0-.603.343-1.066.343-.47.946-.73.61-.267 1.39-.267.787 0 1.371.248.591.241.933.673.343.424.407.99v.006h-1.32v-.013q-.096-.361-.458-.603-.355-.24-.94-.241-.374 0-.666.121-.292.114-.463.324a.74.74 0 0 0-.165.482v.013q0 .215.108.381.114.158.355.285.241.122.622.216l1.098.248q.99.234 1.473.679.489.444.489 1.193v.013q0 .634-.375 1.123-.374.483-1.022.756-.64.266-1.466.266m7.052-.089q-1.13 0-1.637-.431-.502-.438-.502-1.428v-3.993H81.56v-1.086h1.08v-1.739h1.408v1.739h1.48v1.086h-1.48v3.656q0 .559.222.806.223.242.737.242.152 0 .26-.007a7 7 0 0 0 .26-.019v1.105q-.165.025-.355.044a3 3 0 0 1-.394.025m5.205.089q-1.008 0-1.745-.431a2.86 2.86 0 0 1-1.124-1.232q-.393-.806-.393-1.91v-.013q0-1.111.393-1.911a2.9 2.9 0 0 1 1.13-1.231q.736-.432 1.74-.432 1.008 0 1.739.432.729.425 1.123 1.231.4.8.4 1.911v.013q0 1.104-.4 1.91a2.86 2.86 0 0 1-1.123 1.232q-.724.43-1.74.431m0-1.155q.59 0 1.003-.286.413-.291.629-.831t.216-1.301v-.013q0-.768-.216-1.308t-.629-.825q-.412-.292-1.003-.292-.59 0-1.002.292-.413.286-.635.825-.216.54-.216 1.308v.013q0 .76.216 1.301.222.54.635.831.412.286 1.002.286m4.9 1.022v-6.894h1.378v1.061h.108q.23-.571.711-.883.489-.31 1.168-.311.47 0 .844.152.375.153.641.432.273.273.426.648h.108q.171-.375.482-.648.311-.279.724-.432.418-.152.888-.152.699 0 1.194.273.495.267.755.775.26.507.26 1.225V275h-1.377v-4.424q0-.477-.146-.787a1 1 0 0 0-.444-.477q-.293-.158-.737-.158-.438 0-.768.203a1.4 1.4 0 0 0-.508.533 1.56 1.56 0 0 0-.177.749V275h-1.378v-4.564q0-.393-.165-.679a1.06 1.06 0 0 0-.457-.445 1.5 1.5 0 0 0-.705-.158q-.412 0-.742.216a1.53 1.53 0 0 0-.514.584q-.19.362-.19.812V275zm18.828.114q-.483 0-.889-.139a2.4 2.4 0 0 1-.723-.413 2.2 2.2 0 0 1-.508-.647h-.108V275h-1.378v-9.598h1.378v3.796h.108q.185-.374.501-.641.318-.273.73-.419.413-.152.889-.152.876 0 1.517.438.641.432.99 1.231.35.8.349 1.892v.013q0 1.085-.355 1.885-.35.8-.99 1.238-.642.43-1.511.431m-.394-1.18q.578 0 .991-.286.412-.285.628-.819.222-.533.222-1.269v-.013q0-.742-.222-1.27a1.8 1.8 0 0 0-.628-.819q-.413-.291-.991-.291-.57 0-.99.291a1.8 1.8 0 0 0-.641.819q-.222.534-.222 1.27v.013q0 .729.222 1.269.222.534.641.819.42.286.99.286m4.888 1.066v-6.894h1.378v1.041h.107q.184-.552.648-.856.47-.305 1.155-.305a3 3 0 0 1 .603.063v1.27a3.4 3.4 0 0 0-.742-.076 2 2 0 0 0-.927.203q-.394.203-.622.571a1.6 1.6 0 0 0-.222.863V275zm7.059.114q-.654 0-1.175-.247a2 2 0 0 1-.812-.718 1.96 1.96 0 0 1-.298-1.085v-.013q0-.621.298-1.06.305-.438.876-.685.577-.255 1.396-.305l2.546-.152v.971l-2.355.152q-.71.044-1.048.305-.336.254-.336.717v.013q0 .47.362.743.362.266.914.266.514 0 .914-.203.406-.21.635-.559.228-.355.228-.799v-2.171q0-.572-.355-.87-.35-.305-1.041-.305-.578 0-.946.203a1 1 0 0 0-.483.572l-.012.019h-1.327l.006-.045q.084-.57.451-.99.375-.425.978-.66a3.8 3.8 0 0 1 1.39-.235q.87 0 1.473.279.61.273.92.794.317.514.317 1.238V275h-1.371v-.978h-.101a2.2 2.2 0 0 1-.508.597 2.2 2.2 0 0 1-.692.368q-.388.127-.844.127m5.459-.114v-6.894h1.377v1.041h.108q.254-.551.749-.863.495-.31 1.251-.311 1.16 0 1.777.667.615.666.616 1.898V275h-1.384v-4.139q0-.863-.362-1.282-.355-.425-1.117-.425-.501 0-.87.222a1.46 1.46 0 0 0-.571.622q-.197.4-.197.959V275zm10.308.114q-.863 0-1.51-.431-.642-.438-.997-1.238-.35-.8-.349-1.885v-.013q0-1.092.349-1.892.35-.8.99-1.231.641-.438 1.517-.438.477 0 .889.152.412.147.73.419.318.267.501.641h.102v-3.796h1.384V275h-1.384v-1.085h-.102a2.3 2.3 0 0 1-.514.647 2.3 2.3 0 0 1-.717.413 2.7 2.7 0 0 1-.889.139m.394-1.18q.572 0 .99-.286.419-.285.641-.819.222-.54.222-1.269v-.013q0-.736-.228-1.27a1.8 1.8 0 0 0-.641-.819 1.66 1.66 0 0 0-.984-.291 1.7 1.7 0 0 0-.99.291 1.8 1.8 0 0 0-.635.819q-.216.528-.216 1.27v.013q0 .736.216 1.269.222.534.635.819.419.286.99.286M146.7 275v-6.894h1.384V275zm.698-8.125a.83.83 0 0 1-.609-.254.83.83 0 0 1-.254-.609q0-.356.254-.603a.83.83 0 0 1 .609-.254q.356 0 .609.254.254.247.254.603t-.254.609a.83.83 0 0 1-.609.254m2.685 8.125v-6.894h1.377v1.041h.108a1.97 1.97 0 0 1 .749-.863q.495-.31 1.251-.311 1.161 0 1.777.667.616.666.616 1.898V275h-1.384v-4.139q0-.863-.362-1.282-.355-.425-1.117-.425a1.65 1.65 0 0 0-.869.222 1.46 1.46 0 0 0-.572.622q-.197.4-.197.959V275zm10.709 2.431q-.876 0-1.524-.241-.64-.241-1.016-.673a1.9 1.9 0 0 1-.457-1.003l.007-.013h1.396l.007.013q.089.356.501.584t1.105.229q.85 0 1.326-.388.483-.387.483-1.085v-1.352h-.108a2.2 2.2 0 0 1-.521.635 2.2 2.2 0 0 1-.723.393 2.8 2.8 0 0 1-.883.134q-.876 0-1.523-.419a2.8 2.8 0 0 1-.99-1.168q-.343-.75-.343-1.721v-.012q0-.984.349-1.74.35-.76.997-1.187.647-.43 1.542-.431.483 0 .882.152a2.26 2.26 0 0 1 1.232 1.098h.082v-1.13h1.378v6.754q0 .781-.394 1.359-.387.577-1.104.895-.718.317-1.701.317m-.02-3.91q.585 0 1.003-.273a1.8 1.8 0 0 0 .642-.768q.228-.489.228-1.13v-.013q0-.634-.228-1.129a1.8 1.8 0 0 0-.642-.775q-.418-.279-1.003-.279-.583 0-.996.279a1.77 1.77 0 0 0-.622.775 2.8 2.8 0 0 0-.216 1.129v.013q0 .641.216 1.13t.622.768q.412.273.996.273M57.984 317v-.971l3.047-3.187q.609-.635.946-1.041.335-.412.47-.736.139-.324.139-.698v-.013q0-.45-.197-.8a1.33 1.33 0 0 0-.552-.552 1.74 1.74 0 0 0-.863-.203q-.508 0-.895.209-.388.21-.603.584-.216.375-.216.876v.026l-1.346-.007-.006-.012q.006-.839.406-1.479a2.73 2.73 0 0 1 1.11-1.01q.712-.368 1.632-.368.85 0 1.517.337.673.33 1.06.92.387.584.387 1.339v.019q0 .52-.19 1.01-.19.489-.66 1.072-.463.584-1.295 1.41l-2.31 2.304.368-.641v.641l-.362-.248h4.596V317zm12.092 0v-1.815h-4.469v-1.213q.362-.622.737-1.25l.762-1.257q.387-.629.774-1.238.387-.616.774-1.212.387-.603.762-1.175h2.038v6.132h1.263v1.213h-1.263V317zm-3.097-3.002h3.116v-4.952h-.082q-.3.445-.603.921l-.622.965q-.311.495-.623.996-.31.502-.609 1.003-.298.495-.578.978zm10.587-6.596-2.805 11.896h-1.295l2.8-11.896zM78.995 317l4.037-7.858v-.096h-4.8v-1.206h6.24v1.238L80.493 317zm10.72 2.298v-9.192h1.378v1.086h.108q.196-.381.508-.648.318-.266.724-.412t.888-.146q.87 0 1.511.444.641.438.99 1.238.356.793.356 1.879v.013q0 1.091-.35 1.891-.348.794-.99 1.232-.64.43-1.517.431-.475 0-.888-.146a2.4 2.4 0 0 1-.73-.419 1.9 1.9 0 0 1-.502-.641h-.108v3.39zm3.213-3.364q.578 0 .99-.286.412-.285.628-.819.222-.533.223-1.269v-.013q0-.743-.223-1.276a1.8 1.8 0 0 0-.628-.819q-.413-.285-.99-.285-.572 0-.99.291a1.8 1.8 0 0 0-.642.819q-.222.528-.222 1.27v.013q0 .729.222 1.263t.641.825q.42.286.99.286m4.9 1.066v-6.894h1.378v1.041h.108q.183-.552.647-.856.47-.305 1.155-.305a3 3 0 0 1 .603.063v1.27a3.4 3.4 0 0 0-.742-.076 2 2 0 0 0-.927.203q-.394.203-.622.571a1.6 1.6 0 0 0-.222.863V317zm5.237 0v-6.894h1.384V317zm.698-8.125a.83.83 0 0 1-.609-.254.83.83 0 0 1-.254-.609q0-.356.254-.603a.83.83 0 0 1 .609-.254.83.83 0 0 1 .61.254.8.8 0 0 1 .253.603.83.83 0 0 1-.253.609.84.84 0 0 1-.61.254m5.605 8.258q-1.01 0-1.745-.431a2.86 2.86 0 0 1-1.124-1.232q-.394-.806-.394-1.91v-.013q0-1.111.394-1.911a2.9 2.9 0 0 1 1.13-1.231q.737-.432 1.739-.432 1.01 0 1.739.432.73.425 1.124 1.231.4.8.4 1.911v.013q0 1.104-.4 1.91a2.86 2.86 0 0 1-1.124 1.232q-.723.43-1.739.431m0-1.155q.59 0 1.003-.286.413-.291.629-.831.215-.54.215-1.301v-.013q0-.768-.215-1.308-.216-.54-.629-.825-.412-.292-1.003-.292-.59 0-1.003.292-.412.286-.635.825-.215.54-.215 1.308v.013q0 .76.215 1.301.223.54.635.831.413.286 1.003.286m4.901 1.022v-6.894h1.377v1.041h.108q.184-.552.647-.856.47-.305 1.156-.305a3 3 0 0 1 .603.063v1.27a3.5 3.5 0 0 0-.743-.076q-.526 0-.927.203a1.57 1.57 0 0 0-.622.571 1.6 1.6 0 0 0-.222.863V317zm5.236 0v-6.894h1.384V317zm.699-8.125a.84.84 0 0 1-.61-.254.83.83 0 0 1-.254-.609q0-.356.254-.603a.83.83 0 0 1 .61-.254q.355 0 .609.254a.8.8 0 0 1 .254.603.83.83 0 0 1-.254.609.83.83 0 0 1-.609.254m5.287 8.169q-1.13 0-1.637-.431-.502-.438-.502-1.428v-3.993h-1.079v-1.086h1.079v-1.739h1.409v1.739h1.479v1.086h-1.479v3.656q0 .559.222.806.223.242.737.242a5 5 0 0 0 .52-.026v1.105a7 7 0 0 1-.355.044 3 3 0 0 1-.394.025m3.034 2.381q-.126 0-.273-.013a5 5 0 0 1-.279-.019v-1.085a4 4 0 0 0 .464.025q.481 0 .78-.229.298-.222.451-.742l.102-.356-2.501-6.9h1.491l1.949 6.215-.432-.711h.527l-.425.711 1.942-6.215h1.454l-2.565 7.154q-.291.825-.647 1.295a1.96 1.96 0 0 1-.844.673q-.489.197-1.194.197m12.702-2.292q-.832 0-1.447-.241-.617-.247-.978-.679a1.9 1.9 0 0 1-.425-1.016v-.012h1.384v.012q.133.387.508.629.373.24.99.241.425 0 .742-.121.325-.12.508-.336a.74.74 0 0 0 .184-.495v-.013a.69.69 0 0 0-.26-.546q-.26-.222-.857-.362l-1.104-.254q-.648-.146-1.073-.399a1.67 1.67 0 0 1-.628-.623 1.8 1.8 0 0 1-.204-.876v-.006q0-.603.343-1.066.343-.47.946-.73.61-.267 1.39-.267.787 0 1.371.248.591.241.933.673.343.424.407.99v.006h-1.321v-.013q-.095-.361-.457-.603-.356-.24-.939-.241-.375 0-.667.121a1.1 1.1 0 0 0-.463.324.74.74 0 0 0-.165.482v.013q0 .215.108.381a1 1 0 0 0 .355.285q.241.122.622.216l1.098.248q.99.234 1.473.679.489.444.489 1.193v.013q0 .634-.375 1.123-.374.483-1.022.756-.64.266-1.466.266m6.798 0q-.774 0-1.307-.298a1.93 1.93 0 0 1-.794-.876q-.26-.577-.26-1.39v-4.463h1.378v4.139q0 .85.336 1.276.336.425 1.098.425.406 0 .724-.12.317-.128.533-.362.216-.235.317-.565.108-.33.108-.749v-4.044h1.384V317h-1.384v-1.041h-.101q-.166.368-.451.635-.285.26-.686.4-.393.14-.895.139m5.497 2.165v-9.192h1.378v1.086h.108q.196-.381.508-.648.317-.266.723-.412a2.6 2.6 0 0 1 .889-.146q.87 0 1.511.444.64.438.99 1.238.355.793.355 1.879v.013q0 1.091-.349 1.891-.349.794-.99 1.232-.64.43-1.517.431-.476 0-.889-.146a2.4 2.4 0 0 1-.73-.419 1.95 1.95 0 0 1-.501-.641h-.108v3.39zm3.212-3.364q.578 0 .991-.286.412-.285.628-.819.222-.533.222-1.269v-.013q0-.743-.222-1.276a1.8 1.8 0 0 0-.628-.819q-.413-.285-.991-.285-.57 0-.99.291a1.8 1.8 0 0 0-.641.819q-.222.528-.222 1.27v.013q0 .729.222 1.263t.641.825q.42.286.99.286m4.901 3.364v-9.192h1.377v1.086h.108q.197-.381.508-.648.318-.266.724-.412t.888-.146q.87 0 1.511.444.64.438.99 1.238.356.793.356 1.879v.013q0 1.091-.349 1.891-.35.794-.991 1.232-.64.43-1.517.431-.476 0-.888-.146a2.4 2.4 0 0 1-.73-.419 1.9 1.9 0 0 1-.502-.641h-.108v3.39zm3.212-3.364q.578 0 .99-.286.412-.285.628-.819.223-.533.223-1.269v-.013q0-.743-.223-1.276a1.8 1.8 0 0 0-.628-.819q-.412-.285-.99-.285-.571 0-.991.291a1.8 1.8 0 0 0-.641.819q-.222.528-.222 1.27v.013q0 .729.222 1.263t.641.825q.42.286.991.286m7.82 1.199q-1.01 0-1.746-.431a2.86 2.86 0 0 1-1.123-1.232q-.394-.806-.394-1.91v-.013q0-1.111.394-1.911a2.9 2.9 0 0 1 1.13-1.231q.736-.432 1.739-.432 1.01 0 1.739.432.73.425 1.124 1.231.4.8.4 1.911v.013q0 1.104-.4 1.91a2.87 2.87 0 0 1-1.124 1.232q-.723.43-1.739.431m0-1.155q.59 0 1.003-.286.412-.291.628-.831t.216-1.301v-.013q0-.768-.216-1.308t-.628-.825q-.412-.292-1.003-.292-.59 0-1.003.292-.413.286-.635.825-.216.54-.216 1.308v.013q0 .76.216 1.301.222.54.635.831.412.286 1.003.286m4.9 1.022v-6.894h1.378v1.041h.108a1.6 1.6 0 0 1 .647-.856q.47-.305 1.155-.305a3 3 0 0 1 .603.063v1.27a3.4 3.4 0 0 0-.742-.076q-.526 0-.927.203-.394.203-.622.571a1.6 1.6 0 0 0-.222.863V317zm7.96.044q-1.13 0-1.637-.431-.502-.438-.502-1.428v-3.993h-1.079v-1.086h1.079v-1.739h1.409v1.739h1.479v1.086h-1.479v3.656q0 .559.223.806.222.242.736.242a5 5 0 0 0 .52-.026v1.105a7 7 0 0 1-.355.044 3 3 0 0 1-.394.025M57.444 359l3.307-9.16h1.15v1.606h-.432L58.942 359zm1.594-2.476.4-1.142h4.17l.4 1.142zM64.097 359l-2.52-7.554v-1.606h.717l3.3 9.16zm5.065.114q-.863 0-1.51-.431-.642-.438-.997-1.238-.35-.8-.35-1.885v-.013q0-1.092.35-1.892t.99-1.231q.64-.438 1.517-.438.476 0 .889.152.412.147.73.419.316.267.501.641h.102v-3.796h1.384V359h-1.384v-1.085h-.102a2.3 2.3 0 0 1-.514.647 2.3 2.3 0 0 1-.717.413q-.406.14-.889.139m.394-1.18q.57 0 .99-.286.42-.285.641-.819.222-.54.222-1.269v-.013q0-.736-.228-1.27a1.8 1.8 0 0 0-.641-.819 1.66 1.66 0 0 0-.984-.291q-.571 0-.99.291a1.8 1.8 0 0 0-.635.819q-.216.528-.216 1.27v.013q0 .736.216 1.269.222.534.634.819.42.286.99.286M76.71 359l-2.495-6.894h1.466l1.72 5.498h.102l1.714-5.498h1.453L78.182 359zm7 .114q-.652 0-1.173-.247a2 2 0 0 1-.813-.718 1.96 1.96 0 0 1-.298-1.085v-.013q0-.621.298-1.06.305-.438.876-.685.577-.255 1.397-.305l2.545-.152v.971l-2.355.152q-.711.044-1.047.305-.337.254-.337.717v.013q0 .47.362.743.362.266.914.266.515 0 .914-.203.407-.21.635-.559.228-.355.228-.799v-2.171q0-.572-.355-.87-.35-.305-1.041-.305-.577 0-.946.203a1 1 0 0 0-.482.572l-.013.019h-1.327l.007-.045q.082-.57.45-.99.375-.425.978-.66.61-.235 1.39-.235.87 0 1.473.279.61.273.92.794.318.514.318 1.238V359h-1.372v-.978h-.101a2.2 2.2 0 0 1-.508.597 2.2 2.2 0 0 1-.692.368q-.388.127-.844.127m5.46-.114v-6.894h1.377v1.041h.108q.255-.551.75-.863.494-.31 1.25-.311 1.161 0 1.777.667.616.666.616 1.898V359h-1.384v-4.139q0-.863-.362-1.282-.356-.425-1.117-.425-.501 0-.87.222a1.46 1.46 0 0 0-.57.622q-.198.4-.198.959V359zm10.696.133q-1.003 0-1.733-.431a2.9 2.9 0 0 1-1.117-1.244q-.394-.807-.394-1.924v-.013q0-1.098.387-1.891a2.9 2.9 0 0 1 1.117-1.225q.73-.432 1.733-.432.87 0 1.492.305.628.298.997.825.374.52.469 1.187l.007.032h-1.327l-.006-.013a1.48 1.48 0 0 0-.527-.844q-.412-.343-1.098-.343-.572 0-.984.292-.413.286-.635.825-.216.54-.216 1.282v.013q0 .762.222 1.308t.635.844q.413.292.978.292.647 0 1.047-.286.406-.285.571-.844l.013-.032 1.32-.006-.012.057a2.85 2.85 0 0 1-.489 1.181 2.53 2.53 0 0 1-.984.8q-.61.285-1.466.285m7.407 0q-1.008 0-1.732-.431a2.9 2.9 0 0 1-1.118-1.238q-.387-.8-.387-1.892v-.006q0-1.079.387-1.885a3 3 0 0 1 1.105-1.257q.717-.451 1.676-.451.964 0 1.656.432.698.432 1.073 1.212.375.775.375 1.816v.482h-5.574v-.984h4.888l-.66.914v-.552q0-.736-.229-1.219-.222-.489-.615-.73a1.7 1.7 0 0 0-.908-.241q-.515 0-.92.254-.4.247-.635.736-.23.489-.229 1.2v.552q0 .68.229 1.162.228.482.647.736.426.254 1.003.254.444 0 .762-.121a1.7 1.7 0 0 0 .527-.311 1.05 1.05 0 0 0 .285-.361l.026-.051h1.333l-.013.057a2.4 2.4 0 0 1-.311.686 2.5 2.5 0 0 1-.59.615 3 3 0 0 1-.876.451q-.508.171-1.175.171m7.186-.019q-.863 0-1.511-.431-.64-.438-.996-1.238-.35-.8-.349-1.885v-.013q0-1.092.349-1.892.348-.8.99-1.231.64-.438 1.517-.438.476 0 .889.152.412.147.73.419.316.267.501.641h.102v-3.796h1.383V359h-1.383v-1.085h-.102a2.3 2.3 0 0 1-.514.647 2.3 2.3 0 0 1-.717.413 2.7 2.7 0 0 1-.889.139m.394-1.18q.57 0 .99-.286.419-.285.641-.819.222-.54.222-1.269v-.013q0-.736-.228-1.27a1.8 1.8 0 0 0-.642-.819 1.66 1.66 0 0 0-.983-.291q-.571 0-.991.291a1.8 1.8 0 0 0-.634.819q-.216.528-.216 1.27v.013q0 .736.216 1.269.222.534.634.819.42.286.991.286m10.689 1.18a2.7 2.7 0 0 1-1.174-.247 2 2 0 0 1-.813-.718 1.96 1.96 0 0 1-.298-1.085v-.013q0-.621.298-1.06.304-.438.876-.685.578-.255 1.397-.305l2.545-.152v.971l-2.355.152q-.711.044-1.047.305-.337.254-.337.717v.013q0 .47.362.743.362.266.914.266.515 0 .914-.203.407-.21.635-.559.229-.355.229-.799v-2.171q0-.572-.356-.87-.35-.305-1.041-.305-.577 0-.946.203a1 1 0 0 0-.482.572l-.013.019h-1.327l.007-.045q.082-.57.45-.99.375-.425.978-.66.61-.235 1.39-.235.87 0 1.473.279.61.273.92.794.318.514.318 1.238V359h-1.371v-.978h-.102a2.2 2.2 0 0 1-.508.597 2.2 2.2 0 0 1-.692.368 2.7 2.7 0 0 1-.844.127m5.459-.114v-6.894h1.377v1.041h.108a1.97 1.97 0 0 1 .749-.863q.495-.31 1.251-.311 1.161 0 1.777.667.616.666.616 1.898V359h-1.384v-4.139q0-.863-.362-1.282-.355-.425-1.117-.425-.501 0-.87.222a1.46 1.46 0 0 0-.571.622q-.197.4-.197.959V359zm9.687.114q-.654 0-1.175-.247a2 2 0 0 1-.812-.718 1.96 1.96 0 0 1-.299-1.085v-.013q0-.621.299-1.06.304-.438.876-.685.577-.255 1.396-.305l2.546-.152v.971l-2.355.152q-.712.044-1.048.305-.336.254-.336.717v.013q0 .47.362.743.362.266.914.266a2 2 0 0 0 .914-.203q.406-.21.634-.559a1.44 1.44 0 0 0 .229-.799v-2.171q0-.572-.355-.87-.35-.305-1.041-.305-.579 0-.946.203a1 1 0 0 0-.483.572l-.012.019h-1.327l.006-.045q.083-.57.451-.99.374-.425.978-.66a3.8 3.8 0 0 1 1.39-.235q.869 0 1.472.279.61.273.921.794.317.514.317 1.238V359h-1.371v-.978h-.102a2.2 2.2 0 0 1-.507.597 2.2 2.2 0 0 1-.692.368q-.388.127-.844.127m5.522-.114v-9.598h1.377V359zm4.101 2.425q-.127 0-.273-.013a5 5 0 0 1-.28-.019v-1.085a4 4 0 0 0 .464.025q.482 0 .78-.229.299-.222.451-.742l.102-.356-2.501-6.9h1.491l1.949 6.215-.432-.711h.527l-.425.711 1.942-6.215h1.454l-2.564 7.154q-.292.825-.648 1.295a1.96 1.96 0 0 1-.844.673q-.49.197-1.193.197m9.254-2.381q-1.13 0-1.637-.431-.502-.438-.502-1.428v-3.993h-1.079v-1.086h1.079v-1.739h1.409v1.739h1.479v1.086h-1.479v3.656q0 .559.223.806.222.242.736.242.153 0 .26-.007a7 7 0 0 0 .26-.019v1.105a7 7 0 0 1-.355.044 3 3 0 0 1-.394.025m2.381-.044v-6.894h1.384V359zm.698-8.125a.83.83 0 0 1-.609-.254.83.83 0 0 1-.254-.609q0-.356.254-.603a.83.83 0 0 1 .609-.254q.356 0 .609.254.255.247.254.603 0 .356-.254.609a.83.83 0 0 1-.609.254m5.586 8.258q-1.003 0-1.733-.431a2.9 2.9 0 0 1-1.117-1.244q-.394-.807-.394-1.924v-.013q0-1.098.388-1.891a2.87 2.87 0 0 1 1.117-1.225q.73-.432 1.733-.432.87 0 1.491.305.628.298.997.825.375.52.47 1.187l.006.032h-1.327l-.006-.013a1.48 1.48 0 0 0-.527-.844q-.412-.343-1.098-.343-.571 0-.984.292-.413.286-.635.825-.215.54-.215 1.282v.013q0 .762.222 1.308t.634.844q.413.292.978.292.648 0 1.047-.286.407-.285.572-.844l.012-.032 1.321-.006-.013.057q-.12.673-.489 1.181a2.5 2.5 0 0 1-.984.8q-.61.285-1.466.285m7.02 0q-.83 0-1.447-.241-.615-.247-.977-.679a1.9 1.9 0 0 1-.426-1.016v-.012h1.384v.012q.133.387.508.629.375.24.99.241.425 0 .743-.121.324-.12.508-.336a.75.75 0 0 0 .184-.495v-.013a.7.7 0 0 0-.26-.546q-.261-.222-.857-.362l-1.105-.254q-.647-.146-1.073-.399a1.7 1.7 0 0 1-.628-.623 1.8 1.8 0 0 1-.203-.876v-.006q0-.603.343-1.066.342-.47.945-.73.61-.267 1.391-.267.786 0 1.371.248.59.241.933.673.343.424.406.99v.006h-1.32v-.013q-.096-.361-.457-.603-.355-.24-.94-.241-.374 0-.666.121a1.1 1.1 0 0 0-.464.324.74.74 0 0 0-.165.482v.013q0 .215.108.381.114.158.356.285.24.122.622.216l1.098.248q.99.235 1.473.679.488.444.488 1.193v.013a1.8 1.8 0 0 1-.374 1.123q-.375.483-1.022.756-.641.266-1.467.266M61.907 401.222q-1.27 0-2.203-.584-.927-.583-1.428-1.657-.502-1.072-.502-2.551v-.013q0-1.485.502-2.558.501-1.073 1.428-1.657t2.203-.584q1.01 0 1.822.4a3.56 3.56 0 0 1 1.339 1.092 3.3 3.3 0 0 1 .641 1.606v.038h-1.416l-.006-.025a2.3 2.3 0 0 0-.463-.978 2.3 2.3 0 0 0-.825-.641 2.55 2.55 0 0 0-1.092-.229q-.819 0-1.422.432-.597.432-.927 1.225-.324.787-.324 1.879v.013q0 1.079.324 1.872.33.794.927 1.225.603.432 1.428.432.603 0 1.092-.203a2.2 2.2 0 0 0 .825-.578q.33-.38.45-.895l.013-.025h1.422l-.006.032a3.25 3.25 0 0 1-.648 1.542q-.513.66-1.32 1.028-.806.363-1.834.362m8.436-.089q-1.01 0-1.746-.431a2.86 2.86 0 0 1-1.123-1.232q-.394-.806-.394-1.91v-.013q0-1.111.394-1.911a2.9 2.9 0 0 1 1.13-1.231q.735-.432 1.739-.432 1.009 0 1.739.432a2.8 2.8 0 0 1 1.124 1.231q.4.8.4 1.911v.013q0 1.104-.4 1.91a2.86 2.86 0 0 1-1.124 1.232q-.723.43-1.74.431m0-1.155q.59 0 1.003-.286.412-.291.628-.831t.216-1.301v-.013q0-.768-.216-1.308t-.628-.825q-.413-.292-1.003-.292t-1.003.292q-.413.286-.635.825-.216.54-.216 1.308v.013q0 .76.216 1.301.222.54.635.831.413.286 1.003.286M75.307 401v-9.598h1.377V401zm3.49 0v-9.598h1.378V401zm5.32.114q-.654 0-1.174-.247a2 2 0 0 1-.813-.718 1.96 1.96 0 0 1-.298-1.085v-.013q0-.621.298-1.06.306-.438.876-.685.577-.255 1.397-.305l2.545-.152v.971l-2.355.152q-.711.044-1.047.305-.337.254-.337.717v.013q0 .47.362.743.363.266.914.266.515 0 .914-.203.407-.21.635-.559.229-.355.229-.799v-2.171q0-.572-.356-.87-.35-.305-1.04-.305-.578 0-.947.203a1 1 0 0 0-.482.572l-.013.019H82.1l.006-.045q.082-.57.45-.99.375-.425.978-.66.61-.235 1.39-.235.87 0 1.473.279.61.273.92.794.318.514.318 1.238V401h-1.371v-.978h-.102a2.2 2.2 0 0 1-.508.597 2.2 2.2 0 0 1-.692.368q-.388.127-.844.127m9.128 0q-.483 0-.889-.139a2.4 2.4 0 0 1-.723-.413 2.3 2.3 0 0 1-.508-.647h-.108V401H89.64v-9.598h1.377v3.796h.108q.185-.374.501-.641a2.3 2.3 0 0 1 .73-.419q.413-.152.89-.152.875 0 1.516.438.642.432.99 1.231.35.8.35 1.892v.013q0 1.085-.356 1.885-.35.8-.99 1.238-.641.43-1.51.431m-.393-1.18q.578 0 .99-.286.412-.285.628-.819.222-.533.222-1.269v-.013q0-.742-.222-1.27a1.8 1.8 0 0 0-.628-.819q-.413-.291-.99-.291-.572 0-.99.291a1.8 1.8 0 0 0-.642.819q-.222.534-.222 1.27v.013q0 .729.222 1.269.222.534.641.819.42.286.99.286m7.807 1.199q-1.01 0-1.745-.431a2.86 2.86 0 0 1-1.124-1.232q-.394-.806-.394-1.91v-.013q0-1.111.394-1.911a2.9 2.9 0 0 1 1.13-1.231q.735-.432 1.739-.432 1.01 0 1.739.432.73.425 1.124 1.231.4.8.4 1.911v.013q0 1.104-.4 1.91a2.86 2.86 0 0 1-1.124 1.232q-.723.43-1.739.431m0-1.155q.59 0 1.003-.286.413-.291.629-.831.215-.54.215-1.301v-.013q0-.768-.215-1.308-.216-.54-.629-.825-.412-.292-1.003-.292-.59 0-1.003.292-.412.286-.635.825-.215.54-.215 1.308v.013q0 .76.216 1.301.222.54.634.831.413.286 1.003.286M105.56 401v-6.894h1.377v1.041h.108q.184-.552.647-.856.47-.305 1.156-.305a3 3 0 0 1 .603.063v1.27a3.5 3.5 0 0 0-.743-.076q-.526 0-.927.203a1.57 1.57 0 0 0-.622.571 1.6 1.6 0 0 0-.222.863V401zm7.058.114a2.7 2.7 0 0 1-1.174-.247 2 2 0 0 1-.813-.718 1.96 1.96 0 0 1-.298-1.085v-.013q0-.621.298-1.06.305-.438.876-.685.578-.255 1.397-.305l2.545-.152v.971l-2.355.152q-.711.044-1.047.305-.337.254-.337.717v.013q0 .47.362.743.362.266.914.266.515 0 .914-.203.407-.21.635-.559a1.44 1.44 0 0 0 .229-.799v-2.171q0-.572-.356-.87-.35-.305-1.041-.305-.577 0-.946.203a1 1 0 0 0-.482.572l-.013.019H110.6l.006-.045a1.87 1.87 0 0 1 .451-.99 2.5 2.5 0 0 1 .977-.66q.61-.235 1.39-.235.87 0 1.473.279.61.273.92.794.318.514.318 1.238V401h-1.371v-.978h-.102a2.2 2.2 0 0 1-.508.597 2.2 2.2 0 0 1-.692.368 2.7 2.7 0 0 1-.844.127m8.062-.07q-1.13 0-1.638-.431-.501-.438-.501-1.428v-3.993h-1.08v-1.086h1.08v-1.739h1.409v1.739h1.479v1.086h-1.479v3.656q0 .559.222.806.222.242.736.242.153 0 .26-.007a7 7 0 0 0 .261-.019v1.105q-.165.025-.356.044a3 3 0 0 1-.393.025m2.38-.044v-6.894h1.384V401zm.698-8.125a.83.83 0 0 1-.609-.254.83.83 0 0 1-.254-.609q0-.356.254-.603a.83.83 0 0 1 .609-.254.83.83 0 0 1 .61.254.8.8 0 0 1 .254.603.83.83 0 0 1-.254.609.84.84 0 0 1-.61.254m5.605 8.258q-1.009 0-1.745-.431a2.87 2.87 0 0 1-1.124-1.232q-.393-.806-.393-1.91v-.013q0-1.111.393-1.911a2.9 2.9 0 0 1 1.13-1.231q.737-.432 1.739-.432 1.01 0 1.74.432.73.425 1.123 1.231.4.8.4 1.911v.013q0 1.104-.4 1.91a2.86 2.86 0 0 1-1.123 1.232q-.724.43-1.74.431m0-1.155q.59 0 1.003-.286.413-.291.629-.831.215-.54.215-1.301v-.013q0-.768-.215-1.308-.216-.54-.629-.825-.412-.292-1.003-.292-.59 0-1.003.292-.412.286-.634.825-.216.54-.216 1.308v.013q0 .76.216 1.301.222.54.634.831.413.286 1.003.286m4.901 1.022v-6.894h1.377v1.041h.108q.254-.551.749-.863.495-.31 1.251-.311 1.16 0 1.777.667.615.666.616 1.898V401h-1.384v-4.139q0-.863-.362-1.282-.355-.425-1.117-.425-.502 0-.87.222a1.46 1.46 0 0 0-.571.622q-.197.4-.197.959V401zm13.939.044q-1.13 0-1.638-.431-.501-.438-.501-1.428v-3.993h-1.079v-1.086h1.079v-1.739h1.409v1.739h1.479v1.086h-1.479v3.656q0 .559.222.806.222.242.737.242a5 5 0 0 0 .52-.026v1.105a7 7 0 0 1-.355.044 3 3 0 0 1-.394.025m5.205.089q-1.01 0-1.745-.431a2.86 2.86 0 0 1-1.124-1.232q-.393-.806-.393-1.91v-.013q0-1.111.393-1.911a2.9 2.9 0 0 1 1.13-1.231q.737-.432 1.739-.432 1.01 0 1.739.432.73.425 1.124 1.231.4.8.4 1.911v.013q0 1.104-.4 1.91a2.86 2.86 0 0 1-1.124 1.232q-.723.43-1.739.431m0-1.155q.59 0 1.003-.286.413-.291.629-.831.215-.54.215-1.301v-.013q0-.768-.215-1.308-.216-.54-.629-.825-.412-.292-1.003-.292-.59 0-1.003.292-.412.286-.634.825-.216.54-.216 1.308v.013q0 .76.216 1.301.222.54.634.831.413.286 1.003.286m7.821 1.155q-1.01 0-1.746-.431a2.87 2.87 0 0 1-1.124-1.232q-.393-.806-.393-1.91v-.013q0-1.111.393-1.911a2.9 2.9 0 0 1 1.13-1.231q.737-.432 1.74-.432 1.008 0 1.739.432.73.425 1.123 1.231.4.8.4 1.911v.013q0 1.104-.4 1.91a2.86 2.86 0 0 1-1.123 1.232q-.724.43-1.739.431m0-1.155q.59 0 1.002-.286.413-.291.629-.831t.216-1.301v-.013q0-.768-.216-1.308t-.629-.825q-.413-.292-1.002-.292-.59 0-1.003.292-.413.286-.635.825-.216.54-.216 1.308v.013q0 .76.216 1.301.222.54.635.831.412.286 1.003.286m4.963 1.022v-9.598h1.378V401zm5.935.133q-.83 0-1.447-.241-.615-.247-.977-.679a1.9 1.9 0 0 1-.426-1.016v-.012h1.384v.012q.133.387.508.629.375.24.99.241.425 0 .743-.121.324-.12.508-.336a.75.75 0 0 0 .184-.495v-.013a.69.69 0 0 0-.261-.546q-.26-.222-.856-.362l-1.105-.254q-.647-.146-1.073-.399a1.7 1.7 0 0 1-.628-.623 1.8 1.8 0 0 1-.203-.876v-.006q0-.603.343-1.066.342-.47.945-.73.61-.267 1.39-.267.787 0 1.372.248.59.241.933.673.343.424.406.99v.006h-1.32v-.013q-.096-.361-.457-.603-.356-.24-.94-.241-.375 0-.666.121a1.1 1.1 0 0 0-.464.324.74.74 0 0 0-.165.482v.013q0 .215.108.381.114.158.356.285.24.122.622.216l1.098.248q.99.235 1.472.679.489.444.489 1.193v.013a1.8 1.8 0 0 1-.374 1.123q-.375.483-1.022.756-.641.266-1.467.266M58.149 443v-9.16h3.307q1.364 0 2.33.54.965.54 1.472 1.555.514 1.015.514 2.457v.012q.001 1.454-.514 2.482a3.6 3.6 0 0 1-1.472 1.574q-.96.54-2.33.54zm1.422-1.231h1.726q.96 0 1.632-.394a2.5 2.5 0 0 0 1.028-1.143q.355-.748.355-1.809v-.012q0-1.054-.361-1.803a2.56 2.56 0 0 0-1.029-1.143q-.672-.393-1.625-.393h-1.726zm9.832 1.345q-.654 0-1.174-.247a2 2 0 0 1-.812-.718 1.96 1.96 0 0 1-.299-1.085v-.013q0-.621.299-1.06.305-.438.876-.685.577-.255 1.396-.305l2.545-.152v.971l-2.355.152q-.711.044-1.047.305-.336.254-.336.717v.013q0 .47.361.743.362.266.915.266.514 0 .913-.203.407-.21.635-.559.23-.355.229-.799v-2.171q0-.572-.356-.87-.349-.305-1.04-.305-.578 0-.947.203a1 1 0 0 0-.482.572l-.013.019h-1.326l.006-.045q.083-.57.45-.99.375-.425.978-.66.61-.235 1.39-.235.87 0 1.473.279.61.273.92.794.318.514.318 1.238V443h-1.371v-.978h-.102a2.2 2.2 0 0 1-.508.597 2.2 2.2 0 0 1-.691.368q-.388.127-.845.127m5.478-.114v-6.894h1.384V443zm.699-8.125a.83.83 0 0 1-.61-.254.83.83 0 0 1-.254-.609.8.8 0 0 1 .254-.603.83.83 0 0 1 .61-.254q.356 0 .609.254a.8.8 0 0 1 .254.603.83.83 0 0 1-.254.609.83.83 0 0 1-.61.254M78.328 443v-9.598h1.378V443zm4.1 2.425q-.126 0-.272-.013a5 5 0 0 1-.28-.019v-1.085a4 4 0 0 0 .464.025q.483 0 .78-.229.3-.222.451-.742l.102-.356-2.501-6.9h1.492l1.948 6.215-.431-.711h.526l-.425.711 1.943-6.215h1.453l-2.564 7.154q-.292.825-.648 1.295a1.96 1.96 0 0 1-.844.673q-.49.197-1.193.197m13.864-2.311q-.483 0-.889-.139a2.4 2.4 0 0 1-.723-.413 2.3 2.3 0 0 1-.508-.647h-.108V443h-1.377v-9.598h1.377v3.796h.108q.185-.374.501-.641.318-.273.73-.419.413-.152.889-.152.876 0 1.517.438.642.432.99 1.231.35.8.35 1.892v.013q-.001 1.085-.356 1.885-.35.8-.99 1.238-.642.43-1.511.431m-.394-1.18q.579 0 .99-.286.413-.285.63-.819.22-.533.221-1.269v-.013q0-.742-.222-1.27a1.8 1.8 0 0 0-.628-.819q-.413-.291-.99-.291-.572 0-.99.291a1.8 1.8 0 0 0-.642.819q-.222.534-.222 1.27v.013q0 .729.222 1.269.222.534.641.819.42.286.99.286m6.78 1.18q-.654 0-1.175-.247a2 2 0 0 1-.812-.718 1.96 1.96 0 0 1-.298-1.085v-.013q0-.621.298-1.06.304-.438.876-.685.577-.255 1.396-.305l2.546-.152v.971l-2.355.152q-.71.044-1.048.305-.336.254-.336.717v.013q0 .47.362.743.362.266.914.266.514 0 .914-.203.406-.21.635-.559.228-.355.228-.799v-2.171q0-.572-.355-.87-.35-.305-1.041-.305-.578 0-.946.203a1 1 0 0 0-.482.572l-.013.019h-1.327l.007-.045q.083-.57.45-.99.375-.425.978-.66a3.8 3.8 0 0 1 1.39-.235q.87 0 1.473.279.61.273.92.794.318.514.317 1.238V443h-1.371v-.978h-.101a2.2 2.2 0 0 1-.508.597 2.2 2.2 0 0 1-.692.368q-.387.127-.844.127m8.36.019q-1.004 0-1.733-.431a2.9 2.9 0 0 1-1.117-1.244q-.394-.807-.394-1.924v-.013q0-1.098.387-1.891a2.9 2.9 0 0 1 1.117-1.225q.73-.432 1.733-.432.87 0 1.492.305.628.298.997.825.374.52.469 1.187l.007.032h-1.327l-.006-.013a1.5 1.5 0 0 0-.527-.844q-.413-.343-1.098-.343-.572 0-.984.292-.413.286-.635.825-.216.54-.216 1.282v.013q0 .762.222 1.308t.635.844q.412.292.978.292.647 0 1.047-.286.406-.285.571-.844l.013-.032 1.32-.006-.012.057a2.85 2.85 0 0 1-.489 1.181 2.54 2.54 0 0 1-.984.8q-.61.285-1.466.285m4.576-.133v-9.598h1.378V443zm4.342 0-2.476-3.231 1.022-.857 3.136 4.088zm-3.098-2.368-.057-1.625h.299l2.729-2.901h1.619l-3.111 3.149-.533.438zm8.329 2.501q-.776 0-1.308-.298a1.93 1.93 0 0 1-.794-.876q-.26-.577-.26-1.39v-4.463h1.378v4.139q0 .85.336 1.276.336.425 1.098.425.406 0 .724-.12.317-.128.533-.362.216-.235.317-.565.108-.33.108-.749v-4.044h1.384V443h-1.384v-1.041h-.101q-.165.368-.451.635-.285.26-.685.4a2.7 2.7 0 0 1-.895.139m5.497 2.165v-9.192h1.377v1.086h.108q.196-.381.508-.648.317-.266.723-.412a2.6 2.6 0 0 1 .889-.146q.87 0 1.511.444.64.438.99 1.238.356.793.356 1.879v.013q0 1.091-.35 1.891-.348.794-.99 1.232-.64.43-1.517.431-.476 0-.889-.146a2.4 2.4 0 0 1-.73-.419 1.95 1.95 0 0 1-.501-.641h-.108v3.39zm3.212-3.364q.578 0 .99-.286.412-.285.628-.819.222-.533.222-1.269v-.013q0-.743-.222-1.276a1.8 1.8 0 0 0-.628-.819q-.412-.285-.99-.285-.571 0-.991.291a1.8 1.8 0 0 0-.641.819q-.222.528-.222 1.27v.013q0 .729.222 1.263t.641.825q.42.286.991.286m7.407 1.199q-.832 0-1.447-.241-.616-.247-.978-.679a1.9 1.9 0 0 1-.425-1.016v-.012h1.384v.012q.133.387.508.629.374.24.99.241.425 0 .743-.121.323-.12.507-.336a.74.74 0 0 0 .185-.495v-.013a.69.69 0 0 0-.261-.546q-.26-.222-.857-.362l-1.104-.254q-.647-.146-1.073-.399a1.7 1.7 0 0 1-.628-.623 1.8 1.8 0 0 1-.203-.876v-.006q0-.603.342-1.066.343-.47.946-.73.61-.267 1.39-.267.788 0 1.371.248.591.241.933.673.343.424.407.99v.006h-1.321v-.013q-.094-.361-.457-.603-.356-.24-.939-.241-.375 0-.667.121a1.1 1.1 0 0 0-.463.324.74.74 0 0 0-.165.482v.013q0 .215.108.381.114.158.355.285.242.122.622.216l1.099.248q.99.235 1.472.679.489.444.489 1.193v.013a1.8 1.8 0 0 1-.374 1.123q-.375.483-1.022.756-.642.266-1.467.266M58.149 485v-9.16h1.644l2.913 7.3h.108l2.914-7.3h1.644V485h-1.301v-6.716h-.705l1.486-2.19L63.284 485h-1.053l-3.562-8.906 1.48 2.19h-.699V485zm14.276.133q-1.01 0-1.746-.431a2.86 2.86 0 0 1-1.123-1.232q-.394-.806-.394-1.91v-.013q0-1.111.394-1.911a2.9 2.9 0 0 1 1.13-1.231q.735-.432 1.739-.432 1.009 0 1.74.432.729.425 1.123 1.231.4.8.4 1.911v.013q0 1.104-.4 1.91a2.86 2.86 0 0 1-1.124 1.232q-.723.43-1.74.431m0-1.155q.59 0 1.003-.286.412-.291.628-.831t.216-1.301v-.013q0-.768-.216-1.308t-.628-.825q-.413-.292-1.003-.292t-1.003.292q-.413.286-.635.825-.216.54-.216 1.308v.013q0 .76.216 1.301.222.54.635.831.413.286 1.003.286m8.57 1.136a2.7 2.7 0 0 1-.89-.139 2.4 2.4 0 0 1-.723-.413 2.3 2.3 0 0 1-.508-.647h-.108V485H77.39v-9.598h1.377v3.796h.108q.184-.374.502-.641a2.3 2.3 0 0 1 .73-.419q.412-.152.888-.152.876 0 1.517.438.642.432.99 1.231.35.8.35 1.892v.013q0 1.085-.356 1.885-.35.8-.99 1.238-.641.43-1.51.431m-.394-1.18q.578 0 .99-.286.412-.285.628-.819.222-.533.222-1.269v-.013q0-.742-.222-1.27a1.8 1.8 0 0 0-.628-.819q-.412-.291-.99-.291-.572 0-.99.291-.42.286-.642.819-.222.534-.222 1.27v.013q0 .729.222 1.269.222.534.641.819.42.286.99.286M85.507 485v-6.894h1.384V485zm.699-8.125a.83.83 0 0 1-.61-.254.83.83 0 0 1-.254-.609.8.8 0 0 1 .254-.603.83.83 0 0 1 .61-.254q.355 0 .609.254a.8.8 0 0 1 .254.603.83.83 0 0 1-.254.609.83.83 0 0 1-.61.254M88.954 485v-9.598h1.378V485zm6.322.133q-1.008 0-1.733-.431a2.9 2.9 0 0 1-1.117-1.238q-.387-.8-.387-1.892v-.006q0-1.079.387-1.885a3 3 0 0 1 1.105-1.257q.717-.451 1.675-.451.966 0 1.657.432.699.432 1.073 1.212.374.775.374 1.816v.482h-5.573v-.984h4.888l-.66.914v-.552q0-.736-.229-1.219-.222-.489-.615-.73a1.7 1.7 0 0 0-.908-.241q-.515 0-.92.254-.4.247-.635.736-.23.489-.229 1.2v.552q0 .68.229 1.162.228.482.647.736.426.254 1.003.254.444 0 .762-.121.324-.126.527-.311.21-.184.285-.361l.026-.051h1.333l-.013.057a2.36 2.36 0 0 1-.901 1.301 3 3 0 0 1-.876.451q-.508.171-1.175.171m10.106-.019a2.7 2.7 0 0 1-1.174-.247 2 2 0 0 1-.813-.718 1.96 1.96 0 0 1-.298-1.085v-.013q0-.621.298-1.06.305-.438.876-.685.578-.255 1.396-.305l2.546-.152v.971l-2.355.152q-.711.044-1.047.305-.337.254-.337.717v.013q0 .47.362.743.362.266.914.266.514 0 .914-.203.406-.21.635-.559.228-.355.228-.799v-2.171q0-.572-.355-.87-.35-.305-1.041-.305-.577 0-.946.203a1 1 0 0 0-.482.572l-.013.019h-1.327l.007-.045q.083-.57.45-.99.375-.425.978-.66a3.8 3.8 0 0 1 1.39-.235q.87 0 1.473.279.61.273.92.794.317.514.317 1.238V485h-1.371v-.978h-.101a2.2 2.2 0 0 1-.508.597 2.2 2.2 0 0 1-.692.368 2.7 2.7 0 0 1-.844.127m5.459 2.184v-9.192h1.377v1.086h.108q.197-.381.508-.648.318-.266.724-.412t.888-.146q.87 0 1.511.444.641.438.99 1.238.356.793.356 1.879v.013q0 1.091-.349 1.891-.35.794-.991 1.232-.64.43-1.517.431-.475 0-.888-.146a2.4 2.4 0 0 1-.73-.419 1.9 1.9 0 0 1-.502-.641h-.108v3.39zm3.212-3.364q.578 0 .99-.286.413-.285.628-.819.222-.533.223-1.269v-.013q0-.743-.223-1.276a1.77 1.77 0 0 0-.628-.819q-.413-.285-.99-.285-.571 0-.991.291a1.8 1.8 0 0 0-.641.819q-.222.528-.222 1.27v.013q0 .729.222 1.263t.641.825q.42.286.991.286m4.9 3.364v-9.192h1.378v1.086h.107q.198-.381.508-.648.318-.266.724-.412a2.6 2.6 0 0 1 .889-.146q.869 0 1.51.444.642.438.991 1.238.355.793.355 1.879v.013q0 1.091-.349 1.891-.35.794-.99 1.232-.642.43-1.517.431-.477 0-.889-.146a2.4 2.4 0 0 1-.73-.419 1.9 1.9 0 0 1-.502-.641h-.107v3.39zm3.212-3.364q.578 0 .99-.286a1.77 1.77 0 0 0 .629-.819q.222-.533.222-1.269v-.013q0-.743-.222-1.276a1.8 1.8 0 0 0-.629-.819q-.413-.285-.99-.285a1.7 1.7 0 0 0-.99.291 1.8 1.8 0 0 0-.641.819q-.222.528-.222 1.27v.013q0 .729.222 1.263t.641.825q.418.286.99.286m8.461 1.066v-6.894h1.384V485zm.699-8.125a.84.84 0 0 1-.61-.254.83.83 0 0 1-.254-.609q0-.356.254-.603a.83.83 0 0 1 .61-.254q.356 0 .609.254a.8.8 0 0 1 .254.603.83.83 0 0 1-.254.609.83.83 0 0 1-.609.254M134.01 485v-6.894h1.377v1.041h.108q.254-.551.749-.863.495-.31 1.251-.311 1.16 0 1.777.667.615.666.616 1.898V485h-1.384v-4.139q0-.863-.362-1.282-.355-.425-1.117-.425-.501 0-.87.222a1.46 1.46 0 0 0-.571.622q-.197.4-.197.959V485zm10.397.044q-1.13 0-1.637-.431-.502-.438-.502-1.428v-3.993h-1.079v-1.086h1.079v-1.739h1.409v1.739h1.479v1.086h-1.479v3.656q0 .559.222.806.223.242.737.242a5 5 0 0 0 .52-.026v1.105a7 7 0 0 1-.355.044 3 3 0 0 1-.394.025m5.18.089q-1.01 0-1.733-.431a2.9 2.9 0 0 1-1.117-1.238q-.387-.8-.387-1.892v-.006q0-1.079.387-1.885.393-.807 1.104-1.257.717-.451 1.676-.451.965 0 1.657.432.698.432 1.073 1.212.374.775.374 1.816v.482h-5.573v-.984h4.888l-.661.914v-.552q0-.736-.228-1.219-.222-.489-.616-.73a1.7 1.7 0 0 0-.908-.241q-.513 0-.92.254-.4.247-.635.736-.228.489-.228 1.2v.552q0 .68.228 1.162.229.482.648.736.425.254 1.003.254.444 0 .761-.121.324-.126.527-.311.21-.184.286-.361l.025-.051h1.333l-.012.057q-.09.342-.311.686a2.5 2.5 0 0 1-.591.615 3 3 0 0 1-.876.451q-.507.171-1.174.171m7.585 2.298q-.876 0-1.523-.241-.64-.241-1.016-.673a1.9 1.9 0 0 1-.457-1.003l.007-.013h1.396l.006.013q.09.356.502.584t1.104.229q.851 0 1.327-.388.482-.387.482-1.085v-1.352h-.107a2.2 2.2 0 0 1-.521.635 2.2 2.2 0 0 1-.724.393q-.406.134-.882.134-.876 0-1.523-.419a2.8 2.8 0 0 1-.991-1.168q-.342-.75-.342-1.721v-.012q0-.984.349-1.74.35-.76.996-1.187.648-.43 1.543-.431.482 0 .882.152.406.153.717.432t.515.666h.082v-1.13h1.378v6.754q0 .781-.394 1.359-.387.577-1.104.895-.718.317-1.702.317m-.019-3.91q.585 0 1.003-.273.42-.279.641-.768a2.6 2.6 0 0 0 .229-1.13v-.013q0-.634-.229-1.129a1.77 1.77 0 0 0-.641-.775q-.418-.279-1.003-.279-.584 0-.996.279a1.77 1.77 0 0 0-.622.775 2.8 2.8 0 0 0-.216 1.129v.013q0 .641.216 1.13t.622.768q.412.273.996.273m5.205 1.479v-6.894h1.378v1.041h.108a1.6 1.6 0 0 1 .647-.856q.47-.305 1.155-.305a3 3 0 0 1 .604.063v1.27a3.4 3.4 0 0 0-.743-.076q-.526 0-.927.203-.393.203-.622.571a1.6 1.6 0 0 0-.222.863V485zm7.059.114a2.7 2.7 0 0 1-1.174-.247 2 2 0 0 1-.813-.718 1.96 1.96 0 0 1-.298-1.085v-.013q0-.621.298-1.06.305-.438.876-.685.578-.255 1.397-.305l2.545-.152v.971l-2.355.152q-.711.044-1.047.305-.337.254-.337.717v.013q0 .47.362.743.362.266.914.266.515 0 .914-.203.407-.21.635-.559.228-.355.228-.799v-2.171q0-.572-.355-.87-.35-.305-1.041-.305-.577 0-.946.203a1 1 0 0 0-.482.572l-.013.019h-1.327l.007-.045q.083-.57.45-.99.375-.425.978-.66.61-.235 1.39-.235.87 0 1.473.279.61.273.92.794.318.514.318 1.238V485h-1.372v-.978h-.101a2.2 2.2 0 0 1-.508.597 2.2 2.2 0 0 1-.692.368 2.7 2.7 0 0 1-.844.127m8.062-.07q-1.131 0-1.638-.431-.502-.438-.502-1.428v-3.993h-1.079v-1.086h1.079v-1.739h1.41v1.739h1.479v1.086h-1.479v3.656q0 .559.222.806.222.242.736.242.153 0 .26-.007.114-.006.261-.019v1.105q-.165.025-.356.044a3 3 0 0 1-.393.025m2.38-.044v-6.894h1.384V485zm.698-8.125a.83.83 0 0 1-.609-.254.83.83 0 0 1-.254-.609q0-.356.254-.603a.83.83 0 0 1 .609-.254.83.83 0 0 1 .61.254.8.8 0 0 1 .253.603.83.83 0 0 1-.253.609.84.84 0 0 1-.61.254m5.605 8.258q-1.01 0-1.745-.431a2.86 2.86 0 0 1-1.124-1.232q-.393-.806-.394-1.91v-.013q0-1.111.394-1.911a2.9 2.9 0 0 1 1.13-1.231q.736-.432 1.739-.432 1.01 0 1.739.432.73.425 1.124 1.231.4.8.4 1.911v.013q0 1.104-.4 1.91a2.86 2.86 0 0 1-1.124 1.232q-.723.43-1.739.431m0-1.155q.59 0 1.003-.286.413-.291.628-.831t.216-1.301v-.013q0-.768-.216-1.308-.215-.54-.628-.825-.412-.292-1.003-.292-.59 0-1.003.292-.412.286-.635.825-.215.54-.215 1.308v.013q0 .76.215 1.301.223.54.635.831.413.286 1.003.286m4.9 1.022v-6.894h1.378v1.041h.108q.254-.551.749-.863.495-.31 1.25-.311 1.162 0 1.778.667.615.666.615 1.898V485h-1.383v-4.139q0-.863-.362-1.282-.356-.425-1.117-.425a1.65 1.65 0 0 0-.87.222 1.46 1.46 0 0 0-.571.622q-.197.4-.197.959V485z"/></g></g><defs><clipPath id="a"><path fill="#fff" d="M0 0h482v790H0z"/></clipPath><clipPath id="c"><path fill="#fff" d="M41 49a6 6 0 0 1 6-6h388a6 6 0 0 1 6 6v692a6 6 0 0 1-6 6H47a6 6 0 0 1-6-6z"/></clipPath><clipPath id="f"><rect width="24" height="16" x="57" y="139" fill="#fff" rx="8"/></clipPath><filter id="b" width="460" height="764" x="11" y="28" color-interpolation-filters="sRGB" filterUnits="userSpaceOnUse"><feFlood flood-opacity="0" result="BackgroundImageFix"/><feColorMatrix in="SourceAlpha" result="hardAlpha" values="0 0 0 0 0 0 0 0 0 0 0 0 0 0 0 0 0 0 127 0"/><feMorphology in="SourceAlpha" operator="dilate" radius="1" result="effect1_dropShadow_5_467"/><feOffset/><feComposite in2="hardAlpha" operator="out"/><feColorMatrix values="0 0 0 0 0 0 0 0 0 0 0 0 0 0 0 0 0 0 0.06 0"/><feBlend in2="BackgroundImageFix" result="effect1_dropShadow_5_467"/><feColorMatrix in="SourceAlpha" result="hardAlpha" values="0 0 0 0 0 0 0 0 0 0 0 0 0 0 0 0 0 0 127 0"/><feMorphology in="SourceAlpha" radius="5" result="effect2_dropShadow_5_467"/><feOffset dy="15"/><feGaussianBlur stdDeviation="17.5"/><feComposite in2="hardAlpha" operator="out"/><feColorMatrix values="0 0 0 0 0 0 0 0 0 0 0 0 0 0 0 0 0 0 0.2 0"/><feBlend in2="effect1_dropShadow_5_467" result="effect2_dropShadow_5_467"/><feColorMatrix in="SourceAlpha" result="hardAlpha" values="0 0 0 0 0 0 0 0 0 0 0 0 0 0 0 0 0 0 127 0"/><feOffset dy="5"/><feGaussianBlur stdDeviation="7.5"/><feComposite in2="hardAlpha" operator="out"/><feColorMatrix values="0 0 0 0 0 0 0 0 0 0 0 0 0 0 0 0 0 0 0.08 0"/><feBlend in2="effect2_dropShadow_5_467" result="effect3_dropShadow_5_467"/><feBlend in="SourceGraphic" in2="effect3_dropShadow_5_467" result="shape"/></filter><filter id="e" width="24" height="16" x="57" y="139" color-interpolation-filters="sRGB" filterUnits="userSpaceOnUse"><feFlood flood-opacity="0" result="BackgroundImageFix"/><feBlend in="SourceGraphic" in2="BackgroundImageFix" result="shape"/><feColorMatrix in="SourceAlpha" result="hardAlpha" values="0 0 0 0 0 0 0 0 0 0 0 0 0 0 0 0 0 0 127 0"/><feMorphology in="SourceAlpha" radius="1" result="effect1_innerShadow_5_467"/><feOffset/><feComposite in2="hardAlpha" k2="-1" k3="1" operator="arithmetic"/><feColorMatrix values="0 0 0 0 0 0 0 0 0 0 0 0 0 0 0 0 0 0 0.06 0"/><feBlend in2="shape" result="effect1_innerShadow_5_467"/></filter><filter id="g" width="16" height="19" x="57" y="140" color-interpolation-filters="sRGB" filterUnits="userSpaceOnUse"><feFlood flood-opacity="0" result="BackgroundImageFix"/><feColorMatrix in="SourceAlpha" result="hardAlpha" values="0 0 0 0 0 0 0 0 0 0 0 0 0 0 0 0 0 0 127 0"/><feMorphology in="SourceAlpha" radius="2" result="effect1_dropShadow_5_467"/><feOffset dy="4"/><feGaussianBlur stdDeviation="2"/><feComposite in2="hardAlpha" operator="out"/><feColorMatrix values="0 0 0 0 0 0 0 0 0 0 0 0 0 0 0 0 0 0 0.06 0"/><feBlend in2="BackgroundImageFix" result="effect1_dropShadow_5_467"/><feColorMatrix in="SourceAlpha" result="hardAlpha" values="0 0 0 0 0 0 0 0 0 0 0 0 0 0 0 0 0 0 127 0"/><feMorphology in="SourceAlpha" operator="dilate" radius="1" result="effect2_dropShadow_5_467"/><feOffset/><feComposite in2="hardAlpha" operator="out"/><feColorMatrix values="0 0 0 0 0 0 0 0 0 0 0 0 0 0 0 0 0 0 0.06 0"/><feBlend in2="effect1_dropShadow_5_467" result="effect2_dropShadow_5_467"/><feColorMatrix in="SourceAlpha" result="hardAlpha" values="0 0 0 0 0 0 0 0 0 0 0 0 0 0 0 0 0 0 127 0"/><feMorphology in="SourceAlpha" radius="1" result="effect3_dropShadow_5_467"/><feOffset dy="2"/><feGaussianBlur stdDeviation="1"/><feComposite in2="hardAlpha" operator="out"/><feColorMatrix values="0 0 0 0 0 0 0 0 0 0 0 0 0 0 0 0 0 0 0.06 0"/><feBlend in2="effect2_dropShadow_5_467" result="effect3_dropShadow_5_467"/><feBlend in="SourceGraphic" in2="effect3_dropShadow_5_467" result="shape"/></filter></defs></svg>