<svg xmlns="http://www.w3.org/2000/svg" width="460" height="576" fill="none"><g filter="url(#a)"><g clip-path="url(#b)"><rect width="400" height="516" x="30" y="15" fill="#f7f7f8" rx="12"/><g filter="url(#c)"><rect width="400" height="418" x="30" y="15" fill="#fff" rx="8"/><path fill="#42434d" fill-rule="evenodd" d="M220.4 47a6.4 6.4 0 0 0-6.4 6.4v19.2a6.4 6.4 0 0 0 6.4 6.4h19.2a6.4 6.4 0 0 0 6.4-6.4V53.4a6.4 6.4 0 0 0-6.4-6.4zm9.6 24.889a8.89 8.89 0 1 0 0-17.778 8.89 8.89 0 0 0 0 17.778" clip-rule="evenodd"/><path fill="#212126" d="M157.236 121.307q-1.428 0-2.482-.432-1.054-.43-1.66-1.211-.598-.789-.673-1.852l-.008-.132h2.416l.008.083q.05.448.365.788.324.333.863.523.54.19 1.237.191.672 0 1.179-.199.506-.2.789-.548.29-.357.29-.813v-.009q0-.59-.481-.946-.474-.357-1.594-.589l-1.262-.258q-1.868-.381-2.714-1.253-.847-.871-.847-2.233v-.008q0-1.112.589-1.943.59-.83 1.619-1.286 1.029-.465 2.358-.465 1.394 0 2.39.456 1.005.448 1.569 1.237.564.78.639 1.785l.008.108h-2.357l-.017-.1a1.5 1.5 0 0 0-.365-.755 1.9 1.9 0 0 0-.763-.507 3 3 0 0 0-1.104-.19q-.615 0-1.08.182-.464.183-.722.515a1.2 1.2 0 0 0-.257.772v.008q0 .581.465.955.473.365 1.527.581l1.27.257q1.901.39 2.764 1.195.872.806.872 2.208v.009q0 1.187-.589 2.058-.582.864-1.669 1.345-1.079.473-2.573.473m6.811-.307v-9.139h2.424V121zm1.22-10.542q-.557 0-.963-.39a1.3 1.3 0 0 1-.407-.955q0-.564.407-.954.406-.399.963-.399.564 0 .963.399.398.39.398.954 0 .556-.398.955-.399.39-.963.39m7.508 13.754q-1.269 0-2.175-.332-.896-.323-1.411-.921a2.5 2.5 0 0 1-.614-1.361v-.042h2.399l.008.033q.1.399.565.648.472.249 1.278.249.97 0 1.511-.44.539-.431.539-1.229v-1.701h-.149a2.5 2.5 0 0 1-.656.813q-.397.332-.93.507-.522.166-1.153.166-1.146 0-1.984-.548-.83-.557-1.287-1.544-.448-.989-.448-2.283v-.017q0-1.344.448-2.357.457-1.013 1.295-1.577.847-.565 2.017-.565.631 0 1.154.2.531.199.93.564.398.366.639.88h.116v-1.494h2.424v8.857q0 1.071-.556 1.851-.549.789-1.561 1.212-1.013.431-2.399.431m.033-5.47q.656 0 1.121-.315.465-.324.714-.888.257-.565.257-1.32v-.017q0-.747-.257-1.32a2 2 0 0 0-.714-.888q-.464-.315-1.121-.315-.656 0-1.112.315t-.705.888q-.241.565-.241 1.32v.017q0 .747.241 1.32.249.564.705.888.456.315 1.112.315m6.737 2.258v-9.139h2.424v1.411h.149q.316-.747.979-1.179.665-.43 1.644-.431 1.527 0 2.324.896.805.888.805 2.532V121h-2.423v-5.362q0-.972-.407-1.47t-1.27-.498q-.556 0-.963.258a1.7 1.7 0 0 0-.623.705q-.215.457-.215 1.079V121zm14.734 0v-9.139h2.424V121zm1.22-10.542q-.556 0-.963-.39a1.3 1.3 0 0 1-.407-.955q0-.564.407-.954.406-.399.963-.399.564 0 .963.399.398.39.398.954 0 .556-.398.955-.399.39-.963.39M198.973 121v-9.139h2.424v1.411h.149q.316-.747.98-1.179.664-.43 1.643-.431 1.528 0 2.325.896.805.888.805 2.532V121h-2.424v-5.362q0-.972-.407-1.47t-1.27-.498q-.556 0-.963.258a1.7 1.7 0 0 0-.622.705q-.216.457-.216 1.079V121zm18.511.033q-1.66 0-2.39-.581-.73-.59-.731-1.917v-4.848h-1.411v-1.826h1.411v-2.183h2.449v2.183h1.884v1.826h-1.884v4.292q0 .614.274.904.282.282.896.283.233 0 .382-.009l.332-.033v1.801a7 7 0 0 1-1.212.108m7.052.158q-1.402 0-2.416-.565a3.8 3.8 0 0 1-1.552-1.635q-.54-1.071-.539-2.556v-.017q0-1.478.547-2.54a3.9 3.9 0 0 1 1.553-1.635q1.012-.582 2.407-.581 1.395 0 2.399.572a3.86 3.86 0 0 1 1.56 1.644q.549 1.062.548 2.54v.017q0 1.485-.539 2.556a3.8 3.8 0 0 1-1.553 1.635q-1.004.565-2.415.565m0-1.901q.648 0 1.096-.34.447-.34.689-.98.24-.64.24-1.535v-.017q0-.897-.24-1.527-.241-.64-.698-.98-.448-.349-1.087-.349t-1.096.349q-.448.34-.689.98-.24.63-.24 1.527v.017q0 .904.232 1.544.24.639.689.979.456.332 1.104.332m9.911 1.71 4.159-11.978h2.133v2.391h-.73l-2.93 9.587zm2.225-2.905.614-1.876h5.537l.614 1.876zM243.08 121l-2.922-9.587v-2.391h1.395L245.72 121zm7.791.191q-1.428 0-2.432-.556a3.7 3.7 0 0 1-1.52-1.627q-.522-1.07-.522-2.59v-.017q0-1.51.522-2.565a3.66 3.66 0 0 1 1.52-1.61q1.004-.564 2.432-.564 1.212 0 2.083.415a3.35 3.35 0 0 1 1.378 1.17q.506.756.614 1.776v.025h-2.249l-.008-.016q-.124-.664-.582-1.063-.447-.407-1.228-.407-.648 0-1.104.333-.448.323-.681.954-.232.631-.232 1.552v.017q0 .921.232 1.569.241.64.689.971.448.332 1.096.332.747 0 1.195-.349t.606-1.045l.017-.025 2.241-.009v.058q-.133.988-.639 1.727a3.36 3.36 0 0 1-1.37 1.145q-.862.399-2.058.399m5.798-.191v-9.139h2.424v1.428h.149a2.35 2.35 0 0 1 .963-1.196q.672-.43 1.569-.431.622 0 1.129.207.506.2.863.573.357.374.548.905h.149q.208-.507.615-.88a2.9 2.9 0 0 1 .954-.59 3.2 3.2 0 0 1 1.187-.215q.913 0 1.569.373.664.373 1.021 1.063.366.68.365 1.627V121h-2.424v-5.669q0-.83-.373-1.246-.373-.414-1.137-.415-.49 0-.855.225a1.54 1.54 0 0 0-.556.605q-.2.382-.2.88V121h-2.423v-5.777q0-.73-.399-1.138-.399-.414-1.104-.415-.473 0-.838.241a1.6 1.6 0 0 0-.565.648 2 2 0 0 0-.207.929V121zm19.702.191q-1.386 0-2.391-.573a3.9 3.9 0 0 1-1.535-1.643q-.54-1.064-.54-2.532v-.008q0-1.453.531-2.524a4 4 0 0 1 1.519-1.66q.988-.59 2.316-.589 1.337 0 2.308.572a3.84 3.84 0 0 1 1.494 1.602q.523 1.03.523 2.416v.755h-7.479v-1.519h6.317l-1.137 1.436v-.971q0-.822-.258-1.37-.249-.548-.697-.821a1.86 1.86 0 0 0-1.029-.283q-.58 0-1.038.291-.448.283-.714.838-.257.549-.257 1.345v.98q0 .771.257 1.319.258.548.731.839t1.129.29q.531 0 .905-.157.374-.158.597-.366.232-.215.316-.39l.025-.05h2.257l-.016.083q-.108.432-.39.905-.283.465-.781.872-.49.406-1.228.664-.73.249-1.735.249m15.581.116q-1.736 0-2.997-.764t-1.942-2.174-.681-3.354v-.016q0-1.942.681-3.354.68-1.411 1.934-2.166 1.262-.765 3.005-.764 1.42 0 2.548.556 1.137.556 1.835 1.536.697.98.813 2.241v.108h-2.432l-.008-.058a2.76 2.76 0 0 0-.507-1.179 2.6 2.6 0 0 0-.963-.797 2.9 2.9 0 0 0-1.286-.282q-.938 0-1.627.506-.689.498-1.063 1.436-.365.93-.365 2.217v.016q0 1.278.365 2.216.374.939 1.063 1.445t1.635.506q.722 0 1.287-.257.573-.266.946-.739.382-.481.506-1.121l.017-.074h2.44v.099q-.132 1.254-.821 2.2a4.74 4.74 0 0 1-1.81 1.486q-1.12.531-2.573.531m11.16-.116q-1.402 0-2.415-.565a3.8 3.8 0 0 1-1.552-1.635q-.54-1.071-.54-2.556v-.017q0-1.478.548-2.54a3.9 3.9 0 0 1 1.552-1.635q1.013-.582 2.407-.581 1.395 0 2.399.572 1.013.573 1.561 1.644.548 1.062.548 2.54v.017q0 1.485-.54 2.556a3.8 3.8 0 0 1-1.552 1.635q-1.005.565-2.416.565m0-1.901q.648 0 1.096-.34t.689-.98.241-1.535v-.017q0-.897-.241-1.527-.24-.64-.697-.98-.448-.349-1.088-.349-.639 0-1.095.349-.449.34-.689.98-.241.63-.241 1.527v.017q0 .904.232 1.544.242.639.689.979.458.332 1.104.332"/><path fill="#747686" d="m106.066 145-2.495-9.16h1.194l1.821 7.446h.077l2.05-7.446h1.155l2.05 7.446h.077l1.821-7.446h1.194l-2.495 9.16h-1.079l-2.107-7.23h-.077l-2.107 7.23zm12.702.121q-.978 0-1.683-.432a2.86 2.86 0 0 1-1.079-1.219q-.374-.794-.374-1.866v-.006q0-1.06.374-1.86.381-.8 1.073-1.251t1.619-.45q.933 0 1.599.431.674.432 1.029 1.206.362.768.362 1.79v.432h-5.485v-.882h4.92l-.546.806v-.438q0-.807-.242-1.327-.24-.52-.666-.774a1.83 1.83 0 0 0-.978-.26q-.552 0-.99.272-.432.267-.685.794-.255.527-.254 1.295v.438q0 .73.247 1.25.248.515.705.794.457.273 1.079.273.464 0 .806-.127.343-.127.565-.324.222-.196.311-.4l.025-.057h1.105l-.013.051a2.1 2.1 0 0 1-.317.679 2.5 2.5 0 0 1-.578.59 3 3 0 0 1-.844.419 3.6 3.6 0 0 1-1.085.153m4.697-.121v-9.56h1.104V145zm6.024.121q-.959 0-1.663-.438a2.9 2.9 0 0 1-1.092-1.238q-.387-.8-.387-1.885v-.013q0-1.067.381-1.854a2.9 2.9 0 0 1 1.091-1.218q.705-.438 1.663-.438.832 0 1.435.292a2.53 2.53 0 0 1 1.428 1.885l.007.038h-1.099l-.006-.019a1.57 1.57 0 0 0-.578-.863q-.45-.356-1.187-.356-.615 0-1.066.311-.45.312-.698.883-.241.565-.241 1.339v.013q0 .786.247 1.371.248.577.698.895a1.8 1.8 0 0 0 1.06.317q.692 0 1.13-.298.438-.299.629-.87l.012-.038 1.092-.006-.012.069a2.9 2.9 0 0 1-.496 1.099q-.356.476-.939.749-.584.273-1.409.273m7.287 0q-.971 0-1.682-.426a2.87 2.87 0 0 1-1.092-1.225q-.381-.793-.381-1.885v-.013q0-1.098.381-1.891a2.83 2.83 0 0 1 1.092-1.219q.71-.425 1.682-.425.977 0 1.682.425t1.085 1.219q.388.793.388 1.891v.013q0 1.092-.388 1.885a2.8 2.8 0 0 1-1.085 1.225q-.705.426-1.682.426m0-.978q.648 0 1.098-.305.45-.304.686-.876.24-.57.241-1.377v-.013q0-.812-.241-1.384-.236-.57-.686-.869-.45-.305-1.098-.305t-1.098.305q-.451.299-.692.869-.235.572-.235 1.384v.013q0 .806.235 1.377.241.572.692.876t1.098.305m4.869.857v-6.843h1.104v1.041h.102a1.82 1.82 0 0 1 .698-.857q.476-.304 1.149-.304.464 0 .831.152.369.152.635.425.267.267.425.622h.102a2.2 2.2 0 0 1 1.212-1.047q.412-.153.883-.152.698 0 1.18.26.49.26.743.762.254.495.254 1.212V145h-1.105v-4.475q0-.755-.355-1.13-.349-.381-1.073-.381-.476 0-.831.216a1.5 1.5 0 0 0-.553.578 1.6 1.6 0 0 0-.196.793V145h-1.105v-4.646q0-.61-.387-.972-.387-.368-1.035-.368-.444 0-.806.235a1.7 1.7 0 0 0-.565.635 1.9 1.9 0 0 0-.203.876V145zm14.104.121q-.977 0-1.682-.432a2.86 2.86 0 0 1-1.079-1.219q-.375-.794-.375-1.866v-.006q0-1.06.375-1.86.38-.8 1.073-1.251.691-.45 1.618-.45.933 0 1.6.431.672.432 1.028 1.206.362.768.362 1.79v.432h-5.484v-.882h4.919l-.546.806v-.438q0-.807-.241-1.327t-.667-.774a1.83 1.83 0 0 0-.977-.26q-.552 0-.99.272a1.84 1.84 0 0 0-.686.794q-.254.527-.254 1.295v.438q0 .73.248 1.25.248.515.704.794.458.273 1.079.273.464 0 .807-.127.342-.127.565-.324.222-.196.311-.4l.025-.057h1.104l-.012.051q-.09.35-.318.679-.222.324-.577.59a3 3 0 0 1-.845.419 3.6 3.6 0 0 1-1.085.153m11.692 0q-.711 0-1.263-.318a2.3 2.3 0 0 1-.869-.895h-.102V145h-1.104v-9.56h1.104v3.796h.102q.279-.545.85-.869a2.54 2.54 0 0 1 1.282-.33q.87 0 1.511.438.648.438 1.003 1.231.356.793.356 1.866v.013q0 1.066-.356 1.866-.355.794-1.003 1.232-.64.438-1.511.438m-.253-.978q.627 0 1.072-.305a1.94 1.94 0 0 0 .679-.882q.242-.578.242-1.371v-.013q0-.8-.242-1.371-.234-.571-.679-.876-.445-.31-1.072-.311-.623 0-1.073.311a1.97 1.97 0 0 0-.692.883q-.241.57-.241 1.364v.013q0 .787.241 1.365.241.572.692.882t1.073.311m6.715.978q-.647 0-1.168-.248a2 2 0 0 1-.818-.705q-.299-.456-.299-1.079v-.012q0-.915.648-1.429.653-.52 1.847-.59l2.513-.152v.882l-2.38.152q-.78.045-1.142.324-.356.28-.356.787v.013q0 .52.394.812.393.286.99.286a2.2 2.2 0 0 0 1.003-.222q.438-.228.685-.616.255-.387.254-.876v-2.133q0-.634-.387-.964-.381-.337-1.149-.337-.615 0-1.009.222a1.07 1.07 0 0 0-.527.616l-.006.019h-1.105l.006-.038q.09-.54.445-.939.362-.407.933-.629a3.5 3.5 0 0 1 1.301-.228q.839 0 1.416.273.584.273.882.787.305.507.305 1.218V145h-1.105v-1.009h-.101q-.216.362-.527.615-.305.255-.692.388a2.7 2.7 0 0 1-.851.127m8.094 0q-.959 0-1.664-.438a2.9 2.9 0 0 1-1.091-1.238q-.388-.8-.388-1.885v-.013q0-1.067.381-1.854a2.9 2.9 0 0 1 1.092-1.218q.705-.438 1.663-.438.832 0 1.435.292.603.291.965.787.361.489.463 1.098l.006.038h-1.098l-.006-.019a1.57 1.57 0 0 0-.578-.863q-.45-.356-1.187-.356-.615 0-1.066.311a2 2 0 0 0-.698.883q-.242.565-.242 1.339v.013q0 .786.248 1.371.248.577.698.895a1.8 1.8 0 0 0 1.06.317q.692 0 1.13-.298.438-.299.629-.87l.012-.038 1.092-.006-.013.069a2.9 2.9 0 0 1-.495 1.099q-.355.476-.939.749-.585.273-1.409.273m4.538-.121v-9.56h1.105V145zm4.31 0-2.672-3.352.812-.704 3.25 4.056zm-3.345-2.463-.051-1.39h.292l2.958-2.99h1.34l-3.25 3.136-.267.26zm6.494-.584-.108-6.119h1.269l-.108 6.119zm.533 3.161a.86.86 0 0 1-.635-.247.86.86 0 0 1-.247-.635q0-.393.247-.641a.86.86 0 0 1 .635-.248q.387 0 .628.248a.87.87 0 0 1 .248.641.86.86 0 0 1-.248.635.84.84 0 0 1-.628.247m7.42-3.383v-1.016h2.59q.984 0 1.524-.507.539-.514.539-1.416v-.013q0-.908-.539-1.415-.54-.508-1.524-.508h-2.59v-1.016h2.882q.863 0 1.524.368.66.369 1.034 1.029.381.66.381 1.53v.012q0 .87-.381 1.536a2.67 2.67 0 0 1-1.034 1.041q-.66.375-1.524.375zm-.571 3.269v-9.16h1.143V145zm8.188 0v-9.56h1.105V145zm6.018.121q-.977 0-1.682-.432a2.86 2.86 0 0 1-1.079-1.219q-.375-.794-.375-1.866v-.006q0-1.06.375-1.86.38-.8 1.073-1.251.691-.45 1.618-.45.933 0 1.6.431.672.432 1.028 1.206.362.768.362 1.79v.432h-5.484v-.882h4.919l-.546.806v-.438q0-.807-.241-1.327t-.667-.774a1.83 1.83 0 0 0-.977-.26q-.552 0-.99.272a1.84 1.84 0 0 0-.686.794q-.254.527-.254 1.295v.438q0 .73.248 1.25.248.515.704.794.458.273 1.079.273.464 0 .807-.127.342-.127.565-.324.222-.196.311-.4l.025-.057h1.104l-.012.051q-.09.35-.318.679-.222.324-.577.59a3 3 0 0 1-.845.419 3.6 3.6 0 0 1-1.085.153m6.513 0q-.648 0-1.168-.248a2 2 0 0 1-.819-.705q-.298-.456-.298-1.079v-.012q0-.915.647-1.429.654-.52 1.847-.59l2.514-.152v.882l-2.38.152q-.781.045-1.143.324-.356.28-.356.787v.013q0 .52.394.812.393.286.99.286.565 0 1.003-.222a1.76 1.76 0 0 0 .686-.616q.254-.387.254-.876v-2.133q0-.634-.388-.964-.38-.337-1.149-.337-.615 0-1.009.222a1.08 1.08 0 0 0-.527.616l-.006.019h-1.104l.006-.038q.088-.54.444-.939.361-.407.933-.629a3.5 3.5 0 0 1 1.302-.228q.837 0 1.415.273.584.273.882.787.305.507.305 1.218V145h-1.104v-1.009h-.102a2.3 2.3 0 0 1-1.219 1.003 2.7 2.7 0 0 1-.85.127m7.642 0q-.762 0-1.345-.229a2.34 2.34 0 0 1-.94-.654 1.8 1.8 0 0 1-.412-.984h1.129q.14.425.546.686.407.26 1.06.26.464 0 .813-.133.356-.14.558-.375a.83.83 0 0 0 .204-.552v-.013a.75.75 0 0 0-.28-.59q-.28-.247-.914-.4l-1.06-.254q-.959-.228-1.409-.666-.45-.444-.451-1.181v-.006q0-.572.33-1.022.337-.452.914-.711a3.1 3.1 0 0 1 1.302-.26q.717 0 1.269.228.56.222.895.635.343.413.419.971h-1.085a1.12 1.12 0 0 0-.495-.66q-.387-.254-1.01-.254-.406 0-.723.133a1.2 1.2 0 0 0-.502.356.83.83 0 0 0-.184.533v.013a.72.72 0 0 0 .273.577q.273.23.876.375l1.054.254q.965.234 1.434.673.476.438.476 1.174v.013q0 .61-.361 1.079a2.4 2.4 0 0 1-.984.723 3.55 3.55 0 0 1-1.397.261m7.249 0q-.977 0-1.682-.432a2.86 2.86 0 0 1-1.079-1.219q-.375-.794-.374-1.866v-.006q0-1.06.374-1.86.381-.8 1.073-1.251t1.619-.45q.933 0 1.599.431.673.432 1.028 1.206.362.768.362 1.79v.432h-5.484v-.882h4.919l-.546.806v-.438q0-.807-.241-1.327-.242-.52-.666-.774a1.83 1.83 0 0 0-.978-.26q-.552 0-.99.272-.431.267-.686.794-.254.527-.254 1.295v.438q0 .73.248 1.25.248.515.705.794.456.273 1.079.273.463 0 .806-.127t.565-.324.311-.4l.025-.057h1.105l-.013.051a2.1 2.1 0 0 1-.317.679 2.5 2.5 0 0 1-.578.59 3 3 0 0 1-.844.419 3.6 3.6 0 0 1-1.086.153m10.639 0q-.761 0-1.346-.229a2.35 2.35 0 0 1-.939-.654 1.8 1.8 0 0 1-.413-.984h1.13q.14.425.546.686.406.26 1.06.26.464 0 .813-.133.356-.14.558-.375a.83.83 0 0 0 .203-.552v-.013a.75.75 0 0 0-.279-.59q-.28-.247-.914-.4l-1.06-.254q-.959-.228-1.409-.666-.451-.444-.451-1.181v-.006q0-.572.33-1.022.336-.452.914-.711.578-.26 1.301-.26.718 0 1.27.228.559.222.895.635.342.413.419.971h-1.086a1.1 1.1 0 0 0-.495-.66q-.387-.254-1.009-.254-.406 0-.724.133a1.2 1.2 0 0 0-.501.356.82.82 0 0 0-.184.533v.013a.72.72 0 0 0 .273.577q.273.23.876.375l1.054.254q.965.234 1.434.673.476.438.476 1.174v.013q0 .61-.362 1.079-.362.464-.984.723-.615.261-1.396.261m4.481-.121v-6.843h1.105V145zm.559-8.163a.75.75 0 0 1-.54-.222.75.75 0 0 1-.222-.54q0-.317.222-.539a.75.75 0 0 1 .54-.223q.317 0 .54.223a.73.73 0 0 1 .222.539.75.75 0 0 1-.222.54.74.74 0 0 1-.54.222m5.446 10.575q-.825 0-1.441-.235-.615-.228-.983-.654a1.9 1.9 0 0 1-.451-.977l.013-.006h1.142l.006.006q.09.387.534.635.444.254 1.18.254.92 0 1.435-.419.52-.413.52-1.168v-1.384h-.101a2.33 2.33 0 0 1-1.27 1.047 2.8 2.8 0 0 1-.876.134q-.882 0-1.529-.419a2.8 2.8 0 0 1-.991-1.168q-.349-.744-.349-1.702v-.012q0-.959.349-1.701.356-.75 1.003-1.175.648-.43 1.543-.431.482 0 .888.152t.718.432q.317.279.527.666h.076v-1.13h1.104v6.748q0 .762-.374 1.326-.369.565-1.054.87-.686.31-1.619.311m-.05-3.745q.635 0 1.085-.292.457-.299.698-.819.248-.52.248-1.2v-.012q0-.68-.248-1.206a1.9 1.9 0 0 0-.698-.826q-.45-.298-1.085-.298t-1.08.298a1.9 1.9 0 0 0-.672.826 3 3 0 0 0-.229 1.206v.012q0 .68.229 1.2.234.52.672.819.445.292 1.08.292m5.154 1.333v-6.843h1.104v1.029h.102a1.94 1.94 0 0 1 .749-.845q.488-.304 1.244-.304 1.155 0 1.771.66.622.654.622 1.872V145h-1.104v-4.164q0-.927-.394-1.371-.387-.451-1.206-.451-.546 0-.946.235a1.6 1.6 0 0 0-.622.667q-.216.43-.216 1.034V145zm11.273 0v-6.843h1.105V145zm.559-8.163a.75.75 0 0 1-.54-.222.75.75 0 0 1-.222-.54q0-.317.222-.539a.75.75 0 0 1 .54-.223q.317 0 .539.223a.73.73 0 0 1 .223.539.75.75 0 0 1-.223.54.73.73 0 0 1-.539.222m2.628 8.163v-6.843h1.104v1.029h.102a1.94 1.94 0 0 1 .749-.845q.489-.304 1.244-.304 1.155 0 1.771.66.622.654.622 1.872V145h-1.104v-4.164q0-.927-.394-1.371-.387-.451-1.206-.451-.546 0-.946.235a1.6 1.6 0 0 0-.622.667q-.216.43-.216 1.034V145zm13.679.051q-1.053 0-1.53-.426-.47-.425-.47-1.402v-4.152h-1.079v-.914h1.079v-1.771h1.143v1.771h1.498v.914h-1.498v3.872q0 .603.229.87.228.26.761.26.147 0 .248-.006.108-.006.26-.019v.939a9 9 0 0 1-.317.045 3 3 0 0 1-.324.019m5.015.07q-.972 0-1.682-.426a2.87 2.87 0 0 1-1.092-1.225q-.381-.793-.381-1.885v-.013q0-1.098.381-1.891a2.83 2.83 0 0 1 1.092-1.219q.71-.425 1.682-.425.977 0 1.682.425t1.085 1.219q.387.793.387 1.891v.013q0 1.092-.387 1.885a2.83 2.83 0 0 1-1.085 1.225q-.705.426-1.682.426m0-.978q.647 0 1.098-.305.45-.304.685-.876.242-.57.242-1.377v-.013q0-.812-.242-1.384-.234-.57-.685-.869-.451-.305-1.098-.305-.648 0-1.098.305-.452.299-.692.869-.235.572-.235 1.384v.013q0 .806.235 1.377.24.572.692.876.45.305 1.098.305m11.324.978q-.958 0-1.663-.438a2.9 2.9 0 0 1-1.092-1.238q-.387-.8-.387-1.885v-.013q0-1.067.381-1.854a2.9 2.9 0 0 1 1.091-1.218q.705-.438 1.664-.438.831 0 1.434.292a2.53 2.53 0 0 1 1.428 1.885l.007.038h-1.098l-.007-.019a1.56 1.56 0 0 0-.577-.863q-.452-.356-1.187-.356-.616 0-1.067.311-.45.312-.698.883-.241.565-.241 1.339v.013q0 .786.247 1.371.248.577.698.895a1.8 1.8 0 0 0 1.061.317q.691 0 1.129-.298.438-.299.629-.87l.013-.038 1.091-.006-.012.069a2.9 2.9 0 0 1-.495 1.099 2.44 2.44 0 0 1-.94.749q-.584.273-1.409.273m7.287 0q-.97 0-1.682-.426a2.87 2.87 0 0 1-1.092-1.225q-.381-.793-.381-1.885v-.013q0-1.098.381-1.891a2.83 2.83 0 0 1 1.092-1.219q.711-.425 1.682-.425.977 0 1.682.425t1.086 1.219q.387.793.387 1.891v.013q0 1.092-.387 1.885a2.83 2.83 0 0 1-1.086 1.225q-.705.426-1.682.426m0-.978q.648 0 1.098-.305.451-.304.686-.876.24-.57.241-1.377v-.013q0-.812-.241-1.384-.235-.57-.686-.869-.45-.305-1.098-.305t-1.098.305q-.451.299-.692.869-.235.572-.235 1.384v.013q0 .806.235 1.377.241.572.692.876t1.098.305m4.869.857v-6.843h1.104v1.029h.102a1.94 1.94 0 0 1 .749-.845q.489-.304 1.244-.304 1.155 0 1.771.66.622.654.622 1.872V145h-1.105v-4.164q0-.927-.393-1.371-.387-.451-1.206-.451-.546 0-.946.235a1.6 1.6 0 0 0-.622.667q-.216.43-.216 1.034V145zm10.023.051q-1.055 0-1.53-.426-.47-.425-.47-1.402v-4.152h-1.079v-.914h1.079v-1.771h1.143v1.771h1.498v.914h-1.498v3.872q0 .603.228.87.229.26.762.26.146 0 .247-.006.108-.006.261-.019v.939a9 9 0 0 1-.318.045 3 3 0 0 1-.323.019m2.316-.051v-6.843h1.105V145zm.559-8.163a.75.75 0 0 1-.539-.222.75.75 0 0 1-.223-.54q0-.317.223-.539a.75.75 0 0 1 .539-.223q.318 0 .54.223a.73.73 0 0 1 .222.539.75.75 0 0 1-.222.54.74.74 0 0 1-.54.222m2.628 8.163v-6.843h1.104v1.029h.102q.26-.546.749-.845.49-.304 1.244-.304 1.155 0 1.771.66.622.654.622 1.872V145h-1.104v-4.164q0-.927-.394-1.371-.387-.451-1.206-.451-.546 0-.946.235a1.6 1.6 0 0 0-.622.667q-.216.43-.216 1.034V145zm9.883.121q-.774 0-1.301-.292a1.9 1.9 0 0 1-.793-.864q-.261-.571-.261-1.377v-4.431h1.105v4.164q0 .921.355 1.371.362.451 1.181.451.603 0 1.016-.235.412-.235.622-.666.209-.438.209-1.035v-4.05h1.105V145h-1.105v-1.022h-.101q-.255.546-.769.844-.507.299-1.263.299m8.094 0q-.978 0-1.683-.432a2.86 2.86 0 0 1-1.079-1.219q-.374-.794-.374-1.866v-.006q0-1.06.374-1.86.381-.8 1.073-1.251t1.619-.45q.933 0 1.599.431.673.432 1.029 1.206.361.768.361 1.79v.432h-5.484v-.882h4.92l-.546.806v-.438q0-.807-.242-1.327-.24-.52-.666-.774a1.83 1.83 0 0 0-.978-.26q-.552 0-.99.272-.432.267-.685.794-.255.527-.254 1.295v.438q0 .73.247 1.25.248.515.705.794.457.273 1.079.273.464 0 .806-.127.343-.127.565-.324.222-.196.311-.4l.025-.057h1.105l-.013.051a2.1 2.1 0 0 1-.317.679 2.5 2.5 0 0 1-.578.59 3 3 0 0 1-.844.419 3.6 3.6 0 0 1-1.085.153"/><g filter="url(#d)"><rect width="101.333" height="32" x="70" y="181" fill="#fff" rx="6"/><g clip-path="url(#e)"><path fill="#42434d" d="M112.672 197.01c-.16-4.124 3.527-7.936 7.741-7.985 2.148-.18 4.237.637 5.863 1.97a37 37 0 0 1-2.07 2.093c-1.431-.852-3.154-1.501-4.826-.924-2.697.752-4.331 3.872-3.333 6.458.827 2.7 4.179 4.182 6.806 3.047 1.36-.477 2.257-1.707 2.651-3.028-1.559-.03-3.119-.011-4.678-.054-.003-.908-.007-1.814-.003-2.722 2.599-.004 5.203-.012 7.807.011.16 2.227-.175 4.61-1.653 6.397-2.023 2.551-5.761 3.3-8.802 2.299-3.227-1.039-5.574-4.224-5.503-7.562"/></g></g><g filter="url(#f)"><rect width="101.333" height="32" x="179.333" y="181" fill="#fff" rx="6"/><g clip-path="url(#g)"><g clip-path="url(#h)"><path fill="#42434d" d="M238 197.049a8 8 0 1 0-9.25 7.902v-5.59h-2.031v-2.313h2.031v-1.761c0-2.005 1.195-3.113 3.022-3.113.875 0 1.791.157 1.791.157v1.968h-1.01c-.994 0-1.304.617-1.304 1.25v1.5h2.219l-.355 2.313h-1.864v5.59a8 8 0 0 0 6.751-7.903"/></g></g></g><g filter="url(#i)"><rect width="101.333" height="32" x="288.667" y="181" fill="#fff" rx="6"/><g clip-path="url(#j)"><path fill="#42434d" d="M339.333 189.198a8 8 0 0 0-8 8 8 8 0 0 0 5.47 7.59c.4.075.547-.172.547-.385 0-.19-.007-.693-.01-1.36-2.226.483-2.695-1.073-2.695-1.073-.364-.923-.89-1.17-.89-1.17-.725-.496.056-.486.056-.486.803.056 1.225.824 1.225.824.714 1.223 1.873.87 2.33.665.072-.517.278-.87.507-1.07-1.777-.2-3.644-.888-3.644-3.953 0-.873.31-1.587.823-2.147-.09-.202-.36-1.015.07-2.117 0 0 .67-.215 2.2.82a7.7 7.7 0 0 1 2-.27 7.7 7.7 0 0 1 2 .27c1.52-1.035 2.19-.82 2.19-.82.43 1.102.16 1.915.08 2.117a3.1 3.1 0 0 1 .82 2.147c0 3.073-1.87 3.75-3.65 3.947.28.24.54.73.54 1.48 0 1.07-.01 1.93-.01 2.19 0 .21.14.46.55.38a7.97 7.97 0 0 0 5.491-7.579 8 8 0 0 0-8-8"/></g></g><path stroke="#000" stroke-opacity=".08" d="M70 246h137.5"/><path fill="#5e5f6e" d="M230.507 247.62q0 .806-.234 1.456a3.3 3.3 0 0 1-.663 1.118 2.9 2.9 0 0 1-1.001.728q-.585.247-1.274.247t-1.274-.247a3 3 0 0 1-1.014-.728 3.4 3.4 0 0 1-.65-1.118 4.3 4.3 0 0 1-.234-1.456q0-.793.234-1.443.234-.663.65-1.131.429-.468 1.014-.715.585-.26 1.274-.26t1.274.26q.585.247 1.001.715.429.468.663 1.131.234.65.234 1.443m-1.261 0q0-1.144-.52-1.807-.507-.676-1.391-.676-.883 0-1.404.676-.507.663-.507 1.807t.507 1.82q.52.663 1.404.663t1.391-.663q.52-.676.52-1.82m5.458-3.523q.156 0 .351.026.208.013.403.052.195.026.351.065.17.026.247.052l-.208 1.053a3.4 3.4 0 0 0-.481-.117 3.7 3.7 0 0 0-.845-.078q-.338 0-.676.078-.326.065-.429.091V251h-1.209v-6.474a8 8 0 0 1 1.066-.286 6.6 6.6 0 0 1 1.43-.143"/><path stroke="#000" stroke-opacity=".08" d="M252.5 246H390"/><path fill="#212126" d="M71.149 293v-9.16h5.814v1.232h-4.392v2.672h4.157v1.181h-4.157v2.844h4.392V293zm7.712 0v-6.894h1.378v1.061h.108q.228-.571.71-.883.49-.31 1.169-.311.47 0 .844.152.375.153.64.432.275.273.426.648h.108q.171-.375.483-.648.31-.279.723-.432.42-.152.889-.152.698 0 1.193.273.495.267.756.775.26.507.26 1.225V293H87.17v-4.424q0-.711-.33-1.067-.324-.355-.996-.355a1.44 1.44 0 0 0-.768.203 1.4 1.4 0 0 0-.508.533q-.178.33-.178.749V293h-1.377v-4.564q0-.591-.362-.933-.356-.35-.965-.349-.413 0-.743.216a1.53 1.53 0 0 0-.514.584q-.19.362-.19.812V293zm13.508.114q-.654 0-1.174-.247a2 2 0 0 1-.813-.718 1.96 1.96 0 0 1-.298-1.085v-.013q0-.927.666-1.447.674-.526 1.905-.603l2.545-.152v.971l-2.355.152q-.711.044-1.047.305-.337.254-.337.717v.013q0 .47.362.743.363.266.914.266.515 0 .914-.203.407-.21.635-.559.23-.355.229-.799v-2.171q0-.572-.356-.87-.35-.305-1.04-.305-.578 0-.947.203a1 1 0 0 0-.482.572l-.013.019h-1.326l.006-.045q.083-.57.45-.99.375-.425.978-.66.61-.235 1.39-.235.87 0 1.473.279.61.273.92.794.318.514.318 1.238V293h-1.371v-.978h-.102a2.2 2.2 0 0 1-.508.597 2.2 2.2 0 0 1-.692.368q-.388.127-.844.127m5.478-.114v-6.894h1.384V293zm.698-8.125a.83.83 0 0 1-.609-.254.83.83 0 0 1-.254-.609.8.8 0 0 1 .254-.603.83.83 0 0 1 .61-.254q.355 0 .609.254a.8.8 0 0 1 .254.603.83.83 0 0 1-.254.609.83.83 0 0 1-.61.254m2.749 8.125v-9.598h1.377V293zm8.861.114a2.7 2.7 0 0 1-1.174-.247 2 2 0 0 1-.813-.718 1.97 1.97 0 0 1-.298-1.085v-.013q0-.927.667-1.447.672-.526 1.904-.603l2.545-.152v.971l-2.355.152q-.711.044-1.047.305-.336.254-.336.717v.013q0 .47.361.743.363.266.914.266a2 2 0 0 0 .915-.203q.406-.21.634-.559a1.44 1.44 0 0 0 .229-.799v-2.171q0-.572-.356-.87-.348-.305-1.041-.305-.577 0-.946.203a1 1 0 0 0-.482.572l-.013.019h-1.326l.006-.045a1.87 1.87 0 0 1 .451-.99 2.5 2.5 0 0 1 .977-.66 3.8 3.8 0 0 1 1.39-.235q.87 0 1.473.279.61.273.92.794.318.514.318 1.238V293h-1.371v-.978h-.102a2.1 2.1 0 0 1-.508.597 2.2 2.2 0 0 1-.691.368q-.388.127-.845.127m7.973 0q-.863 0-1.511-.431-.64-.438-.996-1.238-.35-.8-.35-1.885v-.013q0-1.092.35-1.892.348-.8.99-1.231.64-.438 1.517-.438.71 0 1.276.33.571.324.844.882h.102v-3.796h1.383V293h-1.383v-1.085h-.102a2.2 2.2 0 0 1-.844.882q-.546.317-1.276.317m.393-1.18q.571 0 .991-.286.419-.285.641-.819.222-.54.222-1.269v-.013q0-.736-.229-1.27a1.8 1.8 0 0 0-.641-.819 1.66 1.66 0 0 0-.984-.291q-.57 0-.99.291a1.8 1.8 0 0 0-.635.819q-.215.528-.215 1.27v.013q0 .736.215 1.269.223.534.635.819.42.286.99.286m7.77 1.18q-.863 0-1.511-.431-.64-.438-.996-1.238-.35-.8-.349-1.885v-.013q0-1.092.349-1.892t.99-1.231q.64-.438 1.517-.438.71 0 1.276.33.571.324.844.882h.102v-3.796h1.383V293h-1.383v-1.085h-.102a2.2 2.2 0 0 1-.844.882q-.546.317-1.276.317m.394-1.18q.57 0 .99-.286.419-.285.641-.819.222-.54.222-1.269v-.013q0-.736-.228-1.27a1.8 1.8 0 0 0-.642-.819 1.66 1.66 0 0 0-.983-.291q-.571 0-.991.291a1.8 1.8 0 0 0-.634.819q-.216.528-.216 1.27v.013q0 .736.216 1.269.222.534.634.819.42.286.991.286M131.94 293v-6.894h1.378v1.041h.108q.184-.552.647-.856.47-.305 1.156-.305a3 3 0 0 1 .603.063v1.27a3.4 3.4 0 0 0-.743-.076q-.526 0-.927.203-.393.203-.622.571a1.6 1.6 0 0 0-.222.863V293zm7.935.133q-1.009 0-1.733-.431a2.9 2.9 0 0 1-1.117-1.238q-.387-.8-.387-1.892v-.006q0-1.079.387-1.885.393-.807 1.104-1.257.718-.451 1.676-.451.965 0 1.657.432.698.432 1.073 1.212.374.775.374 1.816v.482h-5.573v-.984h4.888l-.661.914v-.552q0-.736-.228-1.219-.222-.489-.616-.73a1.7 1.7 0 0 0-.907-.241q-.514 0-.921.254a1.7 1.7 0 0 0-.635.736q-.228.489-.228 1.2v.552q0 .68.228 1.162.23.482.648.736.425.254 1.003.254.444 0 .761-.121.324-.126.527-.311.21-.184.286-.361l.025-.051h1.333l-.012.057q-.09.342-.311.686a2.5 2.5 0 0 1-.591.615 3 3 0 0 1-.876.451q-.507.171-1.174.171m7.179 0q-.832 0-1.447-.241-.616-.247-.978-.679a1.9 1.9 0 0 1-.425-1.016v-.012h1.384v.012q.133.387.508.629.373.24.99.241.425 0 .743-.121.323-.12.507-.336a.74.74 0 0 0 .185-.495v-.013a.69.69 0 0 0-.261-.546q-.26-.222-.857-.362l-1.104-.254q-.972-.222-1.441-.679-.463-.463-.463-1.219v-.006q0-.603.342-1.066.343-.47.946-.73.61-.267 1.39-.267.787 0 1.371.248.591.241.933.673.343.424.407.99v.006h-1.321v-.013q-.094-.361-.457-.603-.356-.24-.939-.241-.375 0-.667.121a1.1 1.1 0 0 0-.463.324.74.74 0 0 0-.165.482v.013q0 .323.254.533t.831.349l1.099.248q.99.234 1.472.679.489.444.489 1.193v.013q0 .634-.375 1.123-.374.483-1.021.756-.642.266-1.467.266m6.881 0q-.832 0-1.447-.241-.616-.247-.978-.679a1.9 1.9 0 0 1-.425-1.016v-.012h1.384v.012q.133.387.508.629.374.24.99.241.425 0 .742-.121.325-.12.508-.336a.74.74 0 0 0 .184-.495v-.013a.69.69 0 0 0-.26-.546q-.26-.222-.857-.362l-1.104-.254q-.972-.222-1.441-.679-.464-.463-.464-1.219v-.006q0-.603.343-1.066.343-.47.946-.73.61-.267 1.39-.267.787 0 1.371.248.591.241.933.673.343.424.407.99v.006h-1.321v-.013q-.095-.361-.457-.603-.356-.24-.939-.241-.375 0-.667.121a1.1 1.1 0 0 0-.463.324.74.74 0 0 0-.165.482v.013a.66.66 0 0 0 .254.533q.254.21.831.349l1.098.248q.99.234 1.473.679.489.444.489 1.193v.013q0 .634-.375 1.123-.374.483-1.022.756-.64.266-1.466.266"/><g filter="url(#k)"><rect width="320" height="32" x="70" y="305" fill="#fff" rx="6"/></g><g filter="url(#l)"><rect width="320" height="32" x="70" y="369" fill="#2f3037" rx="6"/><rect width="320" height="32" x="70" y="369" fill="url(#m)" fill-opacity=".1" rx="6"/><path fill="#fff" d="M198.083 390.195q-1.014 0-1.82-.312a3.6 3.6 0 0 1-1.365-.91 4.15 4.15 0 0 1-.858-1.482q-.299-.871-.299-2.002t.338-2.002q.35-.871.949-1.469a3.9 3.9 0 0 1 1.404-.923 4.8 4.8 0 0 1 1.729-.312q.56 0 1.014.091.455.078.793.182t.559.221q.22.117.312.169l-.481 1.339q-.312-.195-.897-.364a4.1 4.1 0 0 0-1.248-.182q-.585 0-1.092.208-.507.195-.884.598a2.9 2.9 0 0 0-.572 1.014q-.208.611-.208 1.417 0 .715.156 1.313.17.598.507 1.04.337.429.858.676.52.234 1.248.234.871 0 1.417-.169.546-.182.845-.338l.442 1.339a2.2 2.2 0 0 1-.429.208 7 7 0 0 1-.624.208 6 6 0 0 1-.819.143 7 7 0 0 1-.975.065m10.192-3.601a4.4 4.4 0 0 1-.234 1.469 3.3 3.3 0 0 1-.663 1.131 3 3 0 0 1-1.04.728q-.598.26-1.326.26t-1.326-.26a3 3 0 0 1-1.027-.728 3.4 3.4 0 0 1-.676-1.131 4.4 4.4 0 0 1-.234-1.469q0-.806.234-1.456.247-.663.676-1.131.442-.468 1.04-.715.598-.26 1.313-.26t1.313.26q.61.247 1.04.715.429.468.663 1.131.247.65.247 1.456m-1.612 0q0-1.014-.442-1.599-.429-.598-1.209-.598t-1.222.598q-.429.585-.429 1.599 0 1.027.429 1.625.442.598 1.222.598t1.209-.598q.442-.598.442-1.625m3.233-3.172q.454-.13 1.183-.247a10 10 0 0 1 1.612-.117q.831 0 1.391.234.558.221.884.637.338.403.468.988.143.572.143 1.261V390h-1.573v-3.575a4.6 4.6 0 0 0-.078-.923 1.5 1.5 0 0 0-.234-.624.85.85 0 0 0-.442-.351 1.7 1.7 0 0 0-.676-.117q-.3 0-.624.039-.325.04-.481.065V390h-1.573zm7.526-2.015 1.573-.26v2.054h2.418v1.313h-2.418v2.769q0 .819.26 1.17t.884.351q.429 0 .754-.091.338-.091.533-.169l.26 1.248q-.273.117-.715.234-.442.13-1.04.13-.728 0-1.222-.195a1.8 1.8 0 0 1-.767-.559 2.3 2.3 0 0 1-.403-.897 5.7 5.7 0 0 1-.117-1.209zM224.52 390h-1.573v-6.799h1.573zm.169-8.788q0 .442-.286.702a.97.97 0 0 1-.676.26 1 1 0 0 1-.689-.26q-.286-.26-.286-.702 0-.455.286-.715.285-.26.689-.26.39 0 .676.26t.286.715m1.837 2.21a10.5 10.5 0 0 1 2.795-.364q.833 0 1.391.234.56.221.884.637.339.403.468.988.144.572.143 1.261V390h-1.573v-3.575a4.6 4.6 0 0 0-.078-.923 1.46 1.46 0 0 0-.234-.624.85.85 0 0 0-.442-.351 1.7 1.7 0 0 0-.676-.117 5 5 0 0 0-.624.039 13 13 0 0 0-.481.065V390h-1.573zm13.182 6.37q-.455.117-1.183.234a9 9 0 0 1-1.599.13q-.819 0-1.378-.234a2.26 2.26 0 0 1-.884-.65 2.6 2.6 0 0 1-.468-.988 5.4 5.4 0 0 1-.143-1.274v-3.809h1.573v3.562q0 1.092.312 1.56.325.468 1.118.468.286 0 .598-.026.325-.026.481-.065v-5.499h1.573zm1.625-3.159q0-.897.26-1.573.273-.676.715-1.118a2.8 2.8 0 0 1 1.014-.676 3.1 3.1 0 0 1 1.17-.234q1.404 0 2.184.871.793.871.793 2.6 0 .13-.013.299 0 .156-.013.286h-4.485q.065.82.572 1.274.52.442 1.495.442.572 0 1.04-.104.481-.104.754-.221l.208 1.287a3 3 0 0 1-.364.143 5 5 0 0 1-.52.117 6 6 0 0 1-1.313.143q-.897 0-1.56-.26a3 3 0 0 1-1.092-.741 3.1 3.1 0 0 1-.637-1.118 4.6 4.6 0 0 1-.208-1.417m4.563-.702q0-.325-.091-.611a1.4 1.4 0 0 0-.273-.507 1.1 1.1 0 0 0-.429-.338 1.3 1.3 0 0 0-.598-.13q-.364 0-.637.143a1.5 1.5 0 0 0-.468.351 1.7 1.7 0 0 0-.286.507 2.8 2.8 0 0 0-.143.585z"/><g clip-path="url(#n)" opacity=".6"><path fill="#fff" stroke="#fff" stroke-linecap="round" stroke-linejoin="round" stroke-width="1.5" d="m264.25 385-3.5-2.25v4.5z"/></g></g></g><path fill="#747686" d="M133.89 463v-9.16h3.142q1.359 0 2.323.546a3.6 3.6 0 0 1 1.486 1.562q.514 1.021.514 2.463v.012q0 1.441-.514 2.47a3.63 3.63 0 0 1-1.479 1.567q-.965.54-2.33.54zm1.143-1.028h1.923q1.022 0 1.746-.419a2.73 2.73 0 0 0 1.104-1.213q.381-.793.381-1.904v-.013q0-1.116-.387-1.91a2.7 2.7 0 0 0-1.105-1.219q-.723-.425-1.739-.425h-1.923zm10.975 1.149q-.972 0-1.682-.426a2.87 2.87 0 0 1-1.092-1.225q-.381-.793-.381-1.885v-.013q0-1.098.381-1.891a2.83 2.83 0 0 1 1.092-1.219q.71-.425 1.682-.425.977 0 1.682.425.704.425 1.085 1.219.388.793.388 1.891v.013q0 1.092-.388 1.885a2.83 2.83 0 0 1-1.085 1.225q-.704.426-1.682.426m0-.978q.647 0 1.098-.305.45-.304.686-.876.24-.57.241-1.377v-.013q0-.812-.241-1.384-.236-.57-.686-.869-.45-.305-1.098-.305t-1.098.305q-.451.299-.692.869-.235.572-.235 1.384v.013q0 .806.235 1.377.241.572.692.876.45.306 1.098.305m4.868.857v-6.843h1.105v1.029h.102a1.94 1.94 0 0 1 .749-.845q.488-.304 1.244-.304 1.155 0 1.771.66.621.654.622 1.872V463h-1.105v-4.164q0-.927-.393-1.371-.387-.451-1.206-.451-.547 0-.946.235a1.6 1.6 0 0 0-.622.667q-.216.43-.216 1.034V463zm7.586-5.548.552-3.612h1.263l-.996 3.612zm6.297 5.599q-1.054 0-1.53-.426-.47-.425-.47-1.402v-4.152h-1.079v-.914h1.079v-1.771h1.143v1.771h1.498v.914h-1.498v3.872q0 .603.228.87.23.26.762.26.146 0 .248-.006l.26-.019v.939a9 9 0 0 1-.317.045 3 3 0 0 1-.324.019m6.011-.051v-9.56h1.105v3.746h.101q.26-.546.749-.845.49-.304 1.244-.304.768 0 1.302.298.533.292.812.857.279.566.279 1.377V463h-1.104v-4.164q0-.927-.394-1.371-.387-.451-1.206-.451-.546 0-.946.235a1.6 1.6 0 0 0-.622.667q-.216.43-.215 1.034V463zm9.471.121q-.648 0-1.168-.248a2 2 0 0 1-.819-.705q-.298-.456-.298-1.079v-.012q0-.915.647-1.429.654-.52 1.847-.59l2.514-.152v.882l-2.381.152q-.78.045-1.142.324-.356.28-.356.787v.013q0 .52.394.812.393.286.99.286.565 0 1.003-.222a1.76 1.76 0 0 0 .686-.616q.254-.387.254-.876v-2.133q0-.634-.388-.964-.38-.337-1.149-.337-.615 0-1.009.222a1.08 1.08 0 0 0-.527.616l-.006.019h-1.104l.006-.038q.089-.54.444-.939.362-.407.933-.629a3.5 3.5 0 0 1 1.302-.228q.837 0 1.415.273.584.273.882.787.305.507.305 1.218V463h-1.104v-1.009h-.102a2.3 2.3 0 0 1-1.219 1.003 2.7 2.7 0 0 1-.85.127m6.976-.121-2.533-6.843h1.168l1.873 5.637h.101l1.873-5.637h1.168L188.334 463zm7.649.121q-.978 0-1.682-.432a2.86 2.86 0 0 1-1.08-1.219q-.374-.793-.374-1.866v-.006q0-1.06.374-1.86.381-.8 1.073-1.251t1.619-.45q.933 0 1.6.431.672.432 1.028 1.206.362.768.362 1.79v.432h-5.485v-.882h4.92l-.546.806v-.438q0-.807-.241-1.327t-.667-.774a1.83 1.83 0 0 0-.977-.26q-.553 0-.991.272a1.85 1.85 0 0 0-.685.794q-.254.527-.254 1.295v.438q0 .73.247 1.25.248.515.705.794.457.273 1.079.273.464 0 .806-.127.343-.127.565-.324.222-.196.311-.4l.026-.057h1.104l-.013.051a2.1 2.1 0 0 1-.317.679 2.5 2.5 0 0 1-.578.59 3 3 0 0 1-.844.419 3.6 3.6 0 0 1-1.085.153m10.169 0q-.648 0-1.168-.248a2 2 0 0 1-.819-.705q-.298-.456-.298-1.079v-.012q0-.915.647-1.429.654-.52 1.847-.59l2.514-.152v.882l-2.381.152q-.78.045-1.142.324-.356.28-.356.787v.013q0 .52.394.812.393.286.99.286.565 0 1.003-.222a1.76 1.76 0 0 0 .686-.616q.254-.387.254-.876v-2.133q0-.634-.388-.964-.381-.337-1.149-.337-.615 0-1.009.222a1.08 1.08 0 0 0-.527.616l-.006.019h-1.105l.007-.038q.089-.54.444-.939.362-.407.933-.629a3.5 3.5 0 0 1 1.302-.228q.837 0 1.415.273.584.273.882.787.305.507.305 1.218V463h-1.104v-1.009h-.102a2.3 2.3 0 0 1-1.219 1.003 2.7 2.7 0 0 1-.85.127m5.294-.121v-6.843h1.104v1.029h.102a1.94 1.94 0 0 1 .749-.845q.488-.304 1.244-.304 1.155 0 1.771.66.622.654.622 1.872V463h-1.105v-4.164q0-.927-.393-1.371-.387-.451-1.206-.451-.546 0-.946.235a1.6 1.6 0 0 0-.622.667q-.216.43-.216 1.034V463zm13.127.121q-.648 0-1.168-.248a2 2 0 0 1-.819-.705q-.299-.456-.299-1.079v-.012q0-.915.648-1.429.653-.52 1.847-.59l2.514-.152v.882l-2.381.152q-.78.045-1.142.324-.356.28-.356.787v.013q0 .52.394.812.393.286.99.286.565 0 1.003-.222a1.76 1.76 0 0 0 .686-.616q.253-.387.253-.876v-2.133q0-.634-.387-.964-.381-.337-1.149-.337-.616 0-1.009.222a1.08 1.08 0 0 0-.527.616l-.006.019h-1.105l.007-.038q.089-.54.444-.939.362-.407.933-.629a3.5 3.5 0 0 1 1.301-.228q.839 0 1.416.273.584.273.882.787.305.507.305 1.218V463h-1.105v-1.009h-.101q-.216.362-.527.615-.305.255-.692.388a2.7 2.7 0 0 1-.85.127m8.093 0q-.959 0-1.663-.438a2.9 2.9 0 0 1-1.092-1.238q-.387-.8-.387-1.885v-.013q0-1.067.381-1.854a2.9 2.9 0 0 1 1.091-1.218q.705-.438 1.663-.438.832 0 1.435.292a2.53 2.53 0 0 1 1.428 1.885l.007.038h-1.099l-.006-.019a1.57 1.57 0 0 0-.578-.863q-.45-.356-1.187-.356-.615 0-1.066.311-.45.312-.698.883-.241.564-.241 1.339v.013q0 .786.247 1.371.248.577.698.895a1.8 1.8 0 0 0 1.06.317q.692 0 1.13-.298t.629-.87l.012-.038 1.092-.006-.012.069a2.9 2.9 0 0 1-.496 1.099q-.356.476-.939.749-.584.273-1.409.273m7.274 0q-.958 0-1.663-.438a2.9 2.9 0 0 1-1.092-1.238q-.387-.8-.387-1.885v-.013q0-1.067.381-1.854a2.9 2.9 0 0 1 1.092-1.218q.705-.438 1.663-.438.831 0 1.434.292a2.53 2.53 0 0 1 1.429 1.885l.006.038h-1.098l-.006-.019a1.57 1.57 0 0 0-.578-.863q-.451-.356-1.187-.356-.616 0-1.067.311-.45.312-.698.883-.241.564-.241 1.339v.013q0 .786.248 1.371.247.577.698.895.45.317 1.06.317.692 0 1.13-.298t.628-.87l.013-.038 1.092-.006-.013.069a2.9 2.9 0 0 1-.495 1.099q-.355.476-.94.749-.584.273-1.409.273m7.287 0q-.97 0-1.682-.426a2.9 2.9 0 0 1-1.092-1.225q-.38-.793-.38-1.885v-.013q0-1.098.38-1.891a2.84 2.84 0 0 1 1.092-1.219q.711-.425 1.682-.425.978 0 1.682.425.705.425 1.086 1.219.387.793.387 1.891v.013q0 1.092-.387 1.885a2.83 2.83 0 0 1-1.086 1.225q-.704.426-1.682.426m0-.978q.648 0 1.098-.305.451-.304.686-.876.241-.57.241-1.377v-.013q0-.812-.241-1.384-.235-.57-.686-.869-.45-.305-1.098-.305-.647 0-1.098.305-.45.299-.692.869-.235.572-.235 1.384v.013q0 .806.235 1.377.242.572.692.876.452.306 1.098.305m7.161.978q-.775 0-1.302-.292a1.9 1.9 0 0 1-.793-.864q-.26-.571-.26-1.377v-4.431h1.104v4.164q0 .921.355 1.371.362.451 1.181.451.603 0 1.016-.235.412-.235.622-.666.209-.438.209-1.035v-4.05h1.105V463h-1.105v-1.022h-.101q-.255.546-.768.844-.508.299-1.263.299m5.3-.121v-6.843h1.104v1.029h.102a1.94 1.94 0 0 1 .749-.845q.488-.304 1.244-.304 1.155 0 1.771.66.622.654.622 1.872V463h-1.104v-4.164q0-.927-.394-1.371-.387-.451-1.206-.451-.546 0-.946.235a1.6 1.6 0 0 0-.622.667q-.216.43-.216 1.034V463zm10.023.051q-1.055 0-1.53-.426-.47-.425-.47-1.402v-4.152h-1.079v-.914h1.079v-1.771h1.143v1.771h1.498v.914h-1.498v3.872q0 .603.228.87.23.26.762.26.146 0 .248-.006l.26-.019v.939a9 9 0 0 1-.318.045 3 3 0 0 1-.323.019m3.758-2.882v-.584q0-.419.133-.755.133-.343.419-.629.285-.285.717-.546.369-.228.59-.444.23-.222.331-.482.1-.261.101-.597v-.013q0-.393-.19-.698a1.34 1.34 0 0 0-.54-.483 1.8 1.8 0 0 0-.825-.177q-.476 0-.832.177a1.4 1.4 0 0 0-.565.508q-.203.33-.234.781l-.013.006-1.079.007v-.013a2.8 2.8 0 0 1 .355-1.238q.318-.558.921-.888t1.491-.33q.8 0 1.403.304.61.298.946.819.342.514.343 1.168v.013q0 .742-.362 1.282a3 3 0 0 1-.965.901 3.5 3.5 0 0 0-.628.451 1.3 1.3 0 0 0-.318.463q-.089.248-.089.584v.413zm.641 2.945a.86.86 0 0 1-.635-.247.86.86 0 0 1-.248-.635q0-.393.248-.641a.86.86 0 0 1 .635-.248q.387 0 .628.248a.87.87 0 0 1 .248.641.86.86 0 0 1-.248.635.84.84 0 0 1-.628.247"/><path fill="#2f3037" d="M284.311 463.222q-1.035 0-1.803-.324-.768-.33-1.213-.914a2.53 2.53 0 0 1-.507-1.352l-.007-.082h1.403l.006.07q.045.413.324.717.286.305.762.476.482.171 1.098.171.578 0 1.028-.184.451-.183.705-.508.26-.323.26-.742v-.007q0-.526-.4-.876-.4-.348-1.307-.545l-1.003-.21q-1.39-.298-2.025-.946-.635-.654-.635-1.669v-.006q.006-.794.425-1.397a2.8 2.8 0 0 1 1.175-.939q.748-.337 1.72-.337.97 0 1.695.337.729.33 1.149.901.425.571.476 1.289l.006.082h-1.39l-.013-.082a1.3 1.3 0 0 0-.311-.667 1.64 1.64 0 0 0-.666-.457 2.4 2.4 0 0 0-.965-.165q-.534 0-.952.165-.42.159-.667.463a1.15 1.15 0 0 0-.241.737v.006q0 .508.387.851.394.336 1.276.526l1.003.223q1.441.304 2.069.914.635.61.635 1.625v.006q0 .876-.432 1.517-.425.635-1.212.984-.788.35-1.853.349m5.23-.222v-6.894h1.384V463zm.698-8.125a.83.83 0 0 1-.609-.254.83.83 0 0 1-.254-.609q0-.356.254-.603a.83.83 0 0 1 .609-.254.83.83 0 0 1 .61.254.8.8 0 0 1 .254.603.83.83 0 0 1-.254.609.84.84 0 0 1-.61.254m5.599 10.556q-.876 0-1.524-.241-.64-.241-1.015-.673a1.9 1.9 0 0 1-.457-1.003l.006-.013h1.397l.006.013q.089.356.501.584.414.228 1.105.229.85 0 1.327-.388.482-.387.482-1.085v-1.352h-.108a2.2 2.2 0 0 1-.52.635 2.2 2.2 0 0 1-.724.393 2.8 2.8 0 0 1-.882.134q-.876 0-1.524-.419a2.8 2.8 0 0 1-.99-1.168q-.343-.75-.343-1.721v-.012q0-.984.349-1.74.35-.76.997-1.187.648-.43 1.542-.431.483 0 .883.152.407.153.717.432.311.279.514.666h.083v-1.13h1.377v6.754q0 .781-.393 1.359-.388.577-1.105.895-.717.317-1.701.317m-.019-3.91q.583 0 1.003-.273.419-.279.641-.768.228-.489.228-1.13v-.013q0-.634-.228-1.129a1.8 1.8 0 0 0-.641-.775q-.42-.279-1.003-.279-.584 0-.997.279a1.77 1.77 0 0 0-.622.775 2.8 2.8 0 0 0-.216 1.129v.013q0 .641.216 1.13t.622.768q.413.273.997.273m5.205 1.479v-6.894h1.377v1.041h.108a1.97 1.97 0 0 1 .749-.863q.495-.31 1.251-.311 1.162 0 1.777.667.616.666.616 1.898V463h-1.384v-4.139q0-.863-.362-1.282-.355-.425-1.117-.425-.501 0-.87.222a1.46 1.46 0 0 0-.571.622q-.197.4-.197.959V463zm13.635.133q-.775 0-1.308-.298a1.92 1.92 0 0 1-.793-.876q-.261-.577-.261-1.39v-4.463h1.378v4.139q0 .85.336 1.276.338.425 1.098.425.546 0 .921-.216.38-.222.571-.622.19-.405.191-.958v-4.044h1.383V463h-1.383v-1.041h-.102a1.9 1.9 0 0 1-.762.863q-.515.312-1.269.311m5.497 2.165v-9.192h1.377v1.086h.108q.197-.381.508-.648.318-.266.724-.412t.888-.146q.87 0 1.511.444.64.438.99 1.238.356.793.356 1.879v.013q0 1.091-.349 1.891-.35.794-.991 1.232-.64.43-1.517.431-.475 0-.888-.146a2.4 2.4 0 0 1-.73-.419 1.9 1.9 0 0 1-.502-.641h-.108v3.39zm3.212-3.364q.577 0 .99-.286.412-.285.628-.819.222-.533.222-1.269v-.013q0-.743-.222-1.276a1.8 1.8 0 0 0-.628-.819q-.412-.285-.99-.285-.571 0-.991.291a1.8 1.8 0 0 0-.641.819q-.222.528-.222 1.27v.013q0 .729.222 1.263t.641.825q.42.286.991.286"/><path fill="#131316" fill-opacity=".06" d="M30 483.5h400v-1H30z"/><path fill="#747686" d="M172.809 511.205q-.956 0-1.664-.299-.71-.304-1.12-.844a2.33 2.33 0 0 1-.468-1.248l-.006-.076h1.295l.006.065q.041.38.298.662.264.281.704.439.444.159 1.013.158.534 0 .949-.169.417-.17.651-.469.24-.299.24-.686v-.006q0-.486-.369-.808-.37-.322-1.207-.504l-.926-.193q-1.282-.276-1.869-.873-.586-.604-.586-1.542v-.005q.006-.733.393-1.289a2.6 2.6 0 0 1 1.084-.868q.692-.31 1.587-.31.897 0 1.565.31.674.306 1.06.832.393.527.44 1.19l.006.076h-1.283l-.012-.076a1.2 1.2 0 0 0-.287-.615 1.5 1.5 0 0 0-.615-.422 2.25 2.25 0 0 0-.891-.153q-.492 0-.879.153-.387.146-.615.427a1.06 1.06 0 0 0-.223.68v.006q0 .469.358.785.363.31 1.177.487l.926.205q1.33.28 1.91.843.586.563.586 1.5v.006q0 .808-.398 1.401-.393.585-1.119.908-.727.322-1.711.322m7.482-.082q-.931 0-1.6-.398a2.7 2.7 0 0 1-1.031-1.143q-.357-.738-.357-1.746v-.006q0-.996.357-1.74a2.8 2.8 0 0 1 1.02-1.16q.662-.417 1.547-.416.89 0 1.529.398.645.399.99 1.119.346.715.346 1.676v.445h-5.145v-.908h4.512l-.609.844v-.51q0-.68-.211-1.125a1.5 1.5 0 0 0-.569-.674 1.57 1.57 0 0 0-.838-.222 1.57 1.57 0 0 0-.849.234 1.57 1.57 0 0 0-.586.68q-.211.45-.211 1.107v.51q0 .627.211 1.072t.598.68q.392.234.925.234.41 0 .703-.111.3-.117.487-.287a1 1 0 0 0 .263-.334l.024-.047h1.23l-.011.053a2.2 2.2 0 0 1-.287.632 2.3 2.3 0 0 1-.545.569 2.7 2.7 0 0 1-.809.416 3.4 3.4 0 0 1-1.084.158m6.99 0q-.925 0-1.599-.398a2.7 2.7 0 0 1-1.032-1.149q-.363-.744-.363-1.775v-.012q0-1.014.358-1.746a2.66 2.66 0 0 1 1.031-1.131q.673-.399 1.599-.398.804 0 1.377.281.58.275.92.762.346.48.434 1.095l.006.03h-1.225l-.006-.012a1.36 1.36 0 0 0-.486-.779q-.381-.317-1.014-.317-.527 0-.908.27a1.67 1.67 0 0 0-.586.761q-.2.499-.199 1.184v.012q0 .703.205 1.207t.586.779q.381.27.902.27.598 0 .967-.264.375-.264.527-.779l.012-.03 1.219-.005-.012.052a2.6 2.6 0 0 1-.451 1.09 2.3 2.3 0 0 1-.908.738q-.562.264-1.354.264m6.287 0q-.714 0-1.207-.275a1.8 1.8 0 0 1-.732-.809q-.24-.533-.24-1.283v-4.119h1.271v3.82q0 .785.311 1.178.31.392 1.013.392.504 0 .85-.199.351-.205.527-.574.176-.375.176-.885v-3.732h1.277V511h-1.277v-.961h-.094q-.228.51-.703.797-.474.287-1.172.287m5.075-.123v-6.363h1.271v.961h.1a1.47 1.47 0 0 1 .597-.791q.434-.282 1.067-.282a2.6 2.6 0 0 1 .556.059v1.172a3.3 3.3 0 0 0-.685-.07q-.487 0-.856.187a1.45 1.45 0 0 0-.574.527 1.5 1.5 0 0 0-.205.797V511zm7.324.123q-.932 0-1.6-.398a2.7 2.7 0 0 1-1.031-1.143q-.357-.738-.357-1.746v-.006q0-.996.357-1.74a2.8 2.8 0 0 1 1.019-1.16q.662-.417 1.547-.416.891 0 1.53.398.643.399.99 1.119.345.715.346 1.676v.445h-5.145v-.908h4.512l-.61.844v-.51q0-.68-.211-1.125a1.5 1.5 0 0 0-.568-.674 1.57 1.57 0 0 0-.838-.222 1.57 1.57 0 0 0-.849.234 1.56 1.56 0 0 0-.586.68q-.211.45-.211 1.107v.51q0 .627.211 1.072.21.446.597.68.393.234.926.234.41 0 .703-.111a1.6 1.6 0 0 0 .487-.287 1 1 0 0 0 .263-.334l.024-.047h1.23l-.012.053q-.081.317-.287.632a2.3 2.3 0 0 1-.545.569 2.7 2.7 0 0 1-.808.416 3.4 3.4 0 0 1-1.084.158m6.633-.018q-.797 0-1.395-.398-.591-.404-.92-1.143-.322-.738-.322-1.74v-.012q0-1.006.322-1.746.323-.738.914-1.136.592-.405 1.401-.405.656 0 1.177.305.528.299.78.815h.093v-3.504h1.278V511h-1.278v-1.002h-.093a2 2 0 0 1-.78.814q-.504.293-1.177.293m.363-1.089q.527 0 .914-.264a1.66 1.66 0 0 0 .592-.756q.204-.498.205-1.172v-.012q0-.68-.211-1.171a1.66 1.66 0 0 0-.592-.756 1.53 1.53 0 0 0-.908-.27q-.528 0-.914.27a1.67 1.67 0 0 0-.586.756q-.2.486-.199 1.171v.012q0 .68.199 1.172.205.492.586.756.387.264.914.264m11.508 1.089q-.668 0-1.172-.293a2.04 2.04 0 0 1-.785-.814h-.1V511h-1.271v-8.859h1.271v3.504h.1q.251-.516.773-.815a2.3 2.3 0 0 1 1.184-.305q.809 0 1.4.405.592.398.914 1.136.322.74.322 1.746v.012q0 1.002-.328 1.74-.322.74-.914 1.143-.591.399-1.394.398m-.364-1.089q.534 0 .914-.264a1.64 1.64 0 0 0 .581-.756q.204-.492.205-1.172v-.012q0-.685-.205-1.171a1.64 1.64 0 0 0-.581-.756 1.54 1.54 0 0 0-.914-.27q-.527 0-.914.27a1.65 1.65 0 0 0-.591.756q-.206.492-.206 1.171v.012q0 .674.206 1.172.205.492.591.756.387.264.914.264m4.887 3.222q-.117 0-.252-.011a5 5 0 0 1-.258-.018v-1.002a3 3 0 0 0 .428.023q.445 0 .721-.21.275-.206.416-.686l.094-.328-2.309-6.369h1.377l1.799 5.736-.399-.656h.487l-.393.656 1.793-5.736h1.342l-2.367 6.603q-.27.761-.598 1.196-.329.44-.779.621-.451.181-1.102.181"/><ellipse cx="249.889" cy="507" fill="#747686" rx="2.187" ry="2.188"/><path fill="#747686" d="M253.831 512.179a.415.415 0 0 1-.052.641 6.97 6.97 0 0 1-3.89 1.18 6.97 6.97 0 0 1-3.891-1.18.415.415 0 0 1-.051-.641l1.598-1.598a.47.47 0 0 1 .551-.075 3.9 3.9 0 0 0 1.793.431 3.9 3.9 0 0 0 1.792-.431.47.47 0 0 1 .551.075z"/><path fill="#747686" d="M253.779 501.18a.415.415 0 0 1 .052.641l-1.599 1.598a.47.47 0 0 1-.551.074 3.938 3.938 0 0 0-5.299 5.3.47.47 0 0 1-.074.55l-1.599 1.599a.415.415 0 0 1-.64-.051 7 7 0 0 1 9.71-9.711" opacity=".5"/><path fill="#747686" fill-rule="evenodd" d="M265.748 501.422a.11.11 0 0 1 .11-.11h1.64a.11.11 0 0 1 .11.11v11.156a.11.11 0 0 1-.11.11h-1.64a.11.11 0 0 1-.11-.11zm-2.315 8.899a.11.11 0 0 0-.15.005 2.9 2.9 0 0 1-2.021.788c-.33.01-.658-.047-.965-.166a2.4 2.4 0 0 1-.818-.527c-.423-.432-.667-1.049-.667-1.785 0-1.473.98-2.48 2.45-2.48.394-.005.785.074 1.144.234.325.144.617.351.86.607.041.044.11.049.155.01l1.108-.959a.107.107 0 0 0 .011-.152c-.833-.931-2.139-1.412-3.38-1.412-2.499 0-4.271 1.686-4.271 4.166 0 1.227.441 2.26 1.183 2.989.743.729 1.801 1.158 3.022 1.158 1.531 0 2.763-.587 3.485-1.34a.107.107 0 0 0-.009-.155zm13.212-1.139a.107.107 0 0 1-.107.096h-5.748a.106.106 0 0 0-.103.132c.286 1.06 1.138 1.701 2.302 1.701a2.57 2.57 0 0 0 1.998-.881.08.08 0 0 1 .112-.01l1.155 1.006c.044.039.05.105.013.15-.698.823-1.828 1.421-3.379 1.421-2.387 0-4.186-1.653-4.186-4.163 0-1.232.424-2.264 1.13-2.994a3.9 3.9 0 0 1 1.314-.869 4 4 0 0 1 1.557-.286c2.419 0 3.983 1.701 3.983 4.05a7 7 0 0 1-.041.647m-5.924-1.524a.105.105 0 0 0 .103.133h3.821a.105.105 0 0 0 .103-.134c-.26-.901-.921-1.503-1.947-1.503a2.1 2.1 0 0 0-.881.16 2.1 2.1 0 0 0-.732.507 2.2 2.2 0 0 0-.467.837m11.651-3.172a.11.11 0 0 1 .111.109v1.837a.11.11 0 0 1-.118.109 7 7 0 0 0-.455-.024c-1.431 0-2.271 1.007-2.271 2.329v3.732a.11.11 0 0 1-.109.11h-1.641a.11.11 0 0 1-.109-.11v-7.869a.11.11 0 0 1 .109-.11h1.641a.11.11 0 0 1 .109.11v1.104q.001.01.011.011.006 0 .009-.004c.642-.857 1.588-1.333 2.588-1.333zm4.444 4.81a.04.04 0 0 1 .026-.011q.02 0 .03.017l2.075 3.334c.02.032.055.051.093.051h1.865a.11.11 0 0 0 .093-.166l-2.846-4.592a.11.11 0 0 1 .012-.131l2.742-3.026a.11.11 0 0 0-.081-.183h-1.946a.11.11 0 0 0-.081.036l-3.172 3.458a.11.11 0 0 1-.19-.074v-6.587a.11.11 0 0 0-.109-.11h-1.641a.11.11 0 0 0-.109.11v11.156c0 .061.049.109.109.109h1.641c.06 0 .109-.048.109-.109v-1.755q0-.044.029-.075z" clip-rule="evenodd"/></g></g><defs><filter id="a" width="460" height="576" x="0" y="0" color-interpolation-filters="sRGB" filterUnits="userSpaceOnUse"><feFlood flood-opacity="0" result="BackgroundImageFix"/><feColorMatrix in="SourceAlpha" result="hardAlpha" values="0 0 0 0 0 0 0 0 0 0 0 0 0 0 0 0 0 0 127 0"/><feOffset dy="5"/><feGaussianBlur stdDeviation="7.5"/><feComposite in2="hardAlpha" operator="out"/><feColorMatrix values="0 0 0 0 0 0 0 0 0 0 0 0 0 0 0 0 0 0 0.08 0"/><feBlend in2="BackgroundImageFix" result="effect1_dropShadow_4254_649"/><feColorMatrix in="SourceAlpha" result="hardAlpha" values="0 0 0 0 0 0 0 0 0 0 0 0 0 0 0 0 0 0 127 0"/><feMorphology in="SourceAlpha" radius="5" result="effect2_dropShadow_4254_649"/><feOffset dy="15"/><feGaussianBlur stdDeviation="17.5"/><feComposite in2="hardAlpha" operator="out"/><feColorMatrix values="0 0 0 0 0.0980392 0 0 0 0 0.109804 0 0 0 0 0.129412 0 0 0 0.2 0"/><feBlend in2="effect1_dropShadow_4254_649" result="effect2_dropShadow_4254_649"/><feColorMatrix in="SourceAlpha" result="hardAlpha" values="0 0 0 0 0 0 0 0 0 0 0 0 0 0 0 0 0 0 127 0"/><feMorphology in="SourceAlpha" operator="dilate" radius="1" result="effect3_dropShadow_4254_649"/><feOffset/><feComposite in2="hardAlpha" operator="out"/><feColorMatrix values="0 0 0 0 0.0980392 0 0 0 0 0.109804 0 0 0 0 0.129412 0 0 0 0.06 0"/><feBlend in2="effect2_dropShadow_4254_649" result="effect3_dropShadow_4254_649"/><feBlend in="SourceGraphic" in2="effect3_dropShadow_4254_649" result="shape"/></filter><filter id="c" width="404" height="423" x="28" y="13" color-interpolation-filters="sRGB" filterUnits="userSpaceOnUse"><feFlood flood-opacity="0" result="BackgroundImageFix"/><feColorMatrix in="SourceAlpha" result="hardAlpha" values="0 0 0 0 0 0 0 0 0 0 0 0 0 0 0 0 0 0 127 0"/><feOffset/><feGaussianBlur stdDeviation="1"/><feComposite in2="hardAlpha" operator="out"/><feColorMatrix values="0 0 0 0 0 0 0 0 0 0 0 0 0 0 0 0 0 0 0.08 0"/><feBlend in2="BackgroundImageFix" result="effect1_dropShadow_4254_649"/><feColorMatrix in="SourceAlpha" result="hardAlpha" values="0 0 0 0 0 0 0 0 0 0 0 0 0 0 0 0 0 0 127 0"/><feOffset dy="1"/><feGaussianBlur stdDeviation="1"/><feComposite in2="hardAlpha" operator="out"/><feColorMatrix values="0 0 0 0 0.0980392 0 0 0 0 0.109804 0 0 0 0 0.129412 0 0 0 0.06 0"/><feBlend in2="effect1_dropShadow_4254_649" result="effect2_dropShadow_4254_649"/><feColorMatrix in="SourceAlpha" result="hardAlpha" values="0 0 0 0 0 0 0 0 0 0 0 0 0 0 0 0 0 0 127 0"/><feMorphology in="SourceAlpha" operator="dilate" radius="1" result="effect3_dropShadow_4254_649"/><feOffset/><feComposite in2="hardAlpha" operator="out"/><feColorMatrix values="0 0 0 0 0.0980392 0 0 0 0 0.109804 0 0 0 0 0.129412 0 0 0 0.04 0"/><feBlend in2="effect2_dropShadow_4254_649" result="effect3_dropShadow_4254_649"/><feBlend in="SourceGraphic" in2="effect3_dropShadow_4254_649" result="shape"/></filter><filter id="d" width="105.333" height="37" x="68" y="180" color-interpolation-filters="sRGB" filterUnits="userSpaceOnUse"><feFlood flood-opacity="0" result="BackgroundImageFix"/><feColorMatrix in="SourceAlpha" result="hardAlpha" values="0 0 0 0 0 0 0 0 0 0 0 0 0 0 0 0 0 0 127 0"/><feMorphology in="SourceAlpha" radius="1" result="effect1_dropShadow_4254_649"/><feOffset dy="2"/><feGaussianBlur stdDeviation="1.5"/><feComposite in2="hardAlpha" operator="out"/><feColorMatrix values="0 0 0 0 0 0 0 0 0 0 0 0 0 0 0 0 0 0 0.08 0"/><feBlend in2="BackgroundImageFix" result="effect1_dropShadow_4254_649"/><feColorMatrix in="SourceAlpha" result="hardAlpha" values="0 0 0 0 0 0 0 0 0 0 0 0 0 0 0 0 0 0 127 0"/><feOffset dy="1"/><feComposite in2="hardAlpha" operator="out"/><feColorMatrix values="0 0 0 0 0 0 0 0 0 0 0 0 0 0 0 0 0 0 0.02 0"/><feBlend in2="effect1_dropShadow_4254_649" result="effect2_dropShadow_4254_649"/><feColorMatrix in="SourceAlpha" result="hardAlpha" values="0 0 0 0 0 0 0 0 0 0 0 0 0 0 0 0 0 0 127 0"/><feMorphology in="SourceAlpha" operator="dilate" radius="1" result="effect3_dropShadow_4254_649"/><feOffset/><feComposite in2="hardAlpha" operator="out"/><feColorMatrix values="0 0 0 0 0 0 0 0 0 0 0 0 0 0 0 0 0 0 0.08 0"/><feBlend in2="effect2_dropShadow_4254_649" result="effect3_dropShadow_4254_649"/><feBlend in="SourceGraphic" in2="effect3_dropShadow_4254_649" result="shape"/></filter><filter id="f" width="105.333" height="37" x="177.333" y="180" color-interpolation-filters="sRGB" filterUnits="userSpaceOnUse"><feFlood flood-opacity="0" result="BackgroundImageFix"/><feColorMatrix in="SourceAlpha" result="hardAlpha" values="0 0 0 0 0 0 0 0 0 0 0 0 0 0 0 0 0 0 127 0"/><feMorphology in="SourceAlpha" radius="1" result="effect1_dropShadow_4254_649"/><feOffset dy="2"/><feGaussianBlur stdDeviation="1.5"/><feComposite in2="hardAlpha" operator="out"/><feColorMatrix values="0 0 0 0 0 0 0 0 0 0 0 0 0 0 0 0 0 0 0.08 0"/><feBlend in2="BackgroundImageFix" result="effect1_dropShadow_4254_649"/><feColorMatrix in="SourceAlpha" result="hardAlpha" values="0 0 0 0 0 0 0 0 0 0 0 0 0 0 0 0 0 0 127 0"/><feOffset dy="1"/><feComposite in2="hardAlpha" operator="out"/><feColorMatrix values="0 0 0 0 0 0 0 0 0 0 0 0 0 0 0 0 0 0 0.02 0"/><feBlend in2="effect1_dropShadow_4254_649" result="effect2_dropShadow_4254_649"/><feColorMatrix in="SourceAlpha" result="hardAlpha" values="0 0 0 0 0 0 0 0 0 0 0 0 0 0 0 0 0 0 127 0"/><feMorphology in="SourceAlpha" operator="dilate" radius="1" result="effect3_dropShadow_4254_649"/><feOffset/><feComposite in2="hardAlpha" operator="out"/><feColorMatrix values="0 0 0 0 0 0 0 0 0 0 0 0 0 0 0 0 0 0 0.08 0"/><feBlend in2="effect2_dropShadow_4254_649" result="effect3_dropShadow_4254_649"/><feBlend in="SourceGraphic" in2="effect3_dropShadow_4254_649" result="shape"/></filter><filter id="i" width="105.333" height="37" x="286.667" y="180" color-interpolation-filters="sRGB" filterUnits="userSpaceOnUse"><feFlood flood-opacity="0" result="BackgroundImageFix"/><feColorMatrix in="SourceAlpha" result="hardAlpha" values="0 0 0 0 0 0 0 0 0 0 0 0 0 0 0 0 0 0 127 0"/><feMorphology in="SourceAlpha" radius="1" result="effect1_dropShadow_4254_649"/><feOffset dy="2"/><feGaussianBlur stdDeviation="1.5"/><feComposite in2="hardAlpha" operator="out"/><feColorMatrix values="0 0 0 0 0 0 0 0 0 0 0 0 0 0 0 0 0 0 0.08 0"/><feBlend in2="BackgroundImageFix" result="effect1_dropShadow_4254_649"/><feColorMatrix in="SourceAlpha" result="hardAlpha" values="0 0 0 0 0 0 0 0 0 0 0 0 0 0 0 0 0 0 127 0"/><feOffset dy="1"/><feComposite in2="hardAlpha" operator="out"/><feColorMatrix values="0 0 0 0 0 0 0 0 0 0 0 0 0 0 0 0 0 0 0.02 0"/><feBlend in2="effect1_dropShadow_4254_649" result="effect2_dropShadow_4254_649"/><feColorMatrix in="SourceAlpha" result="hardAlpha" values="0 0 0 0 0 0 0 0 0 0 0 0 0 0 0 0 0 0 127 0"/><feMorphology in="SourceAlpha" operator="dilate" radius="1" result="effect3_dropShadow_4254_649"/><feOffset/><feComposite in2="hardAlpha" operator="out"/><feColorMatrix values="0 0 0 0 0 0 0 0 0 0 0 0 0 0 0 0 0 0 0.08 0"/><feBlend in2="effect2_dropShadow_4254_649" result="effect3_dropShadow_4254_649"/><feBlend in="SourceGraphic" in2="effect3_dropShadow_4254_649" result="shape"/></filter><filter id="k" width="322" height="35" x="69" y="304" color-interpolation-filters="sRGB" filterUnits="userSpaceOnUse"><feFlood flood-opacity="0" result="BackgroundImageFix"/><feColorMatrix in="SourceAlpha" result="hardAlpha" values="0 0 0 0 0 0 0 0 0 0 0 0 0 0 0 0 0 0 127 0"/><feMorphology in="SourceAlpha" operator="dilate" radius="1" result="effect1_dropShadow_4254_649"/><feOffset/><feComposite in2="hardAlpha" operator="out"/><feColorMatrix values="0 0 0 0 0 0 0 0 0 0 0 0 0 0 0 0 0 0 0.1 0"/><feBlend in2="BackgroundImageFix" result="effect1_dropShadow_4254_649"/><feColorMatrix in="SourceAlpha" result="hardAlpha" values="0 0 0 0 0 0 0 0 0 0 0 0 0 0 0 0 0 0 127 0"/><feOffset dy="1"/><feGaussianBlur stdDeviation=".5"/><feComposite in2="hardAlpha" operator="out"/><feColorMatrix values="0 0 0 0 0 0 0 0 0 0 0 0 0 0 0 0 0 0 0.06 0"/><feBlend in2="effect1_dropShadow_4254_649" result="effect2_dropShadow_4254_649"/><feBlend in="SourceGraphic" in2="effect2_dropShadow_4254_649" result="shape"/></filter><filter id="l" width="326" height="38" x="67" y="368" color-interpolation-filters="sRGB" filterUnits="userSpaceOnUse"><feFlood flood-opacity="0" result="BackgroundImageFix"/><feColorMatrix in="SourceAlpha" result="hardAlpha" values="0 0 0 0 0 0 0 0 0 0 0 0 0 0 0 0 0 0 127 0"/><feMorphology in="SourceAlpha" operator="dilate" radius="1" result="effect1_dropShadow_4254_649"/><feOffset/><feComposite in2="hardAlpha" operator="out"/><feColorMatrix values="0 0 0 0 0.184314 0 0 0 0 0.188235 0 0 0 0 0.215686 0 0 0 1 0"/><feBlend in2="BackgroundImageFix" result="effect1_dropShadow_4254_649"/><feColorMatrix in="SourceAlpha" result="hardAlpha" values="0 0 0 0 0 0 0 0 0 0 0 0 0 0 0 0 0 0 127 0"/><feOffset dy="2"/><feGaussianBlur stdDeviation="1.5"/><feComposite in2="hardAlpha" operator="out"/><feColorMatrix values="0 0 0 0 0.133333 0 0 0 0 0.164706 0 0 0 0 0.207843 0 0 0 0.2 0"/><feBlend in2="effect1_dropShadow_4254_649" result="effect2_dropShadow_4254_649"/><feColorMatrix in="SourceAlpha" result="hardAlpha" values="0 0 0 0 0 0 0 0 0 0 0 0 0 0 0 0 0 0 127 0"/><feOffset dy="1"/><feGaussianBlur stdDeviation=".5"/><feComposite in2="hardAlpha" operator="out"/><feColorMatrix values="0 0 0 0 0 0 0 0 0 0 0 0 0 0 0 0 0 0 0.24 0"/><feBlend in2="effect2_dropShadow_4254_649" result="effect3_dropShadow_4254_649"/><feBlend in="SourceGraphic" in2="effect3_dropShadow_4254_649" result="shape"/><feColorMatrix in="SourceAlpha" result="hardAlpha" values="0 0 0 0 0 0 0 0 0 0 0 0 0 0 0 0 0 0 127 0"/><feOffset dy="1"/><feGaussianBlur stdDeviation=".5"/><feComposite in2="hardAlpha" k2="-1" k3="1" operator="arithmetic"/><feColorMatrix values="0 0 0 0 1 0 0 0 0 1 0 0 0 0 1 0 0 0 0.07 0"/><feBlend in2="shape" result="effect4_innerShadow_4254_649"/></filter><clipPath id="b"><rect width="400" height="516" x="30" y="15" fill="#fff" rx="12"/></clipPath><clipPath id="e"><path fill="#fff" d="M112.667 189h16v16h-16z"/></clipPath><clipPath id="g"><path fill="#fff" d="M222 189h16v16h-16z"/></clipPath><clipPath id="h"><path fill="#fff" d="M222 189h16v16h-16z"/></clipPath><clipPath id="j"><path fill="#fff" d="M331.333 189h16v16h-16z"/></clipPath><clipPath id="n"><rect width="10" height="10" x="257" y="380" fill="#fff" rx="2"/></clipPath><linearGradient id="m" x1="230" x2="230" y1="369" y2="401" gradientUnits="userSpaceOnUse"><stop stop-color="#fff"/><stop offset="1" stop-color="#fff" stop-opacity="0"/></linearGradient></defs></svg>