<svg xmlns="http://www.w3.org/2000/svg" width="460" height="900" fill="none"><g filter="url(#a)"><g clip-path="url(#b)"><rect width="400" height="840" x="30" y="15" fill="#f7f7f8" rx="12"/><g filter="url(#c)"><rect width="400" height="742" x="30" y="15" fill="#fff" rx="8"/><path fill="#42434d" fill-rule="evenodd" d="M220.4 47a6.4 6.4 0 0 0-6.4 6.4v19.2a6.4 6.4 0 0 0 6.4 6.4h19.2a6.4 6.4 0 0 0 6.4-6.4V53.4a6.4 6.4 0 0 0-6.4-6.4zm9.6 24.889a8.89 8.89 0 1 0 0-17.778 8.89 8.89 0 0 0 0 17.778" clip-rule="evenodd"/><path fill="#212126" d="M151.041 121.307q-1.735 0-2.997-.764t-1.942-2.174-.681-3.354v-.016q0-1.942.681-3.354.681-1.411 1.934-2.166 1.262-.765 3.005-.764 1.42 0 2.548.556 1.137.556 1.835 1.536t.813 2.241v.108h-2.432l-.008-.058a2.8 2.8 0 0 0-.506-1.179 2.6 2.6 0 0 0-.963-.797 2.9 2.9 0 0 0-1.287-.282q-.938 0-1.627.506-.688.498-1.062 1.436-.366.93-.366 2.217v.016q0 1.278.366 2.216.374.939 1.062 1.445t1.635.506q.723 0 1.287-.257.573-.266.946-.739.382-.481.507-1.121l.016-.074h2.441v.099q-.133 1.254-.822 2.2a4.7 4.7 0 0 1-1.81 1.486q-1.12.531-2.573.531m7.101-.307v-9.139h2.424v1.419h.15q.224-.747.822-1.154.597-.415 1.485-.415.25 0 .482.034.24.033.423.083v2.116a5 5 0 0 0-.556-.099 4 4 0 0 0-.556-.042q-.689 0-1.195.258a1.8 1.8 0 0 0-.781.713q-.274.465-.274 1.113V121zm11.053.191q-1.386 0-2.39-.573a3.9 3.9 0 0 1-1.536-1.643q-.54-1.064-.54-2.532v-.008q0-1.453.532-2.524a3.97 3.97 0 0 1 1.519-1.66q.987-.59 2.316-.589 1.336 0 2.307.572a3.83 3.83 0 0 1 1.494 1.602q.523 1.03.523 2.416v.755h-7.479v-1.519h6.317l-1.137 1.436v-.971q0-.822-.257-1.37-.25-.548-.698-.821a1.86 1.86 0 0 0-1.029-.283q-.58 0-1.038.291-.447.283-.713.838-.258.549-.258 1.345v.98q0 .771.258 1.319.257.548.73.839t1.129.29q.531 0 .905-.157.374-.158.597-.366.232-.215.316-.39l.025-.05h2.258l-.017.083q-.108.432-.39.905a3.4 3.4 0 0 1-.78.872q-.49.406-1.229.664-.73.249-1.735.249m8.529-.05q-.863 0-1.544-.332a2.6 2.6 0 0 1-1.054-.955q-.382-.622-.382-1.452v-.017q0-1.236.922-1.934.92-.706 2.623-.805l3.403-.208v1.478l-3.038.199q-.78.042-1.162.332a.94.94 0 0 0-.382.789v.016q0 .523.399.822.397.299 1.029.299.564 0 1.004-.224a1.8 1.8 0 0 0 .698-.606q.257-.39.257-.872v-2.913q0-.598-.399-.913-.39-.324-1.137-.324-.656 0-1.071.224a1.1 1.1 0 0 0-.547.623l-.017.033h-2.241l.008-.075a2.6 2.6 0 0 1 .606-1.403q.514-.597 1.378-.929.871-.332 2.017-.332 1.212 0 2.059.373.846.366 1.286 1.063.448.688.448 1.66V121h-2.39v-1.212h-.15a2.4 2.4 0 0 1-.622.731 2.9 2.9 0 0 1-.897.464 3.7 3.7 0 0 1-1.104.158m11.161-.108q-1.66 0-2.391-.581-.73-.59-.73-1.917v-4.848h-1.411v-1.826h1.411v-2.183h2.449v2.183h1.884v1.826h-1.884v4.292q0 .614.274.904.282.282.896.283.232 0 .382-.009l.332-.033v1.801a7 7 0 0 1-1.212.108m7.01.158q-1.386 0-2.391-.573a3.9 3.9 0 0 1-1.535-1.643q-.54-1.064-.54-2.532v-.008q0-1.453.532-2.524a3.97 3.97 0 0 1 1.519-1.66q.987-.59 2.316-.589 1.336 0 2.307.572a3.83 3.83 0 0 1 1.494 1.602q.523 1.03.523 2.416v.755h-7.479v-1.519h6.317l-1.137 1.436v-.971q0-.822-.257-1.37-.25-.548-.698-.821a1.86 1.86 0 0 0-1.029-.283q-.58 0-1.038.291-.447.283-.713.838-.258.549-.258 1.345v.98q0 .771.258 1.319.257.548.73.839t1.129.29q.531 0 .905-.157.374-.158.597-.366.232-.215.316-.39l.025-.05h2.258l-.017.083q-.108.432-.39.905-.282.465-.781.872-.49.406-1.228.664-.73.249-1.735.249m11.339 3.03q-.207 0-.431-.009l-.44-.016v-1.826q.125.016.29.016.174.009.341.009.647 0 1.029-.258.381-.257.506-.788l.083-.349-3.212-9.139h2.664l2.184 7.886-.557-.963h.723l-.532.963 2.183-7.886h2.557l-3.113 9.131q-.407 1.204-.971 1.909a3.1 3.1 0 0 1-1.37 1.013q-.804.306-1.934.307m12.58-3.03q-1.403 0-2.415-.565a3.8 3.8 0 0 1-1.552-1.635q-.54-1.071-.54-2.556v-.017q0-1.478.548-2.54a3.9 3.9 0 0 1 1.552-1.635q1.013-.582 2.407-.581 1.395 0 2.399.572 1.013.573 1.561 1.644.548 1.062.548 2.54v.017q0 1.485-.54 2.556a3.8 3.8 0 0 1-1.552 1.635q-1.005.565-2.416.565m0-1.901q.648 0 1.096-.34t.689-.98.241-1.535v-.017q0-.897-.241-1.527-.24-.64-.697-.98-.449-.349-1.088-.349t-1.095.349q-.449.34-.689.98-.241.63-.241 1.527v.017q0 .904.232 1.544.241.639.689.979.458.332 1.104.332m9.335 1.901q-1.022 0-1.719-.399a2.5 2.5 0 0 1-1.037-1.162q-.35-.771-.349-1.859v-5.91h2.424v5.354q0 .97.382 1.469.39.498 1.253.498.599 0 1.005-.249.415-.257.622-.714.216-.465.216-1.079v-5.279h2.424V121h-2.424v-1.411h-.149a2.5 2.5 0 0 1-.988 1.179q-.68.423-1.66.423m7.483-.191v-9.139h2.424v1.419h.149q.225-.747.822-1.154.597-.415 1.486-.415.249 0 .481.034.241.033.424.083v2.116a5 5 0 0 0-.556-.099 4 4 0 0 0-.557-.042q-.688 0-1.195.258a1.8 1.8 0 0 0-.78.713q-.274.465-.274 1.113V121zm13.937.141q-.863 0-1.544-.332a2.6 2.6 0 0 1-1.054-.955q-.381-.622-.382-1.452v-.017q0-1.236.922-1.934.92-.706 2.623-.805l3.403-.208v1.478l-3.038.199q-.78.042-1.162.332a.94.94 0 0 0-.382.789v.016q0 .523.399.822.397.299 1.029.299.564 0 1.004-.224a1.8 1.8 0 0 0 .698-.606q.257-.39.257-.872v-2.913q0-.598-.399-.913-.39-.324-1.137-.324-.656 0-1.071.224a1.1 1.1 0 0 0-.547.623l-.017.033h-2.241l.008-.075a2.6 2.6 0 0 1 .606-1.403q.514-.597 1.378-.929.871-.332 2.017-.332 1.212 0 2.059.373.846.366 1.286 1.063.448.688.448 1.66V121h-2.39v-1.212h-.15a2.4 2.4 0 0 1-.622.731 2.9 2.9 0 0 1-.897.464 3.7 3.7 0 0 1-1.104.158m11.393.05q-1.427 0-2.432-.556a3.7 3.7 0 0 1-1.519-1.627q-.523-1.07-.523-2.59v-.017q0-1.51.523-2.565a3.67 3.67 0 0 1 1.519-1.61q1.005-.564 2.432-.564 1.212 0 2.084.415.871.414 1.378 1.17t.614 1.776v.025h-2.249l-.009-.016q-.124-.664-.581-1.063-.448-.407-1.228-.407-.648 0-1.104.333-.448.323-.681.954-.232.631-.232 1.552v.017q0 .921.232 1.569.24.64.689.971.448.332 1.096.332.747 0 1.195-.349t.606-1.045l.017-.025 2.241-.009v.058q-.134.988-.639 1.727a3.36 3.36 0 0 1-1.37 1.145q-.864.399-2.059.399m9.825 0q-1.428 0-2.433-.556a3.7 3.7 0 0 1-1.519-1.627q-.522-1.07-.523-2.59v-.017q0-1.51.523-2.565a3.67 3.67 0 0 1 1.519-1.61q1.005-.564 2.433-.564 1.211 0 2.083.415.871.414 1.378 1.17t.614 1.776v.025h-2.249l-.009-.016q-.124-.664-.581-1.063-.448-.407-1.228-.407-.648 0-1.104.333-.449.323-.681.954t-.232 1.552v.017q0 .921.232 1.569.241.64.689.971.448.332 1.096.332.747 0 1.195-.349t.606-1.045l.017-.025 2.241-.009v.058q-.133.988-.639 1.727a3.36 3.36 0 0 1-1.37 1.145q-.863.399-2.058.399m9.857 0q-1.403 0-2.416-.565a3.8 3.8 0 0 1-1.552-1.635q-.54-1.071-.539-2.556v-.017q0-1.478.547-2.54a3.9 3.9 0 0 1 1.553-1.635q1.012-.582 2.407-.581 1.394 0 2.399.572a3.86 3.86 0 0 1 1.56 1.644q.548 1.062.548 2.54v.017q0 1.485-.539 2.556a3.8 3.8 0 0 1-1.553 1.635q-1.003.565-2.415.565m0-1.901q.647 0 1.096-.34.447-.34.689-.98.24-.64.24-1.535v-.017q0-.897-.24-1.527-.241-.64-.698-.98-.448-.349-1.087-.349t-1.096.349q-.448.34-.689.98-.24.63-.241 1.527v.017q0 .904.233 1.544.24.639.689.979.456.332 1.104.332m9.334 1.901q-1.02 0-1.718-.399a2.5 2.5 0 0 1-1.038-1.162q-.348-.771-.348-1.859v-5.91h2.424v5.354q0 .97.381 1.469.39.498 1.254.498.597 0 1.004-.249.415-.257.623-.714.216-.465.216-1.079v-5.279h2.423V121h-2.423v-1.411h-.15a2.5 2.5 0 0 1-.988 1.179q-.68.423-1.66.423m7.484-.191v-9.139h2.423v1.411h.15q.315-.747.979-1.179.664-.43 1.644-.431 1.527 0 2.324.896.805.888.805 2.532V121h-2.424v-5.362q0-.972-.406-1.47t-1.27-.498q-.557 0-.963.258a1.7 1.7 0 0 0-.623.705q-.216.457-.216 1.079V121zm14.298.033q-1.66 0-2.391-.581-.73-.59-.73-1.917v-4.848h-1.411v-1.826h1.411v-2.183h2.448v2.183h1.885v1.826h-1.885v4.292q0 .614.274.904.283.282.897.283.232 0 .382-.009l.332-.033v1.801a7 7 0 0 1-1.212.108"/><path fill="#747686" d="m84.566 145-2.495-9.16h1.194l1.821 7.446h.077l2.05-7.446h1.155l2.05 7.446h.077l1.821-7.446h1.194L91.015 145h-1.079l-2.107-7.23h-.077L85.645 145zm12.702.121q-.978 0-1.683-.432a2.86 2.86 0 0 1-1.079-1.219q-.374-.794-.374-1.866v-.006q0-1.06.374-1.86.381-.8 1.073-1.251.691-.45 1.619-.45.933 0 1.6.431.671.432 1.028 1.206.362.768.362 1.79v.432h-5.485v-.882h4.92l-.546.806v-.438q0-.807-.242-1.327-.24-.52-.666-.774a1.83 1.83 0 0 0-.978-.26q-.552 0-.99.272a1.85 1.85 0 0 0-.685.794q-.254.527-.254 1.295v.438q0 .73.247 1.25.248.515.705.794.457.273 1.079.273.464 0 .806-.127a1.8 1.8 0 0 0 .565-.324q.222-.196.311-.4l.026-.057h1.104l-.013.051a2.1 2.1 0 0 1-.317.679q-.221.324-.578.59a3 3 0 0 1-.844.419 3.6 3.6 0 0 1-1.085.153m4.697-.121v-9.56h1.104V145zm6.024.121q-.959 0-1.663-.438a2.9 2.9 0 0 1-1.092-1.238q-.387-.8-.387-1.885v-.013q0-1.067.381-1.854a2.9 2.9 0 0 1 1.091-1.218q.705-.438 1.663-.438.832 0 1.435.292a2.53 2.53 0 0 1 1.428 1.885l.007.038h-1.099l-.006-.019a1.57 1.57 0 0 0-.578-.863q-.45-.356-1.187-.356-.615 0-1.066.311-.45.312-.698.883-.241.565-.241 1.339v.013q0 .786.247 1.371.248.577.698.895a1.8 1.8 0 0 0 1.06.317q.692 0 1.13-.298.438-.299.629-.87l.012-.038 1.092-.006-.012.069a2.9 2.9 0 0 1-.496 1.099q-.356.476-.939.749-.584.273-1.409.273m7.287 0q-.971 0-1.682-.426a2.87 2.87 0 0 1-1.092-1.225q-.381-.793-.381-1.885v-.013q0-1.098.381-1.891a2.83 2.83 0 0 1 1.092-1.219q.71-.425 1.682-.425.978 0 1.682.425.705.425 1.085 1.219.388.793.388 1.891v.013q0 1.092-.388 1.885a2.8 2.8 0 0 1-1.085 1.225q-.704.426-1.682.426m0-.978q.648 0 1.098-.305.45-.304.686-.876.24-.57.241-1.377v-.013q0-.812-.241-1.384-.236-.57-.686-.869-.45-.305-1.098-.305t-1.098.305q-.451.299-.692.869-.235.572-.235 1.384v.013q0 .806.235 1.377.241.572.692.876t1.098.305m4.869.857v-6.843h1.104v1.041h.102a1.82 1.82 0 0 1 .698-.857q.475-.304 1.149-.304.463 0 .831.152t.635.425q.267.267.425.622h.102a2.2 2.2 0 0 1 1.212-1.047q.412-.153.883-.152.698 0 1.18.26.49.26.743.762.254.495.254 1.212V145h-1.105v-4.475q0-.755-.355-1.13-.349-.381-1.073-.381-.475 0-.831.216a1.5 1.5 0 0 0-.553.578 1.6 1.6 0 0 0-.196.793V145h-1.105v-4.646q0-.61-.387-.972-.387-.368-1.035-.368-.444 0-.806.235a1.7 1.7 0 0 0-.565.635 1.9 1.9 0 0 0-.203.876V145zm14.104.121q-.977 0-1.682-.432a2.86 2.86 0 0 1-1.079-1.219q-.375-.794-.375-1.866v-.006q0-1.06.375-1.86.38-.8 1.073-1.251.691-.45 1.618-.45.933 0 1.6.431.672.432 1.028 1.206.362.768.362 1.79v.432h-5.484v-.882h4.919l-.546.806v-.438q0-.807-.241-1.327t-.667-.774a1.83 1.83 0 0 0-.977-.26q-.552 0-.99.272a1.84 1.84 0 0 0-.686.794q-.254.527-.254 1.295v.438q0 .73.248 1.25.248.515.704.794.458.273 1.079.273.464 0 .807-.127.342-.127.565-.324.222-.196.311-.4l.025-.057h1.104l-.012.051q-.09.35-.318.679-.222.324-.577.59a3 3 0 0 1-.845.419 3.6 3.6 0 0 1-1.085.153m5.097-3.168-.108-6.119h1.27l-.108 6.119zm.533 3.161a.86.86 0 0 1-.634-.247.86.86 0 0 1-.248-.635q0-.393.248-.641a.86.86 0 0 1 .634-.248q.388 0 .629.248a.87.87 0 0 1 .247.641.86.86 0 0 1-.247.635.84.84 0 0 1-.629.247m7.421-3.383v-1.016h2.59q.983 0 1.523-.507.54-.514.54-1.416v-.013q0-.908-.54-1.415-.54-.508-1.523-.508h-2.59v-1.016h2.882q.863 0 1.523.368.66.369 1.035 1.029.381.66.381 1.53v.012q0 .87-.381 1.536-.375.668-1.035 1.041-.66.375-1.523.375zm-.571 3.269v-9.16h1.142V145zm8.188 0v-9.56h1.104V145zm6.018.121q-.978 0-1.683-.432a2.86 2.86 0 0 1-1.079-1.219q-.374-.794-.374-1.866v-.006q0-1.06.374-1.86.381-.8 1.073-1.251t1.619-.45q.933 0 1.599.431.674.432 1.029 1.206.361.768.361 1.79v.432h-5.484v-.882h4.92l-.546.806v-.438q0-.807-.242-1.327-.24-.52-.666-.774a1.83 1.83 0 0 0-.978-.26q-.552 0-.99.272-.432.267-.685.794t-.254 1.295v.438q0 .73.247 1.25.248.515.705.794.457.273 1.079.273.464 0 .806-.127.343-.127.565-.324.222-.196.311-.4l.025-.057h1.105l-.013.051a2.1 2.1 0 0 1-.317.679 2.5 2.5 0 0 1-.578.59 3 3 0 0 1-.844.419 3.6 3.6 0 0 1-1.085.153m6.512 0q-.647 0-1.168-.248a2 2 0 0 1-.819-.705 1.93 1.93 0 0 1-.298-1.079v-.012q0-.915.648-1.429.653-.52 1.847-.59l2.513-.152v.882l-2.38.152q-.78.045-1.143.324-.355.28-.355.787v.013q0 .52.394.812.393.286.99.286a2.2 2.2 0 0 0 1.003-.222q.438-.228.685-.616.254-.387.254-.876v-2.133q0-.634-.387-.964-.381-.337-1.149-.337-.616 0-1.009.222a1.07 1.07 0 0 0-.527.616l-.006.019h-1.105l.006-.038q.09-.54.445-.939.362-.407.933-.629a3.5 3.5 0 0 1 1.301-.228q.839 0 1.416.273.584.273.882.787.305.507.305 1.218V145h-1.105v-1.009h-.101q-.216.362-.527.615-.305.255-.692.388a2.7 2.7 0 0 1-.851.127m7.643 0q-.762 0-1.346-.229a2.35 2.35 0 0 1-.939-.654 1.8 1.8 0 0 1-.413-.984h1.13q.14.425.546.686.406.26 1.06.26.464 0 .812-.133a1.4 1.4 0 0 0 .559-.375.83.83 0 0 0 .203-.552v-.013a.75.75 0 0 0-.279-.59q-.28-.247-.914-.4l-1.06-.254q-.959-.228-1.409-.666-.451-.444-.451-1.181v-.006q0-.572.33-1.022.336-.452.914-.711.578-.26 1.301-.26.718 0 1.27.228.558.222.895.635.342.413.419.971h-1.086a1.12 1.12 0 0 0-.495-.66q-.387-.254-1.009-.254-.406 0-.724.133a1.2 1.2 0 0 0-.501.356.82.82 0 0 0-.184.533v.013a.72.72 0 0 0 .273.577q.273.23.876.375l1.053.254q.966.234 1.435.673.476.438.476 1.174v.013q0 .61-.362 1.079-.362.464-.984.723-.616.261-1.396.261m7.249 0q-.978 0-1.682-.432a2.86 2.86 0 0 1-1.079-1.219q-.375-.794-.375-1.866v-.006q0-1.06.375-1.86.38-.8 1.072-1.251t1.619-.45q.933 0 1.6.431.672.432 1.028 1.206.362.768.362 1.79v.432h-5.485v-.882h4.92l-.546.806v-.438q0-.807-.241-1.327t-.667-.774a1.83 1.83 0 0 0-.977-.26q-.552 0-.991.272a1.85 1.85 0 0 0-.685.794q-.254.527-.254 1.295v.438q0 .73.248 1.25.247.515.704.794.458.273 1.079.273.464 0 .806-.127.343-.127.565-.324.222-.196.311-.4l.026-.057h1.104l-.012.051q-.09.35-.318.679-.222.324-.577.59a3 3 0 0 1-.845.419 3.6 3.6 0 0 1-1.085.153m8.747-.121v-5.929h-1.136v-.914h1.136v-.761q0-1.023.508-1.518.507-.501 1.479-.501.203 0 .381.019.184.012.355.044v.883a2 2 0 0 0-.235-.026 6 6 0 0 0-.279-.006q-.59 0-.851.286-.254.286-.254.85v.73h1.556v.914h-1.556V145zm4.278 0v-6.843h1.105V145zm.559-8.163a.75.75 0 0 1-.54-.222.75.75 0 0 1-.222-.54q0-.317.222-.539a.75.75 0 0 1 .54-.223q.317 0 .539.223a.73.73 0 0 1 .223.539.75.75 0 0 1-.223.54.73.73 0 0 1-.539.222m2.691 8.163v-9.56h1.105V145zm3.288 0v-9.56h1.105V145zm6.907 0v-6.843h1.104V145zm.558-8.163a.75.75 0 0 1-.539-.222.75.75 0 0 1-.223-.54q0-.317.223-.539a.75.75 0 0 1 .539-.223q.318 0 .54.223a.73.73 0 0 1 .222.539.75.75 0 0 1-.222.54.74.74 0 0 1-.54.222m2.628 8.163v-6.843h1.105v1.029h.101q.26-.546.749-.845.49-.304 1.244-.304 1.156 0 1.771.66.622.654.622 1.872V145h-1.104v-4.164q0-.927-.394-1.371-.387-.451-1.206-.451-.546 0-.945.235a1.6 1.6 0 0 0-.623.667q-.215.43-.215 1.034V145zm13.679.051q-1.053 0-1.529-.426-.47-.425-.47-1.402v-4.152h-1.079v-.914h1.079v-1.771h1.142v1.771h1.498v.914h-1.498v3.872q0 .603.229.87.228.26.762.26.145 0 .247-.006.108-.006.26-.019v.939a8 8 0 0 1-.317.045 3 3 0 0 1-.324.019m2.355-.051v-9.56h1.105v3.746h.101q.261-.546.749-.845.489-.304 1.245-.304.768 0 1.301.298.533.292.812.857.28.566.28 1.377V145h-1.105v-4.164q0-.927-.393-1.371-.388-.451-1.207-.451-.545 0-.945.235a1.6 1.6 0 0 0-.622.667q-.216.43-.216 1.034V145zm10.385.121q-.977 0-1.682-.432a2.86 2.86 0 0 1-1.079-1.219q-.375-.794-.375-1.866v-.006q0-1.06.375-1.86.38-.8 1.073-1.251.691-.45 1.618-.45.934 0 1.6.431.672.432 1.028 1.206.362.768.362 1.79v.432h-5.484v-.882h4.919l-.546.806v-.438q0-.807-.241-1.327t-.667-.774a1.83 1.83 0 0 0-.977-.26q-.552 0-.99.272a1.84 1.84 0 0 0-.686.794q-.254.527-.254 1.295v.438q0 .73.248 1.25.248.515.704.794.458.273 1.079.273.463 0 .807-.127.342-.127.565-.324.221-.196.311-.4l.025-.057h1.104l-.012.051a2.1 2.1 0 0 1-.318.679q-.222.324-.577.59a3 3 0 0 1-.844.419 3.6 3.6 0 0 1-1.086.153m10.816 0q-.863 0-1.51-.438-.648-.438-1.003-1.232-.356-.8-.356-1.866v-.013q0-1.072.356-1.866.355-.793.996-1.231.648-.438 1.517-.438.705 0 1.276.33.578.324.857.869h.102v-3.796h1.104V145h-1.104v-1.092h-.102a2.3 2.3 0 0 1-.863.895 2.5 2.5 0 0 1-1.27.318m.254-.978q.623 0 1.073-.311.451-.31.692-.882.241-.577.241-1.365v-.013q0-.794-.241-1.364a1.97 1.97 0 0 0-.692-.883q-.45-.31-1.073-.311-.621 0-1.072.311-.445.305-.686.876-.235.571-.235 1.371v.013q0 .793.235 1.371.241.572.686.882.45.305 1.072.305m7.998.978q-.977 0-1.682-.432a2.86 2.86 0 0 1-1.079-1.219q-.374-.794-.374-1.866v-.006q0-1.06.374-1.86.381-.8 1.073-1.251t1.619-.45q.933 0 1.599.431.673.432 1.029 1.206.361.768.361 1.79v.432h-5.484v-.882h4.919l-.545.806v-.438q0-.807-.242-1.327t-.666-.774a1.83 1.83 0 0 0-.978-.26q-.552 0-.99.272-.431.267-.686.794-.253.527-.253 1.295v.438q0 .73.247 1.25.247.515.705.794.456.273 1.079.273.463 0 .806-.127t.565-.324.311-.4l.025-.057h1.105l-.013.051a2.1 2.1 0 0 1-.317.679 2.5 2.5 0 0 1-.578.59 3 3 0 0 1-.844.419 3.6 3.6 0 0 1-1.086.153m7.065-.07q-1.053 0-1.529-.426-.47-.425-.47-1.402v-4.152h-1.079v-.914h1.079v-1.771h1.142v1.771h1.498v.914h-1.498v3.872q0 .603.229.87.228.26.762.26.146 0 .247-.006.108-.006.26-.019v.939a8 8 0 0 1-.317.045 3 3 0 0 1-.324.019m4.171.07q-.648 0-1.168-.248a2 2 0 0 1-.819-.705q-.298-.456-.298-1.079v-.012q0-.915.647-1.429.654-.52 1.847-.59l2.514-.152v.882l-2.38.152q-.781.045-1.143.324-.356.28-.356.787v.013q0 .52.394.812.394.286.99.286.565 0 1.003-.222a1.76 1.76 0 0 0 .686-.616q.254-.387.254-.876v-2.133q0-.634-.388-.964-.38-.337-1.148-.337-.616 0-1.01.222a1.08 1.08 0 0 0-.527.616l-.006.019h-1.104l.006-.038q.089-.54.444-.939.362-.407.933-.629a3.5 3.5 0 0 1 1.302-.228q.837 0 1.415.273.584.273.882.787.306.507.305 1.218V145h-1.104v-1.009h-.102a2.3 2.3 0 0 1-1.219 1.003 2.7 2.7 0 0 1-.85.127m5.319-.121v-6.843h1.105V145zm.559-8.163a.75.75 0 0 1-.54-.222.75.75 0 0 1-.222-.54q0-.317.222-.539a.75.75 0 0 1 .54-.223q.317 0 .539.223a.73.73 0 0 1 .222.539.75.75 0 0 1-.222.54.73.73 0 0 1-.539.222m2.691 8.163v-9.56h1.105V145zm5.573.121a3.7 3.7 0 0 1-1.345-.229 2.34 2.34 0 0 1-.94-.654 1.8 1.8 0 0 1-.412-.984h1.129q.141.425.546.686.407.26 1.06.26.463 0 .813-.133.355-.14.559-.375a.83.83 0 0 0 .203-.552v-.013a.75.75 0 0 0-.28-.59q-.28-.247-.914-.4l-1.06-.254q-.958-.228-1.409-.666-.45-.444-.451-1.181v-.006q0-.572.33-1.022.337-.452.915-.711.577-.26 1.301-.26.717 0 1.269.228.56.222.895.635.344.413.419.971h-1.085a1.12 1.12 0 0 0-.495-.66q-.387-.254-1.01-.254-.406 0-.723.133a1.2 1.2 0 0 0-.502.356.83.83 0 0 0-.184.533v.013a.72.72 0 0 0 .273.577q.273.23.876.375l1.054.254q.964.234 1.434.673.477.438.477 1.174v.013q0 .61-.362 1.079-.362.464-.984.723a3.55 3.55 0 0 1-1.397.261m10.544-.07q-1.055 0-1.53-.426-.47-.425-.47-1.402v-4.152h-1.079v-.914h1.079v-1.771h1.143v1.771h1.498v.914h-1.498v3.872q0 .603.228.87.23.26.762.26.146 0 .248-.006.108-.006.26-.019v.939a9 9 0 0 1-.317.045 3 3 0 0 1-.324.019m5.014.07q-.97 0-1.682-.426a2.9 2.9 0 0 1-1.091-1.225q-.381-.793-.381-1.885v-.013q0-1.098.381-1.891a2.84 2.84 0 0 1 1.091-1.219q.711-.425 1.682-.425.978 0 1.683.425.704.425 1.085 1.219.387.793.387 1.891v.013q0 1.092-.387 1.885a2.84 2.84 0 0 1-1.085 1.225q-.705.426-1.683.426m0-.978q.648 0 1.099-.305.45-.304.685-.876.241-.57.241-1.377v-.013q0-.812-.241-1.384-.235-.57-.685-.869-.451-.305-1.099-.305t-1.098.305q-.45.299-.692.869-.234.572-.234 1.384v.013q0 .806.234 1.377.242.572.692.876.451.305 1.098.305m11.344 3.269q-.825 0-1.441-.235-.616-.228-.984-.654a1.93 1.93 0 0 1-.451-.977l.013-.006h1.143l.006.006q.089.387.533.635.444.254 1.181.254.92 0 1.434-.419.52-.413.521-1.168v-1.384h-.102a2.32 2.32 0 0 1-1.269 1.047 2.8 2.8 0 0 1-.876.134q-.882 0-1.53-.419a2.8 2.8 0 0 1-.99-1.168q-.35-.744-.349-1.702v-.012q0-.959.349-1.701a2.8 2.8 0 0 1 1.003-1.175q.647-.43 1.542-.431.483 0 .889.152t.717.432q.317.279.527.666h.076v-1.13h1.105v6.748q0 .762-.375 1.326-.368.565-1.054.87-.685.31-1.618.311m-.051-3.745q.635 0 1.085-.292.458-.299.699-.819.247-.52.247-1.2v-.012q0-.68-.247-1.206a1.9 1.9 0 0 0-.699-.826q-.45-.298-1.085-.298t-1.079.298a1.9 1.9 0 0 0-.673.826 3 3 0 0 0-.229 1.206v.012q0 .68.229 1.2.235.52.673.819.444.292 1.079.292m7.947 1.454q-.977 0-1.682-.432a2.86 2.86 0 0 1-1.079-1.219q-.375-.794-.375-1.866v-.006q0-1.06.375-1.86.38-.8 1.073-1.251.692-.45 1.618-.45.934 0 1.6.431.673.432 1.028 1.206.363.768.362 1.79v.432h-5.484v-.882h4.919l-.546.806v-.438q0-.807-.241-1.327t-.666-.774a1.83 1.83 0 0 0-.978-.26q-.552 0-.99.272-.432.267-.686.794t-.254 1.295v.438q0 .73.248 1.25.248.515.704.794.458.273 1.08.273.463 0 .806-.127.342-.127.565-.324.221-.196.311-.4l.025-.057h1.105l-.013.051a2.1 2.1 0 0 1-.317.679 2.5 2.5 0 0 1-.578.59 3 3 0 0 1-.844.419 3.6 3.6 0 0 1-1.086.153m7.065-.07q-1.053 0-1.53-.426-.47-.425-.469-1.402v-4.152h-1.079v-.914h1.079v-1.771h1.142v1.771h1.498v.914h-1.498v3.872q0 .603.229.87.228.26.761.26.147 0 .248-.006.108-.006.26-.019v.939a9 9 0 0 1-.317.045 3 3 0 0 1-.324.019m8.297.07q-.762 0-1.346-.229a2.35 2.35 0 0 1-.94-.654 1.8 1.8 0 0 1-.412-.984h1.13q.14.425.546.686.405.26 1.06.26.463 0 .812-.133.355-.14.559-.375a.83.83 0 0 0 .203-.552v-.013a.75.75 0 0 0-.279-.59q-.28-.247-.915-.4l-1.06-.254q-.958-.228-1.409-.666-.45-.444-.45-1.181v-.006q0-.572.33-1.022.336-.452.914-.711.578-.26 1.301-.26.717 0 1.269.228.559.222.896.635.343.413.418.971h-1.085a1.12 1.12 0 0 0-.495-.66q-.387-.254-1.009-.254-.406 0-.724.133a1.2 1.2 0 0 0-.501.356.82.82 0 0 0-.185.533v.013a.72.72 0 0 0 .273.577q.273.23.876.375l1.054.254q.964.234 1.435.673.476.438.476 1.174v.013q0 .61-.362 1.079-.361.464-.984.723-.615.261-1.396.261m6.823-.07q-1.053 0-1.53-.426-.47-.425-.469-1.402v-4.152h-1.079v-.914h1.079v-1.771h1.142v1.771h1.498v.914h-1.498v3.872q0 .603.229.87.228.26.762.26.145 0 .247-.006.108-.006.26-.019v.939a8 8 0 0 1-.317.045 3 3 0 0 1-.324.019m4.171.07q-.648 0-1.168-.248a2 2 0 0 1-.819-.705q-.298-.456-.298-1.079v-.012q0-.915.647-1.429.654-.52 1.847-.59l2.514-.152v.882l-2.381.152q-.78.045-1.142.324-.356.28-.356.787v.013q0 .52.394.812.393.286.99.286.565 0 1.003-.222a1.76 1.76 0 0 0 .686-.616q.254-.387.254-.876v-2.133q0-.634-.388-.964-.381-.337-1.149-.337-.615 0-1.009.222a1.08 1.08 0 0 0-.527.616l-.006.019h-1.105l.007-.038q.089-.54.444-.939.362-.407.933-.629a3.5 3.5 0 0 1 1.302-.228q.837 0 1.415.273.584.273.882.787.305.507.305 1.218V145h-1.104v-1.009h-.102a2.3 2.3 0 0 1-1.219 1.003 2.7 2.7 0 0 1-.85.127m5.294-.121v-6.843h1.104v1.016h.102a1.62 1.62 0 0 1 .666-.838q.47-.298 1.162-.298.159 0 .311.019.159.013.241.025v1.073a3 3 0 0 0-.336-.045 3 3 0 0 0-.343-.019q-.526 0-.933.21a1.6 1.6 0 0 0-.641.584 1.64 1.64 0 0 0-.229.876V145zm7.763.051q-1.054 0-1.53-.426-.47-.425-.47-1.402v-4.152h-1.079v-.914h1.079v-1.771h1.143v1.771h1.498v.914h-1.498v3.872q0 .603.228.87.23.26.762.26.146 0 .248-.006.108-.006.26-.019v.939a9 9 0 0 1-.317.045 3 3 0 0 1-.324.019m4.995.07q-.977 0-1.682-.432a2.86 2.86 0 0 1-1.079-1.219q-.374-.794-.374-1.866v-.006q0-1.06.374-1.86.381-.8 1.073-1.251t1.619-.45q.933 0 1.599.431.673.432 1.029 1.206.361.768.361 1.79v.432h-5.484v-.882h4.919l-.546.806v-.438q0-.807-.241-1.327t-.666-.774a1.83 1.83 0 0 0-.978-.26q-.552 0-.99.272-.432.267-.686.794-.253.527-.253 1.295v.438q0 .73.247 1.25.248.515.705.794.456.273 1.079.273.463 0 .806-.127.342-.127.565-.324.222-.196.311-.4l.025-.057h1.105l-.013.051a2.1 2.1 0 0 1-.317.679 2.5 2.5 0 0 1-.578.59 3 3 0 0 1-.844.419 3.6 3.6 0 0 1-1.086.153m7.161 0q-.864 0-1.511-.438-.648-.438-1.003-1.232-.356-.8-.356-1.866v-.013q0-1.072.356-1.866.356-.793.996-1.231.648-.438 1.518-.438a2.5 2.5 0 0 1 1.275.33q.579.324.857.869h.102v-3.796h1.104V145h-1.104v-1.092h-.102a2.3 2.3 0 0 1-.863.895 2.5 2.5 0 0 1-1.269.318m.253-.978q.623 0 1.073-.311.451-.31.692-.882.241-.577.241-1.365v-.013q0-.794-.241-1.364a1.97 1.97 0 0 0-.692-.883q-.45-.31-1.073-.311-.621 0-1.072.311-.445.305-.686.876-.235.571-.235 1.371v.013q0 .793.235 1.371.241.572.686.882.45.305 1.072.305m6.107.92a.8.8 0 0 1-.584-.241.8.8 0 0 1-.241-.584q0-.342.241-.584a.8.8 0 0 1 .584-.241q.342 0 .584.241a.8.8 0 0 1 .241.584q0 .337-.241.584a.8.8 0 0 1-.584.241"/><g filter="url(#d)"><rect width="156" height="30" x="70" y="181" fill="#fff" rx="6"/><g clip-path="url(#e)"><path fill="#42434d" d="M111.505 196.01c-.16-4.124 3.528-7.936 7.742-7.985 2.147-.18 4.237.637 5.862 1.97a37 37 0 0 1-2.069 2.093c-1.431-.852-3.154-1.501-4.827-.924-2.697.752-4.33 3.872-3.332 6.458.826 2.7 4.179 4.182 6.806 3.047 1.36-.477 2.257-1.707 2.65-3.028-1.559-.03-3.118-.011-4.677-.054q-.008-1.361-.004-2.722c2.6-.004 5.204-.012 7.808.011.16 2.227-.176 4.61-1.653 6.397-2.023 2.551-5.761 3.3-8.802 2.299-3.227-1.039-5.574-4.224-5.504-7.562"/></g><path fill="#42434d" d="M144.515 201.222q-1.302 0-2.254-.584t-1.472-1.663q-.515-1.085-.515-2.552v-.012q0-1.46.521-2.533.52-1.079 1.473-1.67.951-.59 2.228-.59 1.041 0 1.859.368.82.369 1.346 1.035.527.66.692 1.549l.006.063h-1.428l-.019-.063q-.242-.813-.882-1.251-.635-.438-1.574-.438-.844 0-1.467.432-.621.432-.965 1.225-.336.788-.336 1.866v.013q0 1.092.343 1.892.342.793.971 1.225.628.425 1.485.425.75 0 1.314-.292.571-.298.889-.825.317-.527.324-1.232l.006-.203h-2.355v-1.149h3.764v1.137q0 1.161-.489 2.024a3.4 3.4 0 0 1-1.377 1.333q-.889.47-2.088.47m8.671-.089q-1.01 0-1.746-.431a2.87 2.87 0 0 1-1.124-1.232q-.393-.806-.393-1.91v-.013q0-1.112.393-1.911a2.9 2.9 0 0 1 1.13-1.231q.737-.432 1.74-.432 1.008 0 1.739.432.73.425 1.123 1.231.4.8.4 1.911v.013q0 1.104-.4 1.91a2.86 2.86 0 0 1-1.123 1.232q-.724.43-1.739.431m0-1.155q.59 0 1.002-.286.413-.291.629-.831t.216-1.301v-.013q0-.768-.216-1.308t-.629-.825q-.413-.292-1.002-.292-.59 0-1.003.292-.413.286-.635.825-.216.54-.216 1.308v.013q0 .76.216 1.301.222.54.635.831.412.286 1.003.286m7.82 1.155q-1.01 0-1.746-.431a2.86 2.86 0 0 1-1.123-1.232q-.394-.806-.394-1.91v-.013q0-1.112.394-1.911a2.9 2.9 0 0 1 1.13-1.231q.735-.432 1.739-.432 1.009 0 1.739.432.73.425 1.124 1.231.4.8.4 1.911v.013q0 1.104-.4 1.91a2.87 2.87 0 0 1-1.124 1.232q-.723.43-1.739.431m0-1.155q.59 0 1.003-.286.412-.291.628-.831t.216-1.301v-.013q0-.768-.216-1.308t-.628-.825q-.413-.292-1.003-.292t-1.003.292q-.413.286-.635.825-.216.54-.216 1.308v.013q0 .76.216 1.301.222.54.635.831.412.286 1.003.286m7.814 3.453q-.876 0-1.524-.241-.641-.241-1.015-.673a1.9 1.9 0 0 1-.457-1.003l.006-.013h1.397l.006.013q.089.356.501.584t1.105.229q.85 0 1.327-.388.482-.387.482-1.085v-1.352h-.108a2.2 2.2 0 0 1-.52.635 2.2 2.2 0 0 1-.724.393 2.8 2.8 0 0 1-.882.134q-.876 0-1.524-.419a2.8 2.8 0 0 1-.99-1.168q-.343-.75-.343-1.721v-.012q0-.984.349-1.74.35-.76.997-1.187.647-.43 1.542-.431.483 0 .883.152.406.153.717.432t.514.666h.083v-1.13h1.377v6.754q0 .781-.394 1.359-.387.577-1.104.895-.717.317-1.701.317m-.019-3.91q.583 0 1.003-.273.419-.279.641-.768.228-.489.228-1.13v-.013q0-.634-.228-1.129a1.8 1.8 0 0 0-.641-.775q-.42-.279-1.003-.279-.585 0-.997.279a1.77 1.77 0 0 0-.622.775 2.8 2.8 0 0 0-.216 1.129v.013q0 .641.216 1.13t.622.768q.412.273.997.273m5.268 1.479v-9.598h1.378V201zm6.323.133q-1.01 0-1.733-.431a2.9 2.9 0 0 1-1.117-1.238q-.388-.8-.388-1.892v-.006q0-1.079.388-1.885.393-.807 1.104-1.257.717-.451 1.676-.451.964 0 1.657.432.698.432 1.072 1.212.375.774.375 1.816v.482h-5.573v-.984h4.887l-.66.914v-.552q0-.736-.228-1.219-.223-.489-.616-.73a1.7 1.7 0 0 0-.908-.241q-.514 0-.92.254-.4.247-.635.736-.228.489-.229 1.2v.552q0 .68.229 1.162.228.482.647.736.426.254 1.003.254.445 0 .762-.121a1.7 1.7 0 0 0 .527-.311q.21-.184.286-.361l.025-.051h1.333l-.013.057a2.4 2.4 0 0 1-.311.686 2.5 2.5 0 0 1-.59.615 3 3 0 0 1-.876.451 3.7 3.7 0 0 1-1.174.171"/></g><g filter="url(#f)"><rect width="156" height="30" x="234" y="181" fill="#fff" rx="6"/><g clip-path="url(#g)"><path fill="#42434d" d="M284 188.198a8 8 0 0 0-8 8 8 8 0 0 0 5.47 7.59c.4.076.547-.172.547-.384 0-.19-.007-.694-.01-1.36-2.226.482-2.695-1.074-2.695-1.074-.364-.923-.89-1.17-.89-1.17-.725-.496.056-.486.056-.486.803.056 1.225.824 1.225.824.714 1.224 1.873.87 2.33.666.072-.518.278-.87.507-1.07-1.777-.2-3.644-.888-3.644-3.954 0-.873.31-1.586.823-2.146-.09-.202-.36-1.016.07-2.118 0 0 .67-.214 2.2.82a7.7 7.7 0 0 1 2-.27 7.7 7.7 0 0 1 2 .27c1.52-1.034 2.19-.82 2.19-.82.43 1.102.16 1.916.08 2.118.51.56.82 1.273.82 2.146 0 3.074-1.87 3.75-3.65 3.947.28.24.54.731.54 1.48 0 1.071-.01 1.931-.01 2.191 0 .21.14.46.55.38a7.97 7.97 0 0 0 5.491-7.58 8 8 0 0 0-8-8"/></g><path fill="#42434d" d="M309.015 201.222q-1.302 0-2.254-.584t-1.472-1.663q-.515-1.085-.515-2.552v-.012q0-1.46.521-2.533.52-1.079 1.473-1.67.951-.59 2.228-.59 1.041 0 1.859.368.82.369 1.346 1.035.527.66.692 1.549l.006.063h-1.428l-.019-.063q-.241-.813-.882-1.251-.635-.438-1.574-.438-.845 0-1.467.432-.621.432-.965 1.225-.336.788-.336 1.866v.013q0 1.092.343 1.892.342.793.971 1.225.628.425 1.485.425.75 0 1.314-.292.571-.298.889-.825.317-.527.324-1.232l.006-.203h-2.355v-1.149h3.764v1.137q0 1.161-.489 2.024a3.4 3.4 0 0 1-1.377 1.333q-.889.47-2.088.47m5.77-.222v-6.894h1.383V201zm.698-8.125a.83.83 0 0 1-.609-.254.83.83 0 0 1-.254-.609q0-.356.254-.603a.83.83 0 0 1 .609-.254q.356 0 .609.254.255.248.254.603 0 .356-.254.609a.83.83 0 0 1-.609.254m5.288 8.169q-1.131 0-1.638-.431-.502-.438-.502-1.428v-3.993h-1.079v-1.086h1.079v-1.739h1.41v1.739h1.479v1.086h-1.479v3.656q0 .559.222.806.222.242.736.242.152 0 .26-.007.114-.006.261-.019v1.105q-.165.025-.356.044a3 3 0 0 1-.393.025m2.52-.044v-9.16h1.421v3.872h4.698v-3.872h1.428V201h-1.428v-4.056h-4.698V201zm11.99.133q-.774 0-1.307-.298a1.92 1.92 0 0 1-.794-.876q-.26-.577-.26-1.39v-4.463h1.377v4.139q0 .85.337 1.276.336.425 1.098.425.546 0 .92-.216a1.4 1.4 0 0 0 .572-.622q.19-.406.19-.958v-4.044h1.384V201h-1.384v-1.041h-.102a1.9 1.9 0 0 1-.761.863q-.514.311-1.27.311m9.166-.019q-.723 0-1.269-.317a2.2 2.2 0 0 1-.851-.882h-.108V201h-1.377v-9.598h1.377v3.796h.108a2.03 2.03 0 0 1 .838-.882q.571-.33 1.282-.33.876 0 1.517.438.642.432.991 1.231t.349 1.892v.013q0 1.085-.356 1.885-.35.8-.99 1.238-.64.43-1.511.431m-.393-1.18q.577 0 .99-.286.412-.285.628-.819.223-.533.223-1.269v-.013q0-.742-.223-1.27a1.8 1.8 0 0 0-.628-.819q-.412-.291-.99-.291-.571 0-.991.291a1.8 1.8 0 0 0-.641.819q-.222.534-.222 1.27v.013q0 .729.222 1.269.222.534.641.819.42.286.991.286"/></g><path stroke="#eeeef0" d="M70 244h137.5"/><path fill="#5e5f6e" d="M227.34 249.121q-.97 0-1.682-.426a2.9 2.9 0 0 1-1.092-1.225q-.38-.793-.38-1.885v-.013q0-1.098.38-1.891a2.84 2.84 0 0 1 1.092-1.219q.711-.425 1.682-.425.978 0 1.682.425.705.425 1.086 1.219.387.793.387 1.891v.013q0 1.092-.387 1.885a2.83 2.83 0 0 1-1.086 1.225q-.704.426-1.682.426m0-.978q.648 0 1.098-.305.451-.304.686-.876.241-.57.241-1.377v-.013q0-.812-.241-1.384-.235-.57-.686-.869-.45-.305-1.098-.305-.647 0-1.098.305-.45.299-.692.869-.235.572-.235 1.384v.013q0 .806.235 1.377.242.572.692.876.451.305 1.098.305m4.869.857v-6.843h1.104v1.016h.102q.196-.54.667-.838.47-.298 1.161-.298.16 0 .311.019.159.012.241.025v1.073a3 3 0 0 0-.336-.045 3 3 0 0 0-.343-.019q-.526 0-.933.21a1.6 1.6 0 0 0-.641.584 1.65 1.65 0 0 0-.229.876V249z"/><path stroke="#eeeef0" d="M252.5 244H390"/><path fill="#212126" d="M71.149 291v-9.16h5.72v1.232H72.57v2.894h3.935v1.2H72.57V291zm7.427 0v-6.894h1.384V291zm.698-8.125a.83.83 0 0 1-.61-.254.83.83 0 0 1-.253-.609.8.8 0 0 1 .254-.603.83.83 0 0 1 .609-.254q.355 0 .61.254a.8.8 0 0 1 .253.603.83.83 0 0 1-.254.609.83.83 0 0 1-.61.254M81.959 291v-6.894h1.377v1.041h.108q.185-.552.648-.856.47-.305 1.155-.305a3 3 0 0 1 .603.063v1.27a3.4 3.4 0 0 0-.743-.076q-.526 0-.926.203-.394.203-.622.571a1.6 1.6 0 0 0-.223.863V291zm7.585.133q-.83 0-1.447-.241-.615-.247-.977-.679a1.9 1.9 0 0 1-.426-1.016v-.012h1.384v.012q.133.387.508.629.375.24.99.241.425 0 .743-.121.324-.12.508-.336a.74.74 0 0 0 .184-.495v-.013a.69.69 0 0 0-.26-.546q-.261-.222-.857-.362l-1.105-.254q-.971-.222-1.44-.679-.464-.463-.464-1.219v-.006q0-.603.343-1.066.342-.47.945-.73.61-.267 1.39-.267.787 0 1.372.248.59.241.933.673.343.424.406.99v.006h-1.32v-.013q-.096-.361-.457-.603-.355-.24-.94-.241-.375 0-.666.121a1.1 1.1 0 0 0-.464.324.74.74 0 0 0-.165.482v.013q0 .323.254.533.255.21.832.349l1.098.248q.99.234 1.472.679.49.444.49 1.193v.013q0 .634-.375 1.123-.374.483-1.022.756-.641.266-1.467.266m7.053-.089q-1.131 0-1.638-.431-.501-.438-.502-1.428v-3.993h-1.079v-1.086h1.08v-1.739h1.409v1.739h1.479v1.086h-1.48v3.656q0 .559.223.806.222.242.736.242.153 0 .26-.007.115-.006.26-.019v1.105q-.165.025-.355.044a3 3 0 0 1-.393.025M102.5 291v-6.894h1.377v1.041h.108a1.97 1.97 0 0 1 .749-.863q.495-.31 1.251-.311 1.162 0 1.777.667.616.666.616 1.898V291h-1.384v-4.139q0-.863-.362-1.282-.355-.425-1.117-.425a1.65 1.65 0 0 0-.869.222 1.46 1.46 0 0 0-.572.622q-.197.4-.197.959V291zm9.687.114q-.654 0-1.175-.247a2 2 0 0 1-.812-.718 1.96 1.96 0 0 1-.299-1.085v-.013q0-.927.667-1.447.672-.526 1.904-.603l2.546-.152v.971l-2.355.152q-.71.044-1.048.305-.336.254-.336.717v.013q0 .47.362.743.362.266.914.266a2 2 0 0 0 .914-.203q.406-.21.635-.559.228-.355.228-.799v-2.171q0-.572-.355-.87-.35-.305-1.041-.305-.579 0-.946.203a1 1 0 0 0-.483.572l-.012.019h-1.327l.006-.045q.083-.57.451-.99.375-.425.978-.66a3.8 3.8 0 0 1 1.39-.235q.869 0 1.472.279.61.273.921.794.317.514.317 1.238V291h-1.371v-.978h-.102a2.2 2.2 0 0 1-.507.597 2.2 2.2 0 0 1-.692.368q-.388.127-.844.127m5.459-.114v-6.894h1.377v1.061h.108q.228-.571.711-.883.489-.31 1.168-.311.47 0 .844.152.374.153.641.432.273.273.425.648h.108q.172-.375.483-.648a2.2 2.2 0 0 1 .723-.432q.42-.152.889-.152.699 0 1.193.273.495.267.756.775.26.507.26 1.225V291h-1.377v-4.424q0-.711-.33-1.067-.325-.355-.997-.355-.438 0-.768.203a1.4 1.4 0 0 0-.508.533 1.56 1.56 0 0 0-.178.749V291h-1.377v-4.564q0-.591-.362-.933-.356-.35-.965-.349-.412 0-.742.216a1.53 1.53 0 0 0-.515.584q-.19.362-.19.812V291zm14.51.133q-1.009 0-1.733-.431a2.9 2.9 0 0 1-1.117-1.238q-.387-.8-.387-1.892v-.006q0-1.079.387-1.885a3 3 0 0 1 1.105-1.257q.717-.451 1.675-.451.966 0 1.657.432.698.432 1.073 1.212.374.775.374 1.816v.482h-5.573v-.984h4.888l-.66.914v-.552q0-.736-.229-1.219-.222-.489-.616-.73a1.7 1.7 0 0 0-.907-.241q-.514 0-.921.254-.4.247-.634.736-.23.489-.229 1.2v.552q0 .68.229 1.162.228.482.647.736.426.254 1.003.254.444 0 .762-.121a1.7 1.7 0 0 0 .527-.311q.209-.184.285-.361l.026-.051h1.333l-.013.057a2.4 2.4 0 0 1-.311.686 2.5 2.5 0 0 1-.59.615 3 3 0 0 1-.876.451q-.508.171-1.175.171"/><path fill="#747686" d="M181.275 290.188q-1.128 0-1.939-.494a3.27 3.27 0 0 1-1.246-1.413q-.435-.912-.435-2.154v-.01q0-1.252.441-2.159a3.25 3.25 0 0 1 1.251-1.402q.816-.494 1.928-.494 1.118 0 1.929.494.81.493 1.246 1.407.44.908.44 2.154v.01q0 1.242-.435 2.154a3.26 3.26 0 0 1-1.251 1.407q-.811.5-1.929.5m0-1.069q.73 0 1.268-.37.537-.372.827-1.042.29-.678.29-1.58v-.01q0-.913-.29-1.585t-.827-1.036q-.537-.366-1.268-.366-.73 0-1.267.366-.532.365-.827 1.036-.296.672-.296 1.585v.01q0 .902.285 1.58.29.67.822 1.042.537.37 1.283.37m5.114 2.825v-7.777h1.165v.918h.092a1.8 1.8 0 0 1 1.042-.897q.343-.123.751-.123.736 0 1.279.376.542.37.838 1.047.3.672.3 1.59v.011q0 .924-.295 1.6a2.4 2.4 0 0 1-.838 1.042q-.542.366-1.284.366-.403 0-.751-.124a2.1 2.1 0 0 1-.618-.354 1.65 1.65 0 0 1-.424-.543h-.092v2.868zm2.717-2.846q.49 0 .838-.242.35-.241.532-.693.188-.452.188-1.074v-.011q0-.629-.188-1.079a1.5 1.5 0 0 0-.532-.693 1.44 1.44 0 0 0-.838-.242q-.483 0-.837.247a1.5 1.5 0 0 0-.543.693q-.188.445-.188 1.074v.011q0 .618.188 1.069t.543.698q.354.242.837.242m6.349.94q-.956 0-1.386-.366-.424-.37-.424-1.208v-3.379h-.913v-.918h.913v-1.472h1.192v1.472h1.252v.918h-1.252v3.094q0 .473.188.682.189.204.623.204.13 0 .221-.005l.22-.016v.935a6 6 0 0 1-.634.059m2.014-.038v-5.833h1.171V290zm.591-6.875a.7.7 0 0 1-.516-.215.7.7 0 0 1-.214-.515q0-.301.214-.511a.7.7 0 0 1 .516-.215q.3 0 .516.215.215.21.215.511 0 .3-.215.515a.7.7 0 0 1-.516.215m4.743 6.988q-.855 0-1.477-.365a2.4 2.4 0 0 1-.951-1.042q-.333-.683-.333-1.617v-.011q0-.94.333-1.617.339-.676.956-1.042.623-.365 1.472-.365.854 0 1.471.365.618.36.951 1.042.338.677.338 1.617v.011q0 .935-.338 1.617a2.4 2.4 0 0 1-.951 1.042q-.612.365-1.471.365m0-.978q.5 0 .848-.241.35-.248.532-.704t.183-1.101v-.011q0-.65-.183-1.106a1.5 1.5 0 0 0-.532-.699 1.43 1.43 0 0 0-.848-.247q-.5 0-.849.247a1.53 1.53 0 0 0-.537.699q-.183.456-.183 1.106v.011q0 .645.183 1.101.187.456.537.704.35.241.849.241m4.146.865v-5.833h1.166v.881h.091q.215-.467.634-.731t1.058-.263q.983 0 1.504.564.52.564.521 1.606V290h-1.171v-3.502q0-.73-.306-1.085-.301-.36-.946-.36-.424 0-.735.188a1.23 1.23 0 0 0-.484.527 1.8 1.8 0 0 0-.166.811V290zm8.197.097a2.3 2.3 0 0 1-.994-.21 1.7 1.7 0 0 1-.688-.607 1.66 1.66 0 0 1-.252-.918v-.011q0-.784.564-1.225.57-.446 1.611-.51l2.154-.129v.822l-1.993.129q-.601.038-.886.258-.285.214-.285.607v.01q0 .398.307.629.306.225.773.225.435 0 .773-.171.345-.178.538-.473.192-.301.193-.677v-1.837q0-.483-.301-.736-.295-.257-.881-.257-.488 0-.8.172a.84.84 0 0 0-.408.483l-.011.016h-1.122l.005-.038q.07-.483.381-.837.317-.36.827-.559a3.3 3.3 0 0 1 1.177-.199q.736 0 1.246.237.515.23.779.671.268.435.268 1.047V290h-1.16v-.827h-.086a1.8 1.8 0 0 1-.43.505q-.258.204-.585.311a2.3 2.3 0 0 1-.714.108m4.672-.097v-8.121h1.166V290z"/><g filter="url(#h)"><rect width="152" height="32" x="70" y="303" fill="#fff" rx="6"/></g><path fill="#212126" d="M239.149 291v-9.16h1.422v7.929h4.297V291zm9.248.114q-.653 0-1.174-.247a2 2 0 0 1-.812-.718 1.96 1.96 0 0 1-.299-1.085v-.013q0-.927.667-1.447.672-.526 1.904-.603l2.546-.152v.971l-2.355.152q-.712.044-1.048.305-.336.254-.336.717v.013q0 .47.362.743.361.266.914.266a2 2 0 0 0 .914-.203q.406-.21.634-.559a1.44 1.44 0 0 0 .229-.799v-2.171q0-.572-.355-.87-.35-.305-1.042-.305-.577 0-.945.203a1 1 0 0 0-.483.572l-.012.019h-1.327l.006-.045a1.87 1.87 0 0 1 .451-.99q.374-.425.977-.66.61-.235 1.391-.235.869 0 1.472.279.61.273.921.794.317.514.317 1.238V291h-1.371v-.978h-.102a2.2 2.2 0 0 1-.507.597 2.2 2.2 0 0 1-.692.368q-.387.127-.845.127m7.967.019q-.832 0-1.447-.241-.617-.247-.978-.679a1.9 1.9 0 0 1-.425-1.016v-.012h1.383v.012q.134.387.508.629.375.24.991.241.425 0 .742-.121.324-.12.508-.336a.74.74 0 0 0 .184-.495v-.013a.7.7 0 0 0-.26-.546q-.26-.222-.857-.362l-1.105-.254q-.97-.222-1.441-.679-.463-.463-.463-1.219v-.006q0-.603.343-1.066a2.23 2.23 0 0 1 .946-.73 3.4 3.4 0 0 1 1.39-.267q.788 0 1.371.248.59.241.933.673.343.424.406.99v.006h-1.32v-.013q-.096-.361-.457-.603-.355-.24-.94-.241-.374 0-.666.121a1.1 1.1 0 0 0-.463.324.74.74 0 0 0-.165.482v.013q0 .323.253.533.255.21.832.349l1.098.248q.99.234 1.473.679.489.444.489 1.193v.013q0 .634-.375 1.123-.374.483-1.022.756-.64.266-1.466.266m7.052-.089q-1.13 0-1.638-.431-.501-.438-.501-1.428v-3.993h-1.079v-1.086h1.079v-1.739h1.409v1.739h1.479v1.086h-1.479v3.656q0 .559.222.806.222.242.737.242a5 5 0 0 0 .52-.026v1.105a7 7 0 0 1-.355.044 3 3 0 0 1-.394.025m5.903-.044v-6.894h1.378v1.041h.108q.254-.551.749-.863.495-.31 1.25-.311 1.162 0 1.778.667.615.666.615 1.898V291h-1.384v-4.139q0-.863-.361-1.282-.356-.425-1.118-.425a1.65 1.65 0 0 0-.869.222 1.45 1.45 0 0 0-.571.622q-.197.4-.197.959V291zm9.687.114a2.7 2.7 0 0 1-1.174-.247 2 2 0 0 1-.813-.718 1.96 1.96 0 0 1-.298-1.085v-.013q0-.927.666-1.447.674-.526 1.905-.603l2.545-.152v.971l-2.355.152q-.711.044-1.047.305-.337.254-.337.717v.013q0 .47.362.743.362.266.914.266.514 0 .914-.203.407-.21.635-.559.228-.355.228-.799v-2.171q0-.572-.355-.87-.35-.305-1.041-.305-.577 0-.946.203a1 1 0 0 0-.482.572l-.013.019h-1.327l.007-.045q.082-.57.45-.99.375-.425.978-.66.61-.235 1.39-.235.87 0 1.473.279.61.273.92.794.318.514.317 1.238V291h-1.371v-.978h-.101a2.2 2.2 0 0 1-.508.597 2.2 2.2 0 0 1-.692.368 2.7 2.7 0 0 1-.844.127m5.459-.114v-6.894h1.377v1.061h.108q.23-.571.711-.883.489-.31 1.168-.311.47 0 .844.152.375.153.641.432.273.273.426.648h.108q.171-.375.482-.648.311-.279.724-.432.418-.152.888-.152.699 0 1.194.273.495.267.755.775.26.507.26 1.225V291h-1.377v-4.424q0-.711-.33-1.067-.324-.355-.997-.355-.438 0-.768.203a1.4 1.4 0 0 0-.508.533 1.56 1.56 0 0 0-.177.749V291h-1.378v-4.564q0-.591-.362-.933-.355-.35-.964-.349-.414 0-.743.216a1.5 1.5 0 0 0-.514.584 1.7 1.7 0 0 0-.191.812V291zm14.511.133q-1.01 0-1.733-.431a2.9 2.9 0 0 1-1.118-1.238q-.387-.8-.387-1.892v-.006q0-1.079.387-1.885a3 3 0 0 1 1.105-1.257q.717-.451 1.676-.451.964 0 1.656.432a2.8 2.8 0 0 1 1.073 1.212q.375.775.375 1.816v.482h-5.573v-.984h4.887l-.66.914v-.552q0-.736-.228-1.219-.223-.489-.616-.73a1.7 1.7 0 0 0-.908-.241q-.514 0-.92.254-.4.247-.635.736-.228.489-.229 1.2v.552q0 .68.229 1.162.228.482.647.736.426.254 1.003.254.445 0 .762-.121a1.7 1.7 0 0 0 .527-.311q.21-.184.286-.361l.025-.051h1.333l-.013.057a2.4 2.4 0 0 1-.311.686 2.5 2.5 0 0 1-.59.615 3 3 0 0 1-.876.451 3.7 3.7 0 0 1-1.174.171"/><path fill="#747686" d="M349.275 290.188q-1.128 0-1.939-.494a3.27 3.27 0 0 1-1.246-1.413q-.435-.912-.435-2.154v-.01q0-1.252.441-2.159a3.25 3.25 0 0 1 1.251-1.402q.816-.494 1.928-.494 1.117 0 1.929.494.81.493 1.246 1.407.44.908.44 2.154v.01q0 1.242-.435 2.154a3.26 3.26 0 0 1-1.251 1.407q-.812.5-1.929.5m0-1.069q.73 0 1.268-.37.537-.372.827-1.042.29-.678.29-1.58v-.01q0-.913-.29-1.585t-.827-1.036q-.537-.366-1.268-.366-.73 0-1.267.366-.532.365-.827 1.036-.296.672-.296 1.585v.01q0 .902.285 1.58.29.67.822 1.042.537.37 1.283.37m5.114 2.825v-7.777h1.165v.918h.092a1.8 1.8 0 0 1 1.042-.897q.343-.123.751-.123.736 0 1.279.376.542.37.838 1.047.3.672.3 1.59v.011q0 .924-.295 1.6a2.4 2.4 0 0 1-.838 1.042q-.542.366-1.284.366-.403 0-.751-.124a2.1 2.1 0 0 1-.618-.354 1.65 1.65 0 0 1-.424-.543h-.092v2.868zm2.717-2.846q.49 0 .838-.242.35-.241.532-.693.188-.452.188-1.074v-.011q0-.629-.188-1.079a1.5 1.5 0 0 0-.532-.693 1.44 1.44 0 0 0-.838-.242q-.483 0-.837.247a1.5 1.5 0 0 0-.543.693q-.188.445-.188 1.074v.011q0 .618.188 1.069t.543.698q.354.242.837.242m6.349.94q-.955 0-1.386-.366-.424-.37-.424-1.208v-3.379h-.913v-.918h.913v-1.472h1.192v1.472h1.252v.918h-1.252v3.094q0 .473.188.682.189.204.623.204.13 0 .221-.005l.22-.016v.935a6 6 0 0 1-.634.059m2.014-.038v-5.833h1.171V290zm.591-6.875a.7.7 0 0 1-.516-.215.7.7 0 0 1-.214-.515q0-.301.214-.511a.7.7 0 0 1 .516-.215q.3 0 .516.215.215.21.215.511 0 .3-.215.515a.7.7 0 0 1-.516.215m4.743 6.988q-.855 0-1.477-.365a2.4 2.4 0 0 1-.951-1.042q-.333-.683-.333-1.617v-.011q0-.94.333-1.617.338-.676.956-1.042.623-.365 1.472-.365.854 0 1.471.365.618.36.951 1.042.338.677.338 1.617v.011q0 .935-.338 1.617a2.4 2.4 0 0 1-.951 1.042q-.612.365-1.471.365m0-.978q.5 0 .848-.241.35-.248.532-.704t.183-1.101v-.011q0-.65-.183-1.106a1.5 1.5 0 0 0-.532-.699 1.43 1.43 0 0 0-.848-.247q-.5 0-.849.247a1.53 1.53 0 0 0-.537.699q-.183.456-.183 1.106v.011q0 .645.183 1.101.188.456.537.704.35.241.849.241m4.146.865v-5.833h1.166v.881h.091q.215-.467.634-.731t1.058-.263q.983 0 1.504.564.52.564.521 1.606V290h-1.171v-3.502q0-.73-.306-1.085-.301-.36-.946-.36-.424 0-.735.188a1.23 1.23 0 0 0-.484.527 1.8 1.8 0 0 0-.166.811V290zm8.197.097a2.3 2.3 0 0 1-.994-.21 1.7 1.7 0 0 1-.688-.607 1.66 1.66 0 0 1-.252-.918v-.011q0-.784.564-1.225.57-.446 1.611-.51l2.154-.129v.822l-1.993.129q-.601.038-.886.258-.285.214-.285.607v.01q0 .398.307.629.306.225.773.225.435 0 .773-.171.345-.178.538-.473.192-.301.193-.677v-1.837q0-.483-.301-.736-.295-.257-.881-.257-.488 0-.8.172a.84.84 0 0 0-.408.483l-.011.016h-1.122l.005-.038q.07-.483.381-.837.317-.36.827-.559a3.3 3.3 0 0 1 1.177-.199q.736 0 1.246.237.515.23.779.671.268.435.268 1.047V290h-1.16v-.827h-.086a1.8 1.8 0 0 1-.43.505q-.258.204-.585.311a2.3 2.3 0 0 1-.714.108m4.672-.097v-8.121h1.166V290z"/><g filter="url(#i)"><rect width="152" height="32" x="238" y="303" fill="#fff" rx="6"/></g><path fill="#212126" d="M74.85 373.222q-1.149 0-1.98-.425a3.1 3.1 0 0 1-1.283-1.181q-.45-.762-.45-1.771v-6.005h1.427v5.897q0 .99.597 1.606.603.616 1.689.616 1.097 0 1.688-.616.59-.616.59-1.606v-5.897h1.429v6.005q0 1.01-.451 1.771a3.06 3.06 0 0 1-1.276 1.181q-.825.425-1.98.425m8.347-.089q-.832 0-1.448-.241-.615-.247-.977-.679a1.9 1.9 0 0 1-.425-1.016v-.012h1.384v.012q.133.387.507.629.375.24.99.241.426 0 .743-.121.324-.12.508-.336a.74.74 0 0 0 .184-.495v-.013a.69.69 0 0 0-.26-.546q-.261-.222-.857-.362l-1.105-.254q-.97-.222-1.44-.679-.464-.463-.464-1.219v-.006q0-.603.343-1.066.343-.47.946-.73.61-.267 1.39-.267.788 0 1.37.248.592.241.934.673.343.424.406.99v.006h-1.32v-.013q-.095-.361-.457-.603-.355-.24-.94-.241-.374 0-.666.121-.293.114-.463.324a.74.74 0 0 0-.165.482v.013q0 .323.253.533.255.21.832.349l1.098.248q.99.235 1.473.679.489.444.489 1.193v.013q0 .634-.375 1.123-.375.483-1.022.756-.64.266-1.466.266m7.395 0q-1.009 0-1.733-.431a2.9 2.9 0 0 1-1.117-1.238q-.388-.8-.388-1.892v-.006q0-1.079.388-1.885.393-.807 1.104-1.257.717-.451 1.676-.451.964 0 1.657.432.698.432 1.072 1.212.375.775.375 1.816v.482h-5.573v-.984h4.887l-.66.914v-.552q0-.736-.228-1.219-.223-.489-.616-.73a1.7 1.7 0 0 0-.908-.241q-.515 0-.92.254-.4.247-.635.736-.228.489-.228 1.2v.552q0 .68.228 1.162.229.482.648.736.424.254 1.003.254.444 0 .761-.121.324-.126.527-.311.21-.184.286-.361l.025-.051h1.333l-.013.057a2.36 2.36 0 0 1-.9 1.301 3 3 0 0 1-.877.451q-.507.171-1.174.171m4.672-.133v-6.894h1.377v1.041h.108q.185-.552.648-.856.47-.305 1.155-.305a3 3 0 0 1 .603.063v1.27a3.4 3.4 0 0 0-.743-.076q-.526 0-.927.203-.393.203-.622.571a1.6 1.6 0 0 0-.222.863V373zm5.319 0v-6.894h1.377v1.041h.108a1.97 1.97 0 0 1 .749-.863q.495-.31 1.251-.311 1.162 0 1.777.667.616.666.616 1.898V373h-1.384v-4.139q0-.863-.362-1.282-.355-.425-1.117-.425a1.65 1.65 0 0 0-.869.222 1.46 1.46 0 0 0-.572.622q-.197.4-.197.959V373zm9.687.114q-.654 0-1.175-.247a2 2 0 0 1-.812-.718 1.96 1.96 0 0 1-.299-1.085v-.013q0-.927.667-1.447.672-.526 1.904-.603l2.546-.152v.971l-2.355.152q-.71.044-1.048.305-.336.254-.336.717v.013q0 .47.362.743.362.266.914.266a2 2 0 0 0 .914-.203q.406-.21.635-.559.228-.355.228-.799v-2.171q0-.572-.355-.87-.35-.305-1.041-.305-.579 0-.946.203a1 1 0 0 0-.483.572l-.012.019h-1.327l.006-.045q.083-.57.451-.99.375-.425.978-.66a3.8 3.8 0 0 1 1.39-.235q.869 0 1.472.279.61.273.921.794.317.514.317 1.238V373h-1.371v-.978h-.102a2.2 2.2 0 0 1-.507.597 2.2 2.2 0 0 1-.692.368q-.388.127-.844.127m5.459-.114v-6.894h1.377v1.061h.108q.228-.571.711-.883.489-.31 1.168-.311.47 0 .844.152.374.153.641.432.273.273.425.648h.108q.172-.375.483-.648a2.2 2.2 0 0 1 .723-.432q.42-.152.889-.152.698 0 1.193.273.495.267.756.775.26.507.26 1.225V373h-1.377v-4.424q0-.711-.33-1.067-.324-.355-.997-.355-.438 0-.768.203a1.4 1.4 0 0 0-.508.533 1.56 1.56 0 0 0-.178.749V373h-1.377v-4.564q0-.591-.362-.933-.356-.35-.965-.349-.412 0-.742.216a1.53 1.53 0 0 0-.515.584q-.19.362-.19.812V373zm14.51.133q-1.009 0-1.733-.431a2.9 2.9 0 0 1-1.117-1.238q-.387-.8-.387-1.892v-.006q0-1.079.387-1.885a3 3 0 0 1 1.105-1.257q.717-.451 1.675-.451.966 0 1.657.432.698.432 1.073 1.212.374.775.374 1.816v.482H127.7v-.984h4.888l-.66.914v-.552q0-.736-.229-1.219-.222-.489-.616-.73a1.7 1.7 0 0 0-.907-.241q-.514 0-.921.254-.4.247-.634.736-.23.489-.229 1.2v.552q0 .68.229 1.162.228.482.647.736.426.254 1.003.254.444 0 .762-.121a1.7 1.7 0 0 0 .527-.311q.209-.184.285-.361l.026-.051h1.333l-.013.057a2.4 2.4 0 0 1-.311.686 2.5 2.5 0 0 1-.59.615 3 3 0 0 1-.876.451q-.508.171-1.175.171"/><g filter="url(#j)"><rect width="320" height="32" x="70" y="385" fill="#fff" rx="6"/></g><path fill="#212126" d="M71.149 455v-9.16h5.814v1.232h-4.392v2.672h4.157v1.181h-4.157v2.844h4.392V455zm7.712 0v-6.894h1.378v1.061h.108q.228-.571.71-.883.49-.31 1.169-.311.47 0 .844.152.375.153.64.432.275.273.426.648h.108q.171-.375.483-.648.31-.279.723-.432.42-.152.889-.152.698 0 1.193.273.495.267.756.775.26.507.26 1.225V455H87.17v-4.424q0-.711-.33-1.067-.324-.355-.996-.355a1.44 1.44 0 0 0-.768.203 1.4 1.4 0 0 0-.508.533q-.178.33-.178.749V455h-1.377v-4.564q0-.591-.362-.933-.356-.35-.965-.349-.413 0-.743.216a1.53 1.53 0 0 0-.514.584q-.19.362-.19.812V455zm13.508.114q-.654 0-1.174-.247a2 2 0 0 1-.813-.718 1.96 1.96 0 0 1-.298-1.085v-.013q0-.927.666-1.447.674-.526 1.905-.603l2.545-.152v.971l-2.355.152q-.711.044-1.047.305-.337.254-.337.717v.013q0 .47.362.743.363.266.914.266.515 0 .914-.203.407-.21.635-.559.23-.355.229-.799v-2.171q0-.572-.356-.87-.35-.305-1.04-.305-.578 0-.947.203a1 1 0 0 0-.482.572l-.013.019h-1.326l.006-.045q.083-.57.45-.99.375-.425.978-.66.61-.235 1.39-.235.87 0 1.473.279.61.273.92.794.318.514.318 1.238V455h-1.371v-.978h-.102a2.2 2.2 0 0 1-.508.597 2.2 2.2 0 0 1-.692.368q-.388.127-.844.127m5.478-.114v-6.894h1.384V455zm.698-8.125a.83.83 0 0 1-.609-.254.83.83 0 0 1-.254-.609.8.8 0 0 1 .254-.603.83.83 0 0 1 .61-.254q.355 0 .609.254a.8.8 0 0 1 .254.603.83.83 0 0 1-.254.609.83.83 0 0 1-.61.254m2.749 8.125v-9.598h1.377V455zm8.861.114a2.7 2.7 0 0 1-1.174-.247 2 2 0 0 1-.813-.718 1.97 1.97 0 0 1-.298-1.085v-.013q0-.927.667-1.447.672-.526 1.904-.603l2.545-.152v.971l-2.355.152q-.711.044-1.047.305-.336.254-.336.717v.013q0 .47.361.743.363.266.914.266a2 2 0 0 0 .915-.203q.406-.21.634-.559a1.44 1.44 0 0 0 .229-.799v-2.171q0-.572-.356-.87-.348-.305-1.041-.305-.577 0-.946.203a1 1 0 0 0-.482.572l-.013.019h-1.326l.006-.045a1.87 1.87 0 0 1 .451-.99 2.5 2.5 0 0 1 .977-.66 3.8 3.8 0 0 1 1.39-.235q.87 0 1.473.279.61.273.92.794.318.514.318 1.238V455h-1.371v-.978h-.102a2.1 2.1 0 0 1-.508.597 2.2 2.2 0 0 1-.691.368q-.388.127-.845.127m7.973 0q-.863 0-1.511-.431-.64-.438-.996-1.238-.35-.8-.35-1.885v-.013q0-1.092.35-1.892.348-.8.99-1.231.64-.438 1.517-.438.71 0 1.276.33.571.324.844.882h.102v-3.796h1.383V455h-1.383v-1.085h-.102a2.2 2.2 0 0 1-.844.882q-.546.317-1.276.317m.393-1.18q.571 0 .991-.286.419-.285.641-.819.222-.54.222-1.269v-.013q0-.736-.229-1.27a1.8 1.8 0 0 0-.641-.819 1.66 1.66 0 0 0-.984-.291q-.57 0-.99.291a1.8 1.8 0 0 0-.635.819q-.215.528-.215 1.27v.013q0 .736.215 1.269.223.534.635.819.42.286.99.286m7.77 1.18q-.863 0-1.511-.431-.64-.438-.996-1.238-.35-.8-.349-1.885v-.013q0-1.092.349-1.892t.99-1.231q.64-.438 1.517-.438.71 0 1.276.33.571.324.844.882h.102v-3.796h1.383V455h-1.383v-1.085h-.102a2.2 2.2 0 0 1-.844.882q-.546.317-1.276.317m.394-1.18q.57 0 .99-.286.419-.285.641-.819.222-.54.222-1.269v-.013q0-.736-.228-1.27a1.8 1.8 0 0 0-.642-.819 1.66 1.66 0 0 0-.983-.291q-.571 0-.991.291a1.8 1.8 0 0 0-.634.819q-.216.528-.216 1.27v.013q0 .736.216 1.269.222.534.634.819.42.286.991.286M131.94 455v-6.894h1.378v1.041h.108q.184-.552.647-.856.47-.305 1.156-.305a3 3 0 0 1 .603.063v1.27a3.4 3.4 0 0 0-.743-.076q-.526 0-.927.203-.393.203-.622.571a1.6 1.6 0 0 0-.222.863V455zm7.935.133q-1.009 0-1.733-.431a2.9 2.9 0 0 1-1.117-1.238q-.387-.8-.387-1.892v-.006q0-1.079.387-1.885.393-.807 1.104-1.257.718-.451 1.676-.451.965 0 1.657.432.698.432 1.073 1.212.374.775.374 1.816v.482h-5.573v-.984h4.888l-.661.914v-.552q0-.736-.228-1.219-.222-.489-.616-.73a1.7 1.7 0 0 0-.907-.241q-.514 0-.921.254a1.7 1.7 0 0 0-.635.736q-.228.489-.228 1.2v.552q0 .68.228 1.162.23.482.648.736.425.254 1.003.254.444 0 .761-.121.324-.126.527-.311.21-.184.286-.361l.025-.051h1.333l-.012.057q-.09.342-.311.686a2.5 2.5 0 0 1-.591.615 3 3 0 0 1-.876.451q-.507.171-1.174.171m7.179 0q-.832 0-1.447-.241-.616-.247-.978-.679a1.9 1.9 0 0 1-.425-1.016v-.012h1.384v.012q.133.387.508.629.373.24.99.241.425 0 .743-.121.323-.12.507-.336a.74.74 0 0 0 .185-.495v-.013a.69.69 0 0 0-.261-.546q-.26-.222-.857-.362l-1.104-.254q-.972-.222-1.441-.679-.463-.463-.463-1.219v-.006q0-.603.342-1.066.343-.47.946-.73.61-.267 1.39-.267.787 0 1.371.248.591.241.933.673.343.424.407.99v.006h-1.321v-.013q-.094-.361-.457-.603-.356-.24-.939-.241-.375 0-.667.121a1.1 1.1 0 0 0-.463.324.74.74 0 0 0-.165.482v.013q0 .323.254.533t.831.349l1.099.248q.99.235 1.472.679.489.444.489 1.193v.013q0 .634-.375 1.123-.374.483-1.021.756-.642.266-1.467.266m6.881 0q-.832 0-1.447-.241-.616-.247-.978-.679a1.9 1.9 0 0 1-.425-1.016v-.012h1.384v.012q.133.387.508.629.374.24.99.241.425 0 .742-.121.325-.12.508-.336a.74.74 0 0 0 .184-.495v-.013a.69.69 0 0 0-.26-.546q-.26-.222-.857-.362l-1.104-.254q-.972-.222-1.441-.679-.464-.463-.464-1.219v-.006q0-.603.343-1.066.343-.47.946-.73.61-.267 1.39-.267.787 0 1.371.248.591.241.933.673.343.424.407.99v.006h-1.321v-.013q-.095-.361-.457-.603-.356-.24-.939-.241-.375 0-.667.121a1.1 1.1 0 0 0-.463.324.74.74 0 0 0-.165.482v.013a.66.66 0 0 0 .254.533q.254.21.831.349l1.098.248q.99.235 1.473.679.489.444.489 1.193v.013q0 .634-.375 1.123-.374.483-1.022.756-.64.266-1.466.266"/><g filter="url(#k)"><rect width="320" height="32" x="70" y="467" fill="#fff" rx="6"/></g><path fill="#212126" d="M71.86 533.871v-1.194h2.5q.928 0 1.435-.476.515-.482.515-1.333v-.013q0-.863-.515-1.339-.507-.476-1.434-.476H71.86v-1.2h2.856q.902 0 1.58.381.687.375 1.074 1.054.387.672.387 1.568v.012q0 .896-.387 1.581a2.75 2.75 0 0 1-1.073 1.06q-.68.375-1.58.375zM71.149 537v-9.16h1.422V537zm8.347 0v-9.598h1.378v3.745h.107q.255-.552.75-.863t1.25-.311q.768 0 1.301.298.534.298.813.876.279.572.279 1.391V537H83.99v-4.139q0-.863-.362-1.282-.355-.425-1.117-.425-.501 0-.87.222a1.46 1.46 0 0 0-.57.622q-.198.4-.197.959V537zm10.715.133q-1.01 0-1.746-.431a2.86 2.86 0 0 1-1.123-1.232q-.394-.806-.394-1.91v-.013q0-1.111.394-1.911a2.9 2.9 0 0 1 1.13-1.231q.735-.432 1.739-.432 1.009 0 1.74.432a2.8 2.8 0 0 1 1.123 1.231q.4.8.4 1.911v.013q0 1.104-.4 1.91a2.86 2.86 0 0 1-1.124 1.232q-.723.43-1.74.431m0-1.155q.59 0 1.003-.286.412-.291.628-.831t.216-1.301v-.013q0-.768-.216-1.308t-.628-.825q-.413-.292-1.003-.292t-1.003.292q-.413.286-.635.825-.216.54-.216 1.308v.013q0 .76.216 1.301.222.54.635.831.413.286 1.003.286m4.9 1.022v-6.894h1.378v1.041h.108q.254-.552.749-.863t1.25-.311q1.162 0 1.778.667.615.666.615 1.898V537h-1.383v-4.139q0-.863-.362-1.282-.356-.425-1.118-.425-.501 0-.87.222a1.46 1.46 0 0 0-.57.622q-.197.4-.197.959V537zm10.69.133q-1.01 0-1.733-.431a2.9 2.9 0 0 1-1.117-1.238q-.387-.8-.388-1.892v-.006q0-1.079.388-1.885.393-.807 1.104-1.257.717-.451 1.676-.451.964 0 1.657.432.698.432 1.072 1.212.375.774.375 1.816v.482h-5.573v-.984h4.887l-.66.914v-.552q0-.736-.228-1.219a1.6 1.6 0 0 0-.616-.73 1.7 1.7 0 0 0-.908-.241q-.513 0-.92.254-.4.247-.635.736-.228.489-.228 1.2v.552q0 .68.228 1.162t.648.736a1.9 1.9 0 0 0 1.003.254q.444 0 .761-.121.324-.126.527-.311.21-.184.286-.361l.025-.051h1.333l-.013.057a2.3 2.3 0 0 1-.311.686 2.5 2.5 0 0 1-.59.615 3 3 0 0 1-.876.451q-.507.171-1.174.171m8.214-.133v-6.894h1.377v1.041h.108q.254-.552.749-.863t1.251-.311q1.16 0 1.777.667.615.666.616 1.898V537h-1.384v-4.139q0-.863-.362-1.282-.355-.425-1.117-.425-.502 0-.87.222a1.46 1.46 0 0 0-.571.622q-.197.4-.197.959V537zm10.092.133q-.774 0-1.307-.298a1.93 1.93 0 0 1-.794-.876q-.26-.577-.26-1.39v-4.463h1.378v4.139q0 .85.336 1.276t1.098.425q.546 0 .921-.216.38-.222.571-.622.19-.406.19-.958v-4.044h1.384V537h-1.384v-1.041h-.101a1.9 1.9 0 0 1-.762.863q-.514.312-1.27.311m5.497-.133v-6.894h1.378v1.061h.108q.228-.571.711-.883.489-.31 1.168-.311.47 0 .844.152.375.153.641.432.273.273.425.648h.108q.172-.375.483-.648a2.2 2.2 0 0 1 .723-.432q.42-.152.889-.152.698 0 1.193.273.495.267.756.775.26.507.26 1.225V537h-1.377v-4.424q0-.711-.331-1.067-.323-.355-.996-.355-.438 0-.768.203a1.4 1.4 0 0 0-.508.533 1.56 1.56 0 0 0-.178.749V537h-1.377v-4.564q0-.591-.362-.933-.356-.35-.965-.349-.412 0-.742.216a1.53 1.53 0 0 0-.515.584q-.19.362-.19.812V537zm15.286.114q-.724 0-1.27-.317a2.2 2.2 0 0 1-.85-.882h-.108V537h-1.378v-9.598h1.378v3.796h.108q.272-.558.837-.882a2.5 2.5 0 0 1 1.283-.33q.875 0 1.517.438.64.432.99 1.231t.349 1.892v.013q0 1.085-.355 1.885-.35.8-.991 1.238-.641.43-1.51.431m-.394-1.18q.578 0 .99-.286a1.77 1.77 0 0 0 .629-.819q.222-.533.222-1.269v-.013q0-.742-.222-1.27a1.8 1.8 0 0 0-.629-.819q-.412-.291-.99-.291a1.7 1.7 0 0 0-.99.291 1.8 1.8 0 0 0-.641.819q-.222.534-.222 1.27v.013q0 .729.222 1.269.222.534.641.819t.99.286m7.782 1.199q-1.009 0-1.733-.431a2.9 2.9 0 0 1-1.117-1.238q-.387-.8-.387-1.892v-.006q0-1.079.387-1.885a3 3 0 0 1 1.105-1.257q.717-.451 1.675-.451.966 0 1.657.432.699.432 1.073 1.212.374.774.374 1.816v.482h-5.573v-.984h4.888l-.66.914v-.552q0-.736-.229-1.219-.222-.489-.615-.73a1.7 1.7 0 0 0-.908-.241q-.514 0-.921.254-.4.247-.634.736-.23.489-.229 1.2v.552q0 .68.229 1.162.228.482.647.736.426.254 1.003.254.444 0 .762-.121a1.7 1.7 0 0 0 .527-.311q.209-.184.285-.361l.026-.051h1.333l-.013.057a2.4 2.4 0 0 1-.311.686 2.5 2.5 0 0 1-.59.615 3 3 0 0 1-.876.451q-.508.171-1.175.171m4.672-.133v-6.894h1.378v1.041h.108a1.6 1.6 0 0 1 .647-.856q.47-.305 1.155-.305a3 3 0 0 1 .603.063v1.27a3.4 3.4 0 0 0-.742-.076 2 2 0 0 0-.927.203q-.393.203-.622.571a1.6 1.6 0 0 0-.222.863V537z"/><g filter="url(#l)"><rect width="320" height="30" x="70" y="549" fill="#fff" rx="6"/><path fill="#131316" d="M87.861 569.216q-1.136 0-1.955-.425a3.04 3.04 0 0 1-1.25-1.181q-.438-.762-.438-1.758v-6.012h1.142v5.935q0 1.054.654 1.721.66.666 1.847.666 1.194 0 1.841-.666.648-.667.648-1.721v-5.935h1.142v6.012q0 .996-.438 1.758a3 3 0 0 1-1.244 1.181q-.812.425-1.949.425m8.957 0q-1.004 0-1.752-.324-.743-.33-1.18-.901a2.56 2.56 0 0 1-.502-1.321l-.007-.069h1.143l.006.069q.044.458.35.794.31.33.825.514.52.184 1.18.184a2.9 2.9 0 0 0 1.105-.197q.489-.202.768-.558.28-.356.28-.819v-.006q0-.572-.42-.959-.419-.393-1.365-.603l-1.015-.222q-1.377-.304-2.006-.94-.622-.64-.622-1.637v-.007q.006-.761.413-1.345.412-.584 1.136-.914.73-.33 1.676-.33.913 0 1.618.33.705.322 1.117.876.42.552.464 1.237l.006.089h-1.142l-.013-.082a1.4 1.4 0 0 0-.33-.718 1.8 1.8 0 0 0-.711-.501 2.6 2.6 0 0 0-1.041-.178q-.572 0-1.029.178t-.73.514q-.266.33-.266.813v.006q0 .546.406.92.406.375 1.34.578l1.015.229q1.435.317 2.05.92t.616 1.593v.007q0 .856-.419 1.479-.42.621-1.18.964-.762.337-1.784.337"/><path fill="#9394a1" d="M113.53 565.22a.749.749 0 1 0-1.06 1.06l3 3a.75.75 0 0 0 1.06 0l3-3a.749.749 0 1 0-1.06-1.06l-2.47 2.469zm0-2.44a.749.749 0 1 1-1.06-1.06l3-3a.75.75 0 0 1 1.06 0l3 3a.749.749 0 1 1-1.06 1.06l-2.47-2.469z"/><path fill="#131316" d="M132.736 565.826v-1.028h6.716v1.028zm2.844 2.907v-6.842h1.028v6.842zm7.871.267v-7.89h-.101l-2.33 1.688v-1.206l2.438-1.752h1.136V569z"/></g><path fill="#212126" d="M71.86 613.871v-1.194h2.5q.928 0 1.435-.476.515-.482.515-1.333v-.013q0-.863-.515-1.339-.507-.476-1.434-.476H71.86v-1.2h2.856q.902 0 1.58.381.687.375 1.074 1.054.387.672.387 1.568v.012q0 .896-.387 1.581a2.75 2.75 0 0 1-1.073 1.06q-.68.375-1.58.375zM71.149 617v-9.16h1.422V617zm9.921.114q-.654 0-1.174-.247a2 2 0 0 1-.812-.718 1.96 1.96 0 0 1-.299-1.085v-.013q0-.927.667-1.447.672-.527 1.904-.603l2.545-.152v.971l-2.355.152q-.711.044-1.047.305-.336.254-.336.717v.013q0 .47.361.743.362.266.915.266.513 0 .914-.203.406-.21.634-.559.23-.355.229-.799v-2.171q0-.571-.356-.87-.349-.305-1.04-.305-.579 0-.946.203a1 1 0 0 0-.483.572l-.013.019h-1.326l.006-.045q.082-.57.45-.99.375-.424.978-.66.61-.235 1.39-.235.87 0 1.473.279.61.273.92.794.318.514.318 1.238V617h-1.371v-.978h-.102a2.2 2.2 0 0 1-.508.597 2.2 2.2 0 0 1-.691.368q-.388.127-.845.127m7.967.019q-.832 0-1.448-.241-.615-.247-.977-.679a1.9 1.9 0 0 1-.425-1.016v-.012h1.383v.012q.135.387.508.629.375.24.99.241.426 0 .743-.121.324-.12.508-.336a.74.74 0 0 0 .184-.495v-.013a.69.69 0 0 0-.26-.546q-.261-.222-.857-.362l-1.105-.254q-.971-.222-1.44-.679-.465-.463-.464-1.219v-.006q0-.603.343-1.066.342-.47.945-.73.61-.267 1.39-.267.787 0 1.372.248.59.241.933.673.343.425.406.99v.006h-1.32v-.013q-.096-.361-.457-.603-.355-.24-.94-.241-.375 0-.666.121a1.1 1.1 0 0 0-.464.324.74.74 0 0 0-.165.482v.013q0 .323.254.533.255.21.832.349l1.098.248q.99.234 1.473.679.489.444.488 1.193v.013q0 .634-.374 1.123-.374.483-1.022.756-.64.266-1.466.266m6.88 0q-.83 0-1.447-.241-.615-.247-.977-.679a1.9 1.9 0 0 1-.426-1.016v-.012h1.384v.012q.133.387.508.629.375.24.99.241.425 0 .743-.121.324-.12.508-.336a.74.74 0 0 0 .184-.495v-.013a.69.69 0 0 0-.26-.546q-.261-.222-.857-.362l-1.105-.254q-.971-.222-1.44-.679-.465-.463-.464-1.219v-.006q0-.603.343-1.066.342-.47.945-.73.61-.267 1.39-.267.787 0 1.372.248.59.241.933.673.343.425.406.99v.006h-1.32v-.013q-.096-.361-.457-.603-.355-.24-.94-.241-.375 0-.666.121-.293.114-.464.324a.74.74 0 0 0-.165.482v.013q0 .323.254.533.255.21.832.349l1.098.248q.99.234 1.472.679.49.444.49 1.193v.013q0 .634-.375 1.123-.374.483-1.022.756-.642.266-1.466.266m5.631-.133-1.898-6.894h1.39l1.231 5.32h.108l1.416-5.32h1.314l1.422 5.32h.101l1.238-5.32h1.365L107.343 617h-1.428l-1.428-5.142h-.108L102.963 617zm11.756.133q-1.01 0-1.746-.431a2.86 2.86 0 0 1-1.123-1.232q-.394-.806-.394-1.91v-.013q0-1.111.394-1.911a2.9 2.9 0 0 1 1.129-1.231q.737-.432 1.74-.432 1.009 0 1.739.432.73.425 1.124 1.231.399.8.399 1.911v.013q0 1.104-.399 1.91a2.87 2.87 0 0 1-1.124 1.232q-.723.43-1.739.431m0-1.155q.59 0 1.003-.286.412-.291.628-.831t.216-1.301v-.013q0-.768-.216-1.308t-.628-.825q-.413-.292-1.003-.292t-1.003.292q-.413.286-.635.825-.216.54-.216 1.308v.013q0 .76.216 1.301.222.54.635.831.412.286 1.003.286m4.9 1.022v-6.894h1.378v1.041h.107q.184-.552.648-.856.47-.305 1.155-.305a3 3 0 0 1 .603.063v1.27a3.4 3.4 0 0 0-.742-.076 2 2 0 0 0-.927.203q-.394.203-.622.571a1.6 1.6 0 0 0-.222.863V617zm7.554.114q-.863 0-1.511-.431-.641-.438-.997-1.238-.349-.8-.349-1.885v-.013q0-1.092.349-1.892.35-.8.991-1.231.64-.438 1.517-.438.71 0 1.276.33.571.324.844.882h.101v-3.796h1.384V617h-1.384v-1.085h-.101a2.2 2.2 0 0 1-.844.882q-.547.317-1.276.317m.393-1.18q.571 0 .991-.286.419-.285.641-.819.222-.54.222-1.269v-.013q0-.736-.229-1.27a1.8 1.8 0 0 0-.641-.819 1.66 1.66 0 0 0-.984-.291q-.57 0-.99.291a1.8 1.8 0 0 0-.635.819q-.216.528-.215 1.27v.013q0 .736.215 1.269.222.534.635.819.42.285.99.286"/><g filter="url(#m)"><rect width="320" height="32" x="70" y="629" fill="#fff" rx="6"/></g><g filter="url(#n)"><rect width="320" height="32" x="70" y="693" fill="#2f3037" rx="6"/><rect width="320" height="32" x="70" y="693" fill="url(#o)" fill-opacity=".1" rx="6"/><path fill="#fff" d="M197.407 714.222q-1.27 0-2.203-.584-.927-.583-1.428-1.657-.502-1.072-.502-2.551v-.013q0-1.485.502-2.558.501-1.073 1.428-1.657t2.203-.584q1.01 0 1.822.4.818.393 1.339 1.092a3.3 3.3 0 0 1 .641 1.606v.038h-1.416l-.006-.025a2.34 2.34 0 0 0-.463-.978 2.3 2.3 0 0 0-.825-.641 2.55 2.55 0 0 0-1.092-.229q-.819 0-1.422.432-.597.432-.927 1.225-.324.787-.324 1.879v.013q0 1.078.324 1.872.33.794.927 1.225.603.432 1.428.432a2.8 2.8 0 0 0 1.092-.203 2.2 2.2 0 0 0 .825-.578q.33-.38.451-.895l.012-.025h1.422l-.006.032a3.26 3.26 0 0 1-.647 1.542q-.514.66-1.321 1.028-.806.363-1.834.362m8.436-.089q-1.01 0-1.746-.431a2.86 2.86 0 0 1-1.123-1.232q-.394-.806-.394-1.91v-.013q0-1.111.394-1.911a2.9 2.9 0 0 1 1.13-1.231q.735-.432 1.739-.432 1.009 0 1.739.432.73.425 1.124 1.231.399.8.399 1.911v.013q0 1.104-.399 1.91a2.87 2.87 0 0 1-1.124 1.232q-.723.43-1.739.431m0-1.155q.59 0 1.003-.286.412-.291.628-.831t.216-1.301v-.013q0-.768-.216-1.308t-.628-.825q-.413-.292-1.003-.292t-1.003.292q-.413.286-.635.825-.216.54-.216 1.308v.013q0 .76.216 1.301.222.54.635.831.412.286 1.003.286m4.9 1.022v-6.894h1.378v1.041h.108q.253-.552.749-.863.495-.31 1.25-.311 1.161 0 1.777.667.616.666.616 1.898V714h-1.384v-4.139q0-.863-.362-1.282-.355-.425-1.117-.425a1.65 1.65 0 0 0-.869.222 1.46 1.46 0 0 0-.572.622q-.196.4-.196.959V714zm10.398.044q-1.131 0-1.638-.431-.502-.438-.502-1.428v-3.993h-1.079v-1.086h1.079v-1.739h1.41v1.739h1.479v1.086h-1.479v3.656q0 .559.222.806.222.242.736.242.152 0 .26-.007a7 7 0 0 0 .261-.019v1.105q-.165.025-.356.044a3 3 0 0 1-.393.025m2.38-.044v-6.894h1.384V714zm.698-8.125a.83.83 0 0 1-.609-.254.83.83 0 0 1-.254-.609q0-.356.254-.603a.83.83 0 0 1 .609-.254.83.83 0 0 1 .61.254.8.8 0 0 1 .254.603.83.83 0 0 1-.254.609.84.84 0 0 1-.61.254m2.685 8.125v-6.894h1.378v1.041h.108q.254-.552.749-.863t1.25-.311q1.162 0 1.778.667.615.666.615 1.898V714h-1.384v-4.139q0-.863-.361-1.282-.356-.425-1.118-.425a1.65 1.65 0 0 0-.869.222 1.45 1.45 0 0 0-.571.622q-.198.4-.197.959V714zm10.093.133q-.774 0-1.308-.298a1.93 1.93 0 0 1-.793-.876q-.26-.577-.26-1.39v-4.463h1.377v4.139q0 .85.337 1.276.336.426 1.098.425.546 0 .92-.216.38-.222.571-.622.19-.406.191-.958v-4.044h1.384V714h-1.384v-1.041h-.102a1.9 1.9 0 0 1-.761.863q-.514.312-1.27.311m8.392 0q-1.01 0-1.733-.431a2.9 2.9 0 0 1-1.117-1.238q-.388-.8-.388-1.892v-.006q0-1.079.388-1.885.393-.807 1.104-1.257.717-.451 1.676-.451.964 0 1.657.432.698.432 1.072 1.212.375.774.375 1.816v.482h-5.573v-.984h4.887l-.66.914v-.552q0-.736-.228-1.219a1.6 1.6 0 0 0-.616-.73 1.7 1.7 0 0 0-.908-.241q-.514 0-.92.254-.4.247-.635.736-.228.489-.228 1.2v.552q0 .68.228 1.162t.647.736q.426.254 1.003.254.445 0 .762-.121.324-.126.527-.311.21-.184.286-.361l.025-.051h1.333l-.013.057a2.4 2.4 0 0 1-.311.686 2.5 2.5 0 0 1-.59.615 3 3 0 0 1-.876.451 3.7 3.7 0 0 1-1.174.171"/><g clip-path="url(#p)" opacity=".6"><path fill="#fff" stroke="#fff" stroke-linecap="round" stroke-linejoin="round" stroke-width="1.5" d="m264.75 709-3.5-2.25v4.5z"/></g></g></g><path fill="#747686" d="m128.939 787 3.377-9.16h.876v1.479h-.362L130.139 787zm1.53-2.622.355-.971h4.139l.355.971zm5.154 2.622-2.691-7.681v-1.479h.514l3.377 9.16zm2.73 0v-9.56h1.104V787zm3.224 0v-6.843h1.105v1.016h.101q.197-.54.667-.838t1.161-.298q.16 0 .311.019.16.012.242.025v1.073a3 3 0 0 0-.337-.045 3 3 0 0 0-.343-.019q-.527 0-.933.21a1.6 1.6 0 0 0-.641.584 1.65 1.65 0 0 0-.228.876V787zm7.554.121q-.978 0-1.682-.432a2.86 2.86 0 0 1-1.079-1.219q-.375-.793-.375-1.866v-.006q0-1.06.375-1.86.38-.8 1.072-1.251t1.619-.45q.933 0 1.6.431.672.432 1.028 1.206.362.768.362 1.79v.432h-5.485v-.882h4.92l-.546.806v-.438q0-.807-.241-1.327t-.667-.774a1.83 1.83 0 0 0-.977-.26q-.553 0-.991.272a1.85 1.85 0 0 0-.685.794q-.254.527-.254 1.295v.438q0 .73.248 1.25.247.515.704.794.458.273 1.079.273.464 0 .806-.127.343-.128.565-.324t.311-.4l.026-.057h1.104l-.012.051q-.09.35-.318.679-.222.324-.577.59a3 3 0 0 1-.845.419 3.6 3.6 0 0 1-1.085.153m6.513 0q-.648 0-1.168-.248a2 2 0 0 1-.819-.705q-.299-.456-.299-1.079v-.012q0-.915.648-1.429.653-.52 1.847-.59l2.514-.152v.882l-2.381.152q-.78.045-1.142.324-.356.28-.356.787v.013q0 .52.394.812.393.286.99.286.565 0 1.003-.222a1.76 1.76 0 0 0 .686-.616q.253-.387.253-.876v-2.133q0-.634-.387-.964-.381-.337-1.149-.337-.615 0-1.009.222a1.08 1.08 0 0 0-.527.616l-.006.019h-1.105l.007-.038q.088-.54.444-.939.362-.407.933-.629a3.5 3.5 0 0 1 1.301-.228q.839 0 1.416.273.584.273.882.787.305.507.305 1.218V787h-1.105v-1.009h-.101q-.216.361-.527.615-.305.255-.692.388a2.7 2.7 0 0 1-.85.127m7.82 0q-.863 0-1.511-.438t-1.003-1.232q-.355-.8-.355-1.866v-.013q0-1.073.355-1.866t.997-1.231q.647-.438 1.517-.438.705 0 1.276.33.577.323.857.869h.101v-3.796h1.105V787h-1.105v-1.092h-.101a2.3 2.3 0 0 1-.864.895 2.5 2.5 0 0 1-1.269.318m.254-.978q.621 0 1.073-.311.45-.31.691-.882.242-.578.242-1.365v-.013q0-.794-.242-1.364a1.97 1.97 0 0 0-.691-.883q-.452-.31-1.073-.311-.623 0-1.073.311-.444.304-.686.876-.234.572-.234 1.371v.013q0 .793.234 1.371.242.571.686.882.45.305 1.073.305m5.789 3.256q-.108 0-.241-.012a2 2 0 0 1-.248-.026v-.907q.102.018.222.025.121.006.235.006.47 0 .768-.241.305-.241.489-.831l.127-.407-2.533-6.849h1.181l2.107 6.322-.438-.691h.521l-.438.691 2.101-6.322h1.161l-2.672 7.262q-.285.768-.597 1.2a1.67 1.67 0 0 1-.723.603q-.413.177-1.022.177M179.701 787v-9.56h1.105v3.746h.101q.26-.546.749-.845.49-.304 1.244-.304.768 0 1.302.298.533.292.812.857t.279 1.377V787h-1.104v-4.164q0-.927-.394-1.371-.387-.451-1.206-.451-.546 0-.945.235a1.6 1.6 0 0 0-.623.667q-.215.43-.215 1.034V787zm9.471.121q-.648 0-1.168-.248a2 2 0 0 1-.819-.705q-.298-.456-.298-1.079v-.012q0-.915.647-1.429.654-.52 1.847-.59l2.514-.152v.882l-2.38.152q-.781.045-1.143.324-.355.28-.355.787v.013q0 .52.393.812.395.286.99.286.565 0 1.003-.222a1.76 1.76 0 0 0 .686-.616q.254-.387.254-.876v-2.133q0-.634-.387-.964-.381-.337-1.149-.337-.616 0-1.01.222a1.07 1.07 0 0 0-.526.616l-.007.019h-1.104l.006-.038q.088-.54.444-.939.363-.407.933-.629a3.5 3.5 0 0 1 1.302-.228q.837 0 1.415.273.585.273.883.787.304.507.304 1.218V787h-1.104v-1.009h-.102a2.3 2.3 0 0 1-1.219 1.003 2.7 2.7 0 0 1-.85.127m6.976-.121-2.533-6.843h1.168l1.873 5.637h.101l1.873-5.637h1.168L197.265 787zm7.649.121q-.978 0-1.682-.432a2.86 2.86 0 0 1-1.079-1.219q-.375-.793-.375-1.866v-.006q0-1.06.375-1.86.38-.8 1.072-1.251t1.619-.45q.933 0 1.6.431.672.432 1.028 1.206.362.768.362 1.79v.432h-5.485v-.882h4.92l-.546.806v-.438q0-.807-.241-1.327t-.667-.774a1.83 1.83 0 0 0-.977-.26q-.553 0-.991.272a1.85 1.85 0 0 0-.685.794q-.254.527-.254 1.295v.438q0 .73.248 1.25.247.515.704.794.458.273 1.079.273.464 0 .806-.127.343-.128.565-.324t.311-.4l.026-.057h1.104l-.012.051q-.09.35-.318.679-.222.324-.577.59a3 3 0 0 1-.845.419 3.6 3.6 0 0 1-1.085.153m10.169 0q-.648 0-1.168-.248a2 2 0 0 1-.819-.705q-.298-.456-.298-1.079v-.012q0-.915.647-1.429.654-.52 1.847-.59l2.514-.152v.882l-2.38.152q-.781.045-1.143.324-.355.28-.355.787v.013q0 .52.393.812.394.286.99.286.565 0 1.003-.222a1.76 1.76 0 0 0 .686-.616q.254-.387.254-.876v-2.133q0-.634-.387-.964-.381-.337-1.149-.337-.616 0-1.01.222a1.08 1.08 0 0 0-.527.616l-.006.019h-1.104l.006-.038q.088-.54.444-.939.363-.407.933-.629a3.5 3.5 0 0 1 1.302-.228q.837 0 1.415.273.585.273.883.787.304.507.304 1.218V787h-1.104v-1.009h-.102a2.3 2.3 0 0 1-1.219 1.003 2.7 2.7 0 0 1-.85.127m5.294-.121v-6.843h1.104v1.029h.102a1.94 1.94 0 0 1 .749-.845q.489-.304 1.244-.304 1.155 0 1.771.66.622.654.622 1.872V787h-1.104v-4.164q0-.927-.394-1.371-.387-.451-1.206-.451-.546 0-.946.235a1.6 1.6 0 0 0-.622.667q-.216.43-.216 1.034V787zm13.127.121q-.648 0-1.168-.248a2 2 0 0 1-.819-.705q-.298-.456-.298-1.079v-.012q0-.915.647-1.429.654-.52 1.847-.59l2.514-.152v.882l-2.381.152q-.78.045-1.142.324-.356.28-.356.787v.013q0 .52.394.812.393.286.99.286.565 0 1.003-.222a1.76 1.76 0 0 0 .686-.616q.254-.387.254-.876v-2.133q0-.634-.388-.964-.38-.337-1.149-.337-.615 0-1.009.222a1.08 1.08 0 0 0-.527.616l-.006.019h-1.104l.006-.038q.088-.54.444-.939.362-.407.933-.629a3.5 3.5 0 0 1 1.302-.228q.837 0 1.415.273.584.273.882.787.305.507.305 1.218V787h-1.104v-1.009h-.102a2.3 2.3 0 0 1-1.219 1.003 2.7 2.7 0 0 1-.85.127m8.093 0q-.958 0-1.663-.438a2.9 2.9 0 0 1-1.092-1.238q-.387-.8-.387-1.885v-.013q0-1.066.381-1.854a2.9 2.9 0 0 1 1.092-1.218q.704-.438 1.663-.438.831 0 1.434.292a2.53 2.53 0 0 1 1.428 1.885l.007.038h-1.098l-.007-.019a1.56 1.56 0 0 0-.577-.863q-.451-.356-1.187-.356-.616 0-1.067.311-.45.312-.698.883-.241.564-.241 1.339v.013q0 .786.247 1.371.247.577.699.895.45.317 1.06.317.692 0 1.13-.298t.628-.87l.013-.038 1.091-.006-.012.069a2.9 2.9 0 0 1-.495 1.099 2.44 2.44 0 0 1-.94.749q-.584.273-1.409.273m7.274 0q-.958 0-1.663-.438a2.9 2.9 0 0 1-1.091-1.238q-.388-.8-.388-1.885v-.013q0-1.066.381-1.854a2.9 2.9 0 0 1 1.092-1.218q.705-.438 1.663-.438.832 0 1.435.292a2.53 2.53 0 0 1 1.428 1.885l.006.038h-1.098l-.006-.019a1.57 1.57 0 0 0-.578-.863q-.45-.356-1.187-.356-.615 0-1.066.311a2 2 0 0 0-.699.883q-.24.564-.241 1.339v.013q0 .786.248 1.371.248.577.698.895.45.317 1.06.317.692 0 1.13-.298t.628-.87l.013-.038 1.092-.006-.013.069a2.9 2.9 0 0 1-.495 1.099q-.356.476-.939.749-.584.273-1.41.273m7.288 0q-.972 0-1.683-.426a2.9 2.9 0 0 1-1.091-1.225q-.381-.793-.381-1.885v-.013q0-1.098.381-1.891a2.84 2.84 0 0 1 1.091-1.219q.711-.426 1.683-.425.977 0 1.682.425.704.425 1.085 1.219.387.793.387 1.891v.013q0 1.092-.387 1.885a2.84 2.84 0 0 1-1.085 1.225q-.705.426-1.682.426m0-.978q.647 0 1.098-.305.45-.304.685-.876.241-.57.241-1.377v-.013q0-.812-.241-1.384-.234-.57-.685-.869-.451-.305-1.098-.305-.648 0-1.099.305-.45.299-.692.869-.234.572-.234 1.384v.013q0 .806.234 1.377.242.572.692.876.451.305 1.099.305m7.16.978q-.775 0-1.302-.292a1.9 1.9 0 0 1-.793-.864q-.26-.572-.26-1.377v-4.431h1.104v4.164q0 .921.356 1.371.361.451 1.18.451.603 0 1.016-.235.412-.235.622-.666.21-.438.209-1.035v-4.05h1.105V787h-1.105v-1.022h-.101a1.86 1.86 0 0 1-.768.844q-.508.299-1.263.299m5.3-.121v-6.843h1.104v1.029h.102q.26-.546.749-.845.49-.304 1.244-.304 1.155 0 1.771.66.622.654.622 1.872V787h-1.104v-4.164q0-.927-.394-1.371-.387-.451-1.206-.451-.546 0-.946.235a1.6 1.6 0 0 0-.622.667q-.216.43-.216 1.034V787zm10.023.051q-1.054 0-1.53-.426-.47-.425-.47-1.402v-4.152h-1.079v-.914h1.079v-1.771h1.143v1.771h1.498v.914h-1.498v3.872q0 .603.228.87.23.26.762.26.147 0 .248-.006.108-.006.26-.019v.939a9 9 0 0 1-.317.045 3 3 0 0 1-.324.019m3.758-2.882v-.584q0-.419.133-.755a1.8 1.8 0 0 1 .419-.629q.285-.285.717-.546.368-.228.591-.444.228-.222.33-.482.1-.261.101-.597v-.013q0-.393-.19-.698a1.34 1.34 0 0 0-.54-.483 1.8 1.8 0 0 0-.825-.177 1.84 1.84 0 0 0-.831.177 1.4 1.4 0 0 0-.565.508q-.204.33-.235.781l-.013.006-1.079.007v-.013a2.8 2.8 0 0 1 .355-1.238q.318-.558.921-.888t1.491-.33q.8 0 1.403.304.61.298.946.819.343.514.343 1.168v.013q0 .742-.362 1.282a3 3 0 0 1-.965.901 3.5 3.5 0 0 0-.628.451 1.3 1.3 0 0 0-.318.463q-.088.248-.088.584v.413zm.641 2.945a.86.86 0 0 1-.635-.247.86.86 0 0 1-.247-.635q0-.393.247-.641a.86.86 0 0 1 .635-.248q.387 0 .628.248a.87.87 0 0 1 .248.641.86.86 0 0 1-.248.635.84.84 0 0 1-.628.247"/><path fill="#2f3037" d="M293.242 787.222q-1.035 0-1.803-.324-.768-.33-1.212-.914a2.5 2.5 0 0 1-.508-1.352l-.007-.082h1.403l.007.07q.044.413.323.717.286.305.762.476.483.171 1.098.171.578 0 1.028-.184.451-.183.705-.508.26-.323.26-.742v-.007q0-.527-.4-.876-.4-.348-1.307-.545l-1.003-.21q-1.39-.298-2.025-.946-.635-.654-.635-1.669v-.006q.006-.794.426-1.397.424-.603 1.174-.939.749-.337 1.72-.337t1.695.337q.73.33 1.149.901.425.571.476 1.289l.006.082h-1.39l-.013-.082a1.3 1.3 0 0 0-.311-.667 1.64 1.64 0 0 0-.666-.457 2.4 2.4 0 0 0-.965-.165q-.533 0-.952.165-.419.159-.667.463-.24.305-.241.737v.006q0 .508.387.851.394.337 1.276.526l1.003.223q1.442.304 2.069.914.635.61.635 1.625v.006q0 .876-.431 1.517-.426.635-1.213.984-.787.35-1.853.349m5.23-.222v-6.894h1.384V787zm.698-8.125a.83.83 0 0 1-.609-.254.83.83 0 0 1-.254-.609q0-.356.254-.603a.83.83 0 0 1 .609-.254.83.83 0 0 1 .61.254.8.8 0 0 1 .254.603.83.83 0 0 1-.254.609.83.83 0 0 1-.61.254m5.599 10.556q-.876 0-1.523-.241-.642-.241-1.016-.673a1.9 1.9 0 0 1-.457-1.003l.006-.013h1.397l.006.013q.089.356.502.584.412.228 1.104.229.85 0 1.327-.388.482-.387.482-1.085v-1.352h-.108a2.2 2.2 0 0 1-.52.635 2.2 2.2 0 0 1-.724.393 2.8 2.8 0 0 1-.882.134q-.876 0-1.524-.419a2.8 2.8 0 0 1-.99-1.168q-.343-.75-.343-1.721v-.012q0-.984.349-1.74.35-.76.997-1.187.648-.43 1.543-.431.481 0 .882.152.406.153.717.432t.514.666h.083v-1.13h1.377v6.754q0 .782-.393 1.359-.387.577-1.105.895-.717.317-1.701.317m-.019-3.91q.584 0 1.003-.273.419-.279.641-.768.228-.489.229-1.13v-.013q0-.634-.229-1.129a1.8 1.8 0 0 0-.641-.775q-.419-.279-1.003-.279t-.997.279q-.405.279-.622.775a2.8 2.8 0 0 0-.215 1.129v.013q0 .641.215 1.13.216.489.622.768.413.273.997.273m5.205 1.479v-6.894h1.378v1.041h.107a1.97 1.97 0 0 1 .749-.863q.496-.31 1.251-.311 1.161 0 1.777.667.616.666.616 1.898V787h-1.384v-4.139q0-.863-.362-1.282-.355-.425-1.117-.425a1.65 1.65 0 0 0-.869.222 1.46 1.46 0 0 0-.572.622q-.196.4-.196.959V787zm11.356 0v-6.894h1.384V787zm.698-8.125a.83.83 0 0 1-.609-.254.83.83 0 0 1-.254-.609q0-.356.254-.603a.83.83 0 0 1 .609-.254.83.83 0 0 1 .61.254.8.8 0 0 1 .254.603.83.83 0 0 1-.254.609.84.84 0 0 1-.61.254m2.685 8.125v-6.894h1.378v1.041h.108q.254-.552.749-.863t1.25-.311q1.162 0 1.778.667.615.666.615 1.898V787h-1.384v-4.139q0-.863-.361-1.282-.356-.425-1.118-.425a1.65 1.65 0 0 0-.869.222 1.45 1.45 0 0 0-.571.622q-.197.4-.197.959V787z"/><path fill="#131316" fill-opacity=".06" d="M30 807.5h400v-1H30z"/><path fill="#747686" d="M172.809 835.205q-.956 0-1.664-.299-.71-.304-1.12-.844a2.33 2.33 0 0 1-.468-1.248l-.006-.076h1.295l.006.065q.041.38.298.662.264.281.704.439.444.159 1.013.158.534 0 .949-.169.417-.17.651-.469.24-.299.24-.686v-.006q0-.486-.369-.808-.37-.323-1.207-.504l-.926-.193q-1.282-.276-1.869-.873-.586-.604-.586-1.542v-.005q.006-.733.393-1.289a2.6 2.6 0 0 1 1.084-.868q.692-.31 1.587-.31.897 0 1.565.31.674.306 1.06.832.393.528.44 1.19l.006.076h-1.283l-.012-.076a1.2 1.2 0 0 0-.287-.615 1.5 1.5 0 0 0-.615-.422 2.25 2.25 0 0 0-.891-.153q-.492 0-.879.153-.387.146-.615.427a1.06 1.06 0 0 0-.223.68v.006q0 .469.358.785.363.31 1.177.487l.926.205q1.33.28 1.91.843.586.562.586 1.5v.006q0 .808-.398 1.401-.393.585-1.119.908-.727.322-1.711.322m7.482-.082q-.931 0-1.6-.398a2.7 2.7 0 0 1-1.031-1.143q-.357-.738-.357-1.746v-.006q0-.996.357-1.74a2.8 2.8 0 0 1 1.02-1.16q.662-.417 1.547-.416.89 0 1.529.398.645.399.99 1.119.346.715.346 1.676v.445h-5.145v-.908h4.512l-.609.844v-.51q0-.68-.211-1.125a1.5 1.5 0 0 0-.569-.674 1.57 1.57 0 0 0-.838-.222 1.57 1.57 0 0 0-.849.234 1.57 1.57 0 0 0-.586.68q-.211.45-.211 1.107v.51q0 .627.211 1.072t.598.68q.392.234.925.234.41 0 .703-.111.3-.117.487-.287a1 1 0 0 0 .263-.334l.024-.047h1.23l-.011.053a2.2 2.2 0 0 1-.287.632 2.3 2.3 0 0 1-.545.569 2.7 2.7 0 0 1-.809.416 3.4 3.4 0 0 1-1.084.158m6.99 0q-.925 0-1.599-.398a2.7 2.7 0 0 1-1.032-1.149q-.363-.744-.363-1.775v-.012q0-1.014.358-1.746a2.66 2.66 0 0 1 1.031-1.131q.673-.399 1.599-.398.804 0 1.377.281.58.275.92.762.346.48.434 1.095l.006.03h-1.225l-.006-.012a1.36 1.36 0 0 0-.486-.779q-.381-.317-1.014-.317-.527 0-.908.27a1.67 1.67 0 0 0-.586.761q-.2.499-.199 1.184v.012q0 .703.205 1.207t.586.779q.381.27.902.27.598 0 .967-.264.375-.264.527-.779l.012-.03 1.219-.005-.012.052a2.6 2.6 0 0 1-.451 1.09 2.3 2.3 0 0 1-.908.738q-.562.264-1.354.264m6.287 0q-.714 0-1.207-.275a1.8 1.8 0 0 1-.732-.809q-.24-.533-.24-1.283v-4.119h1.271v3.82q0 .785.311 1.178.31.392 1.013.392.504 0 .85-.199.351-.205.527-.574.176-.375.176-.885v-3.732h1.277V835h-1.277v-.961h-.094q-.228.51-.703.797-.474.287-1.172.287m5.075-.123v-6.363h1.271v.961h.1a1.47 1.47 0 0 1 .597-.791q.434-.282 1.067-.282a2.6 2.6 0 0 1 .556.059v1.172a3.3 3.3 0 0 0-.685-.07q-.487 0-.856.187a1.45 1.45 0 0 0-.574.527 1.5 1.5 0 0 0-.205.797V835zm7.324.123q-.932 0-1.6-.398a2.7 2.7 0 0 1-1.031-1.143q-.357-.738-.357-1.746v-.006q0-.996.357-1.74a2.8 2.8 0 0 1 1.019-1.16q.662-.417 1.547-.416.891 0 1.53.398.643.399.99 1.119.345.715.346 1.676v.445h-5.145v-.908h4.512l-.61.844v-.51q0-.68-.211-1.125a1.5 1.5 0 0 0-.568-.674 1.57 1.57 0 0 0-.838-.222 1.57 1.57 0 0 0-.849.234 1.56 1.56 0 0 0-.586.68q-.211.45-.211 1.107v.51q0 .627.211 1.072.21.446.597.68.393.234.926.234.41 0 .703-.111a1.6 1.6 0 0 0 .487-.287 1 1 0 0 0 .263-.334l.024-.047h1.23l-.012.053q-.081.317-.287.632a2.3 2.3 0 0 1-.545.569 2.7 2.7 0 0 1-.808.416 3.4 3.4 0 0 1-1.084.158m6.633-.018q-.797 0-1.395-.398-.591-.403-.92-1.143-.322-.738-.322-1.74v-.012q0-1.007.322-1.746.323-.738.914-1.136.592-.405 1.401-.405.656 0 1.177.305.528.299.78.815h.093v-3.504h1.278V835h-1.278v-1.002h-.093a2 2 0 0 1-.78.814q-.504.294-1.177.293m.363-1.089q.527 0 .914-.264a1.66 1.66 0 0 0 .592-.756q.204-.498.205-1.172v-.012q0-.68-.211-1.171a1.66 1.66 0 0 0-.592-.756 1.53 1.53 0 0 0-.908-.27q-.528 0-.914.27a1.67 1.67 0 0 0-.586.756q-.2.486-.199 1.171v.012q0 .68.199 1.172.205.492.586.756.387.264.914.264m11.508 1.089q-.668 0-1.172-.293a2.04 2.04 0 0 1-.785-.814h-.1V835h-1.271v-8.859h1.271v3.504h.1q.251-.516.773-.815a2.3 2.3 0 0 1 1.184-.305q.809 0 1.4.405.592.398.914 1.136.322.74.322 1.746v.012q0 1.002-.328 1.74-.322.74-.914 1.143-.591.399-1.394.398m-.364-1.089q.534 0 .914-.264a1.64 1.64 0 0 0 .581-.756q.204-.492.205-1.172v-.012q0-.685-.205-1.171a1.64 1.64 0 0 0-.581-.756 1.54 1.54 0 0 0-.914-.27q-.527 0-.914.27a1.65 1.65 0 0 0-.591.756q-.206.492-.206 1.171v.012q0 .674.206 1.172.205.492.591.756.387.264.914.264m4.887 3.222q-.117 0-.252-.011a5 5 0 0 1-.258-.018v-1.002a3 3 0 0 0 .428.023q.445 0 .721-.21.275-.206.416-.686l.094-.328-2.309-6.369h1.377l1.799 5.736-.399-.656h.487l-.393.656 1.793-5.736h1.342l-2.367 6.603q-.27.762-.598 1.196-.329.44-.779.621-.451.181-1.102.181"/><ellipse cx="249.889" cy="831" fill="#747686" rx="2.187" ry="2.188"/><path fill="#747686" d="M253.83 836.179a.416.416 0 0 1-.051.641 6.97 6.97 0 0 1-3.891 1.18 6.97 6.97 0 0 1-3.891-1.18.416.416 0 0 1-.051-.641l1.599-1.598a.47.47 0 0 1 .55-.075 3.9 3.9 0 0 0 1.793.431c.646 0 1.255-.155 1.793-.431a.47.47 0 0 1 .55.075z"/><path fill="#747686" d="M253.779 825.18a.415.415 0 0 1 .052.641l-1.599 1.598a.47.47 0 0 1-.551.074 3.938 3.938 0 0 0-5.299 5.3.47.47 0 0 1-.074.55l-1.599 1.599a.415.415 0 0 1-.64-.051 7 7 0 0 1 9.71-9.711" opacity=".5"/><path fill="#747686" fill-rule="evenodd" d="M265.748 825.422a.11.11 0 0 1 .109-.11h1.641a.11.11 0 0 1 .109.11v11.156a.11.11 0 0 1-.109.11h-1.641a.11.11 0 0 1-.109-.11zm-2.315 8.899a.113.113 0 0 0-.151.005 2.9 2.9 0 0 1-2.021.788 2.46 2.46 0 0 1-1.782-.693c-.423-.432-.667-1.049-.667-1.785 0-1.473.98-2.48 2.449-2.48a2.72 2.72 0 0 1 2.004.841c.041.044.11.049.156.01l1.107-.959a.106.106 0 0 0 .011-.152c-.833-.931-2.138-1.412-3.379-1.412-2.499 0-4.271 1.686-4.271 4.166 0 1.227.44 2.26 1.183 2.989.742.729 1.8 1.158 3.021 1.158 1.531 0 2.763-.587 3.485-1.34a.107.107 0 0 0-.008-.155zm13.212-1.139a.11.11 0 0 1-.108.096h-5.747a.106.106 0 0 0-.104.132c.286 1.06 1.139 1.701 2.302 1.701a2.57 2.57 0 0 0 1.998-.881.08.08 0 0 1 .112-.01l1.156 1.006c.044.039.05.105.012.15-.698.823-1.828 1.421-3.379 1.421-2.386 0-4.186-1.653-4.186-4.163 0-1.232.424-2.264 1.131-2.994.373-.375.82-.671 1.314-.869a4 4 0 0 1 1.557-.286c2.418 0 3.982 1.701 3.982 4.05a7 7 0 0 1-.04.647m-5.924-1.524a.105.105 0 0 0 .102.133h3.822c.07 0 .122-.066.103-.134-.261-.901-.921-1.503-1.948-1.503a2.1 2.1 0 0 0-.88.16 2.1 2.1 0 0 0-.733.507 2.2 2.2 0 0 0-.466.837m11.651-3.172a.11.11 0 0 1 .11.109v1.837a.11.11 0 0 1-.117.109 7 7 0 0 0-.455-.024c-1.431 0-2.271 1.007-2.271 2.329v3.732a.11.11 0 0 1-.11.11h-1.64a.11.11 0 0 1-.11-.11v-7.869a.11.11 0 0 1 .11-.11h1.64a.11.11 0 0 1 .11.11v1.104q.001.01.011.011.005 0 .009-.004c.641-.857 1.588-1.333 2.588-1.333zm4.444 4.81a.04.04 0 0 1 .026-.011q.019 0 .03.017l2.074 3.334c.02.032.055.051.093.051h1.865a.109.109 0 0 0 .093-.166l-2.846-4.592a.11.11 0 0 1 .012-.131l2.742-3.026a.11.11 0 0 0-.081-.183h-1.946a.1.1 0 0 0-.08.036l-3.173 3.458a.11.11 0 0 1-.19-.074v-6.587a.11.11 0 0 0-.109-.11h-1.641a.11.11 0 0 0-.109.11v11.156c0 .061.049.109.109.109h1.641c.06 0 .109-.048.109-.109v-1.755a.1.1 0 0 1 .03-.075z" clip-rule="evenodd"/></g></g><defs><filter id="a" width="460" height="900" x="0" y="0" color-interpolation-filters="sRGB" filterUnits="userSpaceOnUse"><feFlood flood-opacity="0" result="BackgroundImageFix"/><feColorMatrix in="SourceAlpha" result="hardAlpha" values="0 0 0 0 0 0 0 0 0 0 0 0 0 0 0 0 0 0 127 0"/><feOffset dy="5"/><feGaussianBlur stdDeviation="7.5"/><feComposite in2="hardAlpha" operator="out"/><feColorMatrix values="0 0 0 0 0 0 0 0 0 0 0 0 0 0 0 0 0 0 0.08 0"/><feBlend in2="BackgroundImageFix" result="effect1_dropShadow_4258_753"/><feColorMatrix in="SourceAlpha" result="hardAlpha" values="0 0 0 0 0 0 0 0 0 0 0 0 0 0 0 0 0 0 127 0"/><feMorphology in="SourceAlpha" radius="5" result="effect2_dropShadow_4258_753"/><feOffset dy="15"/><feGaussianBlur stdDeviation="17.5"/><feComposite in2="hardAlpha" operator="out"/><feColorMatrix values="0 0 0 0 0.0980392 0 0 0 0 0.109804 0 0 0 0 0.129412 0 0 0 0.2 0"/><feBlend in2="effect1_dropShadow_4258_753" result="effect2_dropShadow_4258_753"/><feColorMatrix in="SourceAlpha" result="hardAlpha" values="0 0 0 0 0 0 0 0 0 0 0 0 0 0 0 0 0 0 127 0"/><feMorphology in="SourceAlpha" operator="dilate" radius="1" result="effect3_dropShadow_4258_753"/><feOffset/><feComposite in2="hardAlpha" operator="out"/><feColorMatrix values="0 0 0 0 0.0980392 0 0 0 0 0.109804 0 0 0 0 0.129412 0 0 0 0.06 0"/><feBlend in2="effect2_dropShadow_4258_753" result="effect3_dropShadow_4258_753"/><feBlend in="SourceGraphic" in2="effect3_dropShadow_4258_753" result="shape"/></filter><filter id="c" width="404" height="747" x="28" y="13" color-interpolation-filters="sRGB" filterUnits="userSpaceOnUse"><feFlood flood-opacity="0" result="BackgroundImageFix"/><feColorMatrix in="SourceAlpha" result="hardAlpha" values="0 0 0 0 0 0 0 0 0 0 0 0 0 0 0 0 0 0 127 0"/><feOffset/><feGaussianBlur stdDeviation="1"/><feComposite in2="hardAlpha" operator="out"/><feColorMatrix values="0 0 0 0 0 0 0 0 0 0 0 0 0 0 0 0 0 0 0.08 0"/><feBlend in2="BackgroundImageFix" result="effect1_dropShadow_4258_753"/><feColorMatrix in="SourceAlpha" result="hardAlpha" values="0 0 0 0 0 0 0 0 0 0 0 0 0 0 0 0 0 0 127 0"/><feOffset dy="1"/><feGaussianBlur stdDeviation="1"/><feComposite in2="hardAlpha" operator="out"/><feColorMatrix values="0 0 0 0 0.0980392 0 0 0 0 0.109804 0 0 0 0 0.129412 0 0 0 0.06 0"/><feBlend in2="effect1_dropShadow_4258_753" result="effect2_dropShadow_4258_753"/><feColorMatrix in="SourceAlpha" result="hardAlpha" values="0 0 0 0 0 0 0 0 0 0 0 0 0 0 0 0 0 0 127 0"/><feMorphology in="SourceAlpha" operator="dilate" radius="1" result="effect3_dropShadow_4258_753"/><feOffset/><feComposite in2="hardAlpha" operator="out"/><feColorMatrix values="0 0 0 0 0.0980392 0 0 0 0 0.109804 0 0 0 0 0.129412 0 0 0 0.04 0"/><feBlend in2="effect2_dropShadow_4258_753" result="effect3_dropShadow_4258_753"/><feBlend in="SourceGraphic" in2="effect3_dropShadow_4258_753" result="shape"/></filter><filter id="d" width="160" height="35" x="68" y="180" color-interpolation-filters="sRGB" filterUnits="userSpaceOnUse"><feFlood flood-opacity="0" result="BackgroundImageFix"/><feColorMatrix in="SourceAlpha" result="hardAlpha" values="0 0 0 0 0 0 0 0 0 0 0 0 0 0 0 0 0 0 127 0"/><feMorphology in="SourceAlpha" radius="1" result="effect1_dropShadow_4258_753"/><feOffset dy="2"/><feGaussianBlur stdDeviation="1.5"/><feComposite in2="hardAlpha" operator="out"/><feColorMatrix values="0 0 0 0 0 0 0 0 0 0 0 0 0 0 0 0 0 0 0.08 0"/><feBlend in2="BackgroundImageFix" result="effect1_dropShadow_4258_753"/><feColorMatrix in="SourceAlpha" result="hardAlpha" values="0 0 0 0 0 0 0 0 0 0 0 0 0 0 0 0 0 0 127 0"/><feOffset dy="1"/><feComposite in2="hardAlpha" operator="out"/><feColorMatrix values="0 0 0 0 0 0 0 0 0 0 0 0 0 0 0 0 0 0 0.02 0"/><feBlend in2="effect1_dropShadow_4258_753" result="effect2_dropShadow_4258_753"/><feColorMatrix in="SourceAlpha" result="hardAlpha" values="0 0 0 0 0 0 0 0 0 0 0 0 0 0 0 0 0 0 127 0"/><feMorphology in="SourceAlpha" operator="dilate" radius="1" result="effect3_dropShadow_4258_753"/><feOffset/><feComposite in2="hardAlpha" operator="out"/><feColorMatrix values="0 0 0 0 0 0 0 0 0 0 0 0 0 0 0 0 0 0 0.08 0"/><feBlend in2="effect2_dropShadow_4258_753" result="effect3_dropShadow_4258_753"/><feBlend in="SourceGraphic" in2="effect3_dropShadow_4258_753" result="shape"/></filter><filter id="f" width="160" height="35" x="232" y="180" color-interpolation-filters="sRGB" filterUnits="userSpaceOnUse"><feFlood flood-opacity="0" result="BackgroundImageFix"/><feColorMatrix in="SourceAlpha" result="hardAlpha" values="0 0 0 0 0 0 0 0 0 0 0 0 0 0 0 0 0 0 127 0"/><feMorphology in="SourceAlpha" radius="1" result="effect1_dropShadow_4258_753"/><feOffset dy="2"/><feGaussianBlur stdDeviation="1.5"/><feComposite in2="hardAlpha" operator="out"/><feColorMatrix values="0 0 0 0 0 0 0 0 0 0 0 0 0 0 0 0 0 0 0.08 0"/><feBlend in2="BackgroundImageFix" result="effect1_dropShadow_4258_753"/><feColorMatrix in="SourceAlpha" result="hardAlpha" values="0 0 0 0 0 0 0 0 0 0 0 0 0 0 0 0 0 0 127 0"/><feOffset dy="1"/><feComposite in2="hardAlpha" operator="out"/><feColorMatrix values="0 0 0 0 0 0 0 0 0 0 0 0 0 0 0 0 0 0 0.02 0"/><feBlend in2="effect1_dropShadow_4258_753" result="effect2_dropShadow_4258_753"/><feColorMatrix in="SourceAlpha" result="hardAlpha" values="0 0 0 0 0 0 0 0 0 0 0 0 0 0 0 0 0 0 127 0"/><feMorphology in="SourceAlpha" operator="dilate" radius="1" result="effect3_dropShadow_4258_753"/><feOffset/><feComposite in2="hardAlpha" operator="out"/><feColorMatrix values="0 0 0 0 0 0 0 0 0 0 0 0 0 0 0 0 0 0 0.08 0"/><feBlend in2="effect2_dropShadow_4258_753" result="effect3_dropShadow_4258_753"/><feBlend in="SourceGraphic" in2="effect3_dropShadow_4258_753" result="shape"/></filter><filter id="h" width="154" height="35" x="69" y="302" color-interpolation-filters="sRGB" filterUnits="userSpaceOnUse"><feFlood flood-opacity="0" result="BackgroundImageFix"/><feColorMatrix in="SourceAlpha" result="hardAlpha" values="0 0 0 0 0 0 0 0 0 0 0 0 0 0 0 0 0 0 127 0"/><feMorphology in="SourceAlpha" operator="dilate" radius="1" result="effect1_dropShadow_4258_753"/><feOffset/><feComposite in2="hardAlpha" operator="out"/><feColorMatrix values="0 0 0 0 0 0 0 0 0 0 0 0 0 0 0 0 0 0 0.1 0"/><feBlend in2="BackgroundImageFix" result="effect1_dropShadow_4258_753"/><feColorMatrix in="SourceAlpha" result="hardAlpha" values="0 0 0 0 0 0 0 0 0 0 0 0 0 0 0 0 0 0 127 0"/><feOffset dy="1"/><feGaussianBlur stdDeviation=".5"/><feComposite in2="hardAlpha" operator="out"/><feColorMatrix values="0 0 0 0 0 0 0 0 0 0 0 0 0 0 0 0 0 0 0.06 0"/><feBlend in2="effect1_dropShadow_4258_753" result="effect2_dropShadow_4258_753"/><feBlend in="SourceGraphic" in2="effect2_dropShadow_4258_753" result="shape"/></filter><filter id="i" width="154" height="35" x="237" y="302" color-interpolation-filters="sRGB" filterUnits="userSpaceOnUse"><feFlood flood-opacity="0" result="BackgroundImageFix"/><feColorMatrix in="SourceAlpha" result="hardAlpha" values="0 0 0 0 0 0 0 0 0 0 0 0 0 0 0 0 0 0 127 0"/><feMorphology in="SourceAlpha" operator="dilate" radius="1" result="effect1_dropShadow_4258_753"/><feOffset/><feComposite in2="hardAlpha" operator="out"/><feColorMatrix values="0 0 0 0 0 0 0 0 0 0 0 0 0 0 0 0 0 0 0.1 0"/><feBlend in2="BackgroundImageFix" result="effect1_dropShadow_4258_753"/><feColorMatrix in="SourceAlpha" result="hardAlpha" values="0 0 0 0 0 0 0 0 0 0 0 0 0 0 0 0 0 0 127 0"/><feOffset dy="1"/><feGaussianBlur stdDeviation=".5"/><feComposite in2="hardAlpha" operator="out"/><feColorMatrix values="0 0 0 0 0 0 0 0 0 0 0 0 0 0 0 0 0 0 0.06 0"/><feBlend in2="effect1_dropShadow_4258_753" result="effect2_dropShadow_4258_753"/><feBlend in="SourceGraphic" in2="effect2_dropShadow_4258_753" result="shape"/></filter><filter id="j" width="322" height="35" x="69" y="384" color-interpolation-filters="sRGB" filterUnits="userSpaceOnUse"><feFlood flood-opacity="0" result="BackgroundImageFix"/><feColorMatrix in="SourceAlpha" result="hardAlpha" values="0 0 0 0 0 0 0 0 0 0 0 0 0 0 0 0 0 0 127 0"/><feMorphology in="SourceAlpha" operator="dilate" radius="1" result="effect1_dropShadow_4258_753"/><feOffset/><feComposite in2="hardAlpha" operator="out"/><feColorMatrix values="0 0 0 0 0 0 0 0 0 0 0 0 0 0 0 0 0 0 0.1 0"/><feBlend in2="BackgroundImageFix" result="effect1_dropShadow_4258_753"/><feColorMatrix in="SourceAlpha" result="hardAlpha" values="0 0 0 0 0 0 0 0 0 0 0 0 0 0 0 0 0 0 127 0"/><feOffset dy="1"/><feGaussianBlur stdDeviation=".5"/><feComposite in2="hardAlpha" operator="out"/><feColorMatrix values="0 0 0 0 0 0 0 0 0 0 0 0 0 0 0 0 0 0 0.06 0"/><feBlend in2="effect1_dropShadow_4258_753" result="effect2_dropShadow_4258_753"/><feBlend in="SourceGraphic" in2="effect2_dropShadow_4258_753" result="shape"/></filter><filter id="k" width="322" height="35" x="69" y="466" color-interpolation-filters="sRGB" filterUnits="userSpaceOnUse"><feFlood flood-opacity="0" result="BackgroundImageFix"/><feColorMatrix in="SourceAlpha" result="hardAlpha" values="0 0 0 0 0 0 0 0 0 0 0 0 0 0 0 0 0 0 127 0"/><feMorphology in="SourceAlpha" operator="dilate" radius="1" result="effect1_dropShadow_4258_753"/><feOffset/><feComposite in2="hardAlpha" operator="out"/><feColorMatrix values="0 0 0 0 0 0 0 0 0 0 0 0 0 0 0 0 0 0 0.1 0"/><feBlend in2="BackgroundImageFix" result="effect1_dropShadow_4258_753"/><feColorMatrix in="SourceAlpha" result="hardAlpha" values="0 0 0 0 0 0 0 0 0 0 0 0 0 0 0 0 0 0 127 0"/><feOffset dy="1"/><feGaussianBlur stdDeviation=".5"/><feComposite in2="hardAlpha" operator="out"/><feColorMatrix values="0 0 0 0 0 0 0 0 0 0 0 0 0 0 0 0 0 0 0.06 0"/><feBlend in2="effect1_dropShadow_4258_753" result="effect2_dropShadow_4258_753"/><feBlend in="SourceGraphic" in2="effect2_dropShadow_4258_753" result="shape"/></filter><filter id="l" width="322" height="33" x="69" y="548" color-interpolation-filters="sRGB" filterUnits="userSpaceOnUse"><feFlood flood-opacity="0" result="BackgroundImageFix"/><feColorMatrix in="SourceAlpha" result="hardAlpha" values="0 0 0 0 0 0 0 0 0 0 0 0 0 0 0 0 0 0 127 0"/><feOffset dy="1"/><feGaussianBlur stdDeviation=".5"/><feComposite in2="hardAlpha" operator="out"/><feColorMatrix values="0 0 0 0 0.0980392 0 0 0 0 0.109804 0 0 0 0 0.129412 0 0 0 0.06 0"/><feBlend in2="BackgroundImageFix" result="effect1_dropShadow_4258_753"/><feColorMatrix in="SourceAlpha" result="hardAlpha" values="0 0 0 0 0 0 0 0 0 0 0 0 0 0 0 0 0 0 127 0"/><feMorphology in="SourceAlpha" operator="dilate" radius="1" result="effect2_dropShadow_4258_753"/><feOffset/><feComposite in2="hardAlpha" operator="out"/><feColorMatrix values="0 0 0 0 0.0980392 0 0 0 0 0.109804 0 0 0 0 0.129412 0 0 0 0.1 0"/><feBlend in2="effect1_dropShadow_4258_753" result="effect2_dropShadow_4258_753"/><feBlend in="SourceGraphic" in2="effect2_dropShadow_4258_753" result="shape"/></filter><filter id="m" width="322" height="35" x="69" y="628" color-interpolation-filters="sRGB" filterUnits="userSpaceOnUse"><feFlood flood-opacity="0" result="BackgroundImageFix"/><feColorMatrix in="SourceAlpha" result="hardAlpha" values="0 0 0 0 0 0 0 0 0 0 0 0 0 0 0 0 0 0 127 0"/><feMorphology in="SourceAlpha" operator="dilate" radius="1" result="effect1_dropShadow_4258_753"/><feOffset/><feComposite in2="hardAlpha" operator="out"/><feColorMatrix values="0 0 0 0 0 0 0 0 0 0 0 0 0 0 0 0 0 0 0.1 0"/><feBlend in2="BackgroundImageFix" result="effect1_dropShadow_4258_753"/><feColorMatrix in="SourceAlpha" result="hardAlpha" values="0 0 0 0 0 0 0 0 0 0 0 0 0 0 0 0 0 0 127 0"/><feOffset dy="1"/><feGaussianBlur stdDeviation=".5"/><feComposite in2="hardAlpha" operator="out"/><feColorMatrix values="0 0 0 0 0 0 0 0 0 0 0 0 0 0 0 0 0 0 0.06 0"/><feBlend in2="effect1_dropShadow_4258_753" result="effect2_dropShadow_4258_753"/><feBlend in="SourceGraphic" in2="effect2_dropShadow_4258_753" result="shape"/></filter><filter id="n" width="326" height="38" x="67" y="692" color-interpolation-filters="sRGB" filterUnits="userSpaceOnUse"><feFlood flood-opacity="0" result="BackgroundImageFix"/><feColorMatrix in="SourceAlpha" result="hardAlpha" values="0 0 0 0 0 0 0 0 0 0 0 0 0 0 0 0 0 0 127 0"/><feMorphology in="SourceAlpha" operator="dilate" radius="1" result="effect1_dropShadow_4258_753"/><feOffset/><feComposite in2="hardAlpha" operator="out"/><feColorMatrix values="0 0 0 0 0.184314 0 0 0 0 0.188235 0 0 0 0 0.215686 0 0 0 1 0"/><feBlend in2="BackgroundImageFix" result="effect1_dropShadow_4258_753"/><feColorMatrix in="SourceAlpha" result="hardAlpha" values="0 0 0 0 0 0 0 0 0 0 0 0 0 0 0 0 0 0 127 0"/><feOffset dy="2"/><feGaussianBlur stdDeviation="1.5"/><feComposite in2="hardAlpha" operator="out"/><feColorMatrix values="0 0 0 0 0.133333 0 0 0 0 0.164706 0 0 0 0 0.207843 0 0 0 0.2 0"/><feBlend in2="effect1_dropShadow_4258_753" result="effect2_dropShadow_4258_753"/><feColorMatrix in="SourceAlpha" result="hardAlpha" values="0 0 0 0 0 0 0 0 0 0 0 0 0 0 0 0 0 0 127 0"/><feOffset dy="1"/><feGaussianBlur stdDeviation=".5"/><feComposite in2="hardAlpha" operator="out"/><feColorMatrix values="0 0 0 0 0 0 0 0 0 0 0 0 0 0 0 0 0 0 0.24 0"/><feBlend in2="effect2_dropShadow_4258_753" result="effect3_dropShadow_4258_753"/><feBlend in="SourceGraphic" in2="effect3_dropShadow_4258_753" result="shape"/><feColorMatrix in="SourceAlpha" result="hardAlpha" values="0 0 0 0 0 0 0 0 0 0 0 0 0 0 0 0 0 0 127 0"/><feOffset dy="1"/><feGaussianBlur stdDeviation=".5"/><feComposite in2="hardAlpha" k2="-1" k3="1" operator="arithmetic"/><feColorMatrix values="0 0 0 0 1 0 0 0 0 1 0 0 0 0 1 0 0 0 0.07 0"/><feBlend in2="shape" result="effect4_innerShadow_4258_753"/></filter><clipPath id="b"><rect width="400" height="840" x="30" y="15" fill="#fff" rx="12"/></clipPath><clipPath id="e"><path fill="#fff" d="M111.5 188h16v16h-16z"/></clipPath><clipPath id="g"><path fill="#fff" d="M276 188h16v16h-16z"/></clipPath><clipPath id="p"><rect width="10" height="10" x="257.5" y="704" fill="#fff" rx="2"/></clipPath><linearGradient id="o" x1="230" x2="230" y1="693" y2="725" gradientUnits="userSpaceOnUse"><stop stop-color="#fff"/><stop offset="1" stop-color="#fff" stop-opacity="0"/></linearGradient></defs></svg>