<svg xmlns="http://www.w3.org/2000/svg" width="460" height="492" fill="none"><g filter="url(#a)"><g clip-path="url(#b)"><rect width="400" height="432" x="30" y="15" fill="#f7f7f8" rx="12"/><g filter="url(#c)"><rect width="400" height="334" x="30" y="15" fill="#fff" rx="8"/><path fill="#42434d" fill-rule="evenodd" d="M220.4 47a6.4 6.4 0 0 0-6.4 6.4v19.2a6.4 6.4 0 0 0 6.4 6.4h19.2a6.4 6.4 0 0 0 6.4-6.4V53.4a6.4 6.4 0 0 0-6.4-6.4zm9.6 24.889a8.89 8.89 0 1 0 0-17.778 8.89 8.89 0 0 0 0 17.778" clip-rule="evenodd"/><path fill="#131316" d="M166.673 121.307q-1.236 0-2.133-.456a3.35 3.35 0 0 1-1.386-1.304q-.49-.838-.523-1.959v-.066h2.432v.05q.025.456.208.813.19.358.531.556.349.2.838.2.797 0 1.204-.474.414-.472.415-1.369v-8.276h2.507v8.292q0 1.893-1.079 2.947-1.071 1.046-3.014 1.046m10.609-.116q-1.403 0-2.416-.565a3.8 3.8 0 0 1-1.552-1.635q-.54-1.071-.54-2.556v-.017q0-1.478.548-2.54a3.9 3.9 0 0 1 1.553-1.635q1.012-.582 2.407-.581 1.394 0 2.399.572a3.86 3.86 0 0 1 1.56 1.644q.548 1.062.548 2.54v.017q0 1.485-.539 2.556a3.8 3.8 0 0 1-1.553 1.635q-1.004.565-2.415.565m0-1.901q.647 0 1.095-.34.449-.34.689-.98.241-.64.241-1.535v-.017q0-.897-.241-1.527-.24-.64-.697-.98-.448-.349-1.087-.349-.64 0-1.096.349-.448.34-.689.98-.24.63-.241 1.527v.017q0 .904.233 1.544.24.639.689.979.456.332 1.104.332m6.499 1.71v-9.139h2.424V121zm1.22-10.542q-.555 0-.962-.39a1.3 1.3 0 0 1-.407-.955q0-.564.407-.954.407-.399.962-.399.566 0 .963.399.399.39.399.954 0 .556-.399.955-.397.39-.963.39M188.646 121v-9.139h2.423v1.411h.15q.316-.747.979-1.179.665-.43 1.644-.431 1.527 0 2.324.896.805.888.805 2.532V121h-2.424v-5.362q0-.972-.406-1.47-.408-.498-1.27-.498-.556 0-.963.258a1.7 1.7 0 0 0-.623.705q-.216.457-.216 1.079V121zm18.851.033q-1.66 0-2.391-.581-.73-.59-.731-1.917v-4.848h-1.411v-1.826h1.411v-2.183h2.449v2.183h1.884v1.826h-1.884v4.292q0 .614.274.904.282.282.897.283.233 0 .381-.009l.332-.033v1.801a7 7 0 0 1-1.211.108m3.312-.033v-12.634h2.423v4.906h.15q.316-.747.979-1.179.665-.43 1.644-.431 1.022 0 1.71.406.697.399 1.054 1.162.365.764.365 1.86V121h-2.424v-5.362q0-.972-.406-1.47t-1.27-.498q-.557 0-.963.258a1.7 1.7 0 0 0-.623.705q-.216.457-.216 1.079V121zm14.692.191q-1.386 0-2.391-.573a3.9 3.9 0 0 1-1.535-1.643q-.54-1.064-.54-2.532v-.008q0-1.453.531-2.524a4 4 0 0 1 1.519-1.66q.988-.59 2.316-.589 1.337 0 2.308.572a3.84 3.84 0 0 1 1.494 1.602q.523 1.03.523 2.416v.755h-7.479v-1.519h6.317l-1.137 1.436v-.971q0-.822-.258-1.37-.249-.548-.697-.821a1.86 1.86 0 0 0-1.029-.283q-.58 0-1.038.291-.448.283-.714.838-.257.549-.257 1.345v.98q0 .771.257 1.319t.731.839 1.129.29q.531 0 .905-.157.374-.158.597-.366.232-.215.316-.39l.025-.05h2.257l-.016.083q-.108.432-.39.905-.283.465-.781.872-.49.406-1.228.664-.73.249-1.735.249m12.327-.191-2.441-9.139h2.449l1.361 6.616h.15l1.602-6.616h2.307l1.611 6.616h.149l1.361-6.616h2.399L246.344 121h-2.573l-1.635-6.375h-.15L240.368 121zm14.916.141q-.863 0-1.544-.332a2.6 2.6 0 0 1-1.054-.955q-.382-.622-.382-1.452v-.017q0-1.236.922-1.934.92-.706 2.623-.805l3.403-.208v1.478l-3.038.199q-.78.042-1.162.332a.94.94 0 0 0-.382.789v.016q0 .523.398.822.399.299 1.03.299.564 0 1.004-.224t.697-.606q.258-.39.258-.872v-2.913q0-.598-.399-.913-.39-.324-1.137-.324-.656 0-1.071.224a1.1 1.1 0 0 0-.548.623l-.016.033h-2.242l.009-.075a2.6 2.6 0 0 1 .606-1.403q.514-.597 1.378-.929.871-.332 2.017-.332 1.212 0 2.058.373.848.366 1.287 1.063.448.688.448 1.66V121h-2.39v-1.212h-.15a2.4 2.4 0 0 1-.622.731 2.9 2.9 0 0 1-.897.464 3.7 3.7 0 0 1-1.104.158m7.554-.141v-9.139h2.424V121zm1.22-10.542q-.556 0-.963-.39a1.3 1.3 0 0 1-.407-.955q0-.564.407-.954.406-.399.963-.399.564 0 .963.399.399.39.398.954 0 .556-.398.955-.399.39-.963.39m7.438 10.575q-1.66 0-2.391-.581-.73-.59-.731-1.917v-4.848h-1.411v-1.826h1.411v-2.183h2.449v2.183h1.884v1.826h-1.884v4.292q0 .614.274.904.282.282.897.283.233 0 .381-.009l.332-.033v1.801a7 7 0 0 1-1.211.108m3.312-.033v-12.634h2.423V121zm4.947 0v-9.139h2.424V121zm1.22-10.542q-.556 0-.963-.39a1.3 1.3 0 0 1-.407-.955q0-.564.407-.954.406-.399.963-.399.564 0 .963.399.399.39.398.954 0 .556-.398.955-.399.39-.963.39m7.28 10.733q-1.245 0-2.125-.34-.872-.35-1.37-.955a2.6 2.6 0 0 1-.573-1.386l-.008-.033h2.382l.017.033q.15.423.565.697.423.274 1.137.274.465 0 .813-.125.349-.132.548-.356a.76.76 0 0 0 .199-.523v-.017a.74.74 0 0 0-.299-.606q-.298-.24-.996-.398l-1.527-.324q-1.304-.282-1.959-.93-.648-.647-.647-1.668v-.009q0-.863.473-1.502.481-.648 1.336-1.004.864-.357 2.001-.357 1.195 0 2.033.365.839.357 1.287.963.456.597.506 1.336v.033h-2.249l-.009-.041q-.099-.374-.498-.656-.398-.29-1.079-.29-.415 0-.738.124a1.24 1.24 0 0 0-.515.349.8.8 0 0 0-.183.531v.008a.73.73 0 0 0 .291.598q.291.232.996.382l1.519.324q1.37.299 2.025.896.657.597.656 1.61v.009q0 .905-.515 1.577-.514.672-1.419 1.046-.905.365-2.075.365m9.737-.158q-1.66 0-2.391-.581-.73-.59-.73-1.917v-4.848h-1.412v-1.826h1.412v-2.183h2.448v2.183h1.885v1.826h-1.885v4.292q0 .614.274.904.282.282.897.283.232 0 .382-.009l.332-.033v1.801a7 7 0 0 1-1.212.108"/><path fill="#747686" d="M86.2 145v-9.16h5.675v1.029h-4.532v2.939h4.297v1.015h-4.297v3.149h4.532V145zm7.605 0v-6.843h1.104v1.029h.102q.26-.546.749-.845.488-.304 1.244-.304 1.155 0 1.77.66.624.654.623 1.872V145h-1.105v-4.164q0-.927-.393-1.371-.387-.451-1.206-.451-.547 0-.946.235a1.6 1.6 0 0 0-.622.667q-.216.43-.216 1.034V145zm10.023.051q-1.054 0-1.53-.426-.47-.425-.47-1.402v-4.152h-1.079v-.914h1.079v-1.771h1.143v1.771h1.498v.914h-1.498v3.872q0 .603.228.87.229.26.762.26.146 0 .247-.006.108-.006.261-.019v.939a9 9 0 0 1-.318.045 3 3 0 0 1-.323.019m4.995.07q-.977 0-1.682-.432a2.86 2.86 0 0 1-1.079-1.219q-.374-.794-.374-1.866v-.006q0-1.06.374-1.86.381-.8 1.073-1.251t1.618-.45q.934 0 1.6.431.673.432 1.028 1.206.363.768.362 1.79v.432h-5.484v-.882h4.919l-.546.806v-.438q0-.807-.241-1.327-.242-.52-.666-.774a1.83 1.83 0 0 0-.978-.26q-.552 0-.99.272-.431.267-.686.794-.254.527-.254 1.295v.438q0 .73.248 1.25.248.515.705.794.456.273 1.079.273.463 0 .806-.127t.565-.324.311-.4l.025-.057h1.105l-.013.051a2.1 2.1 0 0 1-.317.679 2.5 2.5 0 0 1-.578.59 3 3 0 0 1-.844.419 3.6 3.6 0 0 1-1.086.153m4.634-.121v-6.843h1.105v1.016h.101q.196-.54.667-.838.47-.298 1.161-.298.16 0 .311.019.159.013.241.025v1.073a3 3 0 0 0-.336-.045 3 3 0 0 0-.343-.019q-.526 0-.933.21a1.6 1.6 0 0 0-.641.584 1.65 1.65 0 0 0-.228.876V145zm9.191 2.399a3 3 0 0 1-.241-.012 2 2 0 0 1-.247-.026v-.907q.1.018.222.025.12.006.235.006.47 0 .768-.241.305-.242.489-.831l.126-.407-2.532-6.849h1.18l2.108 6.322-.438-.691h.52l-.438.691 2.101-6.322h1.162l-2.672 7.262q-.287.768-.597 1.2a1.66 1.66 0 0 1-.724.603q-.412.177-1.022.177m9.033-2.278q-.97 0-1.682-.426a2.87 2.87 0 0 1-1.092-1.225q-.381-.793-.381-1.885v-.013q0-1.098.381-1.891a2.83 2.83 0 0 1 1.092-1.219q.711-.425 1.682-.425.978 0 1.682.425.705.425 1.086 1.219.387.793.387 1.891v.013q0 1.092-.387 1.885a2.83 2.83 0 0 1-1.086 1.225q-.704.426-1.682.426m0-.978q.648 0 1.098-.305.451-.304.686-.876.241-.57.241-1.377v-.013q0-.812-.241-1.384-.235-.57-.686-.869-.45-.305-1.098-.305-.647 0-1.098.305-.45.299-.692.869-.234.572-.235 1.384v.013q0 .806.235 1.377.242.572.692.876t1.098.305m7.16.978q-.774 0-1.301-.292a1.9 1.9 0 0 1-.793-.864q-.261-.571-.261-1.377v-4.431h1.105v4.164q0 .921.355 1.371.362.451 1.181.451.603 0 1.016-.235.412-.235.622-.666.209-.438.209-1.035v-4.05h1.105V145h-1.105v-1.022h-.101q-.255.546-.769.844-.507.299-1.263.299m5.301-.121v-6.843h1.104v1.016h.102a1.62 1.62 0 0 1 .666-.838q.47-.298 1.162-.298.159 0 .311.019.159.013.241.025v1.073a3 3 0 0 0-.336-.045 3 3 0 0 0-.343-.019q-.526 0-.933.21a1.6 1.6 0 0 0-.641.584 1.64 1.64 0 0 0-.229.876V145zm11.4.121q-.977 0-1.682-.432a2.86 2.86 0 0 1-1.079-1.219q-.375-.794-.375-1.866v-.006q0-1.06.375-1.86.38-.8 1.073-1.251.691-.45 1.618-.45.933 0 1.6.431.672.432 1.028 1.206.362.768.362 1.79v.432h-5.484v-.882h4.919l-.546.806v-.438q0-.807-.241-1.327t-.667-.774a1.83 1.83 0 0 0-.977-.26q-.552 0-.99.272a1.84 1.84 0 0 0-.686.794q-.254.527-.254 1.295v.438q0 .73.248 1.25.248.515.704.794.458.273 1.079.273.464 0 .807-.127.342-.127.564-.324.223-.196.312-.4l.025-.057h1.104l-.012.051q-.09.35-.318.679-.222.324-.577.59a3 3 0 0 1-.845.419 3.6 3.6 0 0 1-1.085.153m4.634-.121v-6.843h1.104v1.041h.102a1.82 1.82 0 0 1 .698-.857q.475-.304 1.149-.304.463 0 .832.152t.634.425q.267.267.426.622h.101a2.1 2.1 0 0 1 .495-.628 2.2 2.2 0 0 1 .718-.419q.412-.153.882-.152.698 0 1.181.26.488.26.742.762.254.495.254 1.212V145h-1.104v-4.475q0-.755-.356-1.13-.349-.381-1.073-.381-.476 0-.831.216a1.5 1.5 0 0 0-.552.578 1.6 1.6 0 0 0-.197.793V145h-1.105v-4.646q0-.61-.387-.972-.387-.368-1.035-.368-.444 0-.806.235a1.7 1.7 0 0 0-.565.635 1.9 1.9 0 0 0-.203.876V145zm13.19.121q-.647 0-1.168-.248a2 2 0 0 1-.819-.705 1.93 1.93 0 0 1-.298-1.079v-.012q0-.915.648-1.429.653-.52 1.847-.59l2.513-.152v.882l-2.38.152q-.78.045-1.143.324-.355.28-.355.787v.013q0 .52.393.812.394.286.991.286a2.2 2.2 0 0 0 1.003-.222q.438-.228.685-.616.254-.387.254-.876v-2.133q0-.634-.387-.964-.381-.337-1.149-.337-.616 0-1.009.222a1.07 1.07 0 0 0-.527.616l-.007.019h-1.104l.006-.038q.09-.54.445-.939.362-.407.933-.629a3.5 3.5 0 0 1 1.301-.228q.838 0 1.416.273.583.273.882.787.305.507.305 1.218V145h-1.105v-1.009h-.101q-.216.362-.527.615-.305.255-.692.388a2.7 2.7 0 0 1-.851.127m5.32-.121v-6.843h1.104V145zm.558-8.163a.75.75 0 0 1-.539-.222.75.75 0 0 1-.223-.54q0-.317.223-.539a.75.75 0 0 1 .539-.223q.318 0 .54.223a.73.73 0 0 1 .222.539.75.75 0 0 1-.222.54.74.74 0 0 1-.54.222m2.692 8.163v-9.56h1.104V145zm8.759.121q-.647 0-1.168-.248a2 2 0 0 1-.819-.705 1.93 1.93 0 0 1-.298-1.079v-.012q0-.915.648-1.429.653-.52 1.847-.59l2.513-.152v.882l-2.38.152q-.78.045-1.142.324-.356.28-.356.787v.013q0 .52.394.812.393.286.99.286a2.2 2.2 0 0 0 1.003-.222q.438-.228.685-.616.255-.387.254-.876v-2.133q0-.634-.387-.964-.381-.337-1.149-.337-.616 0-1.009.222a1.07 1.07 0 0 0-.527.616l-.006.019h-1.105l.006-.038q.09-.54.445-.939.362-.407.933-.629a3.5 3.5 0 0 1 1.301-.228q.839 0 1.416.273.584.273.882.787.305.507.305 1.218V145h-1.105v-1.009h-.101q-.216.362-.527.615-.305.255-.692.388a2.7 2.7 0 0 1-.851.127m7.821 0q-.864 0-1.511-.438-.648-.438-1.003-1.232-.356-.8-.356-1.866v-.013q0-1.072.356-1.866.355-.793.997-1.231.647-.438 1.517-.438.704 0 1.276.33.577.324.856.869h.102v-3.796h1.104V145h-1.104v-1.092h-.102a2.3 2.3 0 0 1-.863.895 2.5 2.5 0 0 1-1.269.318m.254-.978q.621 0 1.072-.311.451-.31.692-.882.241-.577.241-1.365v-.013q0-.794-.241-1.364a1.97 1.97 0 0 0-.692-.883q-.45-.31-1.072-.311-.623 0-1.073.311-.444.305-.686.876-.234.571-.235 1.371v.013q0 .793.235 1.371.242.572.686.882.45.305 1.073.305m7.731.978q-.863 0-1.511-.438t-1.003-1.232q-.355-.8-.355-1.866v-.013q0-1.072.355-1.866.355-.793.997-1.231.648-.438 1.517-.438.705 0 1.276.33.578.324.857.869h.101v-3.796h1.105V145h-1.105v-1.092h-.101a2.3 2.3 0 0 1-.863.895 2.5 2.5 0 0 1-1.27.318m.254-.978q.622 0 1.073-.311.45-.31.692-.882.24-.577.241-1.365v-.013q0-.794-.241-1.364a2 2 0 0 0-.692-.883q-.451-.31-1.073-.311-.622 0-1.073.311-.444.305-.685.876-.235.571-.235 1.371v.013q0 .793.235 1.371.24.572.685.882.451.305 1.073.305m5.205.857v-6.843h1.104v1.016h.102q.196-.54.667-.838.47-.298 1.161-.298.16 0 .311.019.159.013.241.025v1.073a3 3 0 0 0-.336-.045 3 3 0 0 0-.343-.019q-.526 0-.933.21a1.6 1.6 0 0 0-.641.584 1.65 1.65 0 0 0-.229.876V145zm7.554.121q-.978 0-1.682-.432a2.86 2.86 0 0 1-1.08-1.219q-.374-.794-.374-1.866v-.006q0-1.06.374-1.86.381-.8 1.073-1.251t1.619-.45q.933 0 1.599.431.674.432 1.029 1.206.362.768.362 1.79v.432h-5.485v-.882h4.92l-.546.806v-.438q0-.807-.241-1.327t-.667-.774a1.83 1.83 0 0 0-.977-.26q-.553 0-.991.272a1.85 1.85 0 0 0-.685.794q-.255.527-.254 1.295v.438q0 .73.247 1.25.248.515.705.794.457.273 1.079.273.464 0 .806-.127.343-.127.565-.324.222-.196.311-.4l.026-.057h1.104l-.013.051a2.1 2.1 0 0 1-.317.679 2.5 2.5 0 0 1-.578.59 3 3 0 0 1-.844.419 3.6 3.6 0 0 1-1.085.153m6.982 0q-.761 0-1.346-.229a2.35 2.35 0 0 1-.939-.654 1.8 1.8 0 0 1-.413-.984h1.13q.14.425.546.686.406.26 1.06.26.464 0 .813-.133.356-.14.558-.375a.83.83 0 0 0 .203-.552v-.013a.75.75 0 0 0-.279-.59q-.28-.247-.914-.4l-1.06-.254q-.959-.228-1.409-.666-.451-.444-.451-1.181v-.006q0-.572.33-1.022.336-.452.914-.711.577-.26 1.302-.26.717 0 1.269.228.558.222.895.635.343.413.419.971h-1.085a1.12 1.12 0 0 0-.496-.66q-.387-.254-1.009-.254-.406 0-.723.133a1.2 1.2 0 0 0-.502.356.82.82 0 0 0-.184.533v.013a.72.72 0 0 0 .273.577q.273.23.876.375l1.054.254q.965.234 1.434.673.476.438.476 1.174v.013q0 .61-.362 1.079-.362.464-.983.723a3.55 3.55 0 0 1-1.397.261m6.678 0q-.762 0-1.346-.229a2.35 2.35 0 0 1-.939-.654 1.8 1.8 0 0 1-.413-.984h1.13q.14.425.546.686.406.26 1.06.26.464 0 .812-.133a1.4 1.4 0 0 0 .559-.375.83.83 0 0 0 .203-.552v-.013a.75.75 0 0 0-.279-.59q-.28-.247-.914-.4l-1.06-.254q-.959-.228-1.409-.666-.451-.444-.451-1.181v-.006q0-.572.33-1.022.336-.452.914-.711.578-.26 1.301-.26.718 0 1.27.228.558.222.895.635.342.413.419.971h-1.086a1.12 1.12 0 0 0-.495-.66q-.387-.254-1.009-.254-.406 0-.724.133a1.2 1.2 0 0 0-.501.356.82.82 0 0 0-.184.533v.013a.72.72 0 0 0 .273.577q.273.23.876.375l1.053.254q.966.234 1.435.673.476.438.476 1.174v.013q0 .61-.362 1.079-.362.464-.984.723-.615.261-1.396.261m9.991 0q-.648 0-1.168-.248a2 2 0 0 1-.819-.705q-.298-.456-.298-1.079v-.012q0-.915.647-1.429.654-.52 1.848-.59l2.513-.152v.882l-2.38.152q-.781.045-1.143.324-.355.28-.355.787v.013q0 .52.393.812.394.286.991.286.564 0 1.002-.222a1.76 1.76 0 0 0 .686-.616q.254-.387.254-.876v-2.133q0-.634-.387-.964-.381-.337-1.149-.337-.616 0-1.009.222a1.07 1.07 0 0 0-.527.616l-.007.019h-1.104l.006-.038q.089-.54.445-.939.362-.407.933-.629.57-.228 1.301-.228.837 0 1.415.273.585.273.883.787.304.507.304 1.218V145h-1.104v-1.009h-.102a2.3 2.3 0 0 1-.526.615 2.2 2.2 0 0 1-.692.388 2.7 2.7 0 0 1-.851.127m5.294-.121v-6.843h1.104v1.029h.102q.26-.546.749-.845.49-.304 1.244-.304 1.155 0 1.771.66.622.654.622 1.872V145h-1.104v-4.164q0-.927-.394-1.371-.387-.451-1.206-.451-.546 0-.946.235a1.6 1.6 0 0 0-.622.667q-.216.43-.216 1.034V145zm10.118.121q-.863 0-1.511-.438t-1.003-1.232q-.355-.8-.355-1.866v-.013q0-1.072.355-1.866.356-.793.997-1.231.648-.438 1.517-.438.705 0 1.276.33.578.324.857.869h.102v-3.796h1.104V145h-1.104v-1.092h-.102a2.3 2.3 0 0 1-.863.895 2.5 2.5 0 0 1-1.27.318m.254-.978q.622 0 1.073-.311.45-.31.692-.882.241-.577.241-1.365v-.013q0-.794-.241-1.364a2 2 0 0 0-.692-.883q-.451-.31-1.073-.311-.622 0-1.073.311-.444.305-.685.876-.235.571-.235 1.371v.013q0 .793.235 1.371.241.572.685.882.451.305 1.073.305m10.182.857-1.917-6.843h1.104l1.346 5.472h.101l1.53-5.472h1.048l1.529 5.472h.102l1.346-5.472h1.098L274.383 145h-1.111l-1.53-5.294h-.101L270.117 145zm11.286.121q-.978 0-1.682-.432a2.86 2.86 0 0 1-1.079-1.219q-.375-.794-.375-1.866v-.006q0-1.06.375-1.86.38-.8 1.072-1.251t1.619-.45q.933 0 1.6.431.672.432 1.028 1.206.362.768.362 1.79v.432h-5.485v-.882h4.92l-.546.806v-.438q0-.807-.241-1.327t-.667-.774a1.83 1.83 0 0 0-.977-.26q-.553 0-.991.272a1.85 1.85 0 0 0-.685.794q-.254.527-.254 1.295v.438q0 .73.248 1.25.247.515.704.794.458.273 1.079.273.464 0 .806-.127.343-.127.565-.324.222-.196.311-.4l.026-.057h1.104l-.012.051q-.09.35-.318.679a2.5 2.5 0 0 1-.577.59 3 3 0 0 1-.845.419 3.6 3.6 0 0 1-1.085.153m4.627-5.669.553-3.612h1.263l-.997 3.612zm3.929 5.548v-9.56h1.105V145zm3.289 0v-9.56h1.104V145zm6.944 0v-9.56h1.104V145zm6.017.121q-.977 0-1.682-.432a2.86 2.86 0 0 1-1.079-1.219q-.374-.794-.374-1.866v-.006q0-1.06.374-1.86.381-.8 1.073-1.251t1.619-.45q.933 0 1.599.431.673.432 1.029 1.206.361.768.361 1.79v.432h-5.484v-.882h4.919l-.545.806v-.438q0-.807-.242-1.327-.24-.52-.666-.774a1.83 1.83 0 0 0-.978-.26q-.552 0-.99.272-.432.267-.685.794-.255.527-.254 1.295v.438q0 .73.247 1.25.248.515.705.794.456.273 1.079.273.463 0 .806-.127t.565-.324.311-.4l.025-.057h1.105l-.013.051a2.1 2.1 0 0 1-.317.679 2.5 2.5 0 0 1-.578.59 3 3 0 0 1-.844.419 3.6 3.6 0 0 1-1.086.153m7.065-.07q-1.053 0-1.529-.426-.47-.425-.47-1.402v-4.152h-1.079v-.914h1.079v-1.771h1.142v1.771h1.499v.914h-1.499v3.872q0 .603.229.87.228.26.762.26.146 0 .247-.006.108-.006.261-.019v.939a9 9 0 0 1-.318.045 3 3 0 0 1-.324.019m6.532 2.348a3 3 0 0 1-.241-.012 2 2 0 0 1-.248-.026v-.907q.102.018.223.025.12.006.234.006.471 0 .768-.241.306-.242.489-.831l.127-.407-2.533-6.849h1.181l2.108 6.322-.438-.691h.52l-.438.691 2.101-6.322h1.162l-2.673 7.262q-.285.768-.596 1.2a1.67 1.67 0 0 1-.724.603q-.413.177-1.022.177m9.033-2.278q-.972 0-1.682-.426a2.87 2.87 0 0 1-1.092-1.225q-.381-.793-.381-1.885v-.013q0-1.098.381-1.891a2.83 2.83 0 0 1 1.092-1.219q.71-.425 1.682-.425.977 0 1.682.425t1.085 1.219q.388.793.388 1.891v.013q0 1.092-.388 1.885a2.8 2.8 0 0 1-1.085 1.225q-.704.426-1.682.426m0-.978q.648 0 1.098-.305.45-.304.686-.876.24-.57.241-1.377v-.013q0-.812-.241-1.384-.236-.57-.686-.869-.45-.305-1.098-.305t-1.098.305q-.451.299-.692.869-.235.572-.235 1.384v.013q0 .806.235 1.377.241.572.692.876t1.098.305m7.16.978q-.774 0-1.301-.292a1.9 1.9 0 0 1-.794-.864q-.26-.571-.26-1.377v-4.431h1.105v4.164q0 .921.355 1.371.362.451 1.181.451.603 0 1.015-.235.413-.235.622-.666.21-.438.21-1.035v-4.05h1.104V145h-1.104v-1.022h-.102a1.86 1.86 0 0 1-.768.844q-.507.299-1.263.299m9.02-.121v-9.56h1.105V145zm4.31 0-2.672-3.352.812-.704 3.25 4.056zm-3.345-2.463-.051-1.39h.292l2.958-2.99h1.339l-3.25 3.136-.266.26zm6.03 2.463v-6.843h1.105v1.029h.101q.26-.546.749-.845.49-.304 1.244-.304 1.156 0 1.771.66.622.654.622 1.872V145h-1.104v-4.164q0-.927-.394-1.371-.387-.451-1.206-.451-.546 0-.945.235a1.6 1.6 0 0 0-.623.667q-.215.43-.215 1.034V145zm10.404.121q-.97 0-1.682-.426a2.87 2.87 0 0 1-1.092-1.225q-.381-.793-.381-1.885v-.013q0-1.098.381-1.891a2.83 2.83 0 0 1 1.092-1.219q.711-.425 1.682-.425.977 0 1.682.425t1.086 1.219q.387.793.387 1.891v.013q0 1.092-.387 1.885a2.83 2.83 0 0 1-1.086 1.225q-.704.426-1.682.426m0-.978q.648 0 1.098-.305.451-.304.686-.876.24-.57.241-1.377v-.013q0-.812-.241-1.384-.235-.57-.686-.869-.45-.305-1.098-.305t-1.098.305q-.451.299-.692.869-.235.572-.235 1.384v.013q0 .806.235 1.377.241.572.692.876t1.098.305m5.935.857-1.917-6.843h1.105l1.345 5.472h.102l1.53-5.472h1.047l1.53 5.472h.101l1.346-5.472h1.098L372.619 145h-1.111l-1.529-5.294h-.102L368.354 145zM159.37 163l-1.917-6.843h1.104l1.346 5.472h.101l1.53-5.472h1.048l1.529 5.472h.102l1.346-5.472h1.098L164.74 163h-1.111l-1.53-5.294h-.101L160.474 163zm8.81 0v-9.56h1.105v3.746h.101q.26-.546.749-.845.49-.304 1.244-.304.768 0 1.302.298.533.292.812.857.279.566.279 1.377V163h-1.104v-4.164q0-.927-.394-1.371-.387-.451-1.206-.451-.546 0-.945.235a1.6 1.6 0 0 0-.623.667q-.215.43-.215 1.034V163zm10.385.121q-.978 0-1.682-.432a2.86 2.86 0 0 1-1.079-1.219q-.375-.794-.375-1.866v-.006q0-1.06.375-1.86.38-.8 1.072-1.251t1.619-.45q.933 0 1.6.431.672.432 1.028 1.206.362.768.362 1.79v.432H176v-.882h4.92l-.546.806v-.438q0-.807-.241-1.327t-.667-.774a1.83 1.83 0 0 0-.977-.26q-.552 0-.99.272a1.84 1.84 0 0 0-.686.794q-.254.527-.254 1.295v.438q0 .73.248 1.25.248.515.704.794.458.273 1.079.273.464 0 .806-.127.343-.127.565-.324.223-.196.311-.4l.026-.057h1.104l-.012.051q-.09.35-.318.679-.222.324-.577.59a3 3 0 0 1-.845.419 3.6 3.6 0 0 1-1.085.153m4.634-.121v-6.843h1.104v1.029h.102a1.94 1.94 0 0 1 .749-.845q.488-.304 1.244-.304 1.155 0 1.771.66.622.654.622 1.872V163h-1.104v-4.164q0-.927-.394-1.371-.387-.451-1.206-.451-.546 0-.946.235a1.6 1.6 0 0 0-.622.667q-.216.43-.216 1.034V163zm11.832 2.399q-.108 0-.241-.012a2 2 0 0 1-.248-.026v-.907q.102.018.222.025.121.006.235.006.47 0 .768-.241.305-.242.489-.831l.127-.407-2.533-6.849h1.181l2.107 6.322-.438-.691h.521l-.438.691 2.101-6.322h1.161l-2.672 7.262q-.285.768-.597 1.2a1.67 1.67 0 0 1-.723.603q-.413.177-1.022.177m9.032-2.278q-.97 0-1.682-.426a2.9 2.9 0 0 1-1.091-1.225q-.381-.793-.381-1.885v-.013q0-1.098.381-1.891a2.84 2.84 0 0 1 1.091-1.219q.711-.425 1.682-.425.978 0 1.683.425.704.425 1.085 1.219.387.793.387 1.891v.013q0 1.092-.387 1.885a2.84 2.84 0 0 1-1.085 1.225q-.705.426-1.683.426m0-.978q.648 0 1.099-.305.45-.304.685-.876.241-.57.241-1.377v-.013q0-.812-.241-1.384-.234-.57-.685-.869-.451-.305-1.099-.305t-1.098.305q-.45.299-.692.869-.234.572-.234 1.384v.013q0 .806.234 1.377.242.572.692.876.451.305 1.098.305m7.161.978q-.775 0-1.302-.292a1.9 1.9 0 0 1-.793-.864q-.26-.571-.26-1.377v-4.431h1.104v4.164q0 .921.356 1.371.361.451 1.18.451.603 0 1.016-.235.412-.235.622-.666.21-.438.209-1.035v-4.05h1.105V163h-1.105v-1.022h-.101a1.86 1.86 0 0 1-.768.844q-.508.299-1.263.299m5.3-.121v-6.843h1.104v1.016h.102a1.62 1.62 0 0 1 .666-.838q.47-.298 1.162-.298.16 0 .311.019.159.013.241.025v1.073a3 3 0 0 0-.336-.045 3 3 0 0 0-.343-.019q-.527 0-.933.21a1.6 1.6 0 0 0-.641.584 1.65 1.65 0 0 0-.229.876V163zm10.956.121q-.762 0-1.346-.229a2.35 2.35 0 0 1-.939-.654 1.8 1.8 0 0 1-.413-.984h1.13q.14.425.546.686.406.26 1.06.26.464 0 .813-.133.355-.14.558-.375a.83.83 0 0 0 .203-.552v-.013a.75.75 0 0 0-.279-.59q-.28-.247-.914-.4l-1.06-.254q-.959-.228-1.409-.666-.451-.444-.451-1.181v-.006q0-.572.33-1.022.336-.452.914-.711.578-.26 1.301-.26.718 0 1.27.228.559.222.895.635.342.413.419.971h-1.086a1.12 1.12 0 0 0-.495-.66q-.387-.254-1.009-.254-.406 0-.724.133a1.2 1.2 0 0 0-.501.356.82.82 0 0 0-.184.533v.013a.72.72 0 0 0 .273.577q.273.23.876.375l1.054.254q.965.234 1.434.673.476.438.476 1.174v.013q0 .61-.362 1.079-.362.464-.984.723-.615.261-1.396.261m4.456 2.164v-9.128h1.105v1.092h.101q.21-.381.527-.647.318-.273.724-.419a2.6 2.6 0 0 1 .882-.146q.87 0 1.511.444.647.438 1.003 1.231t.355 1.86v.013q0 1.072-.355 1.866-.356.794-1.003 1.232-.642.438-1.511.438-.47 0-.889-.146a2.6 2.6 0 0 1-.736-.419 2.1 2.1 0 0 1-.508-.635h-.101v3.364zm3.085-3.142q.629 0 1.073-.305.444-.31.679-.882.241-.578.241-1.371v-.013q0-.8-.241-1.371-.235-.571-.679-.876-.444-.31-1.073-.311-.622 0-1.073.311a2 2 0 0 0-.692.883q-.24.57-.241 1.364v.013q0 .787.241 1.365.242.572.692.882.451.31 1.073.311m7.662.978q-.972 0-1.683-.426a2.9 2.9 0 0 1-1.091-1.225q-.381-.793-.381-1.885v-.013q0-1.098.381-1.891a2.84 2.84 0 0 1 1.091-1.219q.711-.425 1.683-.425.977 0 1.682.425.704.425 1.085 1.219.387.793.387 1.891v.013q0 1.092-.387 1.885a2.84 2.84 0 0 1-1.085 1.225q-.705.426-1.682.426m0-.978q.647 0 1.098-.305.45-.304.685-.876.242-.57.242-1.377v-.013q0-.812-.242-1.384-.234-.57-.685-.869-.452-.305-1.098-.305-.648 0-1.099.305-.45.299-.691.869-.235.572-.235 1.384v.013q0 .806.235 1.377.24.572.691.876t1.099.305m7.299.908q-1.053 0-1.529-.426-.47-.425-.47-1.402v-4.152h-1.079v-.914h1.079v-1.771h1.142v1.771h1.499v.914h-1.499v3.872q0 .603.229.87.228.26.762.26.146 0 .247-.006.108-.006.261-.019v.939a9 9 0 0 1-.318.045 3 3 0 0 1-.324.019m5.974-.051v-6.843h1.104V163zm.558-8.163a.75.75 0 0 1-.539-.222.75.75 0 0 1-.223-.54q0-.317.223-.539a.75.75 0 0 1 .539-.223q.318 0 .54.223a.73.73 0 0 1 .222.539.75.75 0 0 1-.222.54.74.74 0 0 1-.54.222m4.977 8.284q-.762 0-1.346-.229a2.35 2.35 0 0 1-.939-.654 1.8 1.8 0 0 1-.413-.984h1.13q.14.425.546.686.406.26 1.06.26.464 0 .812-.133.355-.14.559-.375a.83.83 0 0 0 .203-.552v-.013a.75.75 0 0 0-.279-.59q-.28-.247-.914-.4l-1.06-.254q-.958-.228-1.41-.666-.45-.444-.45-1.181v-.006q0-.572.33-1.022.336-.452.914-.711.578-.26 1.301-.26.718 0 1.27.228.558.222.895.635.342.413.419.971h-1.086a1.12 1.12 0 0 0-.495-.66q-.387-.254-1.009-.254-.406 0-.724.133a1.2 1.2 0 0 0-.501.356.82.82 0 0 0-.184.533v.013a.72.72 0 0 0 .273.577q.273.23.876.375l1.053.254q.965.234 1.435.673.476.438.476 1.174v.013q0 .61-.362 1.079-.361.464-.984.723-.615.261-1.396.261m8.112-.121v-6.843h1.105v1.016h.101q.196-.54.667-.838.47-.298 1.161-.298.16 0 .311.019.159.013.241.025v1.073a3 3 0 0 0-.336-.045 3 3 0 0 0-.343-.019q-.526 0-.933.21a1.6 1.6 0 0 0-.641.584 1.65 1.65 0 0 0-.228.876V163zm7.554.121q-.978 0-1.682-.432a2.85 2.85 0 0 1-1.079-1.219q-.375-.794-.375-1.866v-.006q0-1.06.375-1.86.38-.8 1.072-1.251t1.619-.45q.933 0 1.6.431.672.432 1.028 1.206.362.768.362 1.79v.432h-5.485v-.882h4.92l-.546.806v-.438q0-.807-.241-1.327t-.667-.774a1.83 1.83 0 0 0-.977-.26q-.553 0-.991.272a1.85 1.85 0 0 0-.685.794q-.254.527-.254 1.295v.438q0 .73.247 1.25.247.515.705.794.457.273 1.079.273.464 0 .806-.127.343-.127.565-.324.222-.196.311-.4l.026-.057h1.104l-.013.051a2.1 2.1 0 0 1-.317.679 2.5 2.5 0 0 1-.578.59 3 3 0 0 1-.844.419 3.6 3.6 0 0 1-1.085.153m6.512 0q-.647 0-1.168-.248a2 2 0 0 1-.818-.705q-.299-.456-.299-1.079v-.012q0-.915.648-1.429.653-.52 1.847-.59l2.514-.152v.882l-2.381.152q-.78.045-1.142.324-.356.28-.356.787v.013q0 .52.394.812.393.286.99.286.565 0 1.003-.222.438-.228.685-.616.255-.387.254-.876v-2.133q0-.634-.387-.964-.381-.337-1.149-.337-.616 0-1.009.222a1.08 1.08 0 0 0-.527.616l-.006.019h-1.105l.007-.038q.089-.54.444-.939.362-.407.933-.629a3.5 3.5 0 0 1 1.301-.228q.838 0 1.416.273.584.273.882.787.305.507.305 1.218V163h-1.105v-1.009h-.101q-.216.362-.527.615-.305.255-.692.388a2.7 2.7 0 0 1-.851.127m7.821 0q-.864 0-1.511-.438-.648-.438-1.003-1.232-.355-.8-.355-1.866v-.013q0-1.072.355-1.866.355-.793.997-1.231.647-.438 1.517-.438.704 0 1.276.33.577.324.857.869h.101v-3.796h1.105V163h-1.105v-1.092h-.101a2.3 2.3 0 0 1-.864.895 2.5 2.5 0 0 1-1.269.318m.254-.978q.621 0 1.072-.311.451-.31.692-.882.242-.577.242-1.365v-.013q0-.794-.242-1.364a1.97 1.97 0 0 0-.692-.883q-.45-.31-1.072-.311-.623 0-1.073.311-.444.305-.686.876-.235.571-.235 1.371v.013q0 .793.235 1.371.242.572.686.882.45.305 1.073.305m5.789 3.256q-.109 0-.241-.012a2 2 0 0 1-.248-.026v-.907q.102.018.222.025.121.006.235.006.47 0 .768-.241.304-.242.489-.831l.127-.407-2.533-6.849h1.181l2.107 6.322-.438-.691h.521l-.438.691 2.101-6.322h1.161l-2.672 7.262q-.285.768-.597 1.2a1.67 1.67 0 0 1-.723.603q-.413.177-1.022.177"/><path fill="#42434d" d="M71.149 213v-9.16h5.814v1.232h-4.392v2.672h4.157v1.181h-4.157v2.844h4.392V213zm7.712 0v-6.894h1.378v1.061h.108q.228-.571.71-.883.49-.31 1.169-.311.47 0 .844.152.375.153.64.432.275.273.426.648h.108q.171-.375.483-.648.31-.279.723-.432.42-.152.889-.152.698 0 1.193.273.495.267.756.775.26.507.26 1.225V213H87.17v-4.424q0-.711-.33-1.067-.324-.355-.996-.355a1.44 1.44 0 0 0-.768.203 1.4 1.4 0 0 0-.508.533q-.178.33-.178.749V213h-1.377v-4.564q0-.591-.362-.933-.356-.35-.965-.349-.413 0-.743.216a1.53 1.53 0 0 0-.514.584q-.19.362-.19.812V213zm13.508.114q-.654 0-1.174-.247a2 2 0 0 1-.813-.718 1.96 1.96 0 0 1-.298-1.085v-.013q0-.927.666-1.447.674-.526 1.905-.603l2.545-.152v.971l-2.355.152q-.711.044-1.047.305-.337.253-.337.717v.013q0 .47.362.743.363.266.914.266.515 0 .914-.203.407-.21.635-.559.23-.355.229-.799v-2.171q0-.572-.356-.87-.35-.305-1.04-.305-.578 0-.947.203a1 1 0 0 0-.482.572l-.013.019h-1.326l.006-.045q.083-.57.45-.99.375-.424.978-.66.61-.235 1.39-.235.87 0 1.473.279.61.273.92.794.318.514.318 1.238V213h-1.371v-.978h-.102a2.2 2.2 0 0 1-.508.597 2.2 2.2 0 0 1-.692.368q-.388.127-.844.127m5.478-.114v-6.894h1.384V213zm.698-8.125a.83.83 0 0 1-.609-.254.83.83 0 0 1-.254-.609.8.8 0 0 1 .254-.603.83.83 0 0 1 .61-.254q.355 0 .609.254a.8.8 0 0 1 .254.603.83.83 0 0 1-.254.609.83.83 0 0 1-.61.254m2.749 8.125v-9.598h1.377V213zm8.861.114a2.7 2.7 0 0 1-1.174-.247 2 2 0 0 1-.813-.718 1.97 1.97 0 0 1-.298-1.085v-.013q0-.927.667-1.447.672-.526 1.904-.603l2.545-.152v.971l-2.355.152q-.711.044-1.047.305-.336.253-.336.717v.013q0 .47.361.743.363.266.914.266a2 2 0 0 0 .915-.203q.406-.21.634-.559a1.44 1.44 0 0 0 .229-.799v-2.171q0-.572-.356-.87-.348-.305-1.041-.305-.577 0-.946.203a1 1 0 0 0-.482.572l-.013.019h-1.326l.006-.045a1.87 1.87 0 0 1 .451-.99 2.5 2.5 0 0 1 .977-.66 3.8 3.8 0 0 1 1.39-.235q.87 0 1.473.279.61.273.92.794.318.514.318 1.238V213h-1.371v-.978h-.102a2.1 2.1 0 0 1-.508.597 2.2 2.2 0 0 1-.691.368q-.388.127-.845.127m7.973 0q-.863 0-1.511-.431-.64-.438-.996-1.238-.35-.8-.35-1.885v-.013q0-1.092.35-1.892.348-.8.99-1.231.64-.438 1.517-.438.71 0 1.276.33.571.324.844.882h.102v-3.796h1.383V213h-1.383v-1.085h-.102a2.2 2.2 0 0 1-.844.882q-.546.317-1.276.317m.393-1.18q.571 0 .991-.286.419-.285.641-.819.222-.54.222-1.269v-.013q0-.736-.229-1.27a1.8 1.8 0 0 0-.641-.819 1.66 1.66 0 0 0-.984-.291q-.57 0-.99.291a1.8 1.8 0 0 0-.635.819q-.215.528-.215 1.27v.013q0 .736.215 1.269.223.534.635.819.42.286.99.286m7.77 1.18q-.863 0-1.511-.431-.64-.438-.996-1.238-.35-.8-.349-1.885v-.013q0-1.092.349-1.892t.99-1.231q.64-.438 1.517-.438.71 0 1.276.33.571.324.844.882h.102v-3.796h1.383V213h-1.383v-1.085h-.102a2.2 2.2 0 0 1-.844.882q-.546.317-1.276.317m.394-1.18q.57 0 .99-.286.419-.285.641-.819.222-.54.222-1.269v-.013q0-.736-.228-1.27a1.8 1.8 0 0 0-.642-.819 1.66 1.66 0 0 0-.983-.291q-.571 0-.991.291a1.8 1.8 0 0 0-.634.819q-.216.528-.216 1.27v.013q0 .736.216 1.269.222.534.634.819.42.286.991.286M131.94 213v-6.894h1.378v1.041h.108q.184-.552.647-.856.47-.305 1.156-.305a3 3 0 0 1 .603.063v1.27a3.4 3.4 0 0 0-.743-.076q-.526 0-.927.203-.393.203-.622.571a1.6 1.6 0 0 0-.222.863V213zm7.935.133q-1.009 0-1.733-.431a2.9 2.9 0 0 1-1.117-1.238q-.387-.8-.387-1.892v-.006q0-1.079.387-1.885.393-.807 1.104-1.257.718-.451 1.676-.451.965 0 1.657.432.698.432 1.073 1.212.374.774.374 1.816v.482h-5.573v-.984h4.888l-.661.914v-.552q0-.736-.228-1.219-.222-.489-.616-.73a1.7 1.7 0 0 0-.907-.241q-.514 0-.921.254a1.7 1.7 0 0 0-.635.736q-.228.489-.228 1.2v.552q0 .68.228 1.162.23.482.648.736.425.254 1.003.254.444 0 .761-.121.324-.126.527-.311.21-.184.286-.361l.025-.051h1.333l-.012.057q-.09.342-.311.686a2.5 2.5 0 0 1-.591.615 3 3 0 0 1-.876.451q-.507.171-1.174.171m7.179 0q-.832 0-1.447-.241-.616-.247-.978-.679a1.9 1.9 0 0 1-.425-1.016v-.012h1.384v.012q.133.387.508.629.373.24.99.241.425 0 .743-.121.323-.12.507-.336a.74.74 0 0 0 .185-.495v-.013a.69.69 0 0 0-.261-.546q-.26-.222-.857-.362l-1.104-.254q-.972-.222-1.441-.679-.463-.463-.463-1.219v-.006q0-.603.342-1.066.343-.47.946-.73.61-.267 1.39-.267.787 0 1.371.248.591.241.933.673.343.424.407.99v.006h-1.321v-.013q-.094-.361-.457-.603-.356-.24-.939-.241-.375 0-.667.121a1.1 1.1 0 0 0-.463.324.74.74 0 0 0-.165.482v.013q0 .323.254.533t.831.349l1.099.248q.99.235 1.472.679.489.444.489 1.193v.013q0 .634-.375 1.123-.374.483-1.021.756-.642.266-1.467.266m6.881 0q-.832 0-1.447-.241-.616-.247-.978-.679a1.9 1.9 0 0 1-.425-1.016v-.012h1.384v.012q.133.387.508.629.374.24.99.241.425 0 .742-.121.325-.12.508-.336a.74.74 0 0 0 .184-.495v-.013a.69.69 0 0 0-.26-.546q-.26-.222-.857-.362l-1.104-.254q-.972-.222-1.441-.679-.464-.463-.464-1.219v-.006q0-.603.343-1.066.343-.47.946-.73.61-.267 1.39-.267.787 0 1.371.248.591.241.933.673.343.424.407.99v.006h-1.321v-.013q-.095-.361-.457-.603-.356-.24-.939-.241-.375 0-.667.121a1.1 1.1 0 0 0-.463.324.74.74 0 0 0-.165.482v.013a.66.66 0 0 0 .254.533q.254.21.831.349l1.098.248q.99.235 1.473.679.489.444.489 1.193v.013q0 .634-.375 1.123-.374.483-1.022.756-.64.266-1.466.266"/><g filter="url(#d)"><rect width="320" height="30" x="70" y="225" fill="#fff" rx="6"/></g><g filter="url(#e)"><rect width="320" height="30" x="70" y="287" fill="#2f3037" rx="6"/><rect width="320" height="30" x="70" y="287" fill="url(#f)" fill-opacity=".1" rx="6"/><path fill="#fff" d="M183.788 307.222q-.844 0-1.454-.317a2.37 2.37 0 0 1-.939-.889 2.8 2.8 0 0 1-.368-1.288l-.006-.077h1.409v.051q.031.349.19.635.159.279.444.444.292.165.718.165.704 0 1.072-.406.369-.412.369-1.2v-6.5h1.428v6.513q0 1.358-.755 2.114-.756.755-2.108.755m7.858-.089q-1.008 0-1.745-.431a2.87 2.87 0 0 1-1.124-1.232q-.393-.806-.393-1.91v-.013q0-1.111.393-1.911a2.9 2.9 0 0 1 1.13-1.231q.737-.432 1.739-.432 1.01 0 1.74.432.73.425 1.123 1.231.4.8.4 1.911v.013q0 1.104-.4 1.91a2.86 2.86 0 0 1-1.123 1.232q-.724.43-1.74.431m0-1.155q.59 0 1.003-.286.413-.291.629-.831t.216-1.301v-.013q0-.768-.216-1.308t-.629-.825q-.412-.292-1.003-.292-.59 0-1.002.292-.413.286-.635.825-.216.54-.216 1.308v.013q0 .76.216 1.301.222.54.635.831.413.286 1.002.286m4.92 1.022v-6.894h1.384V307zm.698-8.125a.83.83 0 0 1-.609-.254.83.83 0 0 1-.254-.609q0-.356.254-.603a.83.83 0 0 1 .609-.254.83.83 0 0 1 .61.254.8.8 0 0 1 .253.603.83.83 0 0 1-.253.609.84.84 0 0 1-.61.254m2.685 8.125v-6.894h1.378v1.041h.108q.254-.551.749-.863.495-.31 1.25-.311 1.162 0 1.777.667.616.666.616 1.898V307h-1.384v-4.139q0-.863-.361-1.282-.356-.425-1.118-.425a1.65 1.65 0 0 0-.869.222 1.46 1.46 0 0 0-.572.622q-.196.4-.196.959V307zm13.94.044q-1.13 0-1.638-.431-.501-.438-.501-1.428v-3.993h-1.08v-1.086h1.08v-1.739h1.409v1.739h1.479v1.086h-1.479v3.656q0 .559.222.806.222.242.736.242.153 0 .26-.007a7 7 0 0 0 .261-.019v1.105q-.165.025-.356.044a3 3 0 0 1-.393.025m2.424-.044v-9.598h1.378v3.745h.108q.254-.551.749-.863.495-.31 1.25-.311.768 0 1.302.298.533.299.812.876.279.572.279 1.391V307h-1.383v-4.139q0-.863-.362-1.282-.356-.425-1.117-.425a1.65 1.65 0 0 0-.87.222 1.46 1.46 0 0 0-.571.622q-.197.4-.197.959V307zm10.69.133q-1.01 0-1.733-.431a2.9 2.9 0 0 1-1.117-1.238q-.387-.8-.387-1.892v-.006q0-1.079.387-1.885.393-.807 1.104-1.257.718-.451 1.676-.451.965 0 1.657.432.698.432 1.073 1.212.374.775.374 1.816v.482h-5.573v-.984h4.888l-.661.914v-.552q0-.736-.228-1.219-.222-.489-.616-.73a1.7 1.7 0 0 0-.908-.241q-.513 0-.92.254-.4.247-.635.736-.228.489-.228 1.2v.552q0 .68.228 1.162.229.482.648.736.425.254 1.003.254.444 0 .761-.121.324-.126.527-.311.21-.184.286-.361l.025-.051h1.333l-.012.057q-.09.342-.311.686a2.5 2.5 0 0 1-.591.615 3 3 0 0 1-.876.451q-.507.171-1.174.171m9.534-.133-1.898-6.894h1.39l1.232 5.32h.108l1.415-5.32h1.314l1.422 5.32h.102l1.237-5.32h1.365L242.333 307h-1.429l-1.428-5.142h-.108L237.953 307zm10.804.114a2.7 2.7 0 0 1-1.174-.247 2 2 0 0 1-.813-.718 1.96 1.96 0 0 1-.298-1.085v-.013q0-.927.666-1.447.674-.526 1.904-.603l2.546-.152v.971l-2.355.152q-.711.044-1.047.305-.337.254-.337.717v.013q0 .47.362.743.362.266.914.266.514 0 .914-.203.406-.21.635-.559.228-.355.228-.799v-2.171q0-.572-.355-.87-.35-.305-1.041-.305-.578 0-.946.203a1 1 0 0 0-.482.572l-.013.019h-1.327l.007-.045q.083-.57.45-.99.375-.425.978-.66a3.8 3.8 0 0 1 1.39-.235q.87 0 1.473.279.61.273.92.794.318.514.317 1.238V307h-1.371v-.978h-.101a2.2 2.2 0 0 1-.508.597 2.2 2.2 0 0 1-.692.368 2.7 2.7 0 0 1-.844.127m5.478-.114v-6.894h1.384V307zm.698-8.125a.83.83 0 0 1-.609-.254.83.83 0 0 1-.254-.609q0-.356.254-.603a.83.83 0 0 1 .609-.254q.356 0 .609.254.254.247.254.603t-.254.609a.83.83 0 0 1-.609.254m5.288 8.169q-1.13 0-1.638-.431-.501-.438-.501-1.428v-3.993h-1.08v-1.086h1.08v-1.739h1.409v1.739h1.479v1.086h-1.479v3.656q0 .559.222.806.222.242.736.242.153 0 .26-.007a7 7 0 0 0 .261-.019v1.105q-.165.025-.356.044a3 3 0 0 1-.393.025m2.424-.044v-9.598h1.378V307zm3.447 0v-6.894h1.384V307zm.699-8.125a.83.83 0 0 1-.61-.254.83.83 0 0 1-.254-.609q0-.356.254-.603a.83.83 0 0 1 .61-.254q.355 0 .609.254a.8.8 0 0 1 .254.603.83.83 0 0 1-.254.609.83.83 0 0 1-.609.254m5.192 8.258q-.831 0-1.447-.241-.617-.247-.978-.679a1.9 1.9 0 0 1-.425-1.016v-.012h1.384v.012q.133.387.507.629.375.24.991.241.425 0 .742-.121.324-.12.508-.336a.74.74 0 0 0 .184-.495v-.013a.7.7 0 0 0-.26-.546q-.26-.222-.857-.362l-1.104-.254q-.972-.222-1.441-.679-.464-.463-.464-1.219v-.006q0-.603.343-1.066.343-.47.946-.73a3.4 3.4 0 0 1 1.39-.267q.788 0 1.371.248.591.241.933.673.343.424.406.99v.006h-1.32v-.013q-.095-.361-.457-.603-.356-.24-.939-.241-.375 0-.667.121a1.1 1.1 0 0 0-.463.324.74.74 0 0 0-.165.482v.013a.66.66 0 0 0 .254.533q.254.21.831.349l1.098.248q.99.234 1.473.679.489.444.489 1.193v.013q0 .634-.375 1.123-.374.483-1.022.756-.64.266-1.466.266m7.052-.089q-1.13 0-1.638-.431-.501-.438-.501-1.428v-3.993h-1.079v-1.086h1.079v-1.739h1.409v1.739h1.479v1.086h-1.479v3.656q0 .559.222.806.222.242.737.242a5 5 0 0 0 .52-.026v1.105a7 7 0 0 1-.355.044 3 3 0 0 1-.394.025"/></g></g><path fill="#747686" d="m141.431 379 3.377-9.16h.876v1.479h-.362L142.631 379zm1.53-2.622.355-.971h4.139l.356.971zm5.154 2.622-2.691-7.681v-1.479h.514l3.377 9.16zm2.73 0v-9.56h1.104V379zm3.224 0v-6.843h1.105v1.016h.101q.198-.54.667-.838t1.162-.298q.158 0 .311.019.158.013.241.025v1.073a3 3 0 0 0-.337-.045 3 3 0 0 0-.342-.019q-.528 0-.934.21-.405.209-.641.584a1.65 1.65 0 0 0-.228.876V379zm7.554.121q-.977 0-1.682-.432a2.86 2.86 0 0 1-1.079-1.219q-.375-.793-.375-1.866v-.006q0-1.06.375-1.86.38-.8 1.073-1.251.691-.45 1.618-.45.933 0 1.6.431.672.432 1.028 1.206.362.768.362 1.79v.432h-5.484v-.882h4.919l-.546.806v-.438q0-.807-.241-1.327t-.667-.774a1.83 1.83 0 0 0-.977-.26q-.552 0-.99.272a1.84 1.84 0 0 0-.686.794q-.254.527-.254 1.295v.438q0 .73.248 1.25.248.515.704.794.458.273 1.079.273.463 0 .807-.127.342-.127.565-.324.222-.196.311-.4l.025-.057h1.104l-.012.051a2.1 2.1 0 0 1-.318.679q-.222.324-.577.59a3 3 0 0 1-.845.419 3.6 3.6 0 0 1-1.085.153m6.513 0q-.648 0-1.168-.248a2 2 0 0 1-.819-.705q-.298-.456-.298-1.079v-.012q0-.915.647-1.429.654-.52 1.847-.59l2.514-.152v.882l-2.38.152q-.781.045-1.143.324-.356.28-.356.787v.013q0 .52.394.812.393.286.99.286.565 0 1.003-.222a1.76 1.76 0 0 0 .686-.616q.254-.387.254-.876v-2.133q0-.634-.388-.964-.38-.337-1.148-.337-.616 0-1.01.222a1.08 1.08 0 0 0-.527.616l-.006.019h-1.104l.006-.038q.089-.54.444-.939.362-.407.933-.629a3.5 3.5 0 0 1 1.302-.228q.837 0 1.415.273.584.273.882.787.305.507.305 1.218V379h-1.104v-1.009h-.102a2.3 2.3 0 0 1-1.219 1.003 2.7 2.7 0 0 1-.85.127m7.82 0q-.863 0-1.511-.438t-1.003-1.232q-.355-.8-.355-1.866v-.013q0-1.072.355-1.866.356-.793.997-1.231.648-.438 1.517-.438.705 0 1.276.33.578.323.857.869h.101v-3.796h1.105V379h-1.105v-1.092h-.101a2.3 2.3 0 0 1-.863.895 2.5 2.5 0 0 1-1.27.318m.254-.978q.622 0 1.073-.311.45-.31.692-.882.24-.578.241-1.365v-.013q0-.794-.241-1.364a2 2 0 0 0-.692-.883q-.451-.31-1.073-.311-.622 0-1.073.311-.445.304-.685.876-.235.572-.235 1.371v.013q0 .793.235 1.371.24.572.685.882.451.306 1.073.305m5.789 3.256a3 3 0 0 1-.241-.012 2 2 0 0 1-.248-.026v-.907q.102.019.222.025t.235.006q.47 0 .768-.241.305-.241.489-.831l.127-.407-2.533-6.849h1.181l2.107 6.322-.438-.691h.521l-.438.691 2.101-6.322h1.162l-2.673 7.262q-.285.768-.596 1.2a1.67 1.67 0 0 1-.724.603q-.413.177-1.022.177M192.193 379v-9.56h1.105v3.746h.101q.261-.546.749-.845.489-.304 1.245-.304.768 0 1.301.298.533.292.812.857.28.566.28 1.377V379h-1.105v-4.164q0-.927-.393-1.371-.388-.451-1.206-.451-.547 0-.946.235a1.6 1.6 0 0 0-.622.667q-.216.43-.216 1.034V379zm9.471.121q-.648 0-1.168-.248a2 2 0 0 1-.819-.705q-.298-.456-.298-1.079v-.012q0-.915.647-1.429.654-.52 1.848-.59l2.513-.152v.882l-2.38.152q-.781.045-1.143.324-.355.28-.355.787v.013q0 .52.393.812.394.286.991.286a2.2 2.2 0 0 0 1.003-.222q.438-.228.685-.616.254-.387.254-.876v-2.133q0-.634-.387-.964-.381-.337-1.149-.337-.616 0-1.009.222a1.07 1.07 0 0 0-.527.616l-.007.019h-1.104l.006-.038q.089-.54.445-.939.362-.407.933-.629a3.5 3.5 0 0 1 1.301-.228q.838 0 1.415.273.585.273.883.787.304.507.304 1.218V379h-1.104v-1.009h-.102a2.3 2.3 0 0 1-1.218 1.003 2.7 2.7 0 0 1-.851.127m6.976-.121-2.533-6.843h1.168l1.873 5.637h.102l1.872-5.637h1.168L209.757 379zm7.649.121q-.977 0-1.682-.432a2.86 2.86 0 0 1-1.079-1.219q-.375-.793-.375-1.866v-.006q0-1.06.375-1.86.38-.8 1.073-1.251.691-.45 1.618-.45.934 0 1.6.431.672.432 1.028 1.206.362.768.362 1.79v.432h-5.484v-.882h4.919l-.546.806v-.438q0-.807-.241-1.327t-.667-.774a1.83 1.83 0 0 0-.977-.26q-.552 0-.99.272a1.84 1.84 0 0 0-.686.794q-.254.527-.254 1.295v.438q0 .73.248 1.25.248.515.704.794.458.273 1.079.273.463 0 .807-.127.342-.127.565-.324.221-.196.311-.4l.025-.057h1.104l-.012.051a2.1 2.1 0 0 1-.318.679q-.222.324-.577.59a3 3 0 0 1-.844.419 3.6 3.6 0 0 1-1.086.153m10.169 0q-.648 0-1.168-.248a2 2 0 0 1-.819-.705q-.298-.456-.298-1.079v-.012q0-.915.647-1.429.654-.52 1.847-.59l2.514-.152v.882l-2.38.152q-.781.045-1.143.324-.355.28-.355.787v.013q0 .52.393.812.394.286.991.286.564 0 1.002-.222a1.76 1.76 0 0 0 .686-.616q.254-.387.254-.876v-2.133q0-.634-.387-.964-.381-.337-1.149-.337-.616 0-1.01.222a1.07 1.07 0 0 0-.526.616l-.007.019h-1.104l.006-.038q.09-.54.444-.939.363-.407.934-.629.57-.228 1.301-.228.837 0 1.415.273.585.273.883.787.304.507.304 1.218V379h-1.104v-1.009h-.102a2.3 2.3 0 0 1-1.218 1.003 2.7 2.7 0 0 1-.851.127m8.093 0q-.958 0-1.663-.438a2.9 2.9 0 0 1-1.092-1.238q-.387-.8-.387-1.885v-.013q0-1.067.381-1.854a2.9 2.9 0 0 1 1.092-1.218q.705-.438 1.663-.438.831 0 1.434.292a2.53 2.53 0 0 1 1.429 1.885l.006.038h-1.098l-.006-.019a1.57 1.57 0 0 0-.578-.863q-.451-.356-1.187-.356a1.83 1.83 0 0 0-1.066.311 2 2 0 0 0-.699.883q-.241.564-.241 1.339v.013q0 .786.248 1.371.247.577.698.895.45.317 1.06.317.692 0 1.13-.298t.628-.87l.013-.038 1.092-.006-.013.069a2.9 2.9 0 0 1-.495 1.099q-.355.476-.94.749-.584.273-1.409.273m7.275 0q-.959 0-1.663-.438a2.9 2.9 0 0 1-1.092-1.238q-.387-.8-.387-1.885v-.013q0-1.067.38-1.854a2.9 2.9 0 0 1 1.092-1.218q.705-.438 1.663-.438.832 0 1.435.292a2.53 2.53 0 0 1 1.428 1.885l.006.038h-1.098l-.006-.019a1.57 1.57 0 0 0-.578-.863q-.45-.356-1.187-.356-.615 0-1.066.311a2 2 0 0 0-.698.883q-.242.564-.242 1.339v.013q0 .786.248 1.371.248.577.698.895a1.8 1.8 0 0 0 1.06.317q.693 0 1.13-.298.438-.298.629-.87l.012-.038 1.092-.006-.013.069a2.9 2.9 0 0 1-.495 1.099q-.356.476-.939.749-.584.273-1.409.273m7.268 0q-.978 0-1.682-.432a2.85 2.85 0 0 1-1.079-1.219q-.375-.793-.375-1.866v-.006q0-1.06.375-1.86.38-.8 1.072-1.251t1.619-.45q.933 0 1.6.431.672.432 1.028 1.206.362.768.362 1.79v.432h-5.485v-.882h4.92l-.546.806v-.438q0-.807-.241-1.327t-.667-.774a1.83 1.83 0 0 0-.977-.26q-.553 0-.991.272a1.85 1.85 0 0 0-.685.794q-.254.527-.254 1.295v.438q0 .73.247 1.25.247.515.705.794.457.273 1.079.273.464 0 .806-.127.343-.127.565-.324.222-.196.311-.4l.026-.057h1.104l-.013.051a2.1 2.1 0 0 1-.317.679 2.5 2.5 0 0 1-.578.59 3 3 0 0 1-.844.419 3.6 3.6 0 0 1-1.085.153m6.982 0q-.761 0-1.346-.229a2.35 2.35 0 0 1-.939-.654 1.8 1.8 0 0 1-.413-.984h1.13q.14.425.546.686.406.26 1.06.26.464 0 .813-.133.356-.14.558-.375a.83.83 0 0 0 .203-.552v-.013a.75.75 0 0 0-.279-.59q-.28-.247-.914-.4l-1.06-.254q-.959-.228-1.409-.666-.451-.444-.451-1.181v-.006q0-.572.33-1.022.337-.452.914-.711.578-.26 1.302-.26.717 0 1.269.228.56.222.895.635.343.413.419.971h-1.085a1.12 1.12 0 0 0-.495-.66q-.388-.254-1.01-.254-.406 0-.723.133a1.2 1.2 0 0 0-.502.356.82.82 0 0 0-.184.533v.013a.72.72 0 0 0 .273.577q.273.23.876.375l1.054.254q.964.234 1.434.673.476.438.476 1.174v.013q0 .61-.361 1.079-.363.464-.984.723a3.55 3.55 0 0 1-1.397.261m6.678 0q-.762 0-1.346-.229a2.35 2.35 0 0 1-.939-.654 1.8 1.8 0 0 1-.413-.984h1.13q.14.425.546.686.406.26 1.06.26.464 0 .812-.133a1.4 1.4 0 0 0 .559-.375.83.83 0 0 0 .203-.552v-.013a.75.75 0 0 0-.279-.59q-.28-.247-.914-.4l-1.06-.254q-.959-.228-1.409-.666-.451-.444-.451-1.181v-.006q0-.572.33-1.022.336-.452.914-.711.578-.26 1.301-.26.718 0 1.27.228.558.222.895.635.342.413.419.971h-1.086a1.12 1.12 0 0 0-.495-.66q-.387-.254-1.009-.254-.406 0-.724.133a1.2 1.2 0 0 0-.501.356.82.82 0 0 0-.184.533v.013a.72.72 0 0 0 .273.577q.273.23.876.375l1.053.254q.966.234 1.435.673.476.438.476 1.174v.013q0 .61-.362 1.079-.362.464-.984.723-.615.261-1.396.261m5.922-2.952v-.584q0-.419.134-.755.132-.343.419-.629.285-.285.717-.546.368-.228.59-.444.229-.222.33-.482.102-.261.102-.597v-.013a1.3 1.3 0 0 0-.191-.698 1.33 1.33 0 0 0-.539-.483 1.8 1.8 0 0 0-.825-.177q-.477 0-.832.177a1.4 1.4 0 0 0-.565.508 1.7 1.7 0 0 0-.235.781l-.012.006-1.08.007v-.013a2.8 2.8 0 0 1 .356-1.238q.317-.558.92-.888t1.492-.33q.8 0 1.403.304.609.298.946.819.342.514.342 1.168v.013q0 .742-.361 1.282a3 3 0 0 1-.965.901 3.6 3.6 0 0 0-.629.451 1.3 1.3 0 0 0-.317.463q-.089.248-.089.584v.413zm.641 2.945a.86.86 0 0 1-.634-.247.86.86 0 0 1-.248-.635q0-.393.248-.641a.86.86 0 0 1 .634-.248q.388 0 .629.248a.87.87 0 0 1 .247.641.86.86 0 0 1-.247.635.84.84 0 0 1-.629.247"/><path fill="#42434d" d="M280.75 379.222q-1.035 0-1.803-.324-.768-.33-1.213-.914a2.53 2.53 0 0 1-.507-1.352l-.007-.082h1.403l.006.07q.045.413.324.717.286.305.762.476.482.171 1.098.171.578 0 1.028-.184.452-.183.705-.508.26-.323.26-.742v-.007q0-.526-.4-.876-.4-.348-1.307-.545l-1.003-.21q-1.39-.298-2.025-.946-.635-.654-.635-1.669v-.006q.006-.794.425-1.397a2.8 2.8 0 0 1 1.175-.939q.748-.337 1.72-.337.97 0 1.695.337.729.33 1.149.901.425.571.476 1.289l.006.082h-1.39l-.013-.082a1.3 1.3 0 0 0-.311-.667 1.64 1.64 0 0 0-.666-.457 2.4 2.4 0 0 0-.965-.165q-.534 0-.952.165-.42.159-.667.463a1.15 1.15 0 0 0-.241.737v.006q0 .508.387.851.394.336 1.276.526l1.003.223q1.441.304 2.069.914.635.61.635 1.625v.006q0 .876-.432 1.517-.425.635-1.212.984-.788.35-1.853.349m5.23-.222v-6.894h1.384V379zm.698-8.125a.83.83 0 0 1-.609-.254.83.83 0 0 1-.254-.609q0-.356.254-.603a.83.83 0 0 1 .609-.254.83.83 0 0 1 .61.254.8.8 0 0 1 .254.603.83.83 0 0 1-.254.609.84.84 0 0 1-.61.254m5.599 10.556q-.876 0-1.524-.241-.641-.241-1.015-.673a1.9 1.9 0 0 1-.457-1.003l.006-.013h1.397l.006.013q.089.356.501.584t1.105.229q.85 0 1.327-.388.482-.387.482-1.085v-1.352h-.108a2.2 2.2 0 0 1-.52.635 2.2 2.2 0 0 1-.724.393 2.8 2.8 0 0 1-.882.134q-.876 0-1.524-.419a2.8 2.8 0 0 1-.99-1.168q-.343-.75-.343-1.721v-.012q0-.984.349-1.74.35-.76.997-1.187.648-.43 1.542-.431.483 0 .883.152.406.153.717.432t.514.666h.083v-1.13h1.377v6.754q0 .781-.393 1.359-.388.577-1.105.895-.717.317-1.701.317m-.019-3.91q.583 0 1.003-.273.419-.279.641-.768.228-.489.228-1.13v-.013q0-.634-.228-1.129a1.8 1.8 0 0 0-.641-.775q-.42-.279-1.003-.279-.585 0-.997.279a1.77 1.77 0 0 0-.622.775 2.8 2.8 0 0 0-.216 1.129v.013q0 .641.216 1.13t.622.768q.412.273.997.273m5.205 1.479v-6.894h1.377v1.041h.108a1.97 1.97 0 0 1 .749-.863q.495-.31 1.251-.311 1.162 0 1.777.667.616.666.616 1.898V379h-1.384v-4.139q0-.863-.362-1.282-.355-.425-1.117-.425-.501 0-.87.222a1.46 1.46 0 0 0-.571.622q-.197.4-.197.959V379zm11.356 0v-6.894h1.384V379zm.698-8.125a.83.83 0 0 1-.609-.254.83.83 0 0 1-.254-.609q0-.356.254-.603a.83.83 0 0 1 .609-.254q.356 0 .609.254.255.247.254.603 0 .356-.254.609a.83.83 0 0 1-.609.254m2.685 8.125v-6.894h1.378v1.041h.108q.253-.551.749-.863.494-.31 1.25-.311 1.162 0 1.777.667.616.666.616 1.898V379h-1.384v-4.139q0-.863-.362-1.282-.355-.425-1.117-.425a1.65 1.65 0 0 0-.869.222 1.46 1.46 0 0 0-.572.622q-.196.4-.196.959V379z"/><path fill="#131316" fill-opacity=".06" d="M30 399.5h400v-1H30z"/><path fill="#747686" d="M172.809 427.205q-.956 0-1.664-.299-.71-.304-1.12-.844a2.33 2.33 0 0 1-.468-1.248l-.006-.076h1.295l.006.065q.041.38.298.662.264.281.704.439.444.159 1.013.158.534 0 .949-.169.417-.17.651-.469.24-.299.24-.686v-.006q0-.486-.369-.808-.37-.322-1.207-.504l-.926-.193q-1.282-.276-1.869-.873-.586-.604-.586-1.542v-.005q.006-.733.393-1.289a2.6 2.6 0 0 1 1.084-.868q.692-.31 1.587-.31.897 0 1.565.31.674.306 1.06.832.393.527.44 1.19l.006.076h-1.283l-.012-.076a1.2 1.2 0 0 0-.287-.615 1.5 1.5 0 0 0-.615-.422 2.25 2.25 0 0 0-.891-.153q-.492 0-.879.153-.387.146-.615.427a1.06 1.06 0 0 0-.223.68v.006q0 .469.358.785.363.31 1.177.487l.926.205q1.33.28 1.91.843.586.563.586 1.5v.006q0 .808-.398 1.401-.393.585-1.119.908-.727.322-1.711.322m7.482-.082q-.931 0-1.6-.398a2.7 2.7 0 0 1-1.031-1.143q-.357-.738-.357-1.746v-.006q0-.996.357-1.74a2.8 2.8 0 0 1 1.02-1.16q.662-.417 1.547-.416.89 0 1.529.398.645.399.99 1.119.346.715.346 1.676v.445h-5.145v-.908h4.512l-.609.844v-.51q0-.68-.211-1.125a1.5 1.5 0 0 0-.569-.674 1.57 1.57 0 0 0-.838-.222 1.57 1.57 0 0 0-.849.234 1.57 1.57 0 0 0-.586.68q-.211.45-.211 1.107v.51q0 .627.211 1.072t.598.68q.392.234.925.234.41 0 .703-.111.3-.117.487-.287a1 1 0 0 0 .263-.334l.024-.047h1.23l-.011.053a2.2 2.2 0 0 1-.287.632 2.3 2.3 0 0 1-.545.569 2.7 2.7 0 0 1-.809.416 3.4 3.4 0 0 1-1.084.158m6.99 0q-.925 0-1.599-.398a2.7 2.7 0 0 1-1.032-1.149q-.363-.744-.363-1.775v-.012q0-1.014.358-1.746a2.66 2.66 0 0 1 1.031-1.131q.673-.399 1.599-.398.804 0 1.377.281.58.275.92.762.346.48.434 1.095l.006.03h-1.225l-.006-.012a1.36 1.36 0 0 0-.486-.779q-.381-.317-1.014-.317-.527 0-.908.27a1.67 1.67 0 0 0-.586.761q-.2.499-.199 1.184v.012q0 .703.205 1.207t.586.779q.381.27.902.27.598 0 .967-.264.375-.264.527-.779l.012-.03 1.219-.005-.012.052a2.6 2.6 0 0 1-.451 1.09 2.3 2.3 0 0 1-.908.738q-.562.264-1.354.264m6.287 0q-.714 0-1.207-.275a1.8 1.8 0 0 1-.732-.809q-.24-.533-.24-1.283v-4.119h1.271v3.82q0 .785.311 1.178.31.392 1.013.392.504 0 .85-.199.351-.205.527-.574.176-.375.176-.885v-3.732h1.277V427h-1.277v-.961h-.094q-.228.51-.703.797-.474.287-1.172.287m5.075-.123v-6.363h1.271v.961h.1a1.47 1.47 0 0 1 .597-.791q.434-.282 1.067-.282a2.6 2.6 0 0 1 .556.059v1.172a3.3 3.3 0 0 0-.685-.07q-.487 0-.856.187a1.45 1.45 0 0 0-.574.527 1.5 1.5 0 0 0-.205.797V427zm7.324.123q-.932 0-1.6-.398a2.7 2.7 0 0 1-1.031-1.143q-.357-.738-.357-1.746v-.006q0-.996.357-1.74a2.8 2.8 0 0 1 1.019-1.16q.662-.417 1.547-.416.891 0 1.53.398.643.399.99 1.119.345.715.346 1.676v.445h-5.145v-.908h4.512l-.61.844v-.51q0-.68-.211-1.125a1.5 1.5 0 0 0-.568-.674 1.57 1.57 0 0 0-.838-.222 1.57 1.57 0 0 0-.849.234 1.56 1.56 0 0 0-.586.68q-.211.45-.211 1.107v.51q0 .627.211 1.072.21.446.597.68.393.234.926.234.41 0 .703-.111a1.6 1.6 0 0 0 .487-.287 1 1 0 0 0 .263-.334l.024-.047h1.23l-.012.053q-.081.317-.287.632a2.3 2.3 0 0 1-.545.569 2.7 2.7 0 0 1-.808.416 3.4 3.4 0 0 1-1.084.158m6.633-.018q-.797 0-1.395-.398-.591-.404-.92-1.143-.322-.738-.322-1.74v-.012q0-1.006.322-1.746.323-.738.914-1.136.592-.405 1.401-.405.656 0 1.177.305.528.299.78.815h.093v-3.504h1.278V427h-1.278v-1.002h-.093a2 2 0 0 1-.78.814q-.504.293-1.177.293m.363-1.089q.527 0 .914-.264a1.66 1.66 0 0 0 .592-.756q.204-.498.205-1.172v-.012q0-.68-.211-1.171a1.66 1.66 0 0 0-.592-.756 1.53 1.53 0 0 0-.908-.27q-.528 0-.914.27a1.67 1.67 0 0 0-.586.756q-.2.486-.199 1.171v.012q0 .68.199 1.172.205.492.586.756.387.264.914.264m11.508 1.089q-.668 0-1.172-.293a2.04 2.04 0 0 1-.785-.814h-.1V427h-1.271v-8.859h1.271v3.504h.1q.251-.516.773-.815a2.3 2.3 0 0 1 1.184-.305q.809 0 1.4.405.592.398.914 1.136.322.74.322 1.746v.012q0 1.002-.328 1.74-.322.74-.914 1.143-.591.399-1.394.398m-.364-1.089q.534 0 .914-.264a1.64 1.64 0 0 0 .581-.756q.204-.492.205-1.172v-.012q0-.685-.205-1.171a1.64 1.64 0 0 0-.581-.756 1.54 1.54 0 0 0-.914-.27q-.527 0-.914.27a1.65 1.65 0 0 0-.591.756q-.206.492-.206 1.171v.012q0 .674.206 1.172.205.492.591.756.387.264.914.264m4.887 3.222q-.117 0-.252-.011a5 5 0 0 1-.258-.018v-1.002a3 3 0 0 0 .428.023q.445 0 .721-.21.275-.206.416-.686l.094-.328-2.309-6.369h1.377l1.799 5.736-.399-.656h.487l-.393.656 1.793-5.736h1.342l-2.367 6.603q-.27.761-.598 1.196-.329.44-.779.621-.451.181-1.102.181"/><ellipse cx="249.889" cy="423" fill="#747686" rx="2.187" ry="2.188"/><path fill="#747686" d="M253.83 428.179a.416.416 0 0 1-.051.641 6.97 6.97 0 0 1-3.891 1.18 6.97 6.97 0 0 1-3.891-1.18.416.416 0 0 1-.051-.641l1.599-1.598a.47.47 0 0 1 .55-.075 3.9 3.9 0 0 0 1.793.431c.646 0 1.255-.155 1.793-.431a.47.47 0 0 1 .55.075z"/><path fill="#747686" d="M253.779 417.18a.415.415 0 0 1 .052.641l-1.599 1.598a.47.47 0 0 1-.551.074 3.938 3.938 0 0 0-5.299 5.3.47.47 0 0 1-.074.55l-1.599 1.599a.415.415 0 0 1-.64-.051 7 7 0 0 1 9.71-9.711" opacity=".5"/><path fill="#747686" fill-rule="evenodd" d="M265.748 417.422a.11.11 0 0 1 .109-.11h1.641a.11.11 0 0 1 .109.11v11.156a.11.11 0 0 1-.109.11h-1.641a.11.11 0 0 1-.109-.11zm-2.315 8.899a.113.113 0 0 0-.151.005 2.9 2.9 0 0 1-2.021.788 2.46 2.46 0 0 1-1.782-.693c-.423-.432-.667-1.049-.667-1.785 0-1.473.98-2.48 2.449-2.48a2.72 2.72 0 0 1 2.004.841c.041.044.11.049.156.01l1.107-.959a.106.106 0 0 0 .011-.152c-.833-.931-2.138-1.412-3.379-1.412-2.499 0-4.271 1.686-4.271 4.166 0 1.227.44 2.26 1.183 2.989.742.729 1.8 1.158 3.021 1.158 1.531 0 2.763-.587 3.485-1.34a.107.107 0 0 0-.008-.155zm13.212-1.139a.11.11 0 0 1-.108.096h-5.747a.106.106 0 0 0-.104.132c.286 1.06 1.139 1.701 2.302 1.701a2.57 2.57 0 0 0 1.998-.881.08.08 0 0 1 .112-.01l1.156 1.006c.044.039.05.105.012.15-.698.823-1.828 1.421-3.379 1.421-2.386 0-4.186-1.653-4.186-4.163 0-1.232.424-2.264 1.131-2.994.373-.375.82-.671 1.314-.869a4 4 0 0 1 1.557-.286c2.418 0 3.982 1.701 3.982 4.05a7 7 0 0 1-.04.647m-5.924-1.524a.105.105 0 0 0 .102.133h3.822c.07 0 .122-.066.103-.134-.261-.901-.921-1.503-1.948-1.503a2.1 2.1 0 0 0-.88.16 2.1 2.1 0 0 0-.733.507 2.2 2.2 0 0 0-.466.837m11.651-3.172a.11.11 0 0 1 .11.109v1.837a.11.11 0 0 1-.117.109 7 7 0 0 0-.455-.024c-1.431 0-2.271 1.007-2.271 2.329v3.732a.11.11 0 0 1-.11.11h-1.64a.11.11 0 0 1-.11-.11v-7.869a.11.11 0 0 1 .11-.11h1.64a.11.11 0 0 1 .11.11v1.104q.001.01.011.011.005 0 .009-.004c.641-.857 1.588-1.333 2.588-1.333zm4.444 4.81a.04.04 0 0 1 .026-.011q.019 0 .03.017l2.074 3.334c.02.032.055.051.093.051h1.865a.109.109 0 0 0 .093-.166l-2.846-4.592a.11.11 0 0 1 .012-.131l2.742-3.026a.11.11 0 0 0-.081-.183h-1.946a.1.1 0 0 0-.08.036l-3.173 3.458a.11.11 0 0 1-.19-.074v-6.587a.11.11 0 0 0-.109-.11h-1.641a.11.11 0 0 0-.109.11v11.156c0 .061.049.109.109.109h1.641c.06 0 .109-.048.109-.109v-1.755a.1.1 0 0 1 .03-.075z" clip-rule="evenodd"/></g></g><defs><filter id="a" width="460" height="497" x="0" y="-5" color-interpolation-filters="sRGB" filterUnits="userSpaceOnUse"><feFlood flood-opacity="0" result="BackgroundImageFix"/><feGaussianBlur in="BackgroundImageFix" stdDeviation="10"/><feComposite in2="SourceAlpha" operator="in" result="effect1_backgroundBlur_5496_61"/><feColorMatrix in="SourceAlpha" result="hardAlpha" values="0 0 0 0 0 0 0 0 0 0 0 0 0 0 0 0 0 0 127 0"/><feOffset dy="5"/><feGaussianBlur stdDeviation="7.5"/><feComposite in2="hardAlpha" operator="out"/><feColorMatrix values="0 0 0 0 0 0 0 0 0 0 0 0 0 0 0 0 0 0 0.08 0"/><feBlend in2="effect1_backgroundBlur_5496_61" result="effect2_dropShadow_5496_61"/><feColorMatrix in="SourceAlpha" result="hardAlpha" values="0 0 0 0 0 0 0 0 0 0 0 0 0 0 0 0 0 0 127 0"/><feMorphology in="SourceAlpha" radius="5" result="effect3_dropShadow_5496_61"/><feOffset dy="15"/><feGaussianBlur stdDeviation="17.5"/><feComposite in2="hardAlpha" operator="out"/><feColorMatrix values="0 0 0 0 0.0980392 0 0 0 0 0.109804 0 0 0 0 0.129412 0 0 0 0.2 0"/><feBlend in2="effect2_dropShadow_5496_61" result="effect3_dropShadow_5496_61"/><feColorMatrix in="SourceAlpha" result="hardAlpha" values="0 0 0 0 0 0 0 0 0 0 0 0 0 0 0 0 0 0 127 0"/><feMorphology in="SourceAlpha" operator="dilate" radius="1" result="effect4_dropShadow_5496_61"/><feOffset/><feComposite in2="hardAlpha" operator="out"/><feColorMatrix values="0 0 0 0 0.0980392 0 0 0 0 0.109804 0 0 0 0 0.129412 0 0 0 0.06 0"/><feBlend in2="effect3_dropShadow_5496_61" result="effect4_dropShadow_5496_61"/><feBlend in="SourceGraphic" in2="effect4_dropShadow_5496_61" result="shape"/></filter><filter id="c" width="404" height="339" x="28" y="13" color-interpolation-filters="sRGB" filterUnits="userSpaceOnUse"><feFlood flood-opacity="0" result="BackgroundImageFix"/><feColorMatrix in="SourceAlpha" result="hardAlpha" values="0 0 0 0 0 0 0 0 0 0 0 0 0 0 0 0 0 0 127 0"/><feOffset/><feGaussianBlur stdDeviation="1"/><feComposite in2="hardAlpha" operator="out"/><feColorMatrix values="0 0 0 0 0 0 0 0 0 0 0 0 0 0 0 0 0 0 0.08 0"/><feBlend in2="BackgroundImageFix" result="effect1_dropShadow_5496_61"/><feColorMatrix in="SourceAlpha" result="hardAlpha" values="0 0 0 0 0 0 0 0 0 0 0 0 0 0 0 0 0 0 127 0"/><feOffset dy="1"/><feGaussianBlur stdDeviation="1"/><feComposite in2="hardAlpha" operator="out"/><feColorMatrix values="0 0 0 0 0.0980392 0 0 0 0 0.109804 0 0 0 0 0.129412 0 0 0 0.06 0"/><feBlend in2="effect1_dropShadow_5496_61" result="effect2_dropShadow_5496_61"/><feColorMatrix in="SourceAlpha" result="hardAlpha" values="0 0 0 0 0 0 0 0 0 0 0 0 0 0 0 0 0 0 127 0"/><feMorphology in="SourceAlpha" operator="dilate" radius="1" result="effect3_dropShadow_5496_61"/><feOffset/><feComposite in2="hardAlpha" operator="out"/><feColorMatrix values="0 0 0 0 0.0980392 0 0 0 0 0.109804 0 0 0 0 0.129412 0 0 0 0.04 0"/><feBlend in2="effect2_dropShadow_5496_61" result="effect3_dropShadow_5496_61"/><feBlend in="SourceGraphic" in2="effect3_dropShadow_5496_61" result="shape"/></filter><filter id="d" width="322" height="33" x="69" y="224" color-interpolation-filters="sRGB" filterUnits="userSpaceOnUse"><feFlood flood-opacity="0" result="BackgroundImageFix"/><feColorMatrix in="SourceAlpha" result="hardAlpha" values="0 0 0 0 0 0 0 0 0 0 0 0 0 0 0 0 0 0 127 0"/><feOffset dy="1"/><feGaussianBlur stdDeviation=".5"/><feComposite in2="hardAlpha" operator="out"/><feColorMatrix values="0 0 0 0 0.0980392 0 0 0 0 0.109804 0 0 0 0 0.129412 0 0 0 0.06 0"/><feBlend in2="BackgroundImageFix" result="effect1_dropShadow_5496_61"/><feColorMatrix in="SourceAlpha" result="hardAlpha" values="0 0 0 0 0 0 0 0 0 0 0 0 0 0 0 0 0 0 127 0"/><feMorphology in="SourceAlpha" operator="dilate" radius="1" result="effect2_dropShadow_5496_61"/><feOffset/><feComposite in2="hardAlpha" operator="out"/><feColorMatrix values="0 0 0 0 0.0980392 0 0 0 0 0.109804 0 0 0 0 0.129412 0 0 0 0.1 0"/><feBlend in2="effect1_dropShadow_5496_61" result="effect2_dropShadow_5496_61"/><feBlend in="SourceGraphic" in2="effect2_dropShadow_5496_61" result="shape"/></filter><filter id="e" width="326" height="36" x="67" y="286" color-interpolation-filters="sRGB" filterUnits="userSpaceOnUse"><feFlood flood-opacity="0" result="BackgroundImageFix"/><feColorMatrix in="SourceAlpha" result="hardAlpha" values="0 0 0 0 0 0 0 0 0 0 0 0 0 0 0 0 0 0 127 0"/><feMorphology in="SourceAlpha" operator="dilate" radius="1" result="effect1_dropShadow_5496_61"/><feOffset/><feComposite in2="hardAlpha" operator="out"/><feColorMatrix values="0 0 0 0 0.184314 0 0 0 0 0.188235 0 0 0 0 0.215686 0 0 0 1 0"/><feBlend in2="BackgroundImageFix" result="effect1_dropShadow_5496_61"/><feColorMatrix in="SourceAlpha" result="hardAlpha" values="0 0 0 0 0 0 0 0 0 0 0 0 0 0 0 0 0 0 127 0"/><feOffset dy="2"/><feGaussianBlur stdDeviation="1.5"/><feComposite in2="hardAlpha" operator="out"/><feColorMatrix values="0 0 0 0 0.133333 0 0 0 0 0.164706 0 0 0 0 0.207843 0 0 0 0.2 0"/><feBlend in2="effect1_dropShadow_5496_61" result="effect2_dropShadow_5496_61"/><feColorMatrix in="SourceAlpha" result="hardAlpha" values="0 0 0 0 0 0 0 0 0 0 0 0 0 0 0 0 0 0 127 0"/><feOffset dy="1"/><feGaussianBlur stdDeviation=".5"/><feComposite in2="hardAlpha" operator="out"/><feColorMatrix values="0 0 0 0 0 0 0 0 0 0 0 0 0 0 0 0 0 0 0.24 0"/><feBlend in2="effect2_dropShadow_5496_61" result="effect3_dropShadow_5496_61"/><feBlend in="SourceGraphic" in2="effect3_dropShadow_5496_61" result="shape"/><feColorMatrix in="SourceAlpha" result="hardAlpha" values="0 0 0 0 0 0 0 0 0 0 0 0 0 0 0 0 0 0 127 0"/><feOffset dy="1"/><feGaussianBlur stdDeviation=".5"/><feComposite in2="hardAlpha" k2="-1" k3="1" operator="arithmetic"/><feColorMatrix values="0 0 0 0 1 0 0 0 0 1 0 0 0 0 1 0 0 0 0.07 0"/><feBlend in2="shape" result="effect4_innerShadow_5496_61"/></filter><linearGradient id="f" x1="230" x2="230" y1="287" y2="317" gradientUnits="userSpaceOnUse"><stop stop-color="#fff"/><stop offset="1" stop-color="#fff" stop-opacity="0"/></linearGradient><clipPath id="b"><rect width="400" height="432" x="30" y="15" fill="#fff" rx="12"/></clipPath></defs></svg>