<svg xmlns="http://www.w3.org/2000/svg" width="89" height="90" fill="none"><path fill="#f3b01c" d="M56.22 70.4c13.1-1.43 25.45-8.29 32.25-19.74-3.22 28.32-34.73 46.22-60.45 35.23-2.37-1.01-4.41-2.69-5.81-4.85-5.78-8.92-7.68-20.27-4.95-30.57 7.8 13.23 23.66 21.34 38.96 19.93"/><path fill="#8d2676" d="M16.78 42.16c-5.31 12.06-5.54 26.18.97 37.8C-5.16 63.02-4.91 26.77 17.47 10c2.07-1.55 4.53-2.47 7.11-2.61 10.61-.55 21.39 3.48 28.95 10.99-15.36.15-30.32 9.82-36.75 23.78"/><path fill="#ee342f" d="M60.94 22.09C53.19 11.47 41.06 4.24 27.77 4.02 53.46-7.44 85.06 11.14 88.5 38.61c.32 2.55-.1 5.15-1.25 7.45-4.8 9.58-13.7 17.01-24.1 19.76 7.62-13.89 6.68-30.86-2.21-43.73"/></svg>