<svg width="51" height="50" viewBox="0 0 51 50" fill="none" xmlns="http://www.w3.org/2000/svg">
<style>
    path {
        fill: black;
    }
    @media (prefers-color-scheme: dark) {
        path { fill: white; }
    }
</style>
<path d="M23.8963 19.7405C24.3052 19.1377 24.7528 19.061 25.1159 19.061C25.479 19.061 26.0839 19.1377 26.493 19.7405C29.7161 24.168 35.0362 32.9877 38.9607 39.4937C41.52 43.7365 43.4857 46.9951 43.889 47.4098C45.4029 48.9666 47.4792 47.9964 48.6857 46.2305C49.8735 44.4921 50.2031 43.2714 50.2031 41.969C50.2031 41.082 32.9952 9.07489 31.2621 6.41069C29.5956 3.84818 29.0527 3.20093 26.2003 3.20093H24.0657C21.2218 3.20093 20.8108 3.84818 19.1441 6.41069C17.4112 9.07489 0.203125 41.082 0.203125 41.969C0.203125 43.2714 0.532868 44.4921 1.72066 46.2305C2.92715 47.9964 5.00342 48.9666 6.51729 47.4098C6.92062 46.9951 8.88632 43.7365 11.4456 39.4937C15.3701 32.9877 20.6732 24.168 23.8963 19.7405Z" fill="black"/>
</svg>
