<svg version="1.0" xmlns="http://www.w3.org/2000/svg" width="512.000000pt" height="512.000000pt" viewBox="0 0 512.000000 512.000000" preserveAspectRatio="xMidYMid meet">
<style>
    path {
        fill: black;
    }
    @media (prefers-color-scheme: dark) {
        path { fill: white; }
    }
</style>
<g transform="translate(0.000000,512.000000) scale(0.100000,-0.100000)" fill="#000000" stroke="none">
<path d="M1210 4043 c-203 -18 -418 -94 -595 -212 -88 -59 -240 -204 -303 -289 -140 -190 -196 -330 -263 -656 -49 -234 -50 -245 -46 -381 8 -306 98 -658 220 -859 175 -289 438 -466 812 -548 40 -9 131 -13 270 -12 202 0 215 2 327 32 435 114 710 396 828 845 20 76 26 115 19 122 -5 5 -42 10 -80 10 -68 0 -72 -1 -103 -36 -18 -19 -41 -58 -51 -85 -60 -164 -80 -207 -126 -283 -119 -193 -287 -311 -531 -375 -670 -174 -1220 192 -1333 889 -8 49 -15 141 -15 203 l0 112 1142 0 1141 0 -6 173 c-13 350 -82 601 -220 810 -177 266 -452 453 -757 517 -90 18 -254 30 -330 23z m335 -233 c420 -107 710 -499 751 -1012 l7 -88 -1033 0 -1032 0 6 68 c33 329 145 582 343 773 162 156 350 247 575 279 97 14 291 4 383 -20z"/>
<path d="M2728 3962 c-14 -6 81 -134 492 -670 l510 -664 -30 -41 c-17 -23 -263 -355 -548 -737 -578 -775 -541 -711 -412 -712 86 -1 155 29 212 91 24 25 241 313 483 640 l439 594 23 -29 c13 -16 209 -285 435 -599 227 -314 428 -587 446 -607 18 -20 56 -48 85 -62 43 -22 64 -26 136 -25 48 0 94 3 103 7 13 6 -84 141 -503 697 -286 380 -527 702 -535 717 -19 37 -18 97 4 133 11 17 126 170 257 340 423 550 697 916 691 922 -3 4 -43 9 -89 11 -91 5 -130 -6 -194 -55 -20 -15 -220 -272 -444 -571 -224 -299 -411 -542 -416 -541 -4 1 -183 239 -396 528 -214 289 -408 545 -433 568 -24 22 -65 48 -91 57 -47 16 -192 21 -225 8z"/>
</g>
</svg>
