<svg xmlns="http://www.w3.org/2000/svg" width="50" height="30">
    <style>
        path {
            fill: black;
        }
        @media (prefers-color-scheme: dark) {
            path { fill: white; }
        }
    </style>
    <path d="M11.3439-.4794C9.3543-.297 7.2472.4734 5.5123 1.6698c-.8624.5982-2.3521 2.0682-2.9699 2.9298C1.1703 6.5257.6214 7.9452-.0348 11.25c-.4806 2.3724-.49 2.484-.4509 3.8628.0781 3.102.9601 6.6708 2.156 8.7084 1.715 2.9298 4.293 4.7244 7.9581 5.5555.3922.0912 1.284.1319 2.6468.1217 1.9793 0 2.1071-.0203 3.2046-.3245 4.2635-1.1557 6.9585-4.0146 8.1154-8.5663.196-.7706.2545-1.1658.1861-1.2371-.049-.0505-.4119-.1014-.784-.1014-.6669 0-.706.0102-1.0099.3653-.1761.1926-.4017.588-.4997.8616-.5881 1.6626-.7842 2.0984-1.2346 2.8691-1.1667 1.9567-2.8129 3.1527-5.2047 3.8017-6.5662 1.764-11.9571-1.9464-13.0642-9.0126-.0788-.4968-.147-1.4297-.147-2.058v-1.1357h11.1922 11.1829l-.0589-1.7539c-.1271-3.5483-.8032-6.0929-2.1561-8.2116-1.7349-2.6969-4.43-4.5924-7.419-5.2415-.8821-.1824-2.4898-.3041-3.2344-.2329zm3.2834 2.3622c4.1161 1.0848 6.9584 5.0586 7.3601 10.2594l.0689.8922H11.9322 1.8173l.059-.6894c.3231-3.3354 1.421-5.9004 3.3619-7.8366C6.8254 2.9268 8.6683 2.0041 10.8733 1.68c.9509-.1422 2.852-.0408 3.754.2028zM26.2216.3418c-.137.0607.794 1.3585 4.822 6.7922l4.9987 6.7318-.294.4158-5.371 7.4713c-5.665 7.857-5.3021 7.2083-4.038 7.2185.843.0102 1.5193-.294 2.078-.9227.235-.2533 2.362-3.1729 4.7339-6.4884l4.3024-6.0217.2256.294c.1271.1621 2.0481 2.8891 4.2631 6.0726l4.3713 6.1537c.1766.2028.5487.4866.833.6287.4217.2227.6272.2635 1.333.2533.4706 0 .9211-.0306 1.0097-.0709.1273-.0611-.8237-1.4297-4.93-7.0662l-5.2437-7.2689c-.186-.3751-.1763-.9834.0394-1.3483.1076-.1725 1.2347-1.7237 2.5186-3.447L48.6463.3923c-.0297-.0403-.4217-.0912-.8725-.1116-.8916-.0504-1.2742.0611-1.9012.5579-.196.1519-2.1563 2.7576-4.3517 5.7888l-4.0773 5.4846c-.039-.0102-1.7933-2.4233-3.881-5.3531l-4.244-5.7582c-.235-.2232-.637-.4866-.8917-.5779-.4606-.162-1.8816-.2129-2.2053-.081z"/>
</svg>