<svg version="1.0" xmlns="http://www.w3.org/2000/svg" width="308.000000pt" height="196.000000pt" viewBox="0 0 308.000000 196.000000" preserveAspectRatio="xMidYMid meet">
<style>
    path {
        fill: black;
    }
    @media (prefers-color-scheme: dark) {
        path { fill: white; }
    }
</style>
<g transform="translate(0.000000,196.000000) scale(0.100000,-0.100000)" fill="#000000" stroke="none">
<path d="M2085 1854 c-55 -29 -143 -67 -195 -85 -108 -36 -185 -41 -430 -25 -120 7 -147 6 -238 -13 -211 -44 -352 -116 -457 -234 -30 -34 -90 -114 -132 -177 l-78 -115 -213 -159 c-117 -87 -211 -160 -209 -162 1 -2 58 15 126 36 68 22 125 40 127 40 2 0 -38 -51 -89 -112 -51 -62 -102 -127 -114 -144 l-23 -32 53 -55 c81 -84 162 -116 219 -86 16 9 32 6 77 -14 31 -14 74 -29 95 -33 l39 -7 -41 58 c-23 32 -42 62 -42 66 0 17 32 16 80 -2 l51 -19 -7 50 -7 51 52 -20 53 -20 -7 49 c-6 42 -4 49 13 54 14 5 25 25 37 69 9 34 33 125 53 202 l37 139 80 56 c168 118 356 242 360 239 2 -2 -16 -46 -41 -96 -62 -129 -122 -192 -244 -251 -123 -61 -137 -84 -165 -269 l-7 -43 64 0 c49 0 76 -6 116 -26 90 -45 162 -159 162 -257 0 -38 -6 -48 -48 -90 -39 -39 -54 -47 -84 -47 -34 0 -37 -2 -40 -32 -3 -31 -6 -33 -45 -36 -39 -3 -42 -5 -45 -35 -3 -31 -5 -32 -45 -31 -25 0 -63 12 -93 27 l-52 27 7 -33 c4 -17 17 -52 29 -77 18 -38 31 -50 85 -77 35 -17 94 -39 131 -48 63 -15 69 -15 116 2 27 11 101 52 164 93 413 264 418 266 860 381 195 51 360 97 367 103 12 12 104 246 97 246 -3 0 -125 -31 -273 -70 -147 -38 -273 -70 -279 -70 -9 0 -12 29 -10 111 l3 112 330 86 330 87 49 122 c27 68 47 125 44 127 -3 3 -665 -168 -740 -191 -16 -5 -18 5 -18 109 l0 115 63 16 c34 10 228 61 432 114 l370 98 46 119 c46 118 50 139 26 130 -7 -3 -201 -55 -432 -115 -231 -61 -428 -113 -438 -116 -16 -5 -15 1 9 48 20 38 28 73 32 126 2 39 3 72 1 71 -2 -1 -49 -25 -104 -55z m-319 -662 c-3 -10 -16 -44 -29 -76 l-23 -59 -84 -23 c-47 -13 -88 -23 -92 -24 -8 0 41 131 54 145 7 8 136 48 171 54 5 0 6 -7 3 -17z m153 -210 c-12 -31 -27 -62 -33 -68 -11 -12 -167 -56 -173 -50 -3 3 45 134 53 144 7 10 170 48 172 40 2 -5 -6 -35 -19 -66z m-240 -55 l-30 -73 -87 -21 c-48 -12 -88 -20 -89 -19 -5 4 48 130 58 141 11 11 160 53 171 48 3 -2 -7 -36 -23 -76z"/>
</g>
</svg>
