<svg xmlns="http://www.w3.org/2000/svg" width="50" height="30">
    <style>
        path {
            fill: black;
        }
        @media (prefers-color-scheme: dark) {
            path { fill: white; }
        }
    </style>
    <path d="M33.1728.3853c-.9487.4667-2.4667 1.0775-3.364 1.3673-1.8626.579-3.1909.6597-7.4171.4022-2.0702-.1127-2.5359-.0964-4.1056.209-3.6399.708-6.0719 1.866-7.8835 3.764-.5175.5468-1.5526 1.8338-2.2769 2.8471l-1.3458 1.8499-3.6742 2.5571-3.6054 2.6059c.0172.0324 1.0004-.2411 2.174-.579l2.1906-.6434c.0342 0-.6559.8204-1.5356 1.8015L.3628 18.8834l-.3965.5148.914.8846c1.3973 1.3512 2.7946 1.8659 3.7779 1.3834.2762-.1449.5519-.0966 1.3282.2249.5347.2254 1.2765.4666 1.6391.5311l.6726.1128-.7075-.9333c-.3965-.5149-.7244-.9972-.7244-1.0619 0-.273.552-.257 1.3802.0323l.8799.3058-.1208-.8043-.1208-.8203.8968.3215.9144.3218-.1208-.7884c-.1036-.6755-.0688-.7877.2242-.868.2413-.0806.4311-.4027.6384-1.11l.9142-3.2495.6381-2.2357 1.38-.9009 6.21-3.8444c.0348.0323-.2757.7401-.7072 1.5443-1.0693 2.0748-2.1046 3.0885-4.2086 4.0375-2.1222.9806-2.3638 1.351-2.8465 4.327l-.1209.6914h1.1038c.8456 0 1.3113.0963 2.0015.418 1.5523.7243 2.7942 2.5578 2.7942 4.1341 0 .6116-.1035.7724-.8281 1.448-.6723.6275-.9314.756-1.4488.756-.5866 0-.6386.0323-.69.5148-.0516.4984-.1033.5307-.7764.5789s-.7245.0804-.7762.5633c-.0517.4983-.0862.5145-.7764.4983-.4311 0-1.0862-.1933-1.604-.4345l-.8971-.4341.1208.531c.0688.2734.2933.8366.5 1.2387.3105.6109.535.8041 1.4665 1.2384.6035.2736 1.6215.6275 2.2598.7719 1.0866.2415 1.1904.2415 2.0012-.0318.4655-.1773 1.7421-.8366 2.8287-1.4961 7.1242-4.2467 7.2108-4.2788 14.8357-6.1286 3.3638-.8206 6.2101-1.5605 6.3305-1.6569.2072-.1932 1.7939-3.9568 1.6736-3.9568-.0519 0-2.1564.4984-4.7094 1.1259l-4.8126 1.1255c-.1561 0-.2074-.4664-.1734-1.785l.0521-1.8015 5.693-1.3836 5.6923-1.3993.8454-1.9621c.4653-1.0942.8107-2.0108.7589-2.0433-.0521-.048-11.4717 2.7024-12.7654 3.0719-.2763.0813-.3103-.0802-.3103-1.7529V7.3987l1.0869-.2577c.5863-.1609 3.9331-.9813 7.4523-1.8338l6.3824-1.5763.7938-1.914c.793-1.8983.8623-2.2358.4482-2.0911-.1208.0484-3.4675.8845-7.4522 1.8497l-7.5558 1.8658c-.276.0806-.2582-.0156.1557-.7718.3447-.6111.4825-1.1742.5519-2.0267.0342-.6276.0517-1.1581.017-1.1424s-.8449.4022-1.7941.8849zM27.67 11.0335c-.0518.1606-.2759.708-.5002 1.2226l-.397.9491-1.4486.3698-1.5874.3862c-.1381 0 .7076-2.1074.9318-2.3324.1206-.1287 2.3462-.7721 2.9496-.8689.0866 0 .1038.1129.0518.2736zm2.6395 3.3779c-.2073.499-.4657.9974-.5696 1.0942-.19.1929-2.8806.9004-2.9839.8042-.0518-.0482.7761-2.1556.914-2.3164.1205-.1609 2.9327-.7724 2.9669-.6432.0351.0803-.1028.5627-.3274 1.0612zm-4.1403.8851l-.5173 1.1742-1.5013.3378c-.8278.1925-1.5178.3217-1.5346.3052-.0864-.0641.8279-2.0907 1.0003-2.2679.1899-.1768 2.76-.8524 2.9498-.7722.0518.0326-.1207.5792-.3969 1.2229z" stroke="none" fill="#000" fill-rule="nonzero"/>
</svg>