<svg xmlns="http://www.w3.org/2000/svg" viewBox="0 0 157 196" width="157" height="196" fill="none"><path fill="#FF9100" d="M49.227 190.109a77.714 77.714 0 0 0 26.359 5.568 77.468 77.468 0 0 0 35.304-7.116 109.954 109.954 0 0 1-34.417-21.609c-6.438 10.308-15.96 18.449-27.245 23.157Z"/><path fill="#FFC400" d="M76.471 166.955c-22.67-20.967-36.423-51.314-35.261-84.6.038-1.08.095-2.16.161-3.24a58.722 58.722 0 0 0-30.66.32A77.424 77.424 0 0 0 .552 115.228c-1.174 33.624 19.173 63.003 48.674 74.884a58.878 58.878 0 0 0 27.245-23.157Z"/><path fill="#FF9100" d="M76.472 166.954c5.27-8.435 8.467-18.324 8.839-28.978.978-28.026-17.863-52.135-43.939-58.862-.066 1.08-.123 2.16-.161 3.24-1.163 33.286 12.59 63.633 35.26 84.6Z"/><path fill="#DD2C00" d="M82.395.335C67.543 12.233 55.815 27.921 48.72 45.994a109.67 109.67 0 0 0-7.36 33.127c26.076 6.727 44.916 30.836 43.938 58.862a58.48 58.48 0 0 1-8.839 28.978 109.788 109.788 0 0 0 34.417 21.609c25.79-11.921 44.088-37.574 45.148-67.916.686-19.659-6.867-37.18-17.54-51.969-11.271-15.64-56.09-68.35-56.09-68.35Z"/></svg>