<svg width="51" height="50" viewBox="0 0 51 50" fill="none" xmlns="http://www.w3.org/2000/svg">
<g clip-path="url(#clip0_24086_201271)">
<path d="M25.2031 50C39.0102 50 50.2031 38.8071 50.2031 25C50.2031 11.1929 39.0102 0 25.2031 0C11.396 0 0.203125 11.1929 0.203125 25C0.203125 38.8071 11.396 50 25.2031 50Z" fill="#663399"/>
<path d="M11.2768 38.9286C7.52679 35.1786 5.5625 30.1786 5.5625 25.3572L25.0268 44.6429C20.0268 44.4643 15.0268 42.6786 11.2768 38.9286Z" fill="white"/>
<path d="M29.4866 44.1072L6.09375 20.7143C8.05804 11.9643 15.9152 5.35718 25.2009 5.35718C31.808 5.35718 37.5223 8.57146 41.0937 13.3929L38.4152 15.7143C35.3795 11.6072 30.558 8.92861 25.2009 8.92861C18.2366 8.92861 12.3437 13.3929 10.0223 19.6429L30.558 40.1786C35.7366 38.3929 39.6652 33.9286 40.9152 28.5715H32.3437V25H44.8437C44.8437 34.2858 38.2366 42.1429 29.4866 44.1072Z" fill="white"/>
</g>
<defs>
<clipPath id="clip0_24086_201271">
<rect width="50" height="50" fill="white" transform="translate(0.203125)"/>
</clipPath>
</defs>
</svg>
