<svg xmlns="http://www.w3.org/2000/svg" width="20" height="20"><path fill-rule="evenodd" d="M10.745.46a.833.833 0 0 1-.372 1.119L2.697 5.417 10 9.068l7.232-3.615-2.649-1.204-4.238 1.926a.833.833 0 1 1-.69-1.517l4.584-2.083c.219-.1.47-.1.69 0l4.583 2.083a.833.833 0 0 1 .027 1.504l-9.166 4.583a.83.83 0 0 1-.746 0L.461 6.162a.833.833 0 0 1 0-1.49L9.627.087a.833.833 0 0 1 1.118.373M.088 9.628a.833.833 0 0 1 1.118-.372L10 13.652l8.794-4.397a.833.833 0 0 1 .745 1.49l-9.166 4.584a.83.83 0 0 1-.746 0L.461 10.745a.833.833 0 0 1-.373-1.118Zm0 4.584a.833.833 0 0 1 1.118-.373L10 18.235l8.794-4.397a.833.833 0 0 1 .745 1.49l-9.166 4.584a.83.83 0 0 1-.746 0L.461 15.329a.833.833 0 0 1-.373-1.118Z" clip-rule="evenodd"/></svg>