<svg xmlns="http://www.w3.org/2000/svg" viewBox="0 0 32 32" width="32" height="32" fill="none"><path fill="#3970FD" d="M30.575 11.01C31.467 8.201 30.93 2.6 29.2.531a.519.519 0 0 0-.837.067l-2.13 3.378a1.629 1.629 0 0 1-2.19.36A14.527 14.527 0 0 0 16 1.92a14.527 14.527 0 0 0-8.043 2.417 1.634 1.634 0 0 1-2.19-.36L3.637.599A.52.52 0 0 0 2.8.53C1.07 2.603.533 8.205 1.426 11.008c.296.935.377 1.92.203 2.88-.175.95-.35 2.099-.35 2.899 0 8.212 6.592 14.867 14.718 14.867 8.13 0 14.717-6.659 14.717-14.867 0-.8-.174-1.949-.348-2.9a6.022 6.022 0 0 1 .209-2.878ZM15.997 28.333c-6.284 0-11.394-5.164-11.394-11.512a11.518 11.518 0 0 1 6.525-10.399A11.181 11.181 0 0 1 16 5.316c1.744 0 3.394.394 4.872 1.11a11.522 11.522 0 0 1 6.526 10.4c-.004 6.344-5.117 11.508-11.401 11.508Z"/><path fill="#3970FD" d="m20.935 21.255-2.912-5.104-2.497-4.251a.326.326 0 0 0-.284-.163h-2.385a.33.33 0 0 0-.282.5l2.39 4.056-3.206 4.94a.336.336 0 0 0-.014.337.327.327 0 0 0 .29.173h2.402a.324.324 0 0 0 .276-.152l1.734-2.734 1.555 2.723a.328.328 0 0 0 .282.167h2.368a.32.32 0 0 0 .283-.167.327.327 0 0 0 0-.327v.002Z"/></svg>