<svg xmlns="http://www.w3.org/2000/svg" width="164" height="96" fill="none"><path fill="#fff" d="M6.907 81.137c-2.332 0-4.495-1.485-5.237-3.814-3.903-12.222-1.006-22.45 9.12-32.19L52.02 5.941C58.316-.122 67.196-1.676 75.2 1.888 83.173 5.44 87.92 13.02 87.606 21.69v4.214c0 3.024-2.462 5.47-5.496 5.47s-5.497-2.45-5.497-5.47v-4.319q-.001-.113.004-.222c.174-4.218-2.032-7.765-5.907-9.489s-8.003-1.001-11.046 1.937l-.028.029-41.22 39.18c-7.034 6.77-8.856 12.86-6.26 20.99.921 2.877-.681 5.953-3.573 6.87a5.6 5.6 0 0 1-1.668.257zm90.877 14.725c-2.913 0-5.874-.622-8.722-1.889-7.971-3.552-12.717-11.132-12.405-19.803v-4.185c0-3.023 2.463-5.469 5.497-5.469s5.497 2.45 5.497 5.47v4.29q.001.113-.004.225c-.175 4.218 2.032 7.766 5.906 9.49 3.874 1.723 8.004 1.001 11.046-1.938l40.932-39.196c7.164-6.894 8.994-12.957 6.304-20.916a5.467 5.467 0 0 1 3.461-6.93c2.88-.962 5.995.576 6.965 3.442 4.036 11.948 1.063 22.507-9.091 32.279L112.246 89.92c-4.048 3.908-9.18 5.946-14.462 5.946zm-69.364-.101a26.3 26.3 0 0 1-10.483-2.16 5.46 5.46 0 0 1-2.876-7.189c1.2-2.777 4.434-4.056 7.225-2.86q.28.12.56.23c5.553 2.162 12.08.88 17.046-3.347.235-.214 1.01-.937 1.115-1.038l73.978-70.103s1.59-1.493 1.935-1.78C121.95 3.296 127.662.77 133.439.21a27.5 27.5 0 0 1 3.687-.113c2.73.092 5.724.383 8.978 1.88 2.754 1.272 3.955 4.521 2.677 7.266-1.278 2.74-4.543 3.935-7.302 2.664-1.403-.646-2.799-.811-4.742-.876a16 16 0 0 0-2.227.069c-3.538.343-7.148 1.982-10.45 4.738-.264.238-1.323 1.223-1.493 1.38L48.59 87.326s-1.214 1.138-1.481 1.368c-5.408 4.634-12.065 7.068-18.69 7.072z"/></svg>