<svg width="51" height="50" viewBox="0 0 51 50" fill="none" xmlns="http://www.w3.org/2000/svg">
<g clip-path="url(#clip0_24086_201244)">
<path d="M50.7656 0H0.765625V50H50.7656V0Z" fill="#F7DF1E"/>
<path d="M34.3519 39.0627C35.3591 40.7072 36.6694 41.9159 38.9868 41.9159C40.9337 41.9159 42.1773 40.9429 42.1773 39.5984C42.1773 37.9873 40.8995 37.4167 38.7567 36.4794L37.5821 35.9754C34.1916 34.531 31.9392 32.7214 31.9392 28.896C31.9392 25.3722 34.6241 22.6897 38.8202 22.6897C41.8075 22.6897 43.9551 23.7294 45.5027 26.4516L41.844 28.8008C41.0384 27.3564 40.1694 26.7873 38.8202 26.7873C37.444 26.7873 36.5718 27.6603 36.5718 28.8008C36.5718 30.2103 37.4448 30.781 39.4606 31.654L40.6352 32.1572C44.6273 33.8691 46.8813 35.6143 46.8813 39.5381C46.8813 43.7683 43.5583 46.0857 39.0956 46.0857C34.7321 46.0857 31.913 44.0064 30.5337 41.281L34.3519 39.0627ZM17.7543 39.4699C18.4924 40.7794 19.1638 41.8865 20.7781 41.8865C22.3218 41.8865 23.2956 41.2825 23.2956 38.9341V22.9579H27.994V38.9976C27.994 43.8627 25.1416 46.077 20.9781 46.077C17.2162 46.077 15.0376 44.1302 13.9297 41.7853L17.7543 39.4699Z" fill="black"/>
</g>
<defs>
<clipPath id="clip0_24086_201244">
<rect width="50" height="50" fill="white" transform="translate(0.765625)"/>
</clipPath>
</defs>
</svg>
