<svg xmlns="http://www.w3.org/2000/svg" width="22" height="24" fill="none"><g fill-rule="evenodd" clip-rule="evenodd"><path fill="#00e0d9" d="M0 4.648C0 2.511 1.653.78 3.691.78H17.72c2.038 0 3.691 1.732 3.691 3.87v12.505c0 2.21-2.669 3.17-3.963 1.424L13.4 13.122v6.617c0 1.923-1.488 3.482-3.322 3.482H3.69c-2.037 0-3.69-1.731-3.69-3.87zm3.691-.773c-.407 0-.738.346-.738.773v14.704c0 .427.33.774.738.774h6.497c.204 0 .259-.174.259-.387v-8.874c0-2.21 2.669-3.17 3.963-1.425l4.047 5.457V4.648c0-.427.039-.773-.37-.773z"/><path fill="url(#a)" d="M0 4.648C0 2.511 1.653.78 3.691.78H17.72c2.038 0 3.691 1.732 3.691 3.87v12.505c0 2.21-2.669 3.17-3.963 1.424L13.4 13.122v6.617c0 1.923-1.488 3.482-3.322 3.482H3.69c-2.037 0-3.69-1.731-3.69-3.87zm3.691-.773c-.407 0-.738.346-.738.773v14.704c0 .427.33.774.738.774h6.497c.204 0 .259-.174.259-.387v-8.874c0-2.21 2.669-3.17 3.963-1.425l4.047 5.457V4.648c0-.427.039-.773-.37-.773z"/><path fill="url(#b)" fill-opacity=".4" d="M0 4.648C0 2.511 1.653.78 3.691.78H17.72c2.038 0 3.691 1.732 3.691 3.87v12.505c0 2.21-2.669 3.17-3.963 1.424L13.4 13.122v6.617c0 1.923-1.488 3.482-3.322 3.482H3.69c-2.037 0-3.69-1.731-3.69-3.87zm3.691-.773c-.407 0-.738.346-.738.773v14.704c0 .427.33.774.738.774h6.497c.204 0 .259-.174.259-.387v-8.874c0-2.21 2.669-3.17 3.963-1.425l4.047 5.457V4.648c0-.427.039-.773-.37-.773z"/></g><path fill="#63f655" d="M17.72.78c2.038 0 3.69 1.731 3.69 3.868v12.506c0 2.21-2.668 3.17-3.963 1.424L13.4 13.122v6.617c0 1.923-1.487 3.482-3.322 3.482.204 0 .37-.173.37-.387V10.865c0-2.21 2.668-3.17 3.963-1.425l4.047 5.457V1.553c0-.427-.33-.774-.739-.774"/><defs><linearGradient id="a" x1="21.41" x2="1.579" y1="23.221" y2="1.705"><stop stop-color="#62f755"/><stop offset="1" stop-color="#8ff986" stop-opacity="0"/></linearGradient><linearGradient id="b" x1="21.41" x2="8.541" y1="23.221" y2="18.446"><stop stop-opacity=".9"/><stop offset="1" stop-color="#1a1a1a" stop-opacity="0"/></linearGradient></defs></svg>