<svg width="82" height="50" viewBox="0 0 82 50" fill="currentColor" xmlns="http://www.w3.org/2000/svg">
<style>
    path {
        fill: black;
    }
    @media (prefers-color-scheme: dark) {
        path { fill: white; }
    }
</style>
<path d="M20.3125 12.8641H35.19V14.0647H21.6763V23.101H34.3841V24.3016H21.6763V34.2226H35.3449V35.4232H20.3125V12.8641ZM36.5227 12.8641H38.1035L45.1083 22.785L52.2681 12.8641L62.0065 0.262207L46.0071 23.8277L54.2517 35.4232H52.609L45.1083 24.8703L37.5766 35.4232H35.9648L44.2714 23.8277L36.5227 12.8641ZM54.8406 14.0647V12.8641H71.7948V14.0647H63.9841V35.4232H62.6203V14.0647H54.8406Z" fill="black"/>
<path d="M1.70312 12.8643H3.40783L26.9148 48.5799L17.2005 35.4234L3.12888 14.5704L3.06689 35.4234H1.70312V12.8643Z" fill="black"/>
<path d="M71.6595 33.8604C71.9414 33.8604 72.1471 33.6412 72.1471 33.358C72.1471 33.0747 71.9414 32.8555 71.6595 32.8555C71.3808 32.8555 71.1719 33.0747 71.1719 33.358C71.1719 33.6412 71.3808 33.8604 71.6595 33.8604ZM72.9995 32.5385C72.9995 33.3748 73.5933 33.9211 74.459 33.9211C75.3811 33.9211 75.9384 33.3579 75.9384 32.38V28.9369H75.1954V32.3766C75.1954 32.9196 74.9267 33.2096 74.4524 33.2096C74.0278 33.2096 73.7392 32.9398 73.7293 32.5385H72.9995ZM76.9103 32.4946C76.9634 33.3647 77.6765 33.9211 78.738 33.9211C79.8724 33.9211 80.5822 33.3377 80.5822 32.407C80.5822 31.6752 80.1775 31.2705 79.1957 31.0378L78.6683 30.9063C78.0447 30.7579 77.7926 30.5589 77.7926 30.2116C77.7926 29.7732 78.184 29.4866 78.7711 29.4866C79.3284 29.4866 79.7131 29.7665 79.7828 30.215H80.5059C80.4628 29.3955 79.753 28.8188 78.7811 28.8188C77.7362 28.8188 77.0396 29.3955 77.0396 30.2622C77.0396 30.9771 77.4344 31.402 78.3001 31.6077L78.9171 31.7595C79.5506 31.9112 79.8292 32.1338 79.8292 32.5048C79.8292 32.9364 79.3914 33.25 78.7943 33.25C78.1542 33.25 77.7097 32.9566 77.6467 32.4946H76.9103Z" fill="black"/>
</svg>
