<svg xmlns="http://www.w3.org/2000/svg" width="23" height="24" fill="none"><path fill="#0052cd" d="M20.406 5.144 12.041.323a2.45 2.45 0 0 0-2.434 0A2.43 2.43 0 0 0 8.39 2.425v.629l-.545-.315a2.45 2.45 0 0 0-2.435 0 2.43 2.43 0 0 0-1.215 2.106v.629l-.546-.315a2.45 2.45 0 0 0-2.433 0A2.43 2.43 0 0 0 0 7.262v15.102a1.144 1.144 0 0 0 1.853.896L6 19.995l6.398 3.685a1.16 1.16 0 0 0 1.144 0c.353-.203.572-.581.572-.989v-9.086a4.2 4.2 0 0 0-2.098-3.626L9.92 8.769V2.428a.908.908 0 0 1 1.361-.784l8.365 4.819a2.67 2.67 0 0 1 1.335 2.307v11.317a.91.91 0 0 1-.454.784l-2.216 1.277V11.186a4.2 4.2 0 0 0-2.098-3.626l-5.15-2.966V6.35l4.387 2.528a2.67 2.67 0 0 1 1.335 2.306v11.62c0 .404.22.785.573.989a1.16 1.16 0 0 0 1.144 0l2.79-1.608a2.44 2.44 0 0 0 1.216-2.103V8.766a4.21 4.21 0 0 0-2.102-3.622m-9.156 6.152a2.67 2.67 0 0 1 1.335 2.308v8.43l-5.297-3.051 1.7-1.337a2.41 2.41 0 0 0 .928-1.907V10.53zM8.39 9.65v6.088c0 .28-.127.54-.346.71l-6.52 5.13V7.26a.907.907 0 0 1 1.361-.784l1.31.754v10.793l1.525-1.2V4.843a.907.907 0 0 1 1.362-.783l1.308.753v3.076L6.866 7.01v1.76l1.526.88z"/></svg>