<svg xmlns="http://www.w3.org/2000/svg" width="58" height="72" fill="none"><g clip-path="url(#a)"><path fill="#000" fill-rule="evenodd" d="M.522 45.093a3.54 3.54 0 0 0 .029 3.75L13.653 69.51a3.54 3.54 0 0 0 4.011 1.497l37.812-11.343a3.543 3.543 0 0 0 2.2-4.878L33.367 2.06C32.183-.51 28.61-.722 27.13 1.692zm32.2-30.979c-.516-1.195-2.266-1.011-2.522.266l-9.358 46.595a1.33 1.33 0 0 0 1.683 1.535l26.124-7.799a1.33 1.33 0 0 0 .84-1.8z" clip-rule="evenodd"/></g><defs><clipPath id="a"><path fill="#fff" d="M0 0h58v72H0z"/></clipPath></defs></svg>