<svg width="51" height="50" viewBox="0 0 51 50" fill="none" xmlns="http://www.w3.org/2000/svg">
<path d="M50.5287 25.0502C50.5287 21.7381 46.3809 18.5993 40.0217 16.6528C41.4892 10.1712 40.837 5.01456 37.9631 3.36361C37.3007 2.97635 36.5261 2.79291 35.6803 2.79291V5.06552C36.1491 5.06552 36.5261 5.15724 36.8421 5.33049C38.2281 6.12539 38.8293 9.15214 38.3605 13.0451C38.2484 14.0031 38.065 15.012 37.8408 16.0413C35.8433 15.5521 33.6625 15.1751 31.3695 14.9305C29.9937 13.0451 28.5669 11.333 27.13 9.83494C30.4523 6.74705 33.5707 5.05533 35.6905 5.05533V2.78271C32.8879 2.78271 29.2191 4.78017 25.5096 8.24513C21.8 4.80055 18.1312 2.82348 15.3287 2.82348V5.09609C17.4383 5.09609 20.5669 6.77762 23.8892 9.84513C22.4625 11.3432 21.0357 13.0451 19.6803 14.9305C17.3771 15.1751 15.1962 15.5521 13.1988 16.0515C12.9644 15.0324 12.7911 14.0439 12.6688 13.0961C12.1898 9.2031 12.7809 6.17634 14.1567 5.37125C14.4625 5.18781 14.8599 5.10628 15.3287 5.10628V2.83367C14.4726 2.83367 13.6981 3.01711 13.0255 3.40437C10.1618 5.05533 9.51978 10.2018 10.9975 16.663C4.65864 18.6197 0.53125 21.7483 0.53125 25.0502C0.53125 28.3623 4.67902 31.5012 11.0383 33.4477C9.57074 39.9292 10.223 45.0859 13.0969 46.7368C13.7593 47.1241 14.5338 47.3075 15.3898 47.3075C18.1924 47.3075 21.8612 45.3101 25.5707 41.8451C29.2803 45.2897 32.9491 47.2668 35.7516 47.2668C36.6077 47.2668 37.3822 47.0833 38.0548 46.6961C40.9185 45.0451 41.5605 39.8986 40.0828 33.4375C46.4013 31.491 50.5287 28.3521 50.5287 25.0502ZM37.2599 18.2528C36.8828 19.5674 36.414 20.9228 35.8841 22.2783C35.4663 21.463 35.0281 20.6477 34.5491 19.8324C34.0803 19.0171 33.5809 18.2222 33.0816 17.4477C34.5287 17.6617 35.9249 17.9267 37.2599 18.2528ZM32.5924 29.1063C31.7975 30.4821 30.9822 31.7865 30.1363 32.9993C28.6179 33.1318 27.079 33.2031 25.53 33.2031C23.9911 33.2031 22.4523 33.1318 20.944 33.0095C20.0981 31.7967 19.2726 30.5025 18.4777 29.1369C17.7032 27.8018 17 26.4464 16.358 25.0808C16.9898 23.7152 17.7032 22.3496 18.4676 21.0146C19.2625 19.6388 20.0777 18.3343 20.9236 17.1216C22.4421 16.9891 23.9809 16.9177 25.53 16.9177C27.0688 16.9177 28.6077 16.9891 30.116 17.1114C30.9618 18.3241 31.7873 19.6184 32.5822 20.984C33.3567 22.319 34.0599 23.6744 34.7019 25.04C34.0599 26.4056 33.3567 27.7712 32.5924 29.1063ZM35.8841 27.7814C36.4344 29.147 36.9032 30.5126 37.2905 31.8375C35.9555 32.1636 34.5491 32.4388 33.0918 32.6528C33.5911 31.8681 34.0905 31.063 34.5593 30.2375C35.0281 29.4222 35.4663 28.5967 35.8841 27.7814ZM25.5504 38.6553C24.6026 37.677 23.6548 36.5865 22.7172 35.3942C23.6344 35.4349 24.572 35.4655 25.5198 35.4655C26.4777 35.4655 27.4255 35.4451 28.3529 35.3942C27.4357 36.5865 26.4879 37.677 25.5504 38.6553ZM17.9682 32.6528C16.5211 32.4388 15.1249 32.1738 13.7898 31.8477C14.1669 30.533 14.6357 29.1776 15.1656 27.8222C15.5835 28.6375 16.0217 29.4528 16.5007 30.2681C16.9797 31.0833 17.4688 31.8783 17.9682 32.6528ZM25.4994 11.4451C26.4472 12.4235 27.3949 13.5139 28.3325 14.7063C27.4153 14.6655 26.4777 14.6349 25.53 14.6349C24.572 14.6349 23.6242 14.6553 22.6969 14.7063C23.6141 13.5139 24.5618 12.4235 25.4994 11.4451ZM17.958 17.4477C17.4586 18.2324 16.9593 19.0375 16.4905 19.863C16.0217 20.6783 15.5835 21.4935 15.1656 22.3088C14.6153 20.9432 14.1465 19.5776 13.7593 18.2528C15.0943 17.9369 16.5007 17.6617 17.958 17.4477ZM8.73507 30.2069C5.12743 28.6681 2.79367 26.6502 2.79367 25.0502C2.79367 23.4502 5.12743 21.4222 8.73507 19.8935C9.61151 19.5165 10.5695 19.1802 11.558 18.8642C12.1389 20.8617 12.9032 22.9407 13.851 25.0706C12.9134 27.1904 12.1593 29.2591 11.5886 31.2464C10.5797 30.9305 9.6217 30.584 8.73507 30.2069ZM14.2179 44.77C12.8319 43.9751 12.2306 40.9483 12.6994 37.0553C12.8115 36.0974 12.9949 35.0884 13.2191 34.0591C15.2166 34.5483 17.3975 34.9254 19.6905 35.17C21.0663 37.0553 22.493 38.7674 23.93 40.2655C20.6077 43.3534 17.4892 45.0451 15.3695 45.0451C14.9109 45.0349 14.5236 44.9432 14.2179 44.77ZM38.3911 37.0044C38.8701 40.8974 38.279 43.9241 36.9032 44.7292C36.5975 44.9126 36.2 44.9942 35.7312 44.9942C33.6217 44.9942 30.493 43.3126 27.1707 40.2451C28.5975 38.747 30.0242 37.0451 31.3797 35.1598C33.6828 34.9152 35.8637 34.5381 37.8612 34.0388C38.0956 35.0681 38.279 36.0566 38.3911 37.0044ZM42.3147 30.2069C41.4383 30.584 40.4803 30.9203 39.4918 31.2362C38.9109 29.2388 38.1465 27.1598 37.1988 25.0298C38.1363 22.9101 38.8905 20.8413 39.4612 18.854C40.4701 19.17 41.4281 19.5165 42.3249 19.8935C45.9325 21.4324 48.2663 23.4502 48.2663 25.0502C48.2561 26.6502 45.9223 28.6783 42.3147 30.2069Z" fill="#61DAFB"/>
<path d="M25.5206 29.7077C28.0928 29.7077 30.178 27.6226 30.178 25.0504C30.178 22.4782 28.0928 20.3931 25.5206 20.3931C22.9484 20.3931 20.8633 22.4782 20.8633 25.0504C20.8633 27.6226 22.9484 29.7077 25.5206 29.7077Z" fill="#61DAFB"/>
</svg>
