<svg width="51" height="50" viewBox="0 0 51 50" fill="none" xmlns="http://www.w3.org/2000/svg">
<g clip-path="url(#clip0_24086_201275)">
<path fill-rule="evenodd" clip-rule="evenodd" d="M15.181 7.2291L24.8895 13.8561C25.1087 14.002 25.3646 14.0819 25.6273 14.0864C25.8903 14.0845 26.147 14.0044 26.365 13.8561L36.081 7.2068C36.4585 6.9365 36.6667 6.4859 36.6288 6.02095C36.591 5.55605 36.3127 5.1456 35.8965 4.94083L26.188 0.134023C25.8197 -0.0446743 25.3906 -0.0446743 25.0223 0.134023L15.3433 4.94083C14.9196 5.1467 14.6376 5.5651 14.6041 6.0376C14.5706 6.51015 14.7906 6.96465 15.181 7.2291ZM28.9249 15.9363C28.9257 16.3758 29.1408 16.7868 29.5004 17.0359L37.2835 22.3553C37.7817 22.6988 38.4484 22.6559 38.8991 22.2512L45.4281 16.4118C45.719 16.1518 45.8806 15.7753 45.8692 15.3838C45.8578 14.9923 45.6746 14.6259 45.369 14.3835L39.1352 9.39845C38.6821 9.0385 38.05 9.01445 37.5712 9.339L29.5004 14.859C29.1472 15.1035 28.9329 15.5048 28.9249 15.9363ZM9.56677 23.1725C9.88137 23.4551 10.0431 23.8719 10.0021 24.2943C9.96122 24.7193 9.71577 25.097 9.34547 25.3048L4.69775 28.0907C4.22661 28.3724 3.63175 28.3317 3.20266 27.9887C2.77357 27.6456 2.59939 27.0714 2.76489 26.5455L4.4838 21.1369C4.61865 20.7084 4.96044 20.3781 5.39122 20.2602C5.82167 20.135 6.28584 20.2447 6.61586 20.5499L9.56677 23.1725ZM34.7752 23.7372L26.3724 17.9868C25.9258 17.6863 25.3435 17.6863 24.8969 17.9868L16.4941 23.7372C16.1599 23.9685 15.9482 24.3402 15.9187 24.7475C15.8969 25.1577 16.0595 25.556 16.3613 25.8322L24.7568 33.3433C24.9989 33.5593 25.3112 33.6782 25.6347 33.6777C25.9579 33.6776 26.2701 33.5587 26.5126 33.3433L34.908 25.8322C35.2108 25.5571 35.3712 25.1572 35.3432 24.7475C35.3198 24.3403 35.1099 23.967 34.7752 23.7372ZM12.3628 22.2512L5.84124 16.4117C5.54781 16.1452 5.38588 15.762 5.3986 15.3643C5.4057 14.9722 5.58713 14.6041 5.89288 14.3613L12.1267 9.34645C12.583 8.9875 13.2164 8.96355 13.6981 9.287L21.7616 14.807C22.1358 15.0525 22.3615 15.4717 22.3615 15.9214C22.3615 16.3711 22.1358 16.7905 21.7616 17.0359L13.9858 22.3553C13.4846 22.6973 12.817 22.6545 12.3628 22.2512ZM45.8486 30.6391L39.209 26.6643C38.7159 26.3672 38.0882 26.4274 37.6597 26.8129L29.5447 34.0565C29.2024 34.3623 29.0416 34.8246 29.1197 35.2786C29.1979 35.7326 29.5038 36.1135 29.9283 36.2854L41.1861 40.847C41.3405 40.9112 41.506 40.944 41.673 40.9436C42.1955 40.9453 42.6698 40.6365 42.8829 40.156L46.3724 32.3404C46.6564 31.7219 46.4302 30.9873 45.8486 30.6391ZM46.7707 21.1369L48.4897 26.5455H48.4749C48.602 26.95 48.5298 27.3914 48.2805 27.7335C48.0312 28.0756 47.6347 28.2773 47.2134 28.2765C46.977 28.2773 46.7449 28.2131 46.542 28.0907L41.8869 25.3048C41.5242 25.0926 41.2873 24.7153 41.2525 24.2943C41.209 23.8715 41.3711 23.4536 41.6877 23.1726L44.6387 20.5426C44.9721 20.2438 45.4327 20.1348 45.8633 20.2528C46.2938 20.3757 46.6345 20.7077 46.7707 21.1369ZM22.1452 35.275C22.2245 34.8229 22.0653 34.3616 21.7247 34.0565L13.6096 26.8129C13.1811 26.4274 12.5534 26.3672 12.0603 26.6643L5.42072 30.6391C4.84583 30.9888 4.61838 31.7141 4.88955 32.333L8.38642 40.1487C8.67612 40.8004 9.42512 41.1054 10.0832 40.8396L21.3337 36.278C21.7583 36.1076 22.0653 35.7282 22.1452 35.275ZM26.1289 37.5038L35.1588 41.1591C35.6003 41.348 35.9053 41.7633 35.9556 42.2438C36.0127 42.7302 35.7967 43.2083 35.3949 43.4845L26.3576 49.7622C26.1411 49.9144 25.884 49.9972 25.6199 50C25.3561 49.9959 25.0994 49.9132 24.8822 49.7622L15.8523 43.4845C15.449 43.2091 15.2304 42.7314 15.2842 42.2438C15.3445 41.7583 15.6605 41.3435 16.1105 41.1591L25.1404 37.5038C25.4579 37.3772 25.8114 37.3772 26.1289 37.5038Z" fill="#BF4722"/>
</g>
<defs>
<clipPath id="clip0_24086_201275">
<rect width="50" height="50" fill="white" transform="translate(0.203125)"/>
</clipPath>
</defs>
</svg>
