<svg xmlns="http://www.w3.org/2000/svg" width="112" height="112" fill="none"><path fill="url(#a)" d="M65.183 110.073c-2.86 3.601-8.657 1.628-8.726-2.97l-1.008-67.251h45.22c8.19 0 12.758 9.46 7.665 15.874z"/><path fill="url(#b)" fill-opacity=".2" d="M65.183 110.073c-2.86 3.601-8.657 1.628-8.726-2.97l-1.008-67.251h45.22c8.19 0 12.758 9.46 7.665 15.874z"/><path fill="#3ecf8e" d="M46.792 1.86c2.86-3.602 8.658-1.628 8.727 2.97l.441 67.251H11.306c-8.19 0-12.758-9.46-7.665-15.875z"/><defs><linearGradient id="a" x1="55.449" x2="95.639" y1="54.763" y2="71.618"><stop stop-color="#249361"/><stop offset="1" stop-color="#3ecf8e"/></linearGradient><linearGradient id="b" x1="37.631" x2="55.96" y1="30.367" y2="64.869"><stop/><stop offset="1" stop-opacity="0"/></linearGradient></defs></svg>