<svg xmlns="http://www.w3.org/2000/svg" viewBox="0 0 112 112" width="112" height="112" fill="none"><path fill="url(#paint0_linear_109_302)" d="M65.183 110.073c-2.86 3.601-8.657 1.628-8.726-2.97l-1.008-67.251h45.22c8.19 0 12.758 9.46 7.665 15.874l-43.151 54.347Z"/><path fill="url(#paint1_linear_109_302)" fill-opacity=".2" d="M65.183 110.073c-2.86 3.601-8.657 1.628-8.726-2.97l-1.008-67.251h45.22c8.19 0 12.758 9.46 7.665 15.874l-43.151 54.347Z"/><path fill="#3ECF8E" d="M46.792 1.86c2.86-3.602 8.658-1.628 8.727 2.97l.441 67.251H11.306c-8.19 0-12.758-9.46-7.665-15.875L46.792 1.86Z"/><defs><linearGradient id="paint0_linear_109_302" x1="55.449" x2="95.639" y1="54.763" y2="71.618" gradient-units="userSpaceOnUse"><stop stop-color="#249361"/><stop offset="1" stop-color="#3ECF8E"/></linearGradient><linearGradient id="paint1_linear_109_302" x1="37.631" x2="55.96" y1="30.367" y2="64.869" gradient-units="userSpaceOnUse"><stop/><stop offset="1" stop-opacity="0"/></linearGradient></defs></svg>