<svg width="428" height="453" viewBox="0 0 428 453" fill="none" xmlns="http://www.w3.org/2000/svg">
<g clip-path="url(#clip0_1_147)">
<rect x="28" width="400" height="452.5" rx="16" fill="white"/>
<path d="M61.3927 56.0118L64.2052 55.7384C64.3744 56.6824 64.7162 57.3758 65.2305 57.8185C65.7514 58.2612 66.4512 58.4825 67.3302 58.4825C68.2611 58.4825 68.961 58.2872 69.4298 57.8966C69.905 57.4995 70.1427 57.0372 70.1427 56.5099C70.1427 56.1713 70.0417 55.8849 69.8399 55.6505C69.6446 55.4096 69.2996 55.2013 68.8048 55.0255C68.4662 54.9083 67.6947 54.7 66.4903 54.4005C64.9408 54.0164 63.8536 53.5444 63.2286 52.9845C62.3497 52.1967 61.9102 51.2365 61.9102 50.1036C61.9102 49.3745 62.1153 48.6941 62.5255 48.0626C62.9421 47.4246 63.5378 46.9396 64.3126 46.6075C65.0938 46.2755 66.0346 46.1095 67.1348 46.1095C68.9317 46.1095 70.2826 46.5034 71.1876 47.2911C72.099 48.0789 72.5776 49.1303 72.6231 50.4454L69.7325 50.5724C69.6088 49.8367 69.3419 49.3094 68.9317 48.9904C68.5281 48.6648 67.9193 48.5021 67.1055 48.5021C66.2657 48.5021 65.6081 48.6746 65.1329 49.0197C64.8269 49.241 64.6739 49.5372 64.6739 49.9083C64.6739 50.2469 64.8171 50.5366 65.1036 50.7775C65.4682 51.0835 66.3536 51.4025 67.7598 51.7345C69.1661 52.0665 70.2045 52.4116 70.8751 52.7697C71.5522 53.1212 72.0795 53.6062 72.4571 54.2247C72.8412 54.8367 73.0333 55.5952 73.0333 56.5001C73.0333 57.3204 72.8054 58.0887 72.3497 58.8048C71.894 59.521 71.2494 60.0548 70.4161 60.4064C69.5828 60.7514 68.5443 60.924 67.3009 60.924C65.491 60.924 64.101 60.5073 63.1309 59.674C62.1609 58.8341 61.5815 57.6134 61.3927 56.0118ZM75.4454 48.8927V46.3536H78.1895V48.8927H75.4454ZM75.4454 60.67V50.299H78.1895V60.67H75.4454ZM80.7579 61.3536L83.8927 61.7345C83.9447 62.0991 84.0652 62.3497 84.254 62.4865C84.5144 62.6818 84.9246 62.7794 85.4845 62.7794C86.2006 62.7794 86.7377 62.672 87.0958 62.4572C87.3367 62.3139 87.519 62.0828 87.6427 61.7638C87.7273 61.5359 87.7696 61.116 87.7696 60.504V58.9904C86.9493 60.1101 85.9141 60.67 84.6641 60.67C83.2709 60.67 82.1674 60.0809 81.3536 58.9025C80.7156 57.9715 80.3966 56.8126 80.3966 55.4259C80.3966 53.6876 80.8132 52.3595 81.6466 51.4415C82.4864 50.5236 83.5281 50.0646 84.7716 50.0646C86.0541 50.0646 87.1121 50.6277 87.9454 51.754V50.299H90.5137V59.6056C90.5137 60.8295 90.4128 61.7443 90.211 62.3497C90.0092 62.9552 89.726 63.4305 89.3614 63.7755C88.9968 64.1206 88.5085 64.3907 87.8966 64.5861C87.2911 64.7814 86.5229 64.879 85.5919 64.879C83.8341 64.879 82.5873 64.5763 81.8516 63.9708C81.116 63.3719 80.7481 62.6101 80.7481 61.6857C80.7481 61.5945 80.7514 61.4838 80.7579 61.3536ZM83.2091 55.2697C83.2091 56.3699 83.4206 57.1772 83.8438 57.6915C84.2735 58.1993 84.8009 58.4532 85.4259 58.4532C86.0964 58.4532 86.6628 58.1928 87.1251 57.672C87.5873 57.1447 87.8184 56.3667 87.8184 55.338C87.8184 54.2638 87.5971 53.4663 87.1544 52.9454C86.7117 52.4246 86.1518 52.1642 85.4747 52.1642C84.8171 52.1642 84.2735 52.4213 83.8438 52.9357C83.4206 53.4435 83.2091 54.2215 83.2091 55.2697ZM102.672 60.67H99.9278V55.3771C99.9278 54.2573 99.8692 53.5346 99.752 53.2091C99.6348 52.8771 99.4428 52.6199 99.1759 52.4376C98.9154 52.2553 98.5997 52.1642 98.2286 52.1642C97.7533 52.1642 97.3269 52.2944 96.9493 52.5548C96.5717 52.8152 96.3113 53.1603 96.168 53.59C96.0313 54.0197 95.963 54.8139 95.963 55.9728V60.67H93.2188V50.299H95.7677V51.8224C96.6726 50.6505 97.8119 50.0646 99.1856 50.0646C99.7911 50.0646 100.344 50.1753 100.846 50.3966C101.347 50.6115 101.725 50.8881 101.979 51.2267C102.239 51.5652 102.418 51.9493 102.516 52.379C102.62 52.8087 102.672 53.424 102.672 54.2247V60.67ZM111.031 48.8927V46.3536H113.775V48.8927H111.031ZM111.031 60.67V50.299H113.775V60.67H111.031ZM126.031 60.67H123.287V55.3771C123.287 54.2573 123.229 53.5346 123.111 53.2091C122.994 52.8771 122.802 52.6199 122.535 52.4376C122.275 52.2553 121.959 52.1642 121.588 52.1642C121.113 52.1642 120.686 52.2944 120.309 52.5548C119.931 52.8152 119.671 53.1603 119.527 53.59C119.391 54.0197 119.322 54.8139 119.322 55.9728V60.67H116.578V50.299H119.127V51.8224C120.032 50.6505 121.171 50.0646 122.545 50.0646C123.15 50.0646 123.704 50.1753 124.205 50.3966C124.706 50.6115 125.084 50.8881 125.338 51.2267C125.598 51.5652 125.777 51.9493 125.875 52.379C125.979 52.8087 126.031 53.424 126.031 54.2247V60.67Z" fill="black"/>
<path d="M64.0841 87.0723L64.2403 88.3145C63.9226 88.3978 63.6361 88.4395 63.3809 88.4395C62.9799 88.4395 62.657 88.3613 62.4122 88.2051C62.1674 88.0436 61.9981 87.8249 61.9044 87.5488C61.8158 87.2728 61.7716 86.7233 61.7716 85.9004V81.127H60.9278V80.0332H61.7716V77.9785L62.92 77.1348V80.0332H64.0841V81.127H62.92V85.9785C62.92 86.4264 62.9539 86.7155 63.0216 86.8457C63.1205 87.0332 63.3054 87.127 63.5762 87.127C63.7065 87.127 63.8757 87.1087 64.0841 87.0723ZM64.7403 84.1816C64.7403 82.7493 65.0398 81.6686 65.6387 80.9395C66.2429 80.2103 67.0059 79.8457 67.9278 79.8457C68.8341 79.8457 69.5919 80.2103 70.2012 80.9395C70.8106 81.6686 71.1153 82.7207 71.1153 84.0957C71.1153 85.5853 70.8158 86.6947 70.2169 87.4238C69.6179 88.153 68.8549 88.5176 67.9278 88.5176C67.0164 88.5176 66.2559 88.153 65.6466 87.4238C65.0424 86.6895 64.7403 85.6087 64.7403 84.1816ZM65.92 84.1816C65.92 85.2546 66.1153 86.054 66.5059 86.5801C66.8966 87.1009 67.3809 87.3613 67.9591 87.3613C68.5007 87.3613 68.9643 87.0983 69.3497 86.5723C69.7403 86.041 69.9356 85.2441 69.9356 84.1816C69.9356 83.1139 69.7403 82.3197 69.3497 81.7988C68.9591 81.2728 68.4747 81.0098 67.8966 81.0098C67.3497 81.0098 66.8835 81.2728 66.4981 81.7988C66.1127 82.3249 65.92 83.1191 65.92 84.1816ZM80.5841 85.291L81.7169 85.4707C81.5867 86.4603 81.2585 87.2155 80.7325 87.7363C80.2117 88.2572 79.5841 88.5176 78.8497 88.5176C77.9591 88.5176 77.2247 88.153 76.6466 87.4238C76.0736 86.6895 75.7872 85.6061 75.7872 84.1738C75.7872 82.7311 76.0762 81.6504 76.6544 80.9316C77.2377 80.2077 77.9851 79.8457 78.8966 79.8457C79.5997 79.8457 80.1908 80.0645 80.67 80.502C81.1544 80.9395 81.4643 81.5957 81.5997 82.4707L80.4825 82.6816C80.3731 82.1191 80.183 81.6999 79.9122 81.4238C79.6414 81.1426 79.3158 81.002 78.9356 81.002C78.3679 81.002 77.8966 81.2546 77.5216 81.7598C77.1518 82.2598 76.9669 83.0566 76.9669 84.1504C76.9669 85.2806 77.144 86.0983 77.4981 86.6035C77.8575 87.1087 78.3158 87.3613 78.8731 87.3613C79.3106 87.3613 79.683 87.1947 79.9903 86.8613C80.3028 86.5228 80.5007 85.9993 80.5841 85.291ZM82.2559 84.1816C82.2559 82.7493 82.5554 81.6686 83.1544 80.9395C83.7585 80.2103 84.5216 79.8457 85.4434 79.8457C86.3497 79.8457 87.1075 80.2103 87.7169 80.9395C88.3262 81.6686 88.6309 82.7207 88.6309 84.0957C88.6309 85.5853 88.3315 86.6947 87.7325 87.4238C87.1335 88.153 86.3705 88.5176 85.4434 88.5176C84.532 88.5176 83.7716 88.153 83.1622 87.4238C82.558 86.6895 82.2559 85.6087 82.2559 84.1816ZM83.4356 84.1816C83.4356 85.2546 83.6309 86.054 84.0216 86.5801C84.4122 87.1009 84.8966 87.3613 85.4747 87.3613C86.0164 87.3613 86.4799 87.0983 86.8653 86.5723C87.2559 86.041 87.4512 85.2441 87.4512 84.1816C87.4512 83.1139 87.2559 82.3197 86.8653 81.7988C86.4747 81.2728 85.9903 81.0098 85.4122 81.0098C84.8653 81.0098 84.3992 81.2728 84.0137 81.7988C83.6283 82.3249 83.4356 83.1191 83.4356 84.1816ZM89.9825 88.3301V80.0332H91.0216V81.2129C91.2716 80.7546 91.5762 80.4134 91.9356 80.1895C92.3002 79.9603 92.7169 79.8457 93.1856 79.8457C93.5502 79.8457 93.8861 79.9186 94.1934 80.0645C94.5059 80.2051 94.7559 80.3926 94.9434 80.627C95.1361 80.8561 95.2794 81.1556 95.3731 81.5254C95.4669 81.8952 95.5137 82.4629 95.5137 83.2285V88.3301H94.3575V83.2832C94.3575 82.6738 94.3054 82.2285 94.2012 81.9473C94.0971 81.666 93.933 81.4499 93.7091 81.2988C93.4903 81.1426 93.2351 81.0645 92.9434 81.0645C92.3914 81.0645 91.9512 81.2702 91.6231 81.6816C91.295 82.0931 91.1309 82.7988 91.1309 83.7988V88.3301H89.9825ZM99.8497 87.0723L100.006 88.3145C99.6882 88.3978 99.4018 88.4395 99.1466 88.4395C98.7455 88.4395 98.4226 88.3613 98.1778 88.2051C97.933 88.0436 97.7637 87.8249 97.67 87.5488C97.5815 87.2728 97.5372 86.7233 97.5372 85.9004V81.127H96.6934V80.0332H97.5372V77.9785L98.6856 77.1348V80.0332H99.8497V81.127H98.6856V85.9785C98.6856 86.4264 98.7195 86.7155 98.7872 86.8457C98.8861 87.0332 99.071 87.127 99.3419 87.127C99.4721 87.127 99.6414 87.1087 99.8497 87.0723ZM100.936 78.4941V76.877H102.084V78.4941H100.936ZM100.936 88.3301V80.0332H102.084V88.3301H100.936ZM103.857 88.3301V80.0332H104.897V81.2129C105.147 80.7546 105.451 80.4134 105.811 80.1895C106.175 79.9603 106.592 79.8457 107.061 79.8457C107.425 79.8457 107.761 79.9186 108.068 80.0645C108.381 80.2051 108.631 80.3926 108.818 80.627C109.011 80.8561 109.154 81.1556 109.248 81.5254C109.342 81.8952 109.389 82.4629 109.389 83.2285V88.3301H108.232V83.2832C108.232 82.6738 108.18 82.2285 108.076 81.9473C107.972 81.666 107.808 81.4499 107.584 81.2988C107.365 81.1426 107.11 81.0645 106.818 81.0645C106.266 81.0645 105.826 81.2702 105.498 81.6816C105.17 82.0931 105.006 82.7988 105.006 83.7988V88.3301H103.857ZM115.615 88.3301V87.1113C115.35 87.5801 115.037 87.9316 114.678 88.166C114.318 88.4004 113.912 88.5176 113.459 88.5176C112.923 88.5176 112.464 88.3743 112.084 88.0879C111.704 87.7962 111.449 87.429 111.318 86.9863C111.193 86.5436 111.131 85.9395 111.131 85.1738V80.0332H112.279V84.6348C112.279 85.4889 112.321 86.0618 112.404 86.3535C112.493 86.64 112.652 86.8717 112.881 87.0488C113.115 87.2207 113.381 87.3066 113.678 87.3066C114.23 87.3066 114.683 87.0801 115.037 86.627C115.339 86.2363 115.49 85.5202 115.49 84.4785V80.0332H116.647V88.3301H115.615ZM123.107 85.6582L124.295 85.8379C124.097 86.7233 123.738 87.3926 123.217 87.8457C122.701 88.2936 122.061 88.5176 121.295 88.5176C120.331 88.5176 119.55 88.153 118.951 87.4238C118.357 86.6895 118.061 85.6322 118.061 84.252C118.061 82.8197 118.36 81.7285 118.959 80.9785C119.563 80.2233 120.326 79.8457 121.248 79.8457C122.128 79.8457 122.863 80.2155 123.451 80.9551C124.04 81.6947 124.334 82.765 124.334 84.166L124.326 84.541H119.248C119.295 85.4733 119.511 86.1764 119.897 86.6504C120.282 87.1243 120.751 87.3613 121.303 87.3613C122.167 87.3613 122.769 86.7936 123.107 85.6582ZM119.318 83.3848H123.115C123.063 82.666 122.91 82.1296 122.654 81.7754C122.285 81.2598 121.813 81.002 121.24 81.002C120.725 81.002 120.285 81.2181 119.92 81.6504C119.555 82.0775 119.355 82.6556 119.318 83.3848ZM131.975 87.0723L132.131 88.3145C131.813 88.3978 131.527 88.4395 131.272 88.4395C130.871 88.4395 130.548 88.3613 130.303 88.2051C130.058 88.0436 129.889 87.8249 129.795 87.5488C129.706 87.2728 129.662 86.7233 129.662 85.9004V81.127H128.818V80.0332H129.662V77.9785L130.811 77.1348V80.0332H131.975V81.127H130.811V85.9785C130.811 86.4264 130.844 86.7155 130.912 86.8457C131.011 87.0332 131.196 87.127 131.467 87.127C131.597 87.127 131.766 87.1087 131.975 87.0723ZM132.631 84.1816C132.631 82.7493 132.93 81.6686 133.529 80.9395C134.134 80.2103 134.897 79.8457 135.818 79.8457C136.725 79.8457 137.482 80.2103 138.092 80.9395C138.701 81.6686 139.006 82.7207 139.006 84.0957C139.006 85.5853 138.706 86.6947 138.107 87.4238C137.509 88.153 136.746 88.5176 135.818 88.5176C134.907 88.5176 134.147 88.153 133.537 87.4238C132.933 86.6895 132.631 85.6087 132.631 84.1816ZM133.811 84.1816C133.811 85.2546 134.006 86.054 134.397 86.5801C134.787 87.1009 135.272 87.3613 135.85 87.3613C136.391 87.3613 136.855 87.0983 137.24 86.5723C137.631 86.041 137.826 85.2441 137.826 84.1816C137.826 83.1139 137.631 82.3197 137.24 81.7988C136.85 81.2728 136.365 81.0098 135.787 81.0098C135.24 81.0098 134.774 81.2728 134.389 81.7988C134.003 82.3249 133.811 83.1191 133.811 84.1816ZM144.147 88.3301V76.877H146.014L148.24 84.9863L148.686 86.6816C148.795 86.2598 148.962 85.6478 149.186 84.8457L151.436 76.877H153.107V88.3301H151.912V78.7441L149.178 88.3301H148.061L145.342 78.5801V88.3301H144.147ZM154.92 91.5254L154.795 90.2051C155.05 90.2884 155.269 90.3301 155.451 90.3301C155.696 90.3301 155.897 90.2806 156.053 90.1816C156.214 90.0827 156.347 89.929 156.451 89.7207C156.488 89.6478 156.639 89.1895 156.904 88.3457L154.318 80.0332H155.561L156.982 84.8379C157.16 85.4368 157.324 86.0775 157.475 86.7598C157.605 86.1139 157.761 85.4837 157.943 84.8691L159.397 80.0332H160.553L157.967 88.4707C157.628 89.5645 157.36 90.2936 157.162 90.6582C156.969 91.028 156.748 91.2936 156.498 91.4551C156.253 91.6165 155.975 91.6973 155.662 91.6973C155.443 91.6973 155.196 91.64 154.92 91.5254ZM163.592 88.3301L167.201 76.877H168.537L172.381 88.3301H170.959L169.865 84.8613H165.943L164.912 88.3301H163.592ZM166.303 83.627H169.482L168.506 80.4551C168.204 79.4811 167.982 78.6895 167.842 78.0801C167.722 78.8145 167.553 79.5436 167.334 80.2676L166.303 83.627ZM173.201 91.5098V80.0332H174.256V81.1113C174.516 80.6634 174.805 80.3405 175.123 80.1426C175.441 79.9447 175.805 79.8457 176.217 79.8457C176.753 79.8457 177.238 80.0046 177.67 80.3223C178.102 80.64 178.449 81.1243 178.709 81.7754C178.975 82.4212 179.107 83.1999 179.107 84.1113C179.107 85.5228 178.811 86.6113 178.217 87.377C177.628 88.1374 176.936 88.5176 176.139 88.5176C175.785 88.5176 175.454 88.4264 175.147 88.2441C174.839 88.0618 174.574 87.804 174.35 87.4707V91.5098H173.201ZM174.24 84.2285C174.24 85.3014 174.42 86.0931 174.779 86.6035C175.139 87.1087 175.574 87.3613 176.084 87.3613C176.574 87.3613 177.003 87.0983 177.373 86.5723C177.743 86.0462 177.928 85.2337 177.928 84.1348C177.928 83.0514 177.748 82.2493 177.389 81.7285C177.029 81.2077 176.592 80.9473 176.076 80.9473C175.613 80.9473 175.191 81.2285 174.811 81.791C174.43 82.3483 174.24 83.1608 174.24 84.2285ZM180.498 91.5098V80.0332H181.553V81.1113C181.813 80.6634 182.102 80.3405 182.42 80.1426C182.738 79.9447 183.102 79.8457 183.514 79.8457C184.05 79.8457 184.535 80.0046 184.967 80.3223C185.399 80.64 185.746 81.1243 186.006 81.7754C186.272 82.4212 186.404 83.1999 186.404 84.1113C186.404 85.5228 186.107 86.6113 185.514 87.377C184.925 88.1374 184.232 88.5176 183.436 88.5176C183.081 88.5176 182.751 88.4264 182.443 88.2441C182.136 88.0618 181.871 87.804 181.647 87.4707V91.5098H180.498ZM181.537 84.2285C181.537 85.3014 181.717 86.0931 182.076 86.6035C182.436 87.1087 182.871 87.3613 183.381 87.3613C183.871 87.3613 184.3 87.0983 184.67 86.5723C185.04 86.0462 185.225 85.2337 185.225 84.1348C185.225 83.0514 185.045 82.2493 184.686 81.7285C184.326 81.2077 183.889 80.9473 183.373 80.9473C182.91 80.9473 182.488 81.2285 182.107 81.791C181.727 82.3483 181.537 83.1608 181.537 84.2285ZM187.764 88.3301V76.877H188.912V88.3301H187.764ZM190.717 78.4941V76.877H191.865V78.4941H190.717ZM190.717 88.3301V80.0332H191.865V88.3301H190.717ZM198.1 85.291L199.232 85.4707C199.102 86.4603 198.774 87.2155 198.248 87.7363C197.727 88.2572 197.1 88.5176 196.365 88.5176C195.475 88.5176 194.74 88.153 194.162 87.4238C193.589 86.6895 193.303 85.6061 193.303 84.1738C193.303 82.7311 193.592 81.6504 194.17 80.9316C194.753 80.2077 195.501 79.8457 196.412 79.8457C197.115 79.8457 197.706 80.0645 198.186 80.502C198.67 80.9395 198.98 81.5957 199.115 82.4707L197.998 82.6816C197.889 82.1191 197.699 81.6999 197.428 81.4238C197.157 81.1426 196.831 81.002 196.451 81.002C195.884 81.002 195.412 81.2546 195.037 81.7598C194.667 82.2598 194.482 83.0566 194.482 84.1504C194.482 85.2806 194.66 86.0983 195.014 86.6035C195.373 87.1087 195.831 87.3613 196.389 87.3613C196.826 87.3613 197.199 87.1947 197.506 86.8613C197.818 86.5228 198.016 85.9993 198.1 85.291ZM204.639 87.3066C204.253 87.7077 203.852 88.0098 203.436 88.2129C203.019 88.416 202.587 88.5176 202.139 88.5176C201.43 88.5176 200.865 88.304 200.443 87.877C200.022 87.4499 199.811 86.8743 199.811 86.1504C199.811 85.6712 199.91 85.2467 200.107 84.877C200.305 84.5072 200.576 84.2181 200.92 84.0098C201.264 83.8014 201.785 83.6478 202.482 83.5488C203.42 83.4134 204.107 83.252 204.545 83.0645L204.553 82.7051C204.553 82.1374 204.451 81.7389 204.248 81.5098C203.962 81.1764 203.522 81.0098 202.928 81.0098C202.391 81.0098 201.99 81.1217 201.725 81.3457C201.459 81.5645 201.264 81.9785 201.139 82.5879L200.006 82.4004C200.167 81.5098 200.493 80.8613 200.982 80.4551C201.477 80.0488 202.183 79.8457 203.1 79.8457C203.813 79.8457 204.373 79.9811 204.779 80.252C205.186 80.5176 205.441 80.8483 205.545 81.2441C205.654 81.64 205.709 82.2181 205.709 82.9785V84.8535C205.709 86.166 205.732 86.9941 205.779 87.3379C205.831 87.6764 205.93 88.0072 206.076 88.3301H204.873C204.753 88.0436 204.675 87.7025 204.639 87.3066ZM204.545 84.166C204.123 84.3743 203.496 84.5514 202.662 84.6973C202.178 84.7806 201.839 84.877 201.647 84.9863C201.454 85.0905 201.303 85.2415 201.193 85.4395C201.089 85.6322 201.037 85.8561 201.037 86.1113C201.037 86.5072 201.16 86.8249 201.404 87.0645C201.649 87.2988 201.988 87.416 202.42 87.416C202.831 87.416 203.204 87.3092 203.537 87.0957C203.876 86.8822 204.128 86.5983 204.295 86.2441C204.462 85.8848 204.545 85.3639 204.545 84.6816V84.166ZM210.068 87.0723L210.225 88.3145C209.907 88.3978 209.621 88.4395 209.365 88.4395C208.964 88.4395 208.641 88.3613 208.397 88.2051C208.152 88.0436 207.982 87.8249 207.889 87.5488C207.8 87.2728 207.756 86.7233 207.756 85.9004V81.127H206.912V80.0332H207.756V77.9785L208.904 77.1348V80.0332H210.068V81.127H208.904V85.9785C208.904 86.4264 208.938 86.7155 209.006 86.8457C209.105 87.0332 209.29 87.127 209.561 87.127C209.691 87.127 209.86 87.1087 210.068 87.0723ZM211.154 78.4941V76.877H212.303V78.4941H211.154ZM211.154 88.3301V80.0332H212.303V88.3301H211.154ZM213.647 84.1816C213.647 82.7493 213.946 81.6686 214.545 80.9395C215.149 80.2103 215.912 79.8457 216.834 79.8457C217.74 79.8457 218.498 80.2103 219.107 80.9395C219.717 81.6686 220.022 82.7207 220.022 84.0957C220.022 85.5853 219.722 86.6947 219.123 87.4238C218.524 88.153 217.761 88.5176 216.834 88.5176C215.923 88.5176 215.162 88.153 214.553 87.4238C213.949 86.6895 213.647 85.6087 213.647 84.1816ZM214.826 84.1816C214.826 85.2546 215.022 86.054 215.412 86.5801C215.803 87.1009 216.287 87.3613 216.865 87.3613C217.407 87.3613 217.871 87.0983 218.256 86.5723C218.647 86.041 218.842 85.2441 218.842 84.1816C218.842 83.1139 218.647 82.3197 218.256 81.7988C217.865 81.2728 217.381 81.0098 216.803 81.0098C216.256 81.0098 215.79 81.2728 215.404 81.7988C215.019 82.3249 214.826 83.1191 214.826 84.1816ZM221.373 88.3301V80.0332H222.412V81.2129C222.662 80.7546 222.967 80.4134 223.326 80.1895C223.691 79.9603 224.107 79.8457 224.576 79.8457C224.941 79.8457 225.277 79.9186 225.584 80.0645C225.897 80.2051 226.147 80.3926 226.334 80.627C226.527 80.8561 226.67 81.1556 226.764 81.5254C226.857 81.8952 226.904 82.4629 226.904 83.2285V88.3301H225.748V83.2832C225.748 82.6738 225.696 82.2285 225.592 81.9473C225.488 81.666 225.324 81.4499 225.1 81.2988C224.881 81.1426 224.626 81.0645 224.334 81.0645C223.782 81.0645 223.342 81.2702 223.014 81.6816C222.686 82.0931 222.522 82.7988 222.522 83.7988V88.3301H221.373Z" fill="black" fill-opacity="0.65"/>
<g clip-path="url(#clip1_1_147)">
<path d="M130.829 143.737L131.845 144.048C131.62 145.094 131.227 145.874 130.664 146.391C130.105 146.903 129.424 147.159 128.62 147.159C127.913 147.159 127.308 146.987 126.805 146.645C126.305 146.298 125.895 145.743 125.573 144.982C125.256 144.22 125.097 143.321 125.097 142.284C125.097 141.26 125.256 140.394 125.573 139.688C125.895 138.977 126.329 138.441 126.874 138.082C127.42 137.718 128.03 137.536 128.703 137.536C129.439 137.536 130.072 137.766 130.6 138.228C131.129 138.685 131.5 139.358 131.711 140.246L130.721 140.532C130.383 139.237 129.703 138.589 128.684 138.589C128.176 138.589 127.736 138.721 127.363 138.983C126.991 139.241 126.692 139.645 126.468 140.195C126.248 140.746 126.138 141.442 126.138 142.284C126.138 143.558 126.362 144.514 126.811 145.153C127.26 145.788 127.856 146.105 128.601 146.105C129.151 146.105 129.625 145.91 130.023 145.521C130.425 145.128 130.694 144.533 130.829 143.737ZM133.119 143.63C133.119 142.466 133.362 141.588 133.849 140.995C134.34 140.403 134.96 140.107 135.709 140.107C136.445 140.107 137.061 140.403 137.556 140.995C138.051 141.588 138.299 142.443 138.299 143.56C138.299 144.77 138.055 145.671 137.569 146.264C137.082 146.856 136.462 147.152 135.709 147.152C134.968 147.152 134.35 146.856 133.855 146.264C133.364 145.667 133.119 144.789 133.119 143.63ZM134.078 143.63C134.078 144.501 134.236 145.151 134.554 145.578C134.871 146.001 135.265 146.213 135.734 146.213C136.174 146.213 136.551 145.999 136.864 145.572C137.182 145.14 137.34 144.493 137.34 143.63C137.34 142.762 137.182 142.117 136.864 141.693C136.547 141.266 136.153 141.052 135.684 141.052C135.239 141.052 134.86 141.266 134.547 141.693C134.234 142.121 134.078 142.766 134.078 143.63ZM139.897 147V140.259H140.741V141.217C140.944 140.845 141.192 140.568 141.484 140.386C141.78 140.2 142.119 140.107 142.499 140.107C142.796 140.107 143.069 140.166 143.318 140.284C143.572 140.399 143.775 140.551 143.928 140.741C144.084 140.928 144.201 141.171 144.277 141.471C144.353 141.772 144.391 142.233 144.391 142.855V147H143.452V142.9C143.452 142.404 143.409 142.043 143.325 141.814C143.24 141.586 143.107 141.41 142.925 141.287C142.747 141.16 142.54 141.097 142.303 141.097C141.854 141.097 141.496 141.264 141.23 141.598C140.963 141.933 140.83 142.506 140.83 143.318V147H139.897ZM148.414 145.978L148.541 146.987C148.283 147.055 148.05 147.089 147.843 147.089C147.517 147.089 147.254 147.026 147.056 146.899C146.857 146.767 146.719 146.59 146.643 146.365C146.571 146.141 146.535 145.695 146.535 145.026V141.148H145.85V140.259H146.535V138.589L147.468 137.904V140.259H148.414V141.148H147.468V145.089C147.468 145.453 147.496 145.688 147.551 145.794C147.631 145.946 147.781 146.023 148.001 146.023C148.107 146.023 148.245 146.008 148.414 145.978ZM149.796 139.008V137.694H150.729V139.008H149.796ZM149.796 147V140.259H150.729V147H149.796ZM152.67 147V140.259H153.515V141.217C153.718 140.845 153.965 140.568 154.257 140.386C154.553 140.2 154.892 140.107 155.273 140.107C155.569 140.107 155.842 140.166 156.092 140.284C156.346 140.399 156.549 140.551 156.701 140.741C156.858 140.928 156.974 141.171 157.05 141.471C157.126 141.772 157.164 142.233 157.164 142.855V147H156.225V142.9C156.225 142.404 156.183 142.043 156.098 141.814C156.013 141.586 155.88 141.41 155.698 141.287C155.52 141.16 155.313 141.097 155.076 141.097C154.628 141.097 154.27 141.264 154.003 141.598C153.737 141.933 153.603 142.506 153.603 143.318V147H152.67ZM162.724 147V146.01C162.508 146.391 162.254 146.676 161.962 146.867C161.67 147.057 161.34 147.152 160.972 147.152C160.536 147.152 160.163 147.036 159.854 146.803C159.545 146.566 159.338 146.268 159.232 145.908C159.131 145.549 159.08 145.058 159.08 144.436V140.259H160.013V143.998C160.013 144.692 160.047 145.157 160.115 145.394C160.187 145.627 160.316 145.815 160.502 145.959C160.692 146.099 160.908 146.169 161.149 146.169C161.598 146.169 161.966 145.984 162.254 145.616C162.499 145.299 162.622 144.717 162.622 143.871V140.259H163.561V147H162.724ZM169.311 144.829L170.276 144.975C170.115 145.695 169.823 146.238 169.4 146.607C168.981 146.97 168.46 147.152 167.838 147.152C167.055 147.152 166.421 146.856 165.934 146.264C165.452 145.667 165.21 144.808 165.21 143.687C165.21 142.523 165.454 141.636 165.94 141.027C166.431 140.413 167.051 140.107 167.8 140.107C168.515 140.107 169.112 140.407 169.59 141.008C170.068 141.609 170.308 142.478 170.308 143.617L170.301 143.922H166.175C166.213 144.679 166.389 145.25 166.702 145.635C167.015 146.02 167.396 146.213 167.845 146.213C168.547 146.213 169.036 145.752 169.311 144.829ZM166.232 142.982H169.317C169.275 142.398 169.15 141.962 168.943 141.674C168.642 141.255 168.259 141.046 167.794 141.046C167.375 141.046 167.017 141.222 166.721 141.573C166.425 141.92 166.262 142.39 166.232 142.982ZM176.443 147L174.754 140.259H175.725L176.601 144.15L176.925 145.597L177.217 144.207L178.093 140.259H179.058L179.883 144.169L180.163 145.458L180.48 144.156L181.426 140.259H182.34L180.607 147H179.636L178.753 142.963L178.544 141.814L177.427 147H176.443ZM183.621 139.008V137.694H184.554V139.008H183.621ZM183.621 147V140.259H184.554V147H183.621ZM188.583 145.978L188.71 146.987C188.452 147.055 188.219 147.089 188.012 147.089C187.686 147.089 187.423 147.026 187.225 146.899C187.026 146.767 186.888 146.59 186.812 146.365C186.74 146.141 186.704 145.695 186.704 145.026V141.148H186.018V140.259H186.704V138.589L187.637 137.904V140.259H188.583V141.148H187.637V145.089C187.637 145.453 187.665 145.688 187.72 145.794C187.8 145.946 187.95 146.023 188.17 146.023C188.276 146.023 188.414 146.008 188.583 145.978ZM189.965 147V137.694H190.898V141.033C191.118 140.724 191.366 140.494 191.641 140.341C191.92 140.185 192.227 140.107 192.561 140.107C193.15 140.107 193.613 140.295 193.952 140.672C194.294 141.044 194.466 141.729 194.466 142.728V147H193.533V142.728C193.533 142.144 193.429 141.725 193.222 141.471C193.014 141.217 192.729 141.09 192.365 141.09C191.958 141.09 191.611 141.253 191.324 141.579C191.04 141.905 190.898 142.483 190.898 143.312V147H189.965ZM203.597 143.35V142.258L206.828 142.252V145.705C206.333 146.188 205.821 146.552 205.292 146.797C204.763 147.038 204.219 147.159 203.661 147.159C202.916 147.159 202.251 146.973 201.667 146.6C201.083 146.228 200.62 145.684 200.277 144.969C199.939 144.254 199.769 143.395 199.769 142.392C199.769 141.376 199.941 140.492 200.284 139.738C200.626 138.985 201.075 138.431 201.629 138.075C202.184 137.716 202.84 137.536 203.597 137.536C204.156 137.536 204.644 137.639 205.063 137.847C205.482 138.054 205.827 138.348 206.098 138.729C206.369 139.11 206.572 139.633 206.707 140.297L205.8 140.602C205.677 140.077 205.523 139.686 205.336 139.427C205.15 139.165 204.905 138.96 204.6 138.812C204.295 138.664 203.953 138.589 203.572 138.589C203.017 138.589 202.539 138.725 202.137 138.996C201.739 139.262 201.418 139.679 201.172 140.246C200.931 140.813 200.81 141.505 200.81 142.322C200.81 143.566 201.071 144.499 201.591 145.121C202.112 145.739 202.789 146.048 203.622 146.048C204.02 146.048 204.427 145.953 204.841 145.762C205.26 145.572 205.592 145.345 205.838 145.083V143.35H203.597ZM208.318 143.63C208.318 142.466 208.562 141.588 209.048 140.995C209.539 140.403 210.159 140.107 210.908 140.107C211.644 140.107 212.26 140.403 212.755 140.995C213.25 141.588 213.498 142.443 213.498 143.56C213.498 144.77 213.255 145.671 212.768 146.264C212.281 146.856 211.661 147.152 210.908 147.152C210.168 147.152 209.55 146.856 209.055 146.264C208.564 145.667 208.318 144.789 208.318 143.63ZM209.277 143.63C209.277 144.501 209.435 145.151 209.753 145.578C210.07 146.001 210.464 146.213 210.934 146.213C211.374 146.213 211.75 145.999 212.063 145.572C212.381 145.14 212.539 144.493 212.539 143.63C212.539 142.762 212.381 142.117 212.063 141.693C211.746 141.266 211.352 141.052 210.883 141.052C210.438 141.052 210.06 141.266 209.746 141.693C209.433 142.121 209.277 142.766 209.277 143.63ZM214.747 143.63C214.747 142.466 214.99 141.588 215.477 140.995C215.968 140.403 216.588 140.107 217.337 140.107C218.073 140.107 218.689 140.403 219.184 140.995C219.679 141.588 219.927 142.443 219.927 143.56C219.927 144.77 219.683 145.671 219.197 146.264C218.71 146.856 218.09 147.152 217.337 147.152C216.596 147.152 215.978 146.856 215.483 146.264C214.992 145.667 214.747 144.789 214.747 143.63ZM215.705 143.63C215.705 144.501 215.864 145.151 216.182 145.578C216.499 146.001 216.892 146.213 217.362 146.213C217.802 146.213 218.179 145.999 218.492 145.572C218.809 145.14 218.968 144.493 218.968 143.63C218.968 142.762 218.809 142.117 218.492 141.693C218.175 141.266 217.781 141.052 217.311 141.052C216.867 141.052 216.488 141.266 216.175 141.693C215.862 142.121 215.705 142.766 215.705 143.63ZM221.347 147.559L222.261 147.724C222.303 148.083 222.43 148.35 222.642 148.524C222.854 148.701 223.148 148.79 223.524 148.79C223.935 148.79 224.261 148.691 224.502 148.492C224.747 148.297 224.914 148.005 225.003 147.616C225.058 147.379 225.086 146.88 225.086 146.118C224.883 146.41 224.654 146.63 224.4 146.778C224.146 146.926 223.865 147 223.556 147C222.896 147 222.348 146.721 221.912 146.162C221.413 145.519 221.163 144.658 221.163 143.579C221.163 142.855 221.273 142.222 221.493 141.681C221.713 141.139 222.001 140.741 222.356 140.487C222.716 140.234 223.118 140.107 223.562 140.107C223.888 140.107 224.184 140.187 224.451 140.348C224.722 140.509 224.961 140.75 225.168 141.071V140.259H226.032V146.086C226.032 147.123 225.947 147.861 225.778 148.301C225.608 148.746 225.331 149.095 224.946 149.349C224.561 149.607 224.098 149.736 223.556 149.736C222.841 149.736 222.291 149.543 221.906 149.158C221.521 148.773 221.334 148.24 221.347 147.559ZM222.128 143.509C222.128 144.393 222.274 145.039 222.566 145.445C222.858 145.851 223.215 146.054 223.639 146.054C224.062 146.054 224.421 145.855 224.718 145.458C225.014 145.06 225.162 144.427 225.162 143.56C225.162 142.713 225.01 142.085 224.705 141.674C224.4 141.26 224.03 141.052 223.594 141.052C223.205 141.052 222.862 141.26 222.566 141.674C222.274 142.085 222.128 142.696 222.128 143.509ZM227.928 147V137.694H228.861V147H227.928ZM234.611 144.829L235.576 144.975C235.415 145.695 235.123 146.238 234.7 146.607C234.281 146.97 233.76 147.152 233.138 147.152C232.355 147.152 231.72 146.856 231.234 146.264C230.751 145.667 230.51 144.808 230.51 143.687C230.51 142.523 230.753 141.636 231.24 141.027C231.731 140.413 232.351 140.107 233.1 140.107C233.815 140.107 234.412 140.407 234.89 141.008C235.368 141.609 235.607 142.478 235.607 143.617L235.601 143.922H231.475C231.513 144.679 231.689 145.25 232.002 145.635C232.315 146.02 232.696 146.213 233.144 146.213C233.847 146.213 234.336 145.752 234.611 144.829ZM231.532 142.982H234.617C234.575 142.398 234.45 141.962 234.243 141.674C233.942 141.255 233.559 141.046 233.094 141.046C232.675 141.046 232.317 141.222 232.021 141.573C231.725 141.92 231.562 142.39 231.532 142.982Z" fill="black"/>
</g>
<g clip-path="url(#clip2_1_147)">
<g clip-path="url(#clip3_1_147)">
<path d="M79.5567 142.884C79.5567 142.391 79.5167 141.895 79.4313 141.409H72.586V144.204H76.506C76.3433 145.105 75.8207 145.903 75.0553 146.409V148.223H77.394C78.7673 146.959 79.5567 145.092 79.5567 142.884Z" fill="#4285F4"/>
<path d="M72.586 149.975C74.5433 149.975 76.194 149.332 77.3967 148.223L75.058 146.409C74.4073 146.852 73.5673 147.103 72.5887 147.103C70.6953 147.103 69.09 145.825 68.514 144.108H66.1007V145.977C67.3327 148.428 69.842 149.975 72.586 149.975Z" fill="#34A853"/>
<path d="M68.5113 144.108C68.2073 143.207 68.2073 142.231 68.5113 141.329V139.46H66.1007C65.0713 141.511 65.0713 143.927 66.1007 145.977L68.5113 144.108Z" fill="#FBBC04"/>
<path d="M72.586 138.332C73.6207 138.316 74.6207 138.705 75.37 139.42L77.442 137.348C76.13 136.116 74.3887 135.439 72.586 135.46C69.842 135.46 67.3327 137.007 66.1007 139.46L68.5113 141.329C69.0847 139.609 70.6927 138.332 72.586 138.332Z" fill="#EA4335"/>
</g>
</g>
<rect x="61.17" y="125.17" width="333.67" height="36.58" rx="5.5" stroke="black" stroke-opacity="0.08"/>
<rect x="60.67" y="202.69" width="145.55" height="1" fill="black" fill-opacity="0.16"/>
<path d="M222.556 204.209C222.556 203.046 222.8 202.168 223.286 201.575C223.777 200.983 224.397 200.686 225.146 200.686C225.883 200.686 226.498 200.983 226.993 201.575C227.489 202.168 227.736 203.022 227.736 204.14C227.736 205.35 227.493 206.251 227.006 206.844C226.519 207.436 225.9 207.732 225.146 207.732C224.406 207.732 223.788 207.436 223.293 206.844C222.802 206.247 222.556 205.369 222.556 204.209ZM223.515 204.209C223.515 205.081 223.674 205.731 223.991 206.158C224.308 206.581 224.702 206.793 225.172 206.793C225.612 206.793 225.988 206.579 226.302 206.152C226.619 205.72 226.778 205.073 226.778 204.209C226.778 203.342 226.619 202.696 226.302 202.273C225.984 201.846 225.591 201.632 225.121 201.632C224.677 201.632 224.298 201.846 223.985 202.273C223.671 202.701 223.515 203.346 223.515 204.209ZM228.834 207.58V200.839H229.678V201.861C229.894 201.387 230.091 201.074 230.269 200.921C230.451 200.765 230.654 200.686 230.878 200.686C231.191 200.686 231.511 200.809 231.837 201.055L231.519 202.115C231.287 201.95 231.06 201.867 230.84 201.867C230.641 201.867 230.459 201.937 230.294 202.077C230.129 202.216 230.013 202.411 229.945 202.661C229.827 203.096 229.767 203.56 229.767 204.051V207.58H228.834Z" fill="black" fill-opacity="0.65"/>
<rect x="249.78" y="202.69" width="145.55" height="1" fill="black" fill-opacity="0.16"/>
<path d="M61.5142 257.46V248.154H67.0303V249.253H62.5235V252.103H66.7447V253.194H62.5235V256.362H67.2081V257.46H61.5142ZM68.4776 257.46V250.719H69.3155V251.665C69.5017 251.313 69.7408 251.043 70.0328 250.852C70.3248 250.662 70.6443 250.567 70.9913 250.567C71.3806 250.567 71.7086 250.668 71.9752 250.871C72.246 251.07 72.4386 251.362 72.5528 251.747C72.7729 251.354 73.0247 251.06 73.3082 250.865C73.5959 250.666 73.9133 250.567 74.2603 250.567C74.7893 250.567 75.2061 250.746 75.5108 251.106C75.8155 251.466 75.9678 252.041 75.9678 252.833V257.46H75.0347V253.214C75.0347 252.731 74.9988 252.39 74.9268 252.192C74.8591 251.988 74.747 251.832 74.5904 251.722C74.4338 251.612 74.2582 251.557 74.0636 251.557C73.6615 251.557 73.3336 251.718 73.0797 252.039C72.8258 252.357 72.6988 252.858 72.6988 253.544V257.46H71.7594V253.08C71.7594 252.522 71.6726 252.128 71.4991 251.9C71.3298 251.671 71.095 251.557 70.7945 251.557C70.3671 251.557 70.0286 251.73 69.7789 252.077C69.5334 252.42 69.4107 253.048 69.4107 253.963V257.46H68.4776ZM80.9571 256.629C80.644 256.954 80.3181 257.2 79.9796 257.365C79.641 257.53 79.2898 257.612 78.9259 257.612C78.3503 257.612 77.8912 257.439 77.5484 257.092C77.2056 256.745 77.0343 256.277 77.0343 255.689C77.0343 255.3 77.1147 254.955 77.2755 254.654C77.4363 254.354 77.6563 254.119 77.9356 253.95C78.2149 253.781 78.6381 253.656 79.2052 253.575C79.9669 253.465 80.5255 253.334 80.8809 253.182L80.8873 252.89C80.8873 252.429 80.8048 252.105 80.6397 251.919C80.407 251.648 80.0494 251.512 79.567 251.512C79.1311 251.512 78.8053 251.603 78.5894 251.785C78.3736 251.963 78.2149 252.299 78.1134 252.795L77.1929 252.642C77.3241 251.919 77.5886 251.392 77.9864 251.062C78.3884 250.732 78.9618 250.567 79.7066 250.567C80.2864 250.567 80.7413 250.677 81.0714 250.897C81.4014 251.112 81.6088 251.381 81.6934 251.703C81.7823 252.024 81.8267 252.494 81.8267 253.112V254.635C81.8267 255.702 81.8458 256.375 81.8839 256.654C81.9262 256.929 82.0066 257.198 82.1251 257.46H81.1475C81.0502 257.227 80.9867 256.95 80.9571 256.629ZM80.8809 254.077C80.5382 254.246 80.0282 254.39 79.3512 254.508C78.9576 254.576 78.6825 254.654 78.526 254.743C78.3694 254.828 78.2467 254.951 78.1578 255.111C78.0732 255.268 78.0308 255.45 78.0308 255.657C78.0308 255.979 78.1303 256.237 78.3292 256.432C78.5281 256.622 78.8031 256.717 79.1544 256.717C79.4887 256.717 79.7913 256.631 80.0621 256.457C80.3372 256.284 80.5424 256.053 80.6778 255.765C80.8132 255.473 80.8809 255.05 80.8809 254.496V254.077ZM83.2803 249.468V248.154H84.2135V249.468H83.2803ZM83.2803 257.46V250.719H84.2135V257.46H83.2803ZM85.629 257.46V248.154H86.5621V257.46H85.629ZM94.6046 256.629C94.2914 256.954 93.9656 257.2 93.627 257.365C93.2885 257.53 92.9373 257.612 92.5733 257.612C91.9978 257.612 91.5387 257.439 91.1959 257.092C90.8531 256.745 90.6817 256.277 90.6817 255.689C90.6817 255.3 90.7621 254.955 90.9229 254.654C91.0837 254.354 91.3038 254.119 91.5831 253.95C91.8624 253.781 92.2856 253.656 92.8526 253.575C93.6143 253.465 94.1729 253.334 94.5284 253.182L94.5347 252.89C94.5347 252.429 94.4522 252.105 94.2872 251.919C94.0544 251.648 93.6969 251.512 93.2144 251.512C92.7786 251.512 92.4527 251.603 92.2369 251.785C92.0211 251.963 91.8624 252.299 91.7608 252.795L90.8404 252.642C90.9716 251.919 91.2361 251.392 91.6339 251.062C92.0359 250.732 92.6093 250.567 93.3541 250.567C93.9338 250.567 94.3887 250.677 94.7188 250.897C95.0489 251.112 95.2563 251.381 95.3409 251.703C95.4298 252.024 95.4742 252.494 95.4742 253.112V254.635C95.4742 255.702 95.4932 256.375 95.5313 256.654C95.5736 256.929 95.654 257.198 95.7725 257.46H94.795C94.6977 257.227 94.6342 256.95 94.6046 256.629ZM94.5284 254.077C94.1856 254.246 93.6757 254.39 92.9986 254.508C92.6051 254.576 92.33 254.654 92.1734 254.743C92.0168 254.828 91.8941 254.951 91.8053 255.111C91.7206 255.268 91.6783 255.45 91.6783 255.657C91.6783 255.979 91.7777 256.237 91.9766 256.432C92.1755 256.622 92.4506 256.717 92.8018 256.717C93.1361 256.717 93.4387 256.631 93.7095 256.457C93.9846 256.284 94.1899 256.053 94.3253 255.765C94.4607 255.473 94.5284 255.05 94.5284 254.496V254.077ZM100.514 257.46V256.609C100.345 256.935 100.127 257.185 99.8604 257.359C99.5938 257.528 99.3061 257.612 98.9971 257.612C98.3455 257.612 97.7805 257.306 97.3023 256.692C96.8284 256.074 96.5914 255.207 96.5914 254.089C96.5914 253.324 96.6972 252.674 96.9088 252.141C97.1204 251.608 97.4018 251.212 97.753 250.954C98.1085 250.696 98.502 250.567 98.9337 250.567C99.2426 250.567 99.5282 250.649 99.7906 250.814C100.057 250.975 100.277 251.201 100.451 251.493V248.154H101.39V257.46H100.514ZM97.5499 254.096C97.5499 254.968 97.7001 255.615 98.0006 256.038C98.3053 256.461 98.6586 256.673 99.0606 256.673C99.4584 256.673 99.8033 256.47 100.095 256.064C100.387 255.657 100.533 255.044 100.533 254.223C100.533 253.279 100.387 252.591 100.095 252.16C99.8033 251.724 99.4351 251.506 98.9908 251.506C98.5972 251.506 98.2587 251.715 97.9752 252.134C97.6916 252.549 97.5499 253.203 97.5499 254.096ZM106.443 257.46V256.609C106.274 256.935 106.056 257.185 105.789 257.359C105.523 257.528 105.235 257.612 104.926 257.612C104.274 257.612 103.709 257.306 103.231 256.692C102.757 256.074 102.52 255.207 102.52 254.089C102.52 253.324 102.626 252.674 102.837 252.141C103.049 251.608 103.33 251.212 103.682 250.954C104.037 250.696 104.431 250.567 104.862 250.567C105.171 250.567 105.457 250.649 105.719 250.814C105.986 250.975 106.206 251.201 106.379 251.493V248.154H107.319V257.46H106.443ZM103.479 254.096C103.479 254.968 103.629 255.615 103.929 256.038C104.234 256.461 104.587 256.673 104.989 256.673C105.387 256.673 105.732 256.47 106.024 256.064C106.316 255.657 106.462 255.044 106.462 254.223C106.462 253.279 106.316 252.591 106.024 252.16C105.732 251.724 105.364 251.506 104.92 251.506C104.526 251.506 104.187 251.715 103.904 252.134C103.62 252.549 103.479 253.203 103.479 254.096ZM108.785 257.46V250.719H109.629V251.741C109.845 251.267 110.042 250.954 110.22 250.801C110.402 250.645 110.605 250.567 110.829 250.567C111.142 250.567 111.462 250.689 111.788 250.935L111.47 251.995C111.238 251.83 111.011 251.747 110.791 251.747C110.592 251.747 110.41 251.817 110.245 251.957C110.08 252.096 109.964 252.291 109.896 252.541C109.778 252.977 109.718 253.44 109.718 253.931V257.46H108.785ZM116.123 255.289L117.088 255.435C116.927 256.155 116.635 256.698 116.212 257.067C115.793 257.43 115.273 257.612 114.65 257.612C113.868 257.612 113.233 257.316 112.746 256.724C112.264 256.127 112.023 255.268 112.023 254.147C112.023 252.983 112.266 252.096 112.753 251.487C113.243 250.873 113.863 250.567 114.612 250.567C115.328 250.567 115.924 250.867 116.402 251.468C116.881 252.069 117.12 252.938 117.12 254.077L117.113 254.381H112.987C113.025 255.139 113.201 255.71 113.514 256.095C113.827 256.48 114.208 256.673 114.657 256.673C115.359 256.673 115.848 256.212 116.123 255.289ZM113.045 253.442H116.129C116.087 252.858 115.962 252.422 115.755 252.134C115.455 251.715 115.072 251.506 114.606 251.506C114.187 251.506 113.83 251.682 113.533 252.033C113.237 252.38 113.074 252.85 113.045 253.442ZM117.913 255.448L118.84 255.27C118.895 255.744 119.045 256.097 119.291 256.33C119.536 256.559 119.862 256.673 120.268 256.673C120.674 256.673 120.988 256.574 121.208 256.375C121.432 256.172 121.544 255.915 121.544 255.607C121.544 255.34 121.449 255.133 121.258 254.984C121.127 254.883 120.81 254.756 120.306 254.604C119.578 254.379 119.092 254.189 118.846 254.032C118.601 253.876 118.41 253.666 118.275 253.404C118.14 253.142 118.072 252.843 118.072 252.509C118.072 251.933 118.256 251.466 118.624 251.106C118.992 250.746 119.502 250.567 120.154 250.567C120.564 250.567 120.924 250.641 121.233 250.789C121.546 250.937 121.785 251.136 121.95 251.385C122.115 251.635 122.23 251.993 122.293 252.458L121.379 252.61C121.294 251.874 120.894 251.506 120.179 251.506C119.773 251.506 119.47 251.589 119.272 251.754C119.073 251.914 118.973 252.122 118.973 252.376C118.973 252.625 119.068 252.822 119.259 252.966C119.373 253.051 119.712 253.186 120.274 253.372C121.049 253.622 121.55 253.821 121.779 253.969C122.007 254.113 122.185 254.312 122.312 254.566C122.439 254.815 122.503 255.114 122.503 255.461C122.503 256.104 122.297 256.624 121.887 257.022C121.481 257.42 120.924 257.619 120.217 257.619C118.893 257.619 118.125 256.895 117.913 255.448ZM123.245 255.448L124.172 255.27C124.227 255.744 124.377 256.097 124.623 256.33C124.868 256.559 125.194 256.673 125.6 256.673C126.006 256.673 126.32 256.574 126.54 256.375C126.764 256.172 126.876 255.915 126.876 255.607C126.876 255.34 126.781 255.133 126.59 254.984C126.459 254.883 126.142 254.756 125.638 254.604C124.91 254.379 124.424 254.189 124.178 254.032C123.933 253.876 123.742 253.666 123.607 253.404C123.472 253.142 123.404 252.843 123.404 252.509C123.404 251.933 123.588 251.466 123.956 251.106C124.324 250.746 124.834 250.567 125.486 250.567C125.896 250.567 126.256 250.641 126.565 250.789C126.878 250.937 127.117 251.136 127.282 251.385C127.447 251.635 127.562 251.993 127.625 252.458L126.711 252.61C126.626 251.874 126.226 251.506 125.511 251.506C125.105 251.506 124.802 251.589 124.604 251.754C124.405 251.914 124.305 252.122 124.305 252.376C124.305 252.625 124.4 252.822 124.591 252.966C124.705 253.051 125.044 253.186 125.607 253.372C126.381 253.622 126.882 253.821 127.111 253.969C127.339 254.113 127.517 254.312 127.644 254.566C127.771 254.815 127.835 255.114 127.835 255.461C127.835 256.104 127.629 256.624 127.219 257.022C126.813 257.42 126.256 257.619 125.549 257.619C124.225 257.619 123.457 256.895 123.245 255.448Z" fill="black"/>
<rect x="60.67" y="266" width="334.67" height="37.58" rx="6" fill="white"/>
<rect x="61.17" y="266.5" width="333.67" height="36.58" rx="5.5" stroke="black" stroke-opacity="0.16"/>
<rect x="60.67" y="318.91" width="334.67" height="36" rx="6" fill="#103FEF"/>
<path d="M203.118 336.855L204.659 337.344C204.423 338.203 204.029 338.842 203.478 339.261C202.93 339.677 202.233 339.884 201.388 339.884C200.343 339.884 199.483 339.528 198.81 338.815C198.137 338.099 197.8 337.122 197.8 335.883C197.8 334.572 198.139 333.555 198.815 332.832C199.492 332.105 200.382 331.742 201.485 331.742C202.448 331.742 203.23 332.026 203.832 332.596C204.19 332.932 204.459 333.416 204.638 334.046L203.064 334.422C202.971 334.014 202.776 333.691 202.479 333.455C202.185 333.219 201.827 333.101 201.404 333.101C200.821 333.101 200.346 333.31 199.981 333.729C199.619 334.148 199.438 334.826 199.438 335.765C199.438 336.76 199.618 337.469 199.976 337.892C200.334 338.314 200.799 338.525 201.372 338.525C201.795 338.525 202.158 338.391 202.462 338.123C202.767 337.854 202.985 337.431 203.118 336.855ZM206.207 335.861C206.207 335.059 206.326 334.386 206.566 333.842C206.745 333.441 206.989 333.081 207.297 332.762C207.608 332.444 207.949 332.207 208.317 332.053C208.808 331.846 209.374 331.742 210.015 331.742C211.175 331.742 212.102 332.102 212.797 332.821C213.495 333.541 213.844 334.542 213.844 335.824C213.844 337.095 213.499 338.09 212.808 338.81C212.117 339.526 211.193 339.884 210.036 339.884C208.865 339.884 207.934 339.528 207.243 338.815C206.552 338.099 206.207 337.115 206.207 335.861ZM207.845 335.808C207.845 336.699 208.051 337.376 208.462 337.838C208.874 338.296 209.397 338.525 210.031 338.525C210.665 338.525 211.184 338.298 211.588 337.843C211.997 337.385 212.201 336.699 212.201 335.786C212.201 334.884 212.002 334.211 211.604 333.767C211.211 333.323 210.686 333.101 210.031 333.101C209.375 333.101 208.847 333.326 208.446 333.777C208.045 334.225 207.845 334.902 207.845 335.808ZM215.606 339.75V331.876H217.153L220.376 337.134V331.876H221.853V339.75H220.258L217.083 334.615V339.75H215.606ZM225.812 339.75V333.208H223.476V331.876H229.733V333.208H227.402V339.75H225.812ZM231.216 339.75V331.876H232.806V339.75H231.216ZM234.842 339.75V331.876H236.389L239.611 337.134V331.876H241.088V339.75H239.493L236.319 334.615V339.75H234.842ZM243.264 331.876H244.854V336.141C244.854 336.817 244.874 337.256 244.913 337.457C244.981 337.779 245.142 338.038 245.396 338.235C245.654 338.429 246.005 338.525 246.449 338.525C246.9 338.525 247.241 338.434 247.47 338.251C247.699 338.065 247.837 337.838 247.883 337.569C247.93 337.301 247.953 336.855 247.953 336.232V331.876H249.543V336.012C249.543 336.957 249.5 337.625 249.414 338.015C249.328 338.405 249.169 338.735 248.936 339.003C248.707 339.272 248.399 339.487 248.012 339.648C247.625 339.806 247.121 339.884 246.498 339.884C245.746 339.884 245.174 339.798 244.784 339.626C244.397 339.451 244.091 339.225 243.866 338.95C243.64 338.67 243.492 338.379 243.42 338.074C243.316 337.623 243.264 336.957 243.264 336.076V331.876ZM251.724 339.75V331.876H257.562V333.208H253.314V334.954H257.267V336.28H253.314V338.423H257.713V339.75H251.724Z" fill="white"/>
<path d="M61.4635 399.25V389.944H62.4981L66.5098 397.25V389.944H67.4747V399.25H66.44L62.4346 391.938V399.25H61.4635ZM68.6998 395.879C68.6998 394.716 68.9431 393.838 69.4298 393.245C69.9206 392.653 70.5406 392.356 71.2896 392.356C72.026 392.356 72.6417 392.653 73.1368 393.245C73.6319 393.838 73.8795 394.692 73.8795 395.81C73.8795 397.02 73.6361 397.921 73.1495 398.514C72.6628 399.106 72.0429 399.402 71.2896 399.402C70.5491 399.402 69.9312 399.106 69.4361 398.514C68.9452 397.917 68.6998 397.039 68.6998 395.879ZM69.6583 395.879C69.6583 396.751 69.817 397.401 70.1344 397.828C70.4517 398.251 70.8453 398.463 71.315 398.463C71.7551 398.463 72.1317 398.249 72.4449 397.822C72.7623 397.39 72.921 396.743 72.921 395.879C72.921 395.012 72.7623 394.367 72.4449 393.943C72.1275 393.516 71.734 393.302 71.2642 393.302C70.8199 393.302 70.4412 393.516 70.128 393.943C69.8149 394.371 69.6583 395.016 69.6583 395.879ZM81.5538 398.418C81.2406 398.744 80.9148 398.99 80.5762 399.155C80.2377 399.32 79.8865 399.402 79.5225 399.402C78.947 399.402 78.4879 399.229 78.1451 398.882C77.8023 398.535 77.6309 398.067 77.6309 397.479C77.6309 397.09 77.7113 396.745 77.8721 396.444C78.033 396.144 78.253 395.909 78.5323 395.74C78.8116 395.57 79.2348 395.446 79.8018 395.365C80.5636 395.255 81.1221 395.124 81.4776 394.972L81.484 394.68C81.484 394.218 81.4014 393.895 81.2364 393.708C81.0037 393.438 80.6461 393.302 80.1637 393.302C79.7278 393.302 79.4019 393.393 79.1861 393.575C78.9703 393.753 78.8116 394.089 78.71 394.584L77.7896 394.432C77.9208 393.708 78.1853 393.182 78.5831 392.852C78.9851 392.521 79.5585 392.356 80.3033 392.356C80.8831 392.356 81.338 392.466 81.668 392.687C81.9981 392.902 82.2055 393.171 82.2901 393.493C82.379 393.814 82.4234 394.284 82.4234 394.902V396.425C82.4234 397.492 82.4425 398.165 82.4805 398.444C82.5229 398.719 82.6033 398.988 82.7218 399.25H81.7442C81.6469 399.017 81.5834 398.74 81.5538 398.418ZM81.4776 395.867C81.1348 396.036 80.6249 396.18 79.9478 396.298C79.5543 396.366 79.2792 396.444 79.1226 396.533C78.9661 396.618 78.8433 396.741 78.7545 396.901C78.6698 397.058 78.6275 397.24 78.6275 397.447C78.6275 397.769 78.727 398.027 78.9259 398.222C79.1248 398.412 79.3998 398.507 79.7511 398.507C80.0854 398.507 80.3879 398.421 80.6588 398.247C80.9338 398.074 81.1391 397.843 81.2745 397.555C81.4099 397.263 81.4776 396.84 81.4776 396.286V395.867ZM87.5015 396.781L88.422 396.927C88.3162 397.731 88.0496 398.344 87.6221 398.768C87.199 399.191 86.689 399.402 86.0924 399.402C85.3687 399.402 84.772 399.106 84.3023 398.514C83.8368 397.917 83.6041 397.037 83.6041 395.873C83.6041 394.701 83.8389 393.823 84.3087 393.239C84.7826 392.651 85.3899 392.356 86.1304 392.356C86.7017 392.356 87.182 392.534 87.5714 392.89C87.9649 393.245 88.2167 393.778 88.3267 394.489L87.419 394.661C87.3302 394.204 87.1757 393.863 86.9556 393.639C86.7356 393.41 86.4711 393.296 86.1622 393.296C85.7009 393.296 85.3179 393.501 85.0133 393.912C84.7128 394.318 84.5626 394.965 84.5626 395.854C84.5626 396.772 84.7065 397.437 84.9942 397.847C85.2862 398.258 85.6586 398.463 86.1114 398.463C86.4669 398.463 86.7694 398.327 87.0191 398.057C87.273 397.782 87.4338 397.356 87.5015 396.781ZM92.8336 396.781L93.754 396.927C93.6482 397.731 93.3816 398.344 92.9542 398.768C92.531 399.191 92.0211 399.402 91.4244 399.402C90.7008 399.402 90.1041 399.106 89.6344 398.514C89.1689 397.917 88.9361 397.037 88.9361 395.873C88.9361 394.701 89.171 393.823 89.6407 393.239C90.1147 392.651 90.7219 392.356 91.4625 392.356C92.0338 392.356 92.5141 392.534 92.9034 392.89C93.297 393.245 93.5487 393.778 93.6588 394.489L92.7511 394.661C92.6622 394.204 92.5077 393.863 92.2877 393.639C92.0676 393.41 91.8031 393.296 91.4942 393.296C91.033 393.296 90.65 393.501 90.3453 393.912C90.0448 394.318 89.8946 394.965 89.8946 395.854C89.8946 396.772 90.0385 397.437 90.3262 397.847C90.6182 398.258 90.9906 398.463 91.4434 398.463C91.7989 398.463 92.1015 398.327 92.3512 398.057C92.6051 397.782 92.7659 397.356 92.8336 396.781ZM94.192 395.879C94.192 394.716 94.4353 393.838 94.922 393.245C95.4128 392.653 96.0328 392.356 96.7818 392.356C97.5181 392.356 98.1339 392.653 98.629 393.245C99.1241 393.838 99.3717 394.692 99.3717 395.81C99.3717 397.02 99.1283 397.921 98.6417 398.514C98.155 399.106 97.5351 399.402 96.7818 399.402C96.0413 399.402 95.4234 399.106 94.9283 398.514C94.4374 397.917 94.192 397.039 94.192 395.879ZM95.1505 395.879C95.1505 396.751 95.3092 397.401 95.6265 397.828C95.9439 398.251 96.3375 398.463 96.8072 398.463C97.2473 398.463 97.6239 398.249 97.9371 397.822C98.2545 397.39 98.4132 396.743 98.4132 395.879C98.4132 395.012 98.2545 394.367 97.9371 393.943C97.6197 393.516 97.2262 393.302 96.7564 393.302C96.3121 393.302 95.9333 393.516 95.6202 393.943C95.307 394.371 95.1505 395.016 95.1505 395.879ZM104.094 399.25V398.26C103.878 398.641 103.625 398.926 103.333 399.117C103.041 399.307 102.711 399.402 102.342 399.402C101.906 399.402 101.534 399.286 101.225 399.053C100.916 398.816 100.709 398.518 100.603 398.158C100.502 397.799 100.451 397.308 100.451 396.686V392.509H101.384V396.248C101.384 396.942 101.418 397.407 101.485 397.644C101.557 397.877 101.686 398.065 101.873 398.209C102.063 398.349 102.279 398.418 102.52 398.418C102.969 398.418 103.337 398.234 103.625 397.866C103.87 397.549 103.993 396.967 103.993 396.121V392.509H104.932V399.25H104.094ZM106.399 399.25V392.509H107.243V393.467C107.446 393.095 107.693 392.818 107.985 392.636C108.282 392.45 108.62 392.356 109.001 392.356C109.297 392.356 109.57 392.416 109.82 392.534C110.074 392.648 110.277 392.801 110.429 392.991C110.586 393.177 110.702 393.421 110.778 393.721C110.855 394.022 110.893 394.483 110.893 395.105V399.25H109.953V395.149C109.953 394.654 109.911 394.292 109.826 394.064C109.742 393.835 109.608 393.66 109.426 393.537C109.249 393.41 109.041 393.347 108.804 393.347C108.356 393.347 107.998 393.514 107.732 393.848C107.465 394.182 107.332 394.756 107.332 395.568V399.25H106.399ZM114.416 398.228L114.543 399.237C114.284 399.305 114.052 399.339 113.844 399.339C113.518 399.339 113.256 399.275 113.057 399.148C112.858 399.017 112.721 398.84 112.645 398.615C112.573 398.391 112.537 397.944 112.537 397.276V393.397H111.851V392.509H112.537V390.839L113.47 390.154V392.509H114.416V393.397H113.47V397.339C113.47 397.703 113.497 397.938 113.552 398.044C113.633 398.196 113.783 398.272 114.003 398.272C114.109 398.272 114.246 398.258 114.416 398.228ZM117.056 396.958L117.044 396.616C117.044 396.002 117.147 395.488 117.355 395.073C117.498 394.785 117.801 394.394 118.262 393.899C118.575 393.565 118.781 393.294 118.878 393.086C118.975 392.875 119.024 392.646 119.024 392.401C119.024 391.935 118.876 391.54 118.58 391.214C118.283 390.888 117.943 390.725 117.558 390.725C117.164 390.725 116.83 390.875 116.555 391.176C116.284 391.476 116.108 391.954 116.028 392.61L115.063 392.471C115.156 391.574 115.421 390.903 115.857 390.458C116.297 390.01 116.862 389.786 117.551 389.786C118.245 389.786 118.823 390.025 119.284 390.503C119.75 390.977 119.982 391.584 119.982 392.325C119.982 392.731 119.906 393.103 119.754 393.442C119.602 393.78 119.297 394.199 118.84 394.699C118.451 395.118 118.207 395.45 118.11 395.695C118.017 395.937 117.964 396.358 117.951 396.958H117.056ZM116.993 399.25V397.949H118.059V399.25H116.993Z" fill="black" fill-opacity="0.65"/>
<path d="M138.152 396.26L139.105 396.159C139.155 396.671 139.27 397.071 139.447 397.358C139.629 397.642 139.887 397.87 140.222 398.044C140.556 398.217 140.933 398.304 141.352 398.304C141.953 398.304 142.418 398.158 142.748 397.866C143.082 397.57 143.25 397.187 143.25 396.717C143.25 396.442 143.188 396.203 143.065 396C142.947 395.793 142.765 395.623 142.52 395.492C142.278 395.361 141.754 395.177 140.945 394.94C140.226 394.728 139.714 394.515 139.409 394.299C139.105 394.083 138.868 393.81 138.698 393.48C138.529 393.146 138.444 392.769 138.444 392.35C138.444 391.597 138.688 390.981 139.174 390.503C139.661 390.025 140.317 389.786 141.142 389.786C141.709 389.786 142.204 389.898 142.628 390.122C143.055 390.346 143.385 390.668 143.618 391.087C143.855 391.506 143.982 391.999 143.999 392.566L143.027 392.655C142.977 392.05 142.795 391.601 142.482 391.309C142.173 391.017 141.737 390.871 141.174 390.871C140.603 390.871 140.167 391 139.866 391.258C139.566 391.512 139.416 391.842 139.416 392.249C139.416 392.625 139.526 392.917 139.746 393.125C139.966 393.332 140.461 393.541 141.231 393.753C141.984 393.96 142.513 394.14 142.818 394.292C143.283 394.529 143.635 394.843 143.872 395.232C144.109 395.617 144.227 396.078 144.227 396.616C144.227 397.149 144.102 397.636 143.853 398.076C143.603 398.512 143.262 398.844 142.831 399.072C142.403 399.301 141.887 399.415 141.282 399.415C140.338 399.415 139.585 399.132 139.022 398.564C138.463 397.997 138.174 397.229 138.152 396.26ZM145.465 391.258V389.944H146.398V391.258H145.465ZM145.465 399.25V392.509H146.398V399.25H145.465ZM147.661 399.809L148.575 399.974C148.618 400.333 148.745 400.6 148.956 400.773C149.168 400.951 149.462 401.04 149.838 401.04C150.249 401.04 150.575 400.941 150.816 400.742C151.061 400.547 151.229 400.255 151.317 399.866C151.372 399.629 151.4 399.129 151.4 398.368C151.197 398.66 150.968 398.88 150.714 399.028C150.461 399.176 150.179 399.25 149.87 399.25C149.21 399.25 148.662 398.971 148.226 398.412C147.727 397.769 147.477 396.908 147.477 395.829C147.477 395.105 147.587 394.472 147.807 393.931C148.027 393.389 148.315 392.991 148.67 392.737C149.03 392.483 149.432 392.356 149.877 392.356C150.202 392.356 150.499 392.437 150.765 392.598C151.036 392.758 151.275 393 151.482 393.321V392.509H152.346V398.336C152.346 399.373 152.261 400.111 152.092 400.551C151.923 400.996 151.645 401.345 151.26 401.599C150.875 401.857 150.412 401.986 149.87 401.986C149.155 401.986 148.605 401.793 148.22 401.408C147.835 401.023 147.648 400.49 147.661 399.809ZM148.442 395.759C148.442 396.643 148.588 397.289 148.88 397.695C149.172 398.101 149.53 398.304 149.953 398.304C150.376 398.304 150.736 398.105 151.032 397.708C151.328 397.31 151.476 396.677 151.476 395.81C151.476 394.963 151.324 394.335 151.019 393.924C150.714 393.51 150.344 393.302 149.908 393.302C149.519 393.302 149.176 393.51 148.88 393.924C148.588 394.335 148.442 394.946 148.442 395.759ZM153.768 399.25V392.509H154.612V393.467C154.815 393.095 155.063 392.818 155.355 392.636C155.651 392.45 155.989 392.356 156.37 392.356C156.666 392.356 156.939 392.416 157.189 392.534C157.443 392.648 157.646 392.801 157.798 392.991C157.955 393.177 158.071 393.421 158.148 393.721C158.224 394.022 158.262 394.483 158.262 395.105V399.25H157.322V395.149C157.322 394.654 157.28 394.292 157.195 394.064C157.111 393.835 156.977 393.66 156.795 393.537C156.618 393.41 156.41 393.347 156.173 393.347C155.725 393.347 155.367 393.514 155.101 393.848C154.834 394.182 154.701 394.756 154.701 395.568V399.25H153.768ZM166.292 399.25V398.26C166.076 398.641 165.822 398.926 165.53 399.117C165.238 399.307 164.908 399.402 164.54 399.402C164.104 399.402 163.731 399.286 163.422 399.053C163.114 398.816 162.906 398.518 162.8 398.158C162.699 397.799 162.648 397.308 162.648 396.686V392.509H163.581V396.248C163.581 396.942 163.615 397.407 163.683 397.644C163.755 397.877 163.884 398.065 164.07 398.209C164.26 398.349 164.476 398.418 164.717 398.418C165.166 398.418 165.534 398.234 165.822 397.866C166.067 397.549 166.19 396.967 166.19 396.121V392.509H167.129V399.25H166.292ZM168.596 401.833V392.509H169.453V393.385C169.664 393.021 169.899 392.758 170.157 392.598C170.415 392.437 170.712 392.356 171.046 392.356C171.482 392.356 171.875 392.486 172.227 392.744C172.578 393.002 172.859 393.395 173.071 393.924C173.287 394.449 173.395 395.082 173.395 395.822C173.395 396.969 173.153 397.854 172.671 398.476C172.193 399.093 171.63 399.402 170.982 399.402C170.695 399.402 170.426 399.328 170.176 399.18C169.927 399.032 169.711 398.823 169.529 398.552V401.833H168.596ZM169.44 395.917C169.44 396.789 169.586 397.432 169.878 397.847C170.17 398.258 170.523 398.463 170.938 398.463C171.336 398.463 171.685 398.249 171.985 397.822C172.286 397.394 172.436 396.734 172.436 395.841C172.436 394.961 172.29 394.309 171.998 393.886C171.706 393.463 171.351 393.251 170.932 393.251C170.555 393.251 170.212 393.48 169.903 393.937C169.594 394.39 169.44 395.05 169.44 395.917Z" fill="#103FEF"/>
<path d="M6.33 196C3.01629 196 0.330002 193.314 0.330002 190V62.07C0.330002 58.7563 3.01629 56.07 6.33 56.07H27.66V196H6.33Z" fill="#103FEF"/>
<path d="M16.0302 178.959L15.9521 178.226C16.346 178.187 16.6536 178.099 16.8749 177.963C17.093 177.823 17.2688 177.624 17.4023 177.367C17.5357 177.11 17.6025 176.82 17.6025 176.498C17.6025 176.036 17.4902 175.678 17.2655 175.424C17.0377 175.167 16.7431 175.038 16.3818 175.038C16.1702 175.038 15.9863 175.085 15.83 175.18C15.6705 175.271 15.5403 175.411 15.4394 175.599C15.3385 175.785 15.1969 176.189 15.0146 176.81C14.8518 177.364 14.6874 177.758 14.5214 177.992C14.3554 178.226 14.1454 178.409 13.8915 178.539C13.6344 178.669 13.3447 178.734 13.0224 178.734C12.443 178.734 11.9693 178.547 11.6015 178.173C11.2336 177.798 11.0497 177.294 11.0497 176.659C11.0497 176.223 11.136 175.842 11.3085 175.516C11.481 175.188 11.7284 174.934 12.0507 174.755C12.373 174.572 12.7522 174.475 13.1884 174.462L13.2568 175.209C12.7913 175.248 12.4462 175.388 12.2216 175.629C11.997 175.866 11.8847 176.202 11.8847 176.635C11.8847 177.074 11.984 177.409 12.1825 177.641C12.3779 177.872 12.6318 177.987 12.9443 177.987C13.234 177.987 13.4586 177.903 13.6181 177.733C13.7776 177.564 13.9387 177.183 14.1015 176.591C14.261 176.011 14.3993 175.604 14.5165 175.37C14.6988 175.012 14.9397 174.742 15.2392 174.559C15.5354 174.377 15.8902 174.286 16.3036 174.286C16.7138 174.286 17.0881 174.382 17.4267 174.574C17.762 174.766 18.0175 175.028 18.1933 175.36C18.3691 175.689 18.457 176.086 18.457 176.552C18.457 177.278 18.2389 177.857 17.8027 178.29C17.3665 178.72 16.7756 178.943 16.0302 178.959ZM16.6601 170.424L16.7724 169.682C17.3258 169.805 17.7441 170.03 18.0273 170.355C18.3072 170.678 18.4472 171.078 18.4472 171.557C18.4472 172.159 18.2193 172.647 17.7636 173.021C17.3046 173.392 16.6438 173.578 15.7812 173.578C14.886 173.578 14.204 173.391 13.7353 173.016C13.2633 172.639 13.0273 172.162 13.0273 171.586C13.0273 171.036 13.2584 170.577 13.7206 170.209C14.1829 169.841 14.8518 169.657 15.7275 169.657L15.9618 169.662V172.836C16.5445 172.807 16.984 172.671 17.2802 172.431C17.5764 172.19 17.7245 171.897 17.7245 171.552C17.7245 171.011 17.3697 170.635 16.6601 170.424ZM15.2392 172.792V170.419C14.79 170.451 14.4547 170.547 14.2333 170.707C13.9111 170.938 13.7499 171.233 13.7499 171.591C13.7499 171.913 13.885 172.188 14.1552 172.416C14.4221 172.644 14.7835 172.769 15.2392 172.792ZM16.4306 165.985L16.5429 165.277C17.1614 165.359 17.6334 165.564 17.9589 165.892C18.2844 166.218 18.4472 166.61 18.4472 167.069C18.4472 167.626 18.2193 168.085 17.7636 168.446C17.3046 168.804 16.6275 168.983 15.7323 168.983C14.8307 168.983 14.1552 168.803 13.706 168.441C13.2535 168.077 13.0273 167.61 13.0273 167.04C13.0273 166.6 13.164 166.231 13.4374 165.932C13.7109 165.629 14.121 165.435 14.6679 165.35L14.7997 166.049C14.4482 166.117 14.1861 166.236 14.0136 166.405C13.8378 166.574 13.7499 166.778 13.7499 167.016C13.7499 167.37 13.9078 167.665 14.2236 167.899C14.5361 168.13 15.0341 168.246 15.7177 168.246C16.4241 168.246 16.9351 168.135 17.2509 167.914C17.5667 167.689 17.7245 167.403 17.7245 167.055C17.7245 166.781 17.6204 166.548 17.412 166.356C17.2004 166.161 16.8733 166.037 16.4306 165.985ZM18.33 161.884H17.5683C17.8613 162.05 18.081 162.245 18.2275 162.47C18.3739 162.694 18.4472 162.948 18.4472 163.231C18.4472 163.567 18.3577 163.853 18.1786 164.091C17.9963 164.328 17.7669 164.488 17.4902 164.569C17.2135 164.647 16.8359 164.686 16.3573 164.686H13.1445V163.969H16.0204C16.5543 163.969 16.9124 163.943 17.0947 163.891C17.2737 163.835 17.4185 163.736 17.5292 163.593C17.6366 163.446 17.6904 163.28 17.6904 163.095C17.6904 162.75 17.5488 162.466 17.2655 162.245C17.0214 162.056 16.5738 161.962 15.9228 161.962H13.1445V161.239H18.33V161.884ZM18.33 160.111H13.1445V159.462H13.9306C13.566 159.296 13.3251 159.144 13.2079 159.008C13.0875 158.868 13.0273 158.711 13.0273 158.539C13.0273 158.298 13.1217 158.052 13.3105 157.802L14.1259 158.046C13.9989 158.225 13.9355 158.399 13.9355 158.568C13.9355 158.721 13.9892 158.861 14.0966 158.988C14.204 159.115 14.3538 159.205 14.5458 159.257C14.8811 159.348 15.2376 159.393 15.6152 159.393H18.33V160.111ZM16.6601 154.467L16.7724 153.724C17.3258 153.848 17.7441 154.073 18.0273 154.398C18.3072 154.721 18.4472 155.121 18.4472 155.599C18.4472 156.202 18.2193 156.69 17.7636 157.064C17.3046 157.435 16.6438 157.621 15.7812 157.621C14.886 157.621 14.204 157.434 13.7353 157.059C13.2633 156.682 13.0273 156.205 13.0273 155.629C13.0273 155.079 13.2584 154.62 13.7206 154.252C14.1829 153.884 14.8518 153.7 15.7275 153.7L15.9618 153.705V156.879C16.5445 156.849 16.984 156.714 17.2802 156.474C17.5764 156.233 17.7245 155.94 17.7245 155.595C17.7245 155.054 17.3697 154.678 16.6601 154.467ZM15.2392 156.835V154.462C14.79 154.494 14.4547 154.59 14.2333 154.75C13.9111 154.981 13.7499 155.276 13.7499 155.634C13.7499 155.956 13.885 156.231 14.1552 156.459C14.4221 156.687 14.7835 156.812 15.2392 156.835ZM18.33 150.057H17.6757C17.9264 150.188 18.1184 150.355 18.2519 150.56C18.3821 150.766 18.4472 150.987 18.4472 151.224C18.4472 151.726 18.2112 152.16 17.7392 152.528C17.2639 152.893 16.5966 153.075 15.7372 153.075C15.148 153.075 14.6484 152.994 14.2382 152.831C13.828 152.668 13.5237 152.452 13.3251 152.182C13.1266 151.908 13.0273 151.605 13.0273 151.273C13.0273 151.036 13.0907 150.816 13.2177 150.614C13.3414 150.409 13.5155 150.24 13.7402 150.106H11.1718V149.384H18.33V150.057ZM15.7421 152.338C16.4127 152.338 16.9107 152.222 17.2363 151.991C17.5618 151.757 17.7245 151.485 17.7245 151.176C17.7245 150.87 17.5683 150.604 17.2558 150.38C16.9433 150.155 16.4713 150.043 15.8398 150.043C15.1139 150.043 14.5849 150.155 14.2529 150.38C13.9176 150.604 13.7499 150.888 13.7499 151.229C13.7499 151.532 13.9111 151.793 14.2333 152.011C14.5523 152.229 15.0553 152.338 15.7421 152.338ZM18.33 145.307V145.975H11.1718V145.258H13.7255C13.4911 145.105 13.317 144.932 13.203 144.74C13.0859 144.545 13.0273 144.328 13.0273 144.091C13.0273 143.759 13.1266 143.458 13.3251 143.187C13.5237 142.914 13.8248 142.696 14.2284 142.533C14.6321 142.37 15.122 142.289 15.6982 142.289C16.5771 142.289 17.2558 142.473 17.7343 142.841C18.2096 143.209 18.4472 143.638 18.4472 144.13C18.4472 144.377 18.3837 144.6 18.2568 144.799C18.1266 144.994 17.9345 145.163 17.6806 145.307H18.33ZM15.6982 145.316C16.2353 145.316 16.6373 145.267 16.9042 145.17C17.1711 145.072 17.3746 144.934 17.5146 144.755C17.6545 144.576 17.7245 144.377 17.7245 144.159C17.7245 143.863 17.5585 143.601 17.2265 143.373C16.8912 143.142 16.3915 143.026 15.7275 143.026C15.0471 143.026 14.5474 143.137 14.2284 143.358C13.9094 143.58 13.7499 143.851 13.7499 144.174C13.7499 144.47 13.9176 144.735 14.2529 144.97C14.5849 145.201 15.0667 145.316 15.6982 145.316ZM20.3271 141.43L19.5019 141.508C19.554 141.348 19.58 141.211 19.58 141.098C19.58 140.945 19.5491 140.819 19.4872 140.722C19.4254 140.621 19.3294 140.538 19.1991 140.473C19.1536 140.45 18.8671 140.355 18.3398 140.189L13.1445 141.806V141.029L16.1474 140.141C16.5217 140.03 16.9221 139.927 17.3486 139.833C16.9449 139.752 16.551 139.654 16.1669 139.54L13.1445 138.632V137.909L18.4179 139.525C19.1015 139.737 19.5572 139.905 19.7851 140.028C20.0162 140.149 20.1822 140.287 20.2831 140.443C20.384 140.596 20.4345 140.77 20.4345 140.966C20.4345 141.102 20.3987 141.257 20.3271 141.43Z" fill="white"/>
<g clip-path="url(#clip4_1_147)">
<path d="M17.7708 98.6883C18.0092 98.9189 18.1983 99.1955 18.3267 99.5013C18.455 99.8071 18.52 100.136 18.5175 100.467C18.5248 100.748 18.4748 101.028 18.3705 101.288C18.2662 101.549 18.1098 101.786 17.9108 101.984C17.4899 102.374 16.9323 102.581 16.3592 102.562C15.0758 102.562 14.2008 101.727 14.2008 100.467C14.1963 100.132 14.2656 99.8002 14.4037 99.4948C14.5418 99.1893 14.7454 98.918 15 98.7L14.0433 97.615C13.6256 97.9824 13.2925 98.436 13.067 98.9446C12.8414 99.4531 12.7287 100.005 12.7367 100.561C12.7367 102.69 14.2067 104.201 16.3708 104.201C16.8497 104.213 17.3263 104.13 17.7729 103.957C18.2195 103.784 18.6273 103.524 18.9725 103.192C19.3027 102.851 19.5619 102.448 19.7352 102.007C19.9084 101.565 19.9922 101.093 19.9817 100.619C20.0005 100.054 19.9002 99.4915 19.6871 98.9678C19.474 98.4442 19.153 97.9713 18.745 97.58L17.765 98.6883H17.7708ZM10.0008 96.6V94.99H19.8708V96.6H10.0008ZM16.9192 87.2083C16.7033 87.185 16.4875 87.1733 16.2717 87.1675C14.23 87.1675 12.7425 88.5091 12.7425 90.58C12.7425 91.5658 13.11 92.4233 13.7458 93.0416C14.4567 93.6939 15.3949 94.0416 16.3592 94.01C18.5467 94.01 19.9875 92.4641 19.9875 90.4225C20.0125 89.8624 19.9069 89.3042 19.6791 88.792C19.4513 88.2797 19.1076 87.8274 18.675 87.4708L17.7417 88.5208L17.695 88.5791C18.1442 88.9408 18.5175 89.5125 18.5175 90.335C18.5403 90.8059 18.3905 91.2689 18.0962 91.6373C17.802 92.0056 17.3835 92.254 16.9192 92.3358V87.2083ZM15.6242 92.3066C15.3111 92.2343 15.0206 92.086 14.7783 91.875C14.3992 91.5425 14.195 91.0583 14.195 90.4925C14.195 89.5708 14.7783 88.9933 15.6242 88.8008V92.3066ZM12.7192 82.1741H14.5275C14.5107 82.3351 14.499 82.4966 14.4925 82.6583C14.4925 83.8833 15.3675 84.5775 16.5225 84.5775H19.8708V86.1816H12.8242V84.5716H13.8917V84.5541C13.1392 84.0116 12.725 83.2125 12.725 82.3666V82.1683L12.7192 82.1741ZM16.9192 78.4175L18.2142 79.5841H19.8708V81.1941H10.0008V79.5841H16.05L12.8417 76.7025V74.7891L15.6767 77.3208L19.865 74.7425V76.5566L16.9133 78.3883V78.4175H16.9192ZM9.84334 108.045L11.5233 109.725C11.5767 109.777 11.6109 109.846 11.6204 109.92C11.6299 109.994 11.6142 110.069 11.5758 110.133C11.0527 111.003 10.8792 112.039 11.0904 113.032C11.3015 114.025 11.8815 114.901 12.7133 115.482C13.348 115.923 14.0965 116.17 14.8685 116.195C15.6405 116.22 16.4033 116.021 17.065 115.622C17.1291 115.584 17.2042 115.568 17.2783 115.578C17.3523 115.587 17.4211 115.622 17.4733 115.675L19.1533 117.355C19.1872 117.389 19.2133 117.429 19.2301 117.474C19.2469 117.518 19.2538 117.566 19.2505 117.614C19.2472 117.661 19.2337 117.708 19.2109 117.75C19.188 117.791 19.1565 117.828 19.1183 117.857C17.7702 118.832 16.1189 119.295 14.4604 119.162C12.8019 119.03 11.2447 118.312 10.0679 117.136C8.89112 115.96 8.1717 114.403 8.03862 112.744C7.90553 111.086 8.36749 109.434 9.34167 108.086C9.3703 108.048 9.4068 108.016 9.4487 107.993C9.4906 107.97 9.53692 107.957 9.5845 107.954C9.63209 107.95 9.67984 107.957 9.7245 107.974C9.76916 107.991 9.80969 108.017 9.84334 108.051V108.045Z" fill="white"/>
<path d="M20.1567 108.045L18.4767 109.725C18.4233 109.777 18.3891 109.846 18.3796 109.92C18.3701 109.994 18.3858 110.069 18.4242 110.133C18.7991 110.757 18.9972 111.471 18.9972 112.198C18.9972 112.926 18.7991 113.64 18.4242 114.263C18.3858 114.327 18.3701 114.403 18.3796 114.477C18.3891 114.551 18.4233 114.619 18.4767 114.672L20.1567 116.358C20.1907 116.391 20.2316 116.417 20.2765 116.433C20.3214 116.449 20.3692 116.456 20.4168 116.452C20.4644 116.448 20.5107 116.434 20.5523 116.411C20.594 116.387 20.6301 116.355 20.6583 116.317C21.529 115.12 21.998 113.678 21.998 112.198C21.998 110.718 21.529 109.277 20.6583 108.08C20.6297 108.042 20.5932 108.01 20.5513 107.987C20.5094 107.965 20.4631 107.951 20.4155 107.948C20.3679 107.945 20.3202 107.951 20.2755 107.968C20.2308 107.985 20.1903 108.011 20.1567 108.045ZM17.0008 112.198C17.0008 111.936 16.9491 111.675 16.8485 111.433C16.748 111.19 16.6006 110.969 16.4148 110.784C16.229 110.598 16.0084 110.45 15.7657 110.35C15.5229 110.249 15.2627 110.198 15 110.198C14.7372 110.198 14.4771 110.249 14.2343 110.35C13.9916 110.45 13.771 110.598 13.5852 110.784C13.3994 110.969 13.252 111.19 13.1515 111.433C13.0509 111.675 12.9992 111.936 12.9992 112.198C12.9992 112.729 13.21 113.238 13.5852 113.613C13.9604 113.988 14.4693 114.199 15 114.199C15.5306 114.199 16.0396 113.988 16.4148 113.613C16.79 113.238 17.0008 112.729 17.0008 112.198Z" fill="white"/>
</g>
<path d="M0.830002 190V62.07C0.830002 59.0324 3.29243 56.57 6.33 56.57H27.16V195.5H6.33C3.29243 195.5 0.830002 193.038 0.830002 190Z" stroke="white" stroke-opacity="0.08"/>
</g>
<defs>
<clipPath id="clip0_1_147">
<rect width="428" height="453" fill="white"/>
</clipPath>
<clipPath id="clip1_1_147">
<rect width="229.33" height="16.25" fill="white" transform="translate(113.33 135.33)"/>
</clipPath>
<clipPath id="clip2_1_147">
<rect width="16" height="16" fill="white" transform="translate(65.33 135.46)"/>
</clipPath>
<clipPath id="clip3_1_147">
<rect width="16" height="16" fill="white" transform="translate(65.33 135.46)"/>
</clipPath>
<clipPath id="clip4_1_147">
<rect width="48" height="14" fill="white" transform="matrix(0 -1 1 0 8 120.74)"/>
</clipPath>
</defs>
</svg>
