<svg width="433" height="472" viewBox="0 0 433 472" fill="none" xmlns="http://www.w3.org/2000/svg">
<g clip-path="url(#clip0_1_150)">
<g filter="url(#filter0_d_1_150)">
<rect x="26" width="400" height="464.5" rx="16" fill="white" shape-rendering="crispEdges"/>
<path d="M61.7227 58.0117L64.5352 57.7383C64.7044 58.6823 65.0462 59.3757 65.5605 59.8184C66.0814 60.2611 66.7812 60.4824 67.6602 60.4824C68.5911 60.4824 69.291 60.2871 69.7598 59.8965C70.235 59.4993 70.4727 59.0371 70.4727 58.5098C70.4727 58.1712 70.3717 57.8848 70.1699 57.6504C69.9746 57.4095 69.6296 57.2012 69.1348 57.0254C68.7962 56.9082 68.0247 56.6999 66.8203 56.4004C65.2708 56.0163 64.1836 55.5443 63.5586 54.9844C62.6797 54.1966 62.2402 53.2363 62.2402 52.1035C62.2402 51.3743 62.4453 50.694 62.8555 50.0625C63.2721 49.4245 63.8678 48.9395 64.6426 48.6074C65.4238 48.2754 66.3646 48.1094 67.4648 48.1094C69.2617 48.1094 70.6126 48.5033 71.5176 49.291C72.429 50.0788 72.9076 51.1302 72.9531 52.4453L70.0625 52.5723C69.9388 51.8366 69.6719 51.3092 69.2617 50.9902C68.8581 50.6647 68.2493 50.502 67.4355 50.502C66.5957 50.502 65.9382 50.6745 65.4629 51.0195C65.1569 51.2409 65.0039 51.5371 65.0039 51.9082C65.0039 52.2467 65.1471 52.5365 65.4336 52.7773C65.7982 53.0833 66.6836 53.4023 68.0898 53.7344C69.4961 54.0664 70.5345 54.4115 71.2051 54.7695C71.8822 55.1211 72.4095 55.6061 72.7871 56.2246C73.1712 56.8366 73.3633 57.5951 73.3633 58.5C73.3633 59.3203 73.1354 60.0885 72.6797 60.8047C72.224 61.5208 71.5794 62.0547 70.7461 62.4062C69.9128 62.7513 68.8743 62.9238 67.6309 62.9238C65.821 62.9238 64.431 62.5072 63.4609 61.6738C62.4909 60.834 61.9115 59.6133 61.7227 58.0117ZM75.7754 50.8926V48.3535H78.5195V50.8926H75.7754ZM75.7754 62.6699V52.2988H78.5195V62.6699H75.7754ZM81.0879 63.3535L84.2227 63.7344C84.2747 64.099 84.3952 64.3496 84.584 64.4863C84.8444 64.6816 85.2546 64.7793 85.8145 64.7793C86.5306 64.7793 87.0677 64.6719 87.4258 64.457C87.6667 64.3138 87.849 64.0827 87.9727 63.7637C88.0573 63.5358 88.0996 63.1159 88.0996 62.5039V60.9902C87.2793 62.11 86.2441 62.6699 84.9941 62.6699C83.6009 62.6699 82.4974 62.0807 81.6836 60.9023C81.0456 59.9714 80.7266 58.8125 80.7266 57.4258C80.7266 55.6875 81.1432 54.3594 81.9766 53.4414C82.8164 52.5234 83.8581 52.0645 85.1016 52.0645C86.3841 52.0645 87.4421 52.6276 88.2754 53.7539V52.2988H90.8438V61.6055C90.8438 62.8294 90.7428 63.7441 90.541 64.3496C90.3392 64.9551 90.056 65.4303 89.6914 65.7754C89.3268 66.1204 88.8385 66.3906 88.2266 66.5859C87.6211 66.7812 86.8529 66.8789 85.9219 66.8789C84.1641 66.8789 82.9173 66.5762 82.1816 65.9707C81.446 65.3717 81.0781 64.61 81.0781 63.6855C81.0781 63.5944 81.0814 63.4837 81.0879 63.3535ZM83.5391 57.2695C83.5391 58.3698 83.7507 59.1771 84.1738 59.6914C84.6035 60.1992 85.1309 60.4531 85.7559 60.4531C86.4264 60.4531 86.9928 60.1927 87.4551 59.6719C87.9173 59.1445 88.1484 58.3665 88.1484 57.3379C88.1484 56.2637 87.9271 55.4661 87.4844 54.9453C87.0417 54.4245 86.4818 54.1641 85.8047 54.1641C85.1471 54.1641 84.6035 54.4212 84.1738 54.9355C83.7507 55.4434 83.5391 56.2214 83.5391 57.2695ZM103.002 62.6699H100.258V57.377C100.258 56.2572 100.199 55.5345 100.082 55.209C99.9648 54.877 99.7728 54.6198 99.5059 54.4375C99.2454 54.2552 98.9297 54.1641 98.5586 54.1641C98.0833 54.1641 97.6569 54.2943 97.2793 54.5547C96.9017 54.8151 96.6413 55.1602 96.498 55.5898C96.3613 56.0195 96.293 56.8138 96.293 57.9727V62.6699H93.5488V52.2988H96.0977V53.8223C97.0026 52.6504 98.1419 52.0645 99.5156 52.0645C100.121 52.0645 100.674 52.1751 101.176 52.3965C101.677 52.6113 102.055 52.888 102.309 53.2266C102.569 53.5651 102.748 53.9492 102.846 54.3789C102.95 54.8086 103.002 55.4238 103.002 56.2246V62.6699ZM111.361 50.8926V48.3535H114.105V50.8926H111.361ZM111.361 62.6699V52.2988H114.105V62.6699H111.361ZM126.361 62.6699H123.617V57.377C123.617 56.2572 123.559 55.5345 123.441 55.209C123.324 54.877 123.132 54.6198 122.865 54.4375C122.605 54.2552 122.289 54.1641 121.918 54.1641C121.443 54.1641 121.016 54.2943 120.639 54.5547C120.261 54.8151 120.001 55.1602 119.857 55.5898C119.721 56.0195 119.652 56.8138 119.652 57.9727V62.6699H116.908V52.2988H119.457V53.8223C120.362 52.6504 121.501 52.0645 122.875 52.0645C123.48 52.0645 124.034 52.1751 124.535 52.3965C125.036 52.6113 125.414 52.888 125.668 53.2266C125.928 53.5651 126.107 53.9492 126.205 54.3789C126.309 54.8086 126.361 55.4238 126.361 56.2246V62.6699Z" fill="black"/>
<path d="M64.4141 89.7422L64.5703 90.9844C64.2526 91.0677 63.9661 91.1094 63.7109 91.1094C63.3099 91.1094 62.987 91.0312 62.7422 90.875C62.4974 90.7135 62.3281 90.4948 62.2344 90.2188C62.1458 89.9427 62.1016 89.3932 62.1016 88.5703V83.7969H61.2578V82.7031H62.1016V80.6484L63.25 79.8047V82.7031H64.4141V83.7969H63.25V88.6484C63.25 89.0964 63.2839 89.3854 63.3516 89.5156C63.4505 89.7031 63.6354 89.7969 63.9062 89.7969C64.0365 89.7969 64.2057 89.7786 64.4141 89.7422ZM65.0703 86.8516C65.0703 85.4193 65.3698 84.3385 65.9688 83.6094C66.5729 82.8802 67.3359 82.5156 68.2578 82.5156C69.1641 82.5156 69.9219 82.8802 70.5312 83.6094C71.1406 84.3385 71.4453 85.3906 71.4453 86.7656C71.4453 88.2552 71.1458 89.3646 70.5469 90.0938C69.9479 90.8229 69.1849 91.1875 68.2578 91.1875C67.3464 91.1875 66.5859 90.8229 65.9766 90.0938C65.3724 89.3594 65.0703 88.2786 65.0703 86.8516ZM66.25 86.8516C66.25 87.9245 66.4453 88.724 66.8359 89.25C67.2266 89.7708 67.7109 90.0312 68.2891 90.0312C68.8307 90.0312 69.2943 89.7682 69.6797 89.2422C70.0703 88.7109 70.2656 87.9141 70.2656 86.8516C70.2656 85.7839 70.0703 84.9896 69.6797 84.4688C69.2891 83.9427 68.8047 83.6797 68.2266 83.6797C67.6797 83.6797 67.2135 83.9427 66.8281 84.4688C66.4427 84.9948 66.25 85.7891 66.25 86.8516ZM80.9141 87.9609L82.0469 88.1406C81.9167 89.1302 81.5885 89.8854 81.0625 90.4062C80.5417 90.9271 79.9141 91.1875 79.1797 91.1875C78.2891 91.1875 77.5547 90.8229 76.9766 90.0938C76.4036 89.3594 76.1172 88.276 76.1172 86.8438C76.1172 85.401 76.4062 84.3203 76.9844 83.6016C77.5677 82.8776 78.3151 82.5156 79.2266 82.5156C79.9297 82.5156 80.5208 82.7344 81 83.1719C81.4844 83.6094 81.7943 84.2656 81.9297 85.1406L80.8125 85.3516C80.7031 84.7891 80.513 84.3698 80.2422 84.0938C79.9714 83.8125 79.6458 83.6719 79.2656 83.6719C78.6979 83.6719 78.2266 83.9245 77.8516 84.4297C77.4818 84.9297 77.2969 85.7266 77.2969 86.8203C77.2969 87.9505 77.474 88.7682 77.8281 89.2734C78.1875 89.7786 78.6458 90.0312 79.2031 90.0312C79.6406 90.0312 80.013 89.8646 80.3203 89.5312C80.6328 89.1927 80.8307 88.6693 80.9141 87.9609ZM82.5859 86.8516C82.5859 85.4193 82.8854 84.3385 83.4844 83.6094C84.0885 82.8802 84.8516 82.5156 85.7734 82.5156C86.6797 82.5156 87.4375 82.8802 88.0469 83.6094C88.6562 84.3385 88.9609 85.3906 88.9609 86.7656C88.9609 88.2552 88.6615 89.3646 88.0625 90.0938C87.4635 90.8229 86.7005 91.1875 85.7734 91.1875C84.862 91.1875 84.1016 90.8229 83.4922 90.0938C82.888 89.3594 82.5859 88.2786 82.5859 86.8516ZM83.7656 86.8516C83.7656 87.9245 83.9609 88.724 84.3516 89.25C84.7422 89.7708 85.2266 90.0312 85.8047 90.0312C86.3464 90.0312 86.8099 89.7682 87.1953 89.2422C87.5859 88.7109 87.7812 87.9141 87.7812 86.8516C87.7812 85.7839 87.5859 84.9896 87.1953 84.4688C86.8047 83.9427 86.3203 83.6797 85.7422 83.6797C85.1953 83.6797 84.7292 83.9427 84.3438 84.4688C83.9583 84.9948 83.7656 85.7891 83.7656 86.8516ZM90.3125 91V82.7031H91.3516V83.8828C91.6016 83.4245 91.9062 83.0833 92.2656 82.8594C92.6302 82.6302 93.0469 82.5156 93.5156 82.5156C93.8802 82.5156 94.2161 82.5885 94.5234 82.7344C94.8359 82.875 95.0859 83.0625 95.2734 83.2969C95.4661 83.526 95.6094 83.8255 95.7031 84.1953C95.7969 84.5651 95.8438 85.1328 95.8438 85.8984V91H94.6875V85.9531C94.6875 85.3438 94.6354 84.8984 94.5312 84.6172C94.4271 84.3359 94.263 84.1198 94.0391 83.9688C93.8203 83.8125 93.5651 83.7344 93.2734 83.7344C92.7214 83.7344 92.2812 83.9401 91.9531 84.3516C91.625 84.763 91.4609 85.4688 91.4609 86.4688V91H90.3125ZM100.18 89.7422L100.336 90.9844C100.018 91.0677 99.7318 91.1094 99.4766 91.1094C99.0755 91.1094 98.7526 91.0312 98.5078 90.875C98.263 90.7135 98.0938 90.4948 98 90.2188C97.9115 89.9427 97.8672 89.3932 97.8672 88.5703V83.7969H97.0234V82.7031H97.8672V80.6484L99.0156 79.8047V82.7031H100.18V83.7969H99.0156V88.6484C99.0156 89.0964 99.0495 89.3854 99.1172 89.5156C99.2161 89.7031 99.401 89.7969 99.6719 89.7969C99.8021 89.7969 99.9714 89.7786 100.18 89.7422ZM101.266 81.1641V79.5469H102.414V81.1641H101.266ZM101.266 91V82.7031H102.414V91H101.266ZM104.188 91V82.7031H105.227V83.8828C105.477 83.4245 105.781 83.0833 106.141 82.8594C106.505 82.6302 106.922 82.5156 107.391 82.5156C107.755 82.5156 108.091 82.5885 108.398 82.7344C108.711 82.875 108.961 83.0625 109.148 83.2969C109.341 83.526 109.484 83.8255 109.578 84.1953C109.672 84.5651 109.719 85.1328 109.719 85.8984V91H108.562V85.9531C108.562 85.3438 108.51 84.8984 108.406 84.6172C108.302 84.3359 108.138 84.1198 107.914 83.9688C107.695 83.8125 107.44 83.7344 107.148 83.7344C106.596 83.7344 106.156 83.9401 105.828 84.3516C105.5 84.763 105.336 85.4688 105.336 86.4688V91H104.188ZM115.945 91V89.7812C115.68 90.25 115.367 90.6016 115.008 90.8359C114.648 91.0703 114.242 91.1875 113.789 91.1875C113.253 91.1875 112.794 91.0443 112.414 90.7578C112.034 90.4661 111.779 90.099 111.648 89.6562C111.523 89.2135 111.461 88.6094 111.461 87.8438V82.7031H112.609V87.3047C112.609 88.1589 112.651 88.7318 112.734 89.0234C112.823 89.3099 112.982 89.5417 113.211 89.7188C113.445 89.8906 113.711 89.9766 114.008 89.9766C114.56 89.9766 115.013 89.75 115.367 89.2969C115.669 88.9062 115.82 88.1901 115.82 87.1484V82.7031H116.977V91H115.945ZM123.438 88.3281L124.625 88.5078C124.427 89.3932 124.068 90.0625 123.547 90.5156C123.031 90.9635 122.391 91.1875 121.625 91.1875C120.661 91.1875 119.88 90.8229 119.281 90.0938C118.688 89.3594 118.391 88.3021 118.391 86.9219C118.391 85.4896 118.69 84.3984 119.289 83.6484C119.893 82.8932 120.656 82.5156 121.578 82.5156C122.458 82.5156 123.193 82.8854 123.781 83.625C124.37 84.3646 124.664 85.4349 124.664 86.8359L124.656 87.2109H119.578C119.625 88.1432 119.841 88.8464 120.227 89.3203C120.612 89.7943 121.081 90.0312 121.633 90.0312C122.497 90.0312 123.099 89.4635 123.438 88.3281ZM119.648 86.0547H123.445C123.393 85.3359 123.24 84.7995 122.984 84.4453C122.615 83.9297 122.143 83.6719 121.57 83.6719C121.055 83.6719 120.615 83.888 120.25 84.3203C119.885 84.7474 119.685 85.3255 119.648 86.0547ZM132.305 89.7422L132.461 90.9844C132.143 91.0677 131.857 91.1094 131.602 91.1094C131.201 91.1094 130.878 91.0312 130.633 90.875C130.388 90.7135 130.219 90.4948 130.125 90.2188C130.036 89.9427 129.992 89.3932 129.992 88.5703V83.7969H129.148V82.7031H129.992V80.6484L131.141 79.8047V82.7031H132.305V83.7969H131.141V88.6484C131.141 89.0964 131.174 89.3854 131.242 89.5156C131.341 89.7031 131.526 89.7969 131.797 89.7969C131.927 89.7969 132.096 89.7786 132.305 89.7422ZM132.961 86.8516C132.961 85.4193 133.26 84.3385 133.859 83.6094C134.464 82.8802 135.227 82.5156 136.148 82.5156C137.055 82.5156 137.812 82.8802 138.422 83.6094C139.031 84.3385 139.336 85.3906 139.336 86.7656C139.336 88.2552 139.036 89.3646 138.438 90.0938C137.839 90.8229 137.076 91.1875 136.148 91.1875C135.237 91.1875 134.477 90.8229 133.867 90.0938C133.263 89.3594 132.961 88.2786 132.961 86.8516ZM134.141 86.8516C134.141 87.9245 134.336 88.724 134.727 89.25C135.117 89.7708 135.602 90.0312 136.18 90.0312C136.721 90.0312 137.185 89.7682 137.57 89.2422C137.961 88.7109 138.156 87.9141 138.156 86.8516C138.156 85.7839 137.961 84.9896 137.57 84.4688C137.18 83.9427 136.695 83.6797 136.117 83.6797C135.57 83.6797 135.104 83.9427 134.719 84.4688C134.333 84.9948 134.141 85.7891 134.141 86.8516ZM144.477 91V79.5469H146.344L148.57 87.6562L149.016 89.3516C149.125 88.9297 149.292 88.3177 149.516 87.5156L151.766 79.5469H153.438V91H152.242V81.4141L149.508 91H148.391L145.672 81.25V91H144.477ZM155.25 94.1953L155.125 92.875C155.38 92.9583 155.599 93 155.781 93C156.026 93 156.227 92.9505 156.383 92.8516C156.544 92.7526 156.677 92.599 156.781 92.3906C156.818 92.3177 156.969 91.8594 157.234 91.0156L154.648 82.7031H155.891L157.312 87.5078C157.49 88.1068 157.654 88.7474 157.805 89.4297C157.935 88.7839 158.091 88.1536 158.273 87.5391L159.727 82.7031H160.883L158.297 91.1406C157.958 92.2344 157.69 92.9635 157.492 93.3281C157.299 93.6979 157.078 93.9635 156.828 94.125C156.583 94.2865 156.305 94.3672 155.992 94.3672C155.773 94.3672 155.526 94.3099 155.25 94.1953ZM163.922 91L167.531 79.5469H168.867L172.711 91H171.289L170.195 87.5312H166.273L165.242 91H163.922ZM166.633 86.2969H169.812L168.836 83.125C168.534 82.151 168.312 81.3594 168.172 80.75C168.052 81.4844 167.883 82.2135 167.664 82.9375L166.633 86.2969ZM173.531 94.1797V82.7031H174.586V83.7812C174.846 83.3333 175.135 83.0104 175.453 82.8125C175.771 82.6146 176.135 82.5156 176.547 82.5156C177.083 82.5156 177.568 82.6745 178 82.9922C178.432 83.3099 178.779 83.7943 179.039 84.4453C179.305 85.0911 179.438 85.8698 179.438 86.7812C179.438 88.1927 179.141 89.2812 178.547 90.0469C177.958 90.8073 177.266 91.1875 176.469 91.1875C176.115 91.1875 175.784 91.0964 175.477 90.9141C175.169 90.7318 174.904 90.474 174.68 90.1406V94.1797H173.531ZM174.57 86.8984C174.57 87.9714 174.75 88.763 175.109 89.2734C175.469 89.7786 175.904 90.0312 176.414 90.0312C176.904 90.0312 177.333 89.7682 177.703 89.2422C178.073 88.7161 178.258 87.9036 178.258 86.8047C178.258 85.7214 178.078 84.9193 177.719 84.3984C177.359 83.8776 176.922 83.6172 176.406 83.6172C175.943 83.6172 175.521 83.8984 175.141 84.4609C174.76 85.0182 174.57 85.8307 174.57 86.8984ZM180.828 94.1797V82.7031H181.883V83.7812C182.143 83.3333 182.432 83.0104 182.75 82.8125C183.068 82.6146 183.432 82.5156 183.844 82.5156C184.38 82.5156 184.865 82.6745 185.297 82.9922C185.729 83.3099 186.076 83.7943 186.336 84.4453C186.602 85.0911 186.734 85.8698 186.734 86.7812C186.734 88.1927 186.438 89.2812 185.844 90.0469C185.255 90.8073 184.562 91.1875 183.766 91.1875C183.411 91.1875 183.081 91.0964 182.773 90.9141C182.466 90.7318 182.201 90.474 181.977 90.1406V94.1797H180.828ZM181.867 86.8984C181.867 87.9714 182.047 88.763 182.406 89.2734C182.766 89.7786 183.201 90.0312 183.711 90.0312C184.201 90.0312 184.63 89.7682 185 89.2422C185.37 88.7161 185.555 87.9036 185.555 86.8047C185.555 85.7214 185.375 84.9193 185.016 84.3984C184.656 83.8776 184.219 83.6172 183.703 83.6172C183.24 83.6172 182.818 83.8984 182.438 84.4609C182.057 85.0182 181.867 85.8307 181.867 86.8984ZM188.094 91V79.5469H189.242V91H188.094ZM191.047 81.1641V79.5469H192.195V81.1641H191.047ZM191.047 91V82.7031H192.195V91H191.047ZM198.43 87.9609L199.562 88.1406C199.432 89.1302 199.104 89.8854 198.578 90.4062C198.057 90.9271 197.43 91.1875 196.695 91.1875C195.805 91.1875 195.07 90.8229 194.492 90.0938C193.919 89.3594 193.633 88.276 193.633 86.8438C193.633 85.401 193.922 84.3203 194.5 83.6016C195.083 82.8776 195.831 82.5156 196.742 82.5156C197.445 82.5156 198.036 82.7344 198.516 83.1719C199 83.6094 199.31 84.2656 199.445 85.1406L198.328 85.3516C198.219 84.7891 198.029 84.3698 197.758 84.0938C197.487 83.8125 197.161 83.6719 196.781 83.6719C196.214 83.6719 195.742 83.9245 195.367 84.4297C194.997 84.9297 194.812 85.7266 194.812 86.8203C194.812 87.9505 194.99 88.7682 195.344 89.2734C195.703 89.7786 196.161 90.0312 196.719 90.0312C197.156 90.0312 197.529 89.8646 197.836 89.5312C198.148 89.1927 198.346 88.6693 198.43 87.9609ZM204.969 89.9766C204.583 90.3776 204.182 90.6797 203.766 90.8828C203.349 91.0859 202.917 91.1875 202.469 91.1875C201.76 91.1875 201.195 90.974 200.773 90.5469C200.352 90.1198 200.141 89.5443 200.141 88.8203C200.141 88.3411 200.24 87.9167 200.438 87.5469C200.635 87.1771 200.906 86.888 201.25 86.6797C201.594 86.4714 202.115 86.3177 202.812 86.2188C203.75 86.0833 204.438 85.9219 204.875 85.7344L204.883 85.375C204.883 84.8073 204.781 84.4089 204.578 84.1797C204.292 83.8464 203.852 83.6797 203.258 83.6797C202.721 83.6797 202.32 83.7917 202.055 84.0156C201.789 84.2344 201.594 84.6484 201.469 85.2578L200.336 85.0703C200.497 84.1797 200.823 83.5312 201.312 83.125C201.807 82.7188 202.513 82.5156 203.43 82.5156C204.143 82.5156 204.703 82.651 205.109 82.9219C205.516 83.1875 205.771 83.5182 205.875 83.9141C205.984 84.3099 206.039 84.888 206.039 85.6484V87.5234C206.039 88.8359 206.062 89.6641 206.109 90.0078C206.161 90.3464 206.26 90.6771 206.406 91H205.203C205.083 90.7135 205.005 90.3724 204.969 89.9766ZM204.875 86.8359C204.453 87.0443 203.826 87.2214 202.992 87.3672C202.508 87.4505 202.169 87.5469 201.977 87.6562C201.784 87.7604 201.633 87.9115 201.523 88.1094C201.419 88.3021 201.367 88.526 201.367 88.7812C201.367 89.1771 201.49 89.4948 201.734 89.7344C201.979 89.9688 202.318 90.0859 202.75 90.0859C203.161 90.0859 203.534 89.9792 203.867 89.7656C204.206 89.5521 204.458 89.2682 204.625 88.9141C204.792 88.5547 204.875 88.0339 204.875 87.3516V86.8359ZM210.398 89.7422L210.555 90.9844C210.237 91.0677 209.951 91.1094 209.695 91.1094C209.294 91.1094 208.971 91.0312 208.727 90.875C208.482 90.7135 208.312 90.4948 208.219 90.2188C208.13 89.9427 208.086 89.3932 208.086 88.5703V83.7969H207.242V82.7031H208.086V80.6484L209.234 79.8047V82.7031H210.398V83.7969H209.234V88.6484C209.234 89.0964 209.268 89.3854 209.336 89.5156C209.435 89.7031 209.62 89.7969 209.891 89.7969C210.021 89.7969 210.19 89.7786 210.398 89.7422ZM211.484 81.1641V79.5469H212.633V81.1641H211.484ZM211.484 91V82.7031H212.633V91H211.484ZM213.977 86.8516C213.977 85.4193 214.276 84.3385 214.875 83.6094C215.479 82.8802 216.242 82.5156 217.164 82.5156C218.07 82.5156 218.828 82.8802 219.438 83.6094C220.047 84.3385 220.352 85.3906 220.352 86.7656C220.352 88.2552 220.052 89.3646 219.453 90.0938C218.854 90.8229 218.091 91.1875 217.164 91.1875C216.253 91.1875 215.492 90.8229 214.883 90.0938C214.279 89.3594 213.977 88.2786 213.977 86.8516ZM215.156 86.8516C215.156 87.9245 215.352 88.724 215.742 89.25C216.133 89.7708 216.617 90.0312 217.195 90.0312C217.737 90.0312 218.201 89.7682 218.586 89.2422C218.977 88.7109 219.172 87.9141 219.172 86.8516C219.172 85.7839 218.977 84.9896 218.586 84.4688C218.195 83.9427 217.711 83.6797 217.133 83.6797C216.586 83.6797 216.12 83.9427 215.734 84.4688C215.349 84.9948 215.156 85.7891 215.156 86.8516ZM221.703 91V82.7031H222.742V83.8828C222.992 83.4245 223.297 83.0833 223.656 82.8594C224.021 82.6302 224.438 82.5156 224.906 82.5156C225.271 82.5156 225.607 82.5885 225.914 82.7344C226.227 82.875 226.477 83.0625 226.664 83.2969C226.857 83.526 227 83.8255 227.094 84.1953C227.188 84.5651 227.234 85.1328 227.234 85.8984V91H226.078V85.9531C226.078 85.3438 226.026 84.8984 225.922 84.6172C225.818 84.3359 225.654 84.1198 225.43 83.9688C225.211 83.8125 224.956 83.7344 224.664 83.7344C224.112 83.7344 223.672 83.9401 223.344 84.3516C223.016 84.763 222.852 85.4688 222.852 86.4688V91H221.703Z" fill="black"/>
<g filter="url(#filter1_d_1_150)">
<rect x="61" y="127" width="330" height="40.25" rx="6" fill="white" fill-opacity="0.01" shape-rendering="crispEdges"/>
<g clip-path="url(#clip1_1_150)">
<path d="M132.499 147.407L133.515 147.718C133.29 148.764 132.897 149.544 132.334 150.061C131.775 150.573 131.094 150.829 130.29 150.829C129.583 150.829 128.978 150.657 128.475 150.314C127.975 149.967 127.565 149.413 127.243 148.651C126.926 147.89 126.767 146.99 126.767 145.954C126.767 144.93 126.926 144.064 127.243 143.357C127.565 142.646 127.999 142.111 128.544 141.751C129.09 141.388 129.7 141.206 130.373 141.206C131.109 141.206 131.742 141.436 132.271 141.897C132.799 142.354 133.17 143.027 133.381 143.916L132.391 144.202C132.053 142.907 131.373 142.259 130.354 142.259C129.846 142.259 129.406 142.39 129.033 142.653C128.661 142.911 128.362 143.315 128.138 143.865C127.918 144.415 127.808 145.111 127.808 145.954C127.808 147.227 128.032 148.184 128.481 148.823C128.93 149.458 129.526 149.775 130.271 149.775C130.821 149.775 131.295 149.58 131.693 149.191C132.095 148.797 132.364 148.203 132.499 147.407ZM134.789 147.299C134.789 146.136 135.032 145.257 135.519 144.665C136.01 144.073 136.63 143.776 137.379 143.776C138.115 143.776 138.731 144.073 139.226 144.665C139.721 145.257 139.969 146.112 139.969 147.229C139.969 148.44 139.725 149.341 139.239 149.934C138.752 150.526 138.132 150.822 137.379 150.822C136.638 150.822 136.021 150.526 135.525 149.934C135.035 149.337 134.789 148.459 134.789 147.299ZM135.748 147.299C135.748 148.171 135.906 148.821 136.224 149.248C136.541 149.671 136.935 149.883 137.404 149.883C137.844 149.883 138.221 149.669 138.534 149.242C138.852 148.81 139.01 148.163 139.01 147.299C139.01 146.432 138.852 145.786 138.534 145.363C138.217 144.936 137.823 144.722 137.354 144.722C136.909 144.722 136.53 144.936 136.217 145.363C135.904 145.791 135.748 146.436 135.748 147.299ZM141.567 150.67V143.929H142.411V144.887C142.614 144.515 142.862 144.238 143.154 144.056C143.45 143.869 143.789 143.776 144.169 143.776C144.466 143.776 144.739 143.836 144.988 143.954C145.242 144.068 145.445 144.221 145.598 144.411C145.754 144.597 145.871 144.841 145.947 145.141C146.023 145.442 146.061 145.903 146.061 146.525V150.67H145.122V146.569C145.122 146.074 145.079 145.712 144.995 145.484C144.91 145.255 144.777 145.08 144.595 144.957C144.417 144.83 144.21 144.767 143.973 144.767C143.524 144.767 143.167 144.934 142.9 145.268C142.633 145.602 142.5 146.176 142.5 146.988V150.67H141.567ZM150.084 149.648L150.211 150.657C149.953 150.725 149.72 150.759 149.513 150.759C149.187 150.759 148.924 150.695 148.726 150.568C148.527 150.437 148.389 150.259 148.313 150.035C148.241 149.811 148.205 149.364 148.205 148.696V144.817H147.52V143.929H148.205V142.259L149.138 141.574V143.929H150.084V144.817H149.138V148.759C149.138 149.123 149.166 149.358 149.221 149.464C149.301 149.616 149.451 149.692 149.671 149.692C149.777 149.692 149.915 149.678 150.084 149.648ZM151.466 142.678V141.364H152.399V142.678H151.466ZM151.466 150.67V143.929H152.399V150.67H151.466ZM154.34 150.67V143.929H155.185V144.887C155.388 144.515 155.635 144.238 155.927 144.056C156.223 143.869 156.562 143.776 156.943 143.776C157.239 143.776 157.512 143.836 157.762 143.954C158.016 144.068 158.219 144.221 158.371 144.411C158.528 144.597 158.644 144.841 158.72 145.141C158.796 145.442 158.834 145.903 158.834 146.525V150.67H157.895V146.569C157.895 146.074 157.853 145.712 157.768 145.484C157.683 145.255 157.55 145.08 157.368 144.957C157.19 144.83 156.983 144.767 156.746 144.767C156.298 144.767 155.94 144.934 155.673 145.268C155.407 145.602 155.273 146.176 155.273 146.988V150.67H154.34ZM164.394 150.67V149.68C164.178 150.061 163.924 150.346 163.632 150.537C163.34 150.727 163.01 150.822 162.642 150.822C162.206 150.822 161.833 150.706 161.524 150.473C161.215 150.236 161.008 149.938 160.902 149.578C160.801 149.218 160.75 148.728 160.75 148.105V143.929H161.683V147.667C161.683 148.361 161.717 148.827 161.785 149.064C161.857 149.297 161.986 149.485 162.172 149.629C162.362 149.769 162.578 149.838 162.819 149.838C163.268 149.838 163.636 149.654 163.924 149.286C164.169 148.969 164.292 148.387 164.292 147.541V143.929H165.231V150.67H164.394ZM170.981 148.499L171.946 148.645C171.785 149.364 171.493 149.908 171.07 150.276C170.651 150.64 170.13 150.822 169.508 150.822C168.725 150.822 168.091 150.526 167.604 149.934C167.122 149.337 166.88 148.478 166.88 147.356C166.88 146.193 167.124 145.306 167.61 144.697C168.101 144.083 168.721 143.776 169.47 143.776C170.185 143.776 170.782 144.077 171.26 144.678C171.738 145.279 171.978 146.148 171.978 147.287L171.971 147.591H167.845C167.883 148.349 168.059 148.92 168.372 149.305C168.685 149.69 169.066 149.883 169.515 149.883C170.217 149.883 170.706 149.422 170.981 148.499ZM167.902 146.652H170.987C170.945 146.068 170.82 145.632 170.613 145.344C170.312 144.925 169.929 144.716 169.464 144.716C169.045 144.716 168.687 144.891 168.391 145.243C168.095 145.59 167.932 146.059 167.902 146.652ZM178.113 150.67L176.424 143.929H177.396L178.271 147.82L178.595 149.267L178.887 147.877L179.763 143.929H180.728L181.553 147.839L181.833 149.127L182.15 147.826L183.096 143.929H184.01L182.277 150.67H181.306L180.423 146.633L180.214 145.484L179.097 150.67H178.113ZM185.291 142.678V141.364H186.224V142.678H185.291ZM185.291 150.67V143.929H186.224V150.67H185.291ZM190.253 149.648L190.38 150.657C190.122 150.725 189.889 150.759 189.682 150.759C189.356 150.759 189.093 150.695 188.895 150.568C188.696 150.437 188.558 150.259 188.482 150.035C188.41 149.811 188.374 149.364 188.374 148.696V144.817H187.688V143.929H188.374V142.259L189.307 141.574V143.929H190.253V144.817H189.307V148.759C189.307 149.123 189.335 149.358 189.39 149.464C189.47 149.616 189.62 149.692 189.84 149.692C189.946 149.692 190.084 149.678 190.253 149.648ZM191.635 150.67V141.364H192.568V144.703C192.788 144.394 193.036 144.164 193.311 144.011C193.59 143.855 193.897 143.776 194.231 143.776C194.82 143.776 195.283 143.965 195.622 144.341C195.964 144.714 196.136 145.399 196.136 146.398V150.67H195.203V146.398C195.203 145.814 195.099 145.395 194.892 145.141C194.684 144.887 194.399 144.76 194.035 144.76C193.628 144.76 193.281 144.923 192.994 145.249C192.71 145.575 192.568 146.153 192.568 146.982V150.67H191.635ZM205.267 147.02V145.928L208.498 145.922V149.375C208.003 149.857 207.491 150.221 206.962 150.467C206.433 150.708 205.889 150.829 205.331 150.829C204.586 150.829 203.921 150.642 203.337 150.27C202.753 149.898 202.29 149.354 201.947 148.639C201.609 147.924 201.439 147.064 201.439 146.062C201.439 145.046 201.611 144.161 201.954 143.408C202.296 142.655 202.745 142.101 203.299 141.745C203.854 141.385 204.51 141.206 205.267 141.206C205.826 141.206 206.314 141.309 206.733 141.517C207.152 141.724 207.497 142.018 207.768 142.399C208.039 142.78 208.242 143.302 208.377 143.967L207.47 144.271C207.347 143.747 207.193 143.355 207.006 143.097C206.82 142.835 206.575 142.63 206.27 142.481C205.965 142.333 205.623 142.259 205.242 142.259C204.687 142.259 204.209 142.395 203.807 142.666C203.409 142.932 203.088 143.349 202.842 143.916C202.601 144.483 202.48 145.175 202.48 145.992C202.48 147.236 202.741 148.169 203.261 148.791C203.782 149.409 204.459 149.718 205.292 149.718C205.69 149.718 206.097 149.623 206.511 149.432C206.93 149.242 207.262 149.015 207.508 148.753V147.02H205.267ZM209.988 147.299C209.988 146.136 210.232 145.257 210.718 144.665C211.209 144.073 211.829 143.776 212.578 143.776C213.314 143.776 213.93 144.073 214.425 144.665C214.92 145.257 215.168 146.112 215.168 147.229C215.168 148.44 214.925 149.341 214.438 149.934C213.951 150.526 213.331 150.822 212.578 150.822C211.838 150.822 211.22 150.526 210.725 149.934C210.234 149.337 209.988 148.459 209.988 147.299ZM210.947 147.299C210.947 148.171 211.105 148.821 211.423 149.248C211.74 149.671 212.134 149.883 212.604 149.883C213.044 149.883 213.42 149.669 213.733 149.242C214.051 148.81 214.209 148.163 214.209 147.299C214.209 146.432 214.051 145.786 213.733 145.363C213.416 144.936 213.022 144.722 212.553 144.722C212.108 144.722 211.73 144.936 211.417 145.363C211.103 145.791 210.947 146.436 210.947 147.299ZM216.417 147.299C216.417 146.136 216.66 145.257 217.147 144.665C217.638 144.073 218.258 143.776 219.007 143.776C219.743 143.776 220.359 144.073 220.854 144.665C221.349 145.257 221.597 146.112 221.597 147.229C221.597 148.44 221.353 149.341 220.867 149.934C220.38 150.526 219.76 150.822 219.007 150.822C218.266 150.822 217.648 150.526 217.153 149.934C216.662 149.337 216.417 148.459 216.417 147.299ZM217.375 147.299C217.375 148.171 217.534 148.821 217.852 149.248C218.169 149.671 218.562 149.883 219.032 149.883C219.472 149.883 219.849 149.669 220.162 149.242C220.479 148.81 220.638 148.163 220.638 147.299C220.638 146.432 220.479 145.786 220.162 145.363C219.845 144.936 219.451 144.722 218.981 144.722C218.537 144.722 218.158 144.936 217.845 145.363C217.532 145.791 217.375 146.436 217.375 147.299ZM223.017 151.229L223.931 151.394C223.973 151.753 224.1 152.02 224.312 152.193C224.524 152.371 224.818 152.46 225.194 152.46C225.605 152.46 225.931 152.361 226.172 152.162C226.417 151.967 226.584 151.675 226.673 151.286C226.728 151.049 226.756 150.549 226.756 149.788C226.553 150.08 226.324 150.3 226.07 150.448C225.816 150.596 225.535 150.67 225.226 150.67C224.566 150.67 224.018 150.391 223.582 149.832C223.083 149.189 222.833 148.328 222.833 147.249C222.833 146.525 222.943 145.892 223.163 145.351C223.383 144.809 223.671 144.411 224.026 144.157C224.386 143.903 224.788 143.776 225.232 143.776C225.558 143.776 225.854 143.857 226.121 144.018C226.392 144.178 226.631 144.42 226.838 144.741V143.929H227.702V149.756C227.702 150.793 227.617 151.531 227.448 151.971C227.278 152.416 227.001 152.765 226.616 153.019C226.231 153.277 225.768 153.406 225.226 153.406C224.511 153.406 223.961 153.213 223.576 152.828C223.191 152.443 223.004 151.91 223.017 151.229ZM223.798 147.179C223.798 148.063 223.944 148.708 224.236 149.115C224.528 149.521 224.885 149.724 225.309 149.724C225.732 149.724 226.091 149.525 226.388 149.127C226.684 148.73 226.832 148.097 226.832 147.229C226.832 146.383 226.68 145.755 226.375 145.344C226.07 144.93 225.7 144.722 225.264 144.722C224.875 144.722 224.532 144.93 224.236 145.344C223.944 145.755 223.798 146.366 223.798 147.179ZM229.598 150.67V141.364H230.531V150.67H229.598ZM236.281 148.499L237.246 148.645C237.085 149.364 236.793 149.908 236.37 150.276C235.951 150.64 235.43 150.822 234.808 150.822C234.025 150.822 233.39 150.526 232.904 149.934C232.421 149.337 232.18 148.478 232.18 147.356C232.18 146.193 232.424 145.306 232.91 144.697C233.401 144.083 234.021 143.776 234.77 143.776C235.485 143.776 236.082 144.077 236.56 144.678C237.038 145.279 237.277 146.148 237.277 147.287L237.271 147.591H233.145C233.183 148.349 233.359 148.92 233.672 149.305C233.985 149.69 234.366 149.883 234.814 149.883C235.517 149.883 236.006 149.422 236.281 148.499ZM233.202 146.652H236.287C236.245 146.068 236.12 145.632 235.913 145.344C235.612 144.925 235.229 144.716 234.764 144.716C234.345 144.716 233.987 144.891 233.691 145.243C233.395 145.59 233.232 146.059 233.202 146.652Z" fill="black"/>
</g>
<g clip-path="url(#clip2_1_150)">
<g clip-path="url(#clip3_1_150)">
<path d="M81.2267 146.554C81.2267 146.06 81.1867 145.564 81.1013 145.079H74.256V147.874H78.176C78.0133 148.775 77.4907 149.572 76.7253 150.079V151.892H79.064C80.4373 150.628 81.2267 148.762 81.2267 146.554Z" fill="#4285F4"/>
<path d="M74.256 153.644C76.2133 153.644 77.864 153.002 79.0667 151.892L76.728 150.079C76.0773 150.522 75.2373 150.772 74.2587 150.772C72.3653 150.772 70.76 149.495 70.184 147.778H67.7707V149.647C69.0027 152.098 71.512 153.644 74.256 153.644Z" fill="#34A853"/>
<path d="M70.1813 147.778C69.8773 146.877 69.8773 145.901 70.1813 144.999V143.13H67.7707C66.7413 145.181 66.7413 147.597 67.7707 149.647L70.1813 147.778Z" fill="#FBBC04"/>
<path d="M74.256 142.002C75.2907 141.986 76.2907 142.375 77.04 143.09L79.112 141.018C77.8 139.786 76.0587 139.109 74.256 139.13C71.512 139.13 69.0027 140.677 67.7707 143.13L70.1813 144.999C70.7547 143.279 72.3627 142.002 74.256 142.002Z" fill="#EA4335"/>
</g>
</g>
<rect x="62" y="128" width="328" height="38.25" rx="5" stroke="black" stroke-width="2" shape-rendering="crispEdges"/>
</g>
<rect x="61" y="207.69" width="142.5" height="1" fill="black"/>
<path d="M220.021 209.454C220.021 208.862 220.167 208.288 220.458 207.734C220.75 207.18 221.163 206.756 221.696 206.464C222.234 206.172 222.833 206.026 223.493 206.026C224.513 206.026 225.348 206.359 226 207.023C226.652 207.683 226.978 208.519 226.978 209.53C226.978 210.55 226.647 211.396 225.987 212.069C225.331 212.738 224.504 213.072 223.505 213.072C222.888 213.072 222.297 212.933 221.734 212.653C221.176 212.374 220.75 211.966 220.458 211.428C220.167 210.887 220.021 210.229 220.021 209.454ZM221.849 209.549C221.849 210.218 222.007 210.73 222.325 211.085C222.642 211.441 223.034 211.619 223.499 211.619C223.965 211.619 224.354 211.441 224.667 211.085C224.984 210.73 225.143 210.214 225.143 209.537C225.143 208.876 224.984 208.369 224.667 208.013C224.354 207.658 223.965 207.48 223.499 207.48C223.034 207.48 222.642 207.658 222.325 208.013C222.007 208.369 221.849 208.881 221.849 209.549ZM230.088 212.92H228.304V206.179H229.961V207.137C230.244 206.684 230.498 206.386 230.723 206.242C230.951 206.098 231.209 206.026 231.497 206.026C231.903 206.026 232.295 206.139 232.671 206.363L232.119 207.918C231.819 207.723 231.539 207.626 231.281 207.626C231.032 207.626 230.82 207.696 230.646 207.835C230.473 207.971 230.335 208.218 230.234 208.578C230.137 208.938 230.088 209.691 230.088 210.838V212.92Z" fill="black"/>
<rect x="248.5" y="207.69" width="142.5" height="1" fill="black"/>
<path d="M61.9458 262.13V252.824H68.8457V254.398H63.8247V256.461H68.4966V258.029H63.8247V260.562H69.0234V262.13H61.9458ZM70.4707 255.389H72.1147V256.309C72.703 255.594 73.4033 255.236 74.2158 255.236C74.6475 255.236 75.022 255.325 75.3394 255.503C75.6567 255.681 75.917 255.949 76.1201 256.309C76.4163 255.949 76.7358 255.681 77.0786 255.503C77.4214 255.325 77.7874 255.236 78.1768 255.236C78.6719 255.236 79.0908 255.338 79.4336 255.541C79.7764 255.74 80.0324 256.034 80.2017 256.423C80.3244 256.711 80.3857 257.177 80.3857 257.82V262.13H78.6021V258.277C78.6021 257.608 78.5407 257.177 78.418 256.982C78.2529 256.728 77.999 256.601 77.6562 256.601C77.4066 256.601 77.1717 256.677 76.9517 256.83C76.7316 256.982 76.5729 257.206 76.4756 257.502C76.3783 257.794 76.3296 258.258 76.3296 258.893V262.13H74.5459V258.436C74.5459 257.78 74.5142 257.356 74.4507 257.166C74.3872 256.976 74.2878 256.834 74.1523 256.741C74.0212 256.648 73.8413 256.601 73.6128 256.601C73.3377 256.601 73.0902 256.675 72.8701 256.823C72.6501 256.971 72.4914 257.185 72.394 257.464C72.3009 257.744 72.2544 258.207 72.2544 258.854V262.13H70.4707V255.389ZM83.5024 257.445L81.8838 257.153C82.0658 256.502 82.3789 256.019 82.8232 255.706C83.2676 255.393 83.9277 255.236 84.8037 255.236C85.5993 255.236 86.1917 255.332 86.5811 255.522C86.9704 255.708 87.2433 255.947 87.3999 256.239C87.5607 256.527 87.6411 257.058 87.6411 257.833L87.6221 259.915C87.6221 260.507 87.6496 260.945 87.7046 261.229C87.7638 261.508 87.8717 261.808 88.0283 262.13H86.2637C86.2171 262.011 86.16 261.836 86.0923 261.603C86.0627 261.497 86.0415 261.427 86.0288 261.394C85.7241 261.69 85.3983 261.912 85.0513 262.06C84.7043 262.208 84.334 262.282 83.9404 262.282C83.2464 262.282 82.6984 262.094 82.2964 261.717C81.8986 261.341 81.6997 260.865 81.6997 260.289C81.6997 259.908 81.7907 259.57 81.9727 259.273C82.1546 258.973 82.4085 258.744 82.7344 258.588C83.0645 258.427 83.5384 258.287 84.1562 258.169C84.9899 258.012 85.5675 257.866 85.8892 257.731V257.553C85.8892 257.21 85.8045 256.967 85.6353 256.823C85.466 256.675 85.1465 256.601 84.6768 256.601C84.3594 256.601 84.1118 256.665 83.9341 256.792C83.7563 256.914 83.6125 257.132 83.5024 257.445ZM85.8892 258.893C85.6606 258.969 85.2988 259.06 84.8037 259.166C84.3086 259.271 83.9849 259.375 83.8325 259.477C83.5998 259.642 83.4834 259.851 83.4834 260.105C83.4834 260.355 83.5765 260.57 83.7627 260.752C83.9489 260.934 84.1859 261.025 84.4736 261.025C84.7952 261.025 85.1021 260.92 85.394 260.708C85.6099 260.547 85.7516 260.35 85.8193 260.118C85.8659 259.965 85.8892 259.675 85.8892 259.248V258.893ZM89.4058 254.475V252.824H91.1895V254.475H89.4058ZM89.4058 262.13V255.389H91.1895V262.13H89.4058ZM93.0239 262.13V252.824H94.8076V262.13H93.0239ZM101.593 257.445L99.9746 257.153C100.157 256.502 100.47 256.019 100.914 255.706C101.358 255.393 102.019 255.236 102.895 255.236C103.69 255.236 104.283 255.332 104.672 255.522C105.061 255.708 105.334 255.947 105.491 256.239C105.652 256.527 105.732 257.058 105.732 257.833L105.713 259.915C105.713 260.507 105.74 260.945 105.795 261.229C105.855 261.508 105.963 261.808 106.119 262.13H104.354C104.308 262.011 104.251 261.836 104.183 261.603C104.153 261.497 104.132 261.427 104.12 261.394C103.815 261.69 103.489 261.912 103.142 262.06C102.795 262.208 102.425 262.282 102.031 262.282C101.337 262.282 100.789 262.094 100.387 261.717C99.9894 261.341 99.7905 260.865 99.7905 260.289C99.7905 259.908 99.8815 259.57 100.063 259.273C100.245 258.973 100.499 258.744 100.825 258.588C101.155 258.427 101.629 258.287 102.247 258.169C103.081 258.012 103.658 257.866 103.98 257.731V257.553C103.98 257.21 103.895 256.967 103.726 256.823C103.557 256.675 103.237 256.601 102.768 256.601C102.45 256.601 102.203 256.665 102.025 256.792C101.847 256.914 101.703 257.132 101.593 257.445ZM103.98 258.893C103.751 258.969 103.39 259.06 102.895 259.166C102.399 259.271 102.076 259.375 101.923 259.477C101.691 259.642 101.574 259.851 101.574 260.105C101.574 260.355 101.667 260.57 101.854 260.752C102.04 260.934 102.277 261.025 102.564 261.025C102.886 261.025 103.193 260.92 103.485 260.708C103.701 260.547 103.842 260.35 103.91 260.118C103.957 259.965 103.98 259.675 103.98 259.248V258.893ZM113.679 262.13H112.022V261.14C111.747 261.525 111.422 261.812 111.045 262.003C110.673 262.189 110.296 262.282 109.915 262.282C109.141 262.282 108.476 261.971 107.922 261.349C107.372 260.723 107.097 259.851 107.097 258.734C107.097 257.591 107.365 256.724 107.903 256.131C108.44 255.535 109.119 255.236 109.94 255.236C110.694 255.236 111.345 255.549 111.896 256.176V252.824H113.679V262.13ZM108.918 258.613C108.918 259.333 109.018 259.853 109.217 260.175C109.505 260.64 109.907 260.873 110.423 260.873C110.833 260.873 111.182 260.7 111.47 260.353C111.758 260.001 111.902 259.479 111.902 258.785C111.902 258.01 111.762 257.454 111.483 257.115C111.204 256.772 110.846 256.601 110.41 256.601C109.987 256.601 109.632 256.77 109.344 257.109C109.06 257.443 108.918 257.945 108.918 258.613ZM121.626 262.13H119.97V261.14C119.695 261.525 119.369 261.812 118.992 262.003C118.62 262.189 118.243 262.282 117.862 262.282C117.088 262.282 116.424 261.971 115.869 261.349C115.319 260.723 115.044 259.851 115.044 258.734C115.044 257.591 115.313 256.724 115.85 256.131C116.388 255.535 117.067 255.236 117.888 255.236C118.641 255.236 119.293 255.549 119.843 256.176V252.824H121.626V262.13ZM116.866 258.613C116.866 259.333 116.965 259.853 117.164 260.175C117.452 260.64 117.854 260.873 118.37 260.873C118.781 260.873 119.13 260.7 119.417 260.353C119.705 260.001 119.849 259.479 119.849 258.785C119.849 258.01 119.709 257.454 119.43 257.115C119.151 256.772 118.793 256.601 118.357 256.601C117.934 256.601 117.579 256.77 117.291 257.109C117.007 257.443 116.866 257.945 116.866 258.613ZM125.099 262.13H123.315V255.389H124.972V256.347C125.255 255.894 125.509 255.596 125.733 255.452C125.962 255.308 126.22 255.236 126.508 255.236C126.914 255.236 127.306 255.348 127.682 255.573L127.13 257.128C126.829 256.933 126.55 256.836 126.292 256.836C126.042 256.836 125.831 256.906 125.657 257.045C125.484 257.181 125.346 257.428 125.245 257.788C125.147 258.148 125.099 258.901 125.099 260.048V262.13ZM132.36 259.984L134.138 260.283C133.909 260.934 133.547 261.432 133.052 261.774C132.561 262.113 131.946 262.282 131.205 262.282C130.033 262.282 129.165 261.899 128.603 261.133C128.158 260.52 127.936 259.745 127.936 258.81C127.936 257.693 128.228 256.819 128.812 256.188C129.396 255.554 130.134 255.236 131.027 255.236C132.03 255.236 132.822 255.569 133.401 256.233C133.981 256.893 134.258 257.907 134.233 259.273H129.764C129.777 259.802 129.921 260.215 130.196 260.511C130.471 260.803 130.814 260.949 131.224 260.949C131.503 260.949 131.738 260.873 131.929 260.721C132.119 260.568 132.263 260.323 132.36 259.984ZM132.462 258.182C132.449 257.665 132.316 257.274 132.062 257.007C131.808 256.736 131.499 256.601 131.135 256.601C130.746 256.601 130.424 256.743 130.17 257.026C129.917 257.31 129.792 257.695 129.796 258.182H132.462ZM135.064 260.207L136.854 259.934C136.931 260.281 137.085 260.545 137.318 260.727C137.551 260.905 137.876 260.994 138.295 260.994C138.757 260.994 139.104 260.909 139.336 260.74C139.493 260.621 139.571 260.463 139.571 260.264C139.571 260.128 139.529 260.016 139.444 259.927C139.355 259.843 139.157 259.764 138.848 259.692C137.409 259.375 136.497 259.085 136.112 258.823C135.579 258.459 135.312 257.953 135.312 257.306C135.312 256.722 135.543 256.231 136.004 255.833C136.465 255.435 137.18 255.236 138.149 255.236C139.072 255.236 139.757 255.387 140.206 255.687C140.655 255.987 140.964 256.432 141.133 257.02L139.451 257.331C139.379 257.069 139.241 256.868 139.038 256.728C138.839 256.588 138.554 256.519 138.181 256.519C137.711 256.519 137.375 256.584 137.172 256.715C137.036 256.808 136.969 256.929 136.969 257.077C136.969 257.204 137.028 257.312 137.146 257.401C137.307 257.519 137.862 257.687 138.81 257.902C139.762 258.118 140.426 258.383 140.803 258.696C141.175 259.013 141.361 259.455 141.361 260.022C141.361 260.64 141.103 261.171 140.587 261.616C140.071 262.06 139.307 262.282 138.295 262.282C137.377 262.282 136.649 262.096 136.112 261.724C135.579 261.351 135.229 260.846 135.064 260.207ZM142.301 260.207L144.091 259.934C144.167 260.281 144.321 260.545 144.554 260.727C144.787 260.905 145.113 260.994 145.532 260.994C145.993 260.994 146.34 260.909 146.573 260.74C146.729 260.621 146.808 260.463 146.808 260.264C146.808 260.128 146.765 260.016 146.681 259.927C146.592 259.843 146.393 259.764 146.084 259.692C144.645 259.375 143.733 259.085 143.348 258.823C142.815 258.459 142.548 257.953 142.548 257.306C142.548 256.722 142.779 256.231 143.24 255.833C143.701 255.435 144.417 255.236 145.386 255.236C146.308 255.236 146.994 255.387 147.442 255.687C147.891 255.987 148.2 256.432 148.369 257.02L146.687 257.331C146.615 257.069 146.478 256.868 146.274 256.728C146.076 256.588 145.79 256.519 145.417 256.519C144.948 256.519 144.611 256.584 144.408 256.715C144.273 256.808 144.205 256.929 144.205 257.077C144.205 257.204 144.264 257.312 144.383 257.401C144.544 257.519 145.098 257.687 146.046 257.902C146.998 258.118 147.662 258.383 148.039 258.696C148.411 259.013 148.598 259.455 148.598 260.022C148.598 260.64 148.34 261.171 147.823 261.616C147.307 262.06 146.543 262.282 145.532 262.282C144.613 262.282 143.886 262.096 143.348 261.724C142.815 261.351 142.466 260.846 142.301 260.207Z" fill="black"/>
<g filter="url(#filter2_d_1_150)">
<rect x="61" y="271.34" width="330" height="40.25" rx="6" fill="white"/>
<rect x="62" y="272.34" width="328" height="38.25" rx="5" stroke="black" stroke-width="2"/>
</g>
<g filter="url(#filter3_d_1_150)">
<rect x="61" y="327.25" width="330" height="36" rx="6" fill="#DE1B1B" shape-rendering="crispEdges"/>
<path d="M201.128 345.185L202.669 345.674C202.433 346.533 202.039 347.172 201.488 347.591C200.94 348.007 200.243 348.214 199.398 348.214C198.353 348.214 197.493 347.858 196.82 347.146C196.147 346.429 195.81 345.452 195.81 344.213C195.81 342.902 196.149 341.885 196.825 341.162C197.502 340.435 198.392 340.072 199.495 340.072C200.458 340.072 201.24 340.356 201.842 340.926C202.2 341.262 202.469 341.746 202.648 342.376L201.074 342.752C200.981 342.344 200.786 342.021 200.488 341.785C200.195 341.549 199.837 341.431 199.414 341.431C198.831 341.431 198.356 341.64 197.991 342.059C197.629 342.478 197.448 343.157 197.448 344.095C197.448 345.09 197.627 345.799 197.986 346.222C198.344 346.644 198.809 346.855 199.382 346.855C199.805 346.855 200.168 346.721 200.472 346.453C200.777 346.184 200.995 345.762 201.128 345.185ZM204.217 344.191C204.217 343.389 204.336 342.716 204.576 342.172C204.755 341.771 204.999 341.411 205.307 341.092C205.618 340.774 205.959 340.537 206.327 340.383C206.818 340.176 207.384 340.072 208.025 340.072C209.185 340.072 210.112 340.432 210.807 341.151C211.505 341.871 211.854 342.872 211.854 344.154C211.854 345.425 211.509 346.42 210.818 347.14C210.127 347.856 209.203 348.214 208.046 348.214C206.875 348.214 205.944 347.858 205.253 347.146C204.562 346.429 204.217 345.445 204.217 344.191ZM205.855 344.138C205.855 345.029 206.061 345.706 206.472 346.168C206.884 346.626 207.407 346.855 208.041 346.855C208.675 346.855 209.194 346.628 209.598 346.173C210.007 345.715 210.211 345.029 210.211 344.116C210.211 343.214 210.012 342.541 209.614 342.097C209.221 341.653 208.696 341.431 208.041 341.431C207.385 341.431 206.857 341.656 206.456 342.107C206.055 342.555 205.855 343.232 205.855 344.138ZM213.616 348.08V340.206H215.163L218.386 345.464V340.206H219.863V348.08H218.268L215.093 342.945V348.08H213.616ZM223.822 348.08V341.538H221.486V340.206H227.743V341.538H225.412V348.08H223.822ZM229.226 348.08V340.206H230.816V348.08H229.226ZM232.852 348.08V340.206H234.399L237.621 345.464V340.206H239.098V348.08H237.503L234.329 342.945V348.08H232.852ZM241.274 340.206H242.864V344.471C242.864 345.147 242.884 345.586 242.923 345.787C242.991 346.109 243.152 346.368 243.406 346.565C243.664 346.759 244.015 346.855 244.459 346.855C244.91 346.855 245.251 346.764 245.48 346.582C245.709 346.395 245.847 346.168 245.893 345.899C245.94 345.631 245.963 345.185 245.963 344.562V340.206H247.553V344.342C247.553 345.287 247.51 345.955 247.424 346.345C247.338 346.736 247.179 347.065 246.946 347.333C246.717 347.602 246.409 347.817 246.022 347.978C245.635 348.136 245.131 348.214 244.508 348.214C243.756 348.214 243.184 348.128 242.794 347.957C242.407 347.781 242.101 347.556 241.876 347.28C241.65 347 241.502 346.709 241.43 346.404C241.326 345.953 241.274 345.287 241.274 344.406V340.206ZM249.734 348.08V340.206H255.572V341.538H251.324V343.284H255.277V344.61H251.324V346.753H255.723V348.08H249.734Z" fill="white"/>
<rect x="62" y="328.25" width="328" height="34" rx="5" stroke="black" stroke-width="2" shape-rendering="crispEdges"/>
</g>
<path d="M61.7935 406.92V397.614H62.8281L66.8398 404.92V397.614H67.8047V406.92H66.77L62.7646 399.607V406.92H61.7935ZM69.0298 403.549C69.0298 402.386 69.2731 401.507 69.7598 400.915C70.2507 400.323 70.8706 400.026 71.6196 400.026C72.356 400.026 72.9717 400.323 73.4668 400.915C73.9619 401.507 74.2095 402.362 74.2095 403.479C74.2095 404.69 73.9661 405.591 73.4795 406.184C72.9928 406.776 72.3729 407.072 71.6196 407.072C70.8791 407.072 70.2612 406.776 69.7661 406.184C69.2752 405.587 69.0298 404.709 69.0298 403.549ZM69.9883 403.549C69.9883 404.421 70.147 405.071 70.4644 405.498C70.7817 405.921 71.1753 406.133 71.645 406.133C72.0851 406.133 72.4618 405.919 72.7749 405.492C73.0923 405.06 73.251 404.413 73.251 403.549C73.251 402.682 73.0923 402.036 72.7749 401.613C72.4575 401.186 72.064 400.972 71.5942 400.972C71.1499 400.972 70.7712 401.186 70.458 401.613C70.1449 402.041 69.9883 402.686 69.9883 403.549ZM81.8838 406.088C81.5706 406.414 81.2448 406.66 80.9062 406.825C80.5677 406.99 80.2165 407.072 79.8525 407.072C79.277 407.072 78.8179 406.899 78.4751 406.552C78.1323 406.205 77.9609 405.737 77.9609 405.149C77.9609 404.76 78.0413 404.415 78.2021 404.114C78.363 403.814 78.583 403.579 78.8623 403.41C79.1416 403.24 79.5648 403.116 80.1318 403.035C80.8936 402.925 81.4521 402.794 81.8076 402.642L81.814 402.35C81.814 401.888 81.7314 401.565 81.5664 401.378C81.3337 401.108 80.9761 400.972 80.4937 400.972C80.0578 400.972 79.7319 401.063 79.5161 401.245C79.3003 401.423 79.1416 401.759 79.04 402.254L78.1196 402.102C78.2508 401.378 78.5153 400.852 78.9131 400.521C79.3151 400.191 79.8885 400.026 80.6333 400.026C81.2131 400.026 81.668 400.136 81.998 400.356C82.3281 400.572 82.5355 400.841 82.6201 401.163C82.709 401.484 82.7534 401.954 82.7534 402.572V404.095C82.7534 405.162 82.7725 405.834 82.8105 406.114C82.8529 406.389 82.9333 406.658 83.0518 406.92H82.0742C81.9769 406.687 81.9134 406.41 81.8838 406.088ZM81.8076 403.537C81.4648 403.706 80.9549 403.85 80.2778 403.968C79.8843 404.036 79.6092 404.114 79.4526 404.203C79.2961 404.288 79.1733 404.41 79.0845 404.571C78.9998 404.728 78.9575 404.91 78.9575 405.117C78.9575 405.439 79.057 405.697 79.2559 405.892C79.4548 406.082 79.7298 406.177 80.0811 406.177C80.4154 406.177 80.7179 406.09 80.9888 405.917C81.2638 405.743 81.4691 405.513 81.6045 405.225C81.7399 404.933 81.8076 404.51 81.8076 403.956V403.537ZM87.8315 404.451L88.752 404.597C88.6462 405.401 88.3796 406.014 87.9521 406.438C87.529 406.861 87.019 407.072 86.4224 407.072C85.6987 407.072 85.1021 406.776 84.6323 406.184C84.1668 405.587 83.9341 404.707 83.9341 403.543C83.9341 402.371 84.1689 401.493 84.6387 400.909C85.1126 400.32 85.7199 400.026 86.4604 400.026C87.0317 400.026 87.512 400.204 87.9014 400.56C88.2949 400.915 88.5467 401.448 88.6567 402.159L87.749 402.331C87.6602 401.874 87.5057 401.533 87.2856 401.309C87.0656 401.08 86.8011 400.966 86.4922 400.966C86.0309 400.966 85.6479 401.171 85.3433 401.582C85.0428 401.988 84.8926 402.635 84.8926 403.524C84.8926 404.442 85.0365 405.107 85.3242 405.517C85.6162 405.928 85.9886 406.133 86.4414 406.133C86.7969 406.133 87.0994 405.997 87.3491 405.727C87.603 405.451 87.7638 405.026 87.8315 404.451ZM93.1636 404.451L94.084 404.597C93.9782 405.401 93.7116 406.014 93.2842 406.438C92.861 406.861 92.3511 407.072 91.7544 407.072C91.0308 407.072 90.4341 406.776 89.9644 406.184C89.4989 405.587 89.2661 404.707 89.2661 403.543C89.2661 402.371 89.501 401.493 89.9707 400.909C90.4447 400.32 91.0519 400.026 91.7925 400.026C92.3638 400.026 92.8441 400.204 93.2334 400.56C93.627 400.915 93.8787 401.448 93.9888 402.159L93.0811 402.331C92.9922 401.874 92.8377 401.533 92.6177 401.309C92.3976 401.08 92.1331 400.966 91.8242 400.966C91.363 400.966 90.98 401.171 90.6753 401.582C90.3748 401.988 90.2246 402.635 90.2246 403.524C90.2246 404.442 90.3685 405.107 90.6562 405.517C90.9482 405.928 91.3206 406.133 91.7734 406.133C92.1289 406.133 92.4315 405.997 92.6812 405.727C92.9351 405.451 93.0959 405.026 93.1636 404.451ZM94.522 403.549C94.522 402.386 94.7653 401.507 95.252 400.915C95.7428 400.323 96.3628 400.026 97.1118 400.026C97.8481 400.026 98.4639 400.323 98.959 400.915C99.4541 401.507 99.7017 402.362 99.7017 403.479C99.7017 404.69 99.4583 405.591 98.9717 406.184C98.485 406.776 97.8651 407.072 97.1118 407.072C96.3713 407.072 95.7534 406.776 95.2583 406.184C94.7674 405.587 94.522 404.709 94.522 403.549ZM95.4805 403.549C95.4805 404.421 95.6392 405.071 95.9565 405.498C96.2739 405.921 96.6675 406.133 97.1372 406.133C97.5773 406.133 97.9539 405.919 98.2671 405.492C98.5845 405.06 98.7432 404.413 98.7432 403.549C98.7432 402.682 98.5845 402.036 98.2671 401.613C97.9497 401.186 97.5562 400.972 97.0864 400.972C96.6421 400.972 96.2633 401.186 95.9502 401.613C95.637 402.041 95.4805 402.686 95.4805 403.549ZM104.424 406.92V405.93C104.208 406.311 103.955 406.596 103.663 406.787C103.371 406.977 103.041 407.072 102.672 407.072C102.236 407.072 101.864 406.956 101.555 406.723C101.246 406.486 101.039 406.188 100.933 405.828C100.832 405.468 100.781 404.978 100.781 404.355V400.179H101.714V403.917C101.714 404.611 101.748 405.077 101.815 405.314C101.887 405.547 102.016 405.735 102.203 405.879C102.393 406.019 102.609 406.088 102.85 406.088C103.299 406.088 103.667 405.904 103.955 405.536C104.2 405.219 104.323 404.637 104.323 403.791V400.179H105.262V406.92H104.424ZM106.729 406.92V400.179H107.573V401.137C107.776 400.765 108.023 400.488 108.315 400.306C108.612 400.119 108.95 400.026 109.331 400.026C109.627 400.026 109.9 400.086 110.15 400.204C110.404 400.318 110.607 400.471 110.759 400.661C110.916 400.847 111.032 401.091 111.108 401.391C111.185 401.692 111.223 402.153 111.223 402.775V406.92H110.283V402.819C110.283 402.324 110.241 401.962 110.156 401.734C110.072 401.505 109.938 401.33 109.756 401.207C109.579 401.08 109.371 401.017 109.134 401.017C108.686 401.017 108.328 401.184 108.062 401.518C107.795 401.852 107.662 402.426 107.662 403.238V406.92H106.729ZM114.746 405.898L114.873 406.907C114.614 406.975 114.382 407.009 114.174 407.009C113.848 407.009 113.586 406.945 113.387 406.818C113.188 406.687 113.051 406.509 112.975 406.285C112.903 406.061 112.867 405.614 112.867 404.946V401.067H112.181V400.179H112.867V398.509L113.8 397.824V400.179H114.746V401.067H113.8V405.009C113.8 405.373 113.827 405.608 113.882 405.714C113.963 405.866 114.113 405.942 114.333 405.942C114.439 405.942 114.576 405.928 114.746 405.898ZM117.386 404.628L117.374 404.286C117.374 403.672 117.477 403.158 117.685 402.743C117.828 402.455 118.131 402.064 118.592 401.569C118.905 401.235 119.111 400.964 119.208 400.756C119.305 400.545 119.354 400.316 119.354 400.071C119.354 399.605 119.206 399.21 118.91 398.884C118.613 398.558 118.273 398.395 117.888 398.395C117.494 398.395 117.16 398.545 116.885 398.846C116.614 399.146 116.438 399.624 116.358 400.28L115.393 400.141C115.486 399.243 115.751 398.573 116.187 398.128C116.627 397.68 117.192 397.456 117.881 397.456C118.575 397.456 119.153 397.695 119.614 398.173C120.08 398.647 120.312 399.254 120.312 399.995C120.312 400.401 120.236 400.773 120.084 401.112C119.932 401.45 119.627 401.869 119.17 402.369C118.781 402.788 118.537 403.12 118.44 403.365C118.347 403.606 118.294 404.028 118.281 404.628H117.386ZM117.323 406.92V405.619H118.389V406.92H117.323Z" fill="black"/>
<path d="M138.46 404.892L140.288 404.714C140.398 405.328 140.62 405.779 140.954 406.066C141.293 406.354 141.748 406.498 142.319 406.498C142.924 406.498 143.379 406.371 143.684 406.117C143.993 405.859 144.147 405.559 144.147 405.216C144.147 404.996 144.082 404.81 143.95 404.657C143.823 404.501 143.599 404.365 143.278 404.251C143.058 404.175 142.556 404.039 141.773 403.845C140.766 403.595 140.059 403.288 139.653 402.924C139.082 402.412 138.796 401.788 138.796 401.052C138.796 400.578 138.929 400.136 139.196 399.725C139.467 399.31 139.854 398.995 140.358 398.779C140.865 398.563 141.477 398.456 142.192 398.456C143.36 398.456 144.238 398.712 144.826 399.224C145.419 399.736 145.73 400.419 145.76 401.274L143.881 401.356C143.8 400.878 143.627 400.535 143.36 400.328C143.098 400.117 142.702 400.011 142.173 400.011C141.627 400.011 141.2 400.123 140.891 400.347C140.692 400.491 140.593 400.684 140.593 400.925C140.593 401.145 140.686 401.333 140.872 401.49C141.109 401.689 141.684 401.896 142.598 402.112C143.512 402.328 144.187 402.552 144.623 402.785C145.063 403.013 145.406 403.328 145.652 403.73C145.901 404.128 146.026 404.621 146.026 405.209C146.026 405.743 145.878 406.242 145.582 406.708C145.286 407.173 144.867 407.52 144.325 407.749C143.783 407.973 143.108 408.085 142.3 408.085C141.124 408.085 140.22 407.814 139.59 407.272C138.959 406.727 138.582 405.933 138.46 404.892ZM147.594 400.265V398.614H149.378V400.265H147.594ZM147.594 407.92V401.179H149.378V407.92H147.594ZM151.047 408.364L153.085 408.612C153.119 408.849 153.197 409.012 153.32 409.101C153.489 409.228 153.755 409.291 154.119 409.291C154.585 409.291 154.934 409.221 155.167 409.082C155.323 408.988 155.442 408.838 155.522 408.631C155.577 408.483 155.605 408.21 155.605 407.812V406.828C155.072 407.556 154.399 407.92 153.586 407.92C152.681 407.92 151.963 407.537 151.434 406.771C151.02 406.166 150.812 405.413 150.812 404.511C150.812 403.381 151.083 402.518 151.625 401.921C152.171 401.325 152.848 401.026 153.656 401.026C154.49 401.026 155.177 401.392 155.719 402.125V401.179H157.388V407.228C157.388 408.024 157.323 408.618 157.192 409.012C157.06 409.405 156.876 409.714 156.639 409.938C156.402 410.163 156.085 410.338 155.687 410.465C155.294 410.592 154.794 410.656 154.189 410.656C153.047 410.656 152.236 410.459 151.758 410.065C151.28 409.676 151.041 409.181 151.041 408.58C151.041 408.521 151.043 408.449 151.047 408.364ZM152.64 404.41C152.64 405.125 152.778 405.65 153.053 405.984C153.332 406.314 153.675 406.479 154.081 406.479C154.517 406.479 154.885 406.31 155.186 405.971C155.486 405.628 155.636 405.123 155.636 404.454C155.636 403.756 155.493 403.237 155.205 402.899C154.917 402.56 154.553 402.391 154.113 402.391C153.686 402.391 153.332 402.558 153.053 402.893C152.778 403.223 152.64 403.728 152.64 404.41ZM165.291 407.92H163.508V404.479C163.508 403.752 163.469 403.282 163.393 403.07C163.317 402.854 163.192 402.687 163.019 402.569C162.85 402.45 162.644 402.391 162.403 402.391C162.094 402.391 161.817 402.476 161.572 402.645C161.326 402.814 161.157 403.039 161.064 403.318C160.975 403.597 160.93 404.113 160.93 404.867V407.92H159.147V401.179H160.803V402.169C161.392 401.407 162.132 401.026 163.025 401.026C163.419 401.026 163.778 401.098 164.104 401.242C164.43 401.382 164.676 401.562 164.841 401.782C165.01 402.002 165.126 402.251 165.19 402.531C165.257 402.81 165.291 403.21 165.291 403.73V407.92ZM175.162 407.92V406.911C174.916 407.27 174.593 407.554 174.191 407.761C173.793 407.969 173.372 408.072 172.927 408.072C172.475 408.072 172.068 407.973 171.709 407.774C171.349 407.575 171.089 407.296 170.928 406.936C170.767 406.576 170.687 406.079 170.687 405.444V401.179H172.47V404.276C172.47 405.224 172.502 405.806 172.566 406.022C172.633 406.234 172.754 406.403 172.927 406.53C173.101 406.653 173.321 406.714 173.588 406.714C173.892 406.714 174.165 406.631 174.406 406.466C174.648 406.297 174.813 406.09 174.902 405.844C174.99 405.595 175.035 404.987 175.035 404.022V401.179H176.819V407.92H175.162ZM178.621 401.179H180.284V402.169C180.5 401.83 180.792 401.555 181.16 401.344C181.529 401.132 181.937 401.026 182.385 401.026C183.168 401.026 183.833 401.333 184.379 401.947C184.925 402.56 185.198 403.415 185.198 404.511C185.198 405.637 184.922 406.513 184.372 407.139C183.822 407.761 183.156 408.072 182.373 408.072C182 408.072 181.662 407.998 181.357 407.85C181.057 407.702 180.739 407.448 180.405 407.088V410.484H178.621V401.179ZM180.386 404.435C180.386 405.193 180.536 405.753 180.837 406.117C181.137 406.477 181.503 406.657 181.935 406.657C182.35 406.657 182.694 406.492 182.969 406.162C183.245 405.827 183.382 405.281 183.382 404.524C183.382 403.817 183.24 403.292 182.957 402.95C182.673 402.607 182.322 402.436 181.903 402.436C181.467 402.436 181.105 402.605 180.818 402.943C180.53 403.278 180.386 403.775 180.386 404.435Z" fill="#DE1B1B"/>
<path d="M185.65 411.5H137.99V415.5H185.65V411.5Z" fill="#DE1B1B" mask="url(#path-22-inside-1_1_150)"/>
<path d="M6 199C2.68629 199 0 196.314 0 193V64.41C0 61.0963 2.68629 58.41 6 58.41H28V199H6Z" fill="#DE1B1B"/>
<path d="M16.0302 181.629L15.9521 180.896C16.346 180.857 16.6536 180.77 16.8749 180.633C17.093 180.493 17.2688 180.294 17.4023 180.037C17.5357 179.78 17.6025 179.49 17.6025 179.168C17.6025 178.706 17.4902 178.348 17.2655 178.094C17.0377 177.837 16.7431 177.708 16.3818 177.708C16.1702 177.708 15.9863 177.755 15.83 177.85C15.6705 177.941 15.5403 178.081 15.4394 178.27C15.3385 178.455 15.1969 178.859 15.0146 179.48C14.8518 180.034 14.6874 180.428 14.5214 180.662C14.3554 180.896 14.1454 181.079 13.8915 181.209C13.6344 181.339 13.3447 181.404 13.0224 181.404C12.443 181.404 11.9693 181.217 11.6015 180.843C11.2336 180.468 11.0497 179.964 11.0497 179.329C11.0497 178.893 11.136 178.512 11.3085 178.187C11.481 177.858 11.7284 177.604 12.0507 177.425C12.373 177.243 12.7522 177.145 13.1884 177.132L13.2568 177.879C12.7913 177.918 12.4462 178.058 12.2216 178.299C11.997 178.536 11.8847 178.872 11.8847 179.305C11.8847 179.744 11.984 180.079 12.1825 180.311C12.3779 180.542 12.6318 180.657 12.9443 180.657C13.234 180.657 13.4586 180.573 13.6181 180.403C13.7776 180.234 13.9387 179.853 14.1015 179.261C14.261 178.681 14.3993 178.274 14.5165 178.04C14.6988 177.682 14.9397 177.412 15.2392 177.229C15.5354 177.047 15.8902 176.956 16.3036 176.956C16.7138 176.956 17.0881 177.052 17.4267 177.244C17.762 177.436 18.0175 177.698 18.1933 178.03C18.3691 178.359 18.457 178.756 18.457 179.222C18.457 179.948 18.2389 180.527 17.8027 180.96C17.3665 181.39 16.7756 181.613 16.0302 181.629ZM16.6601 173.094L16.7724 172.352C17.3258 172.475 17.7441 172.7 18.0273 173.025C18.3072 173.348 18.4472 173.748 18.4472 174.227C18.4472 174.829 18.2193 175.317 17.7636 175.691C17.3046 176.062 16.6438 176.248 15.7812 176.248C14.886 176.248 14.204 176.061 13.7353 175.687C13.2633 175.309 13.0273 174.832 13.0273 174.256C13.0273 173.706 13.2584 173.247 13.7206 172.879C14.1829 172.511 14.8518 172.327 15.7275 172.327L15.9618 172.332V175.506C16.5445 175.477 16.984 175.341 17.2802 175.101C17.5764 174.86 17.7245 174.567 17.7245 174.222C17.7245 173.681 17.3697 173.305 16.6601 173.094ZM15.2392 175.462V173.089C14.79 173.121 14.4547 173.217 14.2333 173.377C13.9111 173.608 13.7499 173.903 13.7499 174.261C13.7499 174.583 13.885 174.858 14.1552 175.086C14.4221 175.314 14.7835 175.439 15.2392 175.462ZM16.4306 168.655L16.5429 167.947C17.1614 168.029 17.6334 168.234 17.9589 168.562C18.2844 168.888 18.4472 169.28 18.4472 169.739C18.4472 170.296 18.2193 170.755 17.7636 171.116C17.3046 171.474 16.6275 171.653 15.7323 171.653C14.8307 171.653 14.1552 171.473 13.706 171.111C13.2535 170.747 13.0273 170.28 13.0273 169.71C13.0273 169.271 13.164 168.901 13.4374 168.602C13.7109 168.299 14.121 168.105 14.6679 168.021L14.7997 168.719C14.4482 168.787 14.1861 168.906 14.0136 169.075C13.8378 169.244 13.7499 169.448 13.7499 169.686C13.7499 170.04 13.9078 170.335 14.2236 170.569C14.5361 170.8 15.0341 170.916 15.7177 170.916C16.4241 170.916 16.9351 170.805 17.2509 170.584C17.5667 170.359 17.7245 170.073 17.7245 169.725C17.7245 169.451 17.6204 169.218 17.412 169.026C17.2004 168.831 16.8733 168.707 16.4306 168.655ZM18.33 164.554H17.5683C17.8613 164.72 18.081 164.915 18.2275 165.14C18.3739 165.364 18.4472 165.618 18.4472 165.901C18.4472 166.237 18.3577 166.523 18.1786 166.761C17.9963 166.998 17.7669 167.158 17.4902 167.239C17.2135 167.317 16.8359 167.356 16.3573 167.356H13.1445V166.639H16.0204C16.5543 166.639 16.9124 166.613 17.0947 166.561C17.2737 166.505 17.4185 166.406 17.5292 166.263C17.6366 166.116 17.6904 165.95 17.6904 165.765C17.6904 165.42 17.5488 165.136 17.2655 164.915C17.0214 164.726 16.5738 164.632 15.9228 164.632H13.1445V163.909H18.33V164.554ZM18.33 162.781H13.1445V162.132H13.9306C13.566 161.966 13.3251 161.814 13.2079 161.678C13.0875 161.538 13.0273 161.382 13.0273 161.209C13.0273 160.968 13.1217 160.722 13.3105 160.472L14.1259 160.716C13.9989 160.895 13.9355 161.069 13.9355 161.238C13.9355 161.391 13.9892 161.531 14.0966 161.658C14.204 161.785 14.3538 161.875 14.5458 161.927C14.8811 162.018 15.2376 162.063 15.6152 162.063H18.33V162.781ZM16.6601 157.137L16.7724 156.395C17.3258 156.518 17.7441 156.743 18.0273 157.068C18.3072 157.391 18.4472 157.791 18.4472 158.27C18.4472 158.872 18.2193 159.36 17.7636 159.734C17.3046 160.105 16.6438 160.291 15.7812 160.291C14.886 160.291 14.204 160.104 13.7353 159.729C13.2633 159.352 13.0273 158.875 13.0273 158.299C13.0273 157.749 13.2584 157.29 13.7206 156.922C14.1829 156.554 14.8518 156.37 15.7275 156.37L15.9618 156.375V159.549C16.5445 159.52 16.984 159.384 17.2802 159.144C17.5764 158.903 17.7245 158.61 17.7245 158.265C17.7245 157.724 17.3697 157.348 16.6601 157.137ZM15.2392 159.505V157.132C14.79 157.164 14.4547 157.26 14.2333 157.42C13.9111 157.651 13.7499 157.946 13.7499 158.304C13.7499 158.626 13.885 158.901 14.1552 159.129C14.4221 159.357 14.7835 159.482 15.2392 159.505ZM18.33 152.728H17.6757C17.9264 152.858 18.1184 153.025 18.2519 153.23C18.3821 153.436 18.4472 153.657 18.4472 153.895C18.4472 154.396 18.2112 154.83 17.7392 155.198C17.2639 155.563 16.5966 155.745 15.7372 155.745C15.148 155.745 14.6484 155.664 14.2382 155.501C13.828 155.338 13.5237 155.122 13.3251 154.852C13.1266 154.578 13.0273 154.275 13.0273 153.943C13.0273 153.706 13.0907 153.486 13.2177 153.284C13.3414 153.079 13.5155 152.91 13.7402 152.776H11.1718V152.054H18.33V152.728ZM15.7421 155.008C16.4127 155.008 16.9107 154.892 17.2363 154.661C17.5618 154.427 17.7245 154.155 17.7245 153.846C17.7245 153.54 17.5683 153.274 17.2558 153.05C16.9433 152.825 16.4713 152.713 15.8398 152.713C15.1139 152.713 14.5849 152.825 14.2529 153.05C13.9176 153.274 13.7499 153.558 13.7499 153.899C13.7499 154.202 13.9111 154.463 14.2333 154.681C14.5523 154.899 15.0553 155.008 15.7421 155.008ZM18.33 147.977V148.646H11.1718V147.928H13.7255C13.4911 147.775 13.317 147.602 13.203 147.41C13.0859 147.215 13.0273 146.998 13.0273 146.761C13.0273 146.429 13.1266 146.128 13.3251 145.857C13.5237 145.584 13.8248 145.366 14.2284 145.203C14.6321 145.04 15.122 144.959 15.6982 144.959C16.5771 144.959 17.2558 145.143 17.7343 145.511C18.2096 145.879 18.4472 146.308 18.4472 146.8C18.4472 147.047 18.3837 147.27 18.2568 147.469C18.1266 147.664 17.9345 147.833 17.6806 147.977H18.33ZM15.6982 147.986C16.2353 147.986 16.6373 147.938 16.9042 147.84C17.1711 147.742 17.3746 147.604 17.5146 147.425C17.6545 147.246 17.7245 147.047 17.7245 146.829C17.7245 146.533 17.5585 146.271 17.2265 146.043C16.8912 145.812 16.3915 145.696 15.7275 145.696C15.0471 145.696 14.5474 145.807 14.2284 146.028C13.9094 146.25 13.7499 146.521 13.7499 146.844C13.7499 147.14 13.9176 147.405 14.2529 147.64C14.5849 147.871 15.0667 147.986 15.6982 147.986ZM20.3271 144.1L19.5019 144.178C19.554 144.018 19.58 143.882 19.58 143.768C19.58 143.615 19.5491 143.489 19.4872 143.392C19.4254 143.291 19.3294 143.208 19.1991 143.143C19.1536 143.12 18.8671 143.025 18.3398 142.859L13.1445 144.476V143.699L16.1474 142.811C16.5217 142.7 16.9221 142.597 17.3486 142.503C16.9449 142.422 16.551 142.324 16.1669 142.21L13.1445 141.302V140.579L18.4179 142.195C19.1015 142.407 19.5572 142.575 19.7851 142.698C20.0162 142.819 20.1822 142.957 20.2831 143.113C20.384 143.266 20.4345 143.44 20.4345 143.636C20.4345 143.772 20.3987 143.927 20.3271 144.1Z" fill="white"/>
<g clip-path="url(#clip4_1_150)">
<path d="M17.7708 101.358C18.0092 101.589 18.1983 101.865 18.3267 102.171C18.455 102.477 18.52 102.806 18.5175 103.137C18.5248 103.418 18.4748 103.697 18.3705 103.958C18.2662 104.219 18.1098 104.456 17.9108 104.654C17.4899 105.044 16.9323 105.251 16.3592 105.232C15.0758 105.232 14.2008 104.397 14.2008 103.137C14.1963 102.802 14.2656 102.47 14.4037 102.165C14.5418 101.859 14.7454 101.588 15 101.37L14.0433 100.285C13.6256 100.652 13.2925 101.106 13.067 101.615C12.8414 102.123 12.7287 102.674 12.7367 103.231C12.7367 105.36 14.2067 106.871 16.3708 106.871C16.8497 106.883 17.3263 106.8 17.7729 106.627C18.2195 106.454 18.6273 106.194 18.9725 105.862C19.3027 105.521 19.5619 105.118 19.7352 104.677C19.9084 104.235 19.9922 103.763 19.9817 103.289C20.0005 102.724 19.9002 102.161 19.6871 101.638C19.474 101.114 19.153 100.641 18.745 100.25L17.765 101.358H17.7708ZM10.0008 99.2699V97.6599H19.8708V99.2699H10.0008ZM16.9192 89.8782C16.7033 89.8549 16.4875 89.8432 16.2717 89.8374C14.23 89.8374 12.7425 91.1791 12.7425 93.2499C12.7425 94.2357 13.11 95.0932 13.7458 95.7116C14.4567 96.3638 15.3949 96.7115 16.3592 96.6799C18.5467 96.6799 19.9875 95.1341 19.9875 93.0924C20.0125 92.5323 19.9069 91.9741 19.6791 91.4619C19.4513 90.9496 19.1076 90.4973 18.675 90.1407L17.7417 91.1907L17.695 91.2491C18.1442 91.6107 18.5175 92.1824 18.5175 93.0049C18.5403 93.4758 18.3905 93.9388 18.0962 94.3072C17.802 94.6755 17.3835 94.9239 16.9192 95.0057V89.8782ZM15.6242 94.9766C15.3111 94.9042 15.0206 94.7559 14.7783 94.5449C14.3992 94.2124 14.195 93.7282 14.195 93.1624C14.195 92.2407 14.7783 91.6632 15.6242 91.4707V94.9766ZM12.7192 84.8441H14.5275C14.5107 85.005 14.499 85.1665 14.4925 85.3282C14.4925 86.5532 15.3675 87.2474 16.5225 87.2474H19.8708V88.8516H12.8242V87.2416H13.8917V87.2241C13.1392 86.6816 12.725 85.8824 12.725 85.0366V84.8382L12.7192 84.8441ZM16.9192 81.0874L18.2142 82.2541H19.8708V83.8641H10.0008V82.2541H16.05L12.8417 79.3724V77.4591L15.6767 79.9907L19.865 77.4124V79.2266L16.9133 81.0582V81.0874H16.9192ZM9.84334 110.715L11.5233 112.395C11.5767 112.447 11.6109 112.516 11.6204 112.59C11.6299 112.664 11.6142 112.739 11.5758 112.803C11.0527 113.673 10.8792 114.709 11.0904 115.702C11.3015 116.695 11.8815 117.571 12.7133 118.152C13.348 118.593 14.0965 118.84 14.8685 118.865C15.6405 118.89 16.4033 118.691 17.065 118.292C17.1291 118.254 17.2042 118.238 17.2783 118.248C17.3523 118.257 17.4211 118.292 17.4733 118.345L19.1533 120.025C19.1872 120.059 19.2133 120.099 19.2301 120.144C19.2469 120.188 19.2538 120.236 19.2505 120.284C19.2472 120.331 19.2337 120.378 19.2109 120.42C19.188 120.461 19.1565 120.498 19.1183 120.527C17.7702 121.502 16.1189 121.964 14.4604 121.832C12.8019 121.7 11.2447 120.982 10.0679 119.806C8.89112 118.63 8.1717 117.073 8.03862 115.414C7.90553 113.756 8.36749 112.104 9.34167 110.756C9.3703 110.718 9.4068 110.686 9.4487 110.663C9.4906 110.64 9.53692 110.627 9.5845 110.624C9.63209 110.62 9.67984 110.627 9.7245 110.644C9.76916 110.661 9.80969 110.687 9.84334 110.721V110.715Z" fill="white"/>
<path d="M20.1567 110.715L18.4767 112.395C18.4233 112.447 18.3891 112.516 18.3796 112.59C18.3701 112.664 18.3858 112.739 18.4242 112.803C18.7991 113.427 18.9972 114.141 18.9972 114.868C18.9972 115.596 18.7991 116.31 18.4242 116.933C18.3858 116.997 18.3701 117.072 18.3796 117.146C18.3891 117.22 18.4233 117.289 18.4767 117.341L20.1567 119.027C20.1907 119.061 20.2316 119.087 20.2765 119.103C20.3214 119.119 20.3692 119.126 20.4168 119.122C20.4644 119.118 20.5107 119.104 20.5523 119.08C20.594 119.057 20.6301 119.025 20.6583 118.986C21.529 117.79 21.998 116.348 21.998 114.868C21.998 113.388 21.529 111.946 20.6583 110.75C20.6297 110.712 20.5932 110.68 20.5513 110.657C20.5094 110.634 20.4631 110.621 20.4155 110.618C20.3679 110.614 20.3202 110.621 20.2755 110.638C20.2308 110.655 20.1903 110.681 20.1567 110.715ZM17.0008 114.868C17.0008 114.605 16.9491 114.345 16.8485 114.102C16.748 113.86 16.6006 113.639 16.4148 113.453C16.229 113.268 16.0084 113.12 15.7657 113.02C15.5229 112.919 15.2627 112.867 15 112.867C14.7372 112.867 14.4771 112.919 14.2343 113.02C13.9916 113.12 13.771 113.268 13.5852 113.453C13.3994 113.639 13.252 113.86 13.1515 114.102C13.0509 114.345 12.9992 114.605 12.9992 114.868C12.9992 115.399 13.21 115.908 13.5852 116.283C13.9604 116.658 14.4693 116.869 15 116.869C15.5306 116.869 16.0396 116.658 16.4148 116.283C16.79 115.908 17.0008 115.399 17.0008 114.868Z" fill="white"/>
</g>
<path d="M0.5 193V64.41C0.5 61.3725 2.96243 58.91 6 58.91H27.5V198.5H6C2.96243 198.5 0.5 196.038 0.5 193Z" stroke="white" stroke-opacity="0.08"/>
<rect x="27.5" y="1.5" width="397" height="461.5" rx="14.5" stroke="black" stroke-width="3" shape-rendering="crispEdges"/>
</g>
</g>
<defs>
<filter id="filter0_d_1_150" x="0" y="0" width="433" height="471.5" filterUnits="userSpaceOnUse" color-interpolation-filters="sRGB">
<feFlood flood-opacity="0" result="BackgroundImageFix"/>
<feColorMatrix in="SourceAlpha" type="matrix" values="0 0 0 0 0 0 0 0 0 0 0 0 0 0 0 0 0 0 127 0" result="hardAlpha"/>
<feOffset dx="7" dy="7"/>
<feComposite in2="hardAlpha" operator="out"/>
<feColorMatrix type="matrix" values="0 0 0 0 0 0 0 0 0 0 0 0 0 0 0 0 0 0 1 0"/>
<feBlend mode="normal" in2="BackgroundImageFix" result="effect1_dropShadow_1_150"/>
<feBlend mode="normal" in="SourceGraphic" in2="effect1_dropShadow_1_150" result="shape"/>
</filter>
<filter id="filter1_d_1_150" x="61" y="127" width="334" height="43.25" filterUnits="userSpaceOnUse" color-interpolation-filters="sRGB">
<feFlood flood-opacity="0" result="BackgroundImageFix"/>
<feColorMatrix in="SourceAlpha" type="matrix" values="0 0 0 0 0 0 0 0 0 0 0 0 0 0 0 0 0 0 127 0" result="hardAlpha"/>
<feMorphology radius="1" operator="dilate" in="SourceAlpha" result="effect1_dropShadow_1_150"/>
<feOffset dx="3" dy="2"/>
<feComposite in2="hardAlpha" operator="out"/>
<feColorMatrix type="matrix" values="0 0 0 0 0 0 0 0 0 0 0 0 0 0 0 0 0 0 1 0"/>
<feBlend mode="normal" in2="BackgroundImageFix" result="effect1_dropShadow_1_150"/>
<feBlend mode="normal" in="SourceGraphic" in2="effect1_dropShadow_1_150" result="shape"/>
</filter>
<filter id="filter2_d_1_150" x="61" y="271.34" width="333" height="43.25" filterUnits="userSpaceOnUse" color-interpolation-filters="sRGB">
<feFlood flood-opacity="0" result="BackgroundImageFix"/>
<feColorMatrix in="SourceAlpha" type="matrix" values="0 0 0 0 0 0 0 0 0 0 0 0 0 0 0 0 0 0 127 0" result="hardAlpha"/>
<feOffset dx="3" dy="3"/>
<feComposite in2="hardAlpha" operator="out"/>
<feColorMatrix type="matrix" values="0 0 0 0 0 0 0 0 0 0 0 0 0 0 0 0 0 0 1 0"/>
<feBlend mode="normal" in2="BackgroundImageFix" result="effect1_dropShadow_1_150"/>
<feBlend mode="normal" in="SourceGraphic" in2="effect1_dropShadow_1_150" result="shape"/>
</filter>
<filter id="filter3_d_1_150" x="61" y="327.25" width="333" height="39" filterUnits="userSpaceOnUse" color-interpolation-filters="sRGB">
<feFlood flood-opacity="0" result="BackgroundImageFix"/>
<feColorMatrix in="SourceAlpha" type="matrix" values="0 0 0 0 0 0 0 0 0 0 0 0 0 0 0 0 0 0 127 0" result="hardAlpha"/>
<feOffset dx="3" dy="3"/>
<feComposite in2="hardAlpha" operator="out"/>
<feColorMatrix type="matrix" values="0 0 0 0 0 0 0 0 0 0 0 0 0 0 0 0 0 0 1 0"/>
<feBlend mode="normal" in2="BackgroundImageFix" result="effect1_dropShadow_1_150"/>
<feBlend mode="normal" in="SourceGraphic" in2="effect1_dropShadow_1_150" result="shape"/>
</filter>
<clipPath id="clip0_1_150">
<rect width="433" height="472" fill="white"/>
</clipPath>
<clipPath id="clip1_1_150">
<rect width="222" height="16.25" fill="white" transform="translate(115 139)"/>
</clipPath>
<clipPath id="clip2_1_150">
<rect width="16" height="16" fill="white" transform="translate(67 139.13)"/>
</clipPath>
<clipPath id="clip3_1_150">
<rect width="16" height="16" fill="white" transform="translate(67 139.13)"/>
</clipPath>
<clipPath id="clip4_1_150">
<rect width="48" height="14" fill="white" transform="matrix(0 -1 1 0 8 123.41)"/>
</clipPath>
</defs>
</svg>
