<svg width="428" height="455" viewBox="0 0 428 455" fill="none" xmlns="http://www.w3.org/2000/svg">
<g clip-path="url(#clip0_1_149)">
<rect x="28" width="400" height="454.5" rx="16" fill="#403D76"/>
<path d="M61.7227 56.0117L64.5352 55.7383C64.7044 56.6823 65.0462 57.3757 65.5605 57.8184C66.0814 58.2611 66.7812 58.4824 67.6602 58.4824C68.5911 58.4824 69.291 58.2871 69.7598 57.8965C70.235 57.4993 70.4727 57.0371 70.4727 56.5098C70.4727 56.1712 70.3717 55.8848 70.1699 55.6504C69.9746 55.4095 69.6296 55.2012 69.1348 55.0254C68.7962 54.9082 68.0247 54.6999 66.8203 54.4004C65.2708 54.0163 64.1836 53.5443 63.5586 52.9844C62.6797 52.1966 62.2402 51.2363 62.2402 50.1035C62.2402 49.3743 62.4453 48.694 62.8555 48.0625C63.2721 47.4245 63.8678 46.9395 64.6426 46.6074C65.4238 46.2754 66.3646 46.1094 67.4648 46.1094C69.2617 46.1094 70.6126 46.5033 71.5176 47.291C72.429 48.0788 72.9076 49.1302 72.9531 50.4453L70.0625 50.5723C69.9388 49.8366 69.6719 49.3092 69.2617 48.9902C68.8581 48.6647 68.2493 48.502 67.4355 48.502C66.5957 48.502 65.9382 48.6745 65.4629 49.0195C65.1569 49.2409 65.0039 49.5371 65.0039 49.9082C65.0039 50.2467 65.1471 50.5365 65.4336 50.7773C65.7982 51.0833 66.6836 51.4023 68.0898 51.7344C69.4961 52.0664 70.5345 52.4115 71.2051 52.7695C71.8822 53.1211 72.4095 53.6061 72.7871 54.2246C73.1712 54.8366 73.3633 55.5951 73.3633 56.5C73.3633 57.3203 73.1354 58.0885 72.6797 58.8047C72.224 59.5208 71.5794 60.0547 70.7461 60.4062C69.9128 60.7513 68.8743 60.9238 67.6309 60.9238C65.821 60.9238 64.431 60.5072 63.4609 59.6738C62.4909 58.834 61.9115 57.6133 61.7227 56.0117ZM75.7754 48.8926V46.3535H78.5195V48.8926H75.7754ZM75.7754 60.6699V50.2988H78.5195V60.6699H75.7754ZM81.0879 61.3535L84.2227 61.7344C84.2747 62.099 84.3952 62.3496 84.584 62.4863C84.8444 62.6816 85.2546 62.7793 85.8145 62.7793C86.5306 62.7793 87.0677 62.6719 87.4258 62.457C87.6667 62.3138 87.849 62.0827 87.9727 61.7637C88.0573 61.5358 88.0996 61.1159 88.0996 60.5039V58.9902C87.2793 60.11 86.2441 60.6699 84.9941 60.6699C83.6009 60.6699 82.4974 60.0807 81.6836 58.9023C81.0456 57.9714 80.7266 56.8125 80.7266 55.4258C80.7266 53.6875 81.1432 52.3594 81.9766 51.4414C82.8164 50.5234 83.8581 50.0645 85.1016 50.0645C86.3841 50.0645 87.4421 50.6276 88.2754 51.7539V50.2988H90.8438V59.6055C90.8438 60.8294 90.7428 61.7441 90.541 62.3496C90.3392 62.9551 90.056 63.4303 89.6914 63.7754C89.3268 64.1204 88.8385 64.3906 88.2266 64.5859C87.6211 64.7812 86.8529 64.8789 85.9219 64.8789C84.1641 64.8789 82.9173 64.5762 82.1816 63.9707C81.446 63.3717 81.0781 62.61 81.0781 61.6855C81.0781 61.5944 81.0814 61.4837 81.0879 61.3535ZM83.5391 55.2695C83.5391 56.3698 83.7507 57.1771 84.1738 57.6914C84.6035 58.1992 85.1309 58.4531 85.7559 58.4531C86.4264 58.4531 86.9928 58.1927 87.4551 57.6719C87.9173 57.1445 88.1484 56.3665 88.1484 55.3379C88.1484 54.2637 87.9271 53.4661 87.4844 52.9453C87.0417 52.4245 86.4818 52.1641 85.8047 52.1641C85.1471 52.1641 84.6035 52.4212 84.1738 52.9355C83.7507 53.4434 83.5391 54.2214 83.5391 55.2695ZM103.002 60.6699H100.258V55.377C100.258 54.2572 100.199 53.5345 100.082 53.209C99.9648 52.877 99.7728 52.6198 99.5059 52.4375C99.2454 52.2552 98.9297 52.1641 98.5586 52.1641C98.0833 52.1641 97.6569 52.2943 97.2793 52.5547C96.9017 52.8151 96.6413 53.1602 96.498 53.5898C96.3613 54.0195 96.293 54.8138 96.293 55.9727V60.6699H93.5488V50.2988H96.0977V51.8223C97.0026 50.6504 98.1419 50.0645 99.5156 50.0645C100.121 50.0645 100.674 50.1751 101.176 50.3965C101.677 50.6113 102.055 50.888 102.309 51.2266C102.569 51.5651 102.748 51.9492 102.846 52.3789C102.95 52.8086 103.002 53.4238 103.002 54.2246V60.6699ZM111.361 48.8926V46.3535H114.105V48.8926H111.361ZM111.361 60.6699V50.2988H114.105V60.6699H111.361ZM126.361 60.6699H123.617V55.377C123.617 54.2572 123.559 53.5345 123.441 53.209C123.324 52.877 123.132 52.6198 122.865 52.4375C122.605 52.2552 122.289 52.1641 121.918 52.1641C121.443 52.1641 121.016 52.2943 120.639 52.5547C120.261 52.8151 120.001 53.1602 119.857 53.5898C119.721 54.0195 119.652 54.8138 119.652 55.9727V60.6699H116.908V50.2988H119.457V51.8223C120.362 50.6504 121.501 50.0645 122.875 50.0645C123.48 50.0645 124.034 50.1751 124.535 50.3965C125.036 50.6113 125.414 50.888 125.668 51.2266C125.928 51.5651 126.107 51.9492 126.205 52.3789C126.309 52.8086 126.361 53.4238 126.361 54.2246V60.6699Z" fill="white"/>
<path d="M64.4141 87.7422L64.5703 88.9844C64.2526 89.0677 63.9661 89.1094 63.7109 89.1094C63.3099 89.1094 62.987 89.0312 62.7422 88.875C62.4974 88.7135 62.3281 88.4948 62.2344 88.2188C62.1458 87.9427 62.1016 87.3932 62.1016 86.5703V81.7969H61.2578V80.7031H62.1016V78.6484L63.25 77.8047V80.7031H64.4141V81.7969H63.25V86.6484C63.25 87.0964 63.2839 87.3854 63.3516 87.5156C63.4505 87.7031 63.6354 87.7969 63.9062 87.7969C64.0365 87.7969 64.2057 87.7786 64.4141 87.7422ZM65.0703 84.8516C65.0703 83.4193 65.3698 82.3385 65.9688 81.6094C66.5729 80.8802 67.3359 80.5156 68.2578 80.5156C69.1641 80.5156 69.9219 80.8802 70.5312 81.6094C71.1406 82.3385 71.4453 83.3906 71.4453 84.7656C71.4453 86.2552 71.1458 87.3646 70.5469 88.0938C69.9479 88.8229 69.1849 89.1875 68.2578 89.1875C67.3464 89.1875 66.5859 88.8229 65.9766 88.0938C65.3724 87.3594 65.0703 86.2786 65.0703 84.8516ZM66.25 84.8516C66.25 85.9245 66.4453 86.724 66.8359 87.25C67.2266 87.7708 67.7109 88.0312 68.2891 88.0312C68.8307 88.0312 69.2943 87.7682 69.6797 87.2422C70.0703 86.7109 70.2656 85.9141 70.2656 84.8516C70.2656 83.7839 70.0703 82.9896 69.6797 82.4688C69.2891 81.9427 68.8047 81.6797 68.2266 81.6797C67.6797 81.6797 67.2135 81.9427 66.8281 82.4688C66.4427 82.9948 66.25 83.7891 66.25 84.8516ZM80.9141 85.9609L82.0469 86.1406C81.9167 87.1302 81.5885 87.8854 81.0625 88.4062C80.5417 88.9271 79.9141 89.1875 79.1797 89.1875C78.2891 89.1875 77.5547 88.8229 76.9766 88.0938C76.4036 87.3594 76.1172 86.276 76.1172 84.8438C76.1172 83.401 76.4062 82.3203 76.9844 81.6016C77.5677 80.8776 78.3151 80.5156 79.2266 80.5156C79.9297 80.5156 80.5208 80.7344 81 81.1719C81.4844 81.6094 81.7943 82.2656 81.9297 83.1406L80.8125 83.3516C80.7031 82.7891 80.513 82.3698 80.2422 82.0938C79.9714 81.8125 79.6458 81.6719 79.2656 81.6719C78.6979 81.6719 78.2266 81.9245 77.8516 82.4297C77.4818 82.9297 77.2969 83.7266 77.2969 84.8203C77.2969 85.9505 77.474 86.7682 77.8281 87.2734C78.1875 87.7786 78.6458 88.0312 79.2031 88.0312C79.6406 88.0312 80.013 87.8646 80.3203 87.5312C80.6328 87.1927 80.8307 86.6693 80.9141 85.9609ZM82.5859 84.8516C82.5859 83.4193 82.8854 82.3385 83.4844 81.6094C84.0885 80.8802 84.8516 80.5156 85.7734 80.5156C86.6797 80.5156 87.4375 80.8802 88.0469 81.6094C88.6562 82.3385 88.9609 83.3906 88.9609 84.7656C88.9609 86.2552 88.6615 87.3646 88.0625 88.0938C87.4635 88.8229 86.7005 89.1875 85.7734 89.1875C84.862 89.1875 84.1016 88.8229 83.4922 88.0938C82.888 87.3594 82.5859 86.2786 82.5859 84.8516ZM83.7656 84.8516C83.7656 85.9245 83.9609 86.724 84.3516 87.25C84.7422 87.7708 85.2266 88.0312 85.8047 88.0312C86.3464 88.0312 86.8099 87.7682 87.1953 87.2422C87.5859 86.7109 87.7812 85.9141 87.7812 84.8516C87.7812 83.7839 87.5859 82.9896 87.1953 82.4688C86.8047 81.9427 86.3203 81.6797 85.7422 81.6797C85.1953 81.6797 84.7292 81.9427 84.3438 82.4688C83.9583 82.9948 83.7656 83.7891 83.7656 84.8516ZM90.3125 89V80.7031H91.3516V81.8828C91.6016 81.4245 91.9062 81.0833 92.2656 80.8594C92.6302 80.6302 93.0469 80.5156 93.5156 80.5156C93.8802 80.5156 94.2161 80.5885 94.5234 80.7344C94.8359 80.875 95.0859 81.0625 95.2734 81.2969C95.4661 81.526 95.6094 81.8255 95.7031 82.1953C95.7969 82.5651 95.8438 83.1328 95.8438 83.8984V89H94.6875V83.9531C94.6875 83.3438 94.6354 82.8984 94.5312 82.6172C94.4271 82.3359 94.263 82.1198 94.0391 81.9688C93.8203 81.8125 93.5651 81.7344 93.2734 81.7344C92.7214 81.7344 92.2812 81.9401 91.9531 82.3516C91.625 82.763 91.4609 83.4688 91.4609 84.4688V89H90.3125ZM100.18 87.7422L100.336 88.9844C100.018 89.0677 99.7318 89.1094 99.4766 89.1094C99.0755 89.1094 98.7526 89.0312 98.5078 88.875C98.263 88.7135 98.0938 88.4948 98 88.2188C97.9115 87.9427 97.8672 87.3932 97.8672 86.5703V81.7969H97.0234V80.7031H97.8672V78.6484L99.0156 77.8047V80.7031H100.18V81.7969H99.0156V86.6484C99.0156 87.0964 99.0495 87.3854 99.1172 87.5156C99.2161 87.7031 99.401 87.7969 99.6719 87.7969C99.8021 87.7969 99.9714 87.7786 100.18 87.7422ZM101.266 79.1641V77.5469H102.414V79.1641H101.266ZM101.266 89V80.7031H102.414V89H101.266ZM104.188 89V80.7031H105.227V81.8828C105.477 81.4245 105.781 81.0833 106.141 80.8594C106.505 80.6302 106.922 80.5156 107.391 80.5156C107.755 80.5156 108.091 80.5885 108.398 80.7344C108.711 80.875 108.961 81.0625 109.148 81.2969C109.341 81.526 109.484 81.8255 109.578 82.1953C109.672 82.5651 109.719 83.1328 109.719 83.8984V89H108.562V83.9531C108.562 83.3438 108.51 82.8984 108.406 82.6172C108.302 82.3359 108.138 82.1198 107.914 81.9688C107.695 81.8125 107.44 81.7344 107.148 81.7344C106.596 81.7344 106.156 81.9401 105.828 82.3516C105.5 82.763 105.336 83.4688 105.336 84.4688V89H104.188ZM115.945 89V87.7812C115.68 88.25 115.367 88.6016 115.008 88.8359C114.648 89.0703 114.242 89.1875 113.789 89.1875C113.253 89.1875 112.794 89.0443 112.414 88.7578C112.034 88.4661 111.779 88.099 111.648 87.6562C111.523 87.2135 111.461 86.6094 111.461 85.8438V80.7031H112.609V85.3047C112.609 86.1589 112.651 86.7318 112.734 87.0234C112.823 87.3099 112.982 87.5417 113.211 87.7188C113.445 87.8906 113.711 87.9766 114.008 87.9766C114.56 87.9766 115.013 87.75 115.367 87.2969C115.669 86.9062 115.82 86.1901 115.82 85.1484V80.7031H116.977V89H115.945ZM123.438 86.3281L124.625 86.5078C124.427 87.3932 124.068 88.0625 123.547 88.5156C123.031 88.9635 122.391 89.1875 121.625 89.1875C120.661 89.1875 119.88 88.8229 119.281 88.0938C118.688 87.3594 118.391 86.3021 118.391 84.9219C118.391 83.4896 118.69 82.3984 119.289 81.6484C119.893 80.8932 120.656 80.5156 121.578 80.5156C122.458 80.5156 123.193 80.8854 123.781 81.625C124.37 82.3646 124.664 83.4349 124.664 84.8359L124.656 85.2109H119.578C119.625 86.1432 119.841 86.8464 120.227 87.3203C120.612 87.7943 121.081 88.0312 121.633 88.0312C122.497 88.0312 123.099 87.4635 123.438 86.3281ZM119.648 84.0547H123.445C123.393 83.3359 123.24 82.7995 122.984 82.4453C122.615 81.9297 122.143 81.6719 121.57 81.6719C121.055 81.6719 120.615 81.888 120.25 82.3203C119.885 82.7474 119.685 83.3255 119.648 84.0547ZM132.305 87.7422L132.461 88.9844C132.143 89.0677 131.857 89.1094 131.602 89.1094C131.201 89.1094 130.878 89.0312 130.633 88.875C130.388 88.7135 130.219 88.4948 130.125 88.2188C130.036 87.9427 129.992 87.3932 129.992 86.5703V81.7969H129.148V80.7031H129.992V78.6484L131.141 77.8047V80.7031H132.305V81.7969H131.141V86.6484C131.141 87.0964 131.174 87.3854 131.242 87.5156C131.341 87.7031 131.526 87.7969 131.797 87.7969C131.927 87.7969 132.096 87.7786 132.305 87.7422ZM132.961 84.8516C132.961 83.4193 133.26 82.3385 133.859 81.6094C134.464 80.8802 135.227 80.5156 136.148 80.5156C137.055 80.5156 137.812 80.8802 138.422 81.6094C139.031 82.3385 139.336 83.3906 139.336 84.7656C139.336 86.2552 139.036 87.3646 138.438 88.0938C137.839 88.8229 137.076 89.1875 136.148 89.1875C135.237 89.1875 134.477 88.8229 133.867 88.0938C133.263 87.3594 132.961 86.2786 132.961 84.8516ZM134.141 84.8516C134.141 85.9245 134.336 86.724 134.727 87.25C135.117 87.7708 135.602 88.0312 136.18 88.0312C136.721 88.0312 137.185 87.7682 137.57 87.2422C137.961 86.7109 138.156 85.9141 138.156 84.8516C138.156 83.7839 137.961 82.9896 137.57 82.4688C137.18 81.9427 136.695 81.6797 136.117 81.6797C135.57 81.6797 135.104 81.9427 134.719 82.4688C134.333 82.9948 134.141 83.7891 134.141 84.8516ZM144.477 89V77.5469H146.344L148.57 85.6562L149.016 87.3516C149.125 86.9297 149.292 86.3177 149.516 85.5156L151.766 77.5469H153.438V89H152.242V79.4141L149.508 89H148.391L145.672 79.25V89H144.477ZM155.25 92.1953L155.125 90.875C155.38 90.9583 155.599 91 155.781 91C156.026 91 156.227 90.9505 156.383 90.8516C156.544 90.7526 156.677 90.599 156.781 90.3906C156.818 90.3177 156.969 89.8594 157.234 89.0156L154.648 80.7031H155.891L157.312 85.5078C157.49 86.1068 157.654 86.7474 157.805 87.4297C157.935 86.7839 158.091 86.1536 158.273 85.5391L159.727 80.7031H160.883L158.297 89.1406C157.958 90.2344 157.69 90.9635 157.492 91.3281C157.299 91.6979 157.078 91.9635 156.828 92.125C156.583 92.2865 156.305 92.3672 155.992 92.3672C155.773 92.3672 155.526 92.3099 155.25 92.1953ZM163.922 89L167.531 77.5469H168.867L172.711 89H171.289L170.195 85.5312H166.273L165.242 89H163.922ZM166.633 84.2969H169.812L168.836 81.125C168.534 80.151 168.312 79.3594 168.172 78.75C168.052 79.4844 167.883 80.2135 167.664 80.9375L166.633 84.2969ZM173.531 92.1797V80.7031H174.586V81.7812C174.846 81.3333 175.135 81.0104 175.453 80.8125C175.771 80.6146 176.135 80.5156 176.547 80.5156C177.083 80.5156 177.568 80.6745 178 80.9922C178.432 81.3099 178.779 81.7943 179.039 82.4453C179.305 83.0911 179.438 83.8698 179.438 84.7812C179.438 86.1927 179.141 87.2812 178.547 88.0469C177.958 88.8073 177.266 89.1875 176.469 89.1875C176.115 89.1875 175.784 89.0964 175.477 88.9141C175.169 88.7318 174.904 88.474 174.68 88.1406V92.1797H173.531ZM174.57 84.8984C174.57 85.9714 174.75 86.763 175.109 87.2734C175.469 87.7786 175.904 88.0312 176.414 88.0312C176.904 88.0312 177.333 87.7682 177.703 87.2422C178.073 86.7161 178.258 85.9036 178.258 84.8047C178.258 83.7214 178.078 82.9193 177.719 82.3984C177.359 81.8776 176.922 81.6172 176.406 81.6172C175.943 81.6172 175.521 81.8984 175.141 82.4609C174.76 83.0182 174.57 83.8307 174.57 84.8984ZM180.828 92.1797V80.7031H181.883V81.7812C182.143 81.3333 182.432 81.0104 182.75 80.8125C183.068 80.6146 183.432 80.5156 183.844 80.5156C184.38 80.5156 184.865 80.6745 185.297 80.9922C185.729 81.3099 186.076 81.7943 186.336 82.4453C186.602 83.0911 186.734 83.8698 186.734 84.7812C186.734 86.1927 186.438 87.2812 185.844 88.0469C185.255 88.8073 184.562 89.1875 183.766 89.1875C183.411 89.1875 183.081 89.0964 182.773 88.9141C182.466 88.7318 182.201 88.474 181.977 88.1406V92.1797H180.828ZM181.867 84.8984C181.867 85.9714 182.047 86.763 182.406 87.2734C182.766 87.7786 183.201 88.0312 183.711 88.0312C184.201 88.0312 184.63 87.7682 185 87.2422C185.37 86.7161 185.555 85.9036 185.555 84.8047C185.555 83.7214 185.375 82.9193 185.016 82.3984C184.656 81.8776 184.219 81.6172 183.703 81.6172C183.24 81.6172 182.818 81.8984 182.438 82.4609C182.057 83.0182 181.867 83.8307 181.867 84.8984ZM188.094 89V77.5469H189.242V89H188.094ZM191.047 79.1641V77.5469H192.195V79.1641H191.047ZM191.047 89V80.7031H192.195V89H191.047ZM198.43 85.9609L199.562 86.1406C199.432 87.1302 199.104 87.8854 198.578 88.4062C198.057 88.9271 197.43 89.1875 196.695 89.1875C195.805 89.1875 195.07 88.8229 194.492 88.0938C193.919 87.3594 193.633 86.276 193.633 84.8438C193.633 83.401 193.922 82.3203 194.5 81.6016C195.083 80.8776 195.831 80.5156 196.742 80.5156C197.445 80.5156 198.036 80.7344 198.516 81.1719C199 81.6094 199.31 82.2656 199.445 83.1406L198.328 83.3516C198.219 82.7891 198.029 82.3698 197.758 82.0938C197.487 81.8125 197.161 81.6719 196.781 81.6719C196.214 81.6719 195.742 81.9245 195.367 82.4297C194.997 82.9297 194.812 83.7266 194.812 84.8203C194.812 85.9505 194.99 86.7682 195.344 87.2734C195.703 87.7786 196.161 88.0312 196.719 88.0312C197.156 88.0312 197.529 87.8646 197.836 87.5312C198.148 87.1927 198.346 86.6693 198.43 85.9609ZM204.969 87.9766C204.583 88.3776 204.182 88.6797 203.766 88.8828C203.349 89.0859 202.917 89.1875 202.469 89.1875C201.76 89.1875 201.195 88.974 200.773 88.5469C200.352 88.1198 200.141 87.5443 200.141 86.8203C200.141 86.3411 200.24 85.9167 200.438 85.5469C200.635 85.1771 200.906 84.888 201.25 84.6797C201.594 84.4714 202.115 84.3177 202.812 84.2188C203.75 84.0833 204.438 83.9219 204.875 83.7344L204.883 83.375C204.883 82.8073 204.781 82.4089 204.578 82.1797C204.292 81.8464 203.852 81.6797 203.258 81.6797C202.721 81.6797 202.32 81.7917 202.055 82.0156C201.789 82.2344 201.594 82.6484 201.469 83.2578L200.336 83.0703C200.497 82.1797 200.823 81.5312 201.312 81.125C201.807 80.7188 202.513 80.5156 203.43 80.5156C204.143 80.5156 204.703 80.651 205.109 80.9219C205.516 81.1875 205.771 81.5182 205.875 81.9141C205.984 82.3099 206.039 82.888 206.039 83.6484V85.5234C206.039 86.8359 206.062 87.6641 206.109 88.0078C206.161 88.3464 206.26 88.6771 206.406 89H205.203C205.083 88.7135 205.005 88.3724 204.969 87.9766ZM204.875 84.8359C204.453 85.0443 203.826 85.2214 202.992 85.3672C202.508 85.4505 202.169 85.5469 201.977 85.6562C201.784 85.7604 201.633 85.9115 201.523 86.1094C201.419 86.3021 201.367 86.526 201.367 86.7812C201.367 87.1771 201.49 87.4948 201.734 87.7344C201.979 87.9688 202.318 88.0859 202.75 88.0859C203.161 88.0859 203.534 87.9792 203.867 87.7656C204.206 87.5521 204.458 87.2682 204.625 86.9141C204.792 86.5547 204.875 86.0339 204.875 85.3516V84.8359ZM210.398 87.7422L210.555 88.9844C210.237 89.0677 209.951 89.1094 209.695 89.1094C209.294 89.1094 208.971 89.0312 208.727 88.875C208.482 88.7135 208.312 88.4948 208.219 88.2188C208.13 87.9427 208.086 87.3932 208.086 86.5703V81.7969H207.242V80.7031H208.086V78.6484L209.234 77.8047V80.7031H210.398V81.7969H209.234V86.6484C209.234 87.0964 209.268 87.3854 209.336 87.5156C209.435 87.7031 209.62 87.7969 209.891 87.7969C210.021 87.7969 210.19 87.7786 210.398 87.7422ZM211.484 79.1641V77.5469H212.633V79.1641H211.484ZM211.484 89V80.7031H212.633V89H211.484ZM213.977 84.8516C213.977 83.4193 214.276 82.3385 214.875 81.6094C215.479 80.8802 216.242 80.5156 217.164 80.5156C218.07 80.5156 218.828 80.8802 219.438 81.6094C220.047 82.3385 220.352 83.3906 220.352 84.7656C220.352 86.2552 220.052 87.3646 219.453 88.0938C218.854 88.8229 218.091 89.1875 217.164 89.1875C216.253 89.1875 215.492 88.8229 214.883 88.0938C214.279 87.3594 213.977 86.2786 213.977 84.8516ZM215.156 84.8516C215.156 85.9245 215.352 86.724 215.742 87.25C216.133 87.7708 216.617 88.0312 217.195 88.0312C217.737 88.0312 218.201 87.7682 218.586 87.2422C218.977 86.7109 219.172 85.9141 219.172 84.8516C219.172 83.7839 218.977 82.9896 218.586 82.4688C218.195 81.9427 217.711 81.6797 217.133 81.6797C216.586 81.6797 216.12 81.9427 215.734 82.4688C215.349 82.9948 215.156 83.7891 215.156 84.8516ZM221.703 89V80.7031H222.742V81.8828C222.992 81.4245 223.297 81.0833 223.656 80.8594C224.021 80.6302 224.438 80.5156 224.906 80.5156C225.271 80.5156 225.607 80.5885 225.914 80.7344C226.227 80.875 226.477 81.0625 226.664 81.2969C226.857 81.526 227 81.8255 227.094 82.1953C227.188 82.5651 227.234 83.1328 227.234 83.8984V89H226.078V83.9531C226.078 83.3438 226.026 82.8984 225.922 82.6172C225.818 82.3359 225.654 82.1198 225.43 81.9688C225.211 81.8125 224.956 81.7344 224.664 81.7344C224.112 81.7344 223.672 81.9401 223.344 82.3516C223.016 82.763 222.852 83.4688 222.852 84.4688V89H221.703Z" fill="white" fill-opacity="0.65"/>
<g clip-path="url(#clip1_1_149)">
<path d="M144.499 144.407L145.515 144.718C145.29 145.764 144.897 146.544 144.334 147.061C143.775 147.573 143.094 147.829 142.29 147.829C141.583 147.829 140.978 147.657 140.475 147.314C139.975 146.967 139.565 146.413 139.243 145.651C138.926 144.89 138.767 143.99 138.767 142.954C138.767 141.93 138.926 141.064 139.243 140.357C139.565 139.646 139.999 139.111 140.544 138.751C141.09 138.388 141.7 138.206 142.373 138.206C143.109 138.206 143.742 138.436 144.271 138.897C144.799 139.354 145.17 140.027 145.381 140.916L144.391 141.202C144.053 139.907 143.373 139.259 142.354 139.259C141.846 139.259 141.406 139.39 141.033 139.653C140.661 139.911 140.362 140.315 140.138 140.865C139.918 141.415 139.808 142.111 139.808 142.954C139.808 144.227 140.032 145.184 140.481 145.823C140.93 146.458 141.526 146.775 142.271 146.775C142.821 146.775 143.295 146.58 143.693 146.191C144.095 145.797 144.364 145.203 144.499 144.407ZM146.789 144.299C146.789 143.136 147.032 142.257 147.519 141.665C148.01 141.073 148.63 140.776 149.379 140.776C150.115 140.776 150.731 141.073 151.226 141.665C151.721 142.257 151.969 143.112 151.969 144.229C151.969 145.44 151.725 146.341 151.239 146.934C150.752 147.526 150.132 147.822 149.379 147.822C148.638 147.822 148.021 147.526 147.525 146.934C147.035 146.337 146.789 145.459 146.789 144.299ZM147.748 144.299C147.748 145.171 147.906 145.821 148.224 146.248C148.541 146.671 148.935 146.883 149.404 146.883C149.844 146.883 150.221 146.669 150.534 146.242C150.852 145.81 151.01 145.163 151.01 144.299C151.01 143.432 150.852 142.786 150.534 142.363C150.217 141.936 149.823 141.722 149.354 141.722C148.909 141.722 148.53 141.936 148.217 142.363C147.904 142.791 147.748 143.436 147.748 144.299ZM153.567 147.67V140.929H154.411V141.887C154.614 141.515 154.862 141.238 155.154 141.056C155.45 140.869 155.789 140.776 156.169 140.776C156.466 140.776 156.739 140.836 156.988 140.954C157.242 141.068 157.445 141.221 157.598 141.411C157.754 141.597 157.871 141.841 157.947 142.141C158.023 142.442 158.061 142.903 158.061 143.525V147.67H157.122V143.569C157.122 143.074 157.079 142.712 156.995 142.484C156.91 142.255 156.777 142.08 156.595 141.957C156.417 141.83 156.21 141.767 155.973 141.767C155.524 141.767 155.167 141.934 154.9 142.268C154.633 142.602 154.5 143.176 154.5 143.988V147.67H153.567ZM162.084 146.648L162.211 147.657C161.953 147.725 161.72 147.759 161.513 147.759C161.187 147.759 160.924 147.695 160.726 147.568C160.527 147.437 160.389 147.259 160.313 147.035C160.241 146.811 160.205 146.364 160.205 145.696V141.817H159.52V140.929H160.205V139.259L161.138 138.574V140.929H162.084V141.817H161.138V145.759C161.138 146.123 161.166 146.358 161.221 146.464C161.301 146.616 161.451 146.692 161.671 146.692C161.777 146.692 161.915 146.678 162.084 146.648ZM163.466 139.678V138.364H164.399V139.678H163.466ZM163.466 147.67V140.929H164.399V147.67H163.466ZM166.34 147.67V140.929H167.185V141.887C167.388 141.515 167.635 141.238 167.927 141.056C168.223 140.869 168.562 140.776 168.943 140.776C169.239 140.776 169.512 140.836 169.762 140.954C170.016 141.068 170.219 141.221 170.371 141.411C170.528 141.597 170.644 141.841 170.72 142.141C170.796 142.442 170.834 142.903 170.834 143.525V147.67H169.895V143.569C169.895 143.074 169.853 142.712 169.768 142.484C169.683 142.255 169.55 142.08 169.368 141.957C169.19 141.83 168.983 141.767 168.746 141.767C168.298 141.767 167.94 141.934 167.673 142.268C167.407 142.602 167.273 143.176 167.273 143.988V147.67H166.34ZM176.394 147.67V146.68C176.178 147.061 175.924 147.346 175.632 147.537C175.34 147.727 175.01 147.822 174.642 147.822C174.206 147.822 173.833 147.706 173.524 147.473C173.215 147.236 173.008 146.938 172.902 146.578C172.801 146.218 172.75 145.728 172.75 145.105V140.929H173.683V144.667C173.683 145.361 173.717 145.827 173.785 146.064C173.857 146.297 173.986 146.485 174.172 146.629C174.362 146.769 174.578 146.838 174.819 146.838C175.268 146.838 175.636 146.654 175.924 146.286C176.169 145.969 176.292 145.387 176.292 144.541V140.929H177.231V147.67H176.394ZM182.981 145.499L183.946 145.645C183.785 146.364 183.493 146.908 183.07 147.276C182.651 147.64 182.13 147.822 181.508 147.822C180.725 147.822 180.091 147.526 179.604 146.934C179.122 146.337 178.88 145.478 178.88 144.356C178.88 143.193 179.124 142.306 179.61 141.697C180.101 141.083 180.721 140.776 181.47 140.776C182.185 140.776 182.782 141.077 183.26 141.678C183.738 142.279 183.978 143.148 183.978 144.287L183.971 144.591H179.845C179.883 145.349 180.059 145.92 180.372 146.305C180.685 146.69 181.066 146.883 181.515 146.883C182.217 146.883 182.706 146.422 182.981 145.499ZM179.902 143.652H182.987C182.945 143.068 182.82 142.632 182.613 142.344C182.312 141.925 181.929 141.716 181.464 141.716C181.045 141.716 180.687 141.891 180.391 142.243C180.095 142.59 179.932 143.059 179.902 143.652ZM190.113 147.67L188.424 140.929H189.396L190.271 144.82L190.595 146.267L190.887 144.877L191.763 140.929H192.728L193.553 144.839L193.833 146.127L194.15 144.826L195.096 140.929H196.01L194.277 147.67H193.306L192.423 143.633L192.214 142.484L191.097 147.67H190.113ZM197.291 139.678V138.364H198.224V139.678H197.291ZM197.291 147.67V140.929H198.224V147.67H197.291ZM202.253 146.648L202.38 147.657C202.122 147.725 201.889 147.759 201.682 147.759C201.356 147.759 201.093 147.695 200.895 147.568C200.696 147.437 200.558 147.259 200.482 147.035C200.41 146.811 200.374 146.364 200.374 145.696V141.817H199.688V140.929H200.374V139.259L201.307 138.574V140.929H202.253V141.817H201.307V145.759C201.307 146.123 201.335 146.358 201.39 146.464C201.47 146.616 201.62 146.692 201.84 146.692C201.946 146.692 202.084 146.678 202.253 146.648ZM203.635 147.67V138.364H204.568V141.703C204.788 141.394 205.036 141.164 205.311 141.011C205.59 140.855 205.897 140.776 206.231 140.776C206.82 140.776 207.283 140.965 207.622 141.341C207.964 141.714 208.136 142.399 208.136 143.398V147.67H207.203V143.398C207.203 142.814 207.099 142.395 206.892 142.141C206.684 141.887 206.399 141.76 206.035 141.76C205.628 141.76 205.281 141.923 204.994 142.249C204.71 142.575 204.568 143.153 204.568 143.982V147.67H203.635ZM217.267 144.02V142.928L220.498 142.922V146.375C220.003 146.857 219.491 147.221 218.962 147.467C218.433 147.708 217.889 147.829 217.331 147.829C216.586 147.829 215.921 147.642 215.337 147.27C214.753 146.898 214.29 146.354 213.947 145.639C213.609 144.924 213.439 144.064 213.439 143.062C213.439 142.046 213.611 141.161 213.954 140.408C214.296 139.655 214.745 139.101 215.299 138.745C215.854 138.385 216.51 138.206 217.267 138.206C217.826 138.206 218.314 138.309 218.733 138.517C219.152 138.724 219.497 139.018 219.768 139.399C220.039 139.78 220.242 140.302 220.377 140.967L219.47 141.271C219.347 140.747 219.193 140.355 219.006 140.097C218.82 139.835 218.575 139.63 218.27 139.481C217.965 139.333 217.623 139.259 217.242 139.259C216.687 139.259 216.209 139.395 215.807 139.666C215.409 139.932 215.088 140.349 214.842 140.916C214.601 141.483 214.48 142.175 214.48 142.992C214.48 144.236 214.741 145.169 215.261 145.791C215.782 146.409 216.459 146.718 217.292 146.718C217.69 146.718 218.097 146.623 218.511 146.432C218.93 146.242 219.262 146.015 219.508 145.753V144.02H217.267ZM221.988 144.299C221.988 143.136 222.232 142.257 222.718 141.665C223.209 141.073 223.829 140.776 224.578 140.776C225.314 140.776 225.93 141.073 226.425 141.665C226.92 142.257 227.168 143.112 227.168 144.229C227.168 145.44 226.925 146.341 226.438 146.934C225.951 147.526 225.331 147.822 224.578 147.822C223.838 147.822 223.22 147.526 222.725 146.934C222.234 146.337 221.988 145.459 221.988 144.299ZM222.947 144.299C222.947 145.171 223.105 145.821 223.423 146.248C223.74 146.671 224.134 146.883 224.604 146.883C225.044 146.883 225.42 146.669 225.733 146.242C226.051 145.81 226.209 145.163 226.209 144.299C226.209 143.432 226.051 142.786 225.733 142.363C225.416 141.936 225.022 141.722 224.553 141.722C224.108 141.722 223.73 141.936 223.417 142.363C223.103 142.791 222.947 143.436 222.947 144.299ZM228.417 144.299C228.417 143.136 228.66 142.257 229.147 141.665C229.638 141.073 230.258 140.776 231.007 140.776C231.743 140.776 232.359 141.073 232.854 141.665C233.349 142.257 233.597 143.112 233.597 144.229C233.597 145.44 233.353 146.341 232.867 146.934C232.38 147.526 231.76 147.822 231.007 147.822C230.266 147.822 229.648 147.526 229.153 146.934C228.662 146.337 228.417 145.459 228.417 144.299ZM229.375 144.299C229.375 145.171 229.534 145.821 229.852 146.248C230.169 146.671 230.562 146.883 231.032 146.883C231.472 146.883 231.849 146.669 232.162 146.242C232.479 145.81 232.638 145.163 232.638 144.299C232.638 143.432 232.479 142.786 232.162 142.363C231.845 141.936 231.451 141.722 230.981 141.722C230.537 141.722 230.158 141.936 229.845 142.363C229.532 142.791 229.375 143.436 229.375 144.299ZM235.017 148.229L235.931 148.394C235.973 148.753 236.1 149.02 236.312 149.193C236.524 149.371 236.818 149.46 237.194 149.46C237.605 149.46 237.931 149.361 238.172 149.162C238.417 148.967 238.584 148.675 238.673 148.286C238.728 148.049 238.756 147.549 238.756 146.788C238.553 147.08 238.324 147.3 238.07 147.448C237.816 147.596 237.535 147.67 237.226 147.67C236.566 147.67 236.018 147.391 235.582 146.832C235.083 146.189 234.833 145.328 234.833 144.249C234.833 143.525 234.943 142.892 235.163 142.351C235.383 141.809 235.671 141.411 236.026 141.157C236.386 140.903 236.788 140.776 237.232 140.776C237.558 140.776 237.854 140.857 238.121 141.018C238.392 141.178 238.631 141.42 238.838 141.741V140.929H239.702V146.756C239.702 147.793 239.617 148.531 239.448 148.971C239.278 149.416 239.001 149.765 238.616 150.019C238.231 150.277 237.768 150.406 237.226 150.406C236.511 150.406 235.961 150.213 235.576 149.828C235.191 149.443 235.004 148.91 235.017 148.229ZM235.798 144.179C235.798 145.063 235.944 145.708 236.236 146.115C236.528 146.521 236.885 146.724 237.309 146.724C237.732 146.724 238.091 146.525 238.388 146.127C238.684 145.73 238.832 145.097 238.832 144.229C238.832 143.383 238.68 142.755 238.375 142.344C238.07 141.93 237.7 141.722 237.264 141.722C236.875 141.722 236.532 141.93 236.236 142.344C235.944 142.755 235.798 143.366 235.798 144.179ZM241.598 147.67V138.364H242.531V147.67H241.598ZM248.281 145.499L249.246 145.645C249.085 146.364 248.793 146.908 248.37 147.276C247.951 147.64 247.43 147.822 246.808 147.822C246.025 147.822 245.39 147.526 244.904 146.934C244.421 146.337 244.18 145.478 244.18 144.356C244.18 143.193 244.424 142.306 244.91 141.697C245.401 141.083 246.021 140.776 246.77 140.776C247.485 140.776 248.082 141.077 248.56 141.678C249.038 142.279 249.277 143.148 249.277 144.287L249.271 144.591H245.145C245.183 145.349 245.359 145.92 245.672 146.305C245.985 146.69 246.366 146.883 246.814 146.883C247.517 146.883 248.006 146.422 248.281 145.499ZM245.202 143.652H248.287C248.245 143.068 248.12 142.632 247.913 142.344C247.612 141.925 247.229 141.716 246.764 141.716C246.345 141.716 245.987 141.891 245.691 142.243C245.395 142.59 245.232 143.059 245.202 143.652Z" fill="white"/>
</g>
<g clip-path="url(#clip2_1_149)">
<g clip-path="url(#clip3_1_149)">
<path d="M80.2267 143.554C80.2267 143.06 80.1867 142.564 80.1013 142.079H73.256V144.874H77.176C77.0133 145.775 76.4907 146.572 75.7253 147.079V148.892H78.064C79.4373 147.628 80.2267 145.762 80.2267 143.554Z" fill="#4285F4"/>
<path d="M73.256 150.644C75.2133 150.644 76.864 150.002 78.0667 148.892L75.728 147.079C75.0773 147.522 74.2373 147.772 73.2587 147.772C71.3653 147.772 69.76 146.495 69.184 144.778H66.7707V146.647C68.0027 149.098 70.512 150.644 73.256 150.644Z" fill="#34A853"/>
<path d="M69.1813 144.778C68.8773 143.877 68.8773 142.901 69.1813 141.999V140.13H66.7707C65.7413 142.181 65.7413 144.597 66.7707 146.647L69.1813 144.778Z" fill="#FBBC04"/>
<path d="M73.256 139.002C74.2907 138.986 75.2907 139.375 76.04 140.09L78.112 138.018C76.8 136.786 75.0587 136.109 73.256 136.13C70.512 136.13 68.0027 137.677 66.7707 140.13L69.1813 141.999C69.7547 140.279 71.3627 139.002 73.256 139.002Z" fill="#EA4335"/>
</g>
</g>
<rect x="61.5" y="125.5" width="333" height="37.25" rx="5.5" stroke="white" stroke-opacity="0.08"/>
<rect x="61" y="203.69" width="145.22" height="1" fill="white" fill-opacity="0.16"/>
<path d="M222.556 205.549C222.556 204.386 222.8 203.507 223.286 202.915C223.777 202.323 224.397 202.026 225.146 202.026C225.883 202.026 226.498 202.323 226.993 202.915C227.489 203.507 227.736 204.362 227.736 205.479C227.736 206.69 227.493 207.591 227.006 208.184C226.519 208.776 225.9 209.072 225.146 209.072C224.406 209.072 223.788 208.776 223.293 208.184C222.802 207.587 222.556 206.709 222.556 205.549ZM223.515 205.549C223.515 206.421 223.674 207.071 223.991 207.498C224.308 207.921 224.702 208.133 225.172 208.133C225.612 208.133 225.988 207.919 226.302 207.492C226.619 207.06 226.778 206.413 226.778 205.549C226.778 204.682 226.619 204.036 226.302 203.613C225.984 203.186 225.591 202.972 225.121 202.972C224.677 202.972 224.298 203.186 223.985 203.613C223.671 204.041 223.515 204.686 223.515 205.549ZM228.834 208.92V202.179H229.678V203.201C229.894 202.727 230.091 202.414 230.269 202.261C230.451 202.105 230.654 202.026 230.878 202.026C231.191 202.026 231.511 202.149 231.837 202.395L231.519 203.455C231.287 203.29 231.06 203.207 230.84 203.207C230.641 203.207 230.459 203.277 230.294 203.417C230.129 203.556 230.013 203.751 229.945 204C229.827 204.436 229.767 204.9 229.767 205.391V208.92H228.834Z" fill="white" fill-opacity="0.65"/>
<rect x="249.78" y="203.69" width="145.22" height="1" fill="white" fill-opacity="0.16"/>
<path d="M61.8442 259.13V249.824H67.3604V250.922H62.8535V253.772H67.0747V254.864H62.8535V258.032H67.5381V259.13H61.8442ZM68.8076 259.13V252.389H69.6455V253.334C69.8317 252.983 70.0708 252.712 70.3628 252.522C70.6548 252.332 70.9743 252.236 71.3213 252.236C71.7106 252.236 72.0386 252.338 72.3052 252.541C72.576 252.74 72.7686 253.032 72.8828 253.417C73.1029 253.023 73.3547 252.729 73.6382 252.535C73.9259 252.336 74.2433 252.236 74.5903 252.236C75.1193 252.236 75.5361 252.416 75.8408 252.776C76.1455 253.136 76.2979 253.711 76.2979 254.502V259.13H75.3647V254.883C75.3647 254.401 75.3288 254.06 75.2568 253.861C75.1891 253.658 75.077 253.502 74.9204 253.392C74.7638 253.282 74.5882 253.227 74.3936 253.227C73.9915 253.227 73.6636 253.387 73.4097 253.709C73.1558 254.026 73.0288 254.528 73.0288 255.213V259.13H72.0894V254.75C72.0894 254.191 72.0026 253.798 71.8291 253.569C71.6598 253.341 71.425 253.227 71.1245 253.227C70.6971 253.227 70.3586 253.4 70.1089 253.747C69.8634 254.09 69.7407 254.718 69.7407 255.632V259.13H68.8076ZM81.2871 258.298C80.974 258.624 80.6481 258.87 80.3096 259.035C79.971 259.2 79.6198 259.282 79.2559 259.282C78.6803 259.282 78.2212 259.109 77.8784 258.762C77.5356 258.415 77.3643 257.947 77.3643 257.359C77.3643 256.97 77.4447 256.625 77.6055 256.324C77.7663 256.024 77.9863 255.789 78.2656 255.62C78.5449 255.45 78.9681 255.326 79.5352 255.245C80.2969 255.135 80.8555 255.004 81.2109 254.852L81.2173 254.56C81.2173 254.098 81.1348 253.775 80.9697 253.588C80.737 253.318 80.3794 253.182 79.897 253.182C79.4611 253.182 79.1353 253.273 78.9194 253.455C78.7036 253.633 78.5449 253.969 78.4434 254.464L77.5229 254.312C77.6541 253.588 77.9186 253.062 78.3164 252.731C78.7184 252.401 79.2918 252.236 80.0366 252.236C80.6164 252.236 81.0713 252.346 81.4014 252.566C81.7314 252.782 81.9388 253.051 82.0234 253.373C82.1123 253.694 82.1567 254.164 82.1567 254.782V256.305C82.1567 257.372 82.1758 258.044 82.2139 258.324C82.2562 258.599 82.3366 258.868 82.4551 259.13H81.4775C81.3802 258.897 81.3167 258.62 81.2871 258.298ZM81.2109 255.747C80.8682 255.916 80.3582 256.06 79.6812 256.178C79.2876 256.246 79.0125 256.324 78.856 256.413C78.6994 256.498 78.5767 256.62 78.4878 256.781C78.4032 256.938 78.3608 257.12 78.3608 257.327C78.3608 257.649 78.4603 257.907 78.6592 258.102C78.8581 258.292 79.1331 258.387 79.4844 258.387C79.8187 258.387 80.1213 258.3 80.3921 258.127C80.6672 257.953 80.8724 257.723 81.0078 257.435C81.1432 257.143 81.2109 256.72 81.2109 256.166V255.747ZM83.6104 251.138V249.824H84.5435V251.138H83.6104ZM83.6104 259.13V252.389H84.5435V259.13H83.6104ZM85.959 259.13V249.824H86.8921V259.13H85.959ZM94.9346 258.298C94.6214 258.624 94.2956 258.87 93.957 259.035C93.6185 259.2 93.2673 259.282 92.9033 259.282C92.3278 259.282 91.8687 259.109 91.5259 258.762C91.1831 258.415 91.0117 257.947 91.0117 257.359C91.0117 256.97 91.0921 256.625 91.2529 256.324C91.4137 256.024 91.6338 255.789 91.9131 255.62C92.1924 255.45 92.6156 255.326 93.1826 255.245C93.9443 255.135 94.5029 255.004 94.8584 254.852L94.8647 254.56C94.8647 254.098 94.7822 253.775 94.6172 253.588C94.3844 253.318 94.0269 253.182 93.5444 253.182C93.1086 253.182 92.7827 253.273 92.5669 253.455C92.3511 253.633 92.1924 253.969 92.0908 254.464L91.1704 254.312C91.3016 253.588 91.5661 253.062 91.9639 252.731C92.3659 252.401 92.9393 252.236 93.6841 252.236C94.2638 252.236 94.7188 252.346 95.0488 252.566C95.3789 252.782 95.5863 253.051 95.6709 253.373C95.7598 253.694 95.8042 254.164 95.8042 254.782V256.305C95.8042 257.372 95.8232 258.044 95.8613 258.324C95.9036 258.599 95.984 258.868 96.1025 259.13H95.125C95.0277 258.897 94.9642 258.62 94.9346 258.298ZM94.8584 255.747C94.5156 255.916 94.0057 256.06 93.3286 256.178C92.9351 256.246 92.66 256.324 92.5034 256.413C92.3468 256.498 92.2241 256.62 92.1353 256.781C92.0506 256.938 92.0083 257.12 92.0083 257.327C92.0083 257.649 92.1077 257.907 92.3066 258.102C92.5055 258.292 92.7806 258.387 93.1318 258.387C93.4661 258.387 93.7687 258.3 94.0396 258.127C94.3146 257.953 94.5199 257.723 94.6553 257.435C94.7907 257.143 94.8584 256.72 94.8584 256.166V255.747ZM100.844 259.13V258.279C100.675 258.605 100.457 258.855 100.19 259.028C99.9238 259.198 99.6361 259.282 99.3271 259.282C98.6755 259.282 98.1105 258.975 97.6323 258.362C97.1584 257.744 96.9214 256.876 96.9214 255.759C96.9214 254.993 97.0272 254.344 97.2388 253.811C97.4504 253.277 97.7318 252.882 98.083 252.624C98.4385 252.365 98.832 252.236 99.2637 252.236C99.5726 252.236 99.8582 252.319 100.121 252.484C100.387 252.645 100.607 252.871 100.781 253.163V249.824H101.72V259.13H100.844ZM97.8799 255.766C97.8799 256.637 98.0301 257.285 98.3306 257.708C98.6353 258.131 98.9886 258.343 99.3906 258.343C99.7884 258.343 100.133 258.14 100.425 257.733C100.717 257.327 100.863 256.714 100.863 255.893C100.863 254.949 100.717 254.261 100.425 253.83C100.133 253.394 99.7651 253.176 99.3208 253.176C98.9272 253.176 98.5887 253.385 98.3052 253.804C98.0216 254.219 97.8799 254.873 97.8799 255.766ZM106.773 259.13V258.279C106.604 258.605 106.386 258.855 106.119 259.028C105.853 259.198 105.565 259.282 105.256 259.282C104.604 259.282 104.039 258.975 103.561 258.362C103.087 257.744 102.85 256.876 102.85 255.759C102.85 254.993 102.956 254.344 103.167 253.811C103.379 253.277 103.66 252.882 104.012 252.624C104.367 252.365 104.761 252.236 105.192 252.236C105.501 252.236 105.787 252.319 106.049 252.484C106.316 252.645 106.536 252.871 106.709 253.163V249.824H107.649V259.13H106.773ZM103.809 255.766C103.809 256.637 103.959 257.285 104.259 257.708C104.564 258.131 104.917 258.343 105.319 258.343C105.717 258.343 106.062 258.14 106.354 257.733C106.646 257.327 106.792 256.714 106.792 255.893C106.792 254.949 106.646 254.261 106.354 253.83C106.062 253.394 105.694 253.176 105.25 253.176C104.856 253.176 104.517 253.385 104.234 253.804C103.95 254.219 103.809 254.873 103.809 255.766ZM109.115 259.13V252.389H109.959V253.411C110.175 252.937 110.372 252.624 110.55 252.471C110.732 252.315 110.935 252.236 111.159 252.236C111.472 252.236 111.792 252.359 112.118 252.604L111.8 253.665C111.568 253.5 111.341 253.417 111.121 253.417C110.922 253.417 110.74 253.487 110.575 253.626C110.41 253.766 110.294 253.961 110.226 254.21C110.108 254.646 110.048 255.11 110.048 255.601V259.13H109.115ZM116.453 256.959L117.418 257.105C117.257 257.824 116.965 258.368 116.542 258.736C116.123 259.1 115.603 259.282 114.98 259.282C114.198 259.282 113.563 258.986 113.076 258.394C112.594 257.797 112.353 256.938 112.353 255.816C112.353 254.653 112.596 253.766 113.083 253.157C113.573 252.543 114.193 252.236 114.942 252.236C115.658 252.236 116.254 252.537 116.732 253.138C117.211 253.739 117.45 254.608 117.45 255.747L117.443 256.051H113.317C113.355 256.809 113.531 257.38 113.844 257.765C114.157 258.15 114.538 258.343 114.987 258.343C115.689 258.343 116.178 257.882 116.453 256.959ZM113.375 255.112H116.459C116.417 254.528 116.292 254.092 116.085 253.804C115.785 253.385 115.402 253.176 114.936 253.176C114.517 253.176 114.16 253.351 113.863 253.703C113.567 254.05 113.404 254.519 113.375 255.112ZM118.243 257.118L119.17 256.94C119.225 257.414 119.375 257.767 119.621 258C119.866 258.229 120.192 258.343 120.598 258.343C121.004 258.343 121.318 258.243 121.538 258.044C121.762 257.841 121.874 257.585 121.874 257.276C121.874 257.01 121.779 256.802 121.588 256.654C121.457 256.553 121.14 256.426 120.636 256.273C119.908 256.049 119.422 255.859 119.176 255.702C118.931 255.546 118.74 255.336 118.605 255.074C118.47 254.811 118.402 254.513 118.402 254.179C118.402 253.603 118.586 253.136 118.954 252.776C119.322 252.416 119.832 252.236 120.484 252.236C120.894 252.236 121.254 252.31 121.563 252.458C121.876 252.607 122.115 252.806 122.28 253.055C122.445 253.305 122.56 253.662 122.623 254.128L121.709 254.28C121.624 253.544 121.224 253.176 120.509 253.176C120.103 253.176 119.8 253.258 119.602 253.423C119.403 253.584 119.303 253.792 119.303 254.045C119.303 254.295 119.398 254.492 119.589 254.636C119.703 254.72 120.042 254.856 120.604 255.042C121.379 255.292 121.88 255.491 122.109 255.639C122.337 255.783 122.515 255.981 122.642 256.235C122.769 256.485 122.833 256.783 122.833 257.13C122.833 257.774 122.627 258.294 122.217 258.692C121.811 259.09 121.254 259.289 120.547 259.289C119.223 259.289 118.455 258.565 118.243 257.118ZM123.575 257.118L124.502 256.94C124.557 257.414 124.707 257.767 124.953 258C125.198 258.229 125.524 258.343 125.93 258.343C126.336 258.343 126.65 258.243 126.87 258.044C127.094 257.841 127.206 257.585 127.206 257.276C127.206 257.01 127.111 256.802 126.92 256.654C126.789 256.553 126.472 256.426 125.968 256.273C125.24 256.049 124.754 255.859 124.508 255.702C124.263 255.546 124.072 255.336 123.937 255.074C123.802 254.811 123.734 254.513 123.734 254.179C123.734 253.603 123.918 253.136 124.286 252.776C124.654 252.416 125.164 252.236 125.816 252.236C126.226 252.236 126.586 252.31 126.895 252.458C127.208 252.607 127.447 252.806 127.612 253.055C127.777 253.305 127.892 253.662 127.955 254.128L127.041 254.28C126.956 253.544 126.556 253.176 125.841 253.176C125.435 253.176 125.132 253.258 124.934 253.423C124.735 253.584 124.635 253.792 124.635 254.045C124.635 254.295 124.73 254.492 124.921 254.636C125.035 254.72 125.374 254.856 125.937 255.042C126.711 255.292 127.212 255.491 127.441 255.639C127.669 255.783 127.847 255.981 127.974 256.235C128.101 256.485 128.165 256.783 128.165 257.13C128.165 257.774 127.959 258.294 127.549 258.692C127.143 259.09 126.586 259.289 125.879 259.289C124.555 259.289 123.787 258.565 123.575 257.118Z" fill="white"/>
<rect x="61" y="267.34" width="334" height="38.25" rx="6" fill="#19191A"/>
<rect x="61.5" y="267.84" width="333" height="37.25" rx="5.5" stroke="white" stroke-opacity="0.16"/>
<rect x="61" y="321.25" width="334" height="36" rx="6" fill="#F8D40D"/>
<path d="M203.128 339.185L204.669 339.674C204.433 340.533 204.039 341.172 203.488 341.591C202.94 342.007 202.243 342.214 201.398 342.214C200.353 342.214 199.493 341.858 198.82 341.146C198.147 340.429 197.81 339.452 197.81 338.213C197.81 336.902 198.149 335.885 198.825 335.162C199.502 334.435 200.392 334.072 201.495 334.072C202.458 334.072 203.24 334.356 203.842 334.926C204.2 335.262 204.469 335.746 204.648 336.376L203.074 336.752C202.981 336.344 202.786 336.021 202.488 335.785C202.195 335.549 201.837 335.431 201.414 335.431C200.831 335.431 200.356 335.64 199.991 336.059C199.629 336.478 199.448 337.157 199.448 338.095C199.448 339.09 199.627 339.799 199.986 340.222C200.344 340.644 200.809 340.855 201.382 340.855C201.805 340.855 202.168 340.721 202.472 340.453C202.777 340.184 202.995 339.762 203.128 339.185ZM206.217 338.191C206.217 337.389 206.336 336.716 206.576 336.172C206.755 335.771 206.999 335.411 207.307 335.092C207.618 334.774 207.959 334.537 208.327 334.383C208.818 334.176 209.384 334.072 210.025 334.072C211.185 334.072 212.112 334.432 212.807 335.151C213.505 335.871 213.854 336.872 213.854 338.154C213.854 339.425 213.509 340.42 212.818 341.14C212.127 341.856 211.203 342.214 210.046 342.214C208.875 342.214 207.944 341.858 207.253 341.146C206.562 340.429 206.217 339.445 206.217 338.191ZM207.855 338.138C207.855 339.029 208.061 339.706 208.472 340.168C208.884 340.626 209.407 340.855 210.041 340.855C210.675 340.855 211.194 340.628 211.598 340.173C212.007 339.715 212.211 339.029 212.211 338.116C212.211 337.214 212.012 336.541 211.614 336.097C211.221 335.653 210.696 335.431 210.041 335.431C209.385 335.431 208.857 335.656 208.456 336.107C208.055 336.555 207.855 337.232 207.855 338.138ZM215.616 342.08V334.206H217.163L220.386 339.464V334.206H221.863V342.08H220.268L217.093 336.945V342.08H215.616ZM225.822 342.08V335.538H223.486V334.206H229.743V335.538H227.412V342.08H225.822ZM231.226 342.08V334.206H232.816V342.08H231.226ZM234.852 342.08V334.206H236.399L239.621 339.464V334.206H241.098V342.08H239.503L236.329 336.945V342.08H234.852ZM243.274 334.206H244.864V338.471C244.864 339.147 244.884 339.586 244.923 339.787C244.991 340.109 245.152 340.368 245.406 340.565C245.664 340.759 246.015 340.855 246.459 340.855C246.91 340.855 247.251 340.764 247.48 340.582C247.709 340.395 247.847 340.168 247.893 339.899C247.94 339.631 247.963 339.185 247.963 338.562V334.206H249.553V338.342C249.553 339.287 249.51 339.955 249.424 340.345C249.338 340.736 249.179 341.065 248.946 341.333C248.717 341.602 248.409 341.817 248.022 341.978C247.635 342.136 247.131 342.214 246.508 342.214C245.756 342.214 245.184 342.128 244.794 341.957C244.407 341.781 244.101 341.556 243.876 341.28C243.65 341 243.502 340.709 243.43 340.404C243.326 339.953 243.274 339.287 243.274 338.406V334.206ZM251.734 342.08V334.206H257.572V335.538H253.324V337.284H257.277V338.61H253.324V340.753H257.723V342.08H251.734Z" fill="#37375D"/>
<path d="M61.7935 400.92V391.614H62.8281L66.8398 398.92V391.614H67.8047V400.92H66.77L62.7646 393.607V400.92H61.7935ZM69.0298 397.549C69.0298 396.386 69.2731 395.507 69.7598 394.915C70.2507 394.323 70.8706 394.026 71.6196 394.026C72.356 394.026 72.9717 394.323 73.4668 394.915C73.9619 395.507 74.2095 396.362 74.2095 397.479C74.2095 398.69 73.9661 399.591 73.4795 400.184C72.9928 400.776 72.3729 401.072 71.6196 401.072C70.8791 401.072 70.2612 400.776 69.7661 400.184C69.2752 399.587 69.0298 398.709 69.0298 397.549ZM69.9883 397.549C69.9883 398.421 70.147 399.071 70.4644 399.498C70.7817 399.921 71.1753 400.133 71.645 400.133C72.0851 400.133 72.4618 399.919 72.7749 399.492C73.0923 399.06 73.251 398.413 73.251 397.549C73.251 396.682 73.0923 396.036 72.7749 395.613C72.4575 395.186 72.064 394.972 71.5942 394.972C71.1499 394.972 70.7712 395.186 70.458 395.613C70.1449 396.041 69.9883 396.686 69.9883 397.549ZM81.8838 400.088C81.5706 400.414 81.2448 400.66 80.9062 400.825C80.5677 400.99 80.2165 401.072 79.8525 401.072C79.277 401.072 78.8179 400.899 78.4751 400.552C78.1323 400.205 77.9609 399.737 77.9609 399.149C77.9609 398.76 78.0413 398.415 78.2021 398.114C78.363 397.814 78.583 397.579 78.8623 397.41C79.1416 397.24 79.5648 397.116 80.1318 397.035C80.8936 396.925 81.4521 396.794 81.8076 396.642L81.814 396.35C81.814 395.888 81.7314 395.565 81.5664 395.378C81.3337 395.108 80.9761 394.972 80.4937 394.972C80.0578 394.972 79.7319 395.063 79.5161 395.245C79.3003 395.423 79.1416 395.759 79.04 396.254L78.1196 396.102C78.2508 395.378 78.5153 394.852 78.9131 394.521C79.3151 394.191 79.8885 394.026 80.6333 394.026C81.2131 394.026 81.668 394.136 81.998 394.356C82.3281 394.572 82.5355 394.841 82.6201 395.163C82.709 395.484 82.7534 395.954 82.7534 396.572V398.095C82.7534 399.162 82.7725 399.834 82.8105 400.114C82.8529 400.389 82.9333 400.658 83.0518 400.92H82.0742C81.9769 400.687 81.9134 400.41 81.8838 400.088ZM81.8076 397.537C81.4648 397.706 80.9549 397.85 80.2778 397.968C79.8843 398.036 79.6092 398.114 79.4526 398.203C79.2961 398.288 79.1733 398.41 79.0845 398.571C78.9998 398.728 78.9575 398.91 78.9575 399.117C78.9575 399.439 79.057 399.697 79.2559 399.892C79.4548 400.082 79.7298 400.177 80.0811 400.177C80.4154 400.177 80.7179 400.09 80.9888 399.917C81.2638 399.743 81.4691 399.513 81.6045 399.225C81.7399 398.933 81.8076 398.51 81.8076 397.956V397.537ZM87.8315 398.451L88.752 398.597C88.6462 399.401 88.3796 400.014 87.9521 400.438C87.529 400.861 87.019 401.072 86.4224 401.072C85.6987 401.072 85.1021 400.776 84.6323 400.184C84.1668 399.587 83.9341 398.707 83.9341 397.543C83.9341 396.371 84.1689 395.493 84.6387 394.909C85.1126 394.32 85.7199 394.026 86.4604 394.026C87.0317 394.026 87.512 394.204 87.9014 394.56C88.2949 394.915 88.5467 395.448 88.6567 396.159L87.749 396.331C87.6602 395.874 87.5057 395.533 87.2856 395.309C87.0656 395.08 86.8011 394.966 86.4922 394.966C86.0309 394.966 85.6479 395.171 85.3433 395.582C85.0428 395.988 84.8926 396.635 84.8926 397.524C84.8926 398.442 85.0365 399.107 85.3242 399.517C85.6162 399.928 85.9886 400.133 86.4414 400.133C86.7969 400.133 87.0994 399.997 87.3491 399.727C87.603 399.451 87.7638 399.026 87.8315 398.451ZM93.1636 398.451L94.084 398.597C93.9782 399.401 93.7116 400.014 93.2842 400.438C92.861 400.861 92.3511 401.072 91.7544 401.072C91.0308 401.072 90.4341 400.776 89.9644 400.184C89.4989 399.587 89.2661 398.707 89.2661 397.543C89.2661 396.371 89.501 395.493 89.9707 394.909C90.4447 394.32 91.0519 394.026 91.7925 394.026C92.3638 394.026 92.8441 394.204 93.2334 394.56C93.627 394.915 93.8787 395.448 93.9888 396.159L93.0811 396.331C92.9922 395.874 92.8377 395.533 92.6177 395.309C92.3976 395.08 92.1331 394.966 91.8242 394.966C91.363 394.966 90.98 395.171 90.6753 395.582C90.3748 395.988 90.2246 396.635 90.2246 397.524C90.2246 398.442 90.3685 399.107 90.6562 399.517C90.9482 399.928 91.3206 400.133 91.7734 400.133C92.1289 400.133 92.4315 399.997 92.6812 399.727C92.9351 399.451 93.0959 399.026 93.1636 398.451ZM94.522 397.549C94.522 396.386 94.7653 395.507 95.252 394.915C95.7428 394.323 96.3628 394.026 97.1118 394.026C97.8481 394.026 98.4639 394.323 98.959 394.915C99.4541 395.507 99.7017 396.362 99.7017 397.479C99.7017 398.69 99.4583 399.591 98.9717 400.184C98.485 400.776 97.8651 401.072 97.1118 401.072C96.3713 401.072 95.7534 400.776 95.2583 400.184C94.7674 399.587 94.522 398.709 94.522 397.549ZM95.4805 397.549C95.4805 398.421 95.6392 399.071 95.9565 399.498C96.2739 399.921 96.6675 400.133 97.1372 400.133C97.5773 400.133 97.9539 399.919 98.2671 399.492C98.5845 399.06 98.7432 398.413 98.7432 397.549C98.7432 396.682 98.5845 396.036 98.2671 395.613C97.9497 395.186 97.5562 394.972 97.0864 394.972C96.6421 394.972 96.2633 395.186 95.9502 395.613C95.637 396.041 95.4805 396.686 95.4805 397.549ZM104.424 400.92V399.93C104.208 400.311 103.955 400.596 103.663 400.787C103.371 400.977 103.041 401.072 102.672 401.072C102.236 401.072 101.864 400.956 101.555 400.723C101.246 400.486 101.039 400.188 100.933 399.828C100.832 399.468 100.781 398.978 100.781 398.355V394.179H101.714V397.917C101.714 398.611 101.748 399.077 101.815 399.314C101.887 399.547 102.016 399.735 102.203 399.879C102.393 400.019 102.609 400.088 102.85 400.088C103.299 400.088 103.667 399.904 103.955 399.536C104.2 399.219 104.323 398.637 104.323 397.791V394.179H105.262V400.92H104.424ZM106.729 400.92V394.179H107.573V395.137C107.776 394.765 108.023 394.488 108.315 394.306C108.612 394.119 108.95 394.026 109.331 394.026C109.627 394.026 109.9 394.086 110.15 394.204C110.404 394.318 110.607 394.471 110.759 394.661C110.916 394.847 111.032 395.091 111.108 395.391C111.185 395.692 111.223 396.153 111.223 396.775V400.92H110.283V396.819C110.283 396.324 110.241 395.962 110.156 395.734C110.072 395.505 109.938 395.33 109.756 395.207C109.579 395.08 109.371 395.017 109.134 395.017C108.686 395.017 108.328 395.184 108.062 395.518C107.795 395.852 107.662 396.426 107.662 397.238V400.92H106.729ZM114.746 399.898L114.873 400.907C114.614 400.975 114.382 401.009 114.174 401.009C113.848 401.009 113.586 400.945 113.387 400.818C113.188 400.687 113.051 400.509 112.975 400.285C112.903 400.061 112.867 399.614 112.867 398.946V395.067H112.181V394.179H112.867V392.509L113.8 391.824V394.179H114.746V395.067H113.8V399.009C113.8 399.373 113.827 399.608 113.882 399.714C113.963 399.866 114.113 399.942 114.333 399.942C114.439 399.942 114.576 399.928 114.746 399.898ZM117.386 398.628L117.374 398.286C117.374 397.672 117.477 397.158 117.685 396.743C117.828 396.455 118.131 396.064 118.592 395.569C118.905 395.235 119.111 394.964 119.208 394.756C119.305 394.545 119.354 394.316 119.354 394.071C119.354 393.605 119.206 393.21 118.91 392.884C118.613 392.558 118.273 392.395 117.888 392.395C117.494 392.395 117.16 392.545 116.885 392.846C116.614 393.146 116.438 393.624 116.358 394.28L115.393 394.141C115.486 393.243 115.751 392.573 116.187 392.128C116.627 391.68 117.192 391.456 117.881 391.456C118.575 391.456 119.153 391.695 119.614 392.173C120.08 392.647 120.312 393.254 120.312 393.995C120.312 394.401 120.236 394.773 120.084 395.112C119.932 395.45 119.627 395.869 119.17 396.369C118.781 396.788 118.537 397.12 118.44 397.365C118.347 397.606 118.294 398.028 118.281 398.628H117.386ZM117.323 400.92V399.619H118.389V400.92H117.323Z" fill="white" fill-opacity="0.65"/>
<path d="M138.472 397.93L139.425 397.829C139.475 398.341 139.59 398.741 139.767 399.028C139.949 399.312 140.207 399.54 140.542 399.714C140.876 399.887 141.253 399.974 141.672 399.974C142.273 399.974 142.738 399.828 143.068 399.536C143.402 399.24 143.57 398.857 143.57 398.387C143.57 398.112 143.508 397.873 143.385 397.67C143.267 397.463 143.085 397.293 142.84 397.162C142.598 397.031 142.074 396.847 141.265 396.61C140.546 396.398 140.034 396.185 139.729 395.969C139.425 395.753 139.188 395.48 139.018 395.15C138.849 394.816 138.764 394.439 138.764 394.02C138.764 393.267 139.008 392.651 139.494 392.173C139.981 391.695 140.637 391.456 141.462 391.456C142.029 391.456 142.524 391.568 142.948 391.792C143.375 392.016 143.705 392.338 143.938 392.757C144.175 393.176 144.302 393.669 144.319 394.236L143.347 394.325C143.297 393.72 143.115 393.271 142.802 392.979C142.493 392.687 142.057 392.541 141.494 392.541C140.923 392.541 140.487 392.67 140.186 392.928C139.886 393.182 139.736 393.512 139.736 393.918C139.736 394.295 139.846 394.587 140.066 394.794C140.286 395.002 140.781 395.211 141.551 395.423C142.304 395.63 142.833 395.81 143.138 395.962C143.603 396.199 143.955 396.513 144.192 396.902C144.429 397.287 144.547 397.748 144.547 398.286C144.547 398.819 144.422 399.306 144.173 399.746C143.923 400.181 143.582 400.514 143.151 400.742C142.723 400.971 142.207 401.085 141.602 401.085C140.658 401.085 139.905 400.801 139.342 400.234C138.783 399.667 138.494 398.899 138.472 397.93ZM145.785 392.928V391.614H146.718V392.928H145.785ZM145.785 400.92V394.179H146.718V400.92H145.785ZM147.981 401.479L148.895 401.644C148.938 402.003 149.065 402.27 149.276 402.443C149.488 402.621 149.782 402.71 150.158 402.71C150.569 402.71 150.895 402.611 151.136 402.412C151.381 402.217 151.549 401.925 151.637 401.536C151.692 401.299 151.72 400.799 151.72 400.038C151.517 400.33 151.288 400.55 151.034 400.698C150.781 400.846 150.499 400.92 150.19 400.92C149.53 400.92 148.982 400.641 148.546 400.082C148.047 399.439 147.797 398.578 147.797 397.499C147.797 396.775 147.907 396.142 148.127 395.601C148.347 395.059 148.635 394.661 148.99 394.407C149.35 394.153 149.752 394.026 150.197 394.026C150.522 394.026 150.819 394.107 151.085 394.268C151.356 394.428 151.595 394.67 151.802 394.991V394.179H152.666V400.006C152.666 401.043 152.581 401.781 152.412 402.221C152.243 402.666 151.965 403.015 151.58 403.269C151.195 403.527 150.732 403.656 150.19 403.656C149.475 403.656 148.925 403.463 148.54 403.078C148.155 402.693 147.969 402.16 147.981 401.479ZM148.762 397.429C148.762 398.313 148.908 398.958 149.2 399.365C149.492 399.771 149.85 399.974 150.273 399.974C150.696 399.974 151.056 399.775 151.352 399.377C151.648 398.98 151.796 398.347 151.796 397.479C151.796 396.633 151.644 396.005 151.339 395.594C151.034 395.18 150.664 394.972 150.228 394.972C149.839 394.972 149.496 395.18 149.2 395.594C148.908 396.005 148.762 396.616 148.762 397.429ZM154.088 400.92V394.179H154.932V395.137C155.135 394.765 155.383 394.488 155.675 394.306C155.971 394.119 156.309 394.026 156.69 394.026C156.986 394.026 157.259 394.086 157.509 394.204C157.763 394.318 157.966 394.471 158.118 394.661C158.275 394.847 158.391 395.091 158.468 395.391C158.544 395.692 158.582 396.153 158.582 396.775V400.92H157.642V396.819C157.642 396.324 157.6 395.962 157.515 395.734C157.431 395.505 157.297 395.33 157.115 395.207C156.938 395.08 156.73 395.017 156.493 395.017C156.045 395.017 155.687 395.184 155.421 395.518C155.154 395.852 155.021 396.426 155.021 397.238V400.92H154.088ZM166.612 400.92V399.93C166.396 400.311 166.142 400.596 165.85 400.787C165.558 400.977 165.228 401.072 164.86 401.072C164.424 401.072 164.051 400.956 163.742 400.723C163.434 400.486 163.226 400.188 163.12 399.828C163.019 399.468 162.968 398.978 162.968 398.355V394.179H163.901V397.917C163.901 398.611 163.935 399.077 164.003 399.314C164.075 399.547 164.204 399.735 164.39 399.879C164.58 400.019 164.796 400.088 165.037 400.088C165.486 400.088 165.854 399.904 166.142 399.536C166.387 399.219 166.51 398.637 166.51 397.791V394.179H167.449V400.92H166.612ZM168.916 403.503V394.179H169.773V395.055C169.984 394.691 170.219 394.428 170.477 394.268C170.735 394.107 171.032 394.026 171.366 394.026C171.802 394.026 172.195 394.155 172.547 394.414C172.898 394.672 173.179 395.065 173.391 395.594C173.607 396.119 173.715 396.752 173.715 397.492C173.715 398.639 173.473 399.523 172.991 400.146C172.513 400.763 171.95 401.072 171.302 401.072C171.015 401.072 170.746 400.998 170.496 400.85C170.247 400.702 170.031 400.493 169.849 400.222V403.503H168.916ZM169.76 397.587C169.76 398.459 169.906 399.102 170.198 399.517C170.49 399.928 170.843 400.133 171.258 400.133C171.656 400.133 172.005 399.919 172.305 399.492C172.606 399.064 172.756 398.404 172.756 397.511C172.756 396.631 172.61 395.979 172.318 395.556C172.026 395.133 171.671 394.921 171.252 394.921C170.875 394.921 170.532 395.15 170.223 395.607C169.914 396.06 169.76 396.72 169.76 397.587Z" fill="#F8D40D"/>
<path d="M6 197C2.68629 197 0 194.314 0 191V62.41C0 59.0963 2.68629 56.41 6 56.41H28V197H6Z" fill="#F8D40D"/>
<path d="M16.0302 179.629L15.9521 178.896C16.346 178.857 16.6536 178.77 16.8749 178.633C17.093 178.493 17.2688 178.294 17.4023 178.037C17.5357 177.78 17.6025 177.49 17.6025 177.168C17.6025 176.706 17.4902 176.348 17.2655 176.094C17.0377 175.837 16.7431 175.708 16.3818 175.708C16.1702 175.708 15.9863 175.755 15.83 175.85C15.6705 175.941 15.5403 176.081 15.4394 176.27C15.3385 176.455 15.1969 176.859 15.0146 177.48C14.8518 178.034 14.6874 178.428 14.5214 178.662C14.3554 178.896 14.1454 179.079 13.8915 179.209C13.6344 179.339 13.3447 179.404 13.0224 179.404C12.443 179.404 11.9693 179.217 11.6015 178.843C11.2336 178.468 11.0497 177.964 11.0497 177.329C11.0497 176.893 11.136 176.512 11.3085 176.187C11.481 175.858 11.7284 175.604 12.0507 175.425C12.373 175.243 12.7522 175.145 13.1884 175.132L13.2568 175.879C12.7913 175.918 12.4462 176.058 12.2216 176.299C11.997 176.536 11.8847 176.872 11.8847 177.305C11.8847 177.744 11.984 178.079 12.1825 178.311C12.3779 178.542 12.6318 178.657 12.9443 178.657C13.234 178.657 13.4586 178.573 13.6181 178.403C13.7776 178.234 13.9387 177.853 14.1015 177.261C14.261 176.681 14.3993 176.274 14.5165 176.04C14.6988 175.682 14.9397 175.412 15.2392 175.229C15.5354 175.047 15.8902 174.956 16.3036 174.956C16.7138 174.956 17.0881 175.052 17.4267 175.244C17.762 175.436 18.0175 175.698 18.1933 176.03C18.3691 176.359 18.457 176.756 18.457 177.222C18.457 177.948 18.2389 178.527 17.8027 178.96C17.3665 179.39 16.7756 179.613 16.0302 179.629ZM16.6601 171.094L16.7724 170.352C17.3258 170.475 17.7441 170.7 18.0273 171.025C18.3072 171.348 18.4472 171.748 18.4472 172.227C18.4472 172.829 18.2193 173.317 17.7636 173.691C17.3046 174.062 16.6438 174.248 15.7812 174.248C14.886 174.248 14.204 174.061 13.7353 173.687C13.2633 173.309 13.0273 172.832 13.0273 172.256C13.0273 171.706 13.2584 171.247 13.7206 170.879C14.1829 170.511 14.8518 170.327 15.7275 170.327L15.9618 170.332V173.506C16.5445 173.477 16.984 173.341 17.2802 173.101C17.5764 172.86 17.7245 172.567 17.7245 172.222C17.7245 171.681 17.3697 171.305 16.6601 171.094ZM15.2392 173.462V171.089C14.79 171.121 14.4547 171.217 14.2333 171.377C13.9111 171.608 13.7499 171.903 13.7499 172.261C13.7499 172.583 13.885 172.858 14.1552 173.086C14.4221 173.314 14.7835 173.439 15.2392 173.462ZM16.4306 166.655L16.5429 165.947C17.1614 166.029 17.6334 166.234 17.9589 166.562C18.2844 166.888 18.4472 167.28 18.4472 167.739C18.4472 168.296 18.2193 168.755 17.7636 169.116C17.3046 169.474 16.6275 169.653 15.7323 169.653C14.8307 169.653 14.1552 169.473 13.706 169.111C13.2535 168.747 13.0273 168.28 13.0273 167.71C13.0273 167.271 13.164 166.901 13.4374 166.602C13.7109 166.299 14.121 166.105 14.6679 166.021L14.7997 166.719C14.4482 166.787 14.1861 166.906 14.0136 167.075C13.8378 167.244 13.7499 167.448 13.7499 167.686C13.7499 168.04 13.9078 168.335 14.2236 168.569C14.5361 168.8 15.0341 168.916 15.7177 168.916C16.4241 168.916 16.9351 168.805 17.2509 168.584C17.5667 168.359 17.7245 168.073 17.7245 167.725C17.7245 167.451 17.6204 167.218 17.412 167.026C17.2004 166.831 16.8733 166.707 16.4306 166.655ZM18.33 162.554H17.5683C17.8613 162.72 18.081 162.915 18.2275 163.14C18.3739 163.364 18.4472 163.618 18.4472 163.901C18.4472 164.237 18.3577 164.523 18.1786 164.761C17.9963 164.998 17.7669 165.158 17.4902 165.239C17.2135 165.317 16.8359 165.356 16.3573 165.356H13.1445V164.639H16.0204C16.5543 164.639 16.9124 164.613 17.0947 164.561C17.2737 164.505 17.4185 164.406 17.5292 164.263C17.6366 164.116 17.6904 163.95 17.6904 163.765C17.6904 163.42 17.5488 163.136 17.2655 162.915C17.0214 162.726 16.5738 162.632 15.9228 162.632H13.1445V161.909H18.33V162.554ZM18.33 160.781H13.1445V160.132H13.9306C13.566 159.966 13.3251 159.814 13.2079 159.678C13.0875 159.538 13.0273 159.382 13.0273 159.209C13.0273 158.968 13.1217 158.722 13.3105 158.472L14.1259 158.716C13.9989 158.895 13.9355 159.069 13.9355 159.238C13.9355 159.391 13.9892 159.531 14.0966 159.658C14.204 159.785 14.3538 159.875 14.5458 159.927C14.8811 160.018 15.2376 160.063 15.6152 160.063H18.33V160.781ZM16.6601 155.137L16.7724 154.395C17.3258 154.518 17.7441 154.743 18.0273 155.068C18.3072 155.391 18.4472 155.791 18.4472 156.27C18.4472 156.872 18.2193 157.36 17.7636 157.734C17.3046 158.105 16.6438 158.291 15.7812 158.291C14.886 158.291 14.204 158.104 13.7353 157.729C13.2633 157.352 13.0273 156.875 13.0273 156.299C13.0273 155.749 13.2584 155.29 13.7206 154.922C14.1829 154.554 14.8518 154.37 15.7275 154.37L15.9618 154.375V157.549C16.5445 157.52 16.984 157.384 17.2802 157.144C17.5764 156.903 17.7245 156.61 17.7245 156.265C17.7245 155.724 17.3697 155.348 16.6601 155.137ZM15.2392 157.505V155.132C14.79 155.164 14.4547 155.26 14.2333 155.42C13.9111 155.651 13.7499 155.946 13.7499 156.304C13.7499 156.626 13.885 156.901 14.1552 157.129C14.4221 157.357 14.7835 157.482 15.2392 157.505ZM18.33 150.728H17.6757C17.9264 150.858 18.1184 151.025 18.2519 151.23C18.3821 151.436 18.4472 151.657 18.4472 151.895C18.4472 152.396 18.2112 152.83 17.7392 153.198C17.2639 153.563 16.5966 153.745 15.7372 153.745C15.148 153.745 14.6484 153.664 14.2382 153.501C13.828 153.338 13.5237 153.122 13.3251 152.852C13.1266 152.578 13.0273 152.275 13.0273 151.943C13.0273 151.706 13.0907 151.486 13.2177 151.284C13.3414 151.079 13.5155 150.91 13.7402 150.776H11.1718V150.054H18.33V150.728ZM15.7421 153.008C16.4127 153.008 16.9107 152.892 17.2363 152.661C17.5618 152.427 17.7245 152.155 17.7245 151.846C17.7245 151.54 17.5683 151.274 17.2558 151.05C16.9433 150.825 16.4713 150.713 15.8398 150.713C15.1139 150.713 14.5849 150.825 14.2529 151.05C13.9176 151.274 13.7499 151.558 13.7499 151.899C13.7499 152.202 13.9111 152.463 14.2333 152.681C14.5523 152.899 15.0553 153.008 15.7421 153.008ZM18.33 145.977V146.646H11.1718V145.928H13.7255C13.4911 145.775 13.317 145.602 13.203 145.41C13.0859 145.215 13.0273 144.998 13.0273 144.761C13.0273 144.429 13.1266 144.128 13.3251 143.857C13.5237 143.584 13.8248 143.366 14.2284 143.203C14.6321 143.04 15.122 142.959 15.6982 142.959C16.5771 142.959 17.2558 143.143 17.7343 143.511C18.2096 143.879 18.4472 144.308 18.4472 144.8C18.4472 145.047 18.3837 145.27 18.2568 145.469C18.1266 145.664 17.9345 145.833 17.6806 145.977H18.33ZM15.6982 145.986C16.2353 145.986 16.6373 145.938 16.9042 145.84C17.1711 145.742 17.3746 145.604 17.5146 145.425C17.6545 145.246 17.7245 145.047 17.7245 144.829C17.7245 144.533 17.5585 144.271 17.2265 144.043C16.8912 143.812 16.3915 143.696 15.7275 143.696C15.0471 143.696 14.5474 143.807 14.2284 144.028C13.9094 144.25 13.7499 144.521 13.7499 144.844C13.7499 145.14 13.9176 145.405 14.2529 145.64C14.5849 145.871 15.0667 145.986 15.6982 145.986ZM20.3271 142.1L19.5019 142.178C19.554 142.018 19.58 141.882 19.58 141.768C19.58 141.615 19.5491 141.489 19.4872 141.392C19.4254 141.291 19.3294 141.208 19.1991 141.143C19.1536 141.12 18.8671 141.025 18.3398 140.859L13.1445 142.476V141.699L16.1474 140.811C16.5217 140.7 16.9221 140.597 17.3486 140.503C16.9449 140.422 16.551 140.324 16.1669 140.21L13.1445 139.302V138.579L18.4179 140.195C19.1015 140.407 19.5572 140.575 19.7851 140.698C20.0162 140.819 20.1822 140.957 20.2831 141.113C20.384 141.266 20.4345 141.44 20.4345 141.636C20.4345 141.772 20.3987 141.927 20.3271 142.1Z" fill="#37375D"/>
<g clip-path="url(#clip4_1_149)">
<path d="M17.7708 99.3582C18.0092 99.5888 18.1983 99.8654 18.3267 100.171C18.455 100.477 18.52 100.806 18.5175 101.137C18.5248 101.418 18.4748 101.697 18.3705 101.958C18.2662 102.219 18.1098 102.456 17.9108 102.654C17.4899 103.044 16.9323 103.251 16.3592 103.232C15.0758 103.232 14.2008 102.397 14.2008 101.137C14.1963 100.802 14.2656 100.47 14.4037 100.165C14.5418 99.8593 14.7454 99.5879 15 99.3699L14.0433 98.2849C13.6256 98.6523 13.2925 99.106 13.067 99.6145C12.8414 100.123 12.7287 100.674 12.7367 101.231C12.7367 103.36 14.2067 104.871 16.3708 104.871C16.8497 104.883 17.3263 104.8 17.7729 104.627C18.2195 104.454 18.6273 104.194 18.9725 103.862C19.3027 103.521 19.5619 103.118 19.7352 102.677C19.9084 102.235 19.9922 101.763 19.9817 101.289C20.0005 100.724 19.9002 100.161 19.6871 99.6377C19.474 99.1141 19.153 98.6412 18.745 98.2499L17.765 99.3582H17.7708ZM10.0008 97.2699V95.6599H19.8708V97.2699H10.0008ZM16.9192 87.8782C16.7033 87.8549 16.4875 87.8432 16.2717 87.8374C14.23 87.8374 12.7425 89.1791 12.7425 91.2499C12.7425 92.2357 13.11 93.0932 13.7458 93.7116C14.4567 94.3638 15.3949 94.7115 16.3592 94.6799C18.5467 94.6799 19.9875 93.1341 19.9875 91.0924C20.0125 90.5323 19.9069 89.9741 19.6791 89.4619C19.4513 88.9496 19.1076 88.4973 18.675 88.1407L17.7417 89.1907L17.695 89.2491C18.1442 89.6107 18.5175 90.1824 18.5175 91.0049C18.5403 91.4758 18.3905 91.9388 18.0962 92.3072C17.802 92.6755 17.3835 92.9239 16.9192 93.0057V87.8782ZM15.6242 92.9766C15.3111 92.9042 15.0206 92.7559 14.7783 92.5449C14.3992 92.2124 14.195 91.7282 14.195 91.1624C14.195 90.2407 14.7783 89.6632 15.6242 89.4707V92.9766ZM12.7192 82.8441H14.5275C14.5107 83.005 14.499 83.1665 14.4925 83.3282C14.4925 84.5532 15.3675 85.2474 16.5225 85.2474H19.8708V86.8516H12.8242V85.2416H13.8917V85.2241C13.1392 84.6816 12.725 83.8824 12.725 83.0366V82.8382L12.7192 82.8441ZM16.9192 79.0874L18.2142 80.2541H19.8708V81.8641H10.0008V80.2541H16.05L12.8417 77.3724V75.4591L15.6767 77.9907L19.865 75.4124V77.2266L16.9133 79.0582V79.0874H16.9192ZM9.84334 108.715L11.5233 110.395C11.5767 110.447 11.6109 110.516 11.6204 110.59C11.6299 110.664 11.6142 110.739 11.5758 110.803C11.0527 111.673 10.8792 112.709 11.0904 113.702C11.3015 114.695 11.8815 115.571 12.7133 116.152C13.348 116.593 14.0965 116.84 14.8685 116.865C15.6405 116.89 16.4033 116.691 17.065 116.292C17.1291 116.254 17.2042 116.238 17.2783 116.248C17.3523 116.257 17.4211 116.292 17.4733 116.345L19.1533 118.025C19.1872 118.059 19.2133 118.099 19.2301 118.144C19.2469 118.188 19.2538 118.236 19.2505 118.284C19.2472 118.331 19.2337 118.378 19.2109 118.42C19.188 118.461 19.1565 118.498 19.1183 118.527C17.7702 119.502 16.1189 119.964 14.4604 119.832C12.8019 119.7 11.2447 118.982 10.0679 117.806C8.89112 116.63 8.1717 115.073 8.03862 113.414C7.90553 111.756 8.36749 110.104 9.34167 108.756C9.3703 108.718 9.4068 108.686 9.4487 108.663C9.4906 108.64 9.53692 108.627 9.5845 108.624C9.63209 108.62 9.67984 108.627 9.7245 108.644C9.76916 108.661 9.80969 108.687 9.84334 108.721V108.715Z" fill="#37375D"/>
<path d="M20.1567 108.715L18.4767 110.395C18.4233 110.447 18.3891 110.516 18.3796 110.59C18.3701 110.664 18.3858 110.739 18.4242 110.803C18.7991 111.427 18.9972 112.141 18.9972 112.868C18.9972 113.596 18.7991 114.31 18.4242 114.933C18.3858 114.997 18.3701 115.072 18.3796 115.146C18.3891 115.22 18.4233 115.289 18.4767 115.341L20.1567 117.027C20.1907 117.061 20.2316 117.087 20.2765 117.103C20.3214 117.119 20.3692 117.126 20.4168 117.122C20.4644 117.118 20.5107 117.104 20.5523 117.08C20.594 117.057 20.6301 117.025 20.6583 116.986C21.529 115.79 21.998 114.348 21.998 112.868C21.998 111.388 21.529 109.946 20.6583 108.75C20.6297 108.712 20.5932 108.68 20.5513 108.657C20.5094 108.634 20.4631 108.621 20.4155 108.618C20.3679 108.614 20.3202 108.621 20.2755 108.638C20.2308 108.655 20.1903 108.681 20.1567 108.715ZM17.0008 112.868C17.0008 112.605 16.9491 112.345 16.8485 112.102C16.748 111.86 16.6006 111.639 16.4148 111.453C16.229 111.268 16.0084 111.12 15.7657 111.02C15.5229 110.919 15.2627 110.867 15 110.867C14.7372 110.867 14.4771 110.919 14.2343 111.02C13.9916 111.12 13.771 111.268 13.5852 111.453C13.3994 111.639 13.252 111.86 13.1515 112.102C13.0509 112.345 12.9992 112.605 12.9992 112.868C12.9992 113.399 13.21 113.908 13.5852 114.283C13.9604 114.658 14.4693 114.869 15 114.869C15.5306 114.869 16.0396 114.658 16.4148 114.283C16.79 113.908 17.0008 113.399 17.0008 112.868Z" fill="#37375D"/>
</g>
<path d="M0.5 191V62.41C0.5 59.3725 2.96243 56.91 6 56.91H27.5V196.5H6C2.96243 196.5 0.5 194.038 0.5 191Z" stroke="white" stroke-opacity="0.08"/>
</g>
<defs>
<clipPath id="clip0_1_149">
<rect width="428" height="455" fill="white"/>
</clipPath>
<clipPath id="clip1_1_149">
<rect width="228" height="16.25" fill="white" transform="translate(114 136)"/>
</clipPath>
<clipPath id="clip2_1_149">
<rect width="16" height="16" fill="white" transform="translate(66 136.13)"/>
</clipPath>
<clipPath id="clip3_1_149">
<rect width="16" height="16" fill="white" transform="translate(66 136.13)"/>
</clipPath>
<clipPath id="clip4_1_149">
<rect width="48" height="14" fill="white" transform="matrix(0 -1 1 0 8 121.41)"/>
</clipPath>
</defs>
</svg>
