<svg xmlns="http://www.w3.org/2000/svg" version="1.1" viewBox="0 0 400 400" width="400" height="400"><path d="M391 208.3c0 105.6-85.5 190.2-191 190.2S9 313.9 9 208.3 94.5 17 200 17s191 85.6 191 191.2Z" fill="#262626" stroke-width="0"/><path d="M358.2 224.6c-5.7-7.9-11.6-15.3-19.8-20.4-8.2-5.4-17.5-8.5-27.4-8.5-6.5-.3-13 .3-19.5.8-2 .3-4.2.8-6.2 1.4h-1.4c1.2-4.6 8.5-8.2 13.9-9.1.6 0 1.9 0 1.9-.9.2-.5-1.3-1.1-1.9-1.1-10.5-1.4-20.7-1.7-31.1-.9-9.6.9-19.2 2.8-28.6 6-9.9 3.4-19 7.7-27.7 13.3l-2.1 1.3c-1.3 2.1-2.8 4.3-4.7 6.6-2.6 4.6-29.3 27.7-45.5 28.4-2.8.8-10.2-3.2-9.6-11.7.3-5.4 3.8-10.8 8.5-14.9 2.3-2.8 8.8-5.4 8.5-7.7-.3-2.3-17.3-15-71.9 9.9-18.4 9.1-34.5 31.2-40.2 48.2-7.4 16.2-5.7 46.5-4.8 50.2 1.1 4.8 2 8.4 2.9 10.5.8 1.9 3.3 6.4 6.7 10.6v.1c.3.4.6.7.9 1 3.3 3.7 6.9 7.1 10.5 10.5 25.7 22.6 74.7 36.7 131.2 29.8 58.1-7.1 94-3.8 94.6-4.1 9.5-4.4 22.5-14.5 28.3-19.4l4.2-3.6c.5-.5 1.1-1 1.6-1.5 6.2-5.7 12.1-11.9 17.5-18.4.6-.7 1.2-1.4 1.7-2.2 19.1-24.7 19.4-43.8 20.1-50.3.6-6 2.2-35.8-10.5-54.1Z" fill="#565656" stroke-width="0"/><path fill="#fff" stroke-width="0" d="M92.5 190.7c44.1-36 109.6-36.8 110-36.6 4.4.2 11.3.4 20.9 0 36-.7 54.9-18.6 59.2-23.9.3-.3 0-2-.6-2.3-5.4-2.8-11-5.4-16.1-8.5-6.2-3.7-12.4-7.9-18.1-12.4-8.2-6.8-12.1-16.1-14.1-26.3-1.4-7.1-4.8-13-8.8-18.4-5.1-6.8-11.6-12.7-18.9-17.4s-22.8-9.2-22.6-9c-4-.8-8.1-3-12.1-3.6-10.4-1.4-21.1-.2-31.5 1.2-4.8.8-9.7 3.1-14.5 3.6-3.6.5-34.7-8.9-38.4-9.3-6.5 3.3 5.6 13.6 8.7 20.3 9.2 14.9 13.4 17.2 17.6 21.2.3.3-7 11.6-16.7 21.2-.6.2-6.7 2.3-19.7 18.9-3.1 5.1-6.5 9.9-10.2 14.7-4.8 5.7-13.9 11.5-20.7 14.6-.6 0-2.4 1.6 26.6-2.2-3.7 2-7.3 4-11 5.9-7.3 4.5-13.7 10.6-19.5 17-32.6 36.3-28.4 76.3-27.7 86.8.1 1.9.5 5.7 1 10.4 4.8 22.4 16.3 48.5 31.7 66.8-.1-1-4.7-29.8-7.2-44.7-.5-3.3 14.1-56.7 52.7-88.3Z"/><path fill="#d6d6d6" stroke-width="0" d="M90.5 84.9c3 5 6.5 5.9 5.9 5.7 9.7-9.6 16.9-20.9 16.7-21.2-6.8-9.3-13.8-18.7-20.6-28-2.3-3.4-5.6-12.7-5.6-13.6.6 0 13.5 5.7 19.5 7.6 6.2 2.3 12.7 2.5 18.9 1.7 4.8-.6 9.6-2 14.4-2.8 10.4-1.4 21.2-1.4 31.6 0 4 .6 8.2.7 12.1 1.5-4.7-5-14.1-14-15.8-15.7l-4.2-4.5C156.6 9.4 149 4.9 140.8.9c-.6-.3-1.6-1-2.3 0s-.6 1.1-.6 2c.6 5.7-.3 11.3-2.8 16.4-3.1 6.2-9 9-15 11.9-1.4.6-3.4 1.7-4.8 1.4-11.6-2.8-22.3-7.3-31.6-15-.6-.6-2.2-1.9-3.4.3-1.1 2-2.3 4.2-2.8 6.5-2.3 10.2-.3 20.3.6 30.8.8 10.5 12.4 29.7 12.4 29.7Z"/><path d="M115.4 32.6s7.7 3.9 12.1 3.8 8.3-1.3 8.3-1.3 0-.9-1.6-.7c-3.7.5-8.9-1.4-8.6-3.7s2.7-3 3.8-4.1 1.1-1.4.4-.8-2.6 1.8-2.6 1.8-9.7 5.9-11.9 5.1Z" fill="#aaa" stroke-width="0"/><path d="M96.5 90.6s21.3-5.8 20.2-12.7c-.8-5-3.6-8.5-4.4-9.6-1.2-1.7-12.3.9-14.9 8.9-2.5 7.8-4.8 5.9-5 10.4 1.6 1.9 4 3 4 3Z" fill="#eaeaea" stroke-width="0"/><path d="M188.8 79c7.3 10.5 17.5 15.8 28.2 20.6-3.7 2.3-16.4-.6-21.2-5.1-4.2-4-7.1-8.8-7.1-15.5Z" fill="#616161" stroke-width="0"/><path fill="#d6d6d6" stroke-width="0" d="M45 320.1s-6-12.1-8.7-27.4c-1.1-7.1-1.4-14.4-1.7-21.8 0-11.6 2.3-22.9 5.6-34.2C45 222 52.3 209 61.7 196.8c30.7-44.4 82.7-48 90.3-48.9 6.8-.8 13.8-.3 20.3.6 8.5 1.1 29.9 5.1 30.2 5.7 6.5 4.7 11.9 18.2 11.6 31.9-.3 9.2-2.4 17-10.7 27.1-2.6 4.6-29.2 27.7-45.4 28.3-2.8.8-10.2-3.2-9.6-11.7.3-5.4 3.8-10.8 8.5-14.9 2.3-2.8 8.8-5.4 8.5-7.6-.3-2.3-17.2-15-71.7 9.9-18.3 9-34.4 31.1-40.1 48-8.4 29.4 2.2 68.2 6.2 72.9C48 327 45 320 45 320Z"/><path fill="#fff" stroke-width="0" d="M68.8 347.2s26.8 32 113.4 32 101.6-58.9 122.7-58.9 24.8 28.5-4.9 51.9-87.3 27.7-95.6 27.7-82.5 2.4-135.5-52.8Z"/></svg>