<svg xmlns="http://www.w3.org/2000/svg" width="46" height="59" fill="none"><g clip-path="url(#a)"><path fill="#ff5b11" d="M23.905.009q.234-.03.414.118a224 224 0 0 1 12.403 16.657 81.6 81.6 0 0 1 7.325 13.703q4.823 12.866-5.021 22.386-8.614 7.28-19.846 5.67Q5.753 55.805.929 43.01a21.8 21.8 0 0 1-.827-8.506 50.9 50.9 0 0 1 3.544-14.412 21.5 21.5 0 0 1 3.071-5.197 68 68 0 0 1 2.953 3.78q.652.681 1.359 1.3A111.6 111.6 0 0 1 23.905.008" opacity=".993"/><path fill="#ff9758" d="M23.08 9.576a125 125 0 0 1 11.755 16.066 33.4 33.4 0 0 1 2.717 5.907q2.23 8.773-4.784 14.47-6.784 4.774-14.885 2.836-8.735-2.71-10.1-11.754a12.5 12.5 0 0 1 .59-5.552 40 40 0 0 1 3.19-6.38l3.544-5.197a982 982 0 0 0 7.974-10.396"/></g><defs><clipPath id="a"><path fill="#fff" d="M0 0h45.641v58.834H0z"/></clipPath></defs></svg>