<svg xmlns="http://www.w3.org/2000/svg" width="16" height="16" x="2" y="2" fill="#9394a0" stroke="#9394a0" viewBox="0 0 212 212"><path strokeWidth="6" d="M206.934 162q-10.2 0-13.95-3.9-3.45-3.3-3.45-5.7v-3.15q-7.35 13.35-23.55 13.35-18.9 0-21.45-17.1-.3-1.8-.3-3.6 0-1.95.6-4.2t3.45-4.95q5.7-5.4 25.05-6.6 4.8-.45 8.85-.45t7.35.3v-24.9q-.3-.15 0-1.35.3-1.35-.6-3.3-.75-2.1-2.1-4.05t-4.8-3.3q-3.45-1.5-9-1.5c-5.55 0-8.05.7-13.05 2.1q-7.35 1.95-10.8 3.9l-.6-1.05q13.35-6.15 27.15-6.15 15.45 0 20.4 5.55 3.9 4.35 3.9 9.15v50.25q0 4.35 1.65 6.75 1.8 2.25 3.6 2.4l1.65.3h4.65v1.2zm-38.55-.6q7.95 0 14.25-5.4 6.45-5.55 6.9-10.65V127.2q-4.05-.3-8.25-.3-4.05 0-8.1.45-11.4 1.35-14.85 5.1t-3.45 10.35q0 1.2.15 2.7 1.35 15.9 13.35 15.9Zm-71.785 1.2q-15.75 0-25.65-9t-9.9-27.75c0-18.75 3.4-22.2 10.2-29.1q10.35-10.35 26.1-10.35 15.9 0 25.8 9t9.9 27.75c0 18.75-3.45 22.2-10.35 29.1q-10.2 10.35-26.1 10.35Zm1.05-75q-11.4 0-18.9 10.2-7.5 10.05-7.5 28.2 0 18 6.9 26.7t18.3 8.7 18.9-10.05q7.5-10.2 7.5-28.2 0-18.15-6.9-26.85t-18.3-8.7ZM10.5 49.5v74.7l33-37.2H45l-24.45 27.6L52.8 162H42.3l-27.75-40.8-4.05 4.65V162H0V49.5z"/></svg>
