<svg xmlns="http://www.w3.org/2000/svg" viewBox="0 0 212 212" width="16" height="16" x="2" y="2" fill="#9394A0" stroke="#9394A0"><path stroke-width="6" d="M206.934 162c-6.8 0-11.45-1.3-13.95-3.9-2.3-2.2-3.45-4.1-3.45-5.7v-3.15c-4.9 8.9-12.75 13.35-23.55 13.35-12.6 0-19.75-5.7-21.45-17.1-.2-1.2-.3-2.4-.3-3.6 0-1.3.2-2.7.6-4.2.4-1.5 1.55-3.15 3.45-4.95 3.8-3.6 12.15-5.8 25.05-6.6 3.2-.3 6.15-.45 8.85-.45 2.7 0 5.15.1 7.35.3v-24.9c-.2-.1-.2-.55 0-1.35.2-.9 0-2-.6-3.3-.5-1.4-1.2-2.75-2.1-4.05-.9-1.3-2.5-2.4-4.8-3.3-2.3-1-5.3-1.5-9-1.5s-8.05.7-13.05 2.1c-4.9 1.3-8.5 2.6-10.8 3.9l-.6-1.05c8.9-4.1 17.95-6.15 27.15-6.15 10.3 0 17.1 1.85 20.4 5.55 2.6 2.9 3.9 5.95 3.9 9.15v50.25c0 2.9.55 5.15 1.65 6.75 1.2 1.5 2.4 2.3 3.6 2.4l1.65.3h4.65v1.2h-4.65Zm-38.55-.6c5.3 0 10.05-1.8 14.25-5.4 4.3-3.7 6.6-7.25 6.9-10.65V127.2c-2.7-.2-5.45-.3-8.25-.3-2.7 0-5.4.15-8.1.45-7.6.9-12.55 2.6-14.85 5.1-2.3 2.5-3.45 5.95-3.45 10.35 0 .8.05 1.7.15 2.7.9 10.6 5.35 15.9 13.35 15.9ZM96.599 162.6c-10.5 0-19.05-3-25.65-9-6.6-6-9.9-15.25-9.9-27.75s3.4-22.2 10.2-29.1c6.9-6.9 15.6-10.35 26.1-10.35 10.6 0 19.2 3 25.8 9 6.6 6 9.9 15.25 9.9 27.75s-3.45 22.2-10.35 29.1c-6.8 6.9-15.5 10.35-26.1 10.35Zm1.05-75c-7.6 0-13.9 3.4-18.9 10.2-5 6.7-7.5 16.1-7.5 28.2 0 12 2.3 20.9 6.9 26.7 4.6 5.8 10.7 8.7 18.3 8.7 7.6 0 13.9-3.35 18.9-10.05 5-6.8 7.5-16.2 7.5-28.2 0-12.1-2.3-21.05-6.9-26.85-4.6-5.8-10.7-8.7-18.3-8.7ZM10.5 49.5v74.7l33-37.2H45l-24.45 27.6L52.8 162H42.3l-27.75-40.8-4.05 4.65V162H0V49.5h10.5Z" /></svg>
