<svg xmlns="http://www.w3.org/2000/svg" width="76" height="76" fill="none"><path fill="#ff7043" d="M36.414 11.874a2.375 2.375 0 1 1 4.75 0 2.375 2.375 0 0 1-4.75 0m-25.333 19a2.375 2.375 0 1 1 4.75 0 2.375 2.375 0 0 1-4.75 0m49.083 0a2.375 2.375 0 1 1 4.75 0 2.375 2.375 0 0 1-4.75 0M17.08 33.39c.913-.453 1.325-1.647.92-2.668l-.88-2.222h3.46v17.417h-6.982a30.3 30.3 0 0 1-.791-10.408zm16.167-.14V28.5h9.282c.48 0 3.385.509 3.385 2.502 0 1.654-2.229 2.248-4.061 2.248zM20.581 59.374a2.375 2.375 0 1 1 4.75 0 2.375 2.375 0 0 1-4.75 0m30.083 0a2.375 2.375 0 1 1 4.75 0 2.375 2.375 0 0 1-4.75 0m1.158-4.925c-1.022-.227-2.028.446-2.247 1.505l-1.043 5.025a24.81 24.81 0 0 1-21.316-.105l-1.042-5.026c-.219-1.057-1.225-1.731-2.247-1.504l-4.293.953a26 26 0 0 1-2.22-2.704h20.89c.236 0 .394-.045.394-.267V44.69c0-.223-.157-.267-.394-.267h-6.11v-4.84h6.608c.604 0 3.226.178 4.064 3.641.263 1.065.839 4.53 1.233 5.64.393 1.243 1.992 3.728 3.696 3.728h10.786a26 26 0 0 1-2.368 2.832zm11.384-18.522c.146 1.519.164 3.048.054 4.57h-2.607c-.26 0-.366.177-.366.442v1.24c0 2.92-1.588 3.554-2.98 3.716-1.327.155-2.797-.575-2.978-1.416-.782-4.557-2.085-5.53-4.144-7.213 2.555-1.68 5.212-4.16 5.212-7.477 0-3.584-2.37-5.84-3.986-6.947-2.268-1.548-4.778-1.859-5.456-1.859H18.998c3.727-4.314 8.723-7.235 14.214-8.31l3.178 3.453c.718.78 1.908.808 2.66.063l3.555-3.523C49.94 14.09 56.3 18.783 59.996 25.5l-2.434 5.695c-.42.986.009 2.139.958 2.576zm6.253-.594-.083-.853 2.515-2.347c.512-.477.32-1.437-.334-1.68l-3.216-1.203-.251-.83 2.006-2.787c.409-.566.033-1.47-.656-1.583l-3.391-.552-.408-.762 1.425-3.128c.292-.637-.25-1.451-.951-1.425l-3.442.12-.544-.66.791-3.352c.16-.68-.53-1.372-1.212-1.212l-3.351.79-.661-.544.12-3.442c.027-.697-.788-1.24-1.424-.952l-3.127 1.426-.762-.408-.553-3.392c-.112-.688-1.017-1.064-1.583-.656L47.58 7.907l-.829-.25-1.202-3.218c-.244-.655-1.205-.844-1.68-.335L41.52 6.622l-.853-.083-1.812-2.928c-.367-.593-1.348-.593-1.713 0L35.33 6.539l-.854.083-2.347-2.518c-.475-.509-1.436-.32-1.68.335l-1.203 3.217-.829.251-2.787-2.006c-.567-.409-1.472-.032-1.584.656l-.553 3.392-.762.408-3.127-1.426c-.636-.29-1.451.255-1.424.952l.12 3.442-.661.544-3.352-.79c-.681-.159-1.373.531-1.213 1.212l.79 3.353-.543.66-3.441-.12c-.695-.02-1.242.788-.952 1.424l1.425 3.128-.408.762-3.391.552c-.689.111-1.062 1.017-.656 1.583l2.006 2.787-.252.83-3.216 1.202c-.653.244-.844 1.204-.334 1.681L6.62 34.48l-.083.853-2.927 1.812c-.593.366-.593 1.347 0 1.713l2.927 1.812.083.853-2.516 2.347c-.51.475-.319 1.435.334 1.68l3.216 1.203.252.83L5.9 50.37c-.407.567-.032 1.472.657 1.583l3.39.551.408.763-1.425 3.127c-.29.635.258 1.453.952 1.425l3.44-.12.544.66-.79 3.353c-.16.68.532 1.37 1.213 1.21l3.352-.79.66.543-.12 3.442c-.026.697.79 1.242 1.425.952l3.127-1.425.762.408.553 3.39c.112.69 1.017 1.063 1.584.657l2.786-2.007.83.252 1.203 3.215c.243.653 1.204.846 1.68.334l2.347-2.516.853.085 1.813 2.927c.365.59 1.346.592 1.712 0l1.813-2.927.852-.085 2.347 2.516c.476.512 1.436.32 1.68-.334l1.203-3.215.83-.252 2.787 2.007c.566.406 1.47.032 1.583-.657l.553-3.39.761-.408 3.127 1.425c.636.29 1.45-.253 1.425-.952l-.12-3.442.66-.542 3.352.79c.68.159 1.372-.531 1.212-1.21l-.79-3.354.543-.66 3.441.12c.695.028 1.244-.79.952-1.425l-1.425-3.127.407-.763 3.392-.551c.69-.111 1.064-1.016.655-1.583l-2.006-2.787.252-.83 3.216-1.203c.654-.245.845-1.205.334-1.68l-2.516-2.347.083-.853 2.928-1.812c.593-.365.593-1.347 0-1.713z"/></svg>