<svg xmlns="http://www.w3.org/2000/svg" width="49" height="59" fill="none"><g clip-path="url(#a)"><path fill="#ff3e00" d="M45.748 7.774C40.316-.051 29.5-2.343 21.726 2.59L8.021 11.36c-3.738 2.343-6.33 6.18-7.077 10.517-.648 3.638-.1 7.376 1.644 10.615a15.05 15.05 0 0 0-2.342 5.88 16.78 16.78 0 0 0 2.84 12.66C8.57 58.857 19.335 61.15 27.11 56.216l13.705-8.722c3.738-2.342 6.33-6.18 7.077-10.516.648-3.638.1-7.376-1.645-10.615a15.05 15.05 0 0 0 2.343-5.88 16.42 16.42 0 0 0-2.841-12.71"/><path fill="#fff" d="M20.38 51.78a10.86 10.86 0 0 1-11.663-4.336c-1.595-2.193-2.193-4.934-1.744-7.625.1-.449.2-.847.299-1.296l.249-.797.698.498a18.2 18.2 0 0 0 5.382 2.692l.499.149-.05.498a3.34 3.34 0 0 0 .548 2.044c.797 1.146 2.193 1.694 3.538 1.345.3-.1.599-.199.848-.349l13.655-8.721c.698-.449 1.146-1.096 1.296-1.894a3.1 3.1 0 0 0-.498-2.292c-.798-1.147-2.193-1.645-3.539-1.296-.299.1-.598.2-.847.349l-5.233 3.339a9.3 9.3 0 0 1-2.791 1.196 10.86 10.86 0 0 1-11.662-4.336c-1.545-2.193-2.193-4.934-1.694-7.625.448-2.592 2.043-4.934 4.286-6.33l13.705-8.721c.847-.548 1.794-.947 2.79-1.246a10.86 10.86 0 0 1 11.663 4.336c1.595 2.193 2.193 4.934 1.744 7.625-.1.449-.2.847-.349 1.296l-.249.797-.698-.498a18.2 18.2 0 0 0-5.382-2.691l-.498-.15.05-.498a3.34 3.34 0 0 0-.549-2.044c-.797-1.146-2.193-1.644-3.538-1.295-.3.1-.598.199-.848.348l-13.655 8.722c-.698.448-1.146 1.096-1.296 1.894s.05 1.645.498 2.292c.798 1.147 2.193 1.645 3.539 1.296.299-.1.598-.2.847-.349l5.233-3.339c.847-.548 1.794-.947 2.791-1.246a10.86 10.86 0 0 1 11.662 4.336c1.595 2.193 2.193 4.934 1.744 7.625-.448 2.592-2.043 4.934-4.286 6.33L23.17 50.534c-.847.548-1.794.947-2.79 1.246"/></g><defs><clipPath id="a"><path fill="#fff" d="M0 0h48.891v58.808H0z"/></clipPath></defs></svg>