<svg width="21" height="20" viewBox="0 0 21 20" fill="none" xmlns="http://www.w3.org/2000/svg">
<path fill-rule="evenodd" clip-rule="evenodd" d="M20.1004 7.5999C20.1004 11.5764 16.8768 14.7999 12.9004 14.7999C12.173 14.7999 11.4708 14.692 10.8089 14.4914L8.10039 17.1999H5.70039V19.5999H0.900391V14.7999L6.00888 9.69142C5.80826 9.02952 5.70039 8.32731 5.70039 7.5999C5.70039 3.62345 8.92394 0.399902 12.9004 0.399902C16.8768 0.399902 20.1004 3.62345 20.1004 7.5999ZM12.9004 2.7999C12.2376 2.7999 11.7004 3.33716 11.7004 3.9999C11.7004 4.66264 12.2376 5.1999 12.9004 5.1999C14.2259 5.1999 15.3004 6.27442 15.3004 7.5999C15.3004 8.26264 15.8377 8.7999 16.5004 8.7999C17.1631 8.7999 17.7004 8.26264 17.7004 7.5999C17.7004 4.94894 15.5514 2.7999 12.9004 2.7999Z" fill="#6C47FF"/>
</svg>
