<svg xmlns="http://www.w3.org/2000/svg" width="32" height="32" fill="none"><g clip-path="url(#a)"><path fill="#9394a0" fill-opacity=".15" d="M19.998 6.578h3.038v7.414l-9.411.82V32H1.094V6.578h2.194V1.28h16.71z"/><path stroke="#9394a0" stroke-linecap="round" stroke-linejoin="round" stroke-width="1.5" d="M.74 31.25V6.009h3.155m18.93 8.413V6.01h-3.154m-15.776 0V.75H19.67v5.259m-15.776 0H19.67M13.375 31.25V15.422a1 1 0 0 1 1-1h15.88a1 1 0 0 1 1 1V31.25m-11.44-11.414h5M6.283 10.25h11m2.532 15.586h5"/></g><defs><clipPath id="a"><path fill="#fff" d="M0 0h32v32H0z"/></clipPath></defs></svg>