<svg xmlns="http://www.w3.org/2000/svg" width="32" height="32" fill="none"><g stroke="#9394a0" stroke-linecap="round" stroke-linejoin="round" stroke-width="1.5" clip-path="url(#a)"><path fill="#9394a0" fill-opacity=".15" fill-rule="evenodd" d="M28.25.75a3 3 0 0 1 3 3v24.5a3 3 0 0 1-3 3H3.75a3 3 0 0 1-3-3V3.75a3 3 0 0 1 3-3zM8.5 17.71c-.95 0-1.719.77-1.719 1.72v3.093a1.719 1.719 0 1 0 3.438 0V19.43c0-.95-.77-1.72-1.719-1.72" clip-rule="evenodd"/><path d="M14.281 22.523v-9.078a1.719 1.719 0 0 1 3.438 0v9.078a1.719 1.719 0 0 1-3.438 0m7.5 0V9.477a1.719 1.719 0 0 1 3.438 0v13.046a1.719 1.719 0 0 1-3.438 0"/></g><defs><clipPath id="a"><path fill="#fff" d="M0 0h32v32H0z"/></clipPath></defs></svg>