<svg xmlns="http://www.w3.org/2000/svg" width="32" height="32" fill="none"><g clip-path="url(#a)"><path fill="#9394a0" fill-opacity=".15" fill-rule="evenodd" stroke="#9394a0" stroke-linecap="round" stroke-linejoin="round" stroke-width="1.5" d="M17.907.75c.75 0 1.342.597 1.514 1.304.795 3.262 4.511 5.185 7.877 4.181.703-.21 1.512-.016 1.889.594l1.87 3.025c.394.636.149 1.451-.417 1.952a5.596 5.596 0 0 0 0 8.388c.566.5.81 1.316.417 1.953l-1.87 3.024c-.377.61-1.186.803-1.889.594-3.366-1.004-7.082.92-7.877 4.181-.172.707-.764 1.304-1.514 1.304h-3.813c-.751 0-1.342-.597-1.515-1.304-.794-3.262-4.512-5.185-7.878-4.181-.702.21-1.511.016-1.888-.594l-1.87-3.024c-.394-.637-.15-1.452.417-1.953a5.596 5.596 0 0 0 0-8.388c-.566-.5-.81-1.316-.417-1.952l1.87-3.025c.377-.61 1.186-.803 1.888-.594 3.366 1.004 7.084-.92 7.878-4.181.173-.707.764-1.304 1.515-1.304zM16 11.268a4.733 4.733 0 1 0 0 9.466 4.733 4.733 0 0 0 0-9.466" clip-rule="evenodd"/></g><defs><clipPath id="a"><path fill="#fff" d="M0 0h32v32H0z"/></clipPath></defs></svg>