<svg xmlns="http://www.w3.org/2000/svg" width="32" height="32" fill="none"><path fill="#9394a0" fill-opacity=".15" d="M4.734 30.25h22.532c2.2 0 3.984-2.144 3.984-4.788V10.87H.75v14.592c0 2.644 1.784 4.788 3.984 4.788"/><path stroke="#9394a0" stroke-linecap="round" stroke-linejoin="round" stroke-width="1.5" d="M.75 10.87v14.592c0 2.644 1.784 4.788 3.984 4.788h22.532c2.2 0 3.984-2.144 3.984-4.788V10.87m-30.5 0V6.538c0-2.644 1.784-4.788 3.984-4.788h22.532c2.2 0 3.984 2.144 3.984 4.788v4.332m-30.5 0h30.5M7.06 23.41h1.052m9.466 0h7.362"/></svg>