<svg width="32" height="32" viewBox="0 0 32 32" fill="none" xmlns="http://www.w3.org/2000/svg">
<path d="M4.7338 30.25H27.2662C29.4664 30.25 31.25 28.1063 31.25 25.462V10.87H0.75V25.462C0.75 28.1063 2.53361 30.25 4.7338 30.25Z" fill="#9394A0" fill-opacity="0.15"/>
<path d="M0.75 10.87V25.462C0.75 28.1063 2.53361 30.25 4.7338 30.25H27.2662C29.4664 30.25 31.25 28.1063 31.25 25.462V10.87M0.75 10.87V6.538C0.75 3.89366 2.53361 1.75 4.7338 1.75H27.2662C29.4664 1.75 31.25 3.89366 31.25 6.538V10.87M0.75 10.87H31.25M7.06035 23.41H8.11207M17.5776 23.41H24.9397" stroke="#9394A0" stroke-width="1.5" stroke-linecap="round" stroke-linejoin="round"/>
</svg>
