<svg width="32" height="32" viewBox="0 0 32 32" fill="none" xmlns="http://www.w3.org/2000/svg">
<g clip-path="url(#clip0_16604_1627)">
<path d="M16 31.25L1.96216 25.2338C1.22679 24.9186 0.75 24.1955 0.75 23.3955V7.28571L15.2122 1.08765C15.7153 0.872032 16.2847 0.872032 16.7878 1.08765L31.25 7.28571V23.3955C31.25 24.1955 30.7732 24.9186 30.0378 25.2338L16 31.25Z" fill="#9394A0" fill-opacity="0.15"/>
<path d="M0.75 7.28571V23.3955C0.75 24.1955 1.22679 24.9186 1.96216 25.2338L16 31.25M0.75 7.28571L15.2122 1.08765C15.7153 0.872032 16.2847 0.872032 16.7878 1.08765L31.25 7.28571M0.75 7.28571L16 13.8966M16 31.25L30.0378 25.2338C30.7732 24.9186 31.25 24.1955 31.25 23.3955V7.28571M16 31.25V13.8966M31.25 7.28571L16 13.8966" stroke="#9394A0" stroke-width="1.5" stroke-linecap="round" stroke-linejoin="round"/>
<path d="M30.0378 25.2338L16 31.25V13.8965L31.25 7.28571V23.3955C31.25 24.1955 30.7732 24.9186 30.0378 25.2338Z" fill="white" stroke="#9394A0" stroke-width="1.5" stroke-linecap="round" stroke-linejoin="round"/>
</g>
<defs>
<clipPath id="clip0_16604_1627">
<rect width="32" height="32" fill="white"/>
</clipPath>
</defs>
</svg>
