<svg xmlns="http://www.w3.org/2000/svg" width="32" height="32" fill="none"><g clip-path="url(#a)"><path fill="#9394a0" fill-opacity=".15" d="M16 31.25 1.962 25.234A2 2 0 0 1 .75 23.395V7.285l14.462-6.197a2 2 0 0 1 1.576 0L31.25 7.286 16 13.896z"/><path fill="#9394a0" d="m16 31.25-.295.69a.75.75 0 0 0 1.045-.69zM.75 7.286l-.295-.69a.75.75 0 0 0-.455.69zm30.5 0 .298.688a.75.75 0 0 0-.003-1.378zM16.788 1.088l-.296.689zm-1.576 0 .296.689zm1.083 29.473L2.258 24.544l-.591 1.38 14.038 6.015zM1.5 23.395V7.285L0 7.286v16.109zM31.545 6.596 17.083.398l-.591 1.379 14.463 6.198zM14.917.398.455 6.596l.59 1.38 14.463-6.199zM.452 7.974l15.25 6.61.596-1.376-15.25-6.61zm15.846 6.61 15.25-6.61-.596-1.376-15.25 6.61zm-1.048-.688V31.25h1.5V13.896zM17.083.398a2.75 2.75 0 0 0-2.166 0l.59 1.38a1.25 1.25 0 0 1 .985 0zM2.258 24.544a1.25 1.25 0 0 1-.758-1.149H0c0 1.1.656 2.096 1.667 2.529z"/><path stroke="#9394a0" stroke-linecap="round" stroke-linejoin="round" stroke-width="1.5" d="M31.25 7.281v16.11a2 2 0 0 1-1.212 1.838L16 31.246"/></g><defs><clipPath id="a"><path fill="#fff" d="M0 0h32v32H0z"/></clipPath></defs></svg>