<svg width="21" height="20" viewBox="0 0 21 20" fill="none" xmlns="http://www.w3.org/2000/svg">
<path fill-rule="evenodd" clip-rule="evenodd" d="M3.30039 0.399902C1.97491 0.399902 0.900391 1.47442 0.900391 2.7999V15.9999C0.900391 17.9881 2.51217 19.5999 4.50039 19.5999C6.48862 19.5999 8.10039 17.9881 8.10039 15.9999V2.7999C8.10039 1.47442 7.02587 0.399902 5.70039 0.399902H3.30039ZM4.50039 17.1999C5.16313 17.1999 5.70039 16.6626 5.70039 15.9999C5.70039 15.3372 5.16313 14.7999 4.50039 14.7999C3.83765 14.7999 3.30039 15.3372 3.30039 15.9999C3.30039 16.6626 3.83765 17.1999 4.50039 17.1999Z" fill="#6C47FF"/>
<path d="M10.5004 15.091L16.3798 9.21159C17.317 8.27433 17.317 6.75474 16.3798 5.81748L14.6827 4.12042C13.7455 3.18317 12.2259 3.18317 11.2886 4.12042L10.5004 4.90864V15.091Z" fill="#6C47FF"/>
<path d="M17.7004 19.5999H9.38564L16.5856 12.3999H17.7004C19.0259 12.3999 20.1004 13.4744 20.1004 14.7999V17.1999C20.1004 18.5254 19.0259 19.5999 17.7004 19.5999Z" fill="#6C47FF"/>
</svg>
