<svg width="21" height="18" viewBox="0 0 21 18" fill="none" xmlns="http://www.w3.org/2000/svg">
<path fill-rule="evenodd" clip-rule="evenodd" d="M0.900391 2.99998C0.900391 1.67449 1.97491 0.599976 3.30039 0.599976H17.7004C19.0259 0.599976 20.1004 1.67449 20.1004 2.99998V5.39998C20.1004 6.72546 19.0259 7.79998 17.7004 7.79998H3.30039C1.97491 7.79998 0.900391 6.72546 0.900391 5.39998V2.99998ZM17.7004 4.19998C17.7004 4.86272 17.1631 5.39998 16.5004 5.39998C15.8376 5.39998 15.3004 4.86272 15.3004 4.19998C15.3004 3.53723 15.8376 2.99998 16.5004 2.99998C17.1631 2.99998 17.7004 3.53723 17.7004 4.19998Z" fill="#6C47FF"/>
<path fill-rule="evenodd" clip-rule="evenodd" d="M0.900391 12.6C0.900391 11.2745 1.97491 10.2 3.30039 10.2H17.7004C19.0259 10.2 20.1004 11.2745 20.1004 12.6V15C20.1004 16.3255 19.0259 17.4 17.7004 17.4H3.30039C1.97491 17.4 0.900391 16.3255 0.900391 15V12.6ZM17.7004 13.8C17.7004 14.4627 17.1631 15 16.5004 15C15.8376 15 15.3004 14.4627 15.3004 13.8C15.3004 13.1372 15.8376 12.6 16.5004 12.6C17.1631 12.6 17.7004 13.1372 17.7004 13.8Z" fill="#6C47FF"/>
</svg>
