<svg width="32" height="32" viewBox="0 0 32 32" fill="none" xmlns="http://www.w3.org/2000/svg">
<path d="M3.75 4.82692C3.75 2.5753 9.23451 0.75 16 0.75C22.7655 0.75 28.25 2.5753 28.25 4.82692V16V27.1731C28.25 29.4247 22.7655 31.25 16 31.25C9.23451 31.25 3.75 29.4247 3.75 27.1731V16V4.82692Z" fill="#9394A0" fill-opacity="0.15"/>
<path d="M28.25 4.82692C28.25 2.5753 22.7655 0.75 16 0.75C9.23451 0.75 3.75 2.5753 3.75 4.82692M28.25 4.82692V27.1731C28.25 29.4247 22.7655 31.25 16 31.25C9.23451 31.25 3.75 29.4247 3.75 27.1731V4.82692M28.25 4.82692C28.25 7.07855 22.7655 8.90385 16 8.90385C9.23451 8.90385 3.75 7.07855 3.75 4.82692M28.25 16C28.25 18.2516 22.7655 20.0769 16 20.0769C9.23451 20.0769 3.75 18.2516 3.75 16" stroke="#9394A0" stroke-width="1.5" stroke-linecap="round" stroke-linejoin="round"/>
<path d="M16 0.75C9.23451 0.75 3.75 2.5753 3.75 4.82692C3.75 7.07855 9.23451 8.90385 16 8.90385C22.7655 8.90385 28.25 7.07855 28.25 4.82692C28.25 2.5753 22.7655 0.75 16 0.75Z" fill="white" stroke="#9394A0" stroke-width="1.5" stroke-linecap="round" stroke-linejoin="round"/>
</svg>
