<svg xmlns="http://www.w3.org/2000/svg" width="32" height="32" fill="none"><path fill="#9394a0" fill-opacity=".15" d="M28.25 27.173c0 2.252-5.485 4.077-12.25 4.077S3.75 29.425 3.75 27.173V4.827c0 2.252 5.485 4.077 12.25 4.077s12.25-1.825 12.25-4.077z"/><path stroke="#9394a0" stroke-linecap="round" stroke-linejoin="round" stroke-width="1.5" d="M28.25 16c0 2.252-5.485 4.077-12.25 4.077S3.75 18.252 3.75 16m24.5 0v11.173c0 2.252-5.485 4.077-12.25 4.077S3.75 29.425 3.75 27.173V16m24.5 0V4.827M3.75 16V4.827m24.5 0c0 2.252-5.485 4.077-12.25 4.077S3.75 7.079 3.75 4.827m24.5 0C28.25 2.575 22.765.75 16 .75S3.75 2.575 3.75 4.827"/></svg>