<svg xmlns="http://www.w3.org/2000/svg" width="32" height="32" fill="none"><path stroke="#9394a0" stroke-linecap="round" stroke-linejoin="round" stroke-width="1.5" d="M24.382 20.897c0-4.45-3.753-8.059-8.382-8.059-4.63 0-8.382 3.608-8.382 8.059 0 3.045 1.098 5.843 2.934 8.05a13.3 13.3 0 0 0 2.105 2.023M30.25 12.402C27.292 7.826 22.016 4.78 16 4.78S4.708 7.826 1.75 12.402m24.309-9.184A21.5 21.5 0 0 0 16 .75c-3.645 0-7.073.895-10.059 2.468M21.03 31.25c-5.222-.775-9.22-5.115-9.22-10.353 0-2.225 1.876-4.03 4.191-4.03s4.191 1.805 4.191 4.03 1.877 4.03 4.191 4.03 4.191-1.805 4.191-4.03c0-6.676-5.629-12.088-12.573-12.088S3.426 14.22 3.426 20.897c0 2.037.525 3.957 1.45 5.641M16 20.091c0 4.45 3.753 8.059 8.382 8.059q.863-.002 1.677-.162"/></svg>