<svg xmlns="http://www.w3.org/2000/svg" width="32" height="32" fill="none"><g clip-path="url(#a)"><path fill="#9394a0" fill-opacity=".15" fill-rule="evenodd" stroke="#9394a0" stroke-linecap="round" stroke-linejoin="round" stroke-width="1.5" d="M22.31.75a8.94 8.94 0 0 1 8.94 8.94 8.94 8.94 0 0 1-10.176 8.855c-.684-.095-1.395.066-1.9.538l-6.855 6.412H8.231v1.755a4 4 0 0 1-4 4H.75v-7.362l12.014-12.014c.455-.455.648-1.102.617-1.745A8.94 8.94 0 0 1 22.31.75m1.171 5.755a2.014 2.014 0 1 0 0 4.028 2.014 2.014 0 0 0 0-4.028" clip-rule="evenodd"/></g><defs><clipPath id="a"><path fill="#fff" d="M0 0h32v32H0z"/></clipPath></defs></svg>