<svg width="23" height="19" viewBox="0 0 23 19" fill="none" xmlns="http://www.w3.org/2000/svg">
<path d="M15.0992 4.19998C15.0992 6.1882 13.4874 7.79998 11.4992 7.79998C9.51099 7.79998 7.89922 6.1882 7.89922 4.19998C7.89922 2.21175 9.51099 0.599976 11.4992 0.599976C13.4874 0.599976 15.0992 2.21175 15.0992 4.19998Z" fill="#6C47FF"/>
<path d="M21.0992 6.59998C21.0992 7.92546 20.0247 8.99998 18.6992 8.99998C17.3737 8.99998 16.2992 7.92546 16.2992 6.59998C16.2992 5.27449 17.3737 4.19998 18.6992 4.19998C20.0247 4.19998 21.0992 5.27449 21.0992 6.59998Z" fill="#6C47FF"/>
<path d="M16.2992 15C16.2992 12.349 14.1502 10.2 11.4992 10.2C8.84825 10.2 6.69922 12.349 6.69922 15V18.6H16.2992V15Z" fill="#6C47FF"/>
<path d="M6.69922 6.59998C6.69922 7.92546 5.6247 8.99998 4.29922 8.99998C2.97374 8.99998 1.89922 7.92546 1.89922 6.59998C1.89922 5.27449 2.97374 4.19998 4.29922 4.19998C5.6247 4.19998 6.69922 5.27449 6.69922 6.59998Z" fill="#6C47FF"/>
<path d="M18.6992 18.6V15C18.6992 13.735 18.373 12.5462 17.8001 11.5132C18.0875 11.4393 18.3888 11.4 18.6992 11.4C20.6874 11.4 22.2992 13.0118 22.2992 15V18.6H18.6992Z" fill="#6C47FF"/>
<path d="M5.19833 11.5132C4.62544 12.5462 4.29922 13.735 4.29922 15V18.6H0.699219V15C0.699219 13.0118 2.31099 11.4 4.29922 11.4C4.60967 11.4 4.91094 11.4393 5.19833 11.5132Z" fill="#6C47FF"/>
</svg>
