<svg width="20" height="18" viewBox="0 0 20 18" fill="none" xmlns="http://www.w3.org/2000/svg">
<path fill-rule="evenodd" clip-rule="evenodd" d="M0.566406 3.0001C0.566406 1.67461 1.64092 0.600098 2.96641 0.600098H17.3664C18.6919 0.600098 19.7664 1.67461 19.7664 3.0001V15.0001C19.7664 16.3256 18.6919 17.4001 17.3664 17.4001H2.96641C1.64092 17.4001 0.566406 16.3256 0.566406 15.0001V3.0001ZM4.51788 4.55157C4.98651 4.08294 5.74631 4.08294 6.21493 4.55157L9.81493 8.15157C10.2836 8.6202 10.2836 9.38 9.81493 9.84863L6.21493 13.4486C5.74631 13.9173 4.98651 13.9173 4.51788 13.4486C4.04925 12.98 4.04925 12.2202 4.51788 11.7516L7.26935 9.0001L4.51788 6.24863C4.04925 5.78 4.04925 5.0202 4.51788 4.55157ZM11.3664 11.4001C10.7037 11.4001 10.1664 11.9374 10.1664 12.6001C10.1664 13.2628 10.7037 13.8001 11.3664 13.8001H14.9664C15.6291 13.8001 16.1664 13.2628 16.1664 12.6001C16.1664 11.9374 15.6291 11.4001 14.9664 11.4001H11.3664Z" fill="#6C47FF"/>
</svg>
