<svg width="21" height="20" viewBox="0 0 21 20" fill="none" xmlns="http://www.w3.org/2000/svg">
<path fill-rule="evenodd" clip-rule="evenodd" d="M1.09972 3.99871C4.70964 3.94974 7.99873 2.57242 10.5004 0.333374C13.0021 2.57242 16.2911 3.94974 19.9011 3.99871C20.0322 4.77964 20.1004 5.58188 20.1004 6.40006C20.1004 12.6699 16.0933 18.0038 10.5004 19.9806C4.90747 18.0038 0.900391 12.6699 0.900391 6.40006C0.900391 5.58188 0.968627 4.77964 1.09972 3.99871ZM14.9489 8.44855C15.4175 7.97992 15.4175 7.22013 14.9489 6.7515C14.4803 6.28287 13.7205 6.28287 13.2519 6.7515L9.30039 10.703L7.74892 9.1515C7.28029 8.68287 6.52049 8.68287 6.05186 9.1515C5.58323 9.62013 5.58323 10.3799 6.05186 10.8486L8.45186 13.2486C8.92049 13.7172 9.68029 13.7172 10.1489 13.2486L14.9489 8.44855Z" fill="#6C47FF"/>
</svg>
