<svg width="32" height="32" viewBox="0 0 32 32" fill="none" xmlns="http://www.w3.org/2000/svg">
<g clip-path="url(#clip0_16604_1667)">
<path d="M16 0.75C24.4223 0.75 31.25 6.67855 31.25 13.9912C31.2497 21.3037 24.4222 27.2314 16 27.2314C13.3344 27.2314 10.8287 26.6373 8.64844 25.5938C5.26015 27.653 0.75 28.25 0.75 28.25C2.05794 27.3 3.23513 24.1339 3.69629 21.8145C1.84429 19.6226 0.750117 16.918 0.75 13.9912C0.75 6.67855 7.57766 0.75 16 0.75Z" fill="#9394A0" fill-opacity="0.15"/>
<path d="M31.25 13.9912L32 13.9912V13.9912H31.25ZM8.64844 25.5938L8.97224 24.9173C8.74372 24.8079 8.47542 24.8213 8.25892 24.9528L8.64844 25.5938ZM0.75 28.25L0.309249 27.6432C0.0315443 27.8449 -0.0738034 28.2094 0.05347 28.5281C0.180743 28.8469 0.508157 29.0386 0.848415 28.9935L0.75 28.25ZM3.69629 21.8145L4.43189 21.9607C4.47641 21.7368 4.41652 21.5048 4.26917 21.3304L3.69629 21.8145ZM0.75 13.9912H0V13.9912L0.75 13.9912ZM16 0.75V1.5C24.1111 1.5 30.5 7.18872 30.5 13.9912H31.25H32C32 6.16839 24.7336 0 16 0V0.75ZM31.25 13.9912L30.5 13.9912C30.4997 20.7934 24.1109 26.4814 16 26.4814V27.2314V27.9814C24.7334 27.9814 31.9997 21.8139 32 13.9912L31.25 13.9912ZM16 27.2314V26.4814C13.4459 26.4814 11.0509 25.9122 8.97224 24.9173L8.64844 25.5938L8.32463 26.2702C10.6065 27.3624 13.2229 27.9814 16 27.9814V27.2314ZM8.64844 25.5938L8.25892 24.9528C6.65297 25.9289 4.75689 26.5705 3.23841 26.9686C2.48375 27.1665 1.83234 27.3016 1.37103 27.3871C1.14056 27.4298 0.95804 27.46 0.834395 27.4794C0.772586 27.489 0.725531 27.496 0.694596 27.5004C0.679131 27.5027 0.667699 27.5043 0.660472 27.5053C0.656859 27.5058 0.654298 27.5061 0.652809 27.5063C0.652065 27.5064 0.651589 27.5065 0.651384 27.5065C0.651282 27.5065 0.651247 27.5065 0.65128 27.5065C0.651297 27.5065 0.651373 27.5065 0.651381 27.5065C0.651475 27.5065 0.651585 27.5065 0.75 28.25C0.848415 28.9935 0.84856 28.9935 0.848722 28.9935C0.848799 28.9935 0.848978 28.9934 0.849132 28.9934C0.84944 28.9934 0.849817 28.9933 0.850262 28.9933C0.851153 28.9932 0.852318 28.993 0.853755 28.9928C0.856628 28.9924 0.860587 28.9919 0.865611 28.9912C0.875658 28.9898 0.889965 28.9878 0.90836 28.9851C0.945147 28.9798 0.998298 28.972 1.06643 28.9613C1.20267 28.94 1.39898 28.9074 1.64428 28.862C2.13451 28.7712 2.8224 28.6284 3.61881 28.4196C5.20247 28.0044 7.25561 27.3179 9.03796 26.2347L8.64844 25.5938ZM0.75 28.25L1.19075 28.8568C2.02281 28.2525 2.70968 27.0529 3.22983 25.8417C3.76723 24.5903 4.19176 23.1685 4.43189 21.9607L3.69629 21.8145L2.96069 21.6682C2.73966 22.7798 2.34501 24.1008 1.85155 25.2498C1.34083 26.439 0.785128 27.2975 0.309249 27.6432L0.75 28.25ZM3.69629 21.8145L4.26917 21.3304C2.52055 19.2609 1.50011 16.7244 1.5 13.9912L0.75 13.9912L0 13.9912C0.000124872 17.1115 1.16803 19.9843 3.12341 22.2985L3.69629 21.8145ZM0.75 13.9912H1.5C1.5 7.18872 7.88892 1.5 16 1.5V0.75V0C7.2664 0 0 6.16839 0 13.9912H0.75Z" fill="#9394A0"/>
<path d="M22 30.6028C16.8914 30.6028 12.75 26.8302 12.75 22.1764C12.75 17.5226 16.8914 13.75 22 13.75C27.1086 13.75 31.25 17.5226 31.25 22.1764C31.25 24.0402 30.5858 25.7626 29.4612 27.158C29.7413 28.6338 30.4572 30.6458 31.25 31.25C31.25 31.25 28.5145 30.871 26.4593 29.5607C25.1369 30.2249 23.6169 30.6028 22 30.6028Z" fill="white" stroke="#9394A0" stroke-width="1.5" stroke-linecap="round" stroke-linejoin="round"/>
</g>
<defs>
<clipPath id="clip0_16604_1667">
<rect width="32" height="32" fill="white"/>
</clipPath>
</defs>
</svg>
