<svg xmlns="http://www.w3.org/2000/svg" width="32" height="32" fill="none"><g clip-path="url(#a)"><path fill="#9394a0" fill-opacity=".15" fill-rule="evenodd" d="M12.32.75c1.16 0 2.103.942 2.103 2.104v24.271l-2.673 2.75-4.164 1.375-.352-.009A6.837 6.837 0 0 1 .75 24.414V2.854C.75 1.692 1.692.75 2.854.75zM7.546 22a2 2 0 1 0 0 4 2 2 0 0 0 0-4" clip-rule="evenodd"/><path stroke="#9394a0" stroke-linecap="round" stroke-linejoin="round" stroke-width="1.5" d="M7.586 31.25a6.837 6.837 0 0 0 6.837-6.836V2.854A2.104 2.104 0 0 0 12.319.75H2.854A2.104 2.104 0 0 0 .75 2.854v21.56a6.836 6.836 0 0 0 6.836 6.836m0 0h21.56a2.103 2.103 0 0 0 2.104-2.103V19.68a2.103 2.103 0 0 0-2.103-2.103h-4.733m0 0C23.99 18 13.832 27.93 13.339 28.218m11.075-10.64 5.551-5.673a2.104 2.104 0 0 0 0-2.975l-6.693-6.693a2.103 2.103 0 0 0-2.975 0l-5.875 5.875M7.547 22a2 2 0 1 0 0 4 2 2 0 0 0 0-4"/></g><defs><clipPath id="a"><path fill="#fff" d="M0 0h32v32H0z"/></clipPath></defs></svg>