<svg xmlns="http://www.w3.org/2000/svg" width="32" height="32" fill="none"><g clip-path="url(#a)"><circle cx="16" cy="16" r="15.25" stroke="#9394a0" stroke-linecap="round" stroke-linejoin="round" stroke-width="1.5"/><path fill="#9394a0" fill-opacity=".15" d="M7.052 28.349a16.9 16.9 0 0 0 4.454 2.227 15.2 15.2 0 0 1-4.454-2.227m17.895 0a15.2 15.2 0 0 1-4.454 2.227 16.9 16.9 0 0 0 4.454-2.227M16 .75C24.422.75 31.25 7.578 31.25 16a15.2 15.2 0 0 1-5.067 11.35c-2.15-3.347-3.805-5.566-10.183-5.566s-8.033 2.218-10.184 5.567A15.2 15.2 0 0 1 .75 16C.75 7.578 7.578.75 16 .75"/><path fill="#9394a0" d="m7.052 28.349.433-.613a.75.75 0 0 0-.874 1.22zm4.454 2.227-.22.717a.75.75 0 0 0 .452-1.43zm13.441-2.227.44.607a.75.75 0 0 0-.873-1.22zm-4.454 2.227-.231-.713a.75.75 0 0 0 .452 1.43zm5.69-3.225-.631.405a.75.75 0 0 0 1.132.153zM16 21.784v-.75zM5.816 27.351l-.5.558a.75.75 0 0 0 1.131-.153zm1.236.998-.433.612a17.6 17.6 0 0 0 4.655 2.329l.232-.714.232-.713a16.1 16.1 0 0 1-4.253-2.127zm4.454 2.227.22-.717a14.5 14.5 0 0 1-4.234-2.117l-.44.607-.44.607a16 16 0 0 0 4.673 2.337zm13.441-2.227-.44-.607a14.4 14.4 0 0 1-4.235 2.117l.221.717.22.717a16 16 0 0 0 4.675-2.337zm-4.454 2.227.232.713a17.6 17.6 0 0 0 4.655-2.328l-.433-.612-.433-.613a16.1 16.1 0 0 1-4.252 2.127zM16 .75v.75c8.008 0 14.5 6.492 14.5 14.5H32c0-8.837-7.163-16-16-16zM31.25 16h-.75a14.46 14.46 0 0 1-4.818 10.793l.5.558.502.558A15.96 15.96 0 0 0 32 16zm-5.067 11.35.63-.405c-1.069-1.665-2.095-3.188-3.724-4.26-1.646-1.082-3.817-1.65-7.089-1.65v1.5c3.106 0 4.951.54 6.265 1.404 1.33.874 2.206 2.134 3.287 3.817zM16 21.785v-.75c-3.272 0-5.443.569-7.09 1.651-1.628 1.072-2.655 2.595-3.725 4.26l.631.406.631.405c1.081-1.683 1.958-2.943 3.288-3.818 1.313-.863 3.159-1.404 6.265-1.404zM5.816 27.351l.501-.558A14.46 14.46 0 0 1 1.5 16H0c0 4.73 2.054 8.98 5.315 11.909zM.75 16h.75C1.5 7.992 7.992 1.5 16 1.5V0C7.163 0 0 7.163 0 16z"/><circle cx="16" cy="12.845" r="3.681" stroke="#9394a0" stroke-linecap="round" stroke-linejoin="round" stroke-width="1.5"/></g><defs><clipPath id="a"><path fill="#fff" d="M0 0h32v32H0z"/></clipPath></defs></svg>