<svg xmlns="http://www.w3.org/2000/svg" width="32" height="32" fill="none"><path fill="#9394a0" fill-opacity=".15" d="M29 1.031a3 3 0 0 1 3 3V23.97l-.004.142A6.75 6.75 0 0 0 25.25 17.5a6.75 6.75 0 0 0-.64 13.469H3a3 3 0 0 1-3-3V4.03a3 3 0 0 1 3-3z"/><path stroke="#9394a0" stroke-linecap="round" stroke-linejoin="round" stroke-width="1.5" d="M14.422 30.25H2.75a2 2 0 0 1-2-2V3.75a2 2 0 0 1 2-2h26.5a2 2 0 0 1 2 2v8.26M5.813 9.5h20.5M5.813 16h10.25m-10.25 6.5h6.343"/><path stroke="#9394a0" stroke-linecap="round" stroke-linejoin="round" stroke-width="1.5" d="M25.25 21.564v2.686l1.86 1.86m4.14-1.86a6 6 0 1 1-12 0 6 6 0 0 1 12 0"/></svg>