<svg width="32" height="32" viewBox="0 0 32 32" fill="none" xmlns="http://www.w3.org/2000/svg">
<path d="M29 1.03125C30.6569 1.03125 32 2.3744 32 4.03125V23.9688C32 24.0164 31.997 24.0639 31.9961 24.1113C31.9222 20.4474 28.9316 17.5 25.25 17.5C21.5221 17.5 18.5 20.5221 18.5 24.25C18.5 27.7621 21.1825 30.6465 24.6104 30.9688H3C1.34315 30.9687 0 29.6256 0 27.9688V4.03125C0 2.3744 1.34315 1.03125 3 1.03125H29Z" fill="#9394A0" fill-opacity="0.15"/>
<path d="M14.4224 30.2499H2.75C1.64543 30.2499 0.75 29.3545 0.75 28.2499V3.74994C0.75 2.64537 1.64543 1.74994 2.75 1.74994H29.25C30.3546 1.74994 31.25 2.64537 31.25 3.74994V12.01" stroke="#9394A0" stroke-width="1.5" stroke-linecap="round" stroke-linejoin="round"/>
<path d="M5.8125 9.5H26.3125" stroke="#9394A0" stroke-width="1.5" stroke-linecap="round" stroke-linejoin="round"/>
<path d="M5.8125 16H16.0625" stroke="#9394A0" stroke-width="1.5" stroke-linecap="round" stroke-linejoin="round"/>
<path d="M5.8125 22.5H12.1563" stroke="#9394A0" stroke-width="1.5" stroke-linecap="round" stroke-linejoin="round"/>
<path d="M25.25 21.564V24.25L27.1098 26.1098M31.25 24.25C31.25 27.5637 28.5637 30.25 25.25 30.25C21.9363 30.25 19.25 27.5637 19.25 24.25C19.25 20.9363 21.9363 18.25 25.25 18.25C28.5637 18.25 31.25 20.9363 31.25 24.25Z" stroke="#9394A0" stroke-width="1.5" stroke-linecap="round" stroke-linejoin="round"/>
</svg>
